<svg width="900" height="262" viewBox="0 0 900 262" fill="none" xmlns="http://www.w3.org/2000/svg">
<path d="M390.25 21.3643V19.8182H398.374V21.3643H395.227V30H393.397V21.3643H390.25ZM402.084 30.1491C401.338 30.1491 400.692 29.9851 400.145 29.657C399.598 29.3288 399.174 28.8698 398.872 28.2798C398.574 27.6899 398.425 27.0005 398.425 26.2116C398.425 25.4228 398.574 24.7318 398.872 24.1385C399.174 23.5452 399.598 23.0845 400.145 22.7564C400.692 22.4283 401.338 22.2642 402.084 22.2642C402.83 22.2642 403.476 22.4283 404.023 22.7564C404.57 23.0845 404.992 23.5452 405.29 24.1385C405.592 24.7318 405.743 25.4228 405.743 26.2116C405.743 27.0005 405.592 27.6899 405.29 28.2798C404.992 28.8698 404.57 29.3288 404.023 29.657C403.476 29.9851 402.83 30.1491 402.084 30.1491ZM402.094 28.7074C402.498 28.7074 402.836 28.5964 403.108 28.3743C403.38 28.1489 403.582 27.8473 403.714 27.4695C403.85 27.0916 403.918 26.6707 403.918 26.2067C403.918 25.7393 403.85 25.3168 403.714 24.9389C403.582 24.5578 403.38 24.2545 403.108 24.0291C402.836 23.8037 402.498 23.6911 402.094 23.6911C401.679 23.6911 401.335 23.8037 401.06 24.0291C400.788 24.2545 400.584 24.5578 400.448 24.9389C400.316 25.3168 400.249 25.7393 400.249 26.2067C400.249 26.6707 400.316 27.0916 400.448 27.4695C400.584 27.8473 400.788 28.1489 401.06 28.3743C401.335 28.5964 401.679 28.7074 402.094 28.7074ZM407.27 32.8636V22.3636H409.04V23.6264H409.145C409.238 23.4408 409.368 23.2436 409.537 23.0348C409.706 22.8227 409.935 22.642 410.224 22.4929C410.512 22.3404 410.88 22.2642 411.327 22.2642C411.917 22.2642 412.449 22.415 412.923 22.7166C413.4 23.0149 413.778 23.4574 414.057 24.044C414.338 24.6274 414.479 25.3433 414.479 26.1918C414.479 27.0303 414.342 27.7429 414.067 28.3295C413.791 28.9162 413.417 29.3636 412.943 29.6719C412.469 29.9801 411.932 30.1342 411.332 30.1342C410.895 30.1342 410.532 30.0613 410.243 29.9155C409.955 29.7696 409.723 29.594 409.547 29.3885C409.375 29.1797 409.241 28.9825 409.145 28.7969H409.07V32.8636H407.27ZM409.035 26.1818C409.035 26.6757 409.105 27.1082 409.244 27.4794C409.387 27.8506 409.59 28.1406 409.856 28.3494C410.124 28.5549 410.449 28.6577 410.83 28.6577C411.228 28.6577 411.561 28.5516 411.829 28.3395C412.098 28.1241 412.3 27.8307 412.436 27.4595C412.575 27.085 412.645 26.6591 412.645 26.1818C412.645 25.7079 412.577 25.2869 412.441 24.919C412.305 24.5511 412.103 24.2628 411.834 24.054C411.566 23.8452 411.231 23.7408 410.83 23.7408C410.446 23.7408 410.119 23.8419 409.851 24.044C409.582 24.2462 409.378 24.5296 409.239 24.8942C409.103 25.2588 409.035 25.688 409.035 26.1818ZM420.649 25.0185V26.5H416.065V25.0185H420.649ZM425.376 30.1342C424.776 30.1342 424.239 29.9801 423.765 29.6719C423.291 29.3636 422.916 28.9162 422.641 28.3295C422.366 27.7429 422.229 27.0303 422.229 26.1918C422.229 25.3433 422.368 24.6274 422.646 24.044C422.928 23.4574 423.308 23.0149 423.785 22.7166C424.262 22.415 424.794 22.2642 425.381 22.2642C425.828 22.2642 426.196 22.3404 426.484 22.4929C426.773 22.642 427.001 22.8227 427.17 23.0348C427.339 23.2436 427.47 23.4408 427.563 23.6264H427.638V19.8182H429.442V30H427.673V28.7969H427.563C427.47 28.9825 427.336 29.1797 427.161 29.3885C426.985 29.594 426.753 29.7696 426.464 29.9155C426.176 30.0613 425.813 30.1342 425.376 30.1342ZM425.878 28.6577C426.259 28.6577 426.584 28.5549 426.852 28.3494C427.121 28.1406 427.325 27.8506 427.464 27.4794C427.603 27.1082 427.673 26.6757 427.673 26.1818C427.673 25.688 427.603 25.2588 427.464 24.8942C427.328 24.5296 427.126 24.2462 426.857 24.044C426.592 23.8419 426.266 23.7408 425.878 23.7408C425.477 23.7408 425.142 23.8452 424.874 24.054C424.605 24.2628 424.403 24.5511 424.267 24.919C424.131 25.2869 424.063 25.7079 424.063 26.1818C424.063 26.6591 424.131 27.085 424.267 27.4595C424.406 27.8307 424.61 28.1241 424.879 28.3395C425.15 28.5516 425.483 28.6577 425.878 28.6577ZM434.691 30.1491C433.945 30.1491 433.299 29.9851 432.752 29.657C432.205 29.3288 431.781 28.8698 431.48 28.2798C431.181 27.6899 431.032 27.0005 431.032 26.2116C431.032 25.4228 431.181 24.7318 431.48 24.1385C431.781 23.5452 432.205 23.0845 432.752 22.7564C433.299 22.4283 433.945 22.2642 434.691 22.2642C435.437 22.2642 436.083 22.4283 436.63 22.7564C437.177 23.0845 437.6 23.5452 437.898 24.1385C438.2 24.7318 438.35 25.4228 438.35 26.2116C438.35 27.0005 438.2 27.6899 437.898 28.2798C437.6 28.8698 437.177 29.3288 436.63 29.657C436.083 29.9851 435.437 30.1491 434.691 30.1491ZM434.701 28.7074C435.106 28.7074 435.444 28.5964 435.715 28.3743C435.987 28.1489 436.189 27.8473 436.322 27.4695C436.458 27.0916 436.526 26.6707 436.526 26.2067C436.526 25.7393 436.458 25.3168 436.322 24.9389C436.189 24.5578 435.987 24.2545 435.715 24.0291C435.444 23.8037 435.106 23.6911 434.701 23.6911C434.287 23.6911 433.942 23.8037 433.667 24.0291C433.395 24.2545 433.191 24.5578 433.056 24.9389C432.923 25.3168 432.857 25.7393 432.857 26.2067C432.857 26.6707 432.923 27.0916 433.056 27.4695C433.191 27.8473 433.395 28.1489 433.667 28.3743C433.942 28.5964 434.287 28.7074 434.701 28.7074ZM441.235 30L439.077 22.3636H440.912L442.254 27.733H442.324L443.696 22.3636H445.511L446.883 27.7031H446.957L448.28 22.3636H450.119L447.957 30H446.082L444.651 24.8395H444.546L443.114 30H441.235ZM453.176 25.5256V30H451.376V22.3636H453.096V23.6612H453.186C453.361 23.2337 453.641 22.8939 454.026 22.642C454.414 22.3902 454.892 22.2642 455.463 22.2642C455.99 22.2642 456.449 22.3769 456.84 22.6023C457.234 22.8277 457.539 23.1541 457.754 23.5817C457.973 24.0092 458.081 24.5279 458.078 25.1378V30H456.278V25.4162C456.278 24.9058 456.145 24.5064 455.88 24.218C455.618 23.9297 455.255 23.7855 454.791 23.7855C454.477 23.7855 454.196 23.8551 453.951 23.9943C453.709 24.1302 453.519 24.3274 453.379 24.5859C453.244 24.8445 453.176 25.1577 453.176 25.5256ZM466.711 30.1491C465.948 30.1491 465.294 29.9818 464.747 29.647C464.203 29.3123 463.784 28.8499 463.489 28.2599C463.198 27.6667 463.052 26.9839 463.052 26.2116C463.052 25.4361 463.201 24.7517 463.499 24.1584C463.797 23.5618 464.218 23.0978 464.762 22.7663C465.309 22.4316 465.955 22.2642 466.701 22.2642C467.321 22.2642 467.869 22.3786 468.346 22.6072C468.827 22.8326 469.21 23.1525 469.495 23.5668C469.78 23.9777 469.942 24.4583 469.982 25.0085H468.262C468.192 24.6406 468.027 24.334 467.765 24.0888C467.506 23.8402 467.16 23.7159 466.726 23.7159C466.358 23.7159 466.035 23.8153 465.756 24.0142C465.478 24.2098 465.261 24.4915 465.105 24.8594C464.952 25.2273 464.876 25.6681 464.876 26.1818C464.876 26.7022 464.952 27.1496 465.105 27.5241C465.257 27.8954 465.471 28.1821 465.746 28.3842C466.025 28.5831 466.351 28.6825 466.726 28.6825C466.991 28.6825 467.228 28.6328 467.437 28.5334C467.649 28.4306 467.826 28.2831 467.969 28.0909C468.111 27.8987 468.209 27.665 468.262 27.3899H469.982C469.939 27.9302 469.78 28.4091 469.505 28.8267C469.23 29.241 468.855 29.5658 468.381 29.8011C467.907 30.0331 467.35 30.1491 466.711 30.1491ZM474.791 30.1491C474.045 30.1491 473.399 29.9851 472.852 29.657C472.305 29.3288 471.881 28.8698 471.579 28.2798C471.281 27.6899 471.132 27.0005 471.132 26.2116C471.132 25.4228 471.281 24.7318 471.579 24.1385C471.881 23.5452 472.305 23.0845 472.852 22.7564C473.399 22.4283 474.045 22.2642 474.791 22.2642C475.537 22.2642 476.183 22.4283 476.73 22.7564C477.277 23.0845 477.699 23.5452 477.998 24.1385C478.299 24.7318 478.45 25.4228 478.45 26.2116C478.45 27.0005 478.299 27.6899 477.998 28.2798C477.699 28.8698 477.277 29.3288 476.73 29.657C476.183 29.9851 475.537 30.1491 474.791 30.1491ZM474.801 28.7074C475.205 28.7074 475.543 28.5964 475.815 28.3743C476.087 28.1489 476.289 27.8473 476.422 27.4695C476.557 27.0916 476.625 26.6707 476.625 26.2067C476.625 25.7393 476.557 25.3168 476.422 24.9389C476.289 24.5578 476.087 24.2545 475.815 24.0291C475.543 23.8037 475.205 23.6911 474.801 23.6911C474.386 23.6911 474.042 23.8037 473.767 24.0291C473.495 24.2545 473.291 24.5578 473.155 24.9389C473.023 25.3168 472.956 25.7393 472.956 26.2067C472.956 26.6707 473.023 27.0916 473.155 27.4695C473.291 27.8473 473.495 28.1489 473.767 28.3743C474.042 28.5964 474.386 28.7074 474.801 28.7074ZM481.777 25.5256V30H479.977V22.3636H481.698V23.6612H481.787C481.963 23.2337 482.243 22.8939 482.627 22.642C483.015 22.3902 483.494 22.2642 484.064 22.2642C484.591 22.2642 485.05 22.3769 485.441 22.6023C485.836 22.8277 486.141 23.1541 486.356 23.5817C486.575 24.0092 486.682 24.5279 486.679 25.1378V30H484.879V25.4162C484.879 24.9058 484.747 24.5064 484.482 24.218C484.22 23.9297 483.857 23.7855 483.393 23.7855C483.078 23.7855 482.798 23.8551 482.553 23.9943C482.311 24.1302 482.12 24.3274 481.981 24.5859C481.845 24.8445 481.777 25.1577 481.777 25.5256ZM492.322 22.3636V23.7557H487.932V22.3636H492.322ZM489.016 20.5341H490.816V27.7031C490.816 27.9451 490.852 28.1307 490.925 28.2599C491.001 28.3859 491.101 28.4721 491.223 28.5185C491.346 28.5649 491.482 28.5881 491.631 28.5881C491.744 28.5881 491.846 28.5798 491.939 28.5632C492.035 28.5466 492.108 28.5317 492.158 28.5185L492.461 29.9254C492.365 29.9586 492.227 29.995 492.048 30.0348C491.873 30.0746 491.657 30.0978 491.402 30.1044C490.951 30.1177 490.545 30.0497 490.184 29.9006C489.823 29.7481 489.536 29.5128 489.324 29.1946C489.115 28.8764 489.012 28.4787 489.016 28.0014V20.5341ZM493.827 30V22.3636H495.572V23.6364H495.652C495.791 23.1955 496.029 22.8558 496.368 22.6172C496.709 22.3752 497.098 22.2543 497.536 22.2543C497.635 22.2543 497.746 22.2592 497.869 22.2692C497.995 22.2758 498.099 22.2874 498.182 22.304V23.9595C498.106 23.933 497.985 23.9098 497.819 23.8899C497.657 23.8667 497.499 23.8551 497.347 23.8551C497.019 23.8551 496.724 23.9264 496.462 24.0689C496.203 24.2081 496 24.402 495.85 24.6506C495.701 24.8991 495.627 25.1858 495.627 25.5107V30H493.827ZM502.394 30.1491C501.649 30.1491 501.002 29.9851 500.455 29.657C499.909 29.3288 499.484 28.8698 499.183 28.2798C498.884 27.6899 498.735 27.0005 498.735 26.2116C498.735 25.4228 498.884 24.7318 499.183 24.1385C499.484 23.5452 499.909 23.0845 500.455 22.7564C501.002 22.4283 501.649 22.2642 502.394 22.2642C503.14 22.2642 503.786 22.4283 504.333 22.7564C504.88 23.0845 505.303 23.5452 505.601 24.1385C505.903 24.7318 506.053 25.4228 506.053 26.2116C506.053 27.0005 505.903 27.6899 505.601 28.2798C505.303 28.8698 504.88 29.3288 504.333 29.657C503.786 29.9851 503.14 30.1491 502.394 30.1491ZM502.404 28.7074C502.809 28.7074 503.147 28.5964 503.419 28.3743C503.69 28.1489 503.892 27.8473 504.025 27.4695C504.161 27.0916 504.229 26.6707 504.229 26.2067C504.229 25.7393 504.161 25.3168 504.025 24.9389C503.892 24.5578 503.69 24.2545 503.419 24.0291C503.147 23.8037 502.809 23.6911 502.404 23.6911C501.99 23.6911 501.645 23.8037 501.37 24.0291C501.098 24.2545 500.895 24.5578 500.759 24.9389C500.626 25.3168 500.56 25.7393 500.56 26.2067C500.56 26.6707 500.626 27.0916 500.759 27.4695C500.895 27.8473 501.098 28.1489 501.37 28.3743C501.645 28.5964 501.99 28.7074 502.404 28.7074ZM509.381 19.8182V30H507.581V19.8182H509.381Z" fill="#1D1D1F"/>
<rect width="76" height="35" transform="translate(412 60)" fill="#CC8800"/>
<path d="M424.442 73.2727V82H422.861V73.2727H424.442ZM427.628 78.1648V82H426.086V75.4545H427.56V76.5668H427.637C427.787 76.2003 428.027 75.9091 428.357 75.6932C428.689 75.4773 429.1 75.3693 429.588 75.3693C430.04 75.3693 430.434 75.4659 430.769 75.6591C431.107 75.8523 431.368 76.1321 431.553 76.4986C431.74 76.8651 431.833 77.3097 431.83 77.8324V82H430.287V78.071C430.287 77.6335 430.174 77.2912 429.946 77.044C429.722 76.7969 429.411 76.6733 429.013 76.6733C428.743 76.6733 428.503 76.733 428.293 76.8523C428.086 76.9687 427.922 77.1378 427.803 77.3594C427.686 77.581 427.628 77.8494 427.628 78.1648ZM439.01 75.4545L436.679 82H434.975L432.644 75.4545H434.289L435.793 80.3168H435.861L437.37 75.4545H439.01ZM442.753 82.1278C442.097 82.1278 441.53 81.9915 441.053 81.7188C440.578 81.4432 440.213 81.054 439.957 80.5511C439.702 80.0455 439.574 79.4503 439.574 78.7656C439.574 78.0923 439.702 77.5014 439.957 76.9929C440.216 76.4815 440.577 76.0838 441.04 75.7997C441.503 75.5128 442.047 75.3693 442.672 75.3693C443.075 75.3693 443.456 75.4347 443.814 75.5653C444.175 75.6932 444.493 75.892 444.768 76.1619C445.047 76.4318 445.266 76.7756 445.425 77.1932C445.584 77.608 445.663 78.1023 445.663 78.6761V79.1491H440.298V78.1094H444.185C444.182 77.8139 444.118 77.5511 443.993 77.321C443.868 77.0881 443.693 76.9048 443.469 76.7713C443.247 76.6378 442.989 76.571 442.693 76.571C442.378 76.571 442.101 76.6477 441.862 76.8011C441.624 76.9517 441.438 77.1506 441.304 77.3977C441.173 77.642 441.107 77.9105 441.104 78.2031V79.1108C441.104 79.4915 441.173 79.8182 441.312 80.0909C441.452 80.3608 441.646 80.5682 441.896 80.7131C442.146 80.8551 442.439 80.9261 442.774 80.9261C442.999 80.9261 443.202 80.8949 443.384 80.8324C443.565 80.767 443.723 80.6719 443.857 80.5469C443.99 80.4219 444.091 80.267 444.159 80.0824L445.599 80.2443C445.509 80.625 445.335 80.9574 445.08 81.2415C444.827 81.5227 444.503 81.7415 444.108 81.8977C443.713 82.0511 443.261 82.1278 442.753 82.1278ZM448.511 78.1648V82H446.968V75.4545H448.443V76.5668H448.52C448.67 76.2003 448.91 75.9091 449.24 75.6932C449.572 75.4773 449.983 75.3693 450.471 75.3693C450.923 75.3693 451.316 75.4659 451.652 75.6591C451.99 75.8523 452.251 76.1321 452.436 76.4986C452.623 76.8651 452.716 77.3097 452.713 77.8324V82H451.17V78.071C451.17 77.6335 451.056 77.2912 450.829 77.044C450.605 76.7969 450.294 76.6733 449.896 76.6733C449.626 76.6733 449.386 76.733 449.176 76.8523C448.968 76.9687 448.805 77.1378 448.686 77.3594C448.569 77.581 448.511 77.8494 448.511 78.1648ZM457.549 75.4545V76.6477H453.787V75.4545H457.549ZM454.716 73.8864H456.258V80.0312C456.258 80.2386 456.289 80.3977 456.352 80.5085C456.417 80.6165 456.502 80.6903 456.608 80.7301C456.713 80.7699 456.829 80.7898 456.957 80.7898C457.054 80.7898 457.142 80.7827 457.221 80.7685C457.304 80.7543 457.366 80.7415 457.409 80.7301L457.669 81.9361C457.586 81.9645 457.468 81.9957 457.315 82.0298C457.164 82.0639 456.98 82.0838 456.761 82.0895C456.375 82.1009 456.027 82.0426 455.717 81.9148C455.407 81.7841 455.162 81.5824 454.98 81.3097C454.801 81.0369 454.713 80.696 454.716 80.2869V73.8864ZM461.624 82.1278C460.985 82.1278 460.431 81.9872 459.962 81.706C459.494 81.4247 459.13 81.0312 458.871 80.5256C458.616 80.0199 458.488 79.429 458.488 78.7528C458.488 78.0767 458.616 77.4844 458.871 76.9759C459.13 76.4673 459.494 76.0724 459.962 75.7912C460.431 75.5099 460.985 75.3693 461.624 75.3693C462.263 75.3693 462.817 75.5099 463.286 75.7912C463.755 76.0724 464.117 76.4673 464.373 76.9759C464.631 77.4844 464.761 78.0767 464.761 78.7528C464.761 79.429 464.631 80.0199 464.373 80.5256C464.117 81.0312 463.755 81.4247 463.286 81.706C462.817 81.9872 462.263 82.1278 461.624 82.1278ZM461.633 80.892C461.979 80.892 462.269 80.7969 462.502 80.6065C462.735 80.4134 462.908 80.1548 463.022 79.831C463.138 79.5071 463.197 79.1463 463.197 78.7486C463.197 78.348 463.138 77.9858 463.022 77.6619C462.908 77.3352 462.735 77.0753 462.502 76.8821C462.269 76.6889 461.979 76.5923 461.633 76.5923C461.278 76.5923 460.982 76.6889 460.746 76.8821C460.513 77.0753 460.339 77.3352 460.222 77.6619C460.109 77.9858 460.052 78.348 460.052 78.7486C460.052 79.1463 460.109 79.5071 460.222 79.831C460.339 80.1548 460.513 80.4134 460.746 80.6065C460.982 80.7969 461.278 80.892 461.633 80.892ZM466.07 82V75.4545H467.566V76.5455H467.634C467.753 76.1676 467.958 75.8764 468.248 75.6719C468.54 75.4645 468.874 75.3608 469.249 75.3608C469.334 75.3608 469.429 75.3651 469.534 75.3736C469.642 75.3793 469.732 75.3892 469.803 75.4034V76.8224C469.738 76.7997 469.634 76.7798 469.492 76.7628C469.353 76.7429 469.218 76.733 469.087 76.733C468.806 76.733 468.553 76.794 468.328 76.9162C468.107 77.0355 467.932 77.2017 467.804 77.4148C467.676 77.6278 467.613 77.8736 467.613 78.152V82H466.07ZM471.986 84.4545C471.776 84.4545 471.581 84.4375 471.402 84.4034C471.226 84.3722 471.085 84.3352 470.98 84.2926L471.338 83.0909C471.563 83.1563 471.763 83.1875 471.939 83.1847C472.115 83.1818 472.27 83.1264 472.403 83.0185C472.54 82.9134 472.655 82.7372 472.749 82.4901L472.881 82.1364L470.507 75.4545H472.143L473.652 80.3977H473.72L475.233 75.4545H476.874L474.253 82.7926C474.131 83.1392 473.969 83.4361 473.767 83.6832C473.565 83.9332 473.318 84.1236 473.026 84.2543C472.736 84.3878 472.389 84.4545 471.986 84.4545Z" fill="#F8F8FA"/>
<rect width="140" height="35" transform="translate(290 132)" fill="#CC8800"/>
<path d="M302.442 145.273V154H300.861V145.273H302.442ZM305.628 150.165V154H304.086V147.455H305.56V148.567H305.637C305.787 148.2 306.027 147.909 306.357 147.693C306.689 147.477 307.1 147.369 307.588 147.369C308.04 147.369 308.434 147.466 308.769 147.659C309.107 147.852 309.368 148.132 309.553 148.499C309.74 148.865 309.833 149.31 309.83 149.832V154H308.287V150.071C308.287 149.634 308.174 149.291 307.946 149.044C307.722 148.797 307.411 148.673 307.013 148.673C306.743 148.673 306.503 148.733 306.293 148.852C306.086 148.969 305.922 149.138 305.803 149.359C305.686 149.581 305.628 149.849 305.628 150.165ZM317.01 147.455L314.679 154H312.975L310.644 147.455H312.289L313.793 152.317H313.861L315.37 147.455H317.01ZM320.753 154.128C320.097 154.128 319.53 153.991 319.053 153.719C318.578 153.443 318.213 153.054 317.957 152.551C317.702 152.045 317.574 151.45 317.574 150.766C317.574 150.092 317.702 149.501 317.957 148.993C318.216 148.482 318.577 148.084 319.04 147.8C319.503 147.513 320.047 147.369 320.672 147.369C321.075 147.369 321.456 147.435 321.814 147.565C322.175 147.693 322.493 147.892 322.768 148.162C323.047 148.432 323.266 148.776 323.425 149.193C323.584 149.608 323.663 150.102 323.663 150.676V151.149H318.298V150.109H322.185C322.182 149.814 322.118 149.551 321.993 149.321C321.868 149.088 321.693 148.905 321.469 148.771C321.247 148.638 320.989 148.571 320.693 148.571C320.378 148.571 320.101 148.648 319.862 148.801C319.624 148.952 319.438 149.151 319.304 149.398C319.173 149.642 319.107 149.911 319.104 150.203V151.111C319.104 151.491 319.173 151.818 319.312 152.091C319.452 152.361 319.646 152.568 319.896 152.713C320.146 152.855 320.439 152.926 320.774 152.926C320.999 152.926 321.202 152.895 321.384 152.832C321.565 152.767 321.723 152.672 321.857 152.547C321.99 152.422 322.091 152.267 322.159 152.082L323.599 152.244C323.509 152.625 323.335 152.957 323.08 153.241C322.827 153.523 322.503 153.741 322.108 153.898C321.713 154.051 321.261 154.128 320.753 154.128ZM326.511 150.165V154H324.968V147.455H326.443V148.567H326.52C326.67 148.2 326.91 147.909 327.24 147.693C327.572 147.477 327.983 147.369 328.471 147.369C328.923 147.369 329.316 147.466 329.652 147.659C329.99 147.852 330.251 148.132 330.436 148.499C330.623 148.865 330.716 149.31 330.713 149.832V154H329.17V150.071C329.17 149.634 329.056 149.291 328.829 149.044C328.605 148.797 328.294 148.673 327.896 148.673C327.626 148.673 327.386 148.733 327.176 148.852C326.968 148.969 326.805 149.138 326.686 149.359C326.569 149.581 326.511 149.849 326.511 150.165ZM335.549 147.455V148.648H331.787V147.455H335.549ZM332.716 145.886H334.258V152.031C334.258 152.239 334.289 152.398 334.352 152.509C334.417 152.616 334.502 152.69 334.608 152.73C334.713 152.77 334.829 152.79 334.957 152.79C335.054 152.79 335.142 152.783 335.221 152.768C335.304 152.754 335.366 152.741 335.409 152.73L335.669 153.936C335.586 153.964 335.468 153.996 335.315 154.03C335.164 154.064 334.98 154.084 334.761 154.089C334.375 154.101 334.027 154.043 333.717 153.915C333.407 153.784 333.162 153.582 332.98 153.31C332.801 153.037 332.713 152.696 332.716 152.287V145.886ZM339.624 154.128C338.985 154.128 338.431 153.987 337.962 153.706C337.494 153.425 337.13 153.031 336.871 152.526C336.616 152.02 336.488 151.429 336.488 150.753C336.488 150.077 336.616 149.484 336.871 148.976C337.13 148.467 337.494 148.072 337.962 147.791C338.431 147.51 338.985 147.369 339.624 147.369C340.263 147.369 340.817 147.51 341.286 147.791C341.755 148.072 342.117 148.467 342.373 148.976C342.631 149.484 342.761 150.077 342.761 150.753C342.761 151.429 342.631 152.02 342.373 152.526C342.117 153.031 341.755 153.425 341.286 153.706C340.817 153.987 340.263 154.128 339.624 154.128ZM339.633 152.892C339.979 152.892 340.269 152.797 340.502 152.607C340.735 152.413 340.908 152.155 341.022 151.831C341.138 151.507 341.197 151.146 341.197 150.749C341.197 150.348 341.138 149.986 341.022 149.662C340.908 149.335 340.735 149.075 340.502 148.882C340.269 148.689 339.979 148.592 339.633 148.592C339.278 148.592 338.982 148.689 338.746 148.882C338.513 149.075 338.339 149.335 338.222 149.662C338.109 149.986 338.052 150.348 338.052 150.749C338.052 151.146 338.109 151.507 338.222 151.831C338.339 152.155 338.513 152.413 338.746 152.607C338.982 152.797 339.278 152.892 339.633 152.892ZM344.07 154V147.455H345.566V148.545H345.634C345.753 148.168 345.958 147.876 346.248 147.672C346.54 147.464 346.874 147.361 347.249 147.361C347.334 147.361 347.429 147.365 347.534 147.374C347.642 147.379 347.732 147.389 347.803 147.403V148.822C347.738 148.8 347.634 148.78 347.492 148.763C347.353 148.743 347.218 148.733 347.087 148.733C346.806 148.733 346.553 148.794 346.328 148.916C346.107 149.036 345.932 149.202 345.804 149.415C345.676 149.628 345.613 149.874 345.613 150.152V154H344.07ZM349.986 156.455C349.776 156.455 349.581 156.438 349.402 156.403C349.226 156.372 349.085 156.335 348.98 156.293L349.338 155.091C349.563 155.156 349.763 155.188 349.939 155.185C350.115 155.182 350.27 155.126 350.403 155.018C350.54 154.913 350.655 154.737 350.749 154.49L350.881 154.136L348.507 147.455H350.143L351.652 152.398H351.72L353.233 147.455H354.874L352.253 154.793C352.131 155.139 351.969 155.436 351.767 155.683C351.565 155.933 351.318 156.124 351.026 156.254C350.736 156.388 350.389 156.455 349.986 156.455ZM357.59 145.273V154H356.009V145.273H357.59ZM362.502 147.455V148.648H358.74V147.455H362.502ZM359.669 145.886H361.211V152.031C361.211 152.239 361.243 152.398 361.305 152.509C361.37 152.616 361.456 152.69 361.561 152.73C361.666 152.77 361.782 152.79 361.91 152.79C362.007 152.79 362.095 152.783 362.174 152.768C362.257 152.754 362.319 152.741 362.362 152.73L362.622 153.936C362.539 153.964 362.422 153.996 362.268 154.03C362.118 154.064 361.933 154.084 361.714 154.089C361.328 154.101 360.98 154.043 360.67 153.915C360.36 153.784 360.115 153.582 359.933 153.31C359.754 153.037 359.666 152.696 359.669 152.287V145.886ZM366.62 154.128C365.964 154.128 365.397 153.991 364.92 153.719C364.445 153.443 364.08 153.054 363.825 152.551C363.569 152.045 363.441 151.45 363.441 150.766C363.441 150.092 363.569 149.501 363.825 148.993C364.083 148.482 364.444 148.084 364.907 147.8C365.37 147.513 365.914 147.369 366.539 147.369C366.942 147.369 367.323 147.435 367.681 147.565C368.042 147.693 368.36 147.892 368.636 148.162C368.914 148.432 369.133 148.776 369.292 149.193C369.451 149.608 369.531 150.102 369.531 150.676V151.149H364.165V150.109H368.052C368.049 149.814 367.985 149.551 367.86 149.321C367.735 149.088 367.56 148.905 367.336 148.771C367.114 148.638 366.856 148.571 366.56 148.571C366.245 148.571 365.968 148.648 365.729 148.801C365.491 148.952 365.305 149.151 365.171 149.398C365.04 149.642 364.974 149.911 364.971 150.203V151.111C364.971 151.491 365.04 151.818 365.18 152.091C365.319 152.361 365.513 152.568 365.763 152.713C366.013 152.855 366.306 152.926 366.641 152.926C366.866 152.926 367.069 152.895 367.251 152.832C367.433 152.767 367.59 152.672 367.724 152.547C367.857 152.422 367.958 152.267 368.026 152.082L369.467 152.244C369.376 152.625 369.202 152.957 368.947 153.241C368.694 153.523 368.37 153.741 367.975 153.898C367.58 154.051 367.129 154.128 366.62 154.128ZM370.836 154V147.455H372.31V148.567H372.387C372.523 148.192 372.749 147.899 373.064 147.689C373.38 147.476 373.756 147.369 374.194 147.369C374.637 147.369 375.01 147.477 375.314 147.693C375.621 147.906 375.837 148.197 375.962 148.567H376.03C376.175 148.203 376.419 147.913 376.763 147.697C377.11 147.479 377.52 147.369 377.995 147.369C378.597 147.369 379.088 147.56 379.469 147.94C379.85 148.321 380.04 148.876 380.04 149.607V154H378.493V149.845C378.493 149.439 378.385 149.142 378.169 148.955C377.953 148.764 377.689 148.669 377.377 148.669C377.005 148.669 376.713 148.786 376.503 149.018C376.296 149.249 376.192 149.548 376.192 149.918V154H374.679V149.781C374.679 149.443 374.577 149.173 374.373 148.972C374.171 148.77 373.907 148.669 373.58 148.669C373.358 148.669 373.157 148.726 372.975 148.839C372.793 148.95 372.648 149.108 372.54 149.312C372.432 149.514 372.378 149.75 372.378 150.02V154H370.836ZM386.778 149.185L385.372 149.338C385.332 149.196 385.263 149.062 385.163 148.938C385.067 148.812 384.936 148.712 384.771 148.635C384.607 148.558 384.405 148.52 384.166 148.52C383.845 148.52 383.575 148.589 383.357 148.729C383.141 148.868 383.034 149.048 383.037 149.27C383.034 149.46 383.104 149.615 383.246 149.734C383.391 149.854 383.629 149.952 383.962 150.028L385.078 150.267C385.697 150.401 386.158 150.612 386.459 150.902C386.763 151.192 386.916 151.571 386.919 152.04C386.916 152.452 386.795 152.815 386.557 153.131C386.321 153.443 385.993 153.687 385.572 153.864C385.152 154.04 384.669 154.128 384.124 154.128C383.322 154.128 382.678 153.96 382.189 153.625C381.7 153.287 381.409 152.817 381.315 152.214L382.82 152.07C382.888 152.365 383.033 152.588 383.254 152.739C383.476 152.889 383.764 152.964 384.119 152.964C384.486 152.964 384.78 152.889 385.001 152.739C385.226 152.588 385.338 152.402 385.338 152.18C385.338 151.993 385.266 151.838 385.121 151.716C384.979 151.594 384.757 151.5 384.456 151.435L383.339 151.2C382.712 151.07 382.247 150.849 381.946 150.54C381.645 150.227 381.496 149.832 381.499 149.355C381.496 148.952 381.605 148.602 381.827 148.307C382.051 148.009 382.362 147.778 382.76 147.616C383.161 147.452 383.622 147.369 384.145 147.369C384.912 147.369 385.516 147.533 385.956 147.859C386.399 148.186 386.673 148.628 386.778 149.185ZM388.259 154V145.273H391.532C392.202 145.273 392.765 145.398 393.219 145.648C393.677 145.898 394.022 146.241 394.255 146.679C394.491 147.114 394.609 147.608 394.609 148.162C394.609 148.722 394.491 149.219 394.255 149.653C394.019 150.088 393.671 150.43 393.211 150.68C392.751 150.928 392.184 151.051 391.511 151.051H389.342V149.751H391.298C391.69 149.751 392.011 149.683 392.261 149.547C392.511 149.411 392.695 149.223 392.815 148.984C392.937 148.746 392.998 148.472 392.998 148.162C392.998 147.852 392.937 147.58 392.815 147.344C392.695 147.108 392.509 146.925 392.256 146.794C392.006 146.661 391.684 146.594 391.289 146.594H389.84V154H388.259ZM397.68 154.132C397.265 154.132 396.892 154.058 396.559 153.911C396.23 153.76 395.968 153.538 395.775 153.246C395.585 152.953 395.49 152.592 395.49 152.163C395.49 151.794 395.558 151.489 395.694 151.247C395.831 151.006 396.017 150.812 396.252 150.668C396.488 150.523 396.754 150.413 397.049 150.339C397.348 150.263 397.656 150.207 397.974 150.173C398.358 150.134 398.669 150.098 398.907 150.067C399.146 150.033 399.319 149.982 399.427 149.913C399.538 149.842 399.593 149.733 399.593 149.585V149.56C399.593 149.239 399.498 148.99 399.308 148.814C399.118 148.638 398.843 148.55 398.485 148.55C398.108 148.55 397.808 148.632 397.586 148.797C397.368 148.962 397.22 149.156 397.143 149.381L395.703 149.176C395.816 148.778 396.004 148.446 396.265 148.179C396.527 147.909 396.846 147.707 397.224 147.574C397.602 147.438 398.02 147.369 398.477 147.369C398.792 147.369 399.106 147.406 399.419 147.48C399.731 147.554 400.017 147.676 400.275 147.847C400.534 148.014 400.741 148.243 400.897 148.533C401.056 148.822 401.136 149.185 401.136 149.619V154H399.653V153.101H399.602C399.508 153.283 399.376 153.453 399.206 153.612C399.038 153.768 398.826 153.895 398.571 153.991C398.318 154.085 398.021 154.132 397.68 154.132ZM398.081 152.999C398.39 152.999 398.659 152.937 398.886 152.815C399.113 152.69 399.288 152.526 399.41 152.321C399.535 152.116 399.598 151.893 399.598 151.652V150.881C399.549 150.92 399.467 150.957 399.35 150.991C399.237 151.026 399.109 151.055 398.967 151.081C398.825 151.107 398.684 151.129 398.545 151.149C398.406 151.169 398.285 151.186 398.183 151.2C397.953 151.232 397.747 151.283 397.565 151.354C397.383 151.425 397.24 151.524 397.135 151.652C397.029 151.777 396.977 151.939 396.977 152.138C396.977 152.422 397.081 152.636 397.288 152.781C397.495 152.926 397.76 152.999 398.081 152.999ZM404.23 150.165V154H402.687V147.455H404.162V148.567H404.238C404.389 148.2 404.629 147.909 404.958 147.693C405.291 147.477 405.701 147.369 406.19 147.369C406.642 147.369 407.035 147.466 407.37 147.659C407.708 147.852 407.97 148.132 408.154 148.499C408.342 148.865 408.434 149.31 408.431 149.832V154H406.889V150.071C406.889 149.634 406.775 149.291 406.548 149.044C406.324 148.797 406.012 148.673 405.615 148.673C405.345 148.673 405.105 148.733 404.895 148.852C404.687 148.969 404.524 149.138 404.404 149.359C404.288 149.581 404.23 149.849 404.23 150.165ZM412.897 154.128C412.241 154.128 411.674 153.991 411.197 153.719C410.723 153.443 410.358 153.054 410.102 152.551C409.846 152.045 409.718 151.45 409.718 150.766C409.718 150.092 409.846 149.501 410.102 148.993C410.36 148.482 410.721 148.084 411.184 147.8C411.647 147.513 412.191 147.369 412.816 147.369C413.22 147.369 413.6 147.435 413.958 147.565C414.319 147.693 414.637 147.892 414.913 148.162C415.191 148.432 415.41 148.776 415.569 149.193C415.728 149.608 415.808 150.102 415.808 150.676V151.149H410.443V150.109H414.329C414.326 149.814 414.262 149.551 414.137 149.321C414.012 149.088 413.838 148.905 413.613 148.771C413.392 148.638 413.133 148.571 412.838 148.571C412.522 148.571 412.245 148.648 412.007 148.801C411.768 148.952 411.582 149.151 411.449 149.398C411.318 149.642 411.251 149.911 411.248 150.203V151.111C411.248 151.491 411.318 151.818 411.457 152.091C411.596 152.361 411.791 152.568 412.041 152.713C412.291 152.855 412.583 152.926 412.919 152.926C413.143 152.926 413.346 152.895 413.528 152.832C413.71 152.767 413.868 152.672 414.001 152.547C414.135 152.422 414.235 152.267 414.304 152.082L415.744 152.244C415.653 152.625 415.48 152.957 415.224 153.241C414.971 153.523 414.647 153.741 414.252 153.898C413.858 154.051 413.406 154.128 412.897 154.128ZM418.656 145.273V154H417.113V145.273H418.656Z" fill="#F8F8FA"/>
<rect width="107" height="35" transform="translate(206 207)" fill="#CC8800"/>
<path d="M221.604 222.672C221.564 222.3 221.396 222.01 221.101 221.803C220.808 221.595 220.428 221.491 219.959 221.491C219.629 221.491 219.347 221.541 219.111 221.641C218.875 221.74 218.695 221.875 218.57 222.045C218.445 222.216 218.381 222.411 218.378 222.629C218.378 222.811 218.419 222.969 218.501 223.102C218.587 223.236 218.702 223.349 218.847 223.443C218.991 223.534 219.152 223.611 219.328 223.673C219.504 223.736 219.682 223.788 219.861 223.831L220.679 224.036C221.009 224.112 221.325 224.216 221.629 224.347C221.936 224.477 222.21 224.642 222.452 224.841C222.696 225.04 222.889 225.28 223.031 225.561C223.173 225.842 223.244 226.172 223.244 226.55C223.244 227.061 223.114 227.511 222.852 227.901C222.591 228.287 222.213 228.589 221.719 228.808C221.227 229.024 220.632 229.132 219.933 229.132C219.254 229.132 218.665 229.027 218.165 228.817C217.668 228.607 217.278 228.3 216.997 227.896C216.719 227.493 216.568 227.001 216.545 226.422H218.101C218.124 226.726 218.217 226.979 218.382 227.18C218.547 227.382 218.761 227.533 219.026 227.632C219.293 227.732 219.591 227.781 219.92 227.781C220.264 227.781 220.565 227.73 220.824 227.628C221.085 227.523 221.29 227.378 221.438 227.193C221.585 227.006 221.661 226.787 221.663 226.537C221.661 226.31 221.594 226.122 221.463 225.974C221.332 225.824 221.149 225.699 220.913 225.599C220.68 225.497 220.408 225.406 220.095 225.327L219.102 225.071C218.384 224.886 217.815 224.607 217.398 224.232C216.983 223.854 216.776 223.352 216.776 222.727C216.776 222.213 216.915 221.763 217.193 221.376C217.474 220.99 217.857 220.69 218.339 220.477C218.822 220.261 219.369 220.153 219.98 220.153C220.599 220.153 221.142 220.261 221.608 220.477C222.077 220.69 222.445 220.987 222.712 221.368C222.979 221.746 223.116 222.18 223.125 222.672H221.604ZM227.483 229.128C226.827 229.128 226.26 228.991 225.783 228.719C225.309 228.443 224.944 228.054 224.688 227.551C224.432 227.045 224.304 226.45 224.304 225.766C224.304 225.092 224.432 224.501 224.688 223.993C224.946 223.482 225.307 223.084 225.77 222.8C226.233 222.513 226.777 222.369 227.402 222.369C227.806 222.369 228.186 222.435 228.544 222.565C228.905 222.693 229.223 222.892 229.499 223.162C229.777 223.432 229.996 223.776 230.155 224.193C230.314 224.608 230.394 225.102 230.394 225.676V226.149H225.029V225.109H228.915C228.912 224.814 228.848 224.551 228.723 224.321C228.598 224.088 228.424 223.905 228.199 223.771C227.978 223.638 227.719 223.571 227.424 223.571C227.108 223.571 226.831 223.648 226.593 223.801C226.354 223.952 226.168 224.151 226.034 224.398C225.904 224.642 225.837 224.911 225.834 225.203V226.111C225.834 226.491 225.904 226.818 226.043 227.091C226.182 227.361 226.377 227.568 226.627 227.713C226.877 227.855 227.169 227.926 227.505 227.926C227.729 227.926 227.932 227.895 228.114 227.832C228.296 227.767 228.453 227.672 228.587 227.547C228.721 227.422 228.821 227.267 228.89 227.082L230.33 227.244C230.239 227.625 230.066 227.957 229.81 228.241C229.557 228.523 229.233 228.741 228.838 228.898C228.444 229.051 227.992 229.128 227.483 229.128ZM233.241 220.273V229H231.699V220.273H233.241ZM237.725 229.128C237.069 229.128 236.502 228.991 236.025 228.719C235.551 228.443 235.186 228.054 234.93 227.551C234.674 227.045 234.547 226.45 234.547 225.766C234.547 225.092 234.674 224.501 234.93 223.993C235.189 223.482 235.549 223.084 236.012 222.8C236.475 222.513 237.02 222.369 237.645 222.369C238.048 222.369 238.429 222.435 238.787 222.565C239.147 222.693 239.466 222.892 239.741 223.162C240.02 223.432 240.238 223.776 240.397 224.193C240.556 224.608 240.636 225.102 240.636 225.676V226.149H235.271V225.109H239.157C239.154 224.814 239.091 224.551 238.966 224.321C238.841 224.088 238.666 223.905 238.441 223.771C238.22 223.638 237.961 223.571 237.666 223.571C237.35 223.571 237.074 223.648 236.835 223.801C236.596 223.952 236.41 224.151 236.277 224.398C236.146 224.642 236.079 224.911 236.076 225.203V226.111C236.076 226.491 236.146 226.818 236.285 227.091C236.424 227.361 236.619 227.568 236.869 227.713C237.119 227.855 237.412 227.926 237.747 227.926C237.971 227.926 238.174 227.895 238.356 227.832C238.538 227.767 238.696 227.672 238.829 227.547C238.963 227.422 239.064 227.267 239.132 227.082L240.572 227.244C240.481 227.625 240.308 227.957 240.052 228.241C239.799 228.523 239.475 228.741 239.081 228.898C238.686 229.051 238.234 229.128 237.725 229.128ZM244.796 229.128C244.143 229.128 243.582 228.984 243.113 228.697C242.647 228.411 242.288 228.014 242.035 227.509C241.785 227 241.66 226.415 241.66 225.753C241.66 225.088 241.788 224.501 242.043 223.993C242.299 223.482 242.66 223.084 243.126 222.8C243.594 222.513 244.148 222.369 244.788 222.369C245.319 222.369 245.789 222.467 246.198 222.663C246.61 222.857 246.938 223.131 247.183 223.486C247.427 223.838 247.566 224.25 247.6 224.722H246.126C246.066 224.406 245.924 224.143 245.7 223.933C245.478 223.72 245.181 223.614 244.809 223.614C244.494 223.614 244.217 223.699 243.978 223.869C243.739 224.037 243.553 224.278 243.42 224.594C243.289 224.909 243.224 225.287 243.224 225.727C243.224 226.173 243.289 226.557 243.42 226.878C243.55 227.196 243.734 227.442 243.969 227.615C244.208 227.786 244.488 227.871 244.809 227.871C245.036 227.871 245.239 227.828 245.418 227.743C245.6 227.655 245.752 227.528 245.874 227.364C245.996 227.199 246.08 226.999 246.126 226.763H247.6C247.563 227.226 247.427 227.636 247.191 227.994C246.955 228.349 246.634 228.628 246.228 228.83C245.822 229.028 245.344 229.128 244.796 229.128ZM252.135 222.455V223.648H248.373V222.455H252.135ZM249.301 220.886H250.844V227.031C250.844 227.239 250.875 227.398 250.938 227.509C251.003 227.616 251.088 227.69 251.194 227.73C251.299 227.77 251.415 227.79 251.543 227.79C251.64 227.79 251.728 227.783 251.807 227.768C251.89 227.754 251.952 227.741 251.995 227.73L252.255 228.936C252.172 228.964 252.054 228.996 251.901 229.03C251.75 229.064 251.566 229.084 251.347 229.089C250.961 229.101 250.613 229.043 250.303 228.915C249.993 228.784 249.748 228.582 249.566 228.31C249.387 228.037 249.299 227.696 249.301 227.287V220.886ZM255.309 229.132C254.894 229.132 254.521 229.058 254.188 228.911C253.859 228.76 253.597 228.538 253.404 228.246C253.214 227.953 253.119 227.592 253.119 227.163C253.119 226.794 253.187 226.489 253.323 226.247C253.46 226.006 253.646 225.812 253.881 225.668C254.117 225.523 254.383 225.413 254.678 225.339C254.977 225.263 255.285 225.207 255.603 225.173C255.987 225.134 256.298 225.098 256.536 225.067C256.775 225.033 256.948 224.982 257.056 224.913C257.167 224.842 257.222 224.733 257.222 224.585V224.56C257.222 224.239 257.127 223.99 256.937 223.814C256.746 223.638 256.472 223.55 256.114 223.55C255.737 223.55 255.437 223.632 255.215 223.797C254.996 223.962 254.849 224.156 254.772 224.381L253.332 224.176C253.445 223.778 253.633 223.446 253.894 223.179C254.156 222.909 254.475 222.707 254.853 222.574C255.231 222.438 255.648 222.369 256.106 222.369C256.421 222.369 256.735 222.406 257.048 222.48C257.36 222.554 257.646 222.676 257.904 222.847C258.163 223.014 258.37 223.243 258.526 223.533C258.685 223.822 258.765 224.185 258.765 224.619V229H257.282V228.101H257.231C257.137 228.283 257.005 228.453 256.835 228.612C256.667 228.768 256.455 228.895 256.2 228.991C255.947 229.085 255.65 229.132 255.309 229.132ZM255.71 227.999C256.019 227.999 256.288 227.937 256.515 227.815C256.742 227.69 256.917 227.526 257.039 227.321C257.164 227.116 257.227 226.893 257.227 226.652V225.881C257.178 225.92 257.096 225.957 256.979 225.991C256.866 226.026 256.738 226.055 256.596 226.081C256.454 226.107 256.313 226.129 256.174 226.149C256.035 226.169 255.914 226.186 255.812 226.2C255.582 226.232 255.376 226.283 255.194 226.354C255.012 226.425 254.869 226.524 254.763 226.652C254.658 226.777 254.606 226.939 254.606 227.138C254.606 227.422 254.71 227.636 254.917 227.781C255.124 227.926 255.388 227.999 255.71 227.999ZM260.384 229V220.273H261.927V223.537H261.991C262.07 223.378 262.183 223.209 262.327 223.03C262.472 222.848 262.668 222.693 262.915 222.565C263.163 222.435 263.478 222.369 263.862 222.369C264.367 222.369 264.823 222.499 265.229 222.757C265.638 223.013 265.962 223.392 266.201 223.895C266.442 224.395 266.563 225.009 266.563 225.736C266.563 226.455 266.445 227.065 266.21 227.568C265.974 228.071 265.653 228.455 265.246 228.719C264.84 228.983 264.38 229.115 263.866 229.115C263.491 229.115 263.18 229.053 262.933 228.928C262.685 228.803 262.487 228.652 262.336 228.476C262.188 228.297 262.073 228.128 261.991 227.969H261.901V229H260.384ZM261.897 225.727C261.897 226.151 261.957 226.521 262.076 226.839C262.198 227.158 262.373 227.406 262.6 227.585C262.83 227.761 263.109 227.849 263.435 227.849C263.776 227.849 264.062 227.759 264.292 227.577C264.522 227.392 264.695 227.141 264.812 226.822C264.931 226.501 264.991 226.136 264.991 225.727C264.991 225.321 264.933 224.96 264.816 224.645C264.7 224.33 264.526 224.082 264.296 223.903C264.066 223.724 263.779 223.635 263.435 223.635C263.106 223.635 262.826 223.722 262.596 223.895C262.366 224.068 262.191 224.311 262.072 224.624C261.955 224.936 261.897 225.304 261.897 225.727ZM269.417 220.273V229H267.875V220.273H269.417ZM273.901 229.128C273.245 229.128 272.678 228.991 272.201 228.719C271.727 228.443 271.362 228.054 271.106 227.551C270.85 227.045 270.722 226.45 270.722 225.766C270.722 225.092 270.85 224.501 271.106 223.993C271.364 223.482 271.725 223.084 272.188 222.8C272.651 222.513 273.195 222.369 273.82 222.369C274.224 222.369 274.604 222.435 274.962 222.565C275.323 222.693 275.641 222.892 275.917 223.162C276.195 223.432 276.414 223.776 276.573 224.193C276.732 224.608 276.812 225.102 276.812 225.676V226.149H271.447V225.109H275.333C275.33 224.814 275.266 224.551 275.141 224.321C275.016 224.088 274.842 223.905 274.617 223.771C274.396 223.638 274.137 223.571 273.842 223.571C273.526 223.571 273.249 223.648 273.011 223.801C272.772 223.952 272.586 224.151 272.452 224.398C272.322 224.642 272.255 224.911 272.252 225.203V226.111C272.252 226.491 272.322 226.818 272.461 227.091C272.6 227.361 272.795 227.568 273.045 227.713C273.295 227.855 273.587 227.926 273.923 227.926C274.147 227.926 274.35 227.895 274.532 227.832C274.714 227.767 274.871 227.672 275.005 227.547C275.138 227.422 275.239 227.267 275.308 227.082L276.748 227.244C276.657 227.625 276.484 227.957 276.228 228.241C275.975 228.523 275.651 228.741 275.256 228.898C274.862 229.051 274.41 229.128 273.901 229.128ZM279.766 220.273V229H278.185V220.273H279.766ZM284.678 222.455V223.648H280.915V222.455H284.678ZM281.844 220.886H283.387V227.031C283.387 227.239 283.418 227.398 283.481 227.509C283.546 227.616 283.631 227.69 283.737 227.73C283.842 227.77 283.958 227.79 284.086 227.79C284.183 227.79 284.271 227.783 284.35 227.768C284.433 227.754 284.495 227.741 284.538 227.73L284.798 228.936C284.715 228.964 284.597 228.996 284.444 229.03C284.293 229.064 284.109 229.084 283.89 229.089C283.504 229.101 283.156 229.043 282.846 228.915C282.536 228.784 282.29 228.582 282.109 228.31C281.93 228.037 281.842 227.696 281.844 227.287V220.886ZM288.796 229.128C288.14 229.128 287.573 228.991 287.096 228.719C286.621 228.443 286.256 228.054 286 227.551C285.745 227.045 285.617 226.45 285.617 225.766C285.617 225.092 285.745 224.501 286 223.993C286.259 223.482 286.62 223.084 287.083 222.8C287.546 222.513 288.09 222.369 288.715 222.369C289.118 222.369 289.499 222.435 289.857 222.565C290.218 222.693 290.536 222.892 290.811 223.162C291.09 223.432 291.309 223.776 291.468 224.193C291.627 224.608 291.706 225.102 291.706 225.676V226.149H286.341V225.109H290.228C290.225 224.814 290.161 224.551 290.036 224.321C289.911 224.088 289.736 223.905 289.512 223.771C289.29 223.638 289.032 223.571 288.736 223.571C288.421 223.571 288.144 223.648 287.905 223.801C287.667 223.952 287.48 224.151 287.347 224.398C287.216 224.642 287.15 224.911 287.147 225.203V226.111C287.147 226.491 287.216 226.818 287.355 227.091C287.495 227.361 287.689 227.568 287.939 227.713C288.189 227.855 288.482 227.926 288.817 227.926C289.042 227.926 289.245 227.895 289.426 227.832C289.608 227.767 289.766 227.672 289.9 227.547C290.033 227.422 290.134 227.267 290.202 227.082L291.642 227.244C291.551 227.625 291.378 227.957 291.123 228.241C290.87 228.523 290.546 228.741 290.151 228.898C289.756 229.051 289.304 229.128 288.796 229.128ZM293.011 229V222.455H294.486V223.567H294.562C294.699 223.192 294.925 222.899 295.24 222.689C295.555 222.476 295.932 222.369 296.369 222.369C296.812 222.369 297.186 222.477 297.49 222.693C297.797 222.906 298.013 223.197 298.138 223.567H298.206C298.351 223.203 298.595 222.913 298.939 222.697C299.286 222.479 299.696 222.369 300.17 222.369C300.773 222.369 301.264 222.56 301.645 222.94C302.026 223.321 302.216 223.876 302.216 224.607V229H300.669V224.845C300.669 224.439 300.561 224.142 300.345 223.955C300.129 223.764 299.865 223.669 299.553 223.669C299.18 223.669 298.889 223.786 298.679 224.018C298.472 224.249 298.368 224.548 298.368 224.918V229H296.855V224.781C296.855 224.443 296.753 224.173 296.548 223.972C296.347 223.77 296.082 223.669 295.756 223.669C295.534 223.669 295.332 223.726 295.151 223.839C294.969 223.95 294.824 224.108 294.716 224.312C294.608 224.514 294.554 224.75 294.554 225.02V229H293.011Z" fill="#F8F8FA"/>
<rect width="107" height="35" transform="translate(323 207)" fill="#CC8800"/>
<path d="M338.604 222.672C338.564 222.3 338.396 222.01 338.101 221.803C337.808 221.595 337.428 221.491 336.959 221.491C336.629 221.491 336.347 221.541 336.111 221.641C335.875 221.74 335.695 221.875 335.57 222.045C335.445 222.216 335.381 222.411 335.378 222.629C335.378 222.811 335.419 222.969 335.501 223.102C335.587 223.236 335.702 223.349 335.847 223.443C335.991 223.534 336.152 223.611 336.328 223.673C336.504 223.736 336.682 223.788 336.861 223.831L337.679 224.036C338.009 224.112 338.325 224.216 338.629 224.347C338.936 224.477 339.21 224.642 339.452 224.841C339.696 225.04 339.889 225.28 340.031 225.561C340.173 225.842 340.244 226.172 340.244 226.55C340.244 227.061 340.114 227.511 339.852 227.901C339.591 228.287 339.213 228.589 338.719 228.808C338.227 229.024 337.632 229.132 336.933 229.132C336.254 229.132 335.665 229.027 335.165 228.817C334.668 228.607 334.278 228.3 333.997 227.896C333.719 227.493 333.568 227.001 333.545 226.422H335.101C335.124 226.726 335.217 226.979 335.382 227.18C335.547 227.382 335.761 227.533 336.026 227.632C336.293 227.732 336.591 227.781 336.92 227.781C337.264 227.781 337.565 227.73 337.824 227.628C338.085 227.523 338.29 227.378 338.438 227.193C338.585 227.006 338.661 226.787 338.663 226.537C338.661 226.31 338.594 226.122 338.463 225.974C338.332 225.824 338.149 225.699 337.913 225.599C337.68 225.497 337.408 225.406 337.095 225.327L336.102 225.071C335.384 224.886 334.815 224.607 334.398 224.232C333.983 223.854 333.776 223.352 333.776 222.727C333.776 222.213 333.915 221.763 334.193 221.376C334.474 220.99 334.857 220.69 335.339 220.477C335.822 220.261 336.369 220.153 336.98 220.153C337.599 220.153 338.142 220.261 338.608 220.477C339.077 220.69 339.445 220.987 339.712 221.368C339.979 221.746 340.116 222.18 340.125 222.672H338.604ZM344.483 229.128C343.827 229.128 343.26 228.991 342.783 228.719C342.309 228.443 341.944 228.054 341.688 227.551C341.432 227.045 341.304 226.45 341.304 225.766C341.304 225.092 341.432 224.501 341.688 223.993C341.946 223.482 342.307 223.084 342.77 222.8C343.233 222.513 343.777 222.369 344.402 222.369C344.806 222.369 345.186 222.435 345.544 222.565C345.905 222.693 346.223 222.892 346.499 223.162C346.777 223.432 346.996 223.776 347.155 224.193C347.314 224.608 347.394 225.102 347.394 225.676V226.149H342.029V225.109H345.915C345.912 224.814 345.848 224.551 345.723 224.321C345.598 224.088 345.424 223.905 345.199 223.771C344.978 223.638 344.719 223.571 344.424 223.571C344.108 223.571 343.831 223.648 343.593 223.801C343.354 223.952 343.168 224.151 343.034 224.398C342.904 224.642 342.837 224.911 342.834 225.203V226.111C342.834 226.491 342.904 226.818 343.043 227.091C343.182 227.361 343.377 227.568 343.627 227.713C343.877 227.855 344.169 227.926 344.505 227.926C344.729 227.926 344.932 227.895 345.114 227.832C345.296 227.767 345.453 227.672 345.587 227.547C345.721 227.422 345.821 227.267 345.89 227.082L347.33 227.244C347.239 227.625 347.066 227.957 346.81 228.241C346.557 228.523 346.233 228.741 345.838 228.898C345.444 229.051 344.992 229.128 344.483 229.128ZM350.241 220.273V229H348.699V220.273H350.241ZM354.725 229.128C354.069 229.128 353.502 228.991 353.025 228.719C352.551 228.443 352.186 228.054 351.93 227.551C351.674 227.045 351.547 226.45 351.547 225.766C351.547 225.092 351.674 224.501 351.93 223.993C352.189 223.482 352.549 223.084 353.012 222.8C353.475 222.513 354.02 222.369 354.645 222.369C355.048 222.369 355.429 222.435 355.787 222.565C356.147 222.693 356.466 222.892 356.741 223.162C357.02 223.432 357.238 223.776 357.397 224.193C357.556 224.608 357.636 225.102 357.636 225.676V226.149H352.271V225.109H356.157C356.154 224.814 356.091 224.551 355.966 224.321C355.841 224.088 355.666 223.905 355.441 223.771C355.22 223.638 354.961 223.571 354.666 223.571C354.35 223.571 354.074 223.648 353.835 223.801C353.596 223.952 353.41 224.151 353.277 224.398C353.146 224.642 353.079 224.911 353.076 225.203V226.111C353.076 226.491 353.146 226.818 353.285 227.091C353.424 227.361 353.619 227.568 353.869 227.713C354.119 227.855 354.412 227.926 354.747 227.926C354.971 227.926 355.174 227.895 355.356 227.832C355.538 227.767 355.696 227.672 355.829 227.547C355.963 227.422 356.064 227.267 356.132 227.082L357.572 227.244C357.481 227.625 357.308 227.957 357.052 228.241C356.799 228.523 356.475 228.741 356.081 228.898C355.686 229.051 355.234 229.128 354.725 229.128ZM361.796 229.128C361.143 229.128 360.582 228.984 360.113 228.697C359.647 228.411 359.288 228.014 359.035 227.509C358.785 227 358.66 226.415 358.66 225.753C358.66 225.088 358.788 224.501 359.043 223.993C359.299 223.482 359.66 223.084 360.126 222.8C360.594 222.513 361.148 222.369 361.788 222.369C362.319 222.369 362.789 222.467 363.198 222.663C363.61 222.857 363.938 223.131 364.183 223.486C364.427 223.838 364.566 224.25 364.6 224.722H363.126C363.066 224.406 362.924 224.143 362.7 223.933C362.478 223.72 362.181 223.614 361.809 223.614C361.494 223.614 361.217 223.699 360.978 223.869C360.739 224.037 360.553 224.278 360.42 224.594C360.289 224.909 360.224 225.287 360.224 225.727C360.224 226.173 360.289 226.557 360.42 226.878C360.55 227.196 360.734 227.442 360.969 227.615C361.208 227.786 361.488 227.871 361.809 227.871C362.036 227.871 362.239 227.828 362.418 227.743C362.6 227.655 362.752 227.528 362.874 227.364C362.996 227.199 363.08 226.999 363.126 226.763H364.6C364.563 227.226 364.427 227.636 364.191 227.994C363.955 228.349 363.634 228.628 363.228 228.83C362.822 229.028 362.344 229.128 361.796 229.128ZM369.135 222.455V223.648H365.373V222.455H369.135ZM366.301 220.886H367.844V227.031C367.844 227.239 367.875 227.398 367.938 227.509C368.003 227.616 368.088 227.69 368.194 227.73C368.299 227.77 368.415 227.79 368.543 227.79C368.64 227.79 368.728 227.783 368.807 227.768C368.89 227.754 368.952 227.741 368.995 227.73L369.255 228.936C369.172 228.964 369.054 228.996 368.901 229.03C368.75 229.064 368.566 229.084 368.347 229.089C367.961 229.101 367.613 229.043 367.303 228.915C366.993 228.784 366.748 228.582 366.566 228.31C366.387 228.037 366.299 227.696 366.301 227.287V220.886ZM372.309 229.132C371.894 229.132 371.521 229.058 371.188 228.911C370.859 228.76 370.597 228.538 370.404 228.246C370.214 227.953 370.119 227.592 370.119 227.163C370.119 226.794 370.187 226.489 370.323 226.247C370.46 226.006 370.646 225.812 370.881 225.668C371.117 225.523 371.383 225.413 371.678 225.339C371.977 225.263 372.285 225.207 372.603 225.173C372.987 225.134 373.298 225.098 373.536 225.067C373.775 225.033 373.948 224.982 374.056 224.913C374.167 224.842 374.222 224.733 374.222 224.585V224.56C374.222 224.239 374.127 223.99 373.937 223.814C373.746 223.638 373.472 223.55 373.114 223.55C372.737 223.55 372.437 223.632 372.215 223.797C371.996 223.962 371.849 224.156 371.772 224.381L370.332 224.176C370.445 223.778 370.633 223.446 370.894 223.179C371.156 222.909 371.475 222.707 371.853 222.574C372.231 222.438 372.648 222.369 373.106 222.369C373.421 222.369 373.735 222.406 374.048 222.48C374.36 222.554 374.646 222.676 374.904 222.847C375.163 223.014 375.37 223.243 375.526 223.533C375.685 223.822 375.765 224.185 375.765 224.619V229H374.282V228.101H374.231C374.137 228.283 374.005 228.453 373.835 228.612C373.667 228.768 373.455 228.895 373.2 228.991C372.947 229.085 372.65 229.132 372.309 229.132ZM372.71 227.999C373.019 227.999 373.288 227.937 373.515 227.815C373.742 227.69 373.917 227.526 374.039 227.321C374.164 227.116 374.227 226.893 374.227 226.652V225.881C374.178 225.92 374.096 225.957 373.979 225.991C373.866 226.026 373.738 226.055 373.596 226.081C373.454 226.107 373.313 226.129 373.174 226.149C373.035 226.169 372.914 226.186 372.812 226.2C372.582 226.232 372.376 226.283 372.194 226.354C372.012 226.425 371.869 226.524 371.763 226.652C371.658 226.777 371.606 226.939 371.606 227.138C371.606 227.422 371.71 227.636 371.917 227.781C372.124 227.926 372.388 227.999 372.71 227.999ZM377.384 229V220.273H378.927V223.537H378.991C379.07 223.378 379.183 223.209 379.327 223.03C379.472 222.848 379.668 222.693 379.915 222.565C380.163 222.435 380.478 222.369 380.862 222.369C381.367 222.369 381.823 222.499 382.229 222.757C382.638 223.013 382.962 223.392 383.201 223.895C383.442 224.395 383.563 225.009 383.563 225.736C383.563 226.455 383.445 227.065 383.21 227.568C382.974 228.071 382.653 228.455 382.246 228.719C381.84 228.983 381.38 229.115 380.866 229.115C380.491 229.115 380.18 229.053 379.933 228.928C379.685 228.803 379.487 228.652 379.336 228.476C379.188 228.297 379.073 228.128 378.991 227.969H378.901V229H377.384ZM378.897 225.727C378.897 226.151 378.957 226.521 379.076 226.839C379.198 227.158 379.373 227.406 379.6 227.585C379.83 227.761 380.109 227.849 380.435 227.849C380.776 227.849 381.062 227.759 381.292 227.577C381.522 227.392 381.695 227.141 381.812 226.822C381.931 226.501 381.991 226.136 381.991 225.727C381.991 225.321 381.933 224.96 381.816 224.645C381.7 224.33 381.526 224.082 381.296 223.903C381.066 223.724 380.779 223.635 380.435 223.635C380.106 223.635 379.826 223.722 379.596 223.895C379.366 224.068 379.191 224.311 379.072 224.624C378.955 224.936 378.897 225.304 378.897 225.727ZM386.417 220.273V229H384.875V220.273H386.417ZM390.901 229.128C390.245 229.128 389.678 228.991 389.201 228.719C388.727 228.443 388.362 228.054 388.106 227.551C387.85 227.045 387.722 226.45 387.722 225.766C387.722 225.092 387.85 224.501 388.106 223.993C388.364 223.482 388.725 223.084 389.188 222.8C389.651 222.513 390.195 222.369 390.82 222.369C391.224 222.369 391.604 222.435 391.962 222.565C392.323 222.693 392.641 222.892 392.917 223.162C393.195 223.432 393.414 223.776 393.573 224.193C393.732 224.608 393.812 225.102 393.812 225.676V226.149H388.447V225.109H392.333C392.33 224.814 392.266 224.551 392.141 224.321C392.016 224.088 391.842 223.905 391.617 223.771C391.396 223.638 391.137 223.571 390.842 223.571C390.526 223.571 390.249 223.648 390.011 223.801C389.772 223.952 389.586 224.151 389.452 224.398C389.322 224.642 389.255 224.911 389.252 225.203V226.111C389.252 226.491 389.322 226.818 389.461 227.091C389.6 227.361 389.795 227.568 390.045 227.713C390.295 227.855 390.587 227.926 390.923 227.926C391.147 227.926 391.35 227.895 391.532 227.832C391.714 227.767 391.871 227.672 392.005 227.547C392.138 227.422 392.239 227.267 392.308 227.082L393.748 227.244C393.657 227.625 393.484 227.957 393.228 228.241C392.975 228.523 392.651 228.741 392.256 228.898C391.862 229.051 391.41 229.128 390.901 229.128ZM396.766 220.273V229H395.185V220.273H396.766ZM401.678 222.455V223.648H397.915V222.455H401.678ZM398.844 220.886H400.387V227.031C400.387 227.239 400.418 227.398 400.481 227.509C400.546 227.616 400.631 227.69 400.737 227.73C400.842 227.77 400.958 227.79 401.086 227.79C401.183 227.79 401.271 227.783 401.35 227.768C401.433 227.754 401.495 227.741 401.538 227.73L401.798 228.936C401.715 228.964 401.597 228.996 401.444 229.03C401.293 229.064 401.109 229.084 400.89 229.089C400.504 229.101 400.156 229.043 399.846 228.915C399.536 228.784 399.29 228.582 399.109 228.31C398.93 228.037 398.842 227.696 398.844 227.287V220.886ZM405.796 229.128C405.14 229.128 404.573 228.991 404.096 228.719C403.621 228.443 403.256 228.054 403 227.551C402.745 227.045 402.617 226.45 402.617 225.766C402.617 225.092 402.745 224.501 403 223.993C403.259 223.482 403.62 223.084 404.083 222.8C404.546 222.513 405.09 222.369 405.715 222.369C406.118 222.369 406.499 222.435 406.857 222.565C407.218 222.693 407.536 222.892 407.811 223.162C408.09 223.432 408.309 223.776 408.468 224.193C408.627 224.608 408.706 225.102 408.706 225.676V226.149H403.341V225.109H407.228C407.225 224.814 407.161 224.551 407.036 224.321C406.911 224.088 406.736 223.905 406.512 223.771C406.29 223.638 406.032 223.571 405.736 223.571C405.421 223.571 405.144 223.648 404.905 223.801C404.667 223.952 404.48 224.151 404.347 224.398C404.216 224.642 404.15 224.911 404.147 225.203V226.111C404.147 226.491 404.216 226.818 404.355 227.091C404.495 227.361 404.689 227.568 404.939 227.713C405.189 227.855 405.482 227.926 405.817 227.926C406.042 227.926 406.245 227.895 406.426 227.832C406.608 227.767 406.766 227.672 406.9 227.547C407.033 227.422 407.134 227.267 407.202 227.082L408.642 227.244C408.551 227.625 408.378 227.957 408.123 228.241C407.87 228.523 407.546 228.741 407.151 228.898C406.756 229.051 406.304 229.128 405.796 229.128ZM410.011 229V222.455H411.486V223.567H411.562C411.699 223.192 411.925 222.899 412.24 222.689C412.555 222.476 412.932 222.369 413.369 222.369C413.812 222.369 414.186 222.477 414.49 222.693C414.797 222.906 415.013 223.197 415.138 223.567H415.206C415.351 223.203 415.595 222.913 415.939 222.697C416.286 222.479 416.696 222.369 417.17 222.369C417.773 222.369 418.264 222.56 418.645 222.94C419.026 223.321 419.216 223.876 419.216 224.607V229H417.669V224.845C417.669 224.439 417.561 224.142 417.345 223.955C417.129 223.764 416.865 223.669 416.553 223.669C416.18 223.669 415.889 223.786 415.679 224.018C415.472 224.249 415.368 224.548 415.368 224.918V229H413.855V224.781C413.855 224.443 413.753 224.173 413.548 223.972C413.347 223.77 413.082 223.669 412.756 223.669C412.534 223.669 412.332 223.726 412.151 223.839C411.969 223.95 411.824 224.108 411.716 224.312C411.608 224.514 411.554 224.75 411.554 225.02V229H410.011Z" fill="#F8F8FA"/>
<rect width="129" height="35" transform="translate(470 132)" fill="#CC8800"/>
<path d="M485.604 147.672C485.564 147.3 485.396 147.01 485.101 146.803C484.808 146.595 484.428 146.491 483.959 146.491C483.629 146.491 483.347 146.541 483.111 146.641C482.875 146.74 482.695 146.875 482.57 147.045C482.445 147.216 482.381 147.411 482.378 147.629C482.378 147.811 482.419 147.969 482.501 148.102C482.587 148.236 482.702 148.349 482.847 148.443C482.991 148.534 483.152 148.611 483.328 148.673C483.504 148.736 483.682 148.788 483.861 148.831L484.679 149.036C485.009 149.112 485.325 149.216 485.629 149.347C485.936 149.477 486.21 149.642 486.452 149.841C486.696 150.04 486.889 150.28 487.031 150.561C487.173 150.842 487.244 151.172 487.244 151.55C487.244 152.061 487.114 152.511 486.852 152.901C486.591 153.287 486.213 153.589 485.719 153.808C485.227 154.024 484.632 154.132 483.933 154.132C483.254 154.132 482.665 154.027 482.165 153.817C481.668 153.607 481.278 153.3 480.997 152.896C480.719 152.493 480.568 152.001 480.545 151.422H482.101C482.124 151.726 482.217 151.979 482.382 152.18C482.547 152.382 482.761 152.533 483.026 152.632C483.293 152.732 483.591 152.781 483.92 152.781C484.264 152.781 484.565 152.73 484.824 152.628C485.085 152.523 485.29 152.378 485.438 152.193C485.585 152.006 485.661 151.787 485.663 151.537C485.661 151.31 485.594 151.122 485.463 150.974C485.332 150.824 485.149 150.699 484.913 150.599C484.68 150.497 484.408 150.406 484.095 150.327L483.102 150.071C482.384 149.886 481.815 149.607 481.398 149.232C480.983 148.854 480.776 148.352 480.776 147.727C480.776 147.213 480.915 146.763 481.193 146.376C481.474 145.99 481.857 145.69 482.339 145.477C482.822 145.261 483.369 145.153 483.98 145.153C484.599 145.153 485.142 145.261 485.608 145.477C486.077 145.69 486.445 145.987 486.712 146.368C486.979 146.746 487.116 147.18 487.125 147.672H485.604ZM491.483 154.128C490.827 154.128 490.26 153.991 489.783 153.719C489.309 153.443 488.944 153.054 488.688 152.551C488.432 152.045 488.304 151.45 488.304 150.766C488.304 150.092 488.432 149.501 488.688 148.993C488.946 148.482 489.307 148.084 489.77 147.8C490.233 147.513 490.777 147.369 491.402 147.369C491.806 147.369 492.186 147.435 492.544 147.565C492.905 147.693 493.223 147.892 493.499 148.162C493.777 148.432 493.996 148.776 494.155 149.193C494.314 149.608 494.394 150.102 494.394 150.676V151.149H489.029V150.109H492.915C492.912 149.814 492.848 149.551 492.723 149.321C492.598 149.088 492.424 148.905 492.199 148.771C491.978 148.638 491.719 148.571 491.424 148.571C491.108 148.571 490.831 148.648 490.593 148.801C490.354 148.952 490.168 149.151 490.034 149.398C489.904 149.642 489.837 149.911 489.834 150.203V151.111C489.834 151.491 489.904 151.818 490.043 152.091C490.182 152.361 490.377 152.568 490.627 152.713C490.877 152.855 491.169 152.926 491.505 152.926C491.729 152.926 491.932 152.895 492.114 152.832C492.296 152.767 492.453 152.672 492.587 152.547C492.721 152.422 492.821 152.267 492.89 152.082L494.33 152.244C494.239 152.625 494.066 152.957 493.81 153.241C493.557 153.523 493.233 153.741 492.838 153.898C492.444 154.051 491.992 154.128 491.483 154.128ZM497.241 145.273V154H495.699V145.273H497.241ZM501.725 154.128C501.069 154.128 500.502 153.991 500.025 153.719C499.551 153.443 499.186 153.054 498.93 152.551C498.674 152.045 498.547 151.45 498.547 150.766C498.547 150.092 498.674 149.501 498.93 148.993C499.189 148.482 499.549 148.084 500.012 147.8C500.475 147.513 501.02 147.369 501.645 147.369C502.048 147.369 502.429 147.435 502.787 147.565C503.147 147.693 503.466 147.892 503.741 148.162C504.02 148.432 504.238 148.776 504.397 149.193C504.556 149.608 504.636 150.102 504.636 150.676V151.149H499.271V150.109H503.157C503.154 149.814 503.091 149.551 502.966 149.321C502.841 149.088 502.666 148.905 502.441 148.771C502.22 148.638 501.961 148.571 501.666 148.571C501.35 148.571 501.074 148.648 500.835 148.801C500.596 148.952 500.41 149.151 500.277 149.398C500.146 149.642 500.079 149.911 500.076 150.203V151.111C500.076 151.491 500.146 151.818 500.285 152.091C500.424 152.361 500.619 152.568 500.869 152.713C501.119 152.855 501.412 152.926 501.747 152.926C501.971 152.926 502.174 152.895 502.356 152.832C502.538 152.767 502.696 152.672 502.829 152.547C502.963 152.422 503.064 152.267 503.132 152.082L504.572 152.244C504.481 152.625 504.308 152.957 504.052 153.241C503.799 153.523 503.475 153.741 503.081 153.898C502.686 154.051 502.234 154.128 501.725 154.128ZM508.796 154.128C508.143 154.128 507.582 153.984 507.113 153.697C506.647 153.411 506.288 153.014 506.035 152.509C505.785 152 505.66 151.415 505.66 150.753C505.66 150.088 505.788 149.501 506.043 148.993C506.299 148.482 506.66 148.084 507.126 147.8C507.594 147.513 508.148 147.369 508.788 147.369C509.319 147.369 509.789 147.467 510.198 147.663C510.61 147.857 510.938 148.131 511.183 148.486C511.427 148.838 511.566 149.25 511.6 149.722H510.126C510.066 149.406 509.924 149.143 509.7 148.933C509.478 148.72 509.181 148.614 508.809 148.614C508.494 148.614 508.217 148.699 507.978 148.869C507.739 149.037 507.553 149.278 507.42 149.594C507.289 149.909 507.224 150.287 507.224 150.727C507.224 151.173 507.289 151.557 507.42 151.878C507.55 152.196 507.734 152.442 507.969 152.615C508.208 152.786 508.488 152.871 508.809 152.871C509.036 152.871 509.239 152.828 509.418 152.743C509.6 152.655 509.752 152.528 509.874 152.364C509.996 152.199 510.08 151.999 510.126 151.763H511.6C511.563 152.226 511.427 152.636 511.191 152.994C510.955 153.349 510.634 153.628 510.228 153.83C509.822 154.028 509.344 154.128 508.796 154.128ZM516.135 147.455V148.648H512.373V147.455H516.135ZM513.301 145.886H514.844V152.031C514.844 152.239 514.875 152.398 514.938 152.509C515.003 152.616 515.088 152.69 515.194 152.73C515.299 152.77 515.415 152.79 515.543 152.79C515.64 152.79 515.728 152.783 515.807 152.768C515.89 152.754 515.952 152.741 515.995 152.73L516.255 153.936C516.172 153.964 516.054 153.996 515.901 154.03C515.75 154.064 515.566 154.084 515.347 154.089C514.961 154.101 514.613 154.043 514.303 153.915C513.993 153.784 513.748 153.582 513.566 153.31C513.387 153.037 513.299 152.696 513.301 152.287V145.886ZM520.253 154.128C519.597 154.128 519.03 153.991 518.553 153.719C518.078 153.443 517.713 153.054 517.457 152.551C517.202 152.045 517.074 151.45 517.074 150.766C517.074 150.092 517.202 149.501 517.457 148.993C517.716 148.482 518.077 148.084 518.54 147.8C519.003 147.513 519.547 147.369 520.172 147.369C520.575 147.369 520.956 147.435 521.314 147.565C521.675 147.693 521.993 147.892 522.268 148.162C522.547 148.432 522.766 148.776 522.925 149.193C523.084 149.608 523.163 150.102 523.163 150.676V151.149H517.798V150.109H521.685C521.682 149.814 521.618 149.551 521.493 149.321C521.368 149.088 521.193 148.905 520.969 148.771C520.747 148.638 520.489 148.571 520.193 148.571C519.878 148.571 519.601 148.648 519.362 148.801C519.124 148.952 518.938 149.151 518.804 149.398C518.673 149.642 518.607 149.911 518.604 150.203V151.111C518.604 151.491 518.673 151.818 518.812 152.091C518.952 152.361 519.146 152.568 519.396 152.713C519.646 152.855 519.939 152.926 520.274 152.926C520.499 152.926 520.702 152.895 520.884 152.832C521.065 152.767 521.223 152.672 521.357 152.547C521.49 152.422 521.591 152.267 521.659 152.082L523.099 152.244C523.009 152.625 522.835 152.957 522.58 153.241C522.327 153.523 522.003 153.741 521.608 153.898C521.213 154.051 520.761 154.128 520.253 154.128ZM526.897 154.115C526.383 154.115 525.923 153.983 525.517 153.719C525.11 153.455 524.789 153.071 524.554 152.568C524.318 152.065 524.2 151.455 524.2 150.736C524.2 150.009 524.319 149.395 524.558 148.895C524.799 148.392 525.125 148.013 525.534 147.757C525.943 147.499 526.399 147.369 526.902 147.369C527.285 147.369 527.6 147.435 527.848 147.565C528.095 147.693 528.291 147.848 528.436 148.03C528.581 148.209 528.693 148.378 528.772 148.537H528.836V145.273H530.383V154H528.866V152.969H528.772C528.693 153.128 528.578 153.297 528.427 153.476C528.277 153.652 528.078 153.803 527.831 153.928C527.583 154.053 527.272 154.115 526.897 154.115ZM527.328 152.849C527.654 152.849 527.933 152.761 528.163 152.585C528.393 152.406 528.568 152.158 528.687 151.839C528.806 151.521 528.866 151.151 528.866 150.727C528.866 150.304 528.806 149.936 528.687 149.624C528.571 149.311 528.397 149.068 528.167 148.895C527.94 148.722 527.66 148.635 527.328 148.635C526.984 148.635 526.697 148.724 526.467 148.903C526.237 149.082 526.064 149.33 525.947 149.645C525.831 149.96 525.772 150.321 525.772 150.727C525.772 151.136 525.831 151.501 525.947 151.822C526.066 152.141 526.241 152.392 526.471 152.577C526.704 152.759 526.99 152.849 527.328 152.849ZM533.676 145.273V154H532.095V145.273H533.676ZM538.588 147.455V148.648H534.826V147.455H538.588ZM535.755 145.886H537.297V152.031C537.297 152.239 537.328 152.398 537.391 152.509C537.456 152.616 537.542 152.69 537.647 152.73C537.752 152.77 537.868 152.79 537.996 152.79C538.093 152.79 538.181 152.783 538.26 152.768C538.343 152.754 538.405 152.741 538.448 152.73L538.708 153.936C538.625 153.964 538.507 153.996 538.354 154.03C538.203 154.064 538.019 154.084 537.8 154.089C537.414 154.101 537.066 154.043 536.756 153.915C536.446 153.784 536.201 153.582 536.019 153.31C535.84 153.037 535.752 152.696 535.755 152.287V145.886ZM542.706 154.128C542.05 154.128 541.483 153.991 541.006 153.719C540.531 153.443 540.166 153.054 539.911 152.551C539.655 152.045 539.527 151.45 539.527 150.766C539.527 150.092 539.655 149.501 539.911 148.993C540.169 148.482 540.53 148.084 540.993 147.8C541.456 147.513 542 147.369 542.625 147.369C543.028 147.369 543.409 147.435 543.767 147.565C544.128 147.693 544.446 147.892 544.722 148.162C545 148.432 545.219 148.776 545.378 149.193C545.537 149.608 545.616 150.102 545.616 150.676V151.149H540.251V150.109H544.138C544.135 149.814 544.071 149.551 543.946 149.321C543.821 149.088 543.646 148.905 543.422 148.771C543.2 148.638 542.942 148.571 542.646 148.571C542.331 148.571 542.054 148.648 541.815 148.801C541.577 148.952 541.391 149.151 541.257 149.398C541.126 149.642 541.06 149.911 541.057 150.203V151.111C541.057 151.491 541.126 151.818 541.266 152.091C541.405 152.361 541.599 152.568 541.849 152.713C542.099 152.855 542.392 152.926 542.727 152.926C542.952 152.926 543.155 152.895 543.337 152.832C543.518 152.767 543.676 152.672 543.81 152.547C543.943 152.422 544.044 152.267 544.112 152.082L545.553 152.244C545.462 152.625 545.288 152.957 545.033 153.241C544.78 153.523 544.456 153.741 544.061 153.898C543.666 154.051 543.214 154.128 542.706 154.128ZM546.922 154V147.455H548.396V148.567H548.473C548.609 148.192 548.835 147.899 549.15 147.689C549.466 147.476 549.842 147.369 550.279 147.369C550.723 147.369 551.096 147.477 551.4 147.693C551.707 147.906 551.923 148.197 552.048 148.567H552.116C552.261 148.203 552.505 147.913 552.849 147.697C553.196 147.479 553.606 147.369 554.081 147.369C554.683 147.369 555.174 147.56 555.555 147.94C555.936 148.321 556.126 148.876 556.126 149.607V154H554.579V149.845C554.579 149.439 554.471 149.142 554.255 148.955C554.039 148.764 553.775 148.669 553.463 148.669C553.091 148.669 552.799 148.786 552.589 149.018C552.382 149.249 552.278 149.548 552.278 149.918V154H550.765V149.781C550.765 149.443 550.663 149.173 550.458 148.972C550.257 148.77 549.993 148.669 549.666 148.669C549.444 148.669 549.243 148.726 549.061 148.839C548.879 148.95 548.734 149.108 548.626 149.312C548.518 149.514 548.464 149.75 548.464 150.02V154H546.922ZM557.759 154V145.273H561.032C561.702 145.273 562.265 145.398 562.719 145.648C563.177 145.898 563.522 146.241 563.755 146.679C563.991 147.114 564.109 147.608 564.109 148.162C564.109 148.722 563.991 149.219 563.755 149.653C563.519 150.088 563.171 150.43 562.711 150.68C562.251 150.928 561.684 151.051 561.011 151.051H558.842V149.751H560.798C561.19 149.751 561.511 149.683 561.761 149.547C562.011 149.411 562.195 149.223 562.315 148.984C562.437 148.746 562.498 148.472 562.498 148.162C562.498 147.852 562.437 147.58 562.315 147.344C562.195 147.108 562.009 146.925 561.756 146.794C561.506 146.661 561.184 146.594 560.789 146.594H559.34V154H557.759ZM567.18 154.132C566.765 154.132 566.392 154.058 566.059 153.911C565.73 153.76 565.468 153.538 565.275 153.246C565.085 152.953 564.99 152.592 564.99 152.163C564.99 151.794 565.058 151.489 565.194 151.247C565.331 151.006 565.517 150.812 565.752 150.668C565.988 150.523 566.254 150.413 566.549 150.339C566.848 150.263 567.156 150.207 567.474 150.173C567.858 150.134 568.169 150.098 568.407 150.067C568.646 150.033 568.819 149.982 568.927 149.913C569.038 149.842 569.093 149.733 569.093 149.585V149.56C569.093 149.239 568.998 148.99 568.808 148.814C568.618 148.638 568.343 148.55 567.985 148.55C567.608 148.55 567.308 148.632 567.086 148.797C566.868 148.962 566.72 149.156 566.643 149.381L565.203 149.176C565.316 148.778 565.504 148.446 565.765 148.179C566.027 147.909 566.346 147.707 566.724 147.574C567.102 147.438 567.52 147.369 567.977 147.369C568.292 147.369 568.606 147.406 568.919 147.48C569.231 147.554 569.517 147.676 569.775 147.847C570.034 148.014 570.241 148.243 570.397 148.533C570.556 148.822 570.636 149.185 570.636 149.619V154H569.153V153.101H569.102C569.008 153.283 568.876 153.453 568.706 153.612C568.538 153.768 568.326 153.895 568.071 153.991C567.818 154.085 567.521 154.132 567.18 154.132ZM567.581 152.999C567.89 152.999 568.159 152.937 568.386 152.815C568.613 152.69 568.788 152.526 568.91 152.321C569.035 152.116 569.098 151.893 569.098 151.652V150.881C569.049 150.92 568.967 150.957 568.85 150.991C568.737 151.026 568.609 151.055 568.467 151.081C568.325 151.107 568.184 151.129 568.045 151.149C567.906 151.169 567.785 151.186 567.683 151.2C567.453 151.232 567.247 151.283 567.065 151.354C566.883 151.425 566.74 151.524 566.635 151.652C566.529 151.777 566.477 151.939 566.477 152.138C566.477 152.422 566.581 152.636 566.788 152.781C566.995 152.926 567.26 152.999 567.581 152.999ZM573.73 150.165V154H572.187V147.455H573.662V148.567H573.738C573.889 148.2 574.129 147.909 574.458 147.693C574.791 147.477 575.201 147.369 575.69 147.369C576.142 147.369 576.535 147.466 576.87 147.659C577.208 147.852 577.47 148.132 577.654 148.499C577.842 148.865 577.934 149.31 577.931 149.832V154H576.389V150.071C576.389 149.634 576.275 149.291 576.048 149.044C575.824 148.797 575.512 148.673 575.115 148.673C574.845 148.673 574.605 148.733 574.395 148.852C574.187 148.969 574.024 149.138 573.904 149.359C573.788 149.581 573.73 149.849 573.73 150.165ZM582.397 154.128C581.741 154.128 581.174 153.991 580.697 153.719C580.223 153.443 579.858 153.054 579.602 152.551C579.346 152.045 579.218 151.45 579.218 150.766C579.218 150.092 579.346 149.501 579.602 148.993C579.86 148.482 580.221 148.084 580.684 147.8C581.147 147.513 581.691 147.369 582.316 147.369C582.72 147.369 583.1 147.435 583.458 147.565C583.819 147.693 584.137 147.892 584.413 148.162C584.691 148.432 584.91 148.776 585.069 149.193C585.228 149.608 585.308 150.102 585.308 150.676V151.149H579.943V150.109H583.829C583.826 149.814 583.762 149.551 583.637 149.321C583.512 149.088 583.338 148.905 583.113 148.771C582.892 148.638 582.633 148.571 582.338 148.571C582.022 148.571 581.745 148.648 581.507 148.801C581.268 148.952 581.082 149.151 580.949 149.398C580.818 149.642 580.751 149.911 580.748 150.203V151.111C580.748 151.491 580.818 151.818 580.957 152.091C581.096 152.361 581.291 152.568 581.541 152.713C581.791 152.855 582.083 152.926 582.419 152.926C582.643 152.926 582.846 152.895 583.028 152.832C583.21 152.767 583.368 152.672 583.501 152.547C583.635 152.422 583.735 152.267 583.804 152.082L585.244 152.244C585.153 152.625 584.98 152.957 584.724 153.241C584.471 153.523 584.147 153.741 583.752 153.898C583.358 154.051 582.906 154.128 582.397 154.128ZM588.156 145.273V154H586.613V145.273H588.156Z" fill="#F8F8FA"/>
<rect width="107" height="35" transform="translate(470 207)" fill="#CC8800"/>
<path d="M482.442 220.273V229H480.861V220.273H482.442ZM487.354 222.455V223.648H483.591V222.455H487.354ZM484.52 220.886H486.063V227.031C486.063 227.239 486.094 227.398 486.157 227.509C486.222 227.616 486.307 227.69 486.412 227.73C486.517 227.77 486.634 227.79 486.762 227.79C486.858 227.79 486.946 227.783 487.026 227.768C487.108 227.754 487.171 227.741 487.213 227.73L487.473 228.936C487.391 228.964 487.273 228.996 487.12 229.03C486.969 229.064 486.784 229.084 486.566 229.089C486.179 229.101 485.831 229.043 485.522 228.915C485.212 228.784 484.966 228.582 484.784 228.31C484.605 228.037 484.517 227.696 484.52 227.287V220.886ZM491.472 229.128C490.815 229.128 490.249 228.991 489.771 228.719C489.297 228.443 488.932 228.054 488.676 227.551C488.42 227.045 488.293 226.45 488.293 225.766C488.293 225.092 488.42 224.501 488.676 223.993C488.935 223.482 489.295 223.084 489.759 222.8C490.222 222.513 490.766 222.369 491.391 222.369C491.794 222.369 492.175 222.435 492.533 222.565C492.893 222.693 493.212 222.892 493.487 223.162C493.766 223.432 493.984 223.776 494.143 224.193C494.303 224.608 494.382 225.102 494.382 225.676V226.149H489.017V225.109H492.903C492.901 224.814 492.837 224.551 492.712 224.321C492.587 224.088 492.412 223.905 492.188 223.771C491.966 223.638 491.707 223.571 491.412 223.571C491.097 223.571 490.82 223.648 490.581 223.801C490.342 223.952 490.156 224.151 490.023 224.398C489.892 224.642 489.825 224.911 489.822 225.203V226.111C489.822 226.491 489.892 226.818 490.031 227.091C490.17 227.361 490.365 227.568 490.615 227.713C490.865 227.855 491.158 227.926 491.493 227.926C491.717 227.926 491.92 227.895 492.102 227.832C492.284 227.767 492.442 227.672 492.575 227.547C492.709 227.422 492.81 227.267 492.878 227.082L494.318 227.244C494.227 227.625 494.054 227.957 493.798 228.241C493.545 228.523 493.222 228.741 492.827 228.898C492.432 229.051 491.98 229.128 491.472 229.128ZM495.687 229V222.455H497.162V223.567H497.238C497.375 223.192 497.6 222.899 497.916 222.689C498.231 222.476 498.608 222.369 499.045 222.369C499.488 222.369 499.862 222.477 500.166 222.693C500.473 222.906 500.689 223.197 500.814 223.567H500.882C501.027 223.203 501.271 222.913 501.615 222.697C501.961 222.479 502.372 222.369 502.846 222.369C503.449 222.369 503.94 222.56 504.321 222.94C504.701 223.321 504.892 223.876 504.892 224.607V229H503.345V224.845C503.345 224.439 503.237 224.142 503.021 223.955C502.805 223.764 502.541 223.669 502.228 223.669C501.856 223.669 501.565 223.786 501.355 224.018C501.147 224.249 501.044 224.548 501.044 224.918V229H499.531V224.781C499.531 224.443 499.429 224.173 499.224 223.972C499.022 223.77 498.758 223.669 498.431 223.669C498.21 223.669 498.008 223.726 497.826 223.839C497.645 223.95 497.5 224.108 497.392 224.312C497.284 224.514 497.23 224.75 497.23 225.02V229H495.687ZM505.591 221.598V220.273H512.554V221.598H509.856V229H508.288V221.598H505.591ZM515.37 225.165V229H513.828V220.273H515.336V223.567H515.413C515.566 223.197 515.804 222.906 516.125 222.693C516.449 222.477 516.86 222.369 517.36 222.369C517.815 222.369 518.211 222.464 518.549 222.655C518.887 222.845 519.149 223.124 519.333 223.49C519.521 223.857 519.615 224.304 519.615 224.832V229H518.072V225.071C518.072 224.631 517.958 224.288 517.731 224.044C517.507 223.797 517.191 223.673 516.785 223.673C516.512 223.673 516.268 223.733 516.052 223.852C515.839 223.969 515.672 224.138 515.549 224.359C515.43 224.581 515.37 224.849 515.37 225.165ZM525.359 226.247V222.455H526.902V229H525.406V227.837H525.338C525.19 228.203 524.947 228.503 524.609 228.736C524.274 228.969 523.86 229.085 523.369 229.085C522.94 229.085 522.561 228.99 522.231 228.8C521.904 228.607 521.649 228.327 521.464 227.96C521.279 227.591 521.187 227.145 521.187 226.622V222.455H522.73V226.384C522.73 226.798 522.843 227.128 523.071 227.372C523.298 227.616 523.596 227.739 523.966 227.739C524.193 227.739 524.413 227.683 524.626 227.572C524.839 227.462 525.014 227.297 525.15 227.078C525.289 226.857 525.359 226.58 525.359 226.247ZM528.488 229V222.455H529.962V223.567H530.039C530.175 223.192 530.401 222.899 530.717 222.689C531.032 222.476 531.408 222.369 531.846 222.369C532.289 222.369 532.663 222.477 532.967 222.693C533.273 222.906 533.489 223.197 533.614 223.567H533.683C533.827 223.203 534.072 222.913 534.415 222.697C534.762 222.479 535.173 222.369 535.647 222.369C536.249 222.369 536.741 222.56 537.121 222.94C537.502 223.321 537.692 223.876 537.692 224.607V229H536.146V224.845C536.146 224.439 536.038 224.142 535.822 223.955C535.606 223.764 535.342 223.669 535.029 223.669C534.657 223.669 534.366 223.786 534.156 224.018C533.948 224.249 533.844 224.548 533.844 224.918V229H532.332V224.781C532.332 224.443 532.229 224.173 532.025 223.972C531.823 223.77 531.559 223.669 531.232 223.669C531.011 223.669 530.809 223.726 530.627 223.839C530.445 223.95 530.3 224.108 530.192 224.312C530.085 224.514 530.031 224.75 530.031 225.02V229H528.488ZM539.326 229V220.273H540.868V223.537H540.932C541.012 223.378 541.124 223.209 541.269 223.03C541.414 222.848 541.61 222.693 541.857 222.565C542.104 222.435 542.419 222.369 542.803 222.369C543.309 222.369 543.765 222.499 544.171 222.757C544.58 223.013 544.904 223.392 545.142 223.895C545.384 224.395 545.505 225.009 545.505 225.736C545.505 226.455 545.387 227.065 545.151 227.568C544.915 228.071 544.594 228.455 544.188 228.719C543.782 228.983 543.321 229.115 542.807 229.115C542.432 229.115 542.121 229.053 541.874 228.928C541.627 228.803 541.428 228.652 541.277 228.476C541.13 228.297 541.015 228.128 540.932 227.969H540.843V229H539.326ZM540.838 225.727C540.838 226.151 540.898 226.521 541.017 226.839C541.14 227.158 541.314 227.406 541.542 227.585C541.772 227.761 542.05 227.849 542.377 227.849C542.718 227.849 543.003 227.759 543.233 227.577C543.463 227.392 543.637 227.141 543.753 226.822C543.873 226.501 543.932 226.136 543.932 225.727C543.932 225.321 543.874 224.96 543.757 224.645C543.641 224.33 543.468 224.082 543.238 223.903C543.007 223.724 542.721 223.635 542.377 223.635C542.047 223.635 541.767 223.722 541.537 223.895C541.307 224.068 541.132 224.311 541.013 224.624C540.897 224.936 540.838 225.304 540.838 225.727ZM548.359 225.165V229H546.816V222.455H548.29V223.567H548.367C548.518 223.2 548.758 222.909 549.087 222.693C549.42 222.477 549.83 222.369 550.319 222.369C550.771 222.369 551.164 222.466 551.499 222.659C551.837 222.852 552.099 223.132 552.283 223.499C552.471 223.865 552.563 224.31 552.56 224.832V229H551.018V225.071C551.018 224.634 550.904 224.291 550.677 224.044C550.452 223.797 550.141 223.673 549.744 223.673C549.474 223.673 549.234 223.733 549.023 223.852C548.816 223.969 548.653 224.138 548.533 224.359C548.417 224.581 548.359 224.849 548.359 225.165ZM556.012 229.132C555.597 229.132 555.224 229.058 554.891 228.911C554.562 228.76 554.3 228.538 554.107 228.246C553.917 227.953 553.822 227.592 553.822 227.163C553.822 226.794 553.89 226.489 554.026 226.247C554.163 226.006 554.349 225.812 554.585 225.668C554.82 225.523 555.086 225.413 555.381 225.339C555.68 225.263 555.988 225.207 556.306 225.173C556.69 225.134 557.001 225.098 557.239 225.067C557.478 225.033 557.651 224.982 557.759 224.913C557.87 224.842 557.925 224.733 557.925 224.585V224.56C557.925 224.239 557.83 223.99 557.64 223.814C557.45 223.638 557.175 223.55 556.817 223.55C556.44 223.55 556.14 223.632 555.918 223.797C555.7 223.962 555.552 224.156 555.475 224.381L554.035 224.176C554.148 223.778 554.336 223.446 554.597 223.179C554.859 222.909 555.178 222.707 555.556 222.574C555.934 222.438 556.352 222.369 556.809 222.369C557.124 222.369 557.438 222.406 557.751 222.48C558.063 222.554 558.349 222.676 558.607 222.847C558.866 223.014 559.073 223.243 559.229 223.533C559.388 223.822 559.468 224.185 559.468 224.619V229H557.985V228.101H557.934C557.84 228.283 557.708 228.453 557.538 228.612C557.37 228.768 557.158 228.895 556.903 228.991C556.65 229.085 556.353 229.132 556.012 229.132ZM556.413 227.999C556.722 227.999 556.991 227.937 557.218 227.815C557.445 227.69 557.62 227.526 557.742 227.321C557.867 227.116 557.93 226.893 557.93 226.652V225.881C557.881 225.92 557.799 225.957 557.683 225.991C557.569 226.026 557.441 226.055 557.299 226.081C557.157 226.107 557.016 226.129 556.877 226.149C556.738 226.169 556.617 226.186 556.515 226.2C556.285 226.232 556.079 226.283 555.897 226.354C555.715 226.425 555.572 226.524 555.467 226.652C555.362 226.777 555.309 226.939 555.309 227.138C555.309 227.422 555.413 227.636 555.62 227.781C555.827 227.926 556.092 227.999 556.413 227.999ZM561.019 229V222.455H562.562V229H561.019ZM561.795 221.526C561.55 221.526 561.34 221.445 561.164 221.283C560.988 221.118 560.9 220.92 560.9 220.69C560.9 220.457 560.988 220.26 561.164 220.098C561.34 219.933 561.55 219.851 561.795 219.851C562.042 219.851 562.252 219.933 562.425 220.098C562.602 220.26 562.69 220.457 562.69 220.69C562.69 220.92 562.602 221.118 562.425 221.283C562.252 221.445 562.042 221.526 561.795 221.526ZM565.691 220.273V229H564.148V220.273H565.691Z" fill="#F8F8FA"/>
<rect width="77" height="35" transform="translate(587 207)" fill="#CC8800"/>
<path d="M597.477 221.598V220.273H604.44V221.598H601.743V229H600.175V221.598H597.477ZM607.663 229.128C607.007 229.128 606.44 228.991 605.963 228.719C605.488 228.443 605.123 228.054 604.868 227.551C604.612 227.045 604.484 226.45 604.484 225.766C604.484 225.092 604.612 224.501 604.868 223.993C605.126 223.482 605.487 223.084 605.95 222.8C606.413 222.513 606.957 222.369 607.582 222.369C607.985 222.369 608.366 222.435 608.724 222.565C609.085 222.693 609.403 222.892 609.679 223.162C609.957 223.432 610.176 223.776 610.335 224.193C610.494 224.608 610.574 225.102 610.574 225.676V226.149H605.208V225.109H609.095C609.092 224.814 609.028 224.551 608.903 224.321C608.778 224.088 608.603 223.905 608.379 223.771C608.157 223.638 607.899 223.571 607.603 223.571C607.288 223.571 607.011 223.648 606.772 223.801C606.534 223.952 606.348 224.151 606.214 224.398C606.083 224.642 606.017 224.911 606.014 225.203V226.111C606.014 226.491 606.083 226.818 606.223 227.091C606.362 227.361 606.556 227.568 606.806 227.713C607.056 227.855 607.349 227.926 607.684 227.926C607.909 227.926 608.112 227.895 608.294 227.832C608.475 227.767 608.633 227.672 608.767 227.547C608.9 227.422 609.001 227.267 609.069 227.082L610.51 227.244C610.419 227.625 610.245 227.957 609.99 228.241C609.737 228.523 609.413 228.741 609.018 228.898C608.623 229.051 608.172 229.128 607.663 229.128ZM612.999 222.455L614.32 224.871L615.663 222.455H617.295L615.322 225.727L617.329 229H615.705L614.32 226.643L612.948 229H611.312L613.306 225.727L611.363 222.455H612.999ZM621.756 222.455V223.648H617.994V222.455H621.756ZM618.923 220.886H620.465V227.031C620.465 227.239 620.496 227.398 620.559 227.509C620.624 227.616 620.71 227.69 620.815 227.73C620.92 227.77 621.036 227.79 621.164 227.79C621.261 227.79 621.349 227.783 621.428 227.768C621.511 227.754 621.573 227.741 621.616 227.73L621.876 228.936C621.793 228.964 621.675 228.996 621.522 229.03C621.371 229.064 621.187 229.084 620.968 229.089C620.582 229.101 620.234 229.043 619.924 228.915C619.614 228.784 619.369 228.582 619.187 228.31C619.008 228.037 618.92 227.696 618.923 227.287V220.886ZM623.255 229V220.273H624.836V227.675H628.68V229H623.255ZM631.868 229.132C631.453 229.132 631.079 229.058 630.747 228.911C630.417 228.76 630.156 228.538 629.963 228.246C629.772 227.953 629.677 227.592 629.677 227.163C629.677 226.794 629.745 226.489 629.882 226.247C630.018 226.006 630.204 225.812 630.44 225.668C630.676 225.523 630.941 225.413 631.237 225.339C631.535 225.263 631.843 225.207 632.162 225.173C632.545 225.134 632.856 225.098 633.095 225.067C633.333 225.033 633.507 224.982 633.615 224.913C633.725 224.842 633.781 224.733 633.781 224.585V224.56C633.781 224.239 633.686 223.99 633.495 223.814C633.305 223.638 633.031 223.55 632.673 223.55C632.295 223.55 631.995 223.632 631.774 223.797C631.555 223.962 631.407 224.156 631.331 224.381L629.89 224.176C630.004 223.778 630.191 223.446 630.453 223.179C630.714 222.909 631.034 222.707 631.412 222.574C631.789 222.438 632.207 222.369 632.664 222.369C632.98 222.369 633.294 222.406 633.606 222.48C633.919 222.554 634.204 222.676 634.463 222.847C634.721 223.014 634.929 223.243 635.085 223.533C635.244 223.822 635.324 224.185 635.324 224.619V229H633.841V228.101H633.789C633.696 228.283 633.564 228.453 633.393 228.612C633.225 228.768 633.014 228.895 632.758 228.991C632.505 229.085 632.208 229.132 631.868 229.132ZM632.268 227.999C632.578 227.999 632.846 227.937 633.074 227.815C633.301 227.69 633.475 227.526 633.598 227.321C633.723 227.116 633.785 226.893 633.785 226.652V225.881C633.737 225.92 633.654 225.957 633.538 225.991C633.424 226.026 633.297 226.055 633.154 226.081C633.012 226.107 632.872 226.129 632.733 226.149C632.593 226.169 632.473 226.186 632.37 226.2C632.14 226.232 631.934 226.283 631.752 226.354C631.571 226.425 631.427 226.524 631.322 226.652C631.217 226.777 631.164 226.939 631.164 227.138C631.164 227.422 631.268 227.636 631.475 227.781C631.683 227.926 631.947 227.999 632.268 227.999ZM636.943 229V220.273H638.485V223.537H638.549C638.629 223.378 638.741 223.209 638.886 223.03C639.031 222.848 639.227 222.693 639.474 222.565C639.721 222.435 640.037 222.369 640.42 222.369C640.926 222.369 641.382 222.499 641.788 222.757C642.197 223.013 642.521 223.392 642.76 223.895C643.001 224.395 643.122 225.009 643.122 225.736C643.122 226.455 643.004 227.065 642.768 227.568C642.532 228.071 642.211 228.455 641.805 228.719C641.399 228.983 640.939 229.115 640.424 229.115C640.049 229.115 639.738 229.053 639.491 228.928C639.244 228.803 639.045 228.652 638.895 228.476C638.747 228.297 638.632 228.128 638.549 227.969H638.46V229H636.943ZM638.456 225.727C638.456 226.151 638.515 226.521 638.635 226.839C638.757 227.158 638.931 227.406 639.159 227.585C639.389 227.761 639.667 227.849 639.994 227.849C640.335 227.849 640.62 227.759 640.85 227.577C641.081 227.392 641.254 227.141 641.37 226.822C641.49 226.501 641.549 226.136 641.549 225.727C641.549 225.321 641.491 224.96 641.375 224.645C641.258 224.33 641.085 224.082 640.855 223.903C640.625 223.724 640.338 223.635 639.994 223.635C639.664 223.635 639.385 223.722 639.154 223.895C638.924 224.068 638.75 224.311 638.63 224.624C638.514 224.936 638.456 225.304 638.456 225.727ZM647.331 229.128C646.675 229.128 646.108 228.991 645.631 228.719C645.156 228.443 644.791 228.054 644.536 227.551C644.28 227.045 644.152 226.45 644.152 225.766C644.152 225.092 644.28 224.501 644.536 223.993C644.794 223.482 645.155 223.084 645.618 222.8C646.081 222.513 646.625 222.369 647.25 222.369C647.653 222.369 648.034 222.435 648.392 222.565C648.753 222.693 649.071 222.892 649.347 223.162C649.625 223.432 649.844 223.776 650.003 224.193C650.162 224.608 650.241 225.102 650.241 225.676V226.149H644.876V225.109H648.763C648.76 224.814 648.696 224.551 648.571 224.321C648.446 224.088 648.271 223.905 648.047 223.771C647.825 223.638 647.567 223.571 647.271 223.571C646.956 223.571 646.679 223.648 646.44 223.801C646.202 223.952 646.016 224.151 645.882 224.398C645.751 224.642 645.685 224.911 645.682 225.203V226.111C645.682 226.491 645.751 226.818 645.891 227.091C646.03 227.361 646.224 227.568 646.474 227.713C646.724 227.855 647.017 227.926 647.352 227.926C647.577 227.926 647.78 227.895 647.962 227.832C648.143 227.767 648.301 227.672 648.435 227.547C648.568 227.422 648.669 227.267 648.737 227.082L650.178 227.244C650.087 227.625 649.913 227.957 649.658 228.241C649.405 228.523 649.081 228.741 648.686 228.898C648.291 229.051 647.839 229.128 647.331 229.128ZM653.089 220.273V229H651.547V220.273H653.089Z" fill="#F8F8FA"/>
<rect width="59" height="35" transform="translate(674 207)" fill="#CC8800"/>
<path d="M684.861 229V220.273H688.202C688.832 220.273 689.357 220.372 689.774 220.571C690.195 220.767 690.509 221.036 690.716 221.376C690.926 221.717 691.031 222.104 691.031 222.536C691.031 222.891 690.963 223.195 690.827 223.447C690.69 223.697 690.507 223.901 690.277 224.057C690.047 224.213 689.79 224.325 689.506 224.393V224.479C689.815 224.496 690.112 224.591 690.396 224.764C690.683 224.935 690.918 225.176 691.099 225.489C691.281 225.801 691.372 226.179 691.372 226.622C691.372 227.074 691.263 227.48 691.044 227.841C690.825 228.199 690.496 228.482 690.055 228.689C689.615 228.896 689.061 229 688.393 229H684.861ZM686.442 227.679H688.142C688.716 227.679 689.129 227.57 689.382 227.351C689.638 227.129 689.766 226.845 689.766 226.499C689.766 226.24 689.702 226.007 689.574 225.8C689.446 225.589 689.264 225.425 689.028 225.305C688.793 225.183 688.511 225.122 688.185 225.122H686.442V227.679ZM686.442 223.984H688.006C688.278 223.984 688.524 223.935 688.743 223.835C688.962 223.733 689.134 223.589 689.259 223.405C689.386 223.217 689.45 222.996 689.45 222.74C689.45 222.402 689.331 222.124 689.092 221.905C688.857 221.686 688.506 221.577 688.04 221.577H686.442V223.984ZM696.851 226.247V222.455H698.394V229H696.898V227.837H696.83C696.682 228.203 696.439 228.503 696.101 228.736C695.766 228.969 695.353 229.085 694.861 229.085C694.432 229.085 694.053 228.99 693.723 228.8C693.397 228.607 693.141 228.327 692.956 227.96C692.772 227.591 692.679 227.145 692.679 226.622V222.455H694.222V226.384C694.222 226.798 694.336 227.128 694.563 227.372C694.79 227.616 695.088 227.739 695.458 227.739C695.685 227.739 695.905 227.683 696.118 227.572C696.331 227.462 696.506 227.297 696.642 227.078C696.782 226.857 696.851 226.58 696.851 226.247ZM703.249 222.455V223.648H699.486V222.455H703.249ZM700.415 220.886H701.957V227.031C701.957 227.239 701.989 227.398 702.051 227.509C702.116 227.616 702.202 227.69 702.307 227.73C702.412 227.77 702.528 227.79 702.656 227.79C702.753 227.79 702.841 227.783 702.92 227.768C703.003 227.754 703.065 227.741 703.108 227.73L703.368 228.936C703.286 228.964 703.168 228.996 703.014 229.03C702.864 229.064 702.679 229.084 702.46 229.089C702.074 229.101 701.726 229.043 701.416 228.915C701.107 228.784 700.861 228.582 700.679 228.31C700.5 228.037 700.412 227.696 700.415 227.287V220.886ZM707.807 222.455V223.648H704.044V222.455H707.807ZM704.973 220.886H706.516V227.031C706.516 227.239 706.547 227.398 706.61 227.509C706.675 227.616 706.76 227.69 706.865 227.73C706.971 227.77 707.087 227.79 707.215 227.79C707.311 227.79 707.4 227.783 707.479 227.768C707.561 227.754 707.624 227.741 707.667 227.73L707.926 228.936C707.844 228.964 707.726 228.996 707.573 229.03C707.422 229.064 707.238 229.084 707.019 229.089C706.632 229.101 706.284 229.043 705.975 228.915C705.665 228.784 705.419 228.582 705.238 228.31C705.059 228.037 704.971 227.696 704.973 227.287V220.886ZM711.882 229.128C711.243 229.128 710.689 228.987 710.22 228.706C709.751 228.425 709.388 228.031 709.129 227.526C708.874 227.02 708.746 226.429 708.746 225.753C708.746 225.077 708.874 224.484 709.129 223.976C709.388 223.467 709.751 223.072 710.22 222.791C710.689 222.51 711.243 222.369 711.882 222.369C712.521 222.369 713.075 222.51 713.544 222.791C714.013 223.072 714.375 223.467 714.631 223.976C714.889 224.484 715.018 225.077 715.018 225.753C715.018 226.429 714.889 227.02 714.631 227.526C714.375 228.031 714.013 228.425 713.544 228.706C713.075 228.987 712.521 229.128 711.882 229.128ZM711.891 227.892C712.237 227.892 712.527 227.797 712.76 227.607C712.993 227.413 713.166 227.155 713.28 226.831C713.396 226.507 713.455 226.146 713.455 225.749C713.455 225.348 713.396 224.986 713.28 224.662C713.166 224.335 712.993 224.075 712.76 223.882C712.527 223.689 712.237 223.592 711.891 223.592C711.536 223.592 711.24 223.689 711.004 223.882C710.771 224.075 710.597 224.335 710.48 224.662C710.366 224.986 710.31 225.348 710.31 225.749C710.31 226.146 710.366 226.507 710.48 226.831C710.597 227.155 710.771 227.413 711.004 227.607C711.24 227.797 711.536 227.892 711.891 227.892ZM717.87 225.165V229H716.328V222.455H717.802V223.567H717.879C718.029 223.2 718.27 222.909 718.599 222.693C718.931 222.477 719.342 222.369 719.831 222.369C720.282 222.369 720.676 222.466 721.011 222.659C721.349 222.852 721.61 223.132 721.795 223.499C721.983 223.865 722.075 224.31 722.072 224.832V229H720.529V225.071C720.529 224.634 720.416 224.291 720.189 224.044C719.964 223.797 719.653 223.673 719.255 223.673C718.985 223.673 718.745 223.733 718.535 223.852C718.328 223.969 718.164 224.138 718.045 224.359C717.929 224.581 717.87 224.849 717.87 225.165Z" fill="#F8F8FA"/>
<path d="M535 78V77H536V78H535ZM535.707 129.707C535.317 130.098 534.683 130.098 534.293 129.707L527.929 123.343C527.538 122.953 527.538 122.319 527.929 121.929C528.319 121.538 528.953 121.538 529.343 121.929L535 127.586L540.657 121.929C541.047 121.538 541.681 121.538 542.071 121.929C542.462 122.319 542.462 122.953 542.071 123.343L535.707 129.707ZM536 78V129H534V78H536ZM535 79H486.5V77H535V79Z" fill="#CC8800"/>
<path d="M524.707 204.707C524.317 205.098 523.683 205.098 523.293 204.707L516.929 198.343C516.538 197.953 516.538 197.319 516.929 196.929C517.319 196.538 517.953 196.538 518.343 196.929L524 202.586L529.657 196.929C530.047 196.538 530.681 196.538 531.071 196.929C531.462 197.319 531.462 197.953 531.071 198.343L524.707 204.707ZM525 162.5V204H523V162.5H525Z" fill="#CC8800"/>
<path d="M377.707 204.707C377.317 205.098 376.683 205.098 376.293 204.707L369.929 198.343C369.538 197.953 369.538 197.319 369.929 196.929C370.319 196.538 370.953 196.538 371.343 196.929L377 202.586L382.657 196.929C383.047 196.538 383.681 196.538 384.071 196.929C384.462 197.319 384.462 197.953 384.071 198.343L377.707 204.707ZM378 157.5V204H376V157.5H378Z" fill="#CC8800"/>
<path d="M260 150H259V149H260V150ZM260.707 204.707C260.317 205.098 259.683 205.098 259.293 204.707L252.929 198.343C252.538 197.953 252.538 197.319 252.929 196.929C253.319 196.538 253.953 196.538 254.343 196.929L260 202.586L265.657 196.929C266.047 196.538 266.681 196.538 267.071 196.929C267.462 197.319 267.462 197.953 267.071 198.343L260.707 204.707ZM261 150V204H259V150H261ZM260 149H293V151H260V149Z" fill="#CC8800"/>
<path d="M626 150V149H627V150H626ZM626.707 204.707C626.317 205.098 625.683 205.098 625.293 204.707L618.929 198.343C618.538 197.953 618.538 197.319 618.929 196.929C619.319 196.538 619.953 196.538 620.343 196.929L626 202.586L631.657 196.929C632.047 196.538 632.681 196.538 633.071 196.929C633.462 197.319 633.462 197.953 633.071 198.343L626.707 204.707ZM627 150V204H625V150H627ZM626 151H597.5V149H626V151Z" fill="#CC8800"/>
<path d="M704 150V149H705V150H704ZM704.707 204.707C704.317 205.098 703.683 205.098 703.293 204.707L696.929 198.343C696.538 197.953 696.538 197.319 696.929 196.929C697.319 196.538 697.953 196.538 698.343 196.929L704 202.586L709.657 196.929C710.047 196.538 710.681 196.538 711.071 196.929C711.462 197.319 711.462 197.953 711.071 198.343L704.707 204.707ZM705 150V204H703V150H705ZM704 151H623V149H704V151Z" fill="#CC8800"/>
<path d="M360 78H359V77H360V78ZM360.707 129.707C360.317 130.098 359.683 130.098 359.293 129.707L352.929 123.343C352.538 122.953 352.538 122.319 352.929 121.929C353.319 121.538 353.953 121.538 354.343 121.929L360 127.586L365.657 121.929C366.047 121.538 366.681 121.538 367.071 121.929C367.462 122.319 367.462 122.953 367.071 123.343L360.707 129.707ZM361 78V129H359V78H361ZM360 77H413.5V79H360V77Z" fill="#CC8800"/>
</svg>
