<svg width="900" height="296" viewBox="0 0 900 296" fill="none" xmlns="http://www.w3.org/2000/svg">
<rect width="174" height="41" transform="translate(363 50)" fill="#333333"/>
<path d="M377.538 76.16C376.663 76.16 375.954 75.8667 375.41 75.28C374.877 74.6933 374.61 73.8987 374.61 72.896V70.32C374.61 69.3067 374.877 68.5067 375.41 67.92C375.943 67.3333 376.653 67.04 377.538 67.04C378.199 67.04 378.743 67.2053 379.17 67.536C379.597 67.8667 379.847 68.3147 379.922 68.88H379.97L379.938 66.88V64.32H381.378V76H379.938V74.32H379.922C379.847 74.896 379.597 75.3493 379.17 75.68C378.743 76 378.199 76.16 377.538 76.16ZM378.018 74.912C378.615 74.912 379.085 74.7253 379.426 74.352C379.767 73.9787 379.938 73.4613 379.938 72.8V70.4C379.938 69.7387 379.767 69.2213 379.426 68.848C379.085 68.4747 378.615 68.288 378.018 68.288C377.41 68.288 376.93 68.4693 376.578 68.832C376.226 69.1947 376.05 69.7173 376.05 70.4V72.8C376.05 73.4827 376.226 74.0053 376.578 74.368C376.93 74.7307 377.41 74.912 378.018 74.912ZM387.644 76.16C386.95 76.16 386.342 76.0213 385.82 75.744C385.308 75.4667 384.908 75.0773 384.62 74.576C384.342 74.064 384.204 73.472 384.204 72.8V70.4C384.204 69.7173 384.342 69.1253 384.62 68.624C384.908 68.1227 385.308 67.7333 385.82 67.456C386.342 67.1787 386.95 67.04 387.644 67.04C388.337 67.04 388.94 67.1787 389.452 67.456C389.974 67.7333 390.374 68.1227 390.652 68.624C390.94 69.1253 391.084 69.7173 391.084 70.4V71.952H385.612V72.8C385.612 73.4933 385.788 74.0267 386.14 74.4C386.492 74.7627 386.993 74.944 387.644 74.944C388.198 74.944 388.646 74.848 388.988 74.656C389.329 74.4533 389.537 74.1547 389.612 73.76H391.052C390.956 74.496 390.593 75.0827 389.964 75.52C389.345 75.9467 388.572 76.16 387.644 76.16ZM385.612 70.864H389.676V70.4C389.676 69.7067 389.5 69.1733 389.148 68.8C388.806 68.4267 388.305 68.24 387.644 68.24C386.993 68.24 386.492 68.4267 386.14 68.8C385.788 69.1733 385.612 69.7067 385.612 70.4V70.864ZM396.47 76.16C395.542 76.16 394.811 75.9253 394.278 75.456C393.744 74.976 393.478 74.3307 393.478 73.52C393.478 72.6987 393.744 72.0533 394.278 71.584C394.811 71.1147 395.531 70.88 396.438 70.88H399.158V70C399.158 69.4667 398.992 69.0507 398.662 68.752C398.342 68.4533 397.894 68.304 397.318 68.304C396.806 68.304 396.374 68.416 396.022 68.64C395.67 68.864 395.451 69.1573 395.366 69.52H393.926C393.979 69.0293 394.155 68.5973 394.454 68.224C394.763 67.8507 395.163 67.5627 395.654 67.36C396.155 67.1467 396.71 67.04 397.318 67.04C398.331 67.04 399.131 67.3013 399.718 67.824C400.304 68.3467 400.598 69.056 400.598 69.952V76H399.19V74.32H399.174C399.11 74.8853 398.832 75.3333 398.342 75.664C397.862 75.9947 397.238 76.16 396.47 76.16ZM396.822 75.024C397.504 75.024 398.064 74.8533 398.502 74.512C398.939 74.1707 399.158 73.7333 399.158 73.2V71.952H396.47C395.99 71.952 395.611 72.0853 395.334 72.352C395.056 72.6187 394.918 72.9813 394.918 73.44C394.918 73.9307 395.083 74.32 395.414 74.608C395.755 74.8853 396.224 75.024 396.822 75.024ZM407.791 76C407.066 76 406.485 75.792 406.047 75.376C405.61 74.9493 405.391 74.384 405.391 73.68V68.512H402.911V67.2H405.391V64.72H406.831V67.2H410.351V68.512H406.831V73.68C406.831 73.9787 406.917 74.224 407.087 74.416C407.269 74.5973 407.503 74.688 407.791 74.688H410.191V76H407.791ZM413.097 76V64.32H414.537V68.88H414.553C414.628 68.2933 414.868 67.84 415.273 67.52C415.678 67.2 416.217 67.04 416.889 67.04C417.774 67.04 418.478 67.312 419.001 67.856C419.524 68.4 419.785 69.1413 419.785 70.08V76H418.345V70.24C418.345 69.6107 418.174 69.1253 417.833 68.784C417.502 68.432 417.049 68.256 416.473 68.256C415.876 68.256 415.401 68.4427 415.049 68.816C414.708 69.1893 414.537 69.7173 414.537 70.4V76H413.097ZM426.083 76.16C425.016 76.16 424.173 75.8613 423.555 75.264C422.936 74.6667 422.627 73.8453 422.627 72.8V67.52C422.627 66.4747 422.936 65.6533 423.555 65.056C424.173 64.4587 425.016 64.16 426.083 64.16C427.128 64.16 427.96 64.464 428.579 65.072C429.197 65.6693 429.507 66.4853 429.507 67.52H428.067C428.067 66.8587 427.891 66.352 427.539 66C427.197 65.6373 426.712 65.456 426.083 65.456C425.453 65.456 424.957 65.632 424.595 65.984C424.243 66.336 424.067 66.8427 424.067 67.504V72.8C424.067 73.4613 424.243 73.9733 424.595 74.336C424.957 74.688 425.453 74.864 426.083 74.864C426.712 74.864 427.197 74.688 427.539 74.336C427.891 73.9733 428.067 73.4613 428.067 72.8H429.507C429.507 73.8347 429.197 74.656 428.579 75.264C427.96 75.8613 427.128 76.16 426.083 76.16ZM435.613 76.128C434.546 76.128 433.703 75.8293 433.085 75.232C432.477 74.624 432.173 73.8027 432.173 72.768V70.432C432.173 69.3867 432.477 68.5653 433.085 67.968C433.703 67.3707 434.546 67.072 435.613 67.072C436.679 67.072 437.517 67.3707 438.125 67.968C438.743 68.5653 439.053 69.3813 439.053 70.416V72.768C439.053 73.8027 438.743 74.624 438.125 75.232C437.517 75.8293 436.679 76.128 435.613 76.128ZM435.613 74.848C436.242 74.848 436.733 74.672 437.085 74.32C437.437 73.968 437.613 73.4507 437.613 72.768V70.432C437.613 69.7493 437.437 69.232 437.085 68.88C436.733 68.528 436.242 68.352 435.613 68.352C434.994 68.352 434.503 68.528 434.141 68.88C433.789 69.232 433.613 69.7493 433.613 70.432V72.768C433.613 73.4507 433.789 73.968 434.141 74.32C434.503 74.672 434.994 74.848 435.613 74.848ZM445.19 76.16C444.177 76.16 443.366 75.8613 442.758 75.264C442.15 74.656 441.846 73.8347 441.846 72.8V67.2H443.286V72.8C443.286 73.4613 443.457 73.9787 443.798 74.352C444.14 74.7147 444.604 74.896 445.19 74.896C445.788 74.896 446.257 74.7147 446.598 74.352C446.95 73.9787 447.126 73.4613 447.126 72.8V67.2H448.566V72.8C448.566 73.8347 448.257 74.656 447.638 75.264C447.02 75.8613 446.204 76.16 445.19 76.16ZM451.472 76V67.2H452.912V68.88H452.928C453.003 68.2933 453.243 67.84 453.648 67.52C454.053 67.2 454.592 67.04 455.264 67.04C456.149 67.04 456.853 67.312 457.376 67.856C457.899 68.4 458.16 69.1413 458.16 70.08V76H456.72V70.24C456.72 69.6107 456.549 69.1307 456.208 68.8C455.877 68.4587 455.424 68.288 454.848 68.288C454.251 68.288 453.776 68.4693 453.424 68.832C453.083 69.1947 452.912 69.7173 452.912 70.4V76H451.472ZM465.354 76C464.628 76 464.047 75.792 463.61 75.376C463.172 74.9493 462.954 74.384 462.954 73.68V68.512H460.474V67.2H462.954V64.72H464.394V67.2H467.914V68.512H464.394V73.68C464.394 73.9787 464.479 74.224 464.65 74.416C464.831 74.5973 465.066 74.688 465.354 74.688H467.754V76H465.354ZM473.988 76.16C473.294 76.16 472.686 76.0213 472.164 75.744C471.652 75.4667 471.252 75.0773 470.964 74.576C470.686 74.064 470.548 73.472 470.548 72.8V70.4C470.548 69.7173 470.686 69.1253 470.964 68.624C471.252 68.1227 471.652 67.7333 472.164 67.456C472.686 67.1787 473.294 67.04 473.988 67.04C474.681 67.04 475.284 67.1787 475.796 67.456C476.318 67.7333 476.718 68.1227 476.996 68.624C477.284 69.1253 477.428 69.7173 477.428 70.4V71.952H471.956V72.8C471.956 73.4933 472.132 74.0267 472.484 74.4C472.836 74.7627 473.337 74.944 473.988 74.944C474.542 74.944 474.99 74.848 475.332 74.656C475.673 74.4533 475.881 74.1547 475.956 73.76H477.396C477.3 74.496 476.937 75.0827 476.308 75.52C475.689 75.9467 474.916 76.16 473.988 76.16ZM471.956 70.864H476.02V70.4C476.02 69.7067 475.844 69.1733 475.492 68.8C475.15 68.4267 474.649 68.24 473.988 68.24C473.337 68.24 472.836 68.4267 472.484 68.8C472.132 69.1733 471.956 69.7067 471.956 70.4V70.864ZM480.525 76V67.2H481.965V68.88H481.981C482.056 68.2933 482.296 67.84 482.701 67.52C483.107 67.2 483.645 67.04 484.317 67.04C485.235 67.04 485.965 67.3333 486.509 67.92C487.053 68.496 487.325 69.28 487.325 70.272V70.88H485.885V70.4C485.885 69.728 485.715 69.2107 485.373 68.848C485.032 68.4747 484.536 68.288 483.885 68.288C482.605 68.288 481.965 68.992 481.965 70.4V76H480.525Z" fill="#FFAA00"/>
<path d="M499.329 69.44V68.16H506.209V69.44H499.329ZM499.329 73.28V72H506.209V73.28H499.329ZM521.924 76.16C520.975 76.16 520.196 75.9147 519.588 75.424C518.98 74.9333 518.623 74.272 518.516 73.44H519.956C520.01 73.8987 520.207 74.256 520.548 74.512C520.89 74.7573 521.354 74.88 521.94 74.88C522.612 74.88 523.114 74.6987 523.444 74.336C523.786 73.9733 523.956 73.4613 523.956 72.8V71.664C523.956 71.0027 523.786 70.4907 523.444 70.128C523.114 69.7653 522.618 69.584 521.956 69.584C521.54 69.584 521.178 69.696 520.868 69.92C520.559 70.1333 520.335 70.4213 520.196 70.784H518.756L518.836 64.32H524.98V65.632H520.228L520.18 69.52H520.244C520.34 69.1467 520.575 68.8533 520.948 68.64C521.332 68.4267 521.812 68.32 522.388 68.32C523.338 68.3093 524.074 68.6027 524.596 69.2C525.13 69.7867 525.396 70.608 525.396 71.664V72.8C525.396 73.8347 525.092 74.656 524.484 75.264C523.876 75.8613 523.023 76.16 521.924 76.16Z" fill="#F8F8FA"/>
<rect width="548" height="41" transform="translate(176 205)" fill="#333333"/>
<path d="M187.132 231V222.2H188.396V223.256H188.492C188.567 222.893 188.732 222.6 188.988 222.376C189.255 222.152 189.58 222.04 189.964 222.04C190.316 222.04 190.62 222.152 190.876 222.376C191.132 222.589 191.313 222.883 191.42 223.256H191.516C191.591 222.893 191.761 222.6 192.028 222.376C192.295 222.152 192.625 222.04 193.02 222.04C193.553 222.04 193.985 222.253 194.316 222.68C194.647 223.096 194.812 223.64 194.812 224.312V231H193.484V224.296C193.484 223.923 193.399 223.64 193.228 223.448C193.068 223.245 192.833 223.144 192.524 223.144C192.215 223.144 191.975 223.245 191.804 223.448C191.633 223.64 191.548 223.917 191.548 224.28V231H190.396V224.296C190.396 223.923 190.305 223.64 190.124 223.448C189.953 223.245 189.713 223.144 189.404 223.144C189.105 223.144 188.871 223.245 188.7 223.448C188.54 223.64 188.46 223.917 188.46 224.28V231H187.132ZM200.566 231.16C199.872 231.16 199.264 231.021 198.742 230.744C198.23 230.467 197.83 230.077 197.542 229.576C197.264 229.064 197.126 228.472 197.126 227.8V225.4C197.126 224.717 197.264 224.125 197.542 223.624C197.83 223.123 198.23 222.733 198.742 222.456C199.264 222.179 199.872 222.04 200.566 222.04C201.259 222.04 201.862 222.179 202.374 222.456C202.896 222.733 203.296 223.123 203.574 223.624C203.862 224.125 204.006 224.717 204.006 225.4V226.952H198.534V227.8C198.534 228.493 198.71 229.027 199.062 229.4C199.414 229.763 199.915 229.944 200.566 229.944C201.12 229.944 201.568 229.848 201.91 229.656C202.251 229.453 202.459 229.155 202.534 228.76H203.974C203.878 229.496 203.515 230.083 202.886 230.52C202.267 230.947 201.494 231.16 200.566 231.16ZM198.534 225.864H202.598V225.4C202.598 224.707 202.422 224.173 202.07 223.8C201.728 223.427 201.227 223.24 200.566 223.24C199.915 223.24 199.414 223.427 199.062 223.8C198.71 224.173 198.534 224.707 198.534 225.4V225.864ZM209.887 231.128C208.981 231.128 208.239 230.92 207.663 230.504C207.087 230.088 206.799 229.517 206.799 228.792H208.271C208.271 229.123 208.426 229.384 208.735 229.576C209.055 229.757 209.45 229.848 209.919 229.848H210.591C211.157 229.848 211.578 229.736 211.855 229.512C212.133 229.277 212.271 228.968 212.271 228.584C212.271 228.211 212.138 227.917 211.871 227.704C211.615 227.48 211.242 227.331 210.751 227.256L209.567 227.064C208.693 226.915 208.047 226.637 207.631 226.232C207.215 225.827 207.007 225.267 207.007 224.552C207.007 223.752 207.263 223.139 207.775 222.712C208.298 222.285 209.045 222.072 210.015 222.072H210.623C211.519 222.072 212.234 222.275 212.767 222.68C213.311 223.075 213.583 223.603 213.583 224.264H212.111C212.111 223.987 211.973 223.768 211.695 223.608C211.429 223.437 211.061 223.352 210.591 223.352H209.983C209.482 223.352 209.093 223.459 208.815 223.672C208.549 223.875 208.415 224.168 208.415 224.552C208.415 225.192 208.869 225.587 209.775 225.736L210.959 225.928C211.909 226.077 212.597 226.355 213.023 226.76C213.461 227.165 213.679 227.752 213.679 228.52C213.679 229.331 213.418 229.971 212.895 230.44C212.383 230.899 211.605 231.128 210.559 231.128H209.887ZM219.481 231.128C218.574 231.128 217.833 230.92 217.257 230.504C216.681 230.088 216.393 229.517 216.393 228.792H217.865C217.865 229.123 218.02 229.384 218.329 229.576C218.649 229.757 219.044 229.848 219.513 229.848H220.185C220.75 229.848 221.172 229.736 221.449 229.512C221.726 229.277 221.865 228.968 221.865 228.584C221.865 228.211 221.732 227.917 221.465 227.704C221.209 227.48 220.836 227.331 220.345 227.256L219.161 227.064C218.286 226.915 217.641 226.637 217.225 226.232C216.809 225.827 216.601 225.267 216.601 224.552C216.601 223.752 216.857 223.139 217.369 222.712C217.892 222.285 218.638 222.072 219.609 222.072H220.217C221.113 222.072 221.828 222.275 222.361 222.68C222.905 223.075 223.177 223.603 223.177 224.264H221.705C221.705 223.987 221.566 223.768 221.289 223.608C221.022 223.437 220.654 223.352 220.185 223.352H219.577C219.076 223.352 218.686 223.459 218.409 223.672C218.142 223.875 218.009 224.168 218.009 224.552C218.009 225.192 218.462 225.587 219.369 225.736L220.553 225.928C221.502 226.077 222.19 226.355 222.617 226.76C223.054 227.165 223.273 227.752 223.273 228.52C223.273 229.331 223.012 229.971 222.489 230.44C221.977 230.899 221.198 231.128 220.153 231.128H219.481ZM228.579 231.16C227.651 231.16 226.92 230.925 226.387 230.456C225.854 229.976 225.587 229.331 225.587 228.52C225.587 227.699 225.854 227.053 226.387 226.584C226.92 226.115 227.64 225.88 228.547 225.88H231.267V225C231.267 224.467 231.102 224.051 230.771 223.752C230.451 223.453 230.003 223.304 229.427 223.304C228.915 223.304 228.483 223.416 228.131 223.64C227.779 223.864 227.56 224.157 227.475 224.52H226.035C226.088 224.029 226.264 223.597 226.563 223.224C226.872 222.851 227.272 222.563 227.763 222.36C228.264 222.147 228.819 222.04 229.427 222.04C230.44 222.04 231.24 222.301 231.827 222.824C232.414 223.347 232.707 224.056 232.707 224.952V231H231.299V229.32H231.283C231.219 229.885 230.942 230.333 230.451 230.664C229.971 230.995 229.347 231.16 228.579 231.16ZM228.931 230.024C229.614 230.024 230.174 229.853 230.611 229.512C231.048 229.171 231.267 228.733 231.267 228.2V226.952H228.579C228.099 226.952 227.72 227.085 227.443 227.352C227.166 227.619 227.027 227.981 227.027 228.44C227.027 228.931 227.192 229.32 227.523 229.608C227.864 229.885 228.334 230.024 228.931 230.024ZM236.717 233.88V232.568H239.517C240.381 232.568 240.813 232.152 240.813 231.32V230.2L240.845 228.6H240.813C240.759 229.165 240.519 229.613 240.093 229.944C239.677 230.275 239.138 230.44 238.477 230.44C237.57 230.44 236.855 230.147 236.333 229.56C235.81 228.963 235.549 228.163 235.549 227.16V225.304C235.549 224.301 235.81 223.507 236.333 222.92C236.855 222.333 237.57 222.04 238.477 222.04C239.138 222.04 239.677 222.205 240.093 222.536C240.519 222.867 240.759 223.315 240.813 223.88H240.829V222.2H242.253V231.32C242.253 232.109 242.007 232.733 241.517 233.192C241.037 233.651 240.365 233.88 239.501 233.88H236.717ZM238.909 229.192C239.506 229.192 239.975 229.005 240.317 228.632C240.658 228.259 240.829 227.741 240.829 227.08V225.4C240.829 224.739 240.658 224.221 240.317 223.848C239.975 223.475 239.506 223.288 238.909 223.288C238.301 223.288 237.826 223.469 237.485 223.832C237.154 224.195 236.989 224.717 236.989 225.4V227.08C236.989 227.763 237.154 228.285 237.485 228.648C237.826 229.011 238.301 229.192 238.909 229.192ZM248.534 231.16C247.841 231.16 247.233 231.021 246.71 230.744C246.198 230.467 245.798 230.077 245.51 229.576C245.233 229.064 245.094 228.472 245.094 227.8V225.4C245.094 224.717 245.233 224.125 245.51 223.624C245.798 223.123 246.198 222.733 246.71 222.456C247.233 222.179 247.841 222.04 248.534 222.04C249.228 222.04 249.83 222.179 250.342 222.456C250.865 222.733 251.265 223.123 251.542 223.624C251.83 224.125 251.974 224.717 251.974 225.4V226.952H246.502V227.8C246.502 228.493 246.678 229.027 247.03 229.4C247.382 229.763 247.884 229.944 248.534 229.944C249.089 229.944 249.537 229.848 249.878 229.656C250.22 229.453 250.428 229.155 250.502 228.76H251.942C251.846 229.496 251.484 230.083 250.854 230.52C250.236 230.947 249.462 231.16 248.534 231.16ZM246.502 225.864H250.566V225.4C250.566 224.707 250.39 224.173 250.038 223.8C249.697 223.427 249.196 223.24 248.534 223.24C247.884 223.24 247.382 223.427 247.03 223.8C246.678 224.173 246.502 224.707 246.502 225.4V225.864ZM264.282 224.44V223.16H271.162V224.44H264.282ZM264.282 228.28V227H271.162V228.28H264.282ZM286.989 223.56L289.069 218.584H290.349L289.069 223.56H286.989ZM283.309 223.56L285.389 218.584H286.669L285.389 223.56H283.309ZM295.783 231V226.632L292.263 219.32H293.751L296.071 224.12C296.199 224.387 296.3 224.616 296.375 224.808C296.45 224.989 296.498 225.123 296.519 225.208C296.54 225.123 296.588 224.989 296.663 224.808C296.748 224.616 296.855 224.387 296.983 224.12L299.255 219.32H300.743L297.223 226.632V231H295.783ZM306.097 231.128C305.03 231.128 304.188 230.829 303.569 230.232C302.961 229.624 302.657 228.803 302.657 227.768V225.432C302.657 224.387 302.961 223.565 303.569 222.968C304.188 222.371 305.03 222.072 306.097 222.072C307.164 222.072 308.001 222.371 308.609 222.968C309.228 223.565 309.537 224.381 309.537 225.416V227.768C309.537 228.803 309.228 229.624 308.609 230.232C308.001 230.829 307.164 231.128 306.097 231.128ZM306.097 229.848C306.726 229.848 307.217 229.672 307.569 229.32C307.921 228.968 308.097 228.451 308.097 227.768V225.432C308.097 224.749 307.921 224.232 307.569 223.88C307.217 223.528 306.726 223.352 306.097 223.352C305.478 223.352 304.988 223.528 304.625 223.88C304.273 224.232 304.097 224.749 304.097 225.432V227.768C304.097 228.451 304.273 228.968 304.625 229.32C304.988 229.672 305.478 229.848 306.097 229.848ZM315.675 231.16C314.661 231.16 313.851 230.861 313.243 230.264C312.635 229.656 312.331 228.835 312.331 227.8V222.2H313.771V227.8C313.771 228.461 313.941 228.979 314.283 229.352C314.624 229.715 315.088 229.896 315.675 229.896C316.272 229.896 316.741 229.715 317.083 229.352C317.435 228.979 317.611 228.461 317.611 227.8V222.2H319.051V227.8C319.051 228.835 318.741 229.656 318.123 230.264C317.504 230.861 316.688 231.16 315.675 231.16ZM331.55 231V219.32H332.99V223.88H333.006C333.081 223.293 333.321 222.84 333.726 222.52C334.131 222.2 334.67 222.04 335.342 222.04C336.227 222.04 336.931 222.312 337.454 222.856C337.977 223.4 338.238 224.141 338.238 225.08V231H336.798V225.24C336.798 224.611 336.627 224.125 336.286 223.784C335.955 223.432 335.502 223.256 334.926 223.256C334.329 223.256 333.854 223.443 333.502 223.816C333.161 224.189 332.99 224.717 332.99 225.4V231H331.55ZM343.704 231.16C342.776 231.16 342.045 230.925 341.512 230.456C340.979 229.976 340.712 229.331 340.712 228.52C340.712 227.699 340.979 227.053 341.512 226.584C342.045 226.115 342.765 225.88 343.672 225.88H346.392V225C346.392 224.467 346.227 224.051 345.896 223.752C345.576 223.453 345.128 223.304 344.552 223.304C344.04 223.304 343.608 223.416 343.256 223.64C342.904 223.864 342.685 224.157 342.6 224.52H341.16C341.213 224.029 341.389 223.597 341.688 223.224C341.997 222.851 342.397 222.563 342.888 222.36C343.389 222.147 343.944 222.04 344.552 222.04C345.565 222.04 346.365 222.301 346.952 222.824C347.539 223.347 347.832 224.056 347.832 224.952V231H346.424V229.32H346.408C346.344 229.885 346.067 230.333 345.576 230.664C345.096 230.995 344.472 231.16 343.704 231.16ZM344.056 230.024C344.739 230.024 345.299 229.853 345.736 229.512C346.173 229.171 346.392 228.733 346.392 228.2V226.952H343.704C343.224 226.952 342.845 227.085 342.568 227.352C342.291 227.619 342.152 227.981 342.152 228.44C342.152 228.931 342.317 229.32 342.648 229.608C342.989 229.885 343.459 230.024 344.056 230.024ZM353.122 231L350.066 222.2H351.554L353.602 228.12C353.719 228.472 353.82 228.813 353.906 229.144C353.991 229.464 354.055 229.715 354.098 229.896C354.151 229.715 354.215 229.464 354.29 229.144C354.364 228.813 354.46 228.472 354.578 228.12L356.562 222.2H358.066L355.01 231H353.122ZM363.659 231.16C362.966 231.16 362.358 231.021 361.835 230.744C361.323 230.467 360.923 230.077 360.635 229.576C360.358 229.064 360.219 228.472 360.219 227.8V225.4C360.219 224.717 360.358 224.125 360.635 223.624C360.923 223.123 361.323 222.733 361.835 222.456C362.358 222.179 362.966 222.04 363.659 222.04C364.353 222.04 364.955 222.179 365.467 222.456C365.99 222.733 366.39 223.123 366.667 223.624C366.955 224.125 367.099 224.717 367.099 225.4V226.952H361.627V227.8C361.627 228.493 361.803 229.027 362.155 229.4C362.507 229.763 363.009 229.944 363.659 229.944C364.214 229.944 364.662 229.848 365.003 229.656C365.345 229.453 365.553 229.155 365.627 228.76H367.067C366.971 229.496 366.609 230.083 365.979 230.52C365.361 230.947 364.587 231.16 363.659 231.16ZM361.627 225.864H365.691V225.4C365.691 224.707 365.515 224.173 365.163 223.8C364.822 223.427 364.321 223.24 363.659 223.24C363.009 223.24 362.507 223.427 362.155 223.8C361.803 224.173 361.627 224.707 361.627 225.4V225.864ZM382.335 231.16C381.46 231.16 380.751 230.867 380.207 230.28C379.674 229.693 379.407 228.899 379.407 227.896V225.32C379.407 224.307 379.674 223.507 380.207 222.92C380.74 222.333 381.45 222.04 382.335 222.04C382.996 222.04 383.54 222.205 383.967 222.536C384.394 222.867 384.644 223.315 384.719 223.88H384.767L384.735 221.88V219.32H386.175V231H384.735V229.32H384.719C384.644 229.896 384.394 230.349 383.967 230.68C383.54 231 382.996 231.16 382.335 231.16ZM382.815 229.912C383.412 229.912 383.882 229.725 384.223 229.352C384.564 228.979 384.735 228.461 384.735 227.8V225.4C384.735 224.739 384.564 224.221 384.223 223.848C383.882 223.475 383.412 223.288 382.815 223.288C382.207 223.288 381.727 223.469 381.375 223.832C381.023 224.195 380.847 224.717 380.847 225.4V227.8C380.847 228.483 381.023 229.005 381.375 229.368C381.727 229.731 382.207 229.912 382.815 229.912ZM389.001 231V229.688H392.121V223.512H389.321V222.2H393.561V229.688H396.521V231H389.001ZM392.681 220.616C392.329 220.616 392.051 220.525 391.849 220.344C391.646 220.163 391.545 219.917 391.545 219.608C391.545 219.288 391.646 219.037 391.849 218.856C392.051 218.664 392.329 218.568 392.681 218.568C393.033 218.568 393.31 218.664 393.513 218.856C393.715 219.037 393.817 219.288 393.817 219.608C393.817 219.917 393.715 220.163 393.513 220.344C393.31 220.525 393.033 220.616 392.681 220.616ZM402.034 231.16C401.341 231.16 400.733 231.021 400.21 230.744C399.698 230.467 399.298 230.077 399.01 229.576C398.733 229.064 398.594 228.472 398.594 227.8V225.4C398.594 224.717 398.733 224.125 399.01 223.624C399.298 223.123 399.698 222.733 400.21 222.456C400.733 222.179 401.341 222.04 402.034 222.04C402.728 222.04 403.33 222.179 403.842 222.456C404.365 222.733 404.765 223.123 405.042 223.624C405.33 224.125 405.474 224.717 405.474 225.4V226.952H400.002V227.8C400.002 228.493 400.178 229.027 400.53 229.4C400.882 229.763 401.384 229.944 402.034 229.944C402.589 229.944 403.037 229.848 403.378 229.656C403.72 229.453 403.928 229.155 404.002 228.76H405.442C405.346 229.496 404.984 230.083 404.354 230.52C403.736 230.947 402.962 231.16 402.034 231.16ZM400.002 225.864H404.066V225.4C404.066 224.707 403.89 224.173 403.538 223.8C403.197 223.427 402.696 223.24 402.034 223.24C401.384 223.24 400.882 223.427 400.53 223.8C400.178 224.173 400.002 224.707 400.002 225.4V225.864ZM411.116 231.16C410.241 231.16 409.532 230.867 408.988 230.28C408.455 229.693 408.188 228.899 408.188 227.896V225.32C408.188 224.307 408.455 223.507 408.988 222.92C409.521 222.333 410.231 222.04 411.116 222.04C411.777 222.04 412.321 222.205 412.748 222.536C413.175 222.867 413.425 223.315 413.5 223.88H413.548L413.516 221.88V219.32H414.956V231H413.516V229.32H413.5C413.425 229.896 413.175 230.349 412.748 230.68C412.321 231 411.777 231.16 411.116 231.16ZM411.596 229.912C412.193 229.912 412.663 229.725 413.004 229.352C413.345 228.979 413.516 228.461 413.516 227.8V225.4C413.516 224.739 413.345 224.221 413.004 223.848C412.663 223.475 412.193 223.288 411.596 223.288C410.988 223.288 410.508 223.469 410.156 223.832C409.804 224.195 409.628 224.717 409.628 225.4V227.8C409.628 228.483 409.804 229.005 410.156 229.368C410.508 229.731 410.988 229.912 411.596 229.912ZM431.056 223.56L432.336 218.584H434.416L432.336 223.56H431.056ZM427.376 223.56L428.656 218.584H430.736L428.656 223.56H427.376ZM451.309 231.16C450.904 231.16 450.584 231.043 450.349 230.808C450.104 230.573 449.981 230.259 449.981 229.864C449.981 229.448 450.104 229.117 450.349 228.872C450.584 228.627 450.904 228.504 451.309 228.504C451.714 228.504 452.04 228.627 452.285 228.872C452.52 229.117 452.637 229.448 452.637 229.864C452.637 230.259 452.52 230.573 452.285 230.808C452.04 231.043 451.714 231.16 451.309 231.16ZM458.317 231.16C457.912 231.16 457.586 231.043 457.341 230.808C457.106 230.573 456.989 230.259 456.989 229.864C456.989 229.448 457.106 229.117 457.341 228.872C457.586 228.627 457.912 228.504 458.317 228.504C458.722 228.504 459.042 228.627 459.277 228.872C459.522 229.117 459.645 229.448 459.645 229.864C459.645 230.259 459.522 230.573 459.277 230.808C459.042 231.043 458.722 231.16 458.317 231.16ZM604.809 231.16C604.404 231.16 604.084 231.043 603.849 230.808C603.604 230.573 603.481 230.259 603.481 229.864C603.481 229.448 603.604 229.117 603.849 228.872C604.084 228.627 604.404 228.504 604.809 228.504C605.214 228.504 605.54 228.627 605.785 228.872C606.02 229.117 606.137 229.448 606.137 229.864C606.137 230.259 606.02 230.573 605.785 230.808C605.54 231.043 605.214 231.16 604.809 231.16ZM611.817 231.16C611.412 231.16 611.086 231.043 610.841 230.808C610.606 230.573 610.489 230.259 610.489 229.864C610.489 229.448 610.606 229.117 610.841 228.872C611.086 228.627 611.412 228.504 611.817 228.504C612.222 228.504 612.542 228.627 612.777 228.872C613.022 229.117 613.145 229.448 613.145 229.864C613.145 230.259 613.022 230.573 612.777 230.808C612.542 231.043 612.222 231.16 611.817 231.16ZM632.364 223.56L634.444 218.584H635.724L634.444 223.56H632.364ZM628.684 223.56L630.764 218.584H632.044L630.764 223.56H628.684ZM652.432 231C651.707 231 651.125 230.792 650.688 230.376C650.251 229.949 650.032 229.384 650.032 228.68V223.512H647.552V222.2H650.032V219.72H651.472V222.2H654.992V223.512H651.472V228.68C651.472 228.979 651.557 229.224 651.728 229.416C651.909 229.597 652.144 229.688 652.432 229.688H654.832V231H652.432ZM657.626 231V229.688H660.746V223.512H657.946V222.2H662.186V229.688H665.146V231H657.626ZM661.306 220.616C660.954 220.616 660.676 220.525 660.474 220.344C660.271 220.163 660.17 219.917 660.17 219.608C660.17 219.288 660.271 219.037 660.474 218.856C660.676 218.664 660.954 218.568 661.306 218.568C661.658 218.568 661.935 218.664 662.138 218.856C662.34 219.037 662.442 219.288 662.442 219.608C662.442 219.917 662.34 220.163 662.138 220.344C661.935 220.525 661.658 220.616 661.306 220.616ZM666.819 231V222.2H668.083V223.256H668.179C668.254 222.893 668.419 222.6 668.675 222.376C668.942 222.152 669.267 222.04 669.651 222.04C670.003 222.04 670.307 222.152 670.563 222.376C670.819 222.589 671.001 222.883 671.107 223.256H671.203C671.278 222.893 671.449 222.6 671.715 222.376C671.982 222.152 672.313 222.04 672.707 222.04C673.241 222.04 673.673 222.253 674.003 222.68C674.334 223.096 674.499 223.64 674.499 224.312V231H673.171V224.296C673.171 223.923 673.086 223.64 672.915 223.448C672.755 223.245 672.521 223.144 672.211 223.144C671.902 223.144 671.662 223.245 671.491 223.448C671.321 223.64 671.235 223.917 671.235 224.28V231H670.083V224.296C670.083 223.923 669.993 223.64 669.811 223.448C669.641 223.245 669.401 223.144 669.091 223.144C668.793 223.144 668.558 223.245 668.387 223.448C668.227 223.64 668.147 223.917 668.147 224.28V231H666.819ZM680.253 231.16C679.56 231.16 678.952 231.021 678.429 230.744C677.917 230.467 677.517 230.077 677.229 229.576C676.952 229.064 676.813 228.472 676.813 227.8V225.4C676.813 224.717 676.952 224.125 677.229 223.624C677.517 223.123 677.917 222.733 678.429 222.456C678.952 222.179 679.56 222.04 680.253 222.04C680.946 222.04 681.549 222.179 682.061 222.456C682.584 222.733 682.984 223.123 683.261 223.624C683.549 224.125 683.693 224.717 683.693 225.4V226.952H678.221V227.8C678.221 228.493 678.397 229.027 678.749 229.4C679.101 229.763 679.602 229.944 680.253 229.944C680.808 229.944 681.256 229.848 681.597 229.656C681.938 229.453 682.146 229.155 682.221 228.76H683.661C683.565 229.496 683.202 230.083 682.573 230.52C681.954 230.947 681.181 231.16 680.253 231.16ZM678.221 225.864H682.285V225.4C682.285 224.707 682.109 224.173 681.757 223.8C681.416 223.427 680.914 223.24 680.253 223.24C679.602 223.24 679.101 223.427 678.749 223.8C678.397 224.173 678.221 224.707 678.221 225.4V225.864ZM689.575 231.128C688.668 231.128 687.927 230.92 687.351 230.504C686.775 230.088 686.487 229.517 686.487 228.792H687.959C687.959 229.123 688.114 229.384 688.423 229.576C688.743 229.757 689.138 229.848 689.607 229.848H690.279C690.844 229.848 691.266 229.736 691.543 229.512C691.82 229.277 691.959 228.968 691.959 228.584C691.959 228.211 691.826 227.917 691.559 227.704C691.303 227.48 690.93 227.331 690.439 227.256L689.255 227.064C688.38 226.915 687.735 226.637 687.319 226.232C686.903 225.827 686.695 225.267 686.695 224.552C686.695 223.752 686.951 223.139 687.463 222.712C687.986 222.285 688.732 222.072 689.703 222.072H690.311C691.207 222.072 691.922 222.275 692.455 222.68C692.999 223.075 693.271 223.603 693.271 224.264H691.799C691.799 223.987 691.66 223.768 691.383 223.608C691.116 223.437 690.748 223.352 690.279 223.352H689.671C689.17 223.352 688.78 223.459 688.503 223.672C688.236 223.875 688.103 224.168 688.103 224.552C688.103 225.192 688.556 225.587 689.463 225.736L690.647 225.928C691.596 226.077 692.284 226.355 692.711 226.76C693.148 227.165 693.367 227.752 693.367 228.52C693.367 229.331 693.106 229.971 692.583 230.44C692.071 230.899 691.292 231.128 690.247 231.128H689.575ZM699.441 231.16C699.035 231.16 698.71 231.043 698.465 230.808C698.23 230.573 698.113 230.259 698.113 229.864C698.113 229.448 698.23 229.117 698.465 228.872C698.71 228.627 699.035 228.504 699.441 228.504C699.846 228.504 700.166 228.627 700.401 228.872C700.646 229.117 700.769 229.448 700.769 229.864C700.769 230.259 700.646 230.573 700.401 230.808C700.166 231.043 699.846 231.16 699.441 231.16ZM709.274 223.56L710.554 218.584H712.634L710.554 223.56H709.274ZM705.594 223.56L706.874 218.584H708.954L706.874 223.56H705.594Z" fill="#F8F8FA"/>
<path d="M478.272 231.16C477.398 231.16 476.688 230.867 476.144 230.28C475.611 229.693 475.344 228.899 475.344 227.896V225.32C475.344 224.307 475.611 223.507 476.144 222.92C476.678 222.333 477.387 222.04 478.272 222.04C478.934 222.04 479.478 222.205 479.904 222.536C480.331 222.867 480.582 223.315 480.656 223.88H480.704L480.672 221.88V219.32H482.112V231H480.672V229.32H480.656C480.582 229.896 480.331 230.349 479.904 230.68C479.478 231 478.934 231.16 478.272 231.16ZM478.752 229.912C479.35 229.912 479.819 229.725 480.16 229.352C480.502 228.979 480.672 228.461 480.672 227.8V225.4C480.672 224.739 480.502 224.221 480.16 223.848C479.819 223.475 479.35 223.288 478.752 223.288C478.144 223.288 477.664 223.469 477.312 223.832C476.96 224.195 476.784 224.717 476.784 225.4V227.8C476.784 228.483 476.96 229.005 477.312 229.368C477.664 229.731 478.144 229.912 478.752 229.912ZM488.378 231.16C487.685 231.16 487.077 231.021 486.554 230.744C486.042 230.467 485.642 230.077 485.354 229.576C485.077 229.064 484.938 228.472 484.938 227.8V225.4C484.938 224.717 485.077 224.125 485.354 223.624C485.642 223.123 486.042 222.733 486.554 222.456C487.077 222.179 487.685 222.04 488.378 222.04C489.071 222.04 489.674 222.179 490.186 222.456C490.709 222.733 491.109 223.123 491.386 223.624C491.674 224.125 491.818 224.717 491.818 225.4V226.952H486.346V227.8C486.346 228.493 486.522 229.027 486.874 229.4C487.226 229.763 487.727 229.944 488.378 229.944C488.933 229.944 489.381 229.848 489.722 229.656C490.063 229.453 490.271 229.155 490.346 228.76H491.786C491.69 229.496 491.327 230.083 490.698 230.52C490.079 230.947 489.306 231.16 488.378 231.16ZM486.346 225.864H490.41V225.4C490.41 224.707 490.234 224.173 489.882 223.8C489.541 223.427 489.039 223.24 488.378 223.24C487.727 223.24 487.226 223.427 486.874 223.8C486.522 224.173 486.346 224.707 486.346 225.4V225.864ZM497.204 231.16C496.276 231.16 495.545 230.925 495.012 230.456C494.479 229.976 494.212 229.331 494.212 228.52C494.212 227.699 494.479 227.053 495.012 226.584C495.545 226.115 496.265 225.88 497.172 225.88H499.892V225C499.892 224.467 499.727 224.051 499.396 223.752C499.076 223.453 498.628 223.304 498.052 223.304C497.54 223.304 497.108 223.416 496.756 223.64C496.404 223.864 496.185 224.157 496.1 224.52H494.66C494.713 224.029 494.889 223.597 495.188 223.224C495.497 222.851 495.897 222.563 496.388 222.36C496.889 222.147 497.444 222.04 498.052 222.04C499.065 222.04 499.865 222.301 500.452 222.824C501.039 223.347 501.332 224.056 501.332 224.952V231H499.924V229.32H499.908C499.844 229.885 499.567 230.333 499.076 230.664C498.596 230.995 497.972 231.16 497.204 231.16ZM497.556 230.024C498.239 230.024 498.799 229.853 499.236 229.512C499.673 229.171 499.892 228.733 499.892 228.2V226.952H497.204C496.724 226.952 496.345 227.085 496.068 227.352C495.791 227.619 495.652 227.981 495.652 228.44C495.652 228.931 495.817 229.32 496.148 229.608C496.489 229.885 496.959 230.024 497.556 230.024ZM508.526 231C507.8 231 507.219 230.792 506.782 230.376C506.344 229.949 506.126 229.384 506.126 228.68V223.512H503.646V222.2H506.126V219.72H507.566V222.2H511.086V223.512H507.566V228.68C507.566 228.979 507.651 229.224 507.822 229.416C508.003 229.597 508.238 229.688 508.526 229.688H510.926V231H508.526ZM513.831 231V219.32H515.271V223.88H515.287C515.362 223.293 515.602 222.84 516.007 222.52C516.413 222.2 516.951 222.04 517.623 222.04C518.509 222.04 519.213 222.312 519.735 222.856C520.258 223.4 520.519 224.141 520.519 225.08V231H519.079V225.24C519.079 224.611 518.909 224.125 518.567 223.784C518.237 223.432 517.783 223.256 517.207 223.256C516.61 223.256 516.135 223.443 515.783 223.816C515.442 224.189 515.271 224.717 515.271 225.4V231H513.831ZM526.817 231.16C525.75 231.16 524.908 230.861 524.289 230.264C523.67 229.667 523.361 228.845 523.361 227.8V222.52C523.361 221.475 523.67 220.653 524.289 220.056C524.908 219.459 525.75 219.16 526.817 219.16C527.862 219.16 528.694 219.464 529.313 220.072C529.932 220.669 530.241 221.485 530.241 222.52H528.801C528.801 221.859 528.625 221.352 528.273 221C527.932 220.637 527.446 220.456 526.817 220.456C526.188 220.456 525.692 220.632 525.329 220.984C524.977 221.336 524.801 221.843 524.801 222.504V227.8C524.801 228.461 524.977 228.973 525.329 229.336C525.692 229.688 526.188 229.864 526.817 229.864C527.446 229.864 527.932 229.688 528.273 229.336C528.625 228.973 528.801 228.461 528.801 227.8H530.241C530.241 228.835 529.932 229.656 529.313 230.264C528.694 230.861 527.862 231.16 526.817 231.16ZM536.347 231.128C535.28 231.128 534.438 230.829 533.819 230.232C533.211 229.624 532.907 228.803 532.907 227.768V225.432C532.907 224.387 533.211 223.565 533.819 222.968C534.438 222.371 535.28 222.072 536.347 222.072C537.414 222.072 538.251 222.371 538.859 222.968C539.478 223.565 539.787 224.381 539.787 225.416V227.768C539.787 228.803 539.478 229.624 538.859 230.232C538.251 230.829 537.414 231.128 536.347 231.128ZM536.347 229.848C536.976 229.848 537.467 229.672 537.819 229.32C538.171 228.968 538.347 228.451 538.347 227.768V225.432C538.347 224.749 538.171 224.232 537.819 223.88C537.467 223.528 536.976 223.352 536.347 223.352C535.728 223.352 535.238 223.528 534.875 223.88C534.523 224.232 534.347 224.749 534.347 225.432V227.768C534.347 228.451 534.523 228.968 534.875 229.32C535.238 229.672 535.728 229.848 536.347 229.848ZM545.925 231.16C544.911 231.16 544.101 230.861 543.493 230.264C542.885 229.656 542.581 228.835 542.581 227.8V222.2H544.021V227.8C544.021 228.461 544.191 228.979 544.533 229.352C544.874 229.715 545.338 229.896 545.925 229.896C546.522 229.896 546.991 229.715 547.333 229.352C547.685 228.979 547.861 228.461 547.861 227.8V222.2H549.301V227.8C549.301 228.835 548.991 229.656 548.373 230.264C547.754 230.861 546.938 231.16 545.925 231.16ZM552.206 231V222.2H553.646V223.88H553.662C553.737 223.293 553.977 222.84 554.382 222.52C554.788 222.2 555.326 222.04 555.998 222.04C556.884 222.04 557.588 222.312 558.11 222.856C558.633 223.4 558.894 224.141 558.894 225.08V231H557.454V225.24C557.454 224.611 557.284 224.131 556.942 223.8C556.612 223.459 556.158 223.288 555.582 223.288C554.985 223.288 554.51 223.469 554.158 223.832C553.817 224.195 553.646 224.717 553.646 225.4V231H552.206ZM566.088 231C565.363 231 564.781 230.792 564.344 230.376C563.907 229.949 563.688 229.384 563.688 228.68V223.512H561.208V222.2H563.688V219.72H565.128V222.2H568.648V223.512H565.128V228.68C565.128 228.979 565.213 229.224 565.384 229.416C565.565 229.597 565.8 229.688 566.088 229.688H568.488V231H566.088ZM574.722 231.16C574.029 231.16 573.421 231.021 572.898 230.744C572.386 230.467 571.986 230.077 571.698 229.576C571.421 229.064 571.282 228.472 571.282 227.8V225.4C571.282 224.717 571.421 224.125 571.698 223.624C571.986 223.123 572.386 222.733 572.898 222.456C573.421 222.179 574.029 222.04 574.722 222.04C575.415 222.04 576.018 222.179 576.53 222.456C577.053 222.733 577.453 223.123 577.73 223.624C578.018 224.125 578.162 224.717 578.162 225.4V226.952H572.69V227.8C572.69 228.493 572.866 229.027 573.218 229.4C573.57 229.763 574.071 229.944 574.722 229.944C575.277 229.944 575.725 229.848 576.066 229.656C576.407 229.453 576.615 229.155 576.69 228.76H578.13C578.034 229.496 577.671 230.083 577.042 230.52C576.423 230.947 575.65 231.16 574.722 231.16ZM572.69 225.864H576.754V225.4C576.754 224.707 576.578 224.173 576.226 223.8C575.885 223.427 575.383 223.24 574.722 223.24C574.071 223.24 573.57 223.427 573.218 223.8C572.866 224.173 572.69 224.707 572.69 225.4V225.864ZM581.26 231V222.2H582.7V223.88H582.716C582.79 223.293 583.03 222.84 583.436 222.52C583.841 222.2 584.38 222.04 585.052 222.04C585.969 222.04 586.7 222.333 587.244 222.92C587.788 223.496 588.06 224.28 588.06 225.272V225.88H586.62V225.4C586.62 224.728 586.449 224.211 586.108 223.848C585.766 223.475 585.27 223.288 584.62 223.288C583.34 223.288 582.7 223.992 582.7 225.4V231H581.26Z" fill="#FFAA00"/>
<path d="M411.545 30H408.095V19.8182H411.615C412.626 19.8182 413.494 20.022 414.22 20.4297C414.949 20.834 415.509 21.4157 415.9 22.1747C416.292 22.9337 416.487 23.8419 416.487 24.8991C416.487 25.9598 416.29 26.8712 415.896 27.6335C415.504 28.3958 414.939 28.9808 414.2 29.3885C413.464 29.7962 412.579 30 411.545 30ZM409.94 28.4041H411.456C412.165 28.4041 412.757 28.2749 413.231 28.0163C413.705 27.7545 414.061 27.3651 414.3 26.848C414.538 26.3277 414.658 25.678 414.658 24.8991C414.658 24.1203 414.538 23.474 414.3 22.9602C414.061 22.4432 413.708 22.0571 413.241 21.8018C412.777 21.5433 412.2 21.4141 411.511 21.4141H409.94V28.4041ZM421.541 30.1491C420.775 30.1491 420.114 29.9901 419.557 29.6719C419.004 29.3504 418.578 28.8963 418.279 28.3097C417.981 27.7197 417.832 27.0253 417.832 26.2266C417.832 25.4411 417.981 24.7517 418.279 24.1584C418.581 23.5618 419.002 23.0978 419.542 22.7663C420.082 22.4316 420.717 22.2642 421.446 22.2642C421.917 22.2642 422.361 22.3404 422.779 22.4929C423.2 22.642 423.571 22.8741 423.892 23.1889C424.217 23.5038 424.472 23.9048 424.658 24.392C424.844 24.8759 424.936 25.4527 424.936 26.1222V26.674H418.677V25.4609H423.211C423.208 25.1162 423.133 24.8097 422.987 24.5412C422.842 24.2694 422.638 24.0556 422.376 23.8999C422.117 23.7441 421.816 23.6662 421.471 23.6662C421.103 23.6662 420.78 23.7557 420.502 23.9347C420.223 24.1103 420.006 24.3423 419.85 24.6307C419.698 24.9157 419.62 25.2289 419.617 25.5703V26.6293C419.617 27.0734 419.698 27.4545 419.86 27.7727C420.023 28.0876 420.25 28.3295 420.541 28.4986C420.833 28.6643 421.175 28.7472 421.566 28.7472C421.827 28.7472 422.064 28.7107 422.277 28.6378C422.489 28.5616 422.673 28.4505 422.828 28.3047C422.984 28.1589 423.102 27.9782 423.181 27.7628L424.862 27.9517C424.756 28.3958 424.554 28.7836 424.255 29.1151C423.96 29.4432 423.582 29.6984 423.122 29.8807C422.661 30.0597 422.134 30.1491 421.541 30.1491ZM426.459 32.8636V22.3636H428.229V23.6264H428.333C428.426 23.4408 428.557 23.2436 428.726 23.0348C428.895 22.8227 429.124 22.642 429.412 22.4929C429.7 22.3404 430.068 22.2642 430.516 22.2642C431.106 22.2642 431.638 22.415 432.112 22.7166C432.589 23.0149 432.967 23.4574 433.245 24.044C433.527 24.6274 433.668 25.3433 433.668 26.1918C433.668 27.0303 433.53 27.7429 433.255 28.3295C432.98 28.9162 432.605 29.3636 432.131 29.6719C431.658 29.9801 431.121 30.1342 430.521 30.1342C430.083 30.1342 429.72 30.0613 429.432 29.9155C429.144 29.7696 428.912 29.594 428.736 29.3885C428.564 29.1797 428.429 28.9825 428.333 28.7969H428.259V32.8636H426.459ZM428.224 26.1818C428.224 26.6757 428.293 27.1082 428.433 27.4794C428.575 27.8506 428.779 28.1406 429.044 28.3494C429.313 28.5549 429.637 28.6577 430.019 28.6577C430.416 28.6577 430.749 28.5516 431.018 28.3395C431.286 28.1241 431.488 27.8307 431.624 27.4595C431.764 27.085 431.833 26.6591 431.833 26.1818C431.833 25.7079 431.765 25.2869 431.629 24.919C431.493 24.5511 431.291 24.2628 431.023 24.054C430.754 23.8452 430.42 23.7408 430.019 23.7408C429.634 23.7408 429.308 23.8419 429.039 24.044C428.771 24.2462 428.567 24.5296 428.428 24.8942C428.292 25.2588 428.224 25.688 428.224 26.1818ZM438.59 30.1491C437.824 30.1491 437.163 29.9901 436.606 29.6719C436.052 29.3504 435.627 28.8963 435.328 28.3097C435.03 27.7197 434.881 27.0253 434.881 26.2266C434.881 25.4411 435.03 24.7517 435.328 24.1584C435.63 23.5618 436.051 23.0978 436.591 22.7663C437.131 22.4316 437.766 22.2642 438.495 22.2642C438.966 22.2642 439.41 22.3404 439.828 22.4929C440.248 22.642 440.62 22.8741 440.941 23.1889C441.266 23.5038 441.521 23.9048 441.707 24.392C441.892 24.8759 441.985 25.4527 441.985 26.1222V26.674H435.726V25.4609H440.26C440.257 25.1162 440.182 24.8097 440.036 24.5412C439.89 24.2694 439.687 24.0556 439.425 23.8999C439.166 23.7441 438.865 23.6662 438.52 23.6662C438.152 23.6662 437.829 23.7557 437.551 23.9347C437.272 24.1103 437.055 24.3423 436.899 24.6307C436.747 24.9157 436.669 25.2289 436.666 25.5703V26.6293C436.666 27.0734 436.747 27.4545 436.909 27.7727C437.072 28.0876 437.299 28.3295 437.59 28.4986C437.882 28.6643 438.223 28.7472 438.614 28.7472C438.876 28.7472 439.113 28.7107 439.325 28.6378C439.537 28.5616 439.721 28.4505 439.877 28.3047C440.033 28.1589 440.151 27.9782 440.23 27.7628L441.911 27.9517C441.805 28.3958 441.602 28.7836 441.304 29.1151C441.009 29.4432 440.631 29.6984 440.171 29.8807C439.71 30.0597 439.183 30.1491 438.59 30.1491ZM445.307 25.5256V30H443.508V22.3636H445.228V23.6612H445.317C445.493 23.2337 445.773 22.8939 446.158 22.642C446.545 22.3902 447.024 22.2642 447.594 22.2642C448.121 22.2642 448.58 22.3769 448.972 22.6023C449.366 22.8277 449.671 23.1541 449.886 23.5817C450.105 24.0092 450.213 24.5279 450.209 25.1378V30H448.41V25.4162C448.41 24.9058 448.277 24.5064 448.012 24.218C447.75 23.9297 447.387 23.7855 446.923 23.7855C446.608 23.7855 446.328 23.8551 446.083 23.9943C445.841 24.1302 445.65 24.3274 445.511 24.5859C445.375 24.8445 445.307 25.1577 445.307 25.5256ZM454.873 30.1342C454.273 30.1342 453.736 29.9801 453.262 29.6719C452.788 29.3636 452.414 28.9162 452.138 28.3295C451.863 27.7429 451.726 27.0303 451.726 26.1918C451.726 25.3433 451.865 24.6274 452.143 24.044C452.425 23.4574 452.805 23.0149 453.282 22.7166C453.759 22.415 454.291 22.2642 454.878 22.2642C455.325 22.2642 455.693 22.3404 455.981 22.4929C456.27 22.642 456.498 22.8227 456.668 23.0348C456.837 23.2436 456.967 23.4408 457.06 23.6264H457.135V19.8182H458.94V30H457.17V28.7969H457.06C456.967 28.9825 456.833 29.1797 456.658 29.3885C456.482 29.594 456.25 29.7696 455.962 29.9155C455.673 30.0613 455.31 30.1342 454.873 30.1342ZM455.375 28.6577C455.756 28.6577 456.081 28.5549 456.349 28.3494C456.618 28.1406 456.822 27.8506 456.961 27.4794C457.1 27.1082 457.17 26.6757 457.17 26.1818C457.17 25.688 457.1 25.2588 456.961 24.8942C456.825 24.5296 456.623 24.2462 456.354 24.044C456.089 23.8419 455.763 23.7408 455.375 23.7408C454.974 23.7408 454.639 23.8452 454.371 24.054C454.102 24.2628 453.9 24.5511 453.764 24.919C453.628 25.2869 453.56 25.7079 453.56 26.1818C453.56 26.6591 453.628 27.085 453.764 27.4595C453.903 27.8307 454.107 28.1241 454.376 28.3395C454.647 28.5516 454.98 28.6577 455.375 28.6577ZM464.238 30.1491C463.472 30.1491 462.811 29.9901 462.254 29.6719C461.701 29.3504 461.275 28.8963 460.977 28.3097C460.678 27.7197 460.529 27.0253 460.529 26.2266C460.529 25.4411 460.678 24.7517 460.977 24.1584C461.278 23.5618 461.699 23.0978 462.239 22.7663C462.78 22.4316 463.414 22.2642 464.144 22.2642C464.614 22.2642 465.058 22.3404 465.476 22.4929C465.897 22.642 466.268 22.8741 466.59 23.1889C466.914 23.5038 467.17 23.9048 467.355 24.392C467.541 24.8759 467.634 25.4527 467.634 26.1222V26.674H461.374V25.4609H465.908C465.905 25.1162 465.831 24.8097 465.685 24.5412C465.539 24.2694 465.335 24.0556 465.073 23.8999C464.815 23.7441 464.513 23.6662 464.168 23.6662C463.801 23.6662 463.477 23.7557 463.199 23.9347C462.921 24.1103 462.703 24.3423 462.548 24.6307C462.395 24.9157 462.317 25.2289 462.314 25.5703V26.6293C462.314 27.0734 462.395 27.4545 462.558 27.7727C462.72 28.0876 462.947 28.3295 463.239 28.4986C463.53 28.6643 463.872 28.7472 464.263 28.7472C464.525 28.7472 464.762 28.7107 464.974 28.6378C465.186 28.5616 465.37 28.4505 465.526 28.3047C465.681 28.1589 465.799 27.9782 465.879 27.7628L467.559 27.9517C467.453 28.3958 467.251 28.7836 466.953 29.1151C466.658 29.4432 466.28 29.6984 465.819 29.8807C465.358 30.0597 464.831 30.1491 464.238 30.1491ZM470.956 25.5256V30H469.156V22.3636H470.876V23.6612H470.966C471.141 23.2337 471.422 22.8939 471.806 22.642C472.194 22.3902 472.673 22.2642 473.243 22.2642C473.77 22.2642 474.229 22.3769 474.62 22.6023C475.014 22.8277 475.319 23.1541 475.535 23.5817C475.753 24.0092 475.861 24.5279 475.858 25.1378V30H474.058V25.4162C474.058 24.9058 473.926 24.5064 473.66 24.218C473.399 23.9297 473.036 23.7855 472.572 23.7855C472.257 23.7855 471.977 23.8551 471.731 23.9943C471.489 24.1302 471.299 24.3274 471.16 24.5859C471.024 24.8445 470.956 25.1577 470.956 25.5256ZM481.018 30.1491C480.256 30.1491 479.601 29.9818 479.055 29.647C478.511 29.3123 478.092 28.8499 477.797 28.2599C477.505 27.6667 477.359 26.9839 477.359 26.2116C477.359 25.4361 477.508 24.7517 477.807 24.1584C478.105 23.5618 478.526 23.0978 479.07 22.7663C479.616 22.4316 480.263 22.2642 481.008 22.2642C481.628 22.2642 482.177 22.3786 482.654 22.6072C483.135 22.8326 483.517 23.1525 483.802 23.5668C484.088 23.9777 484.25 24.4583 484.29 25.0085H482.57C482.5 24.6406 482.334 24.334 482.072 24.0888C481.814 23.8402 481.467 23.7159 481.033 23.7159C480.665 23.7159 480.342 23.8153 480.064 24.0142C479.785 24.2098 479.568 24.4915 479.413 24.8594C479.26 25.2273 479.184 25.6681 479.184 26.1818C479.184 26.7022 479.26 27.1496 479.413 27.5241C479.565 27.8954 479.779 28.1821 480.054 28.3842C480.332 28.5831 480.659 28.6825 481.033 28.6825C481.298 28.6825 481.535 28.6328 481.744 28.5334C481.956 28.4306 482.134 28.2831 482.276 28.0909C482.419 27.8987 482.516 27.665 482.57 27.3899H484.29C484.247 27.9302 484.088 28.4091 483.812 28.8267C483.537 29.241 483.163 29.5658 482.689 29.8011C482.215 30.0331 481.658 30.1491 481.018 30.1491ZM486.886 32.8636C486.641 32.8636 486.414 32.8438 486.205 32.804C485.999 32.7675 485.835 32.7244 485.713 32.6747L486.13 31.2727C486.392 31.349 486.626 31.3854 486.831 31.3821C487.037 31.3788 487.218 31.3142 487.373 31.1882C487.532 31.0656 487.667 30.8601 487.776 30.5717L487.93 30.1591L485.161 22.3636H487.07L488.83 28.1307H488.91L490.674 22.3636H492.589L489.531 30.9247C489.388 31.3291 489.2 31.6754 488.964 31.9638C488.729 32.2554 488.441 32.4775 488.099 32.63C487.761 32.7857 487.357 32.8636 486.886 32.8636Z" fill="#F8F8FA"/>
<path d="M365.8 277H362.35V266.818H365.87C366.881 266.818 367.749 267.022 368.475 267.43C369.204 267.834 369.764 268.416 370.155 269.175C370.546 269.934 370.742 270.842 370.742 271.899C370.742 272.96 370.545 273.871 370.15 274.634C369.759 275.396 369.194 275.981 368.455 276.388C367.719 276.796 366.834 277 365.8 277ZM364.194 275.404H365.711C366.42 275.404 367.012 275.275 367.486 275.016C367.96 274.754 368.316 274.365 368.555 273.848C368.793 273.328 368.912 272.678 368.912 271.899C368.912 271.12 368.793 270.474 368.555 269.96C368.316 269.443 367.963 269.057 367.496 268.802C367.032 268.543 366.455 268.414 365.765 268.414H364.194V275.404ZM375.796 277.149C375.03 277.149 374.369 276.99 373.812 276.672C373.258 276.35 372.833 275.896 372.534 275.31C372.236 274.72 372.087 274.025 372.087 273.227C372.087 272.441 372.236 271.752 372.534 271.158C372.836 270.562 373.257 270.098 373.797 269.766C374.337 269.432 374.972 269.264 375.701 269.264C376.172 269.264 376.616 269.34 377.034 269.493C377.454 269.642 377.826 269.874 378.147 270.189C378.472 270.504 378.727 270.905 378.913 271.392C379.098 271.876 379.191 272.453 379.191 273.122V273.674H372.932V272.461H377.466C377.463 272.116 377.388 271.81 377.242 271.541C377.097 271.269 376.893 271.056 376.631 270.9C376.372 270.744 376.071 270.666 375.726 270.666C375.358 270.666 375.035 270.756 374.757 270.935C374.478 271.11 374.261 271.342 374.105 271.631C373.953 271.916 373.875 272.229 373.872 272.57V273.629C373.872 274.073 373.953 274.455 374.115 274.773C374.278 275.088 374.505 275.33 374.796 275.499C375.088 275.664 375.429 275.747 375.82 275.747C376.082 275.747 376.319 275.711 376.531 275.638C376.744 275.562 376.927 275.451 377.083 275.305C377.239 275.159 377.357 274.978 377.436 274.763L379.117 274.952C379.011 275.396 378.808 275.784 378.51 276.115C378.215 276.443 377.837 276.698 377.377 276.881C376.916 277.06 376.389 277.149 375.796 277.149ZM380.714 277V269.364H382.459V270.636H382.538C382.678 270.196 382.916 269.856 383.254 269.617C383.596 269.375 383.985 269.254 384.423 269.254C384.522 269.254 384.633 269.259 384.756 269.269C384.882 269.276 384.986 269.287 385.069 269.304V270.96C384.993 270.933 384.872 270.91 384.706 270.89C384.544 270.867 384.386 270.855 384.234 270.855C383.906 270.855 383.611 270.926 383.349 271.069C383.09 271.208 382.886 271.402 382.737 271.651C382.588 271.899 382.513 272.186 382.513 272.511V277H380.714ZM386.265 277V269.364H388.064V277H386.265ZM387.169 268.28C386.884 268.28 386.639 268.185 386.434 267.996C386.228 267.804 386.125 267.574 386.125 267.305C386.125 267.034 386.228 266.803 386.434 266.614C386.639 266.422 386.884 266.326 387.169 266.326C387.458 266.326 387.703 266.422 387.905 266.614C388.111 266.803 388.213 267.034 388.213 267.305C388.213 267.574 388.111 267.804 387.905 267.996C387.703 268.185 387.458 268.28 387.169 268.28ZM396.736 269.364L394.017 277H392.028L389.308 269.364H391.227L392.982 275.036H393.062L394.822 269.364H396.736ZM401.102 277.149C400.337 277.149 399.675 276.99 399.119 276.672C398.565 276.35 398.139 275.896 397.841 275.31C397.543 274.72 397.393 274.025 397.393 273.227C397.393 272.441 397.543 271.752 397.841 271.158C398.143 270.562 398.563 270.098 399.104 269.766C399.644 269.432 400.279 269.264 401.008 269.264C401.478 269.264 401.923 269.34 402.34 269.493C402.761 269.642 403.132 269.874 403.454 270.189C403.779 270.504 404.034 270.905 404.219 271.392C404.405 271.876 404.498 272.453 404.498 273.122V273.674H398.239V272.461H402.773C402.769 272.116 402.695 271.81 402.549 271.541C402.403 271.269 402.199 271.056 401.938 270.9C401.679 270.744 401.377 270.666 401.033 270.666C400.665 270.666 400.342 270.756 400.063 270.935C399.785 271.11 399.568 271.342 399.412 271.631C399.259 271.916 399.182 272.229 399.178 272.57V273.629C399.178 274.073 399.259 274.455 399.422 274.773C399.584 275.088 399.811 275.33 400.103 275.499C400.395 275.664 400.736 275.747 401.127 275.747C401.389 275.747 401.626 275.711 401.838 275.638C402.05 275.562 402.234 275.451 402.39 275.305C402.546 275.159 402.663 274.978 402.743 274.763L404.423 274.952C404.317 275.396 404.115 275.784 403.817 276.115C403.522 276.443 403.144 276.698 402.683 276.881C402.223 277.06 401.696 277.149 401.102 277.149ZM408.854 277.134C408.254 277.134 407.717 276.98 407.243 276.672C406.769 276.364 406.395 275.916 406.12 275.33C405.845 274.743 405.707 274.03 405.707 273.192C405.707 272.343 405.846 271.627 406.125 271.044C406.407 270.457 406.786 270.015 407.263 269.717C407.741 269.415 408.273 269.264 408.859 269.264C409.307 269.264 409.675 269.34 409.963 269.493C410.251 269.642 410.48 269.823 410.649 270.035C410.818 270.244 410.949 270.441 411.042 270.626H411.116V266.818H412.921V277H411.151V275.797H411.042C410.949 275.982 410.815 276.18 410.639 276.388C410.463 276.594 410.231 276.77 409.943 276.915C409.655 277.061 409.292 277.134 408.854 277.134ZM409.356 275.658C409.738 275.658 410.062 275.555 410.331 275.349C410.599 275.141 410.803 274.851 410.942 274.479C411.081 274.108 411.151 273.676 411.151 273.182C411.151 272.688 411.081 272.259 410.942 271.894C410.806 271.53 410.604 271.246 410.336 271.044C410.071 270.842 409.744 270.741 409.356 270.741C408.955 270.741 408.621 270.845 408.352 271.054C408.084 271.263 407.881 271.551 407.746 271.919C407.61 272.287 407.542 272.708 407.542 273.182C407.542 273.659 407.61 274.085 407.746 274.46C407.885 274.831 408.089 275.124 408.357 275.339C408.629 275.552 408.962 275.658 409.356 275.658ZM422.468 266.341L419.186 278.531H417.61L420.892 266.341H422.468ZM429.923 277.134C429.323 277.134 428.786 276.98 428.312 276.672C427.838 276.364 427.463 275.916 427.188 275.33C426.913 274.743 426.776 274.03 426.776 273.192C426.776 272.343 426.915 271.627 427.193 271.044C427.475 270.457 427.854 270.015 428.332 269.717C428.809 269.415 429.341 269.264 429.928 269.264C430.375 269.264 430.743 269.34 431.031 269.493C431.32 269.642 431.548 269.823 431.717 270.035C431.886 270.244 432.017 270.441 432.11 270.626H432.185V266.818H433.989V277H432.219V275.797H432.11C432.017 275.982 431.883 276.18 431.707 276.388C431.532 276.594 431.3 276.77 431.011 276.915C430.723 277.061 430.36 277.134 429.923 277.134ZM430.425 275.658C430.806 275.658 431.131 275.555 431.399 275.349C431.668 275.141 431.871 274.851 432.011 274.479C432.15 274.108 432.219 273.676 432.219 273.182C432.219 272.688 432.15 272.259 432.011 271.894C431.875 271.53 431.673 271.246 431.404 271.044C431.139 270.842 430.813 270.741 430.425 270.741C430.024 270.741 429.689 270.845 429.42 271.054C429.152 271.263 428.95 271.551 428.814 271.919C428.678 272.287 428.61 272.708 428.61 273.182C428.61 273.659 428.678 274.085 428.814 274.46C428.953 274.831 429.157 275.124 429.425 275.339C429.697 275.552 430.03 275.658 430.425 275.658ZM439.288 277.149C438.522 277.149 437.861 276.99 437.304 276.672C436.751 276.35 436.325 275.896 436.026 275.31C435.728 274.72 435.579 274.025 435.579 273.227C435.579 272.441 435.728 271.752 436.026 271.158C436.328 270.562 436.749 270.098 437.289 269.766C437.829 269.432 438.464 269.264 439.193 269.264C439.664 269.264 440.108 269.34 440.526 269.493C440.947 269.642 441.318 269.874 441.639 270.189C441.964 270.504 442.219 270.905 442.405 271.392C442.591 271.876 442.683 272.453 442.683 273.122V273.674H436.424V272.461H440.958C440.955 272.116 440.88 271.81 440.735 271.541C440.589 271.269 440.385 271.056 440.123 270.9C439.865 270.744 439.563 270.666 439.218 270.666C438.85 270.666 438.527 270.756 438.249 270.935C437.97 271.11 437.753 271.342 437.597 271.631C437.445 271.916 437.367 272.229 437.364 272.57V273.629C437.364 274.073 437.445 274.455 437.607 274.773C437.77 275.088 437.997 275.33 438.289 275.499C438.58 275.664 438.922 275.747 439.313 275.747C439.575 275.747 439.811 275.711 440.024 275.638C440.236 275.562 440.42 275.451 440.575 275.305C440.731 275.159 440.849 274.978 440.928 274.763L442.609 274.952C442.503 275.396 442.301 275.784 442.002 276.115C441.707 276.443 441.329 276.698 440.869 276.881C440.408 277.06 439.881 277.149 439.288 277.149ZM444.206 279.864V269.364H445.976V270.626H446.08C446.173 270.441 446.304 270.244 446.473 270.035C446.642 269.823 446.871 269.642 447.159 269.493C447.447 269.34 447.815 269.264 448.263 269.264C448.853 269.264 449.385 269.415 449.859 269.717C450.336 270.015 450.714 270.457 450.992 271.044C451.274 271.627 451.415 272.343 451.415 273.192C451.415 274.03 451.277 274.743 451.002 275.33C450.727 275.916 450.353 276.364 449.879 276.672C449.405 276.98 448.868 277.134 448.268 277.134C447.83 277.134 447.467 277.061 447.179 276.915C446.891 276.77 446.659 276.594 446.483 276.388C446.311 276.18 446.176 275.982 446.08 275.797H446.006V279.864H444.206ZM445.971 273.182C445.971 273.676 446.04 274.108 446.18 274.479C446.322 274.851 446.526 275.141 446.791 275.349C447.06 275.555 447.384 275.658 447.766 275.658C448.163 275.658 448.496 275.552 448.765 275.339C449.033 275.124 449.236 274.831 449.371 274.46C449.511 274.085 449.58 273.659 449.58 273.182C449.58 272.708 449.512 272.287 449.376 271.919C449.241 271.551 449.038 271.263 448.77 271.054C448.501 270.845 448.167 270.741 447.766 270.741C447.381 270.741 447.055 270.842 446.786 271.044C446.518 271.246 446.314 271.53 446.175 271.894C446.039 272.259 445.971 272.688 445.971 273.182ZM456.337 277.149C455.571 277.149 454.91 276.99 454.353 276.672C453.799 276.35 453.374 275.896 453.075 275.31C452.777 274.72 452.628 274.025 452.628 273.227C452.628 272.441 452.777 271.752 453.075 271.158C453.377 270.562 453.798 270.098 454.338 269.766C454.878 269.432 455.513 269.264 456.242 269.264C456.713 269.264 457.157 269.34 457.575 269.493C457.996 269.642 458.367 269.874 458.688 270.189C459.013 270.504 459.268 270.905 459.454 271.392C459.639 271.876 459.732 272.453 459.732 273.122V273.674H453.473V272.461H458.007C458.004 272.116 457.929 271.81 457.783 271.541C457.638 271.269 457.434 271.056 457.172 270.9C456.913 270.744 456.612 270.666 456.267 270.666C455.899 270.666 455.576 270.756 455.298 270.935C455.019 271.11 454.802 271.342 454.646 271.631C454.494 271.916 454.416 272.229 454.413 272.57V273.629C454.413 274.073 454.494 274.455 454.656 274.773C454.819 275.088 455.046 275.33 455.337 275.499C455.629 275.664 455.97 275.747 456.362 275.747C456.623 275.747 456.86 275.711 457.072 275.638C457.285 275.562 457.469 275.451 457.624 275.305C457.78 275.159 457.898 274.978 457.977 274.763L459.658 274.952C459.552 275.396 459.349 275.784 459.051 276.115C458.756 276.443 458.378 276.698 457.918 276.881C457.457 277.06 456.93 277.149 456.337 277.149ZM463.055 272.526V277H461.255V269.364H462.975V270.661H463.064C463.24 270.234 463.52 269.894 463.905 269.642C464.292 269.39 464.771 269.264 465.341 269.264C465.868 269.264 466.327 269.377 466.719 269.602C467.113 269.828 467.418 270.154 467.633 270.582C467.852 271.009 467.96 271.528 467.956 272.138V277H466.157V272.416C466.157 271.906 466.024 271.506 465.759 271.218C465.497 270.93 465.134 270.786 464.67 270.786C464.355 270.786 464.075 270.855 463.83 270.994C463.588 271.13 463.398 271.327 463.258 271.586C463.122 271.844 463.055 272.158 463.055 272.526ZM472.62 277.134C472.02 277.134 471.483 276.98 471.009 276.672C470.535 276.364 470.161 275.916 469.885 275.33C469.61 274.743 469.473 274.03 469.473 273.192C469.473 272.343 469.612 271.627 469.89 271.044C470.172 270.457 470.552 270.015 471.029 269.717C471.506 269.415 472.038 269.264 472.625 269.264C473.072 269.264 473.44 269.34 473.729 269.493C474.017 269.642 474.246 269.823 474.415 270.035C474.584 270.244 474.715 270.441 474.807 270.626H474.882V266.818H476.687V277H474.917V275.797H474.807C474.715 275.982 474.58 276.18 474.405 276.388C474.229 276.594 473.997 276.77 473.709 276.915C473.42 277.061 473.057 277.134 472.62 277.134ZM473.122 275.658C473.503 275.658 473.828 275.555 474.096 275.349C474.365 275.141 474.569 274.851 474.708 274.479C474.847 274.108 474.917 273.676 474.917 273.182C474.917 272.688 474.847 272.259 474.708 271.894C474.572 271.53 474.37 271.246 474.101 271.044C473.836 270.842 473.51 270.741 473.122 270.741C472.721 270.741 472.386 270.845 472.118 271.054C471.849 271.263 471.647 271.551 471.511 271.919C471.375 272.287 471.307 272.708 471.307 273.182C471.307 273.659 471.375 274.085 471.511 274.46C471.65 274.831 471.854 275.124 472.123 275.339C472.394 275.552 472.728 275.658 473.122 275.658ZM481.985 277.149C481.219 277.149 480.558 276.99 480.001 276.672C479.448 276.35 479.022 275.896 478.724 275.31C478.425 274.72 478.276 274.025 478.276 273.227C478.276 272.441 478.425 271.752 478.724 271.158C479.025 270.562 479.446 270.098 479.987 269.766C480.527 269.432 481.161 269.264 481.891 269.264C482.361 269.264 482.805 269.34 483.223 269.493C483.644 269.642 484.015 269.874 484.337 270.189C484.661 270.504 484.917 270.905 485.102 271.392C485.288 271.876 485.381 272.453 485.381 273.122V273.674H479.121V272.461H483.656C483.652 272.116 483.578 271.81 483.432 271.541C483.286 271.269 483.082 271.056 482.82 270.9C482.562 270.744 482.26 270.666 481.915 270.666C481.548 270.666 481.224 270.756 480.946 270.935C480.668 271.11 480.451 271.342 480.295 271.631C480.142 271.916 480.064 272.229 480.061 272.57V273.629C480.061 274.073 480.142 274.455 480.305 274.773C480.467 275.088 480.694 275.33 480.986 275.499C481.277 275.664 481.619 275.747 482.01 275.747C482.272 275.747 482.509 275.711 482.721 275.638C482.933 275.562 483.117 275.451 483.273 275.305C483.429 275.159 483.546 274.978 483.626 274.763L485.306 274.952C485.2 275.396 484.998 275.784 484.7 276.115C484.405 276.443 484.027 276.698 483.566 276.881C483.105 277.06 482.578 277.149 481.985 277.149ZM488.703 272.526V277H486.903V269.364H488.623V270.661H488.713C488.889 270.234 489.169 269.894 489.553 269.642C489.941 269.39 490.42 269.264 490.99 269.264C491.517 269.264 491.976 269.377 492.367 269.602C492.761 269.828 493.066 270.154 493.282 270.582C493.501 271.009 493.608 271.528 493.605 272.138V277H491.805V272.416C491.805 271.906 491.673 271.506 491.407 271.218C491.146 270.93 490.783 270.786 490.319 270.786C490.004 270.786 489.724 270.855 489.479 270.994C489.237 271.13 489.046 271.327 488.907 271.586C488.771 271.844 488.703 272.158 488.703 272.526ZM499.248 269.364V270.756H494.858V269.364H499.248ZM495.942 267.534H497.741V274.703C497.741 274.945 497.778 275.131 497.851 275.26C497.927 275.386 498.026 275.472 498.149 275.518C498.272 275.565 498.407 275.588 498.557 275.588C498.669 275.588 498.772 275.58 498.865 275.563C498.961 275.547 499.034 275.532 499.084 275.518L499.387 276.925C499.291 276.959 499.153 276.995 498.974 277.035C498.799 277.075 498.583 277.098 498.328 277.104C497.877 277.118 497.471 277.05 497.11 276.901C496.749 276.748 496.462 276.513 496.25 276.195C496.041 275.876 495.938 275.479 495.942 275.001V267.534ZM511.047 269.364L508.327 277H506.338L503.619 269.364H505.538L507.293 275.036H507.373L509.132 269.364H511.047ZM514.271 277.154C513.787 277.154 513.351 277.068 512.963 276.896C512.579 276.72 512.274 276.461 512.048 276.12C511.826 275.779 511.715 275.358 511.715 274.857C511.715 274.426 511.795 274.07 511.954 273.788C512.113 273.507 512.33 273.281 512.605 273.112C512.88 272.943 513.19 272.816 513.535 272.729C513.883 272.64 514.242 272.575 514.614 272.536C515.061 272.489 515.424 272.448 515.702 272.411C515.981 272.371 516.183 272.312 516.309 272.232C516.438 272.149 516.503 272.022 516.503 271.849V271.82C516.503 271.445 516.392 271.155 516.17 270.95C515.948 270.744 515.628 270.641 515.21 270.641C514.769 270.641 514.42 270.737 514.161 270.93C513.906 271.122 513.734 271.349 513.644 271.611L511.964 271.372C512.096 270.908 512.315 270.52 512.62 270.209C512.925 269.894 513.298 269.659 513.739 269.503C514.179 269.344 514.667 269.264 515.2 269.264C515.568 269.264 515.934 269.307 516.299 269.393C516.664 269.48 516.997 269.622 517.298 269.821C517.6 270.017 517.842 270.283 518.024 270.621C518.21 270.96 518.303 271.382 518.303 271.889V277H516.572V275.951H516.513C516.403 276.163 516.249 276.362 516.05 276.548C515.855 276.73 515.608 276.877 515.31 276.99C515.015 277.099 514.668 277.154 514.271 277.154ZM514.738 275.832C515.099 275.832 515.412 275.76 515.678 275.618C515.943 275.472 516.147 275.28 516.289 275.041C516.435 274.803 516.508 274.542 516.508 274.261V273.361C516.451 273.407 516.355 273.45 516.219 273.49C516.087 273.53 515.938 273.565 515.772 273.594C515.606 273.624 515.442 273.651 515.28 273.674C515.117 273.697 514.977 273.717 514.857 273.734C514.589 273.77 514.348 273.83 514.136 273.913C513.924 273.996 513.757 274.112 513.634 274.261C513.512 274.406 513.45 274.595 513.45 274.827C513.45 275.159 513.571 275.409 513.813 275.578C514.055 275.747 514.363 275.832 514.738 275.832ZM521.912 266.818V277H520.112V266.818H521.912ZM528.63 273.788V269.364H530.43V277H528.684V275.643H528.605C528.433 276.07 528.149 276.42 527.755 276.692C527.364 276.964 526.881 277.099 526.308 277.099C525.808 277.099 525.365 276.988 524.981 276.766C524.599 276.541 524.301 276.214 524.086 275.787C523.87 275.356 523.763 274.836 523.763 274.226V269.364H525.562V273.947C525.562 274.431 525.695 274.816 525.96 275.101C526.225 275.386 526.573 275.528 527.004 275.528C527.269 275.528 527.526 275.464 527.775 275.335C528.023 275.205 528.227 275.013 528.386 274.758C528.549 274.499 528.63 274.176 528.63 273.788ZM535.661 277.149C534.895 277.149 534.234 276.99 533.677 276.672C533.124 276.35 532.698 275.896 532.4 275.31C532.101 274.72 531.952 274.025 531.952 273.227C531.952 272.441 532.101 271.752 532.4 271.158C532.701 270.562 533.122 270.098 533.662 269.766C534.203 269.432 534.837 269.264 535.566 269.264C536.037 269.264 536.481 269.34 536.899 269.493C537.32 269.642 537.691 269.874 538.012 270.189C538.337 270.504 538.592 270.905 538.778 271.392C538.964 271.876 539.056 272.453 539.056 273.122V273.674H532.797V272.461H537.331C537.328 272.116 537.253 271.81 537.108 271.541C536.962 271.269 536.758 271.056 536.496 270.9C536.238 270.744 535.936 270.666 535.591 270.666C535.223 270.666 534.9 270.756 534.622 270.935C534.343 271.11 534.126 271.342 533.971 271.631C533.818 271.916 533.74 272.229 533.737 272.57V273.629C533.737 274.073 533.818 274.455 533.98 274.773C534.143 275.088 534.37 275.33 534.662 275.499C534.953 275.664 535.295 275.747 535.686 275.747C535.948 275.747 536.185 275.711 536.397 275.638C536.609 275.562 536.793 275.451 536.949 275.305C537.104 275.159 537.222 274.978 537.301 274.763L538.982 274.952C538.876 275.396 538.674 275.784 538.375 276.115C538.08 276.443 537.703 276.698 537.242 276.881C536.781 277.06 536.254 277.149 535.661 277.149Z" fill="#F8F8FA"/>
<path d="M432 94V93H430V94H432ZM431 150H430V151H431V150ZM530.293 202.707C530.683 203.098 531.317 203.098 531.707 202.707L538.071 196.343C538.462 195.953 538.462 195.319 538.071 194.929C537.681 194.538 537.047 194.538 536.657 194.929L531 200.586L525.343 194.929C524.953 194.538 524.319 194.538 523.929 194.929C523.538 195.319 523.538 195.953 523.929 196.343L530.293 202.707ZM531 150H532V149H531V150ZM430 94V150H432V94H430ZM532 202V150H530V202H532ZM531 149H431V151H531V149Z" fill="#FFAA00"/>
</svg>
