<svg width="8" height="8" viewBox="0 0 8 8" fill="none" xmlns="http://www.w3.org/2000/svg">
<path d="M1.00084 1.67066C1.00098 1.2995 1.27029 1.13306 1.60234 1.29889L6.39766 3.69916C6.72971 3.86499 6.99902 4.29755 6.99916 4.66871V6.32935C6.99902 6.7005 6.72971 6.86695 6.39766 6.70111L1.60234 4.30085C1.27029 4.13501 1.00098 3.70246 1.00084 3.3313V1.67066Z" fill="url(#paint0_linear)"/>
<path fill-rule="evenodd" clip-rule="evenodd" d="M6.39766 1.29889C6.72971 1.13306 6.99902 1.2995 6.99916 1.67066V3.3313C6.99907 3.55596 6.90037 3.80312 6.74883 4C6.65001 3.87162 6.52872 3.76461 6.39766 3.69916L4 2.49902L6.39766 1.29889ZM4 5.50098L1.60234 6.70111C1.27029 6.86695 1.00098 6.7005 1.00084 6.32935V4.66871C1.00098 4.29755 1.27029 3.86499 1.60234 3.69916L4 2.49902V5.50098Z" fill="#F8F8FA"/>
<defs>
<linearGradient id="paint0_linear" x1="0.999985" y1="1" x2="8.04602" y2="5.27656" gradientUnits="userSpaceOnUse">
<stop stop-color="#FF00A8"/>
<stop offset="1" stop-color="#FFAA00"/>
</linearGradient>
</defs>
</svg>
