<svg width="586" height="200" viewBox="0 0 586 200" fill="none" xmlns="http://www.w3.org/2000/svg">
<path d="M114.469 54.993C117.537 53.461 120.712 53.2848 123.218 54.8332C125.723 56.3817 126.985 59.3017 126.987 62.7305V89.3016C126.985 93.433 125.195 97.8047 122.566 101.22L119.397 98.7801C121.617 95.8953 122.985 92.3576 122.987 89.3001V62.7305C122.986 60.2214 122.093 58.8401 121.115 58.2358C120.137 57.6315 118.502 57.4503 116.257 58.5711L56 88.7325V84.2594L114.468 54.9938L114.469 54.993Z" fill="#8D8D8F"/>
<path d="M37.7441 93.3973C35.3228 94.6065 33.1592 96.5391 31.4342 98.7801C28.8054 102.195 27.0153 106.568 27.0137 110.699L27.0137 137.27C27.015 140.698 28.2774 143.618 30.7827 145.167C33.2881 146.715 36.4637 146.539 39.5313 145.007L77.8955 125.804L76.1051 122.227L37.7441 141.429C35.4992 142.549 33.8635 142.369 32.8857 141.764C31.908 141.16 31.0149 139.779 31.0137 137.27L31.0137 110.7C31.0149 107.642 32.3833 104.105 34.604 101.22C36.0412 99.3527 37.7587 97.8611 39.5313 96.9759L37.7441 93.3973Z" fill="#8D8D8F"/>
<path fill-rule="evenodd" clip-rule="evenodd" d="M30.7827 54.8332C33.2881 53.2848 36.4637 53.461 39.5313 54.993L39.5329 54.9938L116.256 93.3973C119.315 94.9249 121.975 97.6121 123.865 100.656C125.755 103.699 126.985 107.275 126.987 110.699V137.27C126.985 140.698 125.723 143.618 123.218 145.167C120.712 146.715 117.537 146.539 114.469 145.007L75.0002 125.251V77.2199L37.7432 58.5711C35.4984 57.4503 33.8635 57.6315 32.8857 58.2358C31.908 58.8401 31.0148 60.2214 31.0137 62.7305V89.3001C31.0151 92.3494 32.3761 95.8767 34.5867 98.7578L31.4133 101.193C28.7962 97.782 27.0153 93.4224 27.0137 89.3016V62.7305C27.015 59.3017 28.2774 56.3817 30.7827 54.8332ZM122.987 110.7C122.986 108.185 122.06 105.331 120.467 102.766C118.874 100.202 116.723 98.1016 114.469 96.9759L79.0002 79.2221V122.78L116.256 141.429C118.501 142.549 120.137 142.369 121.115 141.764C122.093 141.16 122.986 139.779 122.987 137.27V110.7Z" fill="url(#paint0_linear)"/>
<path d="M57 88.232L39.5313 96.9759C37.7586 97.8611 36.0412 99.3527 34.604 101.22C32.3833 104.105 31.0149 107.642 31.0137 110.7L27.0137 110.699C27.0153 106.567 28.8054 102.195 31.4342 98.7801C33.1592 96.5391 35.3228 94.6065 37.7441 93.3973L57 83.7589V88.232Z" fill="#8D8D8F"/>
<path fill-rule="evenodd" clip-rule="evenodd" d="M303 93.846L286.847 90.0001L286.846 89.9998L286.846 90.0018L284.453 99.9998L254.409 92.9531L250.515 92.0398L250.514 92.0397L251.441 88.1485L259.61 53.8368C260.378 50.6132 263.613 48.6222 266.837 49.3897L339.163 66.6103C342.387 67.3778 344.378 70.6132 343.61 73.8368L336.951 101.804L303 93.846ZM282.956 89.0688L281.489 95.1963L255.335 89.0619L263.502 54.7633C263.757 53.6888 264.836 53.0251 265.91 53.2809L338.237 70.5015C339.311 70.7573 339.975 71.8358 339.719 72.9103L333.983 96.9998L303.926 89.9548L303.913 89.9515L287.772 86.1086L283.886 85.1832L282.956 89.0688ZM298.227 113.891L302.114 114.816L303.044 110.931L304.51 104.803L330.665 110.938L322.499 145.237C322.243 146.311 321.164 146.975 320.09 146.719L247.763 129.498C246.689 129.243 246.025 128.164 246.281 127.09L252.018 102.996L282.073 110.045L282.086 110.048L298.227 113.891ZM299.154 110L301.547 100L301.547 99.9998L301.547 99.9999L331.591 107.047L335.486 107.96L334.559 111.851L326.39 146.163C325.622 149.387 322.387 151.378 319.163 150.61L246.837 133.39C243.613 132.622 241.622 129.387 242.39 126.163L249.05 98.191L249.05 98.1911L283 106.154L299.154 110ZM478.708 73.4643L480.173 71.7559L476.756 68.8274L475.292 70.5357L451.292 98.5357L450.037 100L451.292 101.464L475.292 129.464L476.756 131.173L480.173 128.244L478.708 126.536L455.963 100L478.708 73.4643ZM530.831 73.3078L532.139 71.4769L528.477 68.8613L527.169 70.6922L487.169 126.692L485.861 128.523L489.523 131.139L490.831 129.308L530.831 73.3078ZM537.827 71.7559L539.292 73.4643L562.037 100L539.292 126.536L537.827 128.244L541.244 131.173L542.708 129.464L566.708 101.464L567.963 100L566.708 98.5357L542.708 70.5357L541.244 68.8274L537.827 71.7559ZM199.414 98.5858L184.414 83.5858L181.586 86.4142L193.172 98H163V102H193.172L181.586 113.586L184.414 116.414L199.414 101.414L200.828 100L199.414 98.5858ZM400.414 83.5858L415.414 98.5858L416.828 100L415.414 101.414L400.414 116.414L397.586 113.586L409.172 102H379V98H409.172L397.586 86.4142L400.414 83.5858Z" fill="#8D8D8F"/>
<defs>
<linearGradient id="paint0_linear" x1="26.9994" y1="49.8299" x2="144.648" y2="120.995" gradientUnits="userSpaceOnUse">
<stop stop-color="#FF00A8"/>
<stop offset="1" stop-color="#FFAA00"/>
</linearGradient>
</defs>
</svg>
