<svg width="900" height="296" viewBox="0 0 900 296" fill="none" xmlns="http://www.w3.org/2000/svg">
<rect width="78" height="41" transform="translate(95 50)" fill="#CC8800"/>
<path d="M110.019 76.16C108.973 76.16 108.147 75.8613 107.539 75.264C106.931 74.6667 106.627 73.8453 106.627 72.8V67.52C106.627 66.4747 106.931 65.6533 107.539 65.056C108.147 64.4587 108.973 64.16 110.019 64.16C111.064 64.16 111.891 64.4587 112.499 65.056C113.107 65.6427 113.411 66.4587 113.411 67.504V72.8C113.411 73.8453 113.107 74.6667 112.499 75.264C111.891 75.8613 111.064 76.16 110.019 76.16ZM110.019 74.864C110.648 74.864 111.128 74.688 111.459 74.336C111.8 73.9733 111.971 73.4613 111.971 72.8V67.52C111.971 66.8587 111.8 66.352 111.459 66C111.128 65.6373 110.648 65.456 110.019 65.456C109.4 65.456 108.92 65.6373 108.579 66C108.237 66.352 108.067 66.8587 108.067 67.52V72.8C108.067 73.4613 108.237 73.9733 108.579 74.336C108.92 74.688 109.4 74.864 110.019 74.864ZM116.557 76V67.2H117.997V68.88H118.013C118.087 68.2933 118.327 67.84 118.733 67.52C119.138 67.2 119.677 67.04 120.349 67.04C121.266 67.04 121.997 67.3333 122.541 67.92C123.085 68.496 123.357 69.28 123.357 70.272V70.88H121.917V70.4C121.917 69.728 121.746 69.2107 121.405 68.848C121.063 68.4747 120.567 68.288 119.917 68.288C118.637 68.288 117.997 68.992 117.997 70.4V76H116.557ZM128.438 76.16C127.51 76.16 126.78 75.9253 126.246 75.456C125.713 74.976 125.446 74.3307 125.446 73.52C125.446 72.6987 125.713 72.0533 126.246 71.584C126.78 71.1147 127.5 70.88 128.406 70.88H131.126V70C131.126 69.4667 130.961 69.0507 130.63 68.752C130.31 68.4533 129.862 68.304 129.286 68.304C128.774 68.304 128.342 68.416 127.99 68.64C127.638 68.864 127.42 69.1573 127.334 69.52H125.894C125.948 69.0293 126.124 68.5973 126.422 68.224C126.732 67.8507 127.132 67.5627 127.622 67.36C128.124 67.1467 128.678 67.04 129.286 67.04C130.3 67.04 131.1 67.3013 131.686 67.824C132.273 68.3467 132.566 69.056 132.566 69.952V76H131.158V74.32H131.142C131.078 74.8853 130.801 75.3333 130.31 75.664C129.83 75.9947 129.206 76.16 128.438 76.16ZM128.79 75.024C129.473 75.024 130.033 74.8533 130.47 74.512C130.908 74.1707 131.126 73.7333 131.126 73.2V71.952H128.438C127.958 71.952 127.58 72.0853 127.302 72.352C127.025 72.6187 126.886 72.9813 126.886 73.44C126.886 73.9307 127.052 74.32 127.382 74.608C127.724 74.8853 128.193 75.024 128.79 75.024ZM135.472 76V67.2H136.912V68.88H136.928C137.003 68.2933 137.243 67.84 137.648 67.52C138.053 67.2 138.592 67.04 139.264 67.04C140.149 67.04 140.853 67.312 141.376 67.856C141.899 68.4 142.16 69.1413 142.16 70.08V76H140.72V70.24C140.72 69.6107 140.549 69.1307 140.208 68.8C139.877 68.4587 139.424 68.288 138.848 68.288C138.251 68.288 137.776 68.4693 137.424 68.832C137.083 69.1947 136.912 69.7173 136.912 70.4V76H135.472ZM146.17 78.88V77.568H148.97C149.834 77.568 150.266 77.152 150.266 76.32V75.2L150.298 73.6H150.266C150.212 74.1653 149.972 74.6133 149.546 74.944C149.13 75.2747 148.591 75.44 147.93 75.44C147.023 75.44 146.308 75.1467 145.786 74.56C145.263 73.9627 145.002 73.1627 145.002 72.16V70.304C145.002 69.3013 145.263 68.5067 145.786 67.92C146.308 67.3333 147.023 67.04 147.93 67.04C148.591 67.04 149.13 67.2053 149.546 67.536C149.972 67.8667 150.212 68.3147 150.266 68.88H150.282V67.2H151.706V76.32C151.706 77.1093 151.46 77.7333 150.97 78.192C150.49 78.6507 149.818 78.88 148.954 78.88H146.17ZM148.362 74.192C148.959 74.192 149.428 74.0053 149.77 73.632C150.111 73.2587 150.282 72.7413 150.282 72.08V70.4C150.282 69.7387 150.111 69.2213 149.77 68.848C149.428 68.4747 148.959 68.288 148.362 68.288C147.754 68.288 147.279 68.4693 146.938 68.832C146.607 69.1947 146.442 69.7173 146.442 70.4V72.08C146.442 72.7627 146.607 73.2853 146.938 73.648C147.279 74.0107 147.754 74.192 148.362 74.192ZM157.988 76.16C157.294 76.16 156.686 76.0213 156.164 75.744C155.652 75.4667 155.252 75.0773 154.964 74.576C154.686 74.064 154.548 73.472 154.548 72.8V70.4C154.548 69.7173 154.686 69.1253 154.964 68.624C155.252 68.1227 155.652 67.7333 156.164 67.456C156.686 67.1787 157.294 67.04 157.988 67.04C158.681 67.04 159.284 67.1787 159.796 67.456C160.318 67.7333 160.718 68.1227 160.996 68.624C161.284 69.1253 161.428 69.7173 161.428 70.4V71.952H155.956V72.8C155.956 73.4933 156.132 74.0267 156.484 74.4C156.836 74.7627 157.337 74.944 157.988 74.944C158.542 74.944 158.99 74.848 159.332 74.656C159.673 74.4533 159.881 74.1547 159.956 73.76H161.396C161.3 74.496 160.937 75.0827 160.308 75.52C159.689 75.9467 158.916 76.16 157.988 76.16ZM155.956 70.864H160.02V70.4C160.02 69.7067 159.844 69.1733 159.492 68.8C159.15 68.4267 158.649 68.24 157.988 68.24C157.337 68.24 156.836 68.4267 156.484 68.8C156.132 69.1733 155.956 69.7067 155.956 70.4V70.864Z" fill="#F8F8FA"/>
<rect width="49" height="41" transform="translate(183 50)" fill="#CC8800"/>
<path d="M194.581 76V64.32H198.197C198.891 64.32 199.499 64.464 200.021 64.752C200.544 65.0293 200.949 65.4187 201.237 65.92C201.525 66.4213 201.669 67.008 201.669 67.68C201.669 68.4693 201.461 69.1467 201.045 69.712C200.64 70.2773 200.085 70.6667 199.381 70.88L201.829 76H200.133L197.893 71.04H196.021V76H194.581ZM196.021 69.744H198.197C198.795 69.744 199.275 69.5573 199.637 69.184C200 68.8 200.181 68.2987 200.181 67.68C200.181 67.0507 200 66.5493 199.637 66.176C199.275 65.8027 198.795 65.616 198.197 65.616H196.021V69.744ZM207.503 76.16C206.81 76.16 206.202 76.0213 205.679 75.744C205.167 75.4667 204.767 75.0773 204.479 74.576C204.202 74.064 204.063 73.472 204.063 72.8V70.4C204.063 69.7173 204.202 69.1253 204.479 68.624C204.767 68.1227 205.167 67.7333 205.679 67.456C206.202 67.1787 206.81 67.04 207.503 67.04C208.196 67.04 208.799 67.1787 209.311 67.456C209.834 67.7333 210.234 68.1227 210.511 68.624C210.799 69.1253 210.943 69.7173 210.943 70.4V71.952H205.471V72.8C205.471 73.4933 205.647 74.0267 205.999 74.4C206.351 74.7627 206.852 74.944 207.503 74.944C208.058 74.944 208.506 74.848 208.847 74.656C209.188 74.4533 209.396 74.1547 209.471 73.76H210.911C210.815 74.496 210.452 75.0827 209.823 75.52C209.204 75.9467 208.431 76.16 207.503 76.16ZM205.471 70.864H209.535V70.4C209.535 69.7067 209.359 69.1733 209.007 68.8C208.666 68.4267 208.164 68.24 207.503 68.24C206.852 68.24 206.351 68.4267 205.999 68.8C205.647 69.1733 205.471 69.7067 205.471 70.4V70.864ZM216.585 76.16C215.71 76.16 215.001 75.8667 214.457 75.28C213.924 74.6933 213.657 73.8987 213.657 72.896V70.32C213.657 69.3067 213.924 68.5067 214.457 67.92C214.99 67.3333 215.7 67.04 216.585 67.04C217.246 67.04 217.79 67.2053 218.217 67.536C218.644 67.8667 218.894 68.3147 218.969 68.88H219.017L218.985 66.88V64.32H220.425V76H218.985V74.32H218.969C218.894 74.896 218.644 75.3493 218.217 75.68C217.79 76 217.246 76.16 216.585 76.16ZM217.065 74.912C217.662 74.912 218.132 74.7253 218.473 74.352C218.814 73.9787 218.985 73.4613 218.985 72.8V70.4C218.985 69.7387 218.814 69.2213 218.473 68.848C218.132 68.4747 217.662 68.288 217.065 68.288C216.457 68.288 215.977 68.4693 215.625 68.832C215.273 69.1947 215.097 69.7173 215.097 70.4V72.8C215.097 73.4827 215.273 74.0053 215.625 74.368C215.977 74.7307 216.457 74.912 217.065 74.912Z" fill="#F8F8FA"/>
<rect width="78" height="41" transform="translate(95 205)" fill="#CC8800"/>
<path d="M110.019 231.16C108.973 231.16 108.147 230.861 107.539 230.264C106.931 229.667 106.627 228.845 106.627 227.8V222.52C106.627 221.475 106.931 220.653 107.539 220.056C108.147 219.459 108.973 219.16 110.019 219.16C111.064 219.16 111.891 219.459 112.499 220.056C113.107 220.643 113.411 221.459 113.411 222.504V227.8C113.411 228.845 113.107 229.667 112.499 230.264C111.891 230.861 111.064 231.16 110.019 231.16ZM110.019 229.864C110.648 229.864 111.128 229.688 111.459 229.336C111.8 228.973 111.971 228.461 111.971 227.8V222.52C111.971 221.859 111.8 221.352 111.459 221C111.128 220.637 110.648 220.456 110.019 220.456C109.4 220.456 108.92 220.637 108.579 221C108.237 221.352 108.067 221.859 108.067 222.52V227.8C108.067 228.461 108.237 228.973 108.579 229.336C108.92 229.688 109.4 229.864 110.019 229.864ZM116.557 231V222.2H117.997V223.88H118.013C118.087 223.293 118.327 222.84 118.733 222.52C119.138 222.2 119.677 222.04 120.349 222.04C121.266 222.04 121.997 222.333 122.541 222.92C123.085 223.496 123.357 224.28 123.357 225.272V225.88H121.917V225.4C121.917 224.728 121.746 224.211 121.405 223.848C121.063 223.475 120.567 223.288 119.917 223.288C118.637 223.288 117.997 223.992 117.997 225.4V231H116.557ZM128.438 231.16C127.51 231.16 126.78 230.925 126.246 230.456C125.713 229.976 125.446 229.331 125.446 228.52C125.446 227.699 125.713 227.053 126.246 226.584C126.78 226.115 127.5 225.88 128.406 225.88H131.126V225C131.126 224.467 130.961 224.051 130.63 223.752C130.31 223.453 129.862 223.304 129.286 223.304C128.774 223.304 128.342 223.416 127.99 223.64C127.638 223.864 127.42 224.157 127.334 224.52H125.894C125.948 224.029 126.124 223.597 126.422 223.224C126.732 222.851 127.132 222.563 127.622 222.36C128.124 222.147 128.678 222.04 129.286 222.04C130.3 222.04 131.1 222.301 131.686 222.824C132.273 223.347 132.566 224.056 132.566 224.952V231H131.158V229.32H131.142C131.078 229.885 130.801 230.333 130.31 230.664C129.83 230.995 129.206 231.16 128.438 231.16ZM128.79 230.024C129.473 230.024 130.033 229.853 130.47 229.512C130.908 229.171 131.126 228.733 131.126 228.2V226.952H128.438C127.958 226.952 127.58 227.085 127.302 227.352C127.025 227.619 126.886 227.981 126.886 228.44C126.886 228.931 127.052 229.32 127.382 229.608C127.724 229.885 128.193 230.024 128.79 230.024ZM135.472 231V222.2H136.912V223.88H136.928C137.003 223.293 137.243 222.84 137.648 222.52C138.053 222.2 138.592 222.04 139.264 222.04C140.149 222.04 140.853 222.312 141.376 222.856C141.899 223.4 142.16 224.141 142.16 225.08V231H140.72V225.24C140.72 224.611 140.549 224.131 140.208 223.8C139.877 223.459 139.424 223.288 138.848 223.288C138.251 223.288 137.776 223.469 137.424 223.832C137.083 224.195 136.912 224.717 136.912 225.4V231H135.472ZM146.17 233.88V232.568H148.97C149.834 232.568 150.266 232.152 150.266 231.32V230.2L150.298 228.6H150.266C150.212 229.165 149.972 229.613 149.546 229.944C149.13 230.275 148.591 230.44 147.93 230.44C147.023 230.44 146.308 230.147 145.786 229.56C145.263 228.963 145.002 228.163 145.002 227.16V225.304C145.002 224.301 145.263 223.507 145.786 222.92C146.308 222.333 147.023 222.04 147.93 222.04C148.591 222.04 149.13 222.205 149.546 222.536C149.972 222.867 150.212 223.315 150.266 223.88H150.282V222.2H151.706V231.32C151.706 232.109 151.46 232.733 150.97 233.192C150.49 233.651 149.818 233.88 148.954 233.88H146.17ZM148.362 229.192C148.959 229.192 149.428 229.005 149.77 228.632C150.111 228.259 150.282 227.741 150.282 227.08V225.4C150.282 224.739 150.111 224.221 149.77 223.848C149.428 223.475 148.959 223.288 148.362 223.288C147.754 223.288 147.279 223.469 146.938 223.832C146.607 224.195 146.442 224.717 146.442 225.4V227.08C146.442 227.763 146.607 228.285 146.938 228.648C147.279 229.011 147.754 229.192 148.362 229.192ZM157.988 231.16C157.294 231.16 156.686 231.021 156.164 230.744C155.652 230.467 155.252 230.077 154.964 229.576C154.686 229.064 154.548 228.472 154.548 227.8V225.4C154.548 224.717 154.686 224.125 154.964 223.624C155.252 223.123 155.652 222.733 156.164 222.456C156.686 222.179 157.294 222.04 157.988 222.04C158.681 222.04 159.284 222.179 159.796 222.456C160.318 222.733 160.718 223.123 160.996 223.624C161.284 224.125 161.428 224.717 161.428 225.4V226.952H155.956V227.8C155.956 228.493 156.132 229.027 156.484 229.4C156.836 229.763 157.337 229.944 157.988 229.944C158.542 229.944 158.99 229.848 159.332 229.656C159.673 229.453 159.881 229.155 159.956 228.76H161.396C161.3 229.496 160.937 230.083 160.308 230.52C159.689 230.947 158.916 231.16 157.988 231.16ZM155.956 225.864H160.02V225.4C160.02 224.707 159.844 224.173 159.492 223.8C159.15 223.427 158.649 223.24 157.988 223.24C157.337 223.24 156.836 223.427 156.484 223.8C156.132 224.173 155.956 224.707 155.956 225.4V225.864Z" fill="#F8F8FA"/>
<rect width="78" height="41" transform="translate(183 205)" fill="#CC8800"/>
<path d="M198.019 231.16C196.973 231.16 196.147 230.861 195.539 230.264C194.931 229.667 194.627 228.845 194.627 227.8V222.52C194.627 221.475 194.931 220.653 195.539 220.056C196.147 219.459 196.973 219.16 198.019 219.16C199.064 219.16 199.891 219.459 200.499 220.056C201.107 220.643 201.411 221.459 201.411 222.504V227.8C201.411 228.845 201.107 229.667 200.499 230.264C199.891 230.861 199.064 231.16 198.019 231.16ZM198.019 229.864C198.648 229.864 199.128 229.688 199.459 229.336C199.8 228.973 199.971 228.461 199.971 227.8V222.52C199.971 221.859 199.8 221.352 199.459 221C199.128 220.637 198.648 220.456 198.019 220.456C197.4 220.456 196.92 220.637 196.579 221C196.237 221.352 196.067 221.859 196.067 222.52V227.8C196.067 228.461 196.237 228.973 196.579 229.336C196.92 229.688 197.4 229.864 198.019 229.864ZM204.557 231V222.2H205.997V223.88H206.013C206.087 223.293 206.327 222.84 206.733 222.52C207.138 222.2 207.677 222.04 208.349 222.04C209.266 222.04 209.997 222.333 210.541 222.92C211.085 223.496 211.357 224.28 211.357 225.272V225.88H209.917V225.4C209.917 224.728 209.746 224.211 209.405 223.848C209.063 223.475 208.567 223.288 207.917 223.288C206.637 223.288 205.997 223.992 205.997 225.4V231H204.557ZM216.438 231.16C215.51 231.16 214.78 230.925 214.246 230.456C213.713 229.976 213.446 229.331 213.446 228.52C213.446 227.699 213.713 227.053 214.246 226.584C214.78 226.115 215.5 225.88 216.406 225.88H219.126V225C219.126 224.467 218.961 224.051 218.63 223.752C218.31 223.453 217.862 223.304 217.286 223.304C216.774 223.304 216.342 223.416 215.99 223.64C215.638 223.864 215.42 224.157 215.334 224.52H213.894C213.948 224.029 214.124 223.597 214.422 223.224C214.732 222.851 215.132 222.563 215.622 222.36C216.124 222.147 216.678 222.04 217.286 222.04C218.3 222.04 219.1 222.301 219.686 222.824C220.273 223.347 220.566 224.056 220.566 224.952V231H219.158V229.32H219.142C219.078 229.885 218.801 230.333 218.31 230.664C217.83 230.995 217.206 231.16 216.438 231.16ZM216.79 230.024C217.473 230.024 218.033 229.853 218.47 229.512C218.908 229.171 219.126 228.733 219.126 228.2V226.952H216.438C215.958 226.952 215.58 227.085 215.302 227.352C215.025 227.619 214.886 227.981 214.886 228.44C214.886 228.931 215.052 229.32 215.382 229.608C215.724 229.885 216.193 230.024 216.79 230.024ZM223.472 231V222.2H224.912V223.88H224.928C225.003 223.293 225.243 222.84 225.648 222.52C226.053 222.2 226.592 222.04 227.264 222.04C228.149 222.04 228.853 222.312 229.376 222.856C229.899 223.4 230.16 224.141 230.16 225.08V231H228.72V225.24C228.72 224.611 228.549 224.131 228.208 223.8C227.877 223.459 227.424 223.288 226.848 223.288C226.251 223.288 225.776 223.469 225.424 223.832C225.083 224.195 224.912 224.717 224.912 225.4V231H223.472ZM234.17 233.88V232.568H236.97C237.834 232.568 238.266 232.152 238.266 231.32V230.2L238.298 228.6H238.266C238.212 229.165 237.972 229.613 237.546 229.944C237.13 230.275 236.591 230.44 235.93 230.44C235.023 230.44 234.308 230.147 233.786 229.56C233.263 228.963 233.002 228.163 233.002 227.16V225.304C233.002 224.301 233.263 223.507 233.786 222.92C234.308 222.333 235.023 222.04 235.93 222.04C236.591 222.04 237.13 222.205 237.546 222.536C237.972 222.867 238.212 223.315 238.266 223.88H238.282V222.2H239.706V231.32C239.706 232.109 239.46 232.733 238.97 233.192C238.49 233.651 237.818 233.88 236.954 233.88H234.17ZM236.362 229.192C236.959 229.192 237.428 229.005 237.77 228.632C238.111 228.259 238.282 227.741 238.282 227.08V225.4C238.282 224.739 238.111 224.221 237.77 223.848C237.428 223.475 236.959 223.288 236.362 223.288C235.754 223.288 235.279 223.469 234.938 223.832C234.607 224.195 234.442 224.717 234.442 225.4V227.08C234.442 227.763 234.607 228.285 234.938 228.648C235.279 229.011 235.754 229.192 236.362 229.192ZM245.988 231.16C245.294 231.16 244.686 231.021 244.164 230.744C243.652 230.467 243.252 230.077 242.964 229.576C242.686 229.064 242.548 228.472 242.548 227.8V225.4C242.548 224.717 242.686 224.125 242.964 223.624C243.252 223.123 243.652 222.733 244.164 222.456C244.686 222.179 245.294 222.04 245.988 222.04C246.681 222.04 247.284 222.179 247.796 222.456C248.318 222.733 248.718 223.123 248.996 223.624C249.284 224.125 249.428 224.717 249.428 225.4V226.952H243.956V227.8C243.956 228.493 244.132 229.027 244.484 229.4C244.836 229.763 245.337 229.944 245.988 229.944C246.542 229.944 246.99 229.848 247.332 229.656C247.673 229.453 247.881 229.155 247.956 228.76H249.396C249.3 229.496 248.937 230.083 248.308 230.52C247.689 230.947 246.916 231.16 245.988 231.16ZM243.956 225.864H248.02V225.4C248.02 224.707 247.844 224.173 247.492 223.8C247.15 223.427 246.649 223.24 245.988 223.24C245.337 223.24 244.836 223.427 244.484 223.8C244.132 224.173 243.956 224.707 243.956 225.4V225.864Z" fill="#F8F8FA"/>
<rect width="49" height="41" transform="translate(271 205)" fill="#CC8800"/>
<path d="M282.581 231V219.32H286.197C286.891 219.32 287.499 219.464 288.021 219.752C288.544 220.029 288.949 220.419 289.237 220.92C289.525 221.421 289.669 222.008 289.669 222.68C289.669 223.469 289.461 224.147 289.045 224.712C288.64 225.277 288.085 225.667 287.381 225.88L289.829 231H288.133L285.893 226.04H284.021V231H282.581ZM284.021 224.744H286.197C286.795 224.744 287.275 224.557 287.637 224.184C288 223.8 288.181 223.299 288.181 222.68C288.181 222.051 288 221.549 287.637 221.176C287.275 220.803 286.795 220.616 286.197 220.616H284.021V224.744ZM295.503 231.16C294.81 231.16 294.202 231.021 293.679 230.744C293.167 230.467 292.767 230.077 292.479 229.576C292.202 229.064 292.063 228.472 292.063 227.8V225.4C292.063 224.717 292.202 224.125 292.479 223.624C292.767 223.123 293.167 222.733 293.679 222.456C294.202 222.179 294.81 222.04 295.503 222.04C296.196 222.04 296.799 222.179 297.311 222.456C297.834 222.733 298.234 223.123 298.511 223.624C298.799 224.125 298.943 224.717 298.943 225.4V226.952H293.471V227.8C293.471 228.493 293.647 229.027 293.999 229.4C294.351 229.763 294.852 229.944 295.503 229.944C296.058 229.944 296.506 229.848 296.847 229.656C297.188 229.453 297.396 229.155 297.471 228.76H298.911C298.815 229.496 298.452 230.083 297.823 230.52C297.204 230.947 296.431 231.16 295.503 231.16ZM293.471 225.864H297.535V225.4C297.535 224.707 297.359 224.173 297.007 223.8C296.666 223.427 296.164 223.24 295.503 223.24C294.852 223.24 294.351 223.427 293.999 223.8C293.647 224.173 293.471 224.707 293.471 225.4V225.864ZM304.585 231.16C303.71 231.16 303.001 230.867 302.457 230.28C301.924 229.693 301.657 228.899 301.657 227.896V225.32C301.657 224.307 301.924 223.507 302.457 222.92C302.99 222.333 303.7 222.04 304.585 222.04C305.246 222.04 305.79 222.205 306.217 222.536C306.644 222.867 306.894 223.315 306.969 223.88H307.017L306.985 221.88V219.32H308.425V231H306.985V229.32H306.969C306.894 229.896 306.644 230.349 306.217 230.68C305.79 231 305.246 231.16 304.585 231.16ZM305.065 229.912C305.662 229.912 306.132 229.725 306.473 229.352C306.814 228.979 306.985 228.461 306.985 227.8V225.4C306.985 224.739 306.814 224.221 306.473 223.848C306.132 223.475 305.662 223.288 305.065 223.288C304.457 223.288 303.977 223.469 303.625 223.832C303.273 224.195 303.097 224.717 303.097 225.4V227.8C303.097 228.483 303.273 229.005 303.625 229.368C303.977 229.731 304.457 229.912 305.065 229.912Z" fill="#F8F8FA"/>
<path d="M168.528 24.9091C168.528 26.0062 168.323 26.9458 167.912 27.728C167.504 28.5069 166.947 29.1035 166.241 29.5178C165.538 29.9321 164.741 30.1392 163.85 30.1392C162.958 30.1392 162.159 29.9321 161.453 29.5178C160.751 29.1001 160.194 28.5019 159.783 27.723C159.375 26.9408 159.172 26.0028 159.172 24.9091C159.172 23.812 159.375 22.8741 159.783 22.0952C160.194 21.313 160.751 20.7147 161.453 20.3004C162.159 19.8861 162.958 19.679 163.85 19.679C164.741 19.679 165.538 19.8861 166.241 20.3004C166.947 20.7147 167.504 21.313 167.912 22.0952C168.323 22.8741 168.528 23.812 168.528 24.9091ZM166.674 24.9091C166.674 24.1368 166.553 23.4856 166.311 22.9553C166.072 22.4216 165.741 22.0189 165.316 21.7472C164.892 21.4721 164.403 21.3345 163.85 21.3345C163.296 21.3345 162.807 21.4721 162.383 21.7472C161.959 22.0189 161.626 22.4216 161.384 22.9553C161.145 23.4856 161.026 24.1368 161.026 24.9091C161.026 25.6813 161.145 26.3343 161.384 26.8679C161.626 27.3982 161.959 27.8009 162.383 28.076C162.807 28.3478 163.296 28.4837 163.85 28.4837C164.403 28.4837 164.892 28.3478 165.316 28.076C165.741 27.8009 166.072 27.3982 166.311 26.8679C166.553 26.3343 166.674 25.6813 166.674 24.9091ZM171.992 19.8182V30H170.192V19.8182H171.992ZM176.676 30.1342C176.077 30.1342 175.54 29.9801 175.066 29.6719C174.592 29.3636 174.217 28.9162 173.942 28.3295C173.667 27.7429 173.529 27.0303 173.529 26.1918C173.529 25.3433 173.669 24.6274 173.947 24.044C174.229 23.4574 174.608 23.0149 175.086 22.7166C175.563 22.415 176.095 22.2642 176.681 22.2642C177.129 22.2642 177.497 22.3404 177.785 22.4929C178.074 22.642 178.302 22.8227 178.471 23.0348C178.64 23.2436 178.771 23.4408 178.864 23.6264H178.939V19.8182H180.743V30H178.973V28.7969H178.864C178.771 28.9825 178.637 29.1797 178.461 29.3885C178.286 29.594 178.054 29.7696 177.765 29.9155C177.477 30.0613 177.114 30.1342 176.676 30.1342ZM177.179 28.6577C177.56 28.6577 177.885 28.5549 178.153 28.3494C178.422 28.1406 178.625 27.8506 178.765 27.4794C178.904 27.1082 178.973 26.6757 178.973 26.1818C178.973 25.688 178.904 25.2588 178.765 24.8942C178.629 24.5296 178.426 24.2462 178.158 24.044C177.893 23.8419 177.566 23.7408 177.179 23.7408C176.778 23.7408 176.443 23.8452 176.174 24.054C175.906 24.2628 175.704 24.5511 175.568 24.919C175.432 25.2869 175.364 25.7079 175.364 26.1818C175.364 26.6591 175.432 27.085 175.568 27.4595C175.707 27.8307 175.911 28.1241 176.179 28.3395C176.451 28.5516 176.784 28.6577 177.179 28.6577ZM186.134 30V22.3636H187.933V30H186.134ZM187.039 21.2798C186.753 21.2798 186.508 21.1854 186.303 20.9964C186.097 20.8042 185.994 20.5739 185.994 20.3054C185.994 20.0336 186.097 19.8033 186.303 19.6143C186.508 19.4221 186.753 19.326 187.039 19.326C187.327 19.326 187.572 19.4221 187.774 19.6143C187.98 19.8033 188.083 20.0336 188.083 20.3054C188.083 20.5739 187.98 20.8042 187.774 20.9964C187.572 21.1854 187.327 21.2798 187.039 21.2798ZM191.584 25.5256V30H189.784V22.3636H191.504V23.6612H191.594C191.769 23.2337 192.049 22.8939 192.434 22.642C192.822 22.3902 193.301 22.2642 193.871 22.2642C194.398 22.2642 194.857 22.3769 195.248 22.6023C195.642 22.8277 195.947 23.1541 196.163 23.5817C196.381 24.0092 196.489 24.5279 196.486 25.1378V30H194.686V25.4162C194.686 24.9058 194.554 24.5064 194.288 24.218C194.027 23.9297 193.664 23.7855 193.2 23.7855C192.885 23.7855 192.605 23.8551 192.359 23.9943C192.117 24.1302 191.927 24.3274 191.788 24.5859C191.652 24.8445 191.584 25.1577 191.584 25.5256ZM198.315 32.8636V22.3636H200.085V23.6264H200.19C200.282 23.4408 200.413 23.2436 200.582 23.0348C200.751 22.8227 200.98 22.642 201.268 22.4929C201.557 22.3404 201.925 22.2642 202.372 22.2642C202.962 22.2642 203.494 22.415 203.968 22.7166C204.445 23.0149 204.823 23.4574 205.102 24.044C205.383 24.6274 205.524 25.3433 205.524 26.1918C205.524 27.0303 205.387 27.7429 205.112 28.3295C204.836 28.9162 204.462 29.3636 203.988 29.6719C203.514 29.9801 202.977 30.1342 202.377 30.1342C201.94 30.1342 201.577 30.0613 201.288 29.9155C201 29.7696 200.768 29.594 200.592 29.3885C200.42 29.1797 200.286 28.9825 200.19 28.7969H200.115V32.8636H198.315ZM200.08 26.1818C200.08 26.6757 200.15 27.1082 200.289 27.4794C200.432 27.8506 200.635 28.1406 200.901 28.3494C201.169 28.5549 201.494 28.6577 201.875 28.6577C202.273 28.6577 202.606 28.5516 202.874 28.3395C203.143 28.1241 203.345 27.8307 203.481 27.4595C203.62 27.085 203.69 26.6591 203.69 26.1818C203.69 25.7079 203.622 25.2869 203.486 24.919C203.35 24.5511 203.148 24.2628 202.879 24.054C202.611 23.8452 202.276 23.7408 201.875 23.7408C201.491 23.7408 201.164 23.8419 200.896 24.044C200.627 24.2462 200.423 24.5296 200.284 24.8942C200.148 25.2588 200.08 25.688 200.08 26.1818ZM211.933 26.7884V22.3636H213.732V30H211.987V28.6428H211.908C211.735 29.0703 211.452 29.42 211.058 29.6918C210.666 29.9635 210.184 30.0994 209.611 30.0994C209.11 30.0994 208.668 29.9884 208.283 29.7663C207.902 29.541 207.604 29.2145 207.388 28.7869C207.173 28.3561 207.065 27.8357 207.065 27.2259V22.3636H208.865V26.9474C208.865 27.4313 208.998 27.8158 209.263 28.1009C209.528 28.3859 209.876 28.5284 210.307 28.5284C210.572 28.5284 210.829 28.4638 211.077 28.3345C211.326 28.2053 211.53 28.013 211.689 27.7578C211.851 27.4993 211.933 27.1761 211.933 26.7884ZM219.396 22.3636V23.7557H215.006V22.3636H219.396ZM216.09 20.5341H217.89V27.7031C217.89 27.9451 217.926 28.1307 217.999 28.2599C218.075 28.3859 218.175 28.4721 218.297 28.5185C218.42 28.5649 218.556 28.5881 218.705 28.5881C218.818 28.5881 218.921 28.5798 219.013 28.5632C219.109 28.5466 219.182 28.5317 219.232 28.5185L219.535 29.9254C219.439 29.9586 219.302 29.995 219.123 30.0348C218.947 30.0746 218.732 30.0978 218.476 30.1044C218.026 30.1177 217.62 30.0497 217.258 29.9006C216.897 29.7481 216.61 29.5128 216.398 29.1946C216.189 28.8764 216.087 28.4787 216.09 28.0014V20.5341ZM228.187 22.3636V23.7557H223.797V22.3636H228.187ZM224.881 20.5341H226.681V27.7031C226.681 27.9451 226.717 28.1307 226.79 28.2599C226.866 28.3859 226.966 28.4721 227.088 28.5185C227.211 28.5649 227.347 28.5881 227.496 28.5881C227.609 28.5881 227.712 28.5798 227.804 28.5632C227.9 28.5466 227.973 28.5317 228.023 28.5185L228.326 29.9254C228.23 29.9586 228.093 29.995 227.914 30.0348C227.738 30.0746 227.523 30.0978 227.267 30.1044C226.817 30.1177 226.411 30.0497 226.049 29.9006C225.688 29.7481 225.401 29.5128 225.189 29.1946C224.98 28.8764 224.878 28.4787 224.881 28.0014V20.5341ZM231.89 30.1541C231.406 30.1541 230.97 30.0679 230.582 29.8956C230.198 29.7199 229.893 29.4614 229.667 29.12C229.445 28.7786 229.334 28.3577 229.334 27.8572C229.334 27.4264 229.414 27.0701 229.573 26.7884C229.732 26.5066 229.949 26.2812 230.224 26.1122C230.499 25.9432 230.809 25.8156 231.154 25.7294C231.502 25.6399 231.862 25.5753 232.233 25.5355C232.68 25.4891 233.043 25.4477 233.322 25.4112C233.6 25.3714 233.802 25.3118 233.928 25.2322C234.057 25.1494 234.122 25.0218 234.122 24.8494V24.8196C234.122 24.4451 234.011 24.1551 233.789 23.9496C233.567 23.7441 233.247 23.6413 232.829 23.6413C232.389 23.6413 232.039 23.7375 231.78 23.9297C231.525 24.1219 231.353 24.349 231.263 24.6108L229.583 24.3722C229.715 23.9081 229.934 23.5204 230.239 23.2088C230.544 22.8939 230.917 22.6586 231.358 22.5028C231.799 22.3438 232.286 22.2642 232.819 22.2642C233.187 22.2642 233.554 22.3073 233.918 22.3935C234.283 22.4796 234.616 22.6222 234.917 22.821C235.219 23.0166 235.461 23.2834 235.643 23.6214C235.829 23.9595 235.922 24.3821 235.922 24.8892V30H234.192V28.951H234.132C234.023 29.1631 233.868 29.362 233.67 29.5476C233.474 29.7299 233.227 29.8774 232.929 29.9901C232.634 30.0994 232.287 30.1541 231.89 30.1541ZM232.357 28.8317C232.718 28.8317 233.032 28.7604 233.297 28.6179C233.562 28.4721 233.766 28.2798 233.908 28.0412C234.054 27.8026 234.127 27.5424 234.127 27.2607V26.3608C234.071 26.4072 233.974 26.4503 233.839 26.4901C233.706 26.5298 233.557 26.5646 233.391 26.5945C233.225 26.6243 233.061 26.6508 232.899 26.674C232.737 26.6972 232.596 26.7171 232.476 26.7337C232.208 26.7701 231.968 26.8298 231.756 26.9126C231.543 26.9955 231.376 27.1115 231.253 27.2607C231.131 27.4065 231.069 27.5954 231.069 27.8274C231.069 28.1589 231.19 28.4091 231.432 28.5781C231.674 28.7472 231.983 28.8317 232.357 28.8317ZM237.811 30V19.8182H239.611V23.6264H239.685C239.778 23.4408 239.909 23.2436 240.078 23.0348C240.247 22.8227 240.476 22.642 240.764 22.4929C241.052 22.3404 241.42 22.2642 241.868 22.2642C242.458 22.2642 242.99 22.415 243.464 22.7166C243.941 23.0149 244.319 23.4574 244.597 24.044C244.879 24.6274 245.02 25.3433 245.02 26.1918C245.02 27.0303 244.882 27.7429 244.607 28.3295C244.332 28.9162 243.957 29.3636 243.483 29.6719C243.01 29.9801 242.473 30.1342 241.873 30.1342C241.435 30.1342 241.072 30.0613 240.784 29.9155C240.496 29.7696 240.264 29.594 240.088 29.3885C239.916 29.1797 239.781 28.9825 239.685 28.7969H239.581V30H237.811ZM239.576 26.1818C239.576 26.6757 239.645 27.1082 239.785 27.4794C239.927 27.8506 240.131 28.1406 240.396 28.3494C240.665 28.5549 240.989 28.6577 241.371 28.6577C241.768 28.6577 242.101 28.5516 242.37 28.3395C242.638 28.1241 242.84 27.8307 242.976 27.4595C243.116 27.085 243.185 26.6591 243.185 26.1818C243.185 25.7079 243.117 25.2869 242.981 24.919C242.845 24.5511 242.643 24.2628 242.375 24.054C242.106 23.8452 241.772 23.7408 241.371 23.7408C240.986 23.7408 240.66 23.8419 240.391 24.044C240.123 24.2462 239.919 24.5296 239.78 24.8942C239.644 25.2588 239.576 25.688 239.576 26.1818ZM248.349 19.8182V30H246.55V19.8182H248.349ZM253.581 30.1491C252.815 30.1491 252.154 29.9901 251.597 29.6719C251.044 29.3504 250.618 28.8963 250.319 28.3097C250.021 27.7197 249.872 27.0253 249.872 26.2266C249.872 25.4411 250.021 24.7517 250.319 24.1584C250.621 23.5618 251.042 23.0978 251.582 22.7663C252.122 22.4316 252.757 22.2642 253.486 22.2642C253.957 22.2642 254.401 22.3404 254.819 22.4929C255.24 22.642 255.611 22.8741 255.932 23.1889C256.257 23.5038 256.512 23.9048 256.698 24.392C256.884 24.8759 256.976 25.4527 256.976 26.1222V26.674H250.717V25.4609H255.251C255.248 25.1162 255.173 24.8097 255.028 24.5412C254.882 24.2694 254.678 24.0556 254.416 23.8999C254.157 23.7441 253.856 23.6662 253.511 23.6662C253.143 23.6662 252.82 23.7557 252.542 23.9347C252.263 24.1103 252.046 24.3423 251.89 24.6307C251.738 24.9157 251.66 25.2289 251.657 25.5703V26.6293C251.657 27.0734 251.738 27.4545 251.9 27.7727C252.063 28.0876 252.29 28.3295 252.581 28.4986C252.873 28.6643 253.215 28.7472 253.606 28.7472C253.867 28.7472 254.104 28.7107 254.317 28.6378C254.529 28.5616 254.713 28.4505 254.868 28.3047C255.024 28.1589 255.142 27.9782 255.221 27.7628L256.902 27.9517C256.796 28.3958 256.594 28.7836 256.295 29.1151C256 29.4432 255.622 29.6984 255.162 29.8807C254.701 30.0597 254.174 30.1491 253.581 30.1491Z" fill="#1D1D1F"/>
<path d="M163.777 266.818V277H162.136L157.339 270.065H157.254V277H155.41V266.818H157.06L161.853 273.759H161.942V266.818H163.777ZM169.088 277.149C168.322 277.149 167.661 276.99 167.104 276.672C166.55 276.35 166.125 275.896 165.826 275.31C165.528 274.72 165.379 274.025 165.379 273.227C165.379 272.441 165.528 271.752 165.826 271.158C166.128 270.562 166.549 270.098 167.089 269.766C167.629 269.432 168.264 269.264 168.993 269.264C169.464 269.264 169.908 269.34 170.326 269.493C170.746 269.642 171.118 269.874 171.439 270.189C171.764 270.504 172.019 270.905 172.205 271.392C172.39 271.876 172.483 272.453 172.483 273.122V273.674H166.224V272.461H170.758C170.755 272.116 170.68 271.81 170.534 271.541C170.389 271.269 170.185 271.056 169.923 270.9C169.664 270.744 169.363 270.666 169.018 270.666C168.65 270.666 168.327 270.756 168.049 270.935C167.77 271.11 167.553 271.342 167.397 271.631C167.245 271.916 167.167 272.229 167.164 272.57V273.629C167.164 274.073 167.245 274.455 167.407 274.773C167.57 275.088 167.797 275.33 168.088 275.499C168.38 275.664 168.721 275.747 169.112 275.747C169.374 275.747 169.611 275.711 169.823 275.638C170.036 275.562 170.219 275.451 170.375 275.305C170.531 275.159 170.649 274.978 170.728 274.763L172.409 274.952C172.303 275.396 172.1 275.784 171.802 276.115C171.507 276.443 171.129 276.698 170.669 276.881C170.208 277.06 169.681 277.149 169.088 277.149ZM175.541 277L173.383 269.364H175.218L176.56 274.733H176.63L178.002 269.364H179.816L181.188 274.703H181.263L182.585 269.364H184.425L182.262 277H180.388L178.956 271.839H178.852L177.42 277H175.541ZM189.154 277V269.364H190.954V277H189.154ZM190.059 268.28C189.774 268.28 189.529 268.185 189.323 267.996C189.118 267.804 189.015 267.574 189.015 267.305C189.015 267.034 189.118 266.803 189.323 266.614C189.529 266.422 189.774 266.326 190.059 266.326C190.347 266.326 190.593 266.422 190.795 266.614C191 266.803 191.103 267.034 191.103 267.305C191.103 267.574 191 267.804 190.795 267.996C190.593 268.185 190.347 268.28 190.059 268.28ZM194.604 272.526V277H192.805V269.364H194.525V270.661H194.614C194.79 270.234 195.07 269.894 195.454 269.642C195.842 269.39 196.321 269.264 196.891 269.264C197.418 269.264 197.877 269.377 198.268 269.602C198.663 269.828 198.968 270.154 199.183 270.582C199.402 271.009 199.51 271.528 199.506 272.138V277H197.707V272.416C197.707 271.906 197.574 271.506 197.309 271.218C197.047 270.93 196.684 270.786 196.22 270.786C195.905 270.786 195.625 270.855 195.38 270.994C195.138 271.13 194.947 271.327 194.808 271.586C194.672 271.844 194.604 272.158 194.604 272.526ZM201.336 279.864V269.364H203.106V270.626H203.21C203.303 270.441 203.434 270.244 203.603 270.035C203.772 269.823 204.001 269.642 204.289 269.493C204.577 269.34 204.945 269.264 205.393 269.264C205.983 269.264 206.515 269.415 206.989 269.717C207.466 270.015 207.844 270.457 208.122 271.044C208.404 271.627 208.545 272.343 208.545 273.192C208.545 274.03 208.407 274.743 208.132 275.33C207.857 275.916 207.482 276.364 207.008 276.672C206.534 276.98 205.998 277.134 205.398 277.134C204.96 277.134 204.597 277.061 204.309 276.915C204.021 276.77 203.789 276.594 203.613 276.388C203.44 276.18 203.306 275.982 203.21 275.797H203.136V279.864H201.336ZM203.101 273.182C203.101 273.676 203.17 274.108 203.31 274.479C203.452 274.851 203.656 275.141 203.921 275.349C204.19 275.555 204.514 275.658 204.896 275.658C205.293 275.658 205.626 275.552 205.895 275.339C206.163 275.124 206.365 274.831 206.501 274.46C206.641 274.085 206.71 273.659 206.71 273.182C206.71 272.708 206.642 272.287 206.506 271.919C206.37 271.551 206.168 271.263 205.9 271.054C205.631 270.845 205.297 270.741 204.896 270.741C204.511 270.741 204.185 270.842 203.916 271.044C203.648 271.246 203.444 271.53 203.305 271.894C203.169 272.259 203.101 272.688 203.101 273.182ZM214.953 273.788V269.364H216.753V277H215.008V275.643H214.928C214.756 276.07 214.472 276.42 214.078 276.692C213.687 276.964 213.205 277.099 212.631 277.099C212.131 277.099 211.688 276.988 211.304 276.766C210.923 276.541 210.624 276.214 210.409 275.787C210.194 275.356 210.086 274.836 210.086 274.226V269.364H211.886V273.947C211.886 274.431 212.018 274.816 212.283 275.101C212.548 275.386 212.896 275.528 213.327 275.528C213.592 275.528 213.849 275.464 214.098 275.335C214.347 275.205 214.55 275.013 214.709 274.758C214.872 274.499 214.953 274.176 214.953 273.788ZM222.417 269.364V270.756H218.027V269.364H222.417ZM219.111 267.534H220.91V274.703C220.91 274.945 220.947 275.131 221.02 275.26C221.096 275.386 221.195 275.472 221.318 275.518C221.441 275.565 221.576 275.588 221.726 275.588C221.838 275.588 221.941 275.58 222.034 275.563C222.13 275.547 222.203 275.532 222.253 275.518L222.556 276.925C222.46 276.959 222.322 276.995 222.143 277.035C221.968 277.075 221.752 277.098 221.497 277.104C221.046 277.118 220.64 277.05 220.279 276.901C219.918 276.748 219.631 276.513 219.419 276.195C219.21 275.876 219.107 275.479 219.111 275.001V267.534ZM231.208 269.364V270.756H226.818V269.364H231.208ZM227.902 267.534H229.701V274.703C229.701 274.945 229.738 275.131 229.811 275.26C229.887 275.386 229.986 275.472 230.109 275.518C230.232 275.565 230.367 275.588 230.517 275.588C230.629 275.588 230.732 275.58 230.825 275.563C230.921 275.547 230.994 275.532 231.044 275.518L231.347 276.925C231.251 276.959 231.113 276.995 230.934 277.035C230.759 277.075 230.543 277.098 230.288 277.104C229.837 277.118 229.431 277.05 229.07 276.901C228.709 276.748 228.422 276.513 228.21 276.195C228.001 275.876 227.898 275.479 227.902 275.001V267.534ZM234.91 277.154C234.426 277.154 233.991 277.068 233.603 276.896C233.218 276.72 232.913 276.461 232.688 276.12C232.466 275.779 232.355 275.358 232.355 274.857C232.355 274.426 232.434 274.07 232.593 273.788C232.753 273.507 232.97 273.281 233.245 273.112C233.52 272.943 233.83 272.816 234.174 272.729C234.522 272.64 234.882 272.575 235.253 272.536C235.701 272.489 236.064 272.448 236.342 272.411C236.62 272.371 236.823 272.312 236.949 272.232C237.078 272.149 237.142 272.022 237.142 271.849V271.82C237.142 271.445 237.031 271.155 236.809 270.95C236.587 270.744 236.267 270.641 235.85 270.641C235.409 270.641 235.059 270.737 234.801 270.93C234.546 271.122 234.373 271.349 234.284 271.611L232.603 271.372C232.736 270.908 232.955 270.52 233.26 270.209C233.565 269.894 233.937 269.659 234.378 269.503C234.819 269.344 235.306 269.264 235.84 269.264C236.208 269.264 236.574 269.307 236.939 269.393C237.303 269.48 237.636 269.622 237.938 269.821C238.24 270.017 238.482 270.283 238.664 270.621C238.849 270.96 238.942 271.382 238.942 271.889V277H237.212V275.951H237.152C237.043 276.163 236.889 276.362 236.69 276.548C236.495 276.73 236.248 276.877 235.949 276.99C235.654 277.099 235.308 277.154 234.91 277.154ZM235.378 275.832C235.739 275.832 236.052 275.76 236.317 275.618C236.582 275.472 236.786 275.28 236.929 275.041C237.075 274.803 237.147 274.542 237.147 274.261V273.361C237.091 273.407 236.995 273.45 236.859 273.49C236.727 273.53 236.577 273.565 236.412 273.594C236.246 273.624 236.082 273.651 235.919 273.674C235.757 273.697 235.616 273.717 235.497 273.734C235.228 273.77 234.988 273.83 234.776 273.913C234.564 273.996 234.397 274.112 234.274 274.261C234.151 274.406 234.09 274.595 234.09 274.827C234.09 275.159 234.211 275.409 234.453 275.578C234.695 275.747 235.003 275.832 235.378 275.832ZM240.831 277V266.818H242.631V270.626H242.706C242.799 270.441 242.929 270.244 243.098 270.035C243.267 269.823 243.496 269.642 243.785 269.493C244.073 269.34 244.441 269.264 244.888 269.264C245.478 269.264 246.01 269.415 246.484 269.717C246.961 270.015 247.339 270.457 247.618 271.044C247.899 271.627 248.04 272.343 248.04 273.192C248.04 274.03 247.903 274.743 247.628 275.33C247.352 275.916 246.978 276.364 246.504 276.672C246.03 276.98 245.493 277.134 244.893 277.134C244.456 277.134 244.093 277.061 243.804 276.915C243.516 276.77 243.284 276.594 243.108 276.388C242.936 276.18 242.802 275.982 242.706 275.797H242.601V277H240.831ZM242.596 273.182C242.596 273.676 242.666 274.108 242.805 274.479C242.948 274.851 243.151 275.141 243.417 275.349C243.685 275.555 244.01 275.658 244.391 275.658C244.789 275.658 245.122 275.552 245.39 275.339C245.659 275.124 245.861 274.831 245.997 274.46C246.136 274.085 246.206 273.659 246.206 273.182C246.206 272.708 246.138 272.287 246.002 271.919C245.866 271.551 245.664 271.263 245.395 271.054C245.127 270.845 244.792 270.741 244.391 270.741C244.007 270.741 243.68 270.842 243.412 271.044C243.143 271.246 242.939 271.53 242.8 271.894C242.664 272.259 242.596 272.688 242.596 273.182ZM251.37 266.818V277H249.57V266.818H251.37ZM256.601 277.149C255.836 277.149 255.174 276.99 254.618 276.672C254.064 276.35 253.638 275.896 253.34 275.31C253.042 274.72 252.892 274.025 252.892 273.227C252.892 272.441 253.042 271.752 253.34 271.158C253.642 270.562 254.062 270.098 254.603 269.766C255.143 269.432 255.778 269.264 256.507 269.264C256.977 269.264 257.422 269.34 257.839 269.493C258.26 269.642 258.631 269.874 258.953 270.189C259.278 270.504 259.533 270.905 259.718 271.392C259.904 271.876 259.997 272.453 259.997 273.122V273.674H253.738V272.461H258.272C258.268 272.116 258.194 271.81 258.048 271.541C257.902 271.269 257.698 271.056 257.437 270.9C257.178 270.744 256.876 270.666 256.532 270.666C256.164 270.666 255.841 270.756 255.562 270.935C255.284 271.11 255.067 271.342 254.911 271.631C254.758 271.916 254.681 272.229 254.677 272.57V273.629C254.677 274.073 254.758 274.455 254.921 274.773C255.083 275.088 255.31 275.33 255.602 275.499C255.894 275.664 256.235 275.747 256.626 275.747C256.888 275.747 257.125 275.711 257.337 275.638C257.549 275.562 257.733 275.451 257.889 275.305C258.045 275.159 258.162 274.978 258.242 274.763L259.922 274.952C259.816 275.396 259.614 275.784 259.316 276.115C259.021 276.443 258.643 276.698 258.182 276.881C257.722 277.06 257.195 277.149 256.601 277.149Z" fill="#1D1D1F"/>
<path d="M209 94V93H207V94H209ZM295.293 202.707C295.683 203.098 296.317 203.098 296.707 202.707L303.071 196.343C303.462 195.953 303.462 195.319 303.071 194.929C302.681 194.538 302.047 194.538 301.657 194.929L296 200.586L290.343 194.929C289.953 194.538 289.319 194.538 288.929 194.929C288.538 195.319 288.538 195.953 288.929 196.343L295.293 202.707ZM207 94V106.143H209V94H207ZM297 202V189.857H295V202H297ZM213.605 119.595L289.172 177.987L290.395 176.405L214.828 118.013L213.605 119.595ZM297 189.857C297 184.592 294.561 179.624 290.395 176.405L289.172 177.987C292.848 180.828 295 185.211 295 189.857H297ZM207 106.143C207 111.408 209.439 116.376 213.605 119.595L214.828 118.013C211.152 115.172 209 110.789 209 106.143H207Z" fill="#CC8800"/>
<path d="M174.5 143.5L179 148L183.5 152.5M183.5 143.5L174.5 152.5" stroke="#1D1D1F" stroke-width="2" stroke-linecap="square"/>
<path opacity="0.4" fill-rule="evenodd" clip-rule="evenodd" d="M134 94V97.0358V98.0358H136V97.0358V94H134ZM136 103.108V102.108H134V103.108V106.143C134 107.451 134.151 108.741 134.441 109.99L134.667 110.964L136.615 110.511L136.389 109.537C136.133 108.435 136 107.297 136 106.143V103.108ZM139.381 115.63L138.748 114.855L137.199 116.12L137.831 116.895C138.642 117.888 139.571 118.796 140.605 119.595L143.754 122.028L144.545 122.64L145.768 121.057L144.977 120.446L141.828 118.013C140.915 117.307 140.096 116.506 139.381 115.63ZM151.274 125.312L150.483 124.7L149.26 126.283L150.051 126.894L156.348 131.76L157.14 132.372L158.363 130.789L157.571 130.178L151.274 125.312ZM163.868 135.044L163.077 134.432L161.854 136.015L162.646 136.626L168.943 141.492L169.734 142.104L170.957 140.521L170.166 139.91L163.868 135.044ZM189.057 154.508L188.266 153.896L187.043 155.479L187.834 156.09L194.132 160.956L194.923 161.568L196.146 159.985L195.354 159.374L189.057 154.508ZM201.652 164.24L200.86 163.628L199.637 165.211L200.429 165.822L206.726 170.688L207.517 171.3L208.74 169.717L207.949 169.106L201.652 164.24ZM214.246 173.972L213.455 173.36L212.232 174.943L213.023 175.554L216.172 177.987C217.085 178.693 217.904 179.494 218.619 180.37L219.252 181.145L220.801 179.88L220.169 179.105C219.358 178.112 218.429 177.204 217.395 176.405L214.246 173.972ZM223.559 186.01L223.333 185.036L221.385 185.489L221.611 186.463C221.867 187.565 222 188.703 222 189.857V190.392V190.464V191.392V191.464V192V193H224V192V191.464V191.392V190.464V190.392V189.857C224 188.549 223.849 187.259 223.559 186.01Z" fill="#1D1D1F"/>
<path d="M135.5 94V93H133.5V94H135.5ZM133.793 202.707C134.183 203.098 134.817 203.098 135.207 202.707L141.571 196.343C141.962 195.953 141.962 195.319 141.571 194.929C141.181 194.538 140.547 194.538 140.157 194.929L134.5 200.586L128.843 194.929C128.453 194.538 127.819 194.538 127.429 194.929C127.038 195.319 127.038 195.953 127.429 196.343L133.793 202.707ZM133.5 94V114H135.5V94H133.5ZM135.5 202V182H133.5V202H135.5ZM133.5 114V182H135.5V114H133.5Z" fill="#CC8800"/>
<rect width="78" height="41" transform="translate(580 50)" fill="#CC8800"/>
<path d="M619.019 76.16C618.262 76.16 617.595 76.0053 617.019 75.696C616.454 75.376 616.011 74.9387 615.691 74.384C615.382 73.8187 615.227 73.168 615.227 72.432C615.227 71.92 615.318 71.3973 615.499 70.864C615.691 70.32 615.952 69.7547 616.283 69.168L619.035 64.32H620.603L617.435 69.712L617.499 69.76C617.691 69.472 617.968 69.2427 618.331 69.072C618.694 68.9013 619.104 68.816 619.563 68.816C620.203 68.816 620.763 68.9653 621.243 69.264C621.734 69.5627 622.112 69.9787 622.379 70.512C622.646 71.0347 622.779 71.6533 622.779 72.368C622.779 73.1253 622.619 73.792 622.299 74.368C621.99 74.9333 621.552 75.376 620.987 75.696C620.432 76.0053 619.776 76.16 619.019 76.16ZM619.003 74.88C619.696 74.88 620.256 74.656 620.683 74.208C621.12 73.7493 621.339 73.1467 621.339 72.4C621.339 71.6533 621.12 71.056 620.683 70.608C620.256 70.1493 619.696 69.92 619.003 69.92C618.31 69.92 617.744 70.1493 617.307 70.608C616.88 71.056 616.667 71.6533 616.667 72.4C616.667 73.1467 616.88 73.7493 617.307 74.208C617.744 74.656 618.31 74.88 619.003 74.88Z" fill="#F8F8FA"/>
<rect width="49" height="41" transform="translate(668 50)" fill="#CC8800"/>
<path d="M691.827 76.16C691.123 76.16 690.504 76.0213 689.971 75.744C689.448 75.456 689.043 75.0613 688.755 74.56C688.467 74.0587 688.323 73.472 688.323 72.8H689.763C689.763 73.4507 689.944 73.9627 690.307 74.336C690.68 74.6987 691.192 74.88 691.843 74.88C692.504 74.88 693.016 74.688 693.379 74.304C693.742 73.92 693.923 73.4187 693.923 72.8V72C693.923 71.3387 693.742 70.8267 693.379 70.464C693.016 70.1013 692.504 69.92 691.843 69.92H690.579V68.672L693.363 65.632H688.803V64.32H694.995V65.664L692.259 68.656C693.208 68.7307 693.96 69.0667 694.515 69.664C695.08 70.2613 695.363 71.04 695.363 72V72.8C695.363 73.472 695.214 74.0587 694.915 74.56C694.627 75.0613 694.216 75.456 693.683 75.744C693.15 76.0213 692.531 76.16 691.827 76.16Z" fill="#F8F8FA"/>
<rect width="78" height="41" transform="translate(580 205)" fill="#CC8800"/>
<path d="M619.019 231.16C618.262 231.16 617.595 231.005 617.019 230.696C616.454 230.376 616.011 229.939 615.691 229.384C615.382 228.819 615.227 228.168 615.227 227.432C615.227 226.92 615.318 226.397 615.499 225.864C615.691 225.32 615.952 224.755 616.283 224.168L619.035 219.32H620.603L617.435 224.712L617.499 224.76C617.691 224.472 617.968 224.243 618.331 224.072C618.694 223.901 619.104 223.816 619.563 223.816C620.203 223.816 620.763 223.965 621.243 224.264C621.734 224.563 622.112 224.979 622.379 225.512C622.646 226.035 622.779 226.653 622.779 227.368C622.779 228.125 622.619 228.792 622.299 229.368C621.99 229.933 621.552 230.376 620.987 230.696C620.432 231.005 619.776 231.16 619.019 231.16ZM619.003 229.88C619.696 229.88 620.256 229.656 620.683 229.208C621.12 228.749 621.339 228.147 621.339 227.4C621.339 226.653 621.12 226.056 620.683 225.608C620.256 225.149 619.696 224.92 619.003 224.92C618.31 224.92 617.744 225.149 617.307 225.608C616.88 226.056 616.667 226.653 616.667 227.4C616.667 228.147 616.88 228.749 617.307 229.208C617.744 229.656 618.31 229.88 619.003 229.88Z" fill="#F8F8FA"/>
<rect width="78" height="41" transform="translate(668 205)" fill="#CC8800"/>
<path d="M707.019 231.16C706.262 231.16 705.595 231.005 705.019 230.696C704.454 230.376 704.011 229.939 703.691 229.384C703.382 228.819 703.227 228.168 703.227 227.432C703.227 226.92 703.318 226.397 703.499 225.864C703.691 225.32 703.952 224.755 704.283 224.168L707.035 219.32H708.603L705.435 224.712L705.499 224.76C705.691 224.472 705.968 224.243 706.331 224.072C706.694 223.901 707.104 223.816 707.563 223.816C708.203 223.816 708.763 223.965 709.243 224.264C709.734 224.563 710.112 224.979 710.379 225.512C710.646 226.035 710.779 226.653 710.779 227.368C710.779 228.125 710.619 228.792 710.299 229.368C709.99 229.933 709.552 230.376 708.987 230.696C708.432 231.005 707.776 231.16 707.019 231.16ZM707.003 229.88C707.696 229.88 708.256 229.656 708.683 229.208C709.12 228.749 709.339 228.147 709.339 227.4C709.339 226.653 709.12 226.056 708.683 225.608C708.256 225.149 707.696 224.92 707.003 224.92C706.31 224.92 705.744 225.149 705.307 225.608C704.88 226.056 704.667 226.653 704.667 227.4C704.667 228.147 704.88 228.749 705.307 229.208C705.744 229.656 706.31 229.88 707.003 229.88Z" fill="#F8F8FA"/>
<rect width="49" height="41" transform="translate(756 205)" fill="#CC8800"/>
<path d="M779.827 231.16C779.123 231.16 778.504 231.021 777.971 230.744C777.448 230.456 777.043 230.061 776.755 229.56C776.467 229.059 776.323 228.472 776.323 227.8H777.763C777.763 228.451 777.944 228.963 778.307 229.336C778.68 229.699 779.192 229.88 779.843 229.88C780.504 229.88 781.016 229.688 781.379 229.304C781.742 228.92 781.923 228.419 781.923 227.8V227C781.923 226.339 781.742 225.827 781.379 225.464C781.016 225.101 780.504 224.92 779.843 224.92H778.579V223.672L781.363 220.632H776.803V219.32H782.995V220.664L780.259 223.656C781.208 223.731 781.96 224.067 782.515 224.664C783.08 225.261 783.363 226.04 783.363 227V227.8C783.363 228.472 783.214 229.059 782.915 229.56C782.627 230.061 782.216 230.456 781.683 230.744C781.15 231.021 780.531 231.16 779.827 231.16Z" fill="#F8F8FA"/>
<path d="M648.442 24.9091C648.442 26.0062 648.237 26.9458 647.826 27.728C647.418 28.5069 646.861 29.1035 646.155 29.5178C645.453 29.9321 644.655 30.1392 643.764 30.1392C642.872 30.1392 642.074 29.9321 641.368 29.5178C640.665 29.1001 640.108 28.5019 639.697 27.723C639.289 26.9408 639.086 26.0028 639.086 24.9091C639.086 23.812 639.289 22.8741 639.697 22.0952C640.108 21.313 640.665 20.7147 641.368 20.3004C642.074 19.8861 642.872 19.679 643.764 19.679C644.655 19.679 645.453 19.8861 646.155 20.3004C646.861 20.7147 647.418 21.313 647.826 22.0952C648.237 22.8741 648.442 23.812 648.442 24.9091ZM646.588 24.9091C646.588 24.1368 646.467 23.4856 646.225 22.9553C645.986 22.4216 645.655 22.0189 645.23 21.7472C644.806 21.4721 644.317 21.3345 643.764 21.3345C643.21 21.3345 642.721 21.4721 642.297 21.7472C641.873 22.0189 641.54 22.4216 641.298 22.9553C641.059 23.4856 640.94 24.1368 640.94 24.9091C640.94 25.6813 641.059 26.3343 641.298 26.8679C641.54 27.3982 641.873 27.8009 642.297 28.076C642.721 28.3478 643.21 28.4837 643.764 28.4837C644.317 28.4837 644.806 28.3478 645.23 28.076C645.655 27.8009 645.986 27.3982 646.225 26.8679C646.467 26.3343 646.588 25.6813 646.588 24.9091ZM651.906 19.8182V30H650.106V19.8182H651.906ZM656.591 30.1342C655.991 30.1342 655.454 29.9801 654.98 29.6719C654.506 29.3636 654.131 28.9162 653.856 28.3295C653.581 27.7429 653.444 27.0303 653.444 26.1918C653.444 25.3433 653.583 24.6274 653.861 24.044C654.143 23.4574 654.522 23.0149 655 22.7166C655.477 22.415 656.009 22.2642 656.596 22.2642C657.043 22.2642 657.411 22.3404 657.699 22.4929C657.988 22.642 658.216 22.8227 658.385 23.0348C658.554 23.2436 658.685 23.4408 658.778 23.6264H658.853V19.8182H660.657V30H658.887V28.7969H658.778C658.685 28.9825 658.551 29.1797 658.375 29.3885C658.2 29.594 657.968 29.7696 657.679 29.9155C657.391 30.0613 657.028 30.1342 656.591 30.1342ZM657.093 28.6577C657.474 28.6577 657.799 28.5549 658.067 28.3494C658.336 28.1406 658.539 27.8506 658.679 27.4794C658.818 27.1082 658.887 26.6757 658.887 26.1818C658.887 25.688 658.818 25.2588 658.679 24.8942C658.543 24.5296 658.341 24.2462 658.072 24.044C657.807 23.8419 657.48 23.7408 657.093 23.7408C656.692 23.7408 656.357 23.8452 656.088 24.054C655.82 24.2628 655.618 24.5511 655.482 24.919C655.346 25.2869 655.278 25.7079 655.278 26.1818C655.278 26.6591 655.346 27.085 655.482 27.4595C655.621 27.8307 655.825 28.1241 656.093 28.3395C656.365 28.5516 656.698 28.6577 657.093 28.6577ZM669.379 30.1491C668.633 30.1491 667.987 29.9851 667.44 29.657C666.893 29.3288 666.469 28.8698 666.167 28.2798C665.869 27.6899 665.72 27.0005 665.72 26.2116C665.72 25.4228 665.869 24.7318 666.167 24.1385C666.469 23.5452 666.893 23.0845 667.44 22.7564C667.987 22.4283 668.633 22.2642 669.379 22.2642C670.124 22.2642 670.771 22.4283 671.318 22.7564C671.865 23.0845 672.287 23.5452 672.585 24.1385C672.887 24.7318 673.038 25.4228 673.038 26.2116C673.038 27.0005 672.887 27.6899 672.585 28.2798C672.287 28.8698 671.865 29.3288 671.318 29.657C670.771 29.9851 670.124 30.1491 669.379 30.1491ZM669.389 28.7074C669.793 28.7074 670.131 28.5964 670.403 28.3743C670.675 28.1489 670.877 27.8473 671.009 27.4695C671.145 27.0916 671.213 26.6707 671.213 26.2067C671.213 25.7393 671.145 25.3168 671.009 24.9389C670.877 24.5578 670.675 24.2545 670.403 24.0291C670.131 23.8037 669.793 23.6911 669.389 23.6911C668.974 23.6911 668.63 23.8037 668.355 24.0291C668.083 24.2545 667.879 24.5578 667.743 24.9389C667.61 25.3168 667.544 25.7393 667.544 26.2067C667.544 26.6707 667.61 27.0916 667.743 27.4695C667.879 27.8473 668.083 28.1489 668.355 28.3743C668.63 28.5964 668.974 28.7074 669.389 28.7074ZM679.433 26.7884V22.3636H681.232V30H679.487V28.6428H679.408C679.235 29.0703 678.952 29.42 678.558 29.6918C678.166 29.9635 677.684 30.0994 677.111 30.0994C676.61 30.0994 676.168 29.9884 675.783 29.7663C675.402 29.541 675.104 29.2145 674.888 28.7869C674.673 28.3561 674.565 27.8357 674.565 27.2259V22.3636H676.365V26.9474C676.365 27.4313 676.498 27.8158 676.763 28.1009C677.028 28.3859 677.376 28.5284 677.807 28.5284C678.072 28.5284 678.329 28.4638 678.577 28.3345C678.826 28.2053 679.03 28.013 679.189 27.7578C679.351 27.4993 679.433 27.1761 679.433 26.7884ZM686.896 22.3636V23.7557H682.506V22.3636H686.896ZM683.59 20.5341H685.39V27.7031C685.39 27.9451 685.426 28.1307 685.499 28.2599C685.575 28.3859 685.675 28.4721 685.797 28.5185C685.92 28.5649 686.056 28.5881 686.205 28.5881C686.318 28.5881 686.421 28.5798 686.513 28.5632C686.609 28.5466 686.682 28.5317 686.732 28.5185L687.035 29.9254C686.939 29.9586 686.802 29.995 686.623 30.0348C686.447 30.0746 686.232 30.0978 685.976 30.1044C685.526 30.1177 685.12 30.0497 684.758 29.9006C684.397 29.7481 684.11 29.5128 683.898 29.1946C683.689 28.8764 683.587 28.4787 683.59 28.0014V20.5341ZM688.401 32.8636V22.3636H690.171V23.6264H690.276C690.368 23.4408 690.499 23.2436 690.668 23.0348C690.837 22.8227 691.066 22.642 691.354 22.4929C691.643 22.3404 692.011 22.2642 692.458 22.2642C693.048 22.2642 693.58 22.415 694.054 22.7166C694.531 23.0149 694.909 23.4574 695.188 24.044C695.469 24.6274 695.61 25.3433 695.61 26.1918C695.61 27.0303 695.473 27.7429 695.197 28.3295C694.922 28.9162 694.548 29.3636 694.074 29.6719C693.6 29.9801 693.063 30.1342 692.463 30.1342C692.026 30.1342 691.663 30.0613 691.374 29.9155C691.086 29.7696 690.854 29.594 690.678 29.3885C690.506 29.1797 690.372 28.9825 690.276 28.7969H690.201V32.8636H688.401ZM690.166 26.1818C690.166 26.6757 690.236 27.1082 690.375 27.4794C690.518 27.8506 690.721 28.1406 690.987 28.3494C691.255 28.5549 691.58 28.6577 691.961 28.6577C692.359 28.6577 692.692 28.5516 692.96 28.3395C693.229 28.1241 693.431 27.8307 693.567 27.4595C693.706 27.085 693.776 26.6591 693.776 26.1818C693.776 25.7079 693.708 25.2869 693.572 24.919C693.436 24.5511 693.234 24.2628 692.965 24.054C692.697 23.8452 692.362 23.7408 691.961 23.7408C691.576 23.7408 691.25 23.8419 690.982 24.044C690.713 24.2462 690.509 24.5296 690.37 24.8942C690.234 25.2588 690.166 25.688 690.166 26.1818ZM702.018 26.7884V22.3636H703.818V30H702.073V28.6428H701.994C701.821 29.0703 701.538 29.42 701.143 29.6918C700.752 29.9635 700.27 30.0994 699.697 30.0994C699.196 30.0994 698.754 29.9884 698.369 29.7663C697.988 29.541 697.69 29.2145 697.474 28.7869C697.259 28.3561 697.151 27.8357 697.151 27.2259V22.3636H698.951V26.9474C698.951 27.4313 699.084 27.8158 699.349 28.1009C699.614 28.3859 699.962 28.5284 700.393 28.5284C700.658 28.5284 700.915 28.4638 701.163 28.3345C701.412 28.2053 701.616 28.013 701.775 27.7578C701.937 27.4993 702.018 27.1761 702.018 26.7884ZM709.482 22.3636V23.7557H705.092V22.3636H709.482ZM706.176 20.5341H707.976V27.7031C707.976 27.9451 708.012 28.1307 708.085 28.2599C708.161 28.3859 708.261 28.4721 708.383 28.5185C708.506 28.5649 708.642 28.5881 708.791 28.5881C708.904 28.5881 709.006 28.5798 709.099 28.5632C709.195 28.5466 709.268 28.5317 709.318 28.5185L709.621 29.9254C709.525 29.9586 709.388 29.995 709.209 30.0348C709.033 30.0746 708.818 30.0978 708.562 30.1044C708.112 30.1177 707.706 30.0497 707.344 29.9006C706.983 29.7481 706.696 29.5128 706.484 29.1946C706.275 28.8764 706.173 28.4787 706.176 28.0014V20.5341ZM718.273 22.3636V23.7557H713.883V22.3636H718.273ZM714.967 20.5341H716.767V27.7031C716.767 27.9451 716.803 28.1307 716.876 28.2599C716.952 28.3859 717.052 28.4721 717.174 28.5185C717.297 28.5649 717.433 28.5881 717.582 28.5881C717.695 28.5881 717.797 28.5798 717.89 28.5632C717.986 28.5466 718.059 28.5317 718.109 28.5185L718.412 29.9254C718.316 29.9586 718.179 29.995 718 30.0348C717.824 30.0746 717.609 30.0978 717.353 30.1044C716.903 30.1177 716.497 30.0497 716.135 29.9006C715.774 29.7481 715.487 29.5128 715.275 29.1946C715.066 28.8764 714.964 28.4787 714.967 28.0014V20.5341ZM721.976 30.1541C721.492 30.1541 721.056 30.0679 720.668 29.8956C720.284 29.7199 719.979 29.4614 719.753 29.12C719.531 28.7786 719.42 28.3577 719.42 27.8572C719.42 27.4264 719.5 27.0701 719.659 26.7884C719.818 26.5066 720.035 26.2812 720.31 26.1122C720.585 25.9432 720.895 25.8156 721.24 25.7294C721.588 25.6399 721.948 25.5753 722.319 25.5355C722.766 25.4891 723.129 25.4477 723.407 25.4112C723.686 25.3714 723.888 25.3118 724.014 25.2322C724.143 25.1494 724.208 25.0218 724.208 24.8494V24.8196C724.208 24.4451 724.097 24.1551 723.875 23.9496C723.653 23.7441 723.333 23.6413 722.915 23.6413C722.474 23.6413 722.125 23.7375 721.866 23.9297C721.611 24.1219 721.439 24.349 721.349 24.6108L719.669 24.3722C719.801 23.9081 720.02 23.5204 720.325 23.2088C720.63 22.8939 721.003 22.6586 721.444 22.5028C721.885 22.3438 722.372 22.2642 722.905 22.2642C723.273 22.2642 723.64 22.3073 724.004 22.3935C724.369 22.4796 724.702 22.6222 725.003 22.821C725.305 23.0166 725.547 23.2834 725.729 23.6214C725.915 23.9595 726.008 24.3821 726.008 24.8892V30H724.278V28.951H724.218C724.108 29.1631 723.954 29.362 723.756 29.5476C723.56 29.7299 723.313 29.8774 723.015 29.9901C722.72 30.0994 722.373 30.1541 721.976 30.1541ZM722.443 28.8317C722.804 28.8317 723.117 28.7604 723.383 28.6179C723.648 28.4721 723.852 28.2798 723.994 28.0412C724.14 27.8026 724.213 27.5424 724.213 27.2607V26.3608C724.157 26.4072 724.06 26.4503 723.925 26.4901C723.792 26.5298 723.643 26.5646 723.477 26.5945C723.311 26.6243 723.147 26.6508 722.985 26.674C722.823 26.6972 722.682 26.7171 722.562 26.7337C722.294 26.7701 722.054 26.8298 721.841 26.9126C721.629 26.9955 721.462 27.1115 721.339 27.2607C721.217 27.4065 721.155 27.5954 721.155 27.8274C721.155 28.1589 721.276 28.4091 721.518 28.5781C721.76 28.7472 722.068 28.8317 722.443 28.8317ZM727.897 30V19.8182H729.697V23.6264H729.771C729.864 23.4408 729.995 23.2436 730.164 23.0348C730.333 22.8227 730.562 22.642 730.85 22.4929C731.138 22.3404 731.506 22.2642 731.954 22.2642C732.544 22.2642 733.076 22.415 733.55 22.7166C734.027 23.0149 734.405 23.4574 734.683 24.044C734.965 24.6274 735.106 25.3433 735.106 26.1918C735.106 27.0303 734.968 27.7429 734.693 28.3295C734.418 28.9162 734.043 29.3636 733.569 29.6719C733.095 29.9801 732.559 30.1342 731.959 30.1342C731.521 30.1342 731.158 30.0613 730.87 29.9155C730.581 29.7696 730.349 29.594 730.174 29.3885C730.001 29.1797 729.867 28.9825 729.771 28.7969H729.667V30H727.897ZM729.662 26.1818C729.662 26.6757 729.731 27.1082 729.871 27.4794C730.013 27.8506 730.217 28.1406 730.482 28.3494C730.751 28.5549 731.075 28.6577 731.456 28.6577C731.854 28.6577 732.187 28.5516 732.456 28.3395C732.724 28.1241 732.926 27.8307 733.062 27.4595C733.202 27.085 733.271 26.6591 733.271 26.1818C733.271 25.7079 733.203 25.2869 733.067 24.919C732.931 24.5511 732.729 24.2628 732.461 24.054C732.192 23.8452 731.858 23.7408 731.456 23.7408C731.072 23.7408 730.746 23.8419 730.477 24.044C730.209 24.2462 730.005 24.5296 729.866 24.8942C729.73 25.2588 729.662 25.688 729.662 26.1818ZM738.435 19.8182V30H736.636V19.8182H738.435ZM743.667 30.1491C742.901 30.1491 742.24 29.9901 741.683 29.6719C741.13 29.3504 740.704 28.8963 740.405 28.3097C740.107 27.7197 739.958 27.0253 739.958 26.2266C739.958 25.4411 740.107 24.7517 740.405 24.1584C740.707 23.5618 741.128 23.0978 741.668 22.7663C742.208 22.4316 742.843 22.2642 743.572 22.2642C744.043 22.2642 744.487 22.3404 744.905 22.4929C745.326 22.642 745.697 22.8741 746.018 23.1889C746.343 23.5038 746.598 23.9048 746.784 24.392C746.97 24.8759 747.062 25.4527 747.062 26.1222V26.674H740.803V25.4609H745.337C745.334 25.1162 745.259 24.8097 745.113 24.5412C744.968 24.2694 744.764 24.0556 744.502 23.8999C744.243 23.7441 743.942 23.6662 743.597 23.6662C743.229 23.6662 742.906 23.7557 742.628 23.9347C742.349 24.1103 742.132 24.3423 741.976 24.6307C741.824 24.9157 741.746 25.2289 741.743 25.5703V26.6293C741.743 27.0734 741.824 27.4545 741.986 27.7727C742.149 28.0876 742.376 28.3295 742.667 28.4986C742.959 28.6643 743.3 28.7472 743.692 28.7472C743.953 28.7472 744.19 28.7107 744.403 28.6378C744.615 28.5616 744.799 28.4505 744.954 28.3047C745.11 28.1589 745.228 27.9782 745.307 27.7628L746.988 27.9517C746.882 28.3958 746.68 28.7836 746.381 29.1151C746.086 29.4432 745.708 29.6984 745.248 29.8807C744.787 30.0597 744.26 30.1491 743.667 30.1491Z" fill="#1D1D1F"/>
<path d="M643.691 266.818V277H642.05L637.253 270.065H637.168V277H635.324V266.818H636.974L641.767 273.759H641.856V266.818H643.691ZM649.002 277.149C648.236 277.149 647.575 276.99 647.018 276.672C646.465 276.35 646.039 275.896 645.74 275.31C645.442 274.72 645.293 274.025 645.293 273.227C645.293 272.441 645.442 271.752 645.74 271.158C646.042 270.562 646.463 270.098 647.003 269.766C647.543 269.432 648.178 269.264 648.907 269.264C649.378 269.264 649.822 269.34 650.24 269.493C650.661 269.642 651.032 269.874 651.353 270.189C651.678 270.504 651.933 270.905 652.119 271.392C652.304 271.876 652.397 272.453 652.397 273.122V273.674H646.138V272.461H650.672C650.669 272.116 650.594 271.81 650.448 271.541C650.303 271.269 650.099 271.056 649.837 270.9C649.578 270.744 649.277 270.666 648.932 270.666C648.564 270.666 648.241 270.756 647.963 270.935C647.684 271.11 647.467 271.342 647.311 271.631C647.159 271.916 647.081 272.229 647.078 272.57V273.629C647.078 274.073 647.159 274.455 647.321 274.773C647.484 275.088 647.711 275.33 648.002 275.499C648.294 275.664 648.635 275.747 649.027 275.747C649.288 275.747 649.525 275.711 649.737 275.638C649.95 275.562 650.134 275.451 650.289 275.305C650.445 275.159 650.563 274.978 650.642 274.763L652.323 274.952C652.217 275.396 652.014 275.784 651.716 276.115C651.421 276.443 651.043 276.698 650.583 276.881C650.122 277.06 649.595 277.149 649.002 277.149ZM655.455 277L653.297 269.364H655.132L656.474 274.733H656.544L657.916 269.364H659.73L661.103 274.703H661.177L662.5 269.364H664.339L662.176 277H660.302L658.87 271.839H658.766L657.334 277H655.455ZM672.399 277.149C671.653 277.149 671.007 276.985 670.46 276.657C669.913 276.329 669.489 275.87 669.188 275.28C668.889 274.69 668.74 274 668.74 273.212C668.74 272.423 668.889 271.732 669.188 271.138C669.489 270.545 669.913 270.085 670.46 269.756C671.007 269.428 671.653 269.264 672.399 269.264C673.145 269.264 673.791 269.428 674.338 269.756C674.885 270.085 675.308 270.545 675.606 271.138C675.908 271.732 676.058 272.423 676.058 273.212C676.058 274 675.908 274.69 675.606 275.28C675.308 275.87 674.885 276.329 674.338 276.657C673.791 276.985 673.145 277.149 672.399 277.149ZM672.409 275.707C672.814 275.707 673.152 275.596 673.423 275.374C673.695 275.149 673.897 274.847 674.03 274.469C674.166 274.092 674.234 273.671 674.234 273.207C674.234 272.739 674.166 272.317 674.03 271.939C673.897 271.558 673.695 271.254 673.423 271.029C673.152 270.804 672.814 270.691 672.409 270.691C671.995 270.691 671.65 270.804 671.375 271.029C671.103 271.254 670.899 271.558 670.764 271.939C670.631 272.317 670.565 272.739 670.565 273.207C670.565 273.671 670.631 274.092 670.764 274.469C670.899 274.847 671.103 275.149 671.375 275.374C671.65 275.596 671.995 275.707 672.409 275.707ZM682.453 273.788V269.364H684.253V277H682.508V275.643H682.428C682.256 276.07 681.972 276.42 681.578 276.692C681.187 276.964 680.705 277.099 680.131 277.099C679.631 277.099 679.188 276.988 678.804 276.766C678.423 276.541 678.124 276.214 677.909 275.787C677.694 275.356 677.586 274.836 677.586 274.226V269.364H679.386V273.947C679.386 274.431 679.518 274.816 679.783 275.101C680.048 275.386 680.396 275.528 680.827 275.528C681.092 275.528 681.349 275.464 681.598 275.335C681.847 275.205 682.05 275.013 682.209 274.758C682.372 274.499 682.453 274.176 682.453 273.788ZM689.917 269.364V270.756H685.527V269.364H689.917ZM686.611 267.534H688.41V274.703C688.41 274.945 688.447 275.131 688.52 275.26C688.596 275.386 688.695 275.472 688.818 275.518C688.941 275.565 689.076 275.588 689.226 275.588C689.338 275.588 689.441 275.58 689.534 275.563C689.63 275.547 689.703 275.532 689.753 275.518L690.056 276.925C689.96 276.959 689.822 276.995 689.643 277.035C689.468 277.075 689.252 277.098 688.997 277.104C688.546 277.118 688.14 277.05 687.779 276.901C687.418 276.748 687.131 276.513 686.919 276.195C686.71 275.876 686.607 275.479 686.611 275.001V267.534ZM691.422 279.864V269.364H693.192V270.626H693.296C693.389 270.441 693.52 270.244 693.689 270.035C693.858 269.823 694.087 269.642 694.375 269.493C694.663 269.34 695.031 269.264 695.479 269.264C696.069 269.264 696.601 269.415 697.074 269.717C697.552 270.015 697.93 270.457 698.208 271.044C698.49 271.627 698.631 272.343 698.631 273.192C698.631 274.03 698.493 274.743 698.218 275.33C697.943 275.916 697.568 276.364 697.094 276.672C696.62 276.98 696.083 277.134 695.484 277.134C695.046 277.134 694.683 277.061 694.395 276.915C694.106 276.77 693.874 276.594 693.699 276.388C693.526 276.18 693.392 275.982 693.296 275.797H693.222V279.864H691.422ZM693.187 273.182C693.187 273.676 693.256 274.108 693.396 274.479C693.538 274.851 693.742 275.141 694.007 275.349C694.275 275.555 694.6 275.658 694.981 275.658C695.379 275.658 695.712 275.552 695.981 275.339C696.249 275.124 696.451 274.831 696.587 274.46C696.726 274.085 696.796 273.659 696.796 273.182C696.796 272.708 696.728 272.287 696.592 271.919C696.456 271.551 696.254 271.263 695.986 271.054C695.717 270.845 695.382 270.741 694.981 270.741C694.597 270.741 694.271 270.842 694.002 271.044C693.734 271.246 693.53 271.53 693.391 271.894C693.255 272.259 693.187 272.688 693.187 273.182ZM705.039 273.788V269.364H706.839V277H705.094V275.643H705.014C704.842 276.07 704.558 276.42 704.164 276.692C703.773 276.964 703.291 277.099 702.717 277.099C702.217 277.099 701.774 276.988 701.39 276.766C701.009 276.541 700.71 276.214 700.495 275.787C700.28 275.356 700.172 274.836 700.172 274.226V269.364H701.972V273.947C701.972 274.431 702.104 274.816 702.369 275.101C702.634 275.386 702.982 275.528 703.413 275.528C703.678 275.528 703.935 275.464 704.184 275.335C704.432 275.205 704.636 275.013 704.795 274.758C704.958 274.499 705.039 274.176 705.039 273.788ZM712.503 269.364V270.756H708.113V269.364H712.503ZM709.196 267.534H710.996V274.703C710.996 274.945 711.033 275.131 711.106 275.26C711.182 275.386 711.281 275.472 711.404 275.518C711.526 275.565 711.662 275.588 711.812 275.588C711.924 275.588 712.027 275.58 712.12 275.563C712.216 275.547 712.289 275.532 712.339 275.518L712.642 276.925C712.546 276.959 712.408 276.995 712.229 277.035C712.053 277.075 711.838 277.098 711.583 277.104C711.132 277.118 710.726 277.05 710.365 276.901C710.004 276.748 709.717 276.513 709.505 276.195C709.296 275.876 709.193 275.479 709.196 275.001V267.534ZM721.294 269.364V270.756H716.904V269.364H721.294ZM717.987 267.534H719.787V274.703C719.787 274.945 719.824 275.131 719.897 275.26C719.973 275.386 720.072 275.472 720.195 275.518C720.318 275.565 720.453 275.588 720.603 275.588C720.715 275.588 720.818 275.58 720.911 275.563C721.007 275.547 721.08 275.532 721.13 275.518L721.433 276.925C721.337 276.959 721.199 276.995 721.02 277.035C720.844 277.075 720.629 277.098 720.374 277.104C719.923 277.118 719.517 277.05 719.156 276.901C718.795 276.748 718.508 276.513 718.296 276.195C718.087 275.876 717.984 275.479 717.987 275.001V267.534ZM724.996 277.154C724.512 277.154 724.076 277.068 723.689 276.896C723.304 276.72 722.999 276.461 722.774 276.12C722.552 275.779 722.441 275.358 722.441 274.857C722.441 274.426 722.52 274.07 722.679 273.788C722.839 273.507 723.056 273.281 723.331 273.112C723.606 272.943 723.916 272.816 724.26 272.729C724.608 272.64 724.968 272.575 725.339 272.536C725.787 272.489 726.15 272.448 726.428 272.411C726.706 272.371 726.909 272.312 727.035 272.232C727.164 272.149 727.228 272.022 727.228 271.849V271.82C727.228 271.445 727.117 271.155 726.895 270.95C726.673 270.744 726.353 270.641 725.936 270.641C725.495 270.641 725.145 270.737 724.887 270.93C724.632 271.122 724.459 271.349 724.37 271.611L722.689 271.372C722.822 270.908 723.041 270.52 723.346 270.209C723.651 269.894 724.023 269.659 724.464 269.503C724.905 269.344 725.392 269.264 725.926 269.264C726.294 269.264 726.66 269.307 727.025 269.393C727.389 269.48 727.722 269.622 728.024 269.821C728.325 270.017 728.567 270.283 728.75 270.621C728.935 270.96 729.028 271.382 729.028 271.889V277H727.298V275.951H727.238C727.129 276.163 726.975 276.362 726.776 276.548C726.58 276.73 726.334 276.877 726.035 276.99C725.74 277.099 725.394 277.154 724.996 277.154ZM725.464 275.832C725.825 275.832 726.138 275.76 726.403 275.618C726.668 275.472 726.872 275.28 727.015 275.041C727.16 274.803 727.233 274.542 727.233 274.261V273.361C727.177 273.407 727.081 273.45 726.945 273.49C726.812 273.53 726.663 273.565 726.498 273.594C726.332 273.624 726.168 273.651 726.005 273.674C725.843 273.697 725.702 273.717 725.583 273.734C725.314 273.77 725.074 273.83 724.862 273.913C724.65 273.996 724.482 274.112 724.36 274.261C724.237 274.406 724.176 274.595 724.176 274.827C724.176 275.159 724.297 275.409 724.539 275.578C724.781 275.747 725.089 275.832 725.464 275.832ZM730.917 277V266.818H732.717V270.626H732.792C732.884 270.441 733.015 270.244 733.184 270.035C733.353 269.823 733.582 269.642 733.87 269.493C734.159 269.34 734.527 269.264 734.974 269.264C735.564 269.264 736.096 269.415 736.57 269.717C737.047 270.015 737.425 270.457 737.704 271.044C737.985 271.627 738.126 272.343 738.126 273.192C738.126 274.03 737.989 274.743 737.714 275.33C737.438 275.916 737.064 276.364 736.59 276.672C736.116 276.98 735.579 277.134 734.979 277.134C734.542 277.134 734.179 277.061 733.89 276.915C733.602 276.77 733.37 276.594 733.194 276.388C733.022 276.18 732.888 275.982 732.792 275.797H732.687V277H730.917ZM732.682 273.182C732.682 273.676 732.752 274.108 732.891 274.479C733.034 274.851 733.237 275.141 733.503 275.349C733.771 275.555 734.096 275.658 734.477 275.658C734.875 275.658 735.208 275.552 735.476 275.339C735.745 275.124 735.947 274.831 736.083 274.46C736.222 274.085 736.292 273.659 736.292 273.182C736.292 272.708 736.224 272.287 736.088 271.919C735.952 271.551 735.75 271.263 735.481 271.054C735.213 270.845 734.878 270.741 734.477 270.741C734.093 270.741 733.766 270.842 733.498 271.044C733.229 271.246 733.025 271.53 732.886 271.894C732.75 272.259 732.682 272.688 732.682 273.182ZM741.456 266.818V277H739.656V266.818H741.456ZM746.687 277.149C745.922 277.149 745.26 276.99 744.704 276.672C744.15 276.35 743.724 275.896 743.426 275.31C743.128 274.72 742.978 274.025 742.978 273.227C742.978 272.441 743.128 271.752 743.426 271.158C743.727 270.562 744.148 270.098 744.689 269.766C745.229 269.432 745.864 269.264 746.593 269.264C747.063 269.264 747.508 269.34 747.925 269.493C748.346 269.642 748.717 269.874 749.039 270.189C749.364 270.504 749.619 270.905 749.804 271.392C749.99 271.876 750.083 272.453 750.083 273.122V273.674H743.824V272.461H748.358C748.354 272.116 748.28 271.81 748.134 271.541C747.988 271.269 747.784 271.056 747.522 270.9C747.264 270.744 746.962 270.666 746.618 270.666C746.25 270.666 745.927 270.756 745.648 270.935C745.37 271.11 745.153 271.342 744.997 271.631C744.844 271.916 744.767 272.229 744.763 272.57V273.629C744.763 274.073 744.844 274.455 745.007 274.773C745.169 275.088 745.396 275.33 745.688 275.499C745.98 275.664 746.321 275.747 746.712 275.747C746.974 275.747 747.211 275.711 747.423 275.638C747.635 275.562 747.819 275.451 747.975 275.305C748.131 275.159 748.248 274.978 748.328 274.763L750.008 274.952C749.902 275.396 749.7 275.784 749.402 276.115C749.107 276.443 748.729 276.698 748.268 276.881C747.807 277.06 747.281 277.149 746.687 277.149Z" fill="#1D1D1F"/>
<path d="M694 94V93H692V94H694ZM780.293 202.707C780.683 203.098 781.317 203.098 781.707 202.707L788.071 196.343C788.462 195.953 788.462 195.319 788.071 194.929C787.681 194.538 787.047 194.538 786.657 194.929L781 200.586L775.343 194.929C774.953 194.538 774.319 194.538 773.929 194.929C773.538 195.319 773.538 195.953 773.929 196.343L780.293 202.707ZM692 94V106.143H694V94H692ZM782 202V189.857H780V202H782ZM698.605 119.595L774.172 177.987L775.395 176.405L699.828 118.013L698.605 119.595ZM782 189.857C782 184.592 779.561 179.624 775.395 176.405L774.172 177.987C777.848 180.828 780 185.211 780 189.857H782ZM692 106.143C692 111.408 694.439 116.376 698.605 119.595L699.828 118.013C696.152 115.172 694 110.789 694 106.143H692Z" fill="#CC8800"/>
<path d="M620.5 94V93H618.5V94H620.5ZM618.793 202.707C619.183 203.098 619.817 203.098 620.207 202.707L626.571 196.343C626.962 195.953 626.962 195.319 626.571 194.929C626.181 194.538 625.547 194.538 625.157 194.929L619.5 200.586L613.843 194.929C613.453 194.538 612.819 194.538 612.429 194.929C612.038 195.319 612.038 195.953 612.429 196.343L618.793 202.707ZM618.5 94V114H620.5V94H618.5ZM620.5 202V182H618.5V202H620.5ZM618.5 114V182H620.5V114H618.5Z" fill="#CC8800"/>
<path d="M361 146C360.448 146 360 146.448 360 147C360 147.552 360.448 148 361 148V146ZM539.707 147.707C540.098 147.317 540.098 146.683 539.707 146.293L533.343 139.929C532.953 139.538 532.319 139.538 531.929 139.929C531.538 140.319 531.538 140.953 531.929 141.343L537.586 147L531.929 152.657C531.538 153.047 531.538 153.681 531.929 154.071C532.319 154.462 532.953 154.462 533.343 154.071L539.707 147.707ZM361 148H539V146H361V148Z" fill="#CC8800"/>
<rect width="78" height="35" transform="translate(412 130)" fill="#CC8800"/>
<path d="M422.861 152V143.273H428.452V144.598H424.442V146.967H428.068V148.293H424.442V152H422.861ZM432.199 152.128C431.559 152.128 431.005 151.987 430.537 151.706C430.068 151.425 429.704 151.031 429.446 150.526C429.19 150.02 429.062 149.429 429.062 148.753C429.062 148.077 429.19 147.484 429.446 146.976C429.704 146.467 430.068 146.072 430.537 145.791C431.005 145.51 431.559 145.369 432.199 145.369C432.838 145.369 433.392 145.51 433.86 145.791C434.329 146.072 434.691 146.467 434.947 146.976C435.206 147.484 435.335 148.077 435.335 148.753C435.335 149.429 435.206 150.02 434.947 150.526C434.691 151.031 434.329 151.425 433.86 151.706C433.392 151.987 432.838 152.128 432.199 152.128ZM432.207 150.892C432.554 150.892 432.843 150.797 433.076 150.607C433.309 150.413 433.483 150.155 433.596 149.831C433.713 149.507 433.771 149.146 433.771 148.749C433.771 148.348 433.713 147.986 433.596 147.662C433.483 147.335 433.309 147.075 433.076 146.882C432.843 146.689 432.554 146.592 432.207 146.592C431.852 146.592 431.556 146.689 431.321 146.882C431.088 147.075 430.913 147.335 430.797 147.662C430.683 147.986 430.626 148.348 430.626 148.749C430.626 149.146 430.683 149.507 430.797 149.831C430.913 150.155 431.088 150.413 431.321 150.607C431.556 150.797 431.852 150.892 432.207 150.892ZM436.644 152V145.455H438.14V146.545H438.208C438.327 146.168 438.532 145.876 438.822 145.672C439.114 145.464 439.448 145.361 439.823 145.361C439.908 145.361 440.004 145.365 440.109 145.374C440.217 145.379 440.306 145.389 440.377 145.403V146.822C440.312 146.8 440.208 146.78 440.066 146.763C439.927 146.743 439.792 146.733 439.661 146.733C439.38 146.733 439.127 146.794 438.903 146.916C438.681 147.036 438.506 147.202 438.379 147.415C438.251 147.628 438.187 147.874 438.187 148.152V152H436.644ZM442.638 143.273L444.909 150.142H444.999L447.266 143.273H449.004L445.928 152H443.976L440.903 143.273H442.638ZM451.289 152.132C450.875 152.132 450.501 152.058 450.169 151.911C449.839 151.76 449.578 151.538 449.385 151.246C449.194 150.953 449.099 150.592 449.099 150.163C449.099 149.794 449.167 149.489 449.304 149.247C449.44 149.006 449.626 148.812 449.862 148.668C450.098 148.523 450.363 148.413 450.659 148.339C450.957 148.263 451.265 148.207 451.583 148.173C451.967 148.134 452.278 148.098 452.517 148.067C452.755 148.033 452.929 147.982 453.037 147.913C453.147 147.842 453.203 147.733 453.203 147.585V147.56C453.203 147.239 453.108 146.99 452.917 146.814C452.727 146.638 452.453 146.55 452.095 146.55C451.717 146.55 451.417 146.632 451.196 146.797C450.977 146.962 450.829 147.156 450.752 147.381L449.312 147.176C449.426 146.778 449.613 146.446 449.875 146.179C450.136 145.909 450.456 145.707 450.833 145.574C451.211 145.438 451.629 145.369 452.086 145.369C452.402 145.369 452.716 145.406 453.028 145.48C453.341 145.554 453.626 145.676 453.885 145.847C454.143 146.014 454.35 146.243 454.507 146.533C454.666 146.822 454.745 147.185 454.745 147.619V152H453.262V151.101H453.211C453.118 151.283 452.985 151.453 452.815 151.612C452.647 151.768 452.436 151.895 452.18 151.991C451.927 152.085 451.63 152.132 451.289 152.132ZM451.69 150.999C452 150.999 452.268 150.937 452.495 150.815C452.723 150.69 452.897 150.526 453.02 150.321C453.145 150.116 453.207 149.893 453.207 149.652V148.881C453.159 148.92 453.076 148.957 452.96 148.991C452.846 149.026 452.718 149.055 452.576 149.081C452.434 149.107 452.294 149.129 452.154 149.149C452.015 149.169 451.895 149.186 451.792 149.2C451.562 149.232 451.356 149.283 451.174 149.354C450.993 149.425 450.849 149.524 450.744 149.652C450.639 149.777 450.586 149.939 450.586 150.138C450.586 150.422 450.69 150.636 450.897 150.781C451.105 150.926 451.369 150.999 451.69 150.999ZM457.839 143.273V152H456.297V143.273H457.839ZM463.597 149.247V145.455H465.14V152H463.644V150.837H463.576C463.428 151.203 463.185 151.503 462.847 151.736C462.512 151.969 462.099 152.085 461.607 152.085C461.178 152.085 460.799 151.99 460.469 151.8C460.143 151.607 459.887 151.327 459.702 150.96C459.518 150.591 459.425 150.145 459.425 149.622V145.455H460.968V149.384C460.968 149.798 461.082 150.128 461.309 150.372C461.536 150.616 461.835 150.739 462.204 150.739C462.431 150.739 462.651 150.683 462.864 150.572C463.077 150.462 463.252 150.297 463.388 150.078C463.528 149.857 463.597 149.58 463.597 149.247ZM469.624 152.128C468.968 152.128 468.401 151.991 467.924 151.719C467.449 151.443 467.084 151.054 466.828 150.551C466.573 150.045 466.445 149.45 466.445 148.766C466.445 148.092 466.573 147.501 466.828 146.993C467.087 146.482 467.448 146.084 467.911 145.8C468.374 145.513 468.918 145.369 469.543 145.369C469.946 145.369 470.327 145.435 470.685 145.565C471.046 145.693 471.364 145.892 471.64 146.162C471.918 146.432 472.137 146.776 472.296 147.193C472.455 147.608 472.534 148.102 472.534 148.676V149.149H467.169V148.109H471.056C471.053 147.814 470.989 147.551 470.864 147.321C470.739 147.088 470.564 146.905 470.34 146.771C470.118 146.638 469.86 146.571 469.564 146.571C469.249 146.571 468.972 146.648 468.733 146.801C468.495 146.952 468.309 147.151 468.175 147.398C468.044 147.642 467.978 147.911 467.975 148.203V149.111C467.975 149.491 468.044 149.818 468.184 150.091C468.323 150.361 468.517 150.568 468.767 150.713C469.017 150.855 469.31 150.926 469.645 150.926C469.87 150.926 470.073 150.895 470.255 150.832C470.436 150.767 470.594 150.672 470.728 150.547C470.861 150.422 470.962 150.267 471.03 150.082L472.471 150.244C472.38 150.625 472.206 150.957 471.951 151.241C471.698 151.523 471.374 151.741 470.979 151.898C470.584 152.051 470.132 152.128 469.624 152.128ZM479.013 147.185L477.607 147.338C477.567 147.196 477.497 147.062 477.398 146.938C477.301 146.812 477.17 146.712 477.006 146.635C476.841 146.558 476.639 146.52 476.401 146.52C476.08 146.52 475.81 146.589 475.591 146.729C475.375 146.868 475.268 147.048 475.271 147.27C475.268 147.46 475.338 147.615 475.48 147.734C475.625 147.854 475.864 147.952 476.196 148.028L477.312 148.267C477.932 148.401 478.392 148.612 478.693 148.902C478.997 149.192 479.151 149.571 479.153 150.04C479.151 150.452 479.03 150.815 478.791 151.131C478.555 151.443 478.227 151.687 477.807 151.864C477.386 152.04 476.903 152.128 476.358 152.128C475.557 152.128 474.912 151.96 474.423 151.625C473.935 151.287 473.643 150.817 473.55 150.214L475.054 150.07C475.122 150.365 475.267 150.588 475.489 150.739C475.71 150.889 475.999 150.964 476.354 150.964C476.72 150.964 477.014 150.889 477.236 150.739C477.46 150.588 477.572 150.402 477.572 150.18C477.572 149.993 477.5 149.838 477.355 149.716C477.213 149.594 476.991 149.5 476.69 149.435L475.574 149.2C474.946 149.07 474.482 148.849 474.18 148.54C473.879 148.227 473.73 147.832 473.733 147.355C473.73 146.952 473.839 146.602 474.061 146.307C474.286 146.009 474.597 145.778 474.994 145.616C475.395 145.452 475.857 145.369 476.379 145.369C477.146 145.369 477.75 145.533 478.19 145.859C478.634 146.186 478.908 146.628 479.013 147.185Z" fill="#F8F8FA"/>
</svg>
