<svg width="900" height="296" viewBox="0 0 900 296" fill="none" xmlns="http://www.w3.org/2000/svg">
<rect width="78" height="41" transform="translate(85 50)" fill="#FFAA00"/>
<path d="M100.019 76.16C98.9734 76.16 98.1468 75.8613 97.5388 75.264C96.9308 74.6667 96.6268 73.8453 96.6268 72.8V67.52C96.6268 66.4747 96.9308 65.6533 97.5388 65.056C98.1468 64.4587 98.9734 64.16 100.019 64.16C101.064 64.16 101.891 64.4587 102.499 65.056C103.107 65.6427 103.411 66.4587 103.411 67.504V72.8C103.411 73.8453 103.107 74.6667 102.499 75.264C101.891 75.8613 101.064 76.16 100.019 76.16ZM100.019 74.864C100.648 74.864 101.128 74.688 101.459 74.336C101.8 73.9733 101.971 73.4613 101.971 72.8V67.52C101.971 66.8587 101.8 66.352 101.459 66C101.128 65.6373 100.648 65.456 100.019 65.456C99.4001 65.456 98.9201 65.6373 98.5788 66C98.2374 66.352 98.0668 66.8587 98.0668 67.52V72.8C98.0668 73.4613 98.2374 73.9733 98.5788 74.336C98.9201 74.688 99.4001 74.864 100.019 74.864ZM106.557 76V67.2H107.997V68.88H108.013C108.087 68.2933 108.327 67.84 108.733 67.52C109.138 67.2 109.677 67.04 110.349 67.04C111.266 67.04 111.997 67.3333 112.541 67.92C113.085 68.496 113.357 69.28 113.357 70.272V70.88H111.917V70.4C111.917 69.728 111.746 69.2107 111.405 68.848C111.063 68.4747 110.567 68.288 109.917 68.288C108.637 68.288 107.997 68.992 107.997 70.4V76H106.557ZM118.438 76.16C117.51 76.16 116.78 75.9253 116.246 75.456C115.713 74.976 115.446 74.3307 115.446 73.52C115.446 72.6987 115.713 72.0533 116.246 71.584C116.78 71.1147 117.5 70.88 118.406 70.88H121.126V70C121.126 69.4667 120.961 69.0507 120.63 68.752C120.31 68.4533 119.862 68.304 119.286 68.304C118.774 68.304 118.342 68.416 117.99 68.64C117.638 68.864 117.42 69.1573 117.334 69.52H115.894C115.948 69.0293 116.124 68.5973 116.422 68.224C116.732 67.8507 117.132 67.5627 117.622 67.36C118.124 67.1467 118.678 67.04 119.286 67.04C120.3 67.04 121.1 67.3013 121.686 67.824C122.273 68.3467 122.566 69.056 122.566 69.952V76H121.158V74.32H121.142C121.078 74.8853 120.801 75.3333 120.31 75.664C119.83 75.9947 119.206 76.16 118.438 76.16ZM118.79 75.024C119.473 75.024 120.033 74.8533 120.47 74.512C120.908 74.1707 121.126 73.7333 121.126 73.2V71.952H118.438C117.958 71.952 117.58 72.0853 117.302 72.352C117.025 72.6187 116.886 72.9813 116.886 73.44C116.886 73.9307 117.052 74.32 117.382 74.608C117.724 74.8853 118.193 75.024 118.79 75.024ZM125.472 76V67.2H126.912V68.88H126.928C127.003 68.2933 127.243 67.84 127.648 67.52C128.053 67.2 128.592 67.04 129.264 67.04C130.149 67.04 130.853 67.312 131.376 67.856C131.899 68.4 132.16 69.1413 132.16 70.08V76H130.72V70.24C130.72 69.6107 130.549 69.1307 130.208 68.8C129.877 68.4587 129.424 68.288 128.848 68.288C128.251 68.288 127.776 68.4693 127.424 68.832C127.083 69.1947 126.912 69.7173 126.912 70.4V76H125.472ZM136.17 78.88V77.568H138.97C139.834 77.568 140.266 77.152 140.266 76.32V75.2L140.298 73.6H140.266C140.212 74.1653 139.972 74.6133 139.546 74.944C139.13 75.2747 138.591 75.44 137.93 75.44C137.023 75.44 136.308 75.1467 135.786 74.56C135.263 73.9627 135.002 73.1627 135.002 72.16V70.304C135.002 69.3013 135.263 68.5067 135.786 67.92C136.308 67.3333 137.023 67.04 137.93 67.04C138.591 67.04 139.13 67.2053 139.546 67.536C139.972 67.8667 140.212 68.3147 140.266 68.88H140.282V67.2H141.706V76.32C141.706 77.1093 141.46 77.7333 140.97 78.192C140.49 78.6507 139.818 78.88 138.954 78.88H136.17ZM138.362 74.192C138.959 74.192 139.428 74.0053 139.77 73.632C140.111 73.2587 140.282 72.7413 140.282 72.08V70.4C140.282 69.7387 140.111 69.2213 139.77 68.848C139.428 68.4747 138.959 68.288 138.362 68.288C137.754 68.288 137.279 68.4693 136.938 68.832C136.607 69.1947 136.442 69.7173 136.442 70.4V72.08C136.442 72.7627 136.607 73.2853 136.938 73.648C137.279 74.0107 137.754 74.192 138.362 74.192ZM147.988 76.16C147.294 76.16 146.686 76.0213 146.164 75.744C145.652 75.4667 145.252 75.0773 144.964 74.576C144.686 74.064 144.548 73.472 144.548 72.8V70.4C144.548 69.7173 144.686 69.1253 144.964 68.624C145.252 68.1227 145.652 67.7333 146.164 67.456C146.686 67.1787 147.294 67.04 147.988 67.04C148.681 67.04 149.284 67.1787 149.796 67.456C150.318 67.7333 150.718 68.1227 150.996 68.624C151.284 69.1253 151.428 69.7173 151.428 70.4V71.952H145.956V72.8C145.956 73.4933 146.132 74.0267 146.484 74.4C146.836 74.7627 147.337 74.944 147.988 74.944C148.542 74.944 148.99 74.848 149.332 74.656C149.673 74.4533 149.881 74.1547 149.956 73.76H151.396C151.3 74.496 150.937 75.0827 150.308 75.52C149.689 75.9467 148.916 76.16 147.988 76.16ZM145.956 70.864H150.02V70.4C150.02 69.7067 149.844 69.1733 149.492 68.8C149.15 68.4267 148.649 68.24 147.988 68.24C147.337 68.24 146.836 68.4267 146.484 68.8C146.132 69.1733 145.956 69.7067 145.956 70.4V70.864Z" fill="#1D1D1F"/>
<rect width="49" height="41" transform="translate(173 50)" fill="#FFAA00"/>
<path d="M184.581 76V64.32H188.197C188.891 64.32 189.499 64.464 190.021 64.752C190.544 65.0293 190.949 65.4187 191.237 65.92C191.525 66.4213 191.669 67.008 191.669 67.68C191.669 68.4693 191.461 69.1467 191.045 69.712C190.64 70.2773 190.085 70.6667 189.381 70.88L191.829 76H190.133L187.893 71.04H186.021V76H184.581ZM186.021 69.744H188.197C188.795 69.744 189.275 69.5573 189.637 69.184C190 68.8 190.181 68.2987 190.181 67.68C190.181 67.0507 190 66.5493 189.637 66.176C189.275 65.8027 188.795 65.616 188.197 65.616H186.021V69.744ZM197.503 76.16C196.81 76.16 196.202 76.0213 195.679 75.744C195.167 75.4667 194.767 75.0773 194.479 74.576C194.202 74.064 194.063 73.472 194.063 72.8V70.4C194.063 69.7173 194.202 69.1253 194.479 68.624C194.767 68.1227 195.167 67.7333 195.679 67.456C196.202 67.1787 196.81 67.04 197.503 67.04C198.196 67.04 198.799 67.1787 199.311 67.456C199.834 67.7333 200.234 68.1227 200.511 68.624C200.799 69.1253 200.943 69.7173 200.943 70.4V71.952H195.471V72.8C195.471 73.4933 195.647 74.0267 195.999 74.4C196.351 74.7627 196.852 74.944 197.503 74.944C198.058 74.944 198.506 74.848 198.847 74.656C199.188 74.4533 199.396 74.1547 199.471 73.76H200.911C200.815 74.496 200.452 75.0827 199.823 75.52C199.204 75.9467 198.431 76.16 197.503 76.16ZM195.471 70.864H199.535V70.4C199.535 69.7067 199.359 69.1733 199.007 68.8C198.666 68.4267 198.164 68.24 197.503 68.24C196.852 68.24 196.351 68.4267 195.999 68.8C195.647 69.1733 195.471 69.7067 195.471 70.4V70.864ZM206.585 76.16C205.71 76.16 205.001 75.8667 204.457 75.28C203.924 74.6933 203.657 73.8987 203.657 72.896V70.32C203.657 69.3067 203.924 68.5067 204.457 67.92C204.99 67.3333 205.7 67.04 206.585 67.04C207.246 67.04 207.79 67.2053 208.217 67.536C208.644 67.8667 208.894 68.3147 208.969 68.88H209.017L208.985 66.88V64.32H210.425V76H208.985V74.32H208.969C208.894 74.896 208.644 75.3493 208.217 75.68C207.79 76 207.246 76.16 206.585 76.16ZM207.065 74.912C207.662 74.912 208.132 74.7253 208.473 74.352C208.814 73.9787 208.985 73.4613 208.985 72.8V70.4C208.985 69.7387 208.814 69.2213 208.473 68.848C208.132 68.4747 207.662 68.288 207.065 68.288C206.457 68.288 205.977 68.4693 205.625 68.832C205.273 69.1947 205.097 69.7173 205.097 70.4V72.8C205.097 73.4827 205.273 74.0053 205.625 74.368C205.977 74.7307 206.457 74.912 207.065 74.912Z" fill="#1D1D1F"/>
<rect width="88" height="41" transform="translate(232 50)" fill="#FFAA00"/>
<path d="M243.638 76V64.32H245.526L246.774 68.096C246.891 68.4373 246.987 68.7787 247.062 69.12C247.147 69.4507 247.211 69.7067 247.254 69.888C247.297 69.7067 247.361 69.4507 247.446 69.12C247.531 68.7787 247.627 68.432 247.734 68.08L248.918 64.32H250.806V76H249.398V70.48C249.398 69.5307 249.441 68.5973 249.526 67.68C249.611 66.7627 249.707 65.8827 249.814 65.04L247.91 70.88H246.534L244.614 65.04C244.731 65.8507 244.833 66.6987 244.918 67.584C245.003 68.4693 245.046 69.4347 245.046 70.48V76H243.638ZM256.048 76.16C255.12 76.16 254.389 75.9253 253.856 75.456C253.322 74.976 253.056 74.3307 253.056 73.52C253.056 72.6987 253.322 72.0533 253.856 71.584C254.389 71.1147 255.109 70.88 256.016 70.88H258.736V70C258.736 69.4667 258.57 69.0507 258.24 68.752C257.92 68.4533 257.472 68.304 256.896 68.304C256.384 68.304 255.952 68.416 255.6 68.64C255.248 68.864 255.029 69.1573 254.944 69.52H253.504C253.557 69.0293 253.733 68.5973 254.032 68.224C254.341 67.8507 254.741 67.5627 255.232 67.36C255.733 67.1467 256.288 67.04 256.896 67.04C257.909 67.04 258.709 67.3013 259.296 67.824C259.882 68.3467 260.176 69.056 260.176 69.952V76H258.768V74.32H258.752C258.688 74.8853 258.41 75.3333 257.92 75.664C257.44 75.9947 256.816 76.16 256.048 76.16ZM256.4 75.024C257.082 75.024 257.642 74.8533 258.08 74.512C258.517 74.1707 258.736 73.7333 258.736 73.2V71.952H256.048C255.568 71.952 255.189 72.0853 254.912 72.352C254.634 72.6187 254.496 72.9813 254.496 73.44C254.496 73.9307 254.661 74.32 254.992 74.608C255.333 74.8853 255.802 75.024 256.4 75.024ZM264.185 78.88V77.568H266.985C267.849 77.568 268.281 77.152 268.281 76.32V75.2L268.313 73.6H268.281C268.228 74.1653 267.988 74.6133 267.561 74.944C267.145 75.2747 266.607 75.44 265.945 75.44C265.039 75.44 264.324 75.1467 263.801 74.56C263.279 73.9627 263.017 73.1627 263.017 72.16V70.304C263.017 69.3013 263.279 68.5067 263.801 67.92C264.324 67.3333 265.039 67.04 265.945 67.04C266.607 67.04 267.145 67.2053 267.561 67.536C267.988 67.8667 268.228 68.3147 268.281 68.88H268.297V67.2H269.721V76.32C269.721 77.1093 269.476 77.7333 268.985 78.192C268.505 78.6507 267.833 78.88 266.969 78.88H264.185ZM266.377 74.192C266.975 74.192 267.444 74.0053 267.785 73.632C268.127 73.2587 268.297 72.7413 268.297 72.08V70.4C268.297 69.7387 268.127 69.2213 267.785 68.848C267.444 68.4747 266.975 68.288 266.377 68.288C265.769 68.288 265.295 68.4693 264.953 68.832C264.623 69.1947 264.457 69.7173 264.457 70.4V72.08C264.457 72.7627 264.623 73.2853 264.953 73.648C265.295 74.0107 265.769 74.192 266.377 74.192ZM276.003 76.16C275.31 76.16 274.702 76.0213 274.179 75.744C273.667 75.4667 273.267 75.0773 272.979 74.576C272.702 74.064 272.563 73.472 272.563 72.8V70.4C272.563 69.7173 272.702 69.1253 272.979 68.624C273.267 68.1227 273.667 67.7333 274.179 67.456C274.702 67.1787 275.31 67.04 276.003 67.04C276.696 67.04 277.299 67.1787 277.811 67.456C278.334 67.7333 278.734 68.1227 279.011 68.624C279.299 69.1253 279.443 69.7173 279.443 70.4V71.952H273.971V72.8C273.971 73.4933 274.147 74.0267 274.499 74.4C274.851 74.7627 275.352 74.944 276.003 74.944C276.558 74.944 277.006 74.848 277.347 74.656C277.688 74.4533 277.896 74.1547 277.971 73.76H279.411C279.315 74.496 278.952 75.0827 278.323 75.52C277.704 75.9467 276.931 76.16 276.003 76.16ZM273.971 70.864H278.035V70.4C278.035 69.7067 277.859 69.1733 277.507 68.8C277.166 68.4267 276.664 68.24 276.003 68.24C275.352 68.24 274.851 68.4267 274.499 68.8C274.147 69.1733 273.971 69.7067 273.971 70.4V70.864ZM282.269 76V67.2H283.709V68.88H283.725C283.8 68.2933 284.04 67.84 284.445 67.52C284.85 67.2 285.389 67.04 286.061 67.04C286.946 67.04 287.65 67.312 288.173 67.856C288.696 68.4 288.957 69.1413 288.957 70.08V76H287.517V70.24C287.517 69.6107 287.346 69.1307 287.005 68.8C286.674 68.4587 286.221 68.288 285.645 68.288C285.048 68.288 284.573 68.4693 284.221 68.832C283.88 69.1947 283.709 69.7173 283.709 70.4V76H282.269ZM296.151 76C295.425 76 294.844 75.792 294.407 75.376C293.969 74.9493 293.751 74.384 293.751 73.68V68.512H291.271V67.2H293.751V64.72H295.191V67.2H298.711V68.512H295.191V73.68C295.191 73.9787 295.276 74.224 295.447 74.416C295.628 74.5973 295.863 74.688 296.151 74.688H298.551V76H296.151ZM304.016 76.16C303.088 76.16 302.358 75.9253 301.824 75.456C301.291 74.976 301.024 74.3307 301.024 73.52C301.024 72.6987 301.291 72.0533 301.824 71.584C302.358 71.1147 303.078 70.88 303.984 70.88H306.704V70C306.704 69.4667 306.539 69.0507 306.208 68.752C305.888 68.4533 305.44 68.304 304.864 68.304C304.352 68.304 303.92 68.416 303.568 68.64C303.216 68.864 302.998 69.1573 302.912 69.52H301.472C301.526 69.0293 301.702 68.5973 302 68.224C302.31 67.8507 302.71 67.5627 303.2 67.36C303.702 67.1467 304.256 67.04 304.864 67.04C305.878 67.04 306.678 67.3013 307.264 67.824C307.851 68.3467 308.144 69.056 308.144 69.952V76H306.736V74.32H306.72C306.656 74.8853 306.379 75.3333 305.888 75.664C305.408 75.9947 304.784 76.16 304.016 76.16ZM304.368 75.024C305.051 75.024 305.611 74.8533 306.048 74.512C306.486 74.1707 306.704 73.7333 306.704 73.2V71.952H304.016C303.536 71.952 303.158 72.0853 302.88 72.352C302.603 72.6187 302.464 72.9813 302.464 73.44C302.464 73.9307 302.63 74.32 302.96 74.608C303.302 74.8853 303.771 75.024 304.368 75.024Z" fill="#1D1D1F"/>
<rect width="88" height="41" transform="translate(85 205)" fill="#FFAA00"/>
<path d="M96.6379 231V219.32H98.5259L99.7739 223.096C99.8912 223.437 99.9872 223.779 100.062 224.12C100.147 224.451 100.211 224.707 100.254 224.888C100.297 224.707 100.361 224.451 100.446 224.12C100.531 223.779 100.627 223.432 100.734 223.08L101.918 219.32H103.806V231H102.398V225.48C102.398 224.531 102.441 223.597 102.526 222.68C102.611 221.763 102.707 220.883 102.814 220.04L100.91 225.88H99.5339L97.6139 220.04C97.7312 220.851 97.8325 221.699 97.9179 222.584C98.0032 223.469 98.0459 224.435 98.0459 225.48V231H96.6379ZM109.048 231.16C108.12 231.16 107.389 230.925 106.856 230.456C106.322 229.976 106.056 229.331 106.056 228.52C106.056 227.699 106.322 227.053 106.856 226.584C107.389 226.115 108.109 225.88 109.016 225.88H111.736V225C111.736 224.467 111.57 224.051 111.24 223.752C110.92 223.453 110.472 223.304 109.896 223.304C109.384 223.304 108.952 223.416 108.6 223.64C108.248 223.864 108.029 224.157 107.944 224.52H106.504C106.557 224.029 106.733 223.597 107.032 223.224C107.341 222.851 107.741 222.563 108.232 222.36C108.733 222.147 109.288 222.04 109.896 222.04C110.909 222.04 111.709 222.301 112.296 222.824C112.882 223.347 113.176 224.056 113.176 224.952V231H111.768V229.32H111.752C111.688 229.885 111.41 230.333 110.92 230.664C110.44 230.995 109.816 231.16 109.048 231.16ZM109.4 230.024C110.082 230.024 110.642 229.853 111.08 229.512C111.517 229.171 111.736 228.733 111.736 228.2V226.952H109.048C108.568 226.952 108.189 227.085 107.912 227.352C107.634 227.619 107.496 227.981 107.496 228.44C107.496 228.931 107.661 229.32 107.992 229.608C108.333 229.885 108.802 230.024 109.4 230.024ZM117.185 233.88V232.568H119.985C120.849 232.568 121.281 232.152 121.281 231.32V230.2L121.313 228.6H121.281C121.228 229.165 120.988 229.613 120.561 229.944C120.145 230.275 119.607 230.44 118.945 230.44C118.039 230.44 117.324 230.147 116.801 229.56C116.279 228.963 116.017 228.163 116.017 227.16V225.304C116.017 224.301 116.279 223.507 116.801 222.92C117.324 222.333 118.039 222.04 118.945 222.04C119.607 222.04 120.145 222.205 120.561 222.536C120.988 222.867 121.228 223.315 121.281 223.88H121.297V222.2H122.721V231.32C122.721 232.109 122.476 232.733 121.985 233.192C121.505 233.651 120.833 233.88 119.969 233.88H117.185ZM119.377 229.192C119.975 229.192 120.444 229.005 120.785 228.632C121.127 228.259 121.297 227.741 121.297 227.08V225.4C121.297 224.739 121.127 224.221 120.785 223.848C120.444 223.475 119.975 223.288 119.377 223.288C118.769 223.288 118.295 223.469 117.953 223.832C117.623 224.195 117.457 224.717 117.457 225.4V227.08C117.457 227.763 117.623 228.285 117.953 228.648C118.295 229.011 118.769 229.192 119.377 229.192ZM129.003 231.16C128.31 231.16 127.702 231.021 127.179 230.744C126.667 230.467 126.267 230.077 125.979 229.576C125.702 229.064 125.563 228.472 125.563 227.8V225.4C125.563 224.717 125.702 224.125 125.979 223.624C126.267 223.123 126.667 222.733 127.179 222.456C127.702 222.179 128.31 222.04 129.003 222.04C129.696 222.04 130.299 222.179 130.811 222.456C131.334 222.733 131.734 223.123 132.011 223.624C132.299 224.125 132.443 224.717 132.443 225.4V226.952H126.971V227.8C126.971 228.493 127.147 229.027 127.499 229.4C127.851 229.763 128.352 229.944 129.003 229.944C129.558 229.944 130.006 229.848 130.347 229.656C130.688 229.453 130.896 229.155 130.971 228.76H132.411C132.315 229.496 131.952 230.083 131.323 230.52C130.704 230.947 129.931 231.16 129.003 231.16ZM126.971 225.864H131.035V225.4C131.035 224.707 130.859 224.173 130.507 223.8C130.166 223.427 129.664 223.24 129.003 223.24C128.352 223.24 127.851 223.427 127.499 223.8C127.147 224.173 126.971 224.707 126.971 225.4V225.864ZM135.269 231V222.2H136.709V223.88H136.725C136.8 223.293 137.04 222.84 137.445 222.52C137.85 222.2 138.389 222.04 139.061 222.04C139.946 222.04 140.65 222.312 141.173 222.856C141.696 223.4 141.957 224.141 141.957 225.08V231H140.517V225.24C140.517 224.611 140.346 224.131 140.005 223.8C139.674 223.459 139.221 223.288 138.645 223.288C138.048 223.288 137.573 223.469 137.221 223.832C136.88 224.195 136.709 224.717 136.709 225.4V231H135.269ZM149.151 231C148.425 231 147.844 230.792 147.407 230.376C146.969 229.949 146.751 229.384 146.751 228.68V223.512H144.271V222.2H146.751V219.72H148.191V222.2H151.711V223.512H148.191V228.68C148.191 228.979 148.276 229.224 148.447 229.416C148.628 229.597 148.863 229.688 149.151 229.688H151.551V231H149.151ZM157.016 231.16C156.088 231.16 155.358 230.925 154.824 230.456C154.291 229.976 154.024 229.331 154.024 228.52C154.024 227.699 154.291 227.053 154.824 226.584C155.358 226.115 156.078 225.88 156.984 225.88H159.704V225C159.704 224.467 159.539 224.051 159.208 223.752C158.888 223.453 158.44 223.304 157.864 223.304C157.352 223.304 156.92 223.416 156.568 223.64C156.216 223.864 155.998 224.157 155.912 224.52H154.472C154.526 224.029 154.702 223.597 155 223.224C155.31 222.851 155.71 222.563 156.2 222.36C156.702 222.147 157.256 222.04 157.864 222.04C158.878 222.04 159.678 222.301 160.264 222.824C160.851 223.347 161.144 224.056 161.144 224.952V231H159.736V229.32H159.72C159.656 229.885 159.379 230.333 158.888 230.664C158.408 230.995 157.784 231.16 157.016 231.16ZM157.368 230.024C158.051 230.024 158.611 229.853 159.048 229.512C159.486 229.171 159.704 228.733 159.704 228.2V226.952H157.016C156.536 226.952 156.158 227.085 155.88 227.352C155.603 227.619 155.464 227.981 155.464 228.44C155.464 228.931 155.63 229.32 155.96 229.608C156.302 229.885 156.771 230.024 157.368 230.024Z" fill="#1D1D1F"/>
<rect width="78" height="41" transform="translate(183 205)" fill="#FFAA00"/>
<path d="M198.019 231.16C196.973 231.16 196.147 230.861 195.539 230.264C194.931 229.667 194.627 228.845 194.627 227.8V222.52C194.627 221.475 194.931 220.653 195.539 220.056C196.147 219.459 196.973 219.16 198.019 219.16C199.064 219.16 199.891 219.459 200.499 220.056C201.107 220.643 201.411 221.459 201.411 222.504V227.8C201.411 228.845 201.107 229.667 200.499 230.264C199.891 230.861 199.064 231.16 198.019 231.16ZM198.019 229.864C198.648 229.864 199.128 229.688 199.459 229.336C199.8 228.973 199.971 228.461 199.971 227.8V222.52C199.971 221.859 199.8 221.352 199.459 221C199.128 220.637 198.648 220.456 198.019 220.456C197.4 220.456 196.92 220.637 196.579 221C196.237 221.352 196.067 221.859 196.067 222.52V227.8C196.067 228.461 196.237 228.973 196.579 229.336C196.92 229.688 197.4 229.864 198.019 229.864ZM204.557 231V222.2H205.997V223.88H206.013C206.087 223.293 206.327 222.84 206.733 222.52C207.138 222.2 207.677 222.04 208.349 222.04C209.266 222.04 209.997 222.333 210.541 222.92C211.085 223.496 211.357 224.28 211.357 225.272V225.88H209.917V225.4C209.917 224.728 209.746 224.211 209.405 223.848C209.063 223.475 208.567 223.288 207.917 223.288C206.637 223.288 205.997 223.992 205.997 225.4V231H204.557ZM216.438 231.16C215.51 231.16 214.78 230.925 214.246 230.456C213.713 229.976 213.446 229.331 213.446 228.52C213.446 227.699 213.713 227.053 214.246 226.584C214.78 226.115 215.5 225.88 216.406 225.88H219.126V225C219.126 224.467 218.961 224.051 218.63 223.752C218.31 223.453 217.862 223.304 217.286 223.304C216.774 223.304 216.342 223.416 215.99 223.64C215.638 223.864 215.42 224.157 215.334 224.52H213.894C213.948 224.029 214.124 223.597 214.422 223.224C214.732 222.851 215.132 222.563 215.622 222.36C216.124 222.147 216.678 222.04 217.286 222.04C218.3 222.04 219.1 222.301 219.686 222.824C220.273 223.347 220.566 224.056 220.566 224.952V231H219.158V229.32H219.142C219.078 229.885 218.801 230.333 218.31 230.664C217.83 230.995 217.206 231.16 216.438 231.16ZM216.79 230.024C217.473 230.024 218.033 229.853 218.47 229.512C218.908 229.171 219.126 228.733 219.126 228.2V226.952H216.438C215.958 226.952 215.58 227.085 215.302 227.352C215.025 227.619 214.886 227.981 214.886 228.44C214.886 228.931 215.052 229.32 215.382 229.608C215.724 229.885 216.193 230.024 216.79 230.024ZM223.472 231V222.2H224.912V223.88H224.928C225.003 223.293 225.243 222.84 225.648 222.52C226.053 222.2 226.592 222.04 227.264 222.04C228.149 222.04 228.853 222.312 229.376 222.856C229.899 223.4 230.16 224.141 230.16 225.08V231H228.72V225.24C228.72 224.611 228.549 224.131 228.208 223.8C227.877 223.459 227.424 223.288 226.848 223.288C226.251 223.288 225.776 223.469 225.424 223.832C225.083 224.195 224.912 224.717 224.912 225.4V231H223.472ZM234.17 233.88V232.568H236.97C237.834 232.568 238.266 232.152 238.266 231.32V230.2L238.298 228.6H238.266C238.212 229.165 237.972 229.613 237.546 229.944C237.13 230.275 236.591 230.44 235.93 230.44C235.023 230.44 234.308 230.147 233.786 229.56C233.263 228.963 233.002 228.163 233.002 227.16V225.304C233.002 224.301 233.263 223.507 233.786 222.92C234.308 222.333 235.023 222.04 235.93 222.04C236.591 222.04 237.13 222.205 237.546 222.536C237.972 222.867 238.212 223.315 238.266 223.88H238.282V222.2H239.706V231.32C239.706 232.109 239.46 232.733 238.97 233.192C238.49 233.651 237.818 233.88 236.954 233.88H234.17ZM236.362 229.192C236.959 229.192 237.428 229.005 237.77 228.632C238.111 228.259 238.282 227.741 238.282 227.08V225.4C238.282 224.739 238.111 224.221 237.77 223.848C237.428 223.475 236.959 223.288 236.362 223.288C235.754 223.288 235.279 223.469 234.938 223.832C234.607 224.195 234.442 224.717 234.442 225.4V227.08C234.442 227.763 234.607 228.285 234.938 228.648C235.279 229.011 235.754 229.192 236.362 229.192ZM245.988 231.16C245.294 231.16 244.686 231.021 244.164 230.744C243.652 230.467 243.252 230.077 242.964 229.576C242.686 229.064 242.548 228.472 242.548 227.8V225.4C242.548 224.717 242.686 224.125 242.964 223.624C243.252 223.123 243.652 222.733 244.164 222.456C244.686 222.179 245.294 222.04 245.988 222.04C246.681 222.04 247.284 222.179 247.796 222.456C248.318 222.733 248.718 223.123 248.996 223.624C249.284 224.125 249.428 224.717 249.428 225.4V226.952H243.956V227.8C243.956 228.493 244.132 229.027 244.484 229.4C244.836 229.763 245.337 229.944 245.988 229.944C246.542 229.944 246.99 229.848 247.332 229.656C247.673 229.453 247.881 229.155 247.956 228.76H249.396C249.3 229.496 248.937 230.083 248.308 230.52C247.689 230.947 246.916 231.16 245.988 231.16ZM243.956 225.864H248.02V225.4C248.02 224.707 247.844 224.173 247.492 223.8C247.15 223.427 246.649 223.24 245.988 223.24C245.337 223.24 244.836 223.427 244.484 223.8C244.132 224.173 243.956 224.707 243.956 225.4V225.864Z" fill="#1D1D1F"/>
<rect width="49" height="41" transform="translate(271 205)" fill="#FFAA00"/>
<path d="M282.581 231V219.32H286.197C286.891 219.32 287.499 219.464 288.021 219.752C288.544 220.029 288.949 220.419 289.237 220.92C289.525 221.421 289.669 222.008 289.669 222.68C289.669 223.469 289.461 224.147 289.045 224.712C288.64 225.277 288.085 225.667 287.381 225.88L289.829 231H288.133L285.893 226.04H284.021V231H282.581ZM284.021 224.744H286.197C286.795 224.744 287.275 224.557 287.637 224.184C288 223.8 288.181 223.299 288.181 222.68C288.181 222.051 288 221.549 287.637 221.176C287.275 220.803 286.795 220.616 286.197 220.616H284.021V224.744ZM295.503 231.16C294.81 231.16 294.202 231.021 293.679 230.744C293.167 230.467 292.767 230.077 292.479 229.576C292.202 229.064 292.063 228.472 292.063 227.8V225.4C292.063 224.717 292.202 224.125 292.479 223.624C292.767 223.123 293.167 222.733 293.679 222.456C294.202 222.179 294.81 222.04 295.503 222.04C296.196 222.04 296.799 222.179 297.311 222.456C297.834 222.733 298.234 223.123 298.511 223.624C298.799 224.125 298.943 224.717 298.943 225.4V226.952H293.471V227.8C293.471 228.493 293.647 229.027 293.999 229.4C294.351 229.763 294.852 229.944 295.503 229.944C296.058 229.944 296.506 229.848 296.847 229.656C297.188 229.453 297.396 229.155 297.471 228.76H298.911C298.815 229.496 298.452 230.083 297.823 230.52C297.204 230.947 296.431 231.16 295.503 231.16ZM293.471 225.864H297.535V225.4C297.535 224.707 297.359 224.173 297.007 223.8C296.666 223.427 296.164 223.24 295.503 223.24C294.852 223.24 294.351 223.427 293.999 223.8C293.647 224.173 293.471 224.707 293.471 225.4V225.864ZM304.585 231.16C303.71 231.16 303.001 230.867 302.457 230.28C301.924 229.693 301.657 228.899 301.657 227.896V225.32C301.657 224.307 301.924 223.507 302.457 222.92C302.99 222.333 303.7 222.04 304.585 222.04C305.246 222.04 305.79 222.205 306.217 222.536C306.644 222.867 306.894 223.315 306.969 223.88H307.017L306.985 221.88V219.32H308.425V231H306.985V229.32H306.969C306.894 229.896 306.644 230.349 306.217 230.68C305.79 231 305.246 231.16 304.585 231.16ZM305.065 229.912C305.662 229.912 306.132 229.725 306.473 229.352C306.814 228.979 306.985 228.461 306.985 227.8V225.4C306.985 224.739 306.814 224.221 306.473 223.848C306.132 223.475 305.662 223.288 305.065 223.288C304.457 223.288 303.977 223.469 303.625 223.832C303.273 224.195 303.097 224.717 303.097 225.4V227.8C303.097 228.483 303.273 229.005 303.625 229.368C303.977 229.731 304.457 229.912 305.065 229.912Z" fill="#1D1D1F"/>
<path d="M163.028 24.9091C163.028 26.0062 162.823 26.9458 162.412 27.728C162.004 28.5069 161.447 29.1035 160.741 29.5178C160.038 29.9321 159.241 30.1392 158.35 30.1392C157.458 30.1392 156.659 29.9321 155.953 29.5178C155.251 29.1001 154.694 28.5019 154.283 27.723C153.875 26.9408 153.672 26.0028 153.672 24.9091C153.672 23.812 153.875 22.8741 154.283 22.0952C154.694 21.313 155.251 20.7147 155.953 20.3004C156.659 19.8861 157.458 19.679 158.35 19.679C159.241 19.679 160.038 19.8861 160.741 20.3004C161.447 20.7147 162.004 21.313 162.412 22.0952C162.823 22.8741 163.028 23.812 163.028 24.9091ZM161.174 24.9091C161.174 24.1368 161.053 23.4856 160.811 22.9553C160.572 22.4216 160.241 22.0189 159.816 21.7472C159.392 21.4721 158.903 21.3345 158.35 21.3345C157.796 21.3345 157.307 21.4721 156.883 21.7472C156.459 22.0189 156.126 22.4216 155.884 22.9553C155.645 23.4856 155.526 24.1368 155.526 24.9091C155.526 25.6813 155.645 26.3343 155.884 26.8679C156.126 27.3982 156.459 27.8009 156.883 28.076C157.307 28.3478 157.796 28.4837 158.35 28.4837C158.903 28.4837 159.392 28.3478 159.816 28.076C160.241 27.8009 160.572 27.3982 160.811 26.8679C161.053 26.3343 161.174 25.6813 161.174 24.9091ZM166.492 19.8182V30H164.692V19.8182H166.492ZM171.176 30.1342C170.577 30.1342 170.04 29.9801 169.566 29.6719C169.092 29.3636 168.717 28.9162 168.442 28.3295C168.167 27.7429 168.029 27.0303 168.029 26.1918C168.029 25.3433 168.169 24.6274 168.447 24.044C168.729 23.4574 169.108 23.0149 169.586 22.7166C170.063 22.415 170.595 22.2642 171.181 22.2642C171.629 22.2642 171.997 22.3404 172.285 22.4929C172.574 22.642 172.802 22.8227 172.971 23.0348C173.14 23.2436 173.271 23.4408 173.364 23.6264H173.439V19.8182H175.243V30H173.473V28.7969H173.364C173.271 28.9825 173.137 29.1797 172.961 29.3885C172.786 29.594 172.554 29.7696 172.265 29.9155C171.977 30.0613 171.614 30.1342 171.176 30.1342ZM171.679 28.6577C172.06 28.6577 172.385 28.5549 172.653 28.3494C172.922 28.1406 173.125 27.8506 173.265 27.4794C173.404 27.1082 173.473 26.6757 173.473 26.1818C173.473 25.688 173.404 25.2588 173.265 24.8942C173.129 24.5296 172.926 24.2462 172.658 24.044C172.393 23.8419 172.066 23.7408 171.679 23.7408C171.278 23.7408 170.943 23.8452 170.674 24.054C170.406 24.2628 170.204 24.5511 170.068 24.919C169.932 25.2869 169.864 25.7079 169.864 26.1818C169.864 26.6591 169.932 27.085 170.068 27.4595C170.207 27.8307 170.411 28.1241 170.679 28.3395C170.951 28.5516 171.284 28.6577 171.679 28.6577ZM180.634 30V22.3636H182.433V30H180.634ZM181.539 21.2798C181.253 21.2798 181.008 21.1854 180.803 20.9964C180.597 20.8042 180.494 20.5739 180.494 20.3054C180.494 20.0336 180.597 19.8033 180.803 19.6143C181.008 19.4221 181.253 19.326 181.539 19.326C181.827 19.326 182.072 19.4221 182.274 19.6143C182.48 19.8033 182.583 20.0336 182.583 20.3054C182.583 20.5739 182.48 20.8042 182.274 20.9964C182.072 21.1854 181.827 21.2798 181.539 21.2798ZM186.084 25.5256V30H184.284V22.3636H186.004V23.6612H186.094C186.269 23.2337 186.549 22.8939 186.934 22.642C187.322 22.3902 187.801 22.2642 188.371 22.2642C188.898 22.2642 189.357 22.3769 189.748 22.6023C190.142 22.8277 190.447 23.1541 190.663 23.5817C190.881 24.0092 190.989 24.5279 190.986 25.1378V30H189.186V25.4162C189.186 24.9058 189.054 24.5064 188.788 24.218C188.527 23.9297 188.164 23.7855 187.7 23.7855C187.385 23.7855 187.105 23.8551 186.859 23.9943C186.617 24.1302 186.427 24.3274 186.288 24.5859C186.152 24.8445 186.084 25.1577 186.084 25.5256ZM192.815 32.8636V22.3636H194.585V23.6264H194.69C194.782 23.4408 194.913 23.2436 195.082 23.0348C195.251 22.8227 195.48 22.642 195.768 22.4929C196.057 22.3404 196.425 22.2642 196.872 22.2642C197.462 22.2642 197.994 22.415 198.468 22.7166C198.945 23.0149 199.323 23.4574 199.602 24.044C199.883 24.6274 200.024 25.3433 200.024 26.1918C200.024 27.0303 199.887 27.7429 199.612 28.3295C199.336 28.9162 198.962 29.3636 198.488 29.6719C198.014 29.9801 197.477 30.1342 196.877 30.1342C196.44 30.1342 196.077 30.0613 195.788 29.9155C195.5 29.7696 195.268 29.594 195.092 29.3885C194.92 29.1797 194.786 28.9825 194.69 28.7969H194.615V32.8636H192.815ZM194.58 26.1818C194.58 26.6757 194.65 27.1082 194.789 27.4794C194.932 27.8506 195.135 28.1406 195.401 28.3494C195.669 28.5549 195.994 28.6577 196.375 28.6577C196.773 28.6577 197.106 28.5516 197.374 28.3395C197.643 28.1241 197.845 27.8307 197.981 27.4595C198.12 27.085 198.19 26.6591 198.19 26.1818C198.19 25.7079 198.122 25.2869 197.986 24.919C197.85 24.5511 197.648 24.2628 197.379 24.054C197.111 23.8452 196.776 23.7408 196.375 23.7408C195.991 23.7408 195.664 23.8419 195.396 24.044C195.127 24.2462 194.923 24.5296 194.784 24.8942C194.648 25.2588 194.58 25.688 194.58 26.1818ZM206.433 26.7884V22.3636H208.232V30H206.487V28.6428H206.408C206.235 29.0703 205.952 29.42 205.558 29.6918C205.166 29.9635 204.684 30.0994 204.111 30.0994C203.61 30.0994 203.168 29.9884 202.783 29.7663C202.402 29.541 202.104 29.2145 201.888 28.7869C201.673 28.3561 201.565 27.8357 201.565 27.2259V22.3636H203.365V26.9474C203.365 27.4313 203.498 27.8158 203.763 28.1009C204.028 28.3859 204.376 28.5284 204.807 28.5284C205.072 28.5284 205.329 28.4638 205.577 28.3345C205.826 28.2053 206.03 28.013 206.189 27.7578C206.351 27.4993 206.433 27.1761 206.433 26.7884ZM213.896 22.3636V23.7557H209.506V22.3636H213.896ZM210.59 20.5341H212.39V27.7031C212.39 27.9451 212.426 28.1307 212.499 28.2599C212.575 28.3859 212.675 28.4721 212.797 28.5185C212.92 28.5649 213.056 28.5881 213.205 28.5881C213.318 28.5881 213.421 28.5798 213.513 28.5632C213.609 28.5466 213.682 28.5317 213.732 28.5185L214.035 29.9254C213.939 29.9586 213.802 29.995 213.623 30.0348C213.447 30.0746 213.232 30.0978 212.976 30.1044C212.526 30.1177 212.12 30.0497 211.758 29.9006C211.397 29.7481 211.11 29.5128 210.898 29.1946C210.689 28.8764 210.587 28.4787 210.59 28.0014V20.5341ZM222.687 22.3636V23.7557H218.297V22.3636H222.687ZM219.381 20.5341H221.181V27.7031C221.181 27.9451 221.217 28.1307 221.29 28.2599C221.366 28.3859 221.466 28.4721 221.588 28.5185C221.711 28.5649 221.847 28.5881 221.996 28.5881C222.109 28.5881 222.212 28.5798 222.304 28.5632C222.4 28.5466 222.473 28.5317 222.523 28.5185L222.826 29.9254C222.73 29.9586 222.593 29.995 222.414 30.0348C222.238 30.0746 222.023 30.0978 221.767 30.1044C221.317 30.1177 220.911 30.0497 220.549 29.9006C220.188 29.7481 219.901 29.5128 219.689 29.1946C219.48 28.8764 219.378 28.4787 219.381 28.0014V20.5341ZM226.39 30.1541C225.906 30.1541 225.47 30.0679 225.082 29.8956C224.698 29.7199 224.393 29.4614 224.167 29.12C223.945 28.7786 223.834 28.3577 223.834 27.8572C223.834 27.4264 223.914 27.0701 224.073 26.7884C224.232 26.5066 224.449 26.2812 224.724 26.1122C224.999 25.9432 225.309 25.8156 225.654 25.7294C226.002 25.6399 226.362 25.5753 226.733 25.5355C227.18 25.4891 227.543 25.4477 227.822 25.4112C228.1 25.3714 228.302 25.3118 228.428 25.2322C228.557 25.1494 228.622 25.0218 228.622 24.8494V24.8196C228.622 24.4451 228.511 24.1551 228.289 23.9496C228.067 23.7441 227.747 23.6413 227.329 23.6413C226.889 23.6413 226.539 23.7375 226.28 23.9297C226.025 24.1219 225.853 24.349 225.763 24.6108L224.083 24.3722C224.215 23.9081 224.434 23.5204 224.739 23.2088C225.044 22.8939 225.417 22.6586 225.858 22.5028C226.299 22.3438 226.786 22.2642 227.319 22.2642C227.687 22.2642 228.054 22.3073 228.418 22.3935C228.783 22.4796 229.116 22.6222 229.417 22.821C229.719 23.0166 229.961 23.2834 230.143 23.6214C230.329 23.9595 230.422 24.3821 230.422 24.8892V30H228.692V28.951H228.632C228.523 29.1631 228.368 29.362 228.17 29.5476C227.974 29.7299 227.727 29.8774 227.429 29.9901C227.134 30.0994 226.787 30.1541 226.39 30.1541ZM226.857 28.8317C227.218 28.8317 227.532 28.7604 227.797 28.6179C228.062 28.4721 228.266 28.2798 228.408 28.0412C228.554 27.8026 228.627 27.5424 228.627 27.2607V26.3608C228.571 26.4072 228.474 26.4503 228.339 26.4901C228.206 26.5298 228.057 26.5646 227.891 26.5945C227.725 26.6243 227.561 26.6508 227.399 26.674C227.237 26.6972 227.096 26.7171 226.976 26.7337C226.708 26.7701 226.468 26.8298 226.256 26.9126C226.043 26.9955 225.876 27.1115 225.753 27.2607C225.631 27.4065 225.569 27.5954 225.569 27.8274C225.569 28.1589 225.69 28.4091 225.932 28.5781C226.174 28.7472 226.483 28.8317 226.857 28.8317ZM232.311 30V19.8182H234.111V23.6264H234.185C234.278 23.4408 234.409 23.2436 234.578 23.0348C234.747 22.8227 234.976 22.642 235.264 22.4929C235.552 22.3404 235.92 22.2642 236.368 22.2642C236.958 22.2642 237.49 22.415 237.964 22.7166C238.441 23.0149 238.819 23.4574 239.097 24.044C239.379 24.6274 239.52 25.3433 239.52 26.1918C239.52 27.0303 239.382 27.7429 239.107 28.3295C238.832 28.9162 238.457 29.3636 237.983 29.6719C237.51 29.9801 236.973 30.1342 236.373 30.1342C235.935 30.1342 235.572 30.0613 235.284 29.9155C234.996 29.7696 234.764 29.594 234.588 29.3885C234.416 29.1797 234.281 28.9825 234.185 28.7969H234.081V30H232.311ZM234.076 26.1818C234.076 26.6757 234.145 27.1082 234.285 27.4794C234.427 27.8506 234.631 28.1406 234.896 28.3494C235.165 28.5549 235.489 28.6577 235.871 28.6577C236.268 28.6577 236.601 28.5516 236.87 28.3395C237.138 28.1241 237.34 27.8307 237.476 27.4595C237.616 27.085 237.685 26.6591 237.685 26.1818C237.685 25.7079 237.617 25.2869 237.481 24.919C237.345 24.5511 237.143 24.2628 236.875 24.054C236.606 23.8452 236.272 23.7408 235.871 23.7408C235.486 23.7408 235.16 23.8419 234.891 24.044C234.623 24.2462 234.419 24.5296 234.28 24.8942C234.144 25.2588 234.076 25.688 234.076 26.1818ZM242.849 19.8182V30H241.05V19.8182H242.849ZM248.081 30.1491C247.315 30.1491 246.654 29.9901 246.097 29.6719C245.544 29.3504 245.118 28.8963 244.819 28.3097C244.521 27.7197 244.372 27.0253 244.372 26.2266C244.372 25.4411 244.521 24.7517 244.819 24.1584C245.121 23.5618 245.542 23.0978 246.082 22.7663C246.622 22.4316 247.257 22.2642 247.986 22.2642C248.457 22.2642 248.901 22.3404 249.319 22.4929C249.74 22.642 250.111 22.8741 250.432 23.1889C250.757 23.5038 251.012 23.9048 251.198 24.392C251.384 24.8759 251.476 25.4527 251.476 26.1222V26.674H245.217V25.4609H249.751C249.748 25.1162 249.673 24.8097 249.528 24.5412C249.382 24.2694 249.178 24.0556 248.916 23.8999C248.657 23.7441 248.356 23.6662 248.011 23.6662C247.643 23.6662 247.32 23.7557 247.042 23.9347C246.763 24.1103 246.546 24.3423 246.39 24.6307C246.238 24.9157 246.16 25.2289 246.157 25.5703V26.6293C246.157 27.0734 246.238 27.4545 246.4 27.7727C246.563 28.0876 246.79 28.3295 247.081 28.4986C247.373 28.6643 247.715 28.7472 248.106 28.7472C248.367 28.7472 248.604 28.7107 248.817 28.6378C249.029 28.5616 249.213 28.4505 249.368 28.3047C249.524 28.1589 249.642 27.9782 249.721 27.7628L251.402 27.9517C251.296 28.3958 251.094 28.7836 250.795 29.1151C250.5 29.4432 250.122 29.6984 249.662 29.8807C249.201 30.0597 248.674 30.1491 248.081 30.1491Z" fill="#F8F8FA"/>
<path d="M159.277 266.818V277H157.636L152.839 270.065H152.754V277H150.91V266.818H152.56L157.353 273.759H157.442V266.818H159.277ZM164.588 277.149C163.822 277.149 163.161 276.99 162.604 276.672C162.05 276.35 161.625 275.896 161.326 275.31C161.028 274.72 160.879 274.025 160.879 273.227C160.879 272.441 161.028 271.752 161.326 271.158C161.628 270.562 162.049 270.098 162.589 269.766C163.129 269.432 163.764 269.264 164.493 269.264C164.964 269.264 165.408 269.34 165.826 269.493C166.246 269.642 166.618 269.874 166.939 270.189C167.264 270.504 167.519 270.905 167.705 271.392C167.89 271.876 167.983 272.453 167.983 273.122V273.674H161.724V272.461H166.258C166.255 272.116 166.18 271.81 166.034 271.541C165.889 271.269 165.685 271.056 165.423 270.9C165.164 270.744 164.863 270.666 164.518 270.666C164.15 270.666 163.827 270.756 163.549 270.935C163.27 271.11 163.053 271.342 162.897 271.631C162.745 271.916 162.667 272.229 162.664 272.57V273.629C162.664 274.073 162.745 274.455 162.907 274.773C163.07 275.088 163.297 275.33 163.588 275.499C163.88 275.664 164.221 275.747 164.612 275.747C164.874 275.747 165.111 275.711 165.323 275.638C165.536 275.562 165.719 275.451 165.875 275.305C166.031 275.159 166.149 274.978 166.228 274.763L167.909 274.952C167.803 275.396 167.6 275.784 167.302 276.115C167.007 276.443 166.629 276.698 166.169 276.881C165.708 277.06 165.181 277.149 164.588 277.149ZM171.041 277L168.883 269.364H170.718L172.06 274.733H172.13L173.502 269.364H175.316L176.688 274.703H176.763L178.085 269.364H179.925L177.762 277H175.888L174.456 271.839H174.352L172.92 277H171.041ZM184.654 277V269.364H186.454V277H184.654ZM185.559 268.28C185.274 268.28 185.029 268.185 184.823 267.996C184.618 267.804 184.515 267.574 184.515 267.305C184.515 267.034 184.618 266.803 184.823 266.614C185.029 266.422 185.274 266.326 185.559 266.326C185.847 266.326 186.093 266.422 186.295 266.614C186.5 266.803 186.603 267.034 186.603 267.305C186.603 267.574 186.5 267.804 186.295 267.996C186.093 268.185 185.847 268.28 185.559 268.28ZM190.104 272.526V277H188.305V269.364H190.025V270.661H190.114C190.29 270.234 190.57 269.894 190.954 269.642C191.342 269.39 191.821 269.264 192.391 269.264C192.918 269.264 193.377 269.377 193.768 269.602C194.163 269.828 194.468 270.154 194.683 270.582C194.902 271.009 195.01 271.528 195.006 272.138V277H193.207V272.416C193.207 271.906 193.074 271.506 192.809 271.218C192.547 270.93 192.184 270.786 191.72 270.786C191.405 270.786 191.125 270.855 190.88 270.994C190.638 271.13 190.447 271.327 190.308 271.586C190.172 271.844 190.104 272.158 190.104 272.526ZM196.836 279.864V269.364H198.606V270.626H198.71C198.803 270.441 198.934 270.244 199.103 270.035C199.272 269.823 199.501 269.642 199.789 269.493C200.077 269.34 200.445 269.264 200.893 269.264C201.483 269.264 202.015 269.415 202.489 269.717C202.966 270.015 203.344 270.457 203.622 271.044C203.904 271.627 204.045 272.343 204.045 273.192C204.045 274.03 203.907 274.743 203.632 275.33C203.357 275.916 202.982 276.364 202.508 276.672C202.034 276.98 201.498 277.134 200.898 277.134C200.46 277.134 200.097 277.061 199.809 276.915C199.521 276.77 199.289 276.594 199.113 276.388C198.94 276.18 198.806 275.982 198.71 275.797H198.636V279.864H196.836ZM198.601 273.182C198.601 273.676 198.67 274.108 198.81 274.479C198.952 274.851 199.156 275.141 199.421 275.349C199.69 275.555 200.014 275.658 200.396 275.658C200.793 275.658 201.126 275.552 201.395 275.339C201.663 275.124 201.865 274.831 202.001 274.46C202.141 274.085 202.21 273.659 202.21 273.182C202.21 272.708 202.142 272.287 202.006 271.919C201.87 271.551 201.668 271.263 201.4 271.054C201.131 270.845 200.797 270.741 200.396 270.741C200.011 270.741 199.685 270.842 199.416 271.044C199.148 271.246 198.944 271.53 198.805 271.894C198.669 272.259 198.601 272.688 198.601 273.182ZM210.453 273.788V269.364H212.253V277H210.508V275.643H210.428C210.256 276.07 209.972 276.42 209.578 276.692C209.187 276.964 208.705 277.099 208.131 277.099C207.631 277.099 207.188 276.988 206.804 276.766C206.423 276.541 206.124 276.214 205.909 275.787C205.694 275.356 205.586 274.836 205.586 274.226V269.364H207.386V273.947C207.386 274.431 207.518 274.816 207.783 275.101C208.048 275.386 208.396 275.528 208.827 275.528C209.092 275.528 209.349 275.464 209.598 275.335C209.847 275.205 210.05 275.013 210.209 274.758C210.372 274.499 210.453 274.176 210.453 273.788ZM217.917 269.364V270.756H213.527V269.364H217.917ZM214.611 267.534H216.41V274.703C216.41 274.945 216.447 275.131 216.52 275.26C216.596 275.386 216.695 275.472 216.818 275.518C216.941 275.565 217.076 275.588 217.226 275.588C217.338 275.588 217.441 275.58 217.534 275.563C217.63 275.547 217.703 275.532 217.753 275.518L218.056 276.925C217.96 276.959 217.822 276.995 217.643 277.035C217.468 277.075 217.252 277.098 216.997 277.104C216.546 277.118 216.14 277.05 215.779 276.901C215.418 276.748 215.131 276.513 214.919 276.195C214.71 275.876 214.607 275.479 214.611 275.001V267.534ZM226.708 269.364V270.756H222.318V269.364H226.708ZM223.402 267.534H225.201V274.703C225.201 274.945 225.238 275.131 225.311 275.26C225.387 275.386 225.486 275.472 225.609 275.518C225.732 275.565 225.867 275.588 226.017 275.588C226.129 275.588 226.232 275.58 226.325 275.563C226.421 275.547 226.494 275.532 226.544 275.518L226.847 276.925C226.751 276.959 226.613 276.995 226.434 277.035C226.259 277.075 226.043 277.098 225.788 277.104C225.337 277.118 224.931 277.05 224.57 276.901C224.209 276.748 223.922 276.513 223.71 276.195C223.501 275.876 223.398 275.479 223.402 275.001V267.534ZM230.41 277.154C229.926 277.154 229.491 277.068 229.103 276.896C228.718 276.72 228.413 276.461 228.188 276.12C227.966 275.779 227.855 275.358 227.855 274.857C227.855 274.426 227.934 274.07 228.093 273.788C228.253 273.507 228.47 273.281 228.745 273.112C229.02 272.943 229.33 272.816 229.674 272.729C230.022 272.64 230.382 272.575 230.753 272.536C231.201 272.489 231.564 272.448 231.842 272.411C232.12 272.371 232.323 272.312 232.449 272.232C232.578 272.149 232.642 272.022 232.642 271.849V271.82C232.642 271.445 232.531 271.155 232.309 270.95C232.087 270.744 231.767 270.641 231.35 270.641C230.909 270.641 230.559 270.737 230.301 270.93C230.046 271.122 229.873 271.349 229.784 271.611L228.103 271.372C228.236 270.908 228.455 270.52 228.76 270.209C229.065 269.894 229.437 269.659 229.878 269.503C230.319 269.344 230.806 269.264 231.34 269.264C231.708 269.264 232.074 269.307 232.439 269.393C232.803 269.48 233.136 269.622 233.438 269.821C233.74 270.017 233.982 270.283 234.164 270.621C234.349 270.96 234.442 271.382 234.442 271.889V277H232.712V275.951H232.652C232.543 276.163 232.389 276.362 232.19 276.548C231.995 276.73 231.748 276.877 231.449 276.99C231.154 277.099 230.808 277.154 230.41 277.154ZM230.878 275.832C231.239 275.832 231.552 275.76 231.817 275.618C232.082 275.472 232.286 275.28 232.429 275.041C232.575 274.803 232.647 274.542 232.647 274.261V273.361C232.591 273.407 232.495 273.45 232.359 273.49C232.227 273.53 232.077 273.565 231.912 273.594C231.746 273.624 231.582 273.651 231.419 273.674C231.257 273.697 231.116 273.717 230.997 273.734C230.728 273.77 230.488 273.83 230.276 273.913C230.064 273.996 229.897 274.112 229.774 274.261C229.651 274.406 229.59 274.595 229.59 274.827C229.59 275.159 229.711 275.409 229.953 275.578C230.195 275.747 230.503 275.832 230.878 275.832ZM236.331 277V266.818H238.131V270.626H238.206C238.299 270.441 238.429 270.244 238.598 270.035C238.767 269.823 238.996 269.642 239.285 269.493C239.573 269.34 239.941 269.264 240.388 269.264C240.978 269.264 241.51 269.415 241.984 269.717C242.461 270.015 242.839 270.457 243.118 271.044C243.399 271.627 243.54 272.343 243.54 273.192C243.54 274.03 243.403 274.743 243.128 275.33C242.852 275.916 242.478 276.364 242.004 276.672C241.53 276.98 240.993 277.134 240.393 277.134C239.956 277.134 239.593 277.061 239.304 276.915C239.016 276.77 238.784 276.594 238.608 276.388C238.436 276.18 238.302 275.982 238.206 275.797H238.101V277H236.331ZM238.096 273.182C238.096 273.676 238.166 274.108 238.305 274.479C238.448 274.851 238.651 275.141 238.917 275.349C239.185 275.555 239.51 275.658 239.891 275.658C240.289 275.658 240.622 275.552 240.89 275.339C241.159 275.124 241.361 274.831 241.497 274.46C241.636 274.085 241.706 273.659 241.706 273.182C241.706 272.708 241.638 272.287 241.502 271.919C241.366 271.551 241.164 271.263 240.895 271.054C240.627 270.845 240.292 270.741 239.891 270.741C239.507 270.741 239.18 270.842 238.912 271.044C238.643 271.246 238.439 271.53 238.3 271.894C238.164 272.259 238.096 272.688 238.096 273.182ZM246.87 266.818V277H245.07V266.818H246.87ZM252.101 277.149C251.336 277.149 250.674 276.99 250.118 276.672C249.564 276.35 249.138 275.896 248.84 275.31C248.542 274.72 248.392 274.025 248.392 273.227C248.392 272.441 248.542 271.752 248.84 271.158C249.142 270.562 249.562 270.098 250.103 269.766C250.643 269.432 251.278 269.264 252.007 269.264C252.477 269.264 252.922 269.34 253.339 269.493C253.76 269.642 254.131 269.874 254.453 270.189C254.778 270.504 255.033 270.905 255.218 271.392C255.404 271.876 255.497 272.453 255.497 273.122V273.674H249.238V272.461H253.772C253.768 272.116 253.694 271.81 253.548 271.541C253.402 271.269 253.198 271.056 252.937 270.9C252.678 270.744 252.376 270.666 252.032 270.666C251.664 270.666 251.341 270.756 251.062 270.935C250.784 271.11 250.567 271.342 250.411 271.631C250.258 271.916 250.181 272.229 250.177 272.57V273.629C250.177 274.073 250.258 274.455 250.421 274.773C250.583 275.088 250.81 275.33 251.102 275.499C251.394 275.664 251.735 275.747 252.126 275.747C252.388 275.747 252.625 275.711 252.837 275.638C253.049 275.562 253.233 275.451 253.389 275.305C253.545 275.159 253.662 274.978 253.742 274.763L255.422 274.952C255.316 275.396 255.114 275.784 254.816 276.115C254.521 276.443 254.143 276.698 253.682 276.881C253.222 277.06 252.695 277.149 252.101 277.149Z" fill="#F8F8FA"/>
<path d="M125.5 94V93H123.5V94H125.5ZM221.793 202.707C222.183 203.098 222.817 203.098 223.207 202.707L229.571 196.343C229.962 195.953 229.962 195.319 229.571 194.929C229.181 194.538 228.547 194.538 228.157 194.929L222.5 200.586L216.843 194.929C216.453 194.538 215.819 194.538 215.429 194.929C215.038 195.319 215.038 195.953 215.429 196.343L221.793 202.707ZM131.379 118.773L130.809 119.595L131.379 118.773ZM123.5 94V105.628H125.5V94H123.5ZM223.5 202V190.372H221.5V202H223.5ZM130.809 119.595L215.051 178.049L216.191 176.405L131.949 117.951L130.809 119.595ZM223.5 190.372C223.5 184.8 220.769 179.582 216.191 176.405L215.051 178.049C219.091 180.851 221.5 185.456 221.5 190.372H223.5ZM123.5 105.628C123.5 111.2 126.231 116.418 130.809 119.595L131.949 117.951C127.909 115.149 125.5 110.544 125.5 105.628H123.5Z" fill="#FFAA00"/>
<path d="M198.5 94V93H196.5V94H198.5ZM294.793 202.707C295.183 203.098 295.817 203.098 296.207 202.707L302.571 196.343C302.962 195.953 302.962 195.319 302.571 194.929C302.181 194.538 301.547 194.538 301.157 194.929L295.5 200.586L289.843 194.929C289.453 194.538 288.819 194.538 288.429 194.929C288.038 195.319 288.038 195.953 288.429 196.343L294.793 202.707ZM204.379 118.773L203.809 119.595L204.379 118.773ZM196.5 94V105.628H198.5V94H196.5ZM296.5 202V190.372H294.5V202H296.5ZM203.809 119.595L288.051 178.049L289.191 176.405L204.949 117.951L203.809 119.595ZM296.5 190.372C296.5 184.8 293.769 179.582 289.191 176.405L288.051 178.049C292.091 180.851 294.5 185.456 294.5 190.372H296.5ZM196.5 105.628C196.5 111.2 199.231 116.418 203.809 119.595L204.949 117.951C200.909 115.149 198.5 110.544 198.5 105.628H196.5Z" fill="#FFAA00"/>
<path d="M277.5 94V93H275.5V94H277.5ZM128.793 202.707C129.183 203.098 129.817 203.098 130.207 202.707L136.571 196.343C136.962 195.953 136.962 195.319 136.571 194.929C136.181 194.538 135.547 194.538 135.157 194.929L129.5 200.586L123.843 194.929C123.453 194.538 122.819 194.538 122.429 194.929C122.038 195.319 122.038 195.953 122.429 196.343L128.793 202.707ZM138.783 177.706L138.363 176.798L138.783 177.706ZM267.217 118.294L266.798 117.386L267.217 118.294ZM275.5 94V103.772H277.5V94H275.5ZM130.5 202V192.228H128.5V202H130.5ZM266.798 117.386L138.363 176.798L139.202 178.614L267.637 119.202L266.798 117.386ZM130.5 192.228C130.5 186.382 133.897 181.068 139.202 178.614L138.363 176.798C132.349 179.58 128.5 185.602 128.5 192.228H130.5ZM275.5 103.772C275.5 109.618 272.104 114.932 266.798 117.386L267.637 119.202C273.651 116.42 277.5 110.398 277.5 103.772H275.5Z" fill="#FFAA00"/>
<rect width="78" height="41" transform="translate(580 50)" fill="#FFAA00"/>
<path d="M619.019 76.16C618.262 76.16 617.595 76.0053 617.019 75.696C616.454 75.376 616.011 74.9387 615.691 74.384C615.382 73.8187 615.227 73.168 615.227 72.432C615.227 71.92 615.318 71.3973 615.499 70.864C615.691 70.32 615.952 69.7547 616.283 69.168L619.035 64.32H620.603L617.435 69.712L617.499 69.76C617.691 69.472 617.968 69.2427 618.331 69.072C618.694 68.9013 619.104 68.816 619.563 68.816C620.203 68.816 620.763 68.9653 621.243 69.264C621.734 69.5627 622.112 69.9787 622.379 70.512C622.646 71.0347 622.779 71.6533 622.779 72.368C622.779 73.1253 622.619 73.792 622.299 74.368C621.99 74.9333 621.552 75.376 620.987 75.696C620.432 76.0053 619.776 76.16 619.019 76.16ZM619.003 74.88C619.696 74.88 620.256 74.656 620.683 74.208C621.12 73.7493 621.339 73.1467 621.339 72.4C621.339 71.6533 621.12 71.056 620.683 70.608C620.256 70.1493 619.696 69.92 619.003 69.92C618.31 69.92 617.744 70.1493 617.307 70.608C616.88 71.056 616.667 71.6533 616.667 72.4C616.667 73.1467 616.88 73.7493 617.307 74.208C617.744 74.656 618.31 74.88 619.003 74.88Z" fill="#1D1D1F"/>
<rect width="49" height="41" transform="translate(668 50)" fill="#FFAA00"/>
<path d="M691.827 76.16C691.123 76.16 690.504 76.0213 689.971 75.744C689.448 75.456 689.043 75.0613 688.755 74.56C688.467 74.0587 688.323 73.472 688.323 72.8H689.763C689.763 73.4507 689.944 73.9627 690.307 74.336C690.68 74.6987 691.192 74.88 691.843 74.88C692.504 74.88 693.016 74.688 693.379 74.304C693.742 73.92 693.923 73.4187 693.923 72.8V72C693.923 71.3387 693.742 70.8267 693.379 70.464C693.016 70.1013 692.504 69.92 691.843 69.92H690.579V68.672L693.363 65.632H688.803V64.32H694.995V65.664L692.259 68.656C693.208 68.7307 693.96 69.0667 694.515 69.664C695.08 70.2613 695.363 71.04 695.363 72V72.8C695.363 73.472 695.214 74.0587 694.915 74.56C694.627 75.0613 694.216 75.456 693.683 75.744C693.15 76.0213 692.531 76.16 691.827 76.16Z" fill="#1D1D1F"/>
<rect width="88" height="41" transform="translate(727 50)" fill="#FFAA00"/>
<path d="M769.259 76L773.435 65.632H768.923V67.52H767.483V64.32H774.923V65.664L770.843 76H769.259Z" fill="#1D1D1F"/>
<rect width="88" height="41" transform="translate(580 205)" fill="#FFAA00"/>
<path d="M622.259 231L626.435 220.632H621.923V222.52H620.483V219.32H627.923V220.664L623.843 231H622.259Z" fill="#1D1D1F"/>
<rect width="78" height="41" transform="translate(678 205)" fill="#FFAA00"/>
<path d="M717.019 231.16C716.262 231.16 715.595 231.005 715.019 230.696C714.454 230.376 714.011 229.939 713.691 229.384C713.382 228.819 713.227 228.168 713.227 227.432C713.227 226.92 713.318 226.397 713.499 225.864C713.691 225.32 713.952 224.755 714.283 224.168L717.035 219.32H718.603L715.435 224.712L715.499 224.76C715.691 224.472 715.968 224.243 716.331 224.072C716.694 223.901 717.104 223.816 717.563 223.816C718.203 223.816 718.763 223.965 719.243 224.264C719.734 224.563 720.112 224.979 720.379 225.512C720.646 226.035 720.779 226.653 720.779 227.368C720.779 228.125 720.619 228.792 720.299 229.368C719.99 229.933 719.552 230.376 718.987 230.696C718.432 231.005 717.776 231.16 717.019 231.16ZM717.003 229.88C717.696 229.88 718.256 229.656 718.683 229.208C719.12 228.749 719.339 228.147 719.339 227.4C719.339 226.653 719.12 226.056 718.683 225.608C718.256 225.149 717.696 224.92 717.003 224.92C716.31 224.92 715.744 225.149 715.307 225.608C714.88 226.056 714.667 226.653 714.667 227.4C714.667 228.147 714.88 228.749 715.307 229.208C715.744 229.656 716.31 229.88 717.003 229.88Z" fill="#1D1D1F"/>
<rect width="49" height="41" transform="translate(766 205)" fill="#FFAA00"/>
<path d="M789.827 231.16C789.123 231.16 788.504 231.021 787.971 230.744C787.448 230.456 787.043 230.061 786.755 229.56C786.467 229.059 786.323 228.472 786.323 227.8H787.763C787.763 228.451 787.944 228.963 788.307 229.336C788.68 229.699 789.192 229.88 789.843 229.88C790.504 229.88 791.016 229.688 791.379 229.304C791.742 228.92 791.923 228.419 791.923 227.8V227C791.923 226.339 791.742 225.827 791.379 225.464C791.016 225.101 790.504 224.92 789.843 224.92H788.579V223.672L791.363 220.632H786.803V219.32H792.995V220.664L790.259 223.656C791.208 223.731 791.96 224.067 792.515 224.664C793.08 225.261 793.363 226.04 793.363 227V227.8C793.363 228.472 793.214 229.059 792.915 229.56C792.627 230.061 792.216 230.456 791.683 230.744C791.15 231.021 790.531 231.16 789.827 231.16Z" fill="#1D1D1F"/>
<path d="M652.942 24.9091C652.942 26.0062 652.737 26.9458 652.326 27.728C651.918 28.5069 651.361 29.1035 650.655 29.5178C649.953 29.9321 649.155 30.1392 648.264 30.1392C647.372 30.1392 646.574 29.9321 645.868 29.5178C645.165 29.1001 644.608 28.5019 644.197 27.723C643.789 26.9408 643.586 26.0028 643.586 24.9091C643.586 23.812 643.789 22.8741 644.197 22.0952C644.608 21.313 645.165 20.7147 645.868 20.3004C646.574 19.8861 647.372 19.679 648.264 19.679C649.155 19.679 649.953 19.8861 650.655 20.3004C651.361 20.7147 651.918 21.313 652.326 22.0952C652.737 22.8741 652.942 23.812 652.942 24.9091ZM651.088 24.9091C651.088 24.1368 650.967 23.4856 650.725 22.9553C650.486 22.4216 650.155 22.0189 649.73 21.7472C649.306 21.4721 648.817 21.3345 648.264 21.3345C647.71 21.3345 647.221 21.4721 646.797 21.7472C646.373 22.0189 646.04 22.4216 645.798 22.9553C645.559 23.4856 645.44 24.1368 645.44 24.9091C645.44 25.6813 645.559 26.3343 645.798 26.8679C646.04 27.3982 646.373 27.8009 646.797 28.076C647.221 28.3478 647.71 28.4837 648.264 28.4837C648.817 28.4837 649.306 28.3478 649.73 28.076C650.155 27.8009 650.486 27.3982 650.725 26.8679C650.967 26.3343 651.088 25.6813 651.088 24.9091ZM656.406 19.8182V30H654.606V19.8182H656.406ZM661.091 30.1342C660.491 30.1342 659.954 29.9801 659.48 29.6719C659.006 29.3636 658.631 28.9162 658.356 28.3295C658.081 27.7429 657.944 27.0303 657.944 26.1918C657.944 25.3433 658.083 24.6274 658.361 24.044C658.643 23.4574 659.022 23.0149 659.5 22.7166C659.977 22.415 660.509 22.2642 661.096 22.2642C661.543 22.2642 661.911 22.3404 662.199 22.4929C662.488 22.642 662.716 22.8227 662.885 23.0348C663.054 23.2436 663.185 23.4408 663.278 23.6264H663.353V19.8182H665.157V30H663.387V28.7969H663.278C663.185 28.9825 663.051 29.1797 662.875 29.3885C662.7 29.594 662.468 29.7696 662.179 29.9155C661.891 30.0613 661.528 30.1342 661.091 30.1342ZM661.593 28.6577C661.974 28.6577 662.299 28.5549 662.567 28.3494C662.836 28.1406 663.039 27.8506 663.179 27.4794C663.318 27.1082 663.387 26.6757 663.387 26.1818C663.387 25.688 663.318 25.2588 663.179 24.8942C663.043 24.5296 662.841 24.2462 662.572 24.044C662.307 23.8419 661.98 23.7408 661.593 23.7408C661.192 23.7408 660.857 23.8452 660.588 24.054C660.32 24.2628 660.118 24.5511 659.982 24.919C659.846 25.2869 659.778 25.7079 659.778 26.1818C659.778 26.6591 659.846 27.085 659.982 27.4595C660.121 27.8307 660.325 28.1241 660.593 28.3395C660.865 28.5516 661.198 28.6577 661.593 28.6577ZM673.879 30.1491C673.133 30.1491 672.487 29.9851 671.94 29.657C671.393 29.3288 670.969 28.8698 670.667 28.2798C670.369 27.6899 670.22 27.0005 670.22 26.2116C670.22 25.4228 670.369 24.7318 670.667 24.1385C670.969 23.5452 671.393 23.0845 671.94 22.7564C672.487 22.4283 673.133 22.2642 673.879 22.2642C674.624 22.2642 675.271 22.4283 675.818 22.7564C676.365 23.0845 676.787 23.5452 677.085 24.1385C677.387 24.7318 677.538 25.4228 677.538 26.2116C677.538 27.0005 677.387 27.6899 677.085 28.2798C676.787 28.8698 676.365 29.3288 675.818 29.657C675.271 29.9851 674.624 30.1491 673.879 30.1491ZM673.889 28.7074C674.293 28.7074 674.631 28.5964 674.903 28.3743C675.175 28.1489 675.377 27.8473 675.509 27.4695C675.645 27.0916 675.713 26.6707 675.713 26.2067C675.713 25.7393 675.645 25.3168 675.509 24.9389C675.377 24.5578 675.175 24.2545 674.903 24.0291C674.631 23.8037 674.293 23.6911 673.889 23.6911C673.474 23.6911 673.13 23.8037 672.855 24.0291C672.583 24.2545 672.379 24.5578 672.243 24.9389C672.11 25.3168 672.044 25.7393 672.044 26.2067C672.044 26.6707 672.11 27.0916 672.243 27.4695C672.379 27.8473 672.583 28.1489 672.855 28.3743C673.13 28.5964 673.474 28.7074 673.889 28.7074ZM683.933 26.7884V22.3636H685.732V30H683.987V28.6428H683.908C683.735 29.0703 683.452 29.42 683.058 29.6918C682.666 29.9635 682.184 30.0994 681.611 30.0994C681.11 30.0994 680.668 29.9884 680.283 29.7663C679.902 29.541 679.604 29.2145 679.388 28.7869C679.173 28.3561 679.065 27.8357 679.065 27.2259V22.3636H680.865V26.9474C680.865 27.4313 680.998 27.8158 681.263 28.1009C681.528 28.3859 681.876 28.5284 682.307 28.5284C682.572 28.5284 682.829 28.4638 683.077 28.3345C683.326 28.2053 683.53 28.013 683.689 27.7578C683.851 27.4993 683.933 27.1761 683.933 26.7884ZM691.396 22.3636V23.7557H687.006V22.3636H691.396ZM688.09 20.5341H689.89V27.7031C689.89 27.9451 689.926 28.1307 689.999 28.2599C690.075 28.3859 690.175 28.4721 690.297 28.5185C690.42 28.5649 690.556 28.5881 690.705 28.5881C690.818 28.5881 690.921 28.5798 691.013 28.5632C691.109 28.5466 691.182 28.5317 691.232 28.5185L691.535 29.9254C691.439 29.9586 691.302 29.995 691.123 30.0348C690.947 30.0746 690.732 30.0978 690.476 30.1044C690.026 30.1177 689.62 30.0497 689.258 29.9006C688.897 29.7481 688.61 29.5128 688.398 29.1946C688.189 28.8764 688.087 28.4787 688.09 28.0014V20.5341ZM692.901 32.8636V22.3636H694.671V23.6264H694.776C694.868 23.4408 694.999 23.2436 695.168 23.0348C695.337 22.8227 695.566 22.642 695.854 22.4929C696.143 22.3404 696.511 22.2642 696.958 22.2642C697.548 22.2642 698.08 22.415 698.554 22.7166C699.031 23.0149 699.409 23.4574 699.688 24.044C699.969 24.6274 700.11 25.3433 700.11 26.1918C700.11 27.0303 699.973 27.7429 699.697 28.3295C699.422 28.9162 699.048 29.3636 698.574 29.6719C698.1 29.9801 697.563 30.1342 696.963 30.1342C696.526 30.1342 696.163 30.0613 695.874 29.9155C695.586 29.7696 695.354 29.594 695.178 29.3885C695.006 29.1797 694.872 28.9825 694.776 28.7969H694.701V32.8636H692.901ZM694.666 26.1818C694.666 26.6757 694.736 27.1082 694.875 27.4794C695.018 27.8506 695.221 28.1406 695.487 28.3494C695.755 28.5549 696.08 28.6577 696.461 28.6577C696.859 28.6577 697.192 28.5516 697.46 28.3395C697.729 28.1241 697.931 27.8307 698.067 27.4595C698.206 27.085 698.276 26.6591 698.276 26.1818C698.276 25.7079 698.208 25.2869 698.072 24.919C697.936 24.5511 697.734 24.2628 697.465 24.054C697.197 23.8452 696.862 23.7408 696.461 23.7408C696.076 23.7408 695.75 23.8419 695.482 24.044C695.213 24.2462 695.009 24.5296 694.87 24.8942C694.734 25.2588 694.666 25.688 694.666 26.1818ZM706.518 26.7884V22.3636H708.318V30H706.573V28.6428H706.494C706.321 29.0703 706.038 29.42 705.643 29.6918C705.252 29.9635 704.77 30.0994 704.197 30.0994C703.696 30.0994 703.254 29.9884 702.869 29.7663C702.488 29.541 702.19 29.2145 701.974 28.7869C701.759 28.3561 701.651 27.8357 701.651 27.2259V22.3636H703.451V26.9474C703.451 27.4313 703.584 27.8158 703.849 28.1009C704.114 28.3859 704.462 28.5284 704.893 28.5284C705.158 28.5284 705.415 28.4638 705.663 28.3345C705.912 28.2053 706.116 28.013 706.275 27.7578C706.437 27.4993 706.518 27.1761 706.518 26.7884ZM713.982 22.3636V23.7557H709.592V22.3636H713.982ZM710.676 20.5341H712.476V27.7031C712.476 27.9451 712.512 28.1307 712.585 28.2599C712.661 28.3859 712.761 28.4721 712.883 28.5185C713.006 28.5649 713.142 28.5881 713.291 28.5881C713.404 28.5881 713.506 28.5798 713.599 28.5632C713.695 28.5466 713.768 28.5317 713.818 28.5185L714.121 29.9254C714.025 29.9586 713.888 29.995 713.709 30.0348C713.533 30.0746 713.318 30.0978 713.062 30.1044C712.612 30.1177 712.206 30.0497 711.844 29.9006C711.483 29.7481 711.196 29.5128 710.984 29.1946C710.775 28.8764 710.673 28.4787 710.676 28.0014V20.5341ZM722.773 22.3636V23.7557H718.383V22.3636H722.773ZM719.467 20.5341H721.267V27.7031C721.267 27.9451 721.303 28.1307 721.376 28.2599C721.452 28.3859 721.552 28.4721 721.674 28.5185C721.797 28.5649 721.933 28.5881 722.082 28.5881C722.195 28.5881 722.297 28.5798 722.39 28.5632C722.486 28.5466 722.559 28.5317 722.609 28.5185L722.912 29.9254C722.816 29.9586 722.679 29.995 722.5 30.0348C722.324 30.0746 722.109 30.0978 721.853 30.1044C721.403 30.1177 720.997 30.0497 720.635 29.9006C720.274 29.7481 719.987 29.5128 719.775 29.1946C719.566 28.8764 719.464 28.4787 719.467 28.0014V20.5341ZM726.476 30.1541C725.992 30.1541 725.556 30.0679 725.168 29.8956C724.784 29.7199 724.479 29.4614 724.253 29.12C724.031 28.7786 723.92 28.3577 723.92 27.8572C723.92 27.4264 724 27.0701 724.159 26.7884C724.318 26.5066 724.535 26.2812 724.81 26.1122C725.085 25.9432 725.395 25.8156 725.74 25.7294C726.088 25.6399 726.448 25.5753 726.819 25.5355C727.266 25.4891 727.629 25.4477 727.907 25.4112C728.186 25.3714 728.388 25.3118 728.514 25.2322C728.643 25.1494 728.708 25.0218 728.708 24.8494V24.8196C728.708 24.4451 728.597 24.1551 728.375 23.9496C728.153 23.7441 727.833 23.6413 727.415 23.6413C726.974 23.6413 726.625 23.7375 726.366 23.9297C726.111 24.1219 725.939 24.349 725.849 24.6108L724.169 24.3722C724.301 23.9081 724.52 23.5204 724.825 23.2088C725.13 22.8939 725.503 22.6586 725.944 22.5028C726.385 22.3438 726.872 22.2642 727.405 22.2642C727.773 22.2642 728.14 22.3073 728.504 22.3935C728.869 22.4796 729.202 22.6222 729.503 22.821C729.805 23.0166 730.047 23.2834 730.229 23.6214C730.415 23.9595 730.508 24.3821 730.508 24.8892V30H728.778V28.951H728.718C728.608 29.1631 728.454 29.362 728.256 29.5476C728.06 29.7299 727.813 29.8774 727.515 29.9901C727.22 30.0994 726.873 30.1541 726.476 30.1541ZM726.943 28.8317C727.304 28.8317 727.617 28.7604 727.883 28.6179C728.148 28.4721 728.352 28.2798 728.494 28.0412C728.64 27.8026 728.713 27.5424 728.713 27.2607V26.3608C728.657 26.4072 728.56 26.4503 728.425 26.4901C728.292 26.5298 728.143 26.5646 727.977 26.5945C727.811 26.6243 727.647 26.6508 727.485 26.674C727.323 26.6972 727.182 26.7171 727.062 26.7337C726.794 26.7701 726.554 26.8298 726.341 26.9126C726.129 26.9955 725.962 27.1115 725.839 27.2607C725.717 27.4065 725.655 27.5954 725.655 27.8274C725.655 28.1589 725.776 28.4091 726.018 28.5781C726.26 28.7472 726.568 28.8317 726.943 28.8317ZM732.397 30V19.8182H734.197V23.6264H734.271C734.364 23.4408 734.495 23.2436 734.664 23.0348C734.833 22.8227 735.062 22.642 735.35 22.4929C735.638 22.3404 736.006 22.2642 736.454 22.2642C737.044 22.2642 737.576 22.415 738.05 22.7166C738.527 23.0149 738.905 23.4574 739.183 24.044C739.465 24.6274 739.606 25.3433 739.606 26.1918C739.606 27.0303 739.468 27.7429 739.193 28.3295C738.918 28.9162 738.543 29.3636 738.069 29.6719C737.595 29.9801 737.059 30.1342 736.459 30.1342C736.021 30.1342 735.658 30.0613 735.37 29.9155C735.081 29.7696 734.849 29.594 734.674 29.3885C734.501 29.1797 734.367 28.9825 734.271 28.7969H734.167V30H732.397ZM734.162 26.1818C734.162 26.6757 734.231 27.1082 734.371 27.4794C734.513 27.8506 734.717 28.1406 734.982 28.3494C735.251 28.5549 735.575 28.6577 735.956 28.6577C736.354 28.6577 736.687 28.5516 736.956 28.3395C737.224 28.1241 737.426 27.8307 737.562 27.4595C737.702 27.085 737.771 26.6591 737.771 26.1818C737.771 25.7079 737.703 25.2869 737.567 24.919C737.431 24.5511 737.229 24.2628 736.961 24.054C736.692 23.8452 736.358 23.7408 735.956 23.7408C735.572 23.7408 735.246 23.8419 734.977 24.044C734.709 24.2462 734.505 24.5296 734.366 24.8942C734.23 25.2588 734.162 25.688 734.162 26.1818ZM742.935 19.8182V30H741.136V19.8182H742.935ZM748.167 30.1491C747.401 30.1491 746.74 29.9901 746.183 29.6719C745.63 29.3504 745.204 28.8963 744.905 28.3097C744.607 27.7197 744.458 27.0253 744.458 26.2266C744.458 25.4411 744.607 24.7517 744.905 24.1584C745.207 23.5618 745.628 23.0978 746.168 22.7663C746.708 22.4316 747.343 22.2642 748.072 22.2642C748.543 22.2642 748.987 22.3404 749.405 22.4929C749.826 22.642 750.197 22.8741 750.518 23.1889C750.843 23.5038 751.098 23.9048 751.284 24.392C751.47 24.8759 751.562 25.4527 751.562 26.1222V26.674H745.303V25.4609H749.837C749.834 25.1162 749.759 24.8097 749.613 24.5412C749.468 24.2694 749.264 24.0556 749.002 23.8999C748.743 23.7441 748.442 23.6662 748.097 23.6662C747.729 23.6662 747.406 23.7557 747.128 23.9347C746.849 24.1103 746.632 24.3423 746.476 24.6307C746.324 24.9157 746.246 25.2289 746.243 25.5703V26.6293C746.243 27.0734 746.324 27.4545 746.486 27.7727C746.649 28.0876 746.876 28.3295 747.167 28.4986C747.459 28.6643 747.8 28.7472 748.192 28.7472C748.453 28.7472 748.69 28.7107 748.903 28.6378C749.115 28.5616 749.299 28.4505 749.454 28.3047C749.61 28.1589 749.728 27.9782 749.807 27.7628L751.488 27.9517C751.382 28.3958 751.18 28.7836 750.881 29.1151C750.586 29.4432 750.208 29.6984 749.748 29.8807C749.287 30.0597 748.76 30.1491 748.167 30.1491Z" fill="#F8F8FA"/>
<path d="M649.191 266.818V277H647.55L642.753 270.065H642.668V277H640.824V266.818H642.474L647.267 273.759H647.356V266.818H649.191ZM654.502 277.149C653.736 277.149 653.075 276.99 652.518 276.672C651.965 276.35 651.539 275.896 651.24 275.31C650.942 274.72 650.793 274.025 650.793 273.227C650.793 272.441 650.942 271.752 651.24 271.158C651.542 270.562 651.963 270.098 652.503 269.766C653.043 269.432 653.678 269.264 654.407 269.264C654.878 269.264 655.322 269.34 655.74 269.493C656.161 269.642 656.532 269.874 656.853 270.189C657.178 270.504 657.433 270.905 657.619 271.392C657.804 271.876 657.897 272.453 657.897 273.122V273.674H651.638V272.461H656.172C656.169 272.116 656.094 271.81 655.948 271.541C655.803 271.269 655.599 271.056 655.337 270.9C655.078 270.744 654.777 270.666 654.432 270.666C654.064 270.666 653.741 270.756 653.463 270.935C653.184 271.11 652.967 271.342 652.811 271.631C652.659 271.916 652.581 272.229 652.578 272.57V273.629C652.578 274.073 652.659 274.455 652.821 274.773C652.984 275.088 653.211 275.33 653.502 275.499C653.794 275.664 654.135 275.747 654.527 275.747C654.788 275.747 655.025 275.711 655.237 275.638C655.45 275.562 655.634 275.451 655.789 275.305C655.945 275.159 656.063 274.978 656.142 274.763L657.823 274.952C657.717 275.396 657.514 275.784 657.216 276.115C656.921 276.443 656.543 276.698 656.083 276.881C655.622 277.06 655.095 277.149 654.502 277.149ZM660.955 277L658.797 269.364H660.632L661.974 274.733H662.044L663.416 269.364H665.23L666.603 274.703H666.677L668 269.364H669.839L667.676 277H665.802L664.37 271.839H664.266L662.834 277H660.955ZM677.899 277.149C677.153 277.149 676.507 276.985 675.96 276.657C675.413 276.329 674.989 275.87 674.688 275.28C674.389 274.69 674.24 274 674.24 273.212C674.24 272.423 674.389 271.732 674.688 271.138C674.989 270.545 675.413 270.085 675.96 269.756C676.507 269.428 677.153 269.264 677.899 269.264C678.645 269.264 679.291 269.428 679.838 269.756C680.385 270.085 680.808 270.545 681.106 271.138C681.408 271.732 681.558 272.423 681.558 273.212C681.558 274 681.408 274.69 681.106 275.28C680.808 275.87 680.385 276.329 679.838 276.657C679.291 276.985 678.645 277.149 677.899 277.149ZM677.909 275.707C678.314 275.707 678.652 275.596 678.923 275.374C679.195 275.149 679.397 274.847 679.53 274.469C679.666 274.092 679.734 273.671 679.734 273.207C679.734 272.739 679.666 272.317 679.53 271.939C679.397 271.558 679.195 271.254 678.923 271.029C678.652 270.804 678.314 270.691 677.909 270.691C677.495 270.691 677.15 270.804 676.875 271.029C676.603 271.254 676.399 271.558 676.264 271.939C676.131 272.317 676.065 272.739 676.065 273.207C676.065 273.671 676.131 274.092 676.264 274.469C676.399 274.847 676.603 275.149 676.875 275.374C677.15 275.596 677.495 275.707 677.909 275.707ZM687.953 273.788V269.364H689.753V277H688.008V275.643H687.928C687.756 276.07 687.472 276.42 687.078 276.692C686.687 276.964 686.205 277.099 685.631 277.099C685.131 277.099 684.688 276.988 684.304 276.766C683.923 276.541 683.624 276.214 683.409 275.787C683.194 275.356 683.086 274.836 683.086 274.226V269.364H684.886V273.947C684.886 274.431 685.018 274.816 685.283 275.101C685.548 275.386 685.896 275.528 686.327 275.528C686.592 275.528 686.849 275.464 687.098 275.335C687.347 275.205 687.55 275.013 687.709 274.758C687.872 274.499 687.953 274.176 687.953 273.788ZM695.417 269.364V270.756H691.027V269.364H695.417ZM692.111 267.534H693.91V274.703C693.91 274.945 693.947 275.131 694.02 275.26C694.096 275.386 694.195 275.472 694.318 275.518C694.441 275.565 694.576 275.588 694.726 275.588C694.838 275.588 694.941 275.58 695.034 275.563C695.13 275.547 695.203 275.532 695.253 275.518L695.556 276.925C695.46 276.959 695.322 276.995 695.143 277.035C694.968 277.075 694.752 277.098 694.497 277.104C694.046 277.118 693.64 277.05 693.279 276.901C692.918 276.748 692.631 276.513 692.419 276.195C692.21 275.876 692.107 275.479 692.111 275.001V267.534ZM696.922 279.864V269.364H698.692V270.626H698.796C698.889 270.441 699.02 270.244 699.189 270.035C699.358 269.823 699.587 269.642 699.875 269.493C700.163 269.34 700.531 269.264 700.979 269.264C701.569 269.264 702.101 269.415 702.574 269.717C703.052 270.015 703.43 270.457 703.708 271.044C703.99 271.627 704.131 272.343 704.131 273.192C704.131 274.03 703.993 274.743 703.718 275.33C703.443 275.916 703.068 276.364 702.594 276.672C702.12 276.98 701.583 277.134 700.984 277.134C700.546 277.134 700.183 277.061 699.895 276.915C699.606 276.77 699.374 276.594 699.199 276.388C699.026 276.18 698.892 275.982 698.796 275.797H698.722V279.864H696.922ZM698.687 273.182C698.687 273.676 698.756 274.108 698.896 274.479C699.038 274.851 699.242 275.141 699.507 275.349C699.775 275.555 700.1 275.658 700.481 275.658C700.879 275.658 701.212 275.552 701.481 275.339C701.749 275.124 701.951 274.831 702.087 274.46C702.226 274.085 702.296 273.659 702.296 273.182C702.296 272.708 702.228 272.287 702.092 271.919C701.956 271.551 701.754 271.263 701.486 271.054C701.217 270.845 700.882 270.741 700.481 270.741C700.097 270.741 699.771 270.842 699.502 271.044C699.234 271.246 699.03 271.53 698.891 271.894C698.755 272.259 698.687 272.688 698.687 273.182ZM710.539 273.788V269.364H712.339V277H710.594V275.643H710.514C710.342 276.07 710.058 276.42 709.664 276.692C709.273 276.964 708.791 277.099 708.217 277.099C707.717 277.099 707.274 276.988 706.89 276.766C706.509 276.541 706.21 276.214 705.995 275.787C705.78 275.356 705.672 274.836 705.672 274.226V269.364H707.472V273.947C707.472 274.431 707.604 274.816 707.869 275.101C708.134 275.386 708.482 275.528 708.913 275.528C709.178 275.528 709.435 275.464 709.684 275.335C709.932 275.205 710.136 275.013 710.295 274.758C710.458 274.499 710.539 274.176 710.539 273.788ZM718.003 269.364V270.756H713.613V269.364H718.003ZM714.696 267.534H716.496V274.703C716.496 274.945 716.533 275.131 716.606 275.26C716.682 275.386 716.781 275.472 716.904 275.518C717.026 275.565 717.162 275.588 717.312 275.588C717.424 275.588 717.527 275.58 717.62 275.563C717.716 275.547 717.789 275.532 717.839 275.518L718.142 276.925C718.046 276.959 717.908 276.995 717.729 277.035C717.553 277.075 717.338 277.098 717.083 277.104C716.632 277.118 716.226 277.05 715.865 276.901C715.504 276.748 715.217 276.513 715.005 276.195C714.796 275.876 714.693 275.479 714.696 275.001V267.534ZM726.794 269.364V270.756H722.404V269.364H726.794ZM723.487 267.534H725.287V274.703C725.287 274.945 725.324 275.131 725.397 275.26C725.473 275.386 725.572 275.472 725.695 275.518C725.818 275.565 725.953 275.588 726.103 275.588C726.215 275.588 726.318 275.58 726.411 275.563C726.507 275.547 726.58 275.532 726.63 275.518L726.933 276.925C726.837 276.959 726.699 276.995 726.52 277.035C726.344 277.075 726.129 277.098 725.874 277.104C725.423 277.118 725.017 277.05 724.656 276.901C724.295 276.748 724.008 276.513 723.796 276.195C723.587 275.876 723.484 275.479 723.487 275.001V267.534ZM730.496 277.154C730.012 277.154 729.576 277.068 729.189 276.896C728.804 276.72 728.499 276.461 728.274 276.12C728.052 275.779 727.941 275.358 727.941 274.857C727.941 274.426 728.02 274.07 728.179 273.788C728.339 273.507 728.556 273.281 728.831 273.112C729.106 272.943 729.416 272.816 729.76 272.729C730.108 272.64 730.468 272.575 730.839 272.536C731.287 272.489 731.65 272.448 731.928 272.411C732.206 272.371 732.409 272.312 732.535 272.232C732.664 272.149 732.728 272.022 732.728 271.849V271.82C732.728 271.445 732.617 271.155 732.395 270.95C732.173 270.744 731.853 270.641 731.436 270.641C730.995 270.641 730.645 270.737 730.387 270.93C730.132 271.122 729.959 271.349 729.87 271.611L728.189 271.372C728.322 270.908 728.541 270.52 728.846 270.209C729.151 269.894 729.523 269.659 729.964 269.503C730.405 269.344 730.892 269.264 731.426 269.264C731.794 269.264 732.16 269.307 732.525 269.393C732.889 269.48 733.222 269.622 733.524 269.821C733.825 270.017 734.067 270.283 734.25 270.621C734.435 270.96 734.528 271.382 734.528 271.889V277H732.798V275.951H732.738C732.629 276.163 732.475 276.362 732.276 276.548C732.08 276.73 731.834 276.877 731.535 276.99C731.24 277.099 730.894 277.154 730.496 277.154ZM730.964 275.832C731.325 275.832 731.638 275.76 731.903 275.618C732.168 275.472 732.372 275.28 732.515 275.041C732.66 274.803 732.733 274.542 732.733 274.261V273.361C732.677 273.407 732.581 273.45 732.445 273.49C732.312 273.53 732.163 273.565 731.998 273.594C731.832 273.624 731.668 273.651 731.505 273.674C731.343 273.697 731.202 273.717 731.083 273.734C730.814 273.77 730.574 273.83 730.362 273.913C730.15 273.996 729.982 274.112 729.86 274.261C729.737 274.406 729.676 274.595 729.676 274.827C729.676 275.159 729.797 275.409 730.039 275.578C730.281 275.747 730.589 275.832 730.964 275.832ZM736.417 277V266.818H738.217V270.626H738.292C738.384 270.441 738.515 270.244 738.684 270.035C738.853 269.823 739.082 269.642 739.37 269.493C739.659 269.34 740.027 269.264 740.474 269.264C741.064 269.264 741.596 269.415 742.07 269.717C742.547 270.015 742.925 270.457 743.204 271.044C743.485 271.627 743.626 272.343 743.626 273.192C743.626 274.03 743.489 274.743 743.214 275.33C742.938 275.916 742.564 276.364 742.09 276.672C741.616 276.98 741.079 277.134 740.479 277.134C740.042 277.134 739.679 277.061 739.39 276.915C739.102 276.77 738.87 276.594 738.694 276.388C738.522 276.18 738.388 275.982 738.292 275.797H738.187V277H736.417ZM738.182 273.182C738.182 273.676 738.252 274.108 738.391 274.479C738.534 274.851 738.737 275.141 739.003 275.349C739.271 275.555 739.596 275.658 739.977 275.658C740.375 275.658 740.708 275.552 740.976 275.339C741.245 275.124 741.447 274.831 741.583 274.46C741.722 274.085 741.792 273.659 741.792 273.182C741.792 272.708 741.724 272.287 741.588 271.919C741.452 271.551 741.25 271.263 740.981 271.054C740.713 270.845 740.378 270.741 739.977 270.741C739.593 270.741 739.266 270.842 738.998 271.044C738.729 271.246 738.525 271.53 738.386 271.894C738.25 272.259 738.182 272.688 738.182 273.182ZM746.956 266.818V277H745.156V266.818H746.956ZM752.187 277.149C751.422 277.149 750.76 276.99 750.204 276.672C749.65 276.35 749.224 275.896 748.926 275.31C748.628 274.72 748.478 274.025 748.478 273.227C748.478 272.441 748.628 271.752 748.926 271.158C749.227 270.562 749.648 270.098 750.189 269.766C750.729 269.432 751.364 269.264 752.093 269.264C752.563 269.264 753.008 269.34 753.425 269.493C753.846 269.642 754.217 269.874 754.539 270.189C754.864 270.504 755.119 270.905 755.304 271.392C755.49 271.876 755.583 272.453 755.583 273.122V273.674H749.324V272.461H753.858C753.854 272.116 753.78 271.81 753.634 271.541C753.488 271.269 753.284 271.056 753.022 270.9C752.764 270.744 752.462 270.666 752.118 270.666C751.75 270.666 751.427 270.756 751.148 270.935C750.87 271.11 750.653 271.342 750.497 271.631C750.344 271.916 750.267 272.229 750.263 272.57V273.629C750.263 274.073 750.344 274.455 750.507 274.773C750.669 275.088 750.896 275.33 751.188 275.499C751.48 275.664 751.821 275.747 752.212 275.747C752.474 275.747 752.711 275.711 752.923 275.638C753.135 275.562 753.319 275.451 753.475 275.305C753.631 275.159 753.748 274.978 753.828 274.763L755.508 274.952C755.402 275.396 755.2 275.784 754.902 276.115C754.607 276.443 754.229 276.698 753.768 276.881C753.307 277.06 752.781 277.149 752.187 277.149Z" fill="#F8F8FA"/>
<path d="M620.5 94V93H618.5V94H620.5ZM716.793 202.707C717.183 203.098 717.817 203.098 718.207 202.707L724.571 196.343C724.962 195.953 724.962 195.319 724.571 194.929C724.181 194.538 723.547 194.538 723.157 194.929L717.5 200.586L711.843 194.929C711.453 194.538 710.819 194.538 710.429 194.929C710.038 195.319 710.038 195.953 710.429 196.343L716.793 202.707ZM626.379 118.773L625.809 119.595L626.379 118.773ZM618.5 94V105.628H620.5V94H618.5ZM718.5 202V190.372H716.5V202H718.5ZM625.809 119.595L710.051 178.049L711.191 176.405L626.949 117.951L625.809 119.595ZM718.5 190.372C718.5 184.8 715.769 179.582 711.191 176.405L710.051 178.049C714.091 180.851 716.5 185.456 716.5 190.372H718.5ZM618.5 105.628C618.5 111.2 621.231 116.418 625.809 119.595L626.949 117.951C622.909 115.149 620.5 110.544 620.5 105.628H618.5Z" fill="#FFAA00"/>
<path d="M693.5 94V93H691.5V94H693.5ZM789.793 202.707C790.183 203.098 790.817 203.098 791.207 202.707L797.571 196.343C797.962 195.953 797.962 195.319 797.571 194.929C797.181 194.538 796.547 194.538 796.157 194.929L790.5 200.586L784.843 194.929C784.453 194.538 783.819 194.538 783.429 194.929C783.038 195.319 783.038 195.953 783.429 196.343L789.793 202.707ZM699.379 118.773L698.809 119.595L699.379 118.773ZM691.5 94V105.628H693.5V94H691.5ZM791.5 202V190.372H789.5V202H791.5ZM698.809 119.595L783.051 178.049L784.191 176.405L699.949 117.951L698.809 119.595ZM791.5 190.372C791.5 184.8 788.769 179.582 784.191 176.405L783.051 178.049C787.091 180.851 789.5 185.456 789.5 190.372H791.5ZM691.5 105.628C691.5 111.2 694.231 116.418 698.809 119.595L699.949 117.951C695.909 115.149 693.5 110.544 693.5 105.628H691.5Z" fill="#FFAA00"/>
<path d="M772.5 94V93H770.5V94H772.5ZM623.793 202.707C624.183 203.098 624.817 203.098 625.207 202.707L631.571 196.343C631.962 195.953 631.962 195.319 631.571 194.929C631.181 194.538 630.547 194.538 630.157 194.929L624.5 200.586L618.843 194.929C618.453 194.538 617.819 194.538 617.429 194.929C617.038 195.319 617.038 195.953 617.429 196.343L623.793 202.707ZM633.783 177.706L633.363 176.798L633.783 177.706ZM762.217 118.294L761.798 117.386L762.217 118.294ZM770.5 94V103.772H772.5V94H770.5ZM625.5 202V192.228H623.5V202H625.5ZM761.798 117.386L633.363 176.798L634.202 178.614L762.637 119.202L761.798 117.386ZM625.5 192.228C625.5 186.382 628.897 181.068 634.202 178.614L633.363 176.798C627.349 179.58 623.5 185.602 623.5 192.228H625.5ZM770.5 103.772C770.5 109.618 767.104 114.932 761.798 117.386L762.637 119.202C768.651 116.42 772.5 110.398 772.5 103.772H770.5Z" fill="#FFAA00"/>
<path d="M361 146C360.448 146 360 146.448 360 147C360 147.552 360.448 148 361 148V146ZM539.707 147.707C540.098 147.317 540.098 146.683 539.707 146.293L533.343 139.929C532.953 139.538 532.319 139.538 531.929 139.929C531.538 140.319 531.538 140.953 531.929 141.343L537.586 147L531.929 152.657C531.538 153.047 531.538 153.681 531.929 154.071C532.319 154.462 532.953 154.462 533.343 154.071L539.707 147.707ZM361 148H539V146H361V148Z" fill="#FFAA00"/>
<rect width="78" height="35" transform="translate(412 130)" fill="#FFAA00"/>
<path d="M422.861 152V143.273H428.452V144.598H424.442V146.967H428.068V148.293H424.442V152H422.861ZM432.199 152.128C431.559 152.128 431.005 151.987 430.537 151.706C430.068 151.425 429.704 151.031 429.446 150.526C429.19 150.02 429.062 149.429 429.062 148.753C429.062 148.077 429.19 147.484 429.446 146.976C429.704 146.467 430.068 146.072 430.537 145.791C431.005 145.51 431.559 145.369 432.199 145.369C432.838 145.369 433.392 145.51 433.86 145.791C434.329 146.072 434.691 146.467 434.947 146.976C435.206 147.484 435.335 148.077 435.335 148.753C435.335 149.429 435.206 150.02 434.947 150.526C434.691 151.031 434.329 151.425 433.86 151.706C433.392 151.987 432.838 152.128 432.199 152.128ZM432.207 150.892C432.554 150.892 432.843 150.797 433.076 150.607C433.309 150.413 433.483 150.155 433.596 149.831C433.713 149.507 433.771 149.146 433.771 148.749C433.771 148.348 433.713 147.986 433.596 147.662C433.483 147.335 433.309 147.075 433.076 146.882C432.843 146.689 432.554 146.592 432.207 146.592C431.852 146.592 431.556 146.689 431.321 146.882C431.088 147.075 430.913 147.335 430.797 147.662C430.683 147.986 430.626 148.348 430.626 148.749C430.626 149.146 430.683 149.507 430.797 149.831C430.913 150.155 431.088 150.413 431.321 150.607C431.556 150.797 431.852 150.892 432.207 150.892ZM436.644 152V145.455H438.14V146.545H438.208C438.327 146.168 438.532 145.876 438.822 145.672C439.114 145.464 439.448 145.361 439.823 145.361C439.908 145.361 440.004 145.365 440.109 145.374C440.217 145.379 440.306 145.389 440.377 145.403V146.822C440.312 146.8 440.208 146.78 440.066 146.763C439.927 146.743 439.792 146.733 439.661 146.733C439.38 146.733 439.127 146.794 438.903 146.916C438.681 147.036 438.506 147.202 438.379 147.415C438.251 147.628 438.187 147.874 438.187 148.152V152H436.644ZM442.638 143.273L444.909 150.142H444.999L447.266 143.273H449.004L445.928 152H443.976L440.903 143.273H442.638ZM451.289 152.132C450.875 152.132 450.501 152.058 450.169 151.911C449.839 151.76 449.578 151.538 449.385 151.246C449.194 150.953 449.099 150.592 449.099 150.163C449.099 149.794 449.167 149.489 449.304 149.247C449.44 149.006 449.626 148.812 449.862 148.668C450.098 148.523 450.363 148.413 450.659 148.339C450.957 148.263 451.265 148.207 451.583 148.173C451.967 148.134 452.278 148.098 452.517 148.067C452.755 148.033 452.929 147.982 453.037 147.913C453.147 147.842 453.203 147.733 453.203 147.585V147.56C453.203 147.239 453.108 146.99 452.917 146.814C452.727 146.638 452.453 146.55 452.095 146.55C451.717 146.55 451.417 146.632 451.196 146.797C450.977 146.962 450.829 147.156 450.752 147.381L449.312 147.176C449.426 146.778 449.613 146.446 449.875 146.179C450.136 145.909 450.456 145.707 450.833 145.574C451.211 145.438 451.629 145.369 452.086 145.369C452.402 145.369 452.716 145.406 453.028 145.48C453.341 145.554 453.626 145.676 453.885 145.847C454.143 146.014 454.35 146.243 454.507 146.533C454.666 146.822 454.745 147.185 454.745 147.619V152H453.262V151.101H453.211C453.118 151.283 452.985 151.453 452.815 151.612C452.647 151.768 452.436 151.895 452.18 151.991C451.927 152.085 451.63 152.132 451.289 152.132ZM451.69 150.999C452 150.999 452.268 150.937 452.495 150.815C452.723 150.69 452.897 150.526 453.02 150.321C453.145 150.116 453.207 149.893 453.207 149.652V148.881C453.159 148.92 453.076 148.957 452.96 148.991C452.846 149.026 452.718 149.055 452.576 149.081C452.434 149.107 452.294 149.129 452.154 149.149C452.015 149.169 451.895 149.186 451.792 149.2C451.562 149.232 451.356 149.283 451.174 149.354C450.993 149.425 450.849 149.524 450.744 149.652C450.639 149.777 450.586 149.939 450.586 150.138C450.586 150.422 450.69 150.636 450.897 150.781C451.105 150.926 451.369 150.999 451.69 150.999ZM457.839 143.273V152H456.297V143.273H457.839ZM463.597 149.247V145.455H465.14V152H463.644V150.837H463.576C463.428 151.203 463.185 151.503 462.847 151.736C462.512 151.969 462.099 152.085 461.607 152.085C461.178 152.085 460.799 151.99 460.469 151.8C460.143 151.607 459.887 151.327 459.702 150.96C459.518 150.591 459.425 150.145 459.425 149.622V145.455H460.968V149.384C460.968 149.798 461.082 150.128 461.309 150.372C461.536 150.616 461.835 150.739 462.204 150.739C462.431 150.739 462.651 150.683 462.864 150.572C463.077 150.462 463.252 150.297 463.388 150.078C463.528 149.857 463.597 149.58 463.597 149.247ZM469.624 152.128C468.968 152.128 468.401 151.991 467.924 151.719C467.449 151.443 467.084 151.054 466.828 150.551C466.573 150.045 466.445 149.45 466.445 148.766C466.445 148.092 466.573 147.501 466.828 146.993C467.087 146.482 467.448 146.084 467.911 145.8C468.374 145.513 468.918 145.369 469.543 145.369C469.946 145.369 470.327 145.435 470.685 145.565C471.046 145.693 471.364 145.892 471.64 146.162C471.918 146.432 472.137 146.776 472.296 147.193C472.455 147.608 472.534 148.102 472.534 148.676V149.149H467.169V148.109H471.056C471.053 147.814 470.989 147.551 470.864 147.321C470.739 147.088 470.564 146.905 470.34 146.771C470.118 146.638 469.86 146.571 469.564 146.571C469.249 146.571 468.972 146.648 468.733 146.801C468.495 146.952 468.309 147.151 468.175 147.398C468.044 147.642 467.978 147.911 467.975 148.203V149.111C467.975 149.491 468.044 149.818 468.184 150.091C468.323 150.361 468.517 150.568 468.767 150.713C469.017 150.855 469.31 150.926 469.645 150.926C469.87 150.926 470.073 150.895 470.255 150.832C470.436 150.767 470.594 150.672 470.728 150.547C470.861 150.422 470.962 150.267 471.03 150.082L472.471 150.244C472.38 150.625 472.206 150.957 471.951 151.241C471.698 151.523 471.374 151.741 470.979 151.898C470.584 152.051 470.132 152.128 469.624 152.128ZM479.013 147.185L477.607 147.338C477.567 147.196 477.497 147.062 477.398 146.938C477.301 146.812 477.17 146.712 477.006 146.635C476.841 146.558 476.639 146.52 476.401 146.52C476.08 146.52 475.81 146.589 475.591 146.729C475.375 146.868 475.268 147.048 475.271 147.27C475.268 147.46 475.338 147.615 475.48 147.734C475.625 147.854 475.864 147.952 476.196 148.028L477.312 148.267C477.932 148.401 478.392 148.612 478.693 148.902C478.997 149.192 479.151 149.571 479.153 150.04C479.151 150.452 479.03 150.815 478.791 151.131C478.555 151.443 478.227 151.687 477.807 151.864C477.386 152.04 476.903 152.128 476.358 152.128C475.557 152.128 474.912 151.96 474.423 151.625C473.935 151.287 473.643 150.817 473.55 150.214L475.054 150.07C475.122 150.365 475.267 150.588 475.489 150.739C475.71 150.889 475.999 150.964 476.354 150.964C476.72 150.964 477.014 150.889 477.236 150.739C477.46 150.588 477.572 150.402 477.572 150.18C477.572 149.993 477.5 149.838 477.355 149.716C477.213 149.594 476.991 149.5 476.69 149.435L475.574 149.2C474.946 149.07 474.482 148.849 474.18 148.54C473.879 148.227 473.73 147.832 473.733 147.355C473.73 146.952 473.839 146.602 474.061 146.307C474.286 146.009 474.597 145.778 474.994 145.616C475.395 145.452 475.857 145.369 476.379 145.369C477.146 145.369 477.75 145.533 478.19 145.859C478.634 146.186 478.908 146.628 479.013 147.185Z" fill="#1D1D1F"/>
</svg>
