<svg width="1440" height="480" viewBox="0 0 1440 480" fill="none" xmlns="http://www.w3.org/2000/svg">
<g filter="url(#filter0_i_2402_981)">
<g clip-path="url(#clip0_2402_981)">
<rect width="1440" height="480" rx="16" fill="#08001B"/>
<path d="M1326.07 283.64C1329.97 279.734 1329.97 273.403 1326.07 269.497L1283.64 227.071C1279.73 223.166 1273.4 223.166 1269.5 227.071L1262.43 234.142L1318.99 290.711L1326.07 283.64Z" fill="#716A87"/>
<path d="M1262.43 234.142L1227.07 269.497C1223.17 273.403 1223.17 279.734 1227.07 283.64L1269.5 326.066C1273.4 329.971 1279.73 329.971 1283.64 326.066L1318.99 290.711M1262.43 234.142L1269.5 227.071C1273.4 223.166 1279.73 223.166 1283.64 227.071L1326.07 269.497C1329.97 273.403 1329.97 279.734 1326.07 283.64L1318.99 290.711M1262.43 234.142L1318.99 290.711" stroke="#716A87" stroke-width="4" stroke-miterlimit="5.75877" stroke-linecap="square"/>
<path d="M833.66 183.66L885.622 213.66L870.622 239.641L818.66 209.641L833.66 183.66Z" fill="#716A87"/>
<path d="M830.981 228.301L848.301 238.301M833.66 183.66L885.622 213.66L870.622 239.641L818.66 209.641L833.66 183.66ZM808.66 226.962L860.622 256.962C865.405 259.723 871.521 258.084 874.282 253.301L894.282 218.66C897.043 213.877 895.405 207.761 890.622 205L838.66 175C833.877 172.239 827.761 173.877 825 178.66L805 213.301C802.239 218.084 803.877 224.2 808.66 226.962Z" stroke="#716A87" stroke-width="4" stroke-miterlimit="5.75877" stroke-linecap="round" stroke-linejoin="round"/>
<path d="M715 -1.31134e-06L715 20L737 20C741.418 20 745 23.5817 745 28L745 33M615 33L615 28C615 23.5817 618.582 20 623 20L645 20L645 -4.37114e-06" stroke="#36304F" stroke-width="4"/>
<path d="M905 -1.31134e-06L905 20L927 20C931.418 20 935 23.5817 935 28L935 33M805 33L805 28C805 23.5817 808.582 20 813 20L835 20L835 -4.37114e-06" stroke="#36304F" stroke-width="4"/>
<path d="M145 -214.227L145 -219.334L15 -219.334L15 -214.227C15 -209.256 19.0294 -205.227 24 -205.227L25 -205.227L25 -204.524C25 -202.315 26.7909 -200.524 29 -200.524L31 -200.524C33.2091 -200.524 35 -202.315 35 -204.524L35 -205.227L45 -205.227L115 -205.227L125 -205.227L125 -204.524C125 -202.315 126.791 -200.524 129 -200.524L131 -200.524C133.209 -200.524 135 -202.315 135 -204.524L135 -205.227L136 -205.227C140.971 -205.227 145 -209.256 145 -214.227Z" fill="#08001B"/>
<path d="M115 -205.227L125 -205.227L125 -204.524C125 -202.315 126.791 -200.524 129 -200.524L131 -200.524C133.209 -200.524 135 -202.315 135 -204.524L135 -205.227L136 -205.227C140.971 -205.227 145 -209.256 145 -214.227L145 -219.334L15 -219.334L15 -214.227C15 -209.256 19.0294 -205.227 24 -205.227L25 -205.227L25 -204.524C25 -202.315 26.7909 -200.524 29 -200.524L31 -200.524C33.2091 -200.524 35 -202.315 35 -204.524L35 -205.227L45 -205.227M115 -205.227L115 29.8925L125 29.8925L135 29.8925L136 29.8925C140.971 29.8925 145 33.9219 145 38.8925L145 43.9996M115 -205.227L45 -205.227M15 43.9996L15 38.8925C15 33.9219 19.0294 29.8925 24 29.8925L25 29.8925L35 29.8925L45 29.8925L45 -205.227" stroke="#544C68" stroke-width="4"/>
<path d="M1425 -149.226L1425 -154.333L1295 -154.333L1295 -149.226C1295 -144.256 1299.03 -140.226 1304 -140.226L1305 -140.226L1305 -139.524C1305 -137.315 1306.79 -135.524 1309 -135.524L1311 -135.524C1313.21 -135.524 1315 -137.315 1315 -139.524L1315 -140.226L1325 -140.226L1395 -140.226L1405 -140.226L1405 -139.524C1405 -137.315 1406.79 -135.524 1409 -135.524L1411 -135.524C1413.21 -135.524 1415 -137.315 1415 -139.524L1415 -140.226L1416 -140.226C1420.97 -140.226 1425 -144.256 1425 -149.226Z" fill="#08001B"/>
<path d="M1395 -140.226L1405 -140.226L1405 -139.524C1405 -137.315 1406.79 -135.524 1409 -135.524L1411 -135.524C1413.21 -135.524 1415 -137.315 1415 -139.524L1415 -140.226L1416 -140.226C1420.97 -140.226 1425 -144.256 1425 -149.226L1425 -154.333L1295 -154.333L1295 -149.226C1295 -144.256 1299.03 -140.226 1304 -140.226L1305 -140.226L1305 -139.524C1305 -137.315 1306.79 -135.524 1309 -135.524L1311 -135.524C1313.21 -135.524 1315 -137.315 1315 -139.524L1315 -140.226L1325 -140.226M1395 -140.226L1395 94.8929L1405 94.8929L1415 94.8929L1416 94.8929C1420.97 94.8929 1425 98.9224 1425 103.893L1425 109M1395 -140.226L1325 -140.226M1295 109L1295 103.893C1295 98.9224 1299.03 94.8929 1304 94.8929L1305 94.8929L1315 94.8929L1325 94.8929L1325 -140.226" stroke="#544C68" stroke-width="4"/>
<path d="M1270 -165L1270 -171L1140 -171L1140 -165C1140 -160.029 1144.03 -156 1149 -156L1150 -156L1150 -155C1150 -152.791 1151.79 -151 1154 -151L1156 -151C1158.21 -151 1160 -152.791 1160 -155L1160 -156L1170 -156L1240 -156L1250 -156L1250 -155C1250 -152.791 1251.79 -151 1254 -151L1256 -151C1258.21 -151 1260 -152.791 1260 -155L1260 -156L1261 -156C1265.97 -156 1270 -160.029 1270 -165Z" fill="#08001B"/>
<path d="M1240 -156L1250 -156L1250 -155C1250 -152.791 1251.79 -151 1254 -151L1256 -151C1258.21 -151 1260 -152.791 1260 -155L1260 -156L1261 -156C1265.97 -156 1270 -160.029 1270 -165L1270 -171L1140 -171L1140 -165C1140 -160.029 1144.03 -156 1149 -156L1150 -156L1150 -155C1150 -152.791 1151.79 -151 1154 -151L1156 -151C1158.21 -151 1160 -152.791 1160 -155L1160 -156L1170 -156M1240 -156L1240 94L1250 94L1260 94L1261 94C1265.97 94 1270 98.0294 1270 103L1270 109M1240 -156L1170 -156M1140 109L1140 103C1140 98.0294 1144.03 94 1149 94L1150 94L1160 94L1170 94L1170 -156" stroke="#716A87" stroke-width="4"/>
<path d="M590 55C590 46.1634 597.163 39 606 39H944C952.837 39 960 46.1634 960 55V93C960 101.837 952.837 109 944 109H940H610H606C597.163 109 590 101.837 590 93V55Z" fill="#08001B"/>
<path d="M610 109V115.745C610 124.232 606.629 132.371 600.627 138.373L569.373 169.627C563.371 175.629 560 183.768 560 192.255V199H990V192.255C990 183.768 986.629 175.629 980.627 169.627L949.373 138.373C943.371 132.371 940 124.232 940 115.745V109H610Z" fill="#08001B"/>
<path d="M610 109H606C597.163 109 590 101.837 590 93V55C590 46.1634 597.163 39 606 39H944C952.837 39 960 46.1634 960 55V93C960 101.837 952.837 109 944 109H940M610 109V115.745C610 124.232 606.629 132.371 600.627 138.373L569.373 169.627C563.371 175.629 560 183.768 560 192.255V199H990V192.255C990 183.768 986.629 175.629 980.627 169.627L949.373 138.373C943.371 132.371 940 124.232 940 115.745V109M610 109H940" stroke="#08001B" stroke-width="12"/>
<path d="M590 55C590 46.1634 597.163 39 606 39H944C952.837 39 960 46.1634 960 55V93C960 101.837 952.837 109 944 109H940H610H606C597.163 109 590 101.837 590 93V55Z" fill="#08001B"/>
<path d="M610 109V115.745C610 124.232 606.629 132.371 600.627 138.373L569.373 169.627C563.371 175.629 560 183.768 560 192.255V199H990V192.255C990 183.768 986.629 175.629 980.627 169.627L949.373 138.373C943.371 132.371 940 124.232 940 115.745V109H610Z" fill="#08001B"/>
<path d="M610 109H606C597.163 109 590 101.837 590 93V55C590 46.1634 597.163 39 606 39H944C952.837 39 960 46.1634 960 55V93C960 101.837 952.837 109 944 109H940M610 109V115.745C610 124.232 606.629 132.371 600.627 138.373L569.373 169.627C563.371 175.629 560 183.768 560 192.255V199H990V192.255C990 183.768 986.629 175.629 980.627 169.627L949.373 138.373C943.371 132.371 940 124.232 940 115.745V109M610 109H940" stroke="#F5F1FF" stroke-width="4"/>
<path d="M-200 66C-200 57.1634 -192.837 50 -184 50H154C162.837 50 170 57.1634 170 66V104C170 112.837 162.837 120 154 120H150H-180H-184C-192.837 120 -200 112.837 -200 104V66Z" fill="#08001B"/>
<path d="M-180 120V126.745C-180 135.232 -183.371 143.371 -189.373 149.373L-220.627 180.627C-226.629 186.629 -230 194.768 -230 203.255V210H200V203.255C200 194.768 196.629 186.629 190.627 180.627L159.373 149.373C153.371 143.371 150 135.232 150 126.745V120H-180Z" fill="#08001B"/>
<path d="M-180 120H-184C-192.837 120 -200 112.837 -200 104V66C-200 57.1634 -192.837 50 -184 50H154C162.837 50 170 57.1634 170 66V104C170 112.837 162.837 120 154 120H150M-180 120V126.745C-180 135.232 -183.371 143.371 -189.373 149.373L-220.627 180.627C-226.629 186.629 -230 194.768 -230 203.255V210H200V203.255C200 194.768 196.629 186.629 190.627 180.627L159.373 149.373C153.371 143.371 150 135.232 150 126.745V120M-180 120H150" stroke="#F5F1FF" stroke-width="4"/>
<path d="M1120 131C1120 122.163 1127.16 115 1136 115H1474C1482.84 115 1490 122.163 1490 131V169C1490 177.837 1482.84 185 1474 185H1470H1140H1136C1127.16 185 1120 177.837 1120 169V131Z" fill="#08001B"/>
<path d="M1140 185V191.745C1140 200.232 1136.63 208.371 1130.63 214.373L1099.37 245.627C1093.37 251.629 1090 259.768 1090 268.255V275H1520V268.255C1520 259.768 1516.63 251.629 1510.63 245.627L1479.37 214.373C1473.37 208.371 1470 200.232 1470 191.745V185H1140Z" fill="#08001B"/>
<path d="M1140 185H1136C1127.16 185 1120 177.837 1120 169V131C1120 122.163 1127.16 115 1136 115H1474C1482.84 115 1490 122.163 1490 131V169C1490 177.837 1482.84 185 1474 185H1470M1140 185V191.745C1140 200.232 1136.63 208.371 1130.63 214.373L1099.37 245.627C1093.37 251.629 1090 259.768 1090 268.255V275H1520V268.255C1520 259.768 1516.63 251.629 1510.63 245.627L1479.37 214.373C1473.37 208.371 1470 200.232 1470 191.745V185M1140 185H1470" stroke="#08001B" stroke-width="12"/>
<path d="M1120 131C1120 122.163 1127.16 115 1136 115H1474C1482.84 115 1490 122.163 1490 131V169C1490 177.837 1482.84 185 1474 185H1470H1140H1136C1127.16 185 1120 177.837 1120 169V131Z" fill="#08001B"/>
<path d="M1140 185V191.745C1140 200.232 1136.63 208.371 1130.63 214.373L1099.37 245.627C1093.37 251.629 1090 259.768 1090 268.255V275H1520V268.255C1520 259.768 1516.63 251.629 1510.63 245.627L1479.37 214.373C1473.37 208.371 1470 200.232 1470 191.745V185H1140Z" fill="#08001B"/>
<path d="M1140 185H1136C1127.16 185 1120 177.837 1120 169V131C1120 122.163 1127.16 115 1136 115H1474C1482.84 115 1490 122.163 1490 131V169C1490 177.837 1482.84 185 1474 185H1470M1140 185V191.745C1140 200.232 1136.63 208.371 1130.63 214.373L1099.37 245.627C1093.37 251.629 1090 259.768 1090 268.255V275H1520V268.255C1520 259.768 1516.63 251.629 1510.63 245.627L1479.37 214.373C1473.37 208.371 1470 200.232 1470 191.745V185M1140 185H1470" stroke="#F5F1FF" stroke-width="4"/>
<path d="M679.641 244.019C676.879 239.236 670.764 237.598 665.981 240.359L614.019 270.359C609.236 273.12 607.597 279.236 610.359 284.019L615.359 292.68L684.641 252.68L679.641 244.019Z" fill="#36304F"/>
<path d="M615.359 292.68L640.359 335.981C643.12 340.764 649.236 342.402 654.019 339.641L705.981 309.641C710.764 306.88 712.402 300.764 709.641 295.981L684.641 252.68M615.359 292.68L610.359 284.019C607.597 279.236 609.236 273.12 614.019 270.359L665.981 240.359C670.764 237.598 676.879 239.236 679.641 244.019L684.641 252.68M615.359 292.68L684.641 252.68" stroke="#36304F" stroke-width="4" stroke-miterlimit="5.75877" stroke-linecap="square"/>
<path d="M1166 346.573L1123.57 388.999C1119.67 392.905 1119.67 399.236 1123.57 403.142L1151.86 431.426C1155.76 435.331 1162.09 435.331 1166 431.426L1208.43 388.999C1212.33 385.094 1212.33 378.763 1208.43 374.857L1180.14 346.573C1176.24 342.668 1169.91 342.668 1166 346.573Z" stroke="#716A87" stroke-width="4" stroke-miterlimit="5.75877" stroke-linecap="square"/>
<path d="M1144.86 398.619L1145.57 423.391L1150.2 428.373L1159.29 433.623L1168.3 429.012L1204.89 392.535L1150.77 392.535C1149.2 392.535 1147.7 393.158 1146.59 394.268C1145.44 395.418 1144.81 396.993 1144.86 398.619Z" fill="#716A87" stroke="#716A87" stroke-width="4" stroke-miterlimit="5.75877" stroke-linecap="round"/>
<path d="M1176.61 357.18C1178.56 359.132 1178.56 362.298 1176.61 364.251C1174.65 366.203 1171.49 366.203 1169.54 364.251C1167.58 362.298 1167.58 359.132 1169.54 357.18C1171.49 355.227 1174.65 355.227 1176.61 357.18Z" fill="#716A87"/>
<path d="M920.981 399.02L869.019 369.02C864.236 366.258 858.12 367.897 855.359 372.68L835.359 407.321C832.597 412.104 834.236 418.22 839.019 420.981L890.981 450.981C895.764 453.743 901.879 452.104 904.641 447.321L924.641 412.68C927.402 407.897 925.764 401.781 920.981 399.02Z" stroke="#544C68" stroke-width="4" stroke-miterlimit="5.75877" stroke-linecap="square"/>
<path d="M859.509 415.491L869.656 408.792M885.49 430.491L886.219 418.354M869.656 408.792L887.5 397.01L886.219 418.354M869.656 408.792L886.219 418.354" stroke="#544C68" stroke-width="4" stroke-miterlimit="5.75877" stroke-linecap="round" stroke-linejoin="round"/>
<path d="M34.0191 477.68L85.9807 447.68L100.981 473.661L49.0191 503.661L34.0191 477.68Z" fill="#716A87"/>
<path d="M71.3396 502.321L88.6602 492.321M34.0191 477.68L85.9807 447.68L100.981 473.661L49.0191 503.661L34.0191 477.68ZM59.0191 520.981L110.981 490.981C115.764 488.22 117.402 482.104 114.641 477.321L94.6409 442.68C91.8795 437.897 85.7636 436.258 80.9807 439.02L29.0191 469.02C24.2362 471.781 22.5975 477.897 25.3589 482.68L45.3589 517.321C48.1203 522.104 54.2362 523.743 59.0191 520.981Z" stroke="#716A87" stroke-width="4" stroke-miterlimit="5.75877" stroke-linecap="round" stroke-linejoin="round"/>
<path d="M136.742 278.786L78.7867 263.257C73.452 261.828 67.9687 264.994 66.5393 270.328L56.1865 308.965C54.7571 314.3 57.9229 319.783 63.2576 321.213L121.213 336.742C126.548 338.171 132.031 335.005 133.461 329.671L143.813 291.034C145.243 285.699 142.077 280.216 136.742 278.786Z" stroke="#544C68" stroke-width="4" stroke-miterlimit="5.75877" stroke-linecap="square"/>
<path d="M81.0989 286.501L60 299.5L58.0001 306L58.0001 316.5L66.5001 322L116.384 335.448L89.3245 288.58C88.5401 287.221 87.248 286.23 85.7327 285.824C84.1606 285.403 82.4845 285.648 81.0989 286.501Z" fill="#544C68" stroke="#544C68" stroke-width="4" stroke-miterlimit="5.75877" stroke-linecap="round"/>
<path d="M132.86 293.275C132.145 295.942 129.403 297.525 126.736 296.811C124.069 296.096 122.486 293.354 123.201 290.687C123.915 288.02 126.657 286.437 129.324 287.151C131.992 287.866 133.575 290.608 132.86 293.275Z" fill="#544C68"/>
<path d="M1456.74 458.786L1398.79 443.257C1393.45 441.828 1387.97 444.994 1386.54 450.328L1376.19 488.965C1374.76 494.3 1377.92 499.783 1383.26 501.213L1441.21 516.742C1446.55 518.171 1452.03 515.005 1453.46 509.671L1463.81 471.034C1465.24 465.699 1462.08 460.216 1456.74 458.786Z" stroke="#36304F" stroke-width="4" stroke-miterlimit="5.75877" stroke-linecap="square"/>
<path d="M1401.1 466.501L1380 479.5L1378 486L1378 496.5L1386.5 502L1436.38 515.448L1409.32 468.58C1408.54 467.221 1407.25 466.23 1405.73 465.824C1404.16 465.403 1402.48 465.648 1401.1 466.501Z" fill="#36304F" stroke="#36304F" stroke-width="4" stroke-miterlimit="5.75877" stroke-linecap="round"/>
</g>
</g>
<defs>
<filter id="filter0_i_2402_981" x="0" y="0" width="1440" height="480" filterUnits="userSpaceOnUse" color-interpolation-filters="sRGB">
<feFlood flood-opacity="0" result="BackgroundImageFix"/>
<feBlend mode="normal" in="SourceGraphic" in2="BackgroundImageFix" result="shape"/>
<feColorMatrix in="SourceAlpha" type="matrix" values="0 0 0 0 0 0 0 0 0 0 0 0 0 0 0 0 0 0 127 0" result="hardAlpha"/>
<feMorphology radius="7" operator="erode" in="SourceAlpha" result="effect1_innerShadow_2402_981"/>
<feOffset/>
<feGaussianBlur stdDeviation="4"/>
<feComposite in2="hardAlpha" operator="arithmetic" k2="-1" k3="1"/>
<feColorMatrix type="matrix" values="0 0 0 0 0.0313726 0 0 0 0 0 0 0 0 0 0.105882 0 0 0 1 0"/>
<feBlend mode="normal" in2="shape" result="effect1_innerShadow_2402_981"/>
</filter>
<clipPath id="clip0_2402_981">
<rect width="1440" height="480" rx="16" fill="white"/>
</clipPath>
</defs>
</svg>
