<svg width="128" height="128" viewBox="0 0 128 128" fill="none" xmlns="http://www.w3.org/2000/svg">
<path fill-rule="evenodd" clip-rule="evenodd" d="M105.46 64H110.442C112.584 60.7982 113.985 56.956 113.986 53.3015V53.3008H113.987V52.5698L113.987 51.3015H113.987V28.7296H113.987L113.987 26.9248V26.7305H113.987V26.7296C113.985 23.3008 112.723 20.3815 110.218 18.8331C107.712 17.2846 104.537 17.4609 101.469 18.9929L99.6797 19.8865L99.6806 19.8882L64.0002 37.7478L26.5314 18.9929C23.4638 17.4609 20.2882 17.2846 17.7829 18.8331C15.2775 20.3816 14.0151 23.3016 14.0137 26.7305L14.014 53.3015C14.0154 56.956 15.4163 60.7982 17.5586 64L17.5583 64C15.416 67.2018 14.0151 71.044 14.0137 74.6985V74.6992H14.0134V75.4302L14.0129 76.6985H14.0134V99.2704H14.0127L14.0134 101.075V101.27H14.0135V101.27C14.0148 104.699 15.2772 107.618 17.7825 109.167C20.2879 110.715 23.4635 110.539 26.5311 109.007L28.3204 108.114L28.3195 108.112L64 90.2521V85.779L24.7422 105.429L24.7423 105.429C22.4978 106.55 20.8632 106.369 19.8855 105.764C18.9077 105.16 18.0145 103.778 18.0135 101.269L18.0134 101.074V75.4317L18.0137 74.7C18.0149 71.6503 19.3761 68.1232 21.5872 65.2417L22.54 64L22.5404 64L21.5875 62.7583C19.3764 59.8768 18.0152 56.3497 18.014 53.3L18.0138 26.7312C18.0148 24.2216 18.908 22.84 19.8858 22.2357C20.8635 21.6314 22.4981 21.4503 24.7425 22.5707L64 42.2208V42.221L64.0002 42.2209L64.0004 42.221V42.2208L103.258 22.5707L103.258 22.5706C105.502 21.4502 107.137 21.6314 108.115 22.2356C109.092 22.84 109.986 24.2216 109.987 26.7312L109.987 26.9263V52.5682L109.986 53.2999C109.985 56.3497 108.624 59.8768 106.413 62.7582L105.46 64ZM110.442 64C112.584 67.2018 113.985 71.044 113.987 74.6985L113.987 101.27C113.986 104.698 112.723 107.618 110.218 109.167C107.713 110.715 104.537 110.539 101.469 109.007L64.0004 90.2521V85.779L103.258 105.429C105.503 106.55 107.137 106.369 108.115 105.764C109.093 105.16 109.986 103.778 109.987 101.269L109.987 74.7C109.986 71.6503 108.624 68.1232 106.413 65.2417L105.46 64H110.442ZM64.0003 61.1716L52.0003 49.1716L49.1719 52.0001L61.1719 64.0001L49.1719 76.0001L52.0003 78.8285L64.0003 66.8285L76.0003 78.8285L78.8287 76.0001L66.8287 64.0001L78.8287 52.0001L76.0003 49.1716L64.0003 61.1716Z" fill="#8D8D8F"/>
</svg>
