<svg width="16" height="20" viewBox="0 0 16 20" fill="none" xmlns="http://www.w3.org/2000/svg">
<path fill-rule="evenodd" clip-rule="evenodd" d="M3 15L10 15C11.1046 15 12 14.1046 12 13V12H13C14.1046 12 15 11.1046 15 10L15 3C15 1.89543 14.1046 1 13 1H6C4.89543 1 4 1.89543 4 3L4 4H3C1.89543 4 1 4.89543 1 6V13C1 14.1046 1.89543 15 3 15ZM6 12H11V13C11 13.5523 10.5523 14 10 14L3 14C2.44772 14 2 13.5523 2 13L2 6C2 5.44772 2.44772 5 3 5H4L4 10C4 11.1046 4.89543 12 6 12ZM11.5 11H6C5.44772 11 5 10.5523 5 10L5 4.5L5 3C5 2.44771 5.44772 2 6 2L13 2C13.5523 2 14 2.44772 14 3L14 10C14 10.5523 13.5523 11 13 11H11.5ZM7.14645 8.14645L6.79289 8.50001L7.5 9.20711L7.85355 8.85356L11 5.70711V7.5V8H12V7.5V4.5V4L11.5 4L8.5 4L8 4.00001L8 5.00001L8.5 5L10.2929 5L7.14645 8.14645Z" fill="#8D8D8F"/>
</svg>
