<svg width="122" height="96" viewBox="0 0 122 96" fill="none" xmlns="http://www.w3.org/2000/svg">
<rect x="0.320312" y="28" width="121" height="40" rx="8" fill="#F5F1FF"/>
<path d="M21.8551 55V43.08H25.7431C27.0018 43.08 28.0951 43.336 29.0231 43.848C29.9618 44.3493 30.6871 45.048 31.1991 45.944C31.7111 46.8293 31.9671 47.8587 31.9671 49.032C31.9671 50.1947 31.7111 51.2293 31.1991 52.136C30.6871 53.032 29.9618 53.736 29.0231 54.248C28.0951 54.7493 27.0018 55 25.7431 55H21.8551ZM24.0311 53.08H25.7911C26.6018 53.08 27.3005 52.9147 27.8871 52.584C28.4845 52.2427 28.9485 51.7733 29.2791 51.176C29.6098 50.568 29.7751 49.8533 29.7751 49.032C29.7751 48.2 29.6098 47.4853 29.2791 46.888C28.9485 46.2907 28.4845 45.8267 27.8871 45.496C27.3005 45.1653 26.6018 45 25.7911 45H24.0311V53.08ZM37.7789 55.192C36.9255 55.192 36.1469 54.9947 35.4429 54.6C34.7495 54.2053 34.1949 53.6667 33.7789 52.984C33.3735 52.3013 33.1709 51.5227 33.1709 50.648C33.1709 49.7733 33.3735 48.9947 33.7789 48.312C34.1949 47.6293 34.7495 47.0907 35.4429 46.696C36.1362 46.3013 36.9149 46.104 37.7789 46.104C38.6322 46.104 39.4055 46.3013 40.0989 46.696C40.7922 47.0907 41.3415 47.6293 41.7469 48.312C42.1629 48.984 42.3709 49.7627 42.3709 50.648C42.3709 51.5227 42.1629 52.3013 41.7469 52.984C41.3309 53.6667 40.7762 54.2053 40.0829 54.6C39.3895 54.9947 38.6215 55.192 37.7789 55.192ZM37.7789 53.272C38.2482 53.272 38.6589 53.16 39.0109 52.936C39.3735 52.712 39.6562 52.4027 39.8589 52.008C40.0722 51.6027 40.1789 51.1493 40.1789 50.648C40.1789 50.136 40.0722 49.688 39.8589 49.304C39.6562 48.9093 39.3735 48.6 39.0109 48.376C38.6589 48.1413 38.2482 48.024 37.7789 48.024C37.2989 48.024 36.8775 48.1413 36.5149 48.376C36.1522 48.6 35.8642 48.9093 35.6509 49.304C35.4482 49.688 35.3469 50.136 35.3469 50.648C35.3469 51.1493 35.4482 51.6027 35.6509 52.008C35.8642 52.4027 36.1522 52.712 36.5149 52.936C36.8775 53.16 37.2989 53.272 37.7789 53.272ZM45.9961 55L43.0041 46.296H45.2121L47.4041 52.904L46.6361 52.888L48.9721 46.296H50.8281L53.1481 52.888L52.3801 52.904L54.5721 46.296H56.7801L53.7881 55H51.9161L49.5481 48.104H50.2521L47.8521 55H45.9961ZM57.9291 55V46.296H59.8971V48.008L59.7371 47.704C59.9398 47.1813 60.2705 46.7867 60.7291 46.52C61.1985 46.2427 61.7425 46.104 62.3611 46.104C63.0011 46.104 63.5665 46.2427 64.0571 46.52C64.5585 46.7973 64.9478 47.1867 65.2251 47.688C65.5025 48.1787 65.6411 48.7493 65.6411 49.4V55H63.5451V49.896C63.5451 49.512 63.4705 49.1813 63.3211 48.904C63.1718 48.6267 62.9638 48.4133 62.6971 48.264C62.4411 48.104 62.1371 48.024 61.7851 48.024C61.4438 48.024 61.1398 48.104 60.8731 48.264C60.6065 48.4133 60.3985 48.6267 60.2491 48.904C60.0998 49.1813 60.0251 49.512 60.0251 49.896V55H57.9291ZM67.4135 55V42.888H69.5095V55H67.4135ZM75.7008 55.192C74.8474 55.192 74.0688 54.9947 73.3648 54.6C72.6714 54.2053 72.1168 53.6667 71.7008 52.984C71.2954 52.3013 71.0928 51.5227 71.0928 50.648C71.0928 49.7733 71.2954 48.9947 71.7008 48.312C72.1168 47.6293 72.6714 47.0907 73.3648 46.696C74.0581 46.3013 74.8368 46.104 75.7008 46.104C76.5541 46.104 77.3274 46.3013 78.0208 46.696C78.7141 47.0907 79.2634 47.6293 79.6688 48.312C80.0848 48.984 80.2928 49.7627 80.2928 50.648C80.2928 51.5227 80.0848 52.3013 79.6688 52.984C79.2528 53.6667 78.6981 54.2053 78.0048 54.6C77.3114 54.9947 76.5434 55.192 75.7008 55.192ZM75.7008 53.272C76.1701 53.272 76.5808 53.16 76.9328 52.936C77.2954 52.712 77.5781 52.4027 77.7808 52.008C77.9941 51.6027 78.1008 51.1493 78.1008 50.648C78.1008 50.136 77.9941 49.688 77.7808 49.304C77.5781 48.9093 77.2954 48.6 76.9328 48.376C76.5808 48.1413 76.1701 48.024 75.7008 48.024C75.2208 48.024 74.7994 48.1413 74.4368 48.376C74.0741 48.6 73.7861 48.9093 73.5728 49.304C73.3701 49.688 73.2688 50.136 73.2688 50.648C73.2688 51.1493 73.3701 51.6027 73.5728 52.008C73.7861 52.4027 74.0741 52.712 74.4368 52.936C74.7994 53.16 75.2208 53.272 75.7008 53.272ZM84.5223 55.192C83.9143 55.192 83.3863 55.0907 82.9383 54.888C82.4903 54.6853 82.1436 54.3973 81.8983 54.024C81.6529 53.64 81.5303 53.1973 81.5303 52.696C81.5303 52.216 81.6369 51.7893 81.8503 51.416C82.0636 51.032 82.3943 50.712 82.8423 50.456C83.2903 50.2 83.8556 50.0187 84.5383 49.912L87.3863 49.448V51.048L84.9383 51.464C84.5223 51.5387 84.2129 51.672 84.0103 51.864C83.8076 52.056 83.7063 52.3067 83.7063 52.616C83.7063 52.9147 83.8183 53.1547 84.0423 53.336C84.2769 53.5067 84.5649 53.592 84.9062 53.592C85.3436 53.592 85.7276 53.5013 86.0583 53.32C86.3996 53.128 86.6609 52.8667 86.8423 52.536C87.0343 52.2053 87.1303 51.8427 87.1303 51.448V49.208C87.1303 48.8347 86.9809 48.5253 86.6823 48.28C86.3943 48.024 86.0103 47.896 85.5303 47.896C85.0823 47.896 84.6823 48.0187 84.3303 48.264C83.9889 48.4987 83.7383 48.8133 83.5783 49.208L81.8663 48.376C82.0369 47.9173 82.3036 47.5227 82.6663 47.192C83.0396 46.8507 83.4769 46.584 83.9783 46.392C84.4796 46.2 85.0236 46.104 85.6102 46.104C86.3249 46.104 86.9543 46.2373 87.4983 46.504C88.0423 46.76 88.4636 47.1227 88.7623 47.592C89.0716 48.0507 89.2263 48.5893 89.2263 49.208V55H87.2423V53.512L87.6903 53.48C87.4663 53.8533 87.1996 54.168 86.8903 54.424C86.5809 54.6693 86.2289 54.8613 85.8343 55C85.4396 55.128 85.0023 55.192 84.5223 55.192ZM95.2115 55.192C94.3688 55.192 93.6168 54.9947 92.9555 54.6C92.2942 54.1947 91.7715 53.6453 91.3875 52.952C91.0035 52.2587 90.8115 51.4907 90.8115 50.648C90.8115 49.7947 91.0035 49.0267 91.3875 48.344C91.7715 47.6613 92.2942 47.1173 92.9555 46.712C93.6275 46.3067 94.3742 46.104 95.1955 46.104C95.8568 46.104 96.4435 46.2373 96.9555 46.504C97.4782 46.76 97.8888 47.1227 98.1875 47.592L97.8675 48.024V42.888H99.9635V55H97.9795V53.32L98.2035 53.736C97.9048 54.2053 97.4888 54.568 96.9555 54.824C96.4222 55.0693 95.8408 55.192 95.2115 55.192ZM95.4355 53.272C95.9155 53.272 96.3368 53.16 96.6995 52.936C97.0622 52.712 97.3448 52.4027 97.5475 52.008C97.7608 51.6133 97.8675 51.16 97.8675 50.648C97.8675 50.1467 97.7608 49.6987 97.5475 49.304C97.3448 48.8987 97.0622 48.584 96.6995 48.36C96.3368 48.136 95.9155 48.024 95.4355 48.024C94.9662 48.024 94.5448 48.1413 94.1715 48.376C93.7982 48.6 93.5048 48.9093 93.2915 49.304C93.0888 49.688 92.9875 50.136 92.9875 50.648C92.9875 51.16 93.0888 51.6133 93.2915 52.008C93.5048 52.4027 93.7982 52.712 94.1715 52.936C94.5448 53.16 94.9662 53.272 95.4355 53.272Z" fill="#08001B"/>
</svg>
