<svg width="82" height="96" viewBox="0 0 82 96" fill="none" xmlns="http://www.w3.org/2000/svg">
<rect x="0.320312" y="28" width="81" height="40" rx="8" fill="#F5F1FF"/>
<path d="M21.8551 55V43.08H25.7431C27.0018 43.08 28.0951 43.336 29.0231 43.848C29.9618 44.3493 30.6871 45.048 31.1991 45.944C31.7111 46.8293 31.9671 47.8587 31.9671 49.032C31.9671 50.1947 31.7111 51.2293 31.1991 52.136C30.6871 53.032 29.9618 53.736 29.0231 54.248C28.0951 54.7493 27.0018 55 25.7431 55H21.8551ZM24.0311 53.08H25.7911C26.6018 53.08 27.3005 52.9147 27.8871 52.584C28.4845 52.2427 28.9485 51.7733 29.2791 51.176C29.6098 50.568 29.7751 49.8533 29.7751 49.032C29.7751 48.2 29.6098 47.4853 29.2791 46.888C28.9485 46.2907 28.4845 45.8267 27.8871 45.496C27.3005 45.1653 26.6018 45 25.7911 45H24.0311V53.08ZM37.7789 55.192C36.9255 55.192 36.1469 54.9947 35.4429 54.6C34.7495 54.2053 34.1949 53.6667 33.7789 52.984C33.3735 52.3013 33.1709 51.5227 33.1709 50.648C33.1709 49.7733 33.3735 48.9947 33.7789 48.312C34.1949 47.6293 34.7495 47.0907 35.4429 46.696C36.1362 46.3013 36.9149 46.104 37.7789 46.104C38.6322 46.104 39.4055 46.3013 40.0989 46.696C40.7922 47.0907 41.3415 47.6293 41.7469 48.312C42.1629 48.984 42.3709 49.7627 42.3709 50.648C42.3709 51.5227 42.1629 52.3013 41.7469 52.984C41.3309 53.6667 40.7762 54.2053 40.0829 54.6C39.3895 54.9947 38.6215 55.192 37.7789 55.192ZM37.7789 53.272C38.2482 53.272 38.6589 53.16 39.0109 52.936C39.3735 52.712 39.6562 52.4027 39.8589 52.008C40.0722 51.6027 40.1789 51.1493 40.1789 50.648C40.1789 50.136 40.0722 49.688 39.8589 49.304C39.6562 48.9093 39.3735 48.6 39.0109 48.376C38.6589 48.1413 38.2482 48.024 37.7789 48.024C37.2989 48.024 36.8775 48.1413 36.5149 48.376C36.1522 48.6 35.8642 48.9093 35.6509 49.304C35.4482 49.688 35.3469 50.136 35.3469 50.648C35.3469 51.1493 35.4482 51.6027 35.6509 52.008C35.8642 52.4027 36.1522 52.712 36.5149 52.936C36.8775 53.16 37.2989 53.272 37.7789 53.272ZM48.1524 55.192C47.2884 55.192 46.5097 54.9947 45.8164 54.6C45.1337 54.1947 44.595 53.6507 44.2004 52.968C43.8057 52.2747 43.6084 51.496 43.6084 50.632C43.6084 49.768 43.8057 48.9947 44.2004 48.312C44.595 47.6293 45.1337 47.0907 45.8164 46.696C46.5097 46.3013 47.2884 46.104 48.1524 46.104C48.771 46.104 49.347 46.216 49.8804 46.44C50.4137 46.6533 50.8724 46.952 51.2564 47.336C51.651 47.7093 51.9337 48.1573 52.1044 48.68L50.2644 49.48C50.1044 49.0427 49.8324 48.6907 49.4484 48.424C49.075 48.1573 48.643 48.024 48.1524 48.024C47.6937 48.024 47.283 48.136 46.9204 48.36C46.5684 48.584 46.291 48.8933 46.0884 49.288C45.8857 49.6827 45.7844 50.136 45.7844 50.648C45.7844 51.16 45.8857 51.6133 46.0884 52.008C46.291 52.4027 46.5684 52.712 46.9204 52.936C47.283 53.16 47.6937 53.272 48.1524 53.272C48.6537 53.272 49.091 53.1387 49.4644 52.872C49.8377 52.6053 50.1044 52.248 50.2644 51.8L52.1044 52.632C51.9337 53.1227 51.6564 53.5653 51.2724 53.96C50.8884 54.344 50.4297 54.648 49.8964 54.872C49.363 55.0853 48.7817 55.192 48.1524 55.192ZM57.0068 55.192C56.0788 55.192 55.2681 54.9733 54.5748 54.536C53.8921 54.088 53.4228 53.4853 53.1668 52.728L54.7348 51.976C54.9588 52.4667 55.2681 52.8507 55.6628 53.128C56.0681 53.4053 56.5161 53.544 57.0068 53.544C57.3908 53.544 57.6948 53.4587 57.9188 53.288C58.1428 53.1173 58.2548 52.8933 58.2548 52.616C58.2548 52.4453 58.2068 52.3067 58.1108 52.2C58.0254 52.0827 57.9028 51.9867 57.7428 51.912C57.5934 51.8267 57.4281 51.7573 57.2468 51.704L55.8228 51.304C55.0868 51.0907 54.5268 50.7653 54.1428 50.328C53.7694 49.8907 53.5828 49.3733 53.5828 48.776C53.5828 48.2427 53.7161 47.7787 53.9828 47.384C54.2601 46.9787 54.6388 46.664 55.1188 46.44C55.6094 46.216 56.1694 46.104 56.7988 46.104C57.6201 46.104 58.3454 46.3013 58.9748 46.696C59.6041 47.0907 60.0521 47.6453 60.3188 48.36L58.7188 49.112C58.5694 48.7173 58.3188 48.4027 57.9668 48.168C57.6148 47.9333 57.2201 47.816 56.7828 47.816C56.4308 47.816 56.1534 47.896 55.9508 48.056C55.7481 48.216 55.6468 48.424 55.6468 48.68C55.6468 48.84 55.6894 48.9787 55.7748 49.096C55.8601 49.2133 55.9774 49.3093 56.1268 49.384C56.2868 49.4587 56.4681 49.528 56.6708 49.592L58.0628 50.008C58.7774 50.2213 59.3268 50.5413 59.7108 50.968C60.1054 51.3947 60.3028 51.9173 60.3028 52.536C60.3028 53.0587 60.1641 53.5227 59.8868 53.928C59.6094 54.3227 59.2254 54.632 58.7348 54.856C58.2441 55.08 57.6681 55.192 57.0068 55.192Z" fill="#08001B"/>
</svg>
