<svg width="121" height="96" viewBox="0 0 121 96" fill="none" xmlns="http://www.w3.org/2000/svg">
<rect y="28" width="121" height="40" rx="8" fill="#08001B"/>
<path d="M21.5348 55V43.08H25.4228C26.6815 43.08 27.7748 43.336 28.7028 43.848C29.6415 44.3493 30.3668 45.048 30.8788 45.944C31.3908 46.8293 31.6468 47.8587 31.6468 49.032C31.6468 50.1947 31.3908 51.2293 30.8788 52.136C30.3668 53.032 29.6415 53.736 28.7028 54.248C27.7748 54.7493 26.6815 55 25.4228 55H21.5348ZM23.7108 53.08H25.4708C26.2815 53.08 26.9801 52.9147 27.5668 52.584C28.1641 52.2427 28.6281 51.7733 28.9588 51.176C29.2895 50.568 29.4548 49.8533 29.4548 49.032C29.4548 48.2 29.2895 47.4853 28.9588 46.888C28.6281 46.2907 28.1641 45.8267 27.5668 45.496C26.9801 45.1653 26.2815 45 25.4708 45H23.7108V53.08ZM37.4586 55.192C36.6052 55.192 35.8266 54.9947 35.1226 54.6C34.4292 54.2053 33.8746 53.6667 33.4586 52.984C33.0532 52.3013 32.8506 51.5227 32.8506 50.648C32.8506 49.7733 33.0532 48.9947 33.4586 48.312C33.8746 47.6293 34.4292 47.0907 35.1226 46.696C35.8159 46.3013 36.5946 46.104 37.4586 46.104C38.3119 46.104 39.0852 46.3013 39.7786 46.696C40.4719 47.0907 41.0212 47.6293 41.4266 48.312C41.8426 48.984 42.0506 49.7627 42.0506 50.648C42.0506 51.5227 41.8426 52.3013 41.4266 52.984C41.0106 53.6667 40.4559 54.2053 39.7626 54.6C39.0692 54.9947 38.3012 55.192 37.4586 55.192ZM37.4586 53.272C37.9279 53.272 38.3386 53.16 38.6906 52.936C39.0532 52.712 39.3359 52.4027 39.5386 52.008C39.7519 51.6027 39.8586 51.1493 39.8586 50.648C39.8586 50.136 39.7519 49.688 39.5386 49.304C39.3359 48.9093 39.0532 48.6 38.6906 48.376C38.3386 48.1413 37.9279 48.024 37.4586 48.024C36.9786 48.024 36.5572 48.1413 36.1946 48.376C35.8319 48.6 35.5439 48.9093 35.3306 49.304C35.1279 49.688 35.0266 50.136 35.0266 50.648C35.0266 51.1493 35.1279 51.6027 35.3306 52.008C35.5439 52.4027 35.8319 52.712 36.1946 52.936C36.5572 53.16 36.9786 53.272 37.4586 53.272ZM45.6758 55L42.6838 46.296H44.8918L47.0838 52.904L46.3158 52.888L48.6518 46.296H50.5078L52.8278 52.888L52.0598 52.904L54.2518 46.296H56.4598L53.4678 55H51.5958L49.2278 48.104H49.9318L47.5318 55H45.6758ZM57.6088 55V46.296H59.5768V48.008L59.4168 47.704C59.6195 47.1813 59.9501 46.7867 60.4088 46.52C60.8781 46.2427 61.4221 46.104 62.0408 46.104C62.6808 46.104 63.2461 46.2427 63.7368 46.52C64.2381 46.7973 64.6275 47.1867 64.9048 47.688C65.1821 48.1787 65.3208 48.7493 65.3208 49.4V55H63.2248V49.896C63.2248 49.512 63.1501 49.1813 63.0008 48.904C62.8515 48.6267 62.6435 48.4133 62.3768 48.264C62.1208 48.104 61.8168 48.024 61.4648 48.024C61.1235 48.024 60.8195 48.104 60.5528 48.264C60.2861 48.4133 60.0781 48.6267 59.9288 48.904C59.7795 49.1813 59.7048 49.512 59.7048 49.896V55H57.6088ZM67.0932 55V42.888H69.1892V55H67.0932ZM75.3804 55.192C74.5271 55.192 73.7484 54.9947 73.0444 54.6C72.3511 54.2053 71.7964 53.6667 71.3804 52.984C70.9751 52.3013 70.7724 51.5227 70.7724 50.648C70.7724 49.7733 70.9751 48.9947 71.3804 48.312C71.7964 47.6293 72.3511 47.0907 73.0444 46.696C73.7378 46.3013 74.5164 46.104 75.3804 46.104C76.2338 46.104 77.0071 46.3013 77.7004 46.696C78.3938 47.0907 78.9431 47.6293 79.3484 48.312C79.7644 48.984 79.9724 49.7627 79.9724 50.648C79.9724 51.5227 79.7644 52.3013 79.3484 52.984C78.9324 53.6667 78.3778 54.2053 77.6844 54.6C76.9911 54.9947 76.2231 55.192 75.3804 55.192ZM75.3804 53.272C75.8498 53.272 76.2604 53.16 76.6124 52.936C76.9751 52.712 77.2578 52.4027 77.4604 52.008C77.6738 51.6027 77.7804 51.1493 77.7804 50.648C77.7804 50.136 77.6738 49.688 77.4604 49.304C77.2578 48.9093 76.9751 48.6 76.6124 48.376C76.2604 48.1413 75.8498 48.024 75.3804 48.024C74.9004 48.024 74.4791 48.1413 74.1164 48.376C73.7538 48.6 73.4658 48.9093 73.2524 49.304C73.0498 49.688 72.9484 50.136 72.9484 50.648C72.9484 51.1493 73.0498 51.6027 73.2524 52.008C73.4658 52.4027 73.7538 52.712 74.1164 52.936C74.4791 53.16 74.9004 53.272 75.3804 53.272ZM84.2019 55.192C83.5939 55.192 83.0659 55.0907 82.6179 54.888C82.1699 54.6853 81.8233 54.3973 81.5779 54.024C81.3326 53.64 81.2099 53.1973 81.2099 52.696C81.2099 52.216 81.3166 51.7893 81.5299 51.416C81.7433 51.032 82.0739 50.712 82.5219 50.456C82.9699 50.2 83.5353 50.0187 84.2179 49.912L87.0659 49.448V51.048L84.6179 51.464C84.2019 51.5387 83.8926 51.672 83.6899 51.864C83.4873 52.056 83.3859 52.3067 83.3859 52.616C83.3859 52.9147 83.4979 53.1547 83.7219 53.336C83.9566 53.5067 84.2446 53.592 84.5859 53.592C85.0233 53.592 85.4073 53.5013 85.7379 53.32C86.0793 53.128 86.3406 52.8667 86.5219 52.536C86.7139 52.2053 86.8099 51.8427 86.8099 51.448V49.208C86.8099 48.8347 86.6606 48.5253 86.3619 48.28C86.0739 48.024 85.6899 47.896 85.2099 47.896C84.7619 47.896 84.3619 48.0187 84.0099 48.264C83.6686 48.4987 83.4179 48.8133 83.2579 49.208L81.5459 48.376C81.7166 47.9173 81.9833 47.5227 82.3459 47.192C82.7193 46.8507 83.1566 46.584 83.6579 46.392C84.1593 46.2 84.7033 46.104 85.2899 46.104C86.0046 46.104 86.6339 46.2373 87.1779 46.504C87.7219 46.76 88.1433 47.1227 88.4419 47.592C88.7513 48.0507 88.9059 48.5893 88.9059 49.208V55H86.9219V53.512L87.3699 53.48C87.1459 53.8533 86.8793 54.168 86.5699 54.424C86.2606 54.6693 85.9086 54.8613 85.5139 55C85.1193 55.128 84.6819 55.192 84.2019 55.192ZM94.8912 55.192C94.0485 55.192 93.2965 54.9947 92.6352 54.6C91.9739 54.1947 91.4512 53.6453 91.0672 52.952C90.6832 52.2587 90.4912 51.4907 90.4912 50.648C90.4912 49.7947 90.6832 49.0267 91.0672 48.344C91.4512 47.6613 91.9739 47.1173 92.6352 46.712C93.3072 46.3067 94.0539 46.104 94.8752 46.104C95.5365 46.104 96.1232 46.2373 96.6352 46.504C97.1579 46.76 97.5685 47.1227 97.8672 47.592L97.5472 48.024V42.888H99.6432V55H97.6592V53.32L97.8832 53.736C97.5845 54.2053 97.1685 54.568 96.6352 54.824C96.1019 55.0693 95.5205 55.192 94.8912 55.192ZM95.1152 53.272C95.5952 53.272 96.0165 53.16 96.3792 52.936C96.7419 52.712 97.0245 52.4027 97.2272 52.008C97.4405 51.6133 97.5472 51.16 97.5472 50.648C97.5472 50.1467 97.4405 49.6987 97.2272 49.304C97.0245 48.8987 96.7419 48.584 96.3792 48.36C96.0165 48.136 95.5952 48.024 95.1152 48.024C94.6459 48.024 94.2245 48.1413 93.8512 48.376C93.4779 48.6 93.1845 48.9093 92.9712 49.304C92.7685 49.688 92.6672 50.136 92.6672 50.648C92.6672 51.16 92.7685 51.6133 92.9712 52.008C93.1845 52.4027 93.4779 52.712 93.8512 52.936C94.2245 53.16 94.6459 53.272 95.1152 53.272Z" fill="#F5F1FF"/>
</svg>
