<svg width="81" height="96" viewBox="0 0 81 96" fill="none" xmlns="http://www.w3.org/2000/svg">
<rect y="28" width="81" height="40" rx="8" fill="#08001B"/>
<path d="M21.5348 55V43.08H25.4228C26.6815 43.08 27.7748 43.336 28.7028 43.848C29.6415 44.3493 30.3668 45.048 30.8788 45.944C31.3908 46.8293 31.6468 47.8587 31.6468 49.032C31.6468 50.1947 31.3908 51.2293 30.8788 52.136C30.3668 53.032 29.6415 53.736 28.7028 54.248C27.7748 54.7493 26.6815 55 25.4228 55H21.5348ZM23.7108 53.08H25.4708C26.2815 53.08 26.9801 52.9147 27.5668 52.584C28.1641 52.2427 28.6281 51.7733 28.9588 51.176C29.2895 50.568 29.4548 49.8533 29.4548 49.032C29.4548 48.2 29.2895 47.4853 28.9588 46.888C28.6281 46.2907 28.1641 45.8267 27.5668 45.496C26.9801 45.1653 26.2815 45 25.4708 45H23.7108V53.08ZM37.4586 55.192C36.6052 55.192 35.8266 54.9947 35.1226 54.6C34.4292 54.2053 33.8746 53.6667 33.4586 52.984C33.0532 52.3013 32.8506 51.5227 32.8506 50.648C32.8506 49.7733 33.0532 48.9947 33.4586 48.312C33.8746 47.6293 34.4292 47.0907 35.1226 46.696C35.8159 46.3013 36.5946 46.104 37.4586 46.104C38.3119 46.104 39.0852 46.3013 39.7786 46.696C40.4719 47.0907 41.0212 47.6293 41.4266 48.312C41.8426 48.984 42.0506 49.7627 42.0506 50.648C42.0506 51.5227 41.8426 52.3013 41.4266 52.984C41.0106 53.6667 40.4559 54.2053 39.7626 54.6C39.0692 54.9947 38.3012 55.192 37.4586 55.192ZM37.4586 53.272C37.9279 53.272 38.3386 53.16 38.6906 52.936C39.0532 52.712 39.3359 52.4027 39.5386 52.008C39.7519 51.6027 39.8586 51.1493 39.8586 50.648C39.8586 50.136 39.7519 49.688 39.5386 49.304C39.3359 48.9093 39.0532 48.6 38.6906 48.376C38.3386 48.1413 37.9279 48.024 37.4586 48.024C36.9786 48.024 36.5572 48.1413 36.1946 48.376C35.8319 48.6 35.5439 48.9093 35.3306 49.304C35.1279 49.688 35.0266 50.136 35.0266 50.648C35.0266 51.1493 35.1279 51.6027 35.3306 52.008C35.5439 52.4027 35.8319 52.712 36.1946 52.936C36.5572 53.16 36.9786 53.272 37.4586 53.272ZM47.8321 55.192C46.9681 55.192 46.1894 54.9947 45.4961 54.6C44.8134 54.1947 44.2747 53.6507 43.8801 52.968C43.4854 52.2747 43.2881 51.496 43.2881 50.632C43.2881 49.768 43.4854 48.9947 43.8801 48.312C44.2747 47.6293 44.8134 47.0907 45.4961 46.696C46.1894 46.3013 46.9681 46.104 47.8321 46.104C48.4507 46.104 49.0267 46.216 49.5601 46.44C50.0934 46.6533 50.5521 46.952 50.9361 47.336C51.3307 47.7093 51.6134 48.1573 51.7841 48.68L49.9441 49.48C49.7841 49.0427 49.5121 48.6907 49.1281 48.424C48.7547 48.1573 48.3227 48.024 47.8321 48.024C47.3734 48.024 46.9627 48.136 46.6001 48.36C46.2481 48.584 45.9707 48.8933 45.7681 49.288C45.5654 49.6827 45.4641 50.136 45.4641 50.648C45.4641 51.16 45.5654 51.6133 45.7681 52.008C45.9707 52.4027 46.2481 52.712 46.6001 52.936C46.9627 53.16 47.3734 53.272 47.8321 53.272C48.3334 53.272 48.7707 53.1387 49.1441 52.872C49.5174 52.6053 49.7841 52.248 49.9441 51.8L51.7841 52.632C51.6134 53.1227 51.3361 53.5653 50.9521 53.96C50.5681 54.344 50.1094 54.648 49.5761 54.872C49.0427 55.0853 48.4614 55.192 47.8321 55.192ZM56.6864 55.192C55.7584 55.192 54.9478 54.9733 54.2544 54.536C53.5718 54.088 53.1024 53.4853 52.8464 52.728L54.4144 51.976C54.6384 52.4667 54.9478 52.8507 55.3424 53.128C55.7478 53.4053 56.1958 53.544 56.6864 53.544C57.0704 53.544 57.3744 53.4587 57.5984 53.288C57.8224 53.1173 57.9344 52.8933 57.9344 52.616C57.9344 52.4453 57.8864 52.3067 57.7904 52.2C57.7051 52.0827 57.5824 51.9867 57.4224 51.912C57.2731 51.8267 57.1078 51.7573 56.9264 51.704L55.5024 51.304C54.7664 51.0907 54.2064 50.7653 53.8224 50.328C53.4491 49.8907 53.2624 49.3733 53.2624 48.776C53.2624 48.2427 53.3958 47.7787 53.6624 47.384C53.9398 46.9787 54.3184 46.664 54.7984 46.44C55.2891 46.216 55.8491 46.104 56.4784 46.104C57.2998 46.104 58.0251 46.3013 58.6544 46.696C59.2838 47.0907 59.7318 47.6453 59.9984 48.36L58.3984 49.112C58.2491 48.7173 57.9984 48.4027 57.6464 48.168C57.2944 47.9333 56.8998 47.816 56.4624 47.816C56.1104 47.816 55.8331 47.896 55.6304 48.056C55.4278 48.216 55.3264 48.424 55.3264 48.68C55.3264 48.84 55.3691 48.9787 55.4544 49.096C55.5398 49.2133 55.6571 49.3093 55.8064 49.384C55.9664 49.4587 56.1478 49.528 56.3504 49.592L57.7424 50.008C58.4571 50.2213 59.0064 50.5413 59.3904 50.968C59.7851 51.3947 59.9824 51.9173 59.9824 52.536C59.9824 53.0587 59.8438 53.5227 59.5664 53.928C59.2891 54.3227 58.9051 54.632 58.4144 54.856C57.9238 55.08 57.3478 55.192 56.6864 55.192Z" fill="#F5F1FF"/>
</svg>
