<svg width="150" height="96" viewBox="0 0 150 96" fill="none" xmlns="http://www.w3.org/2000/svg">
<rect width="150" height="50" transform="translate(0 23)" fill="#1D1D1F"/>
<path d="M19.4546 53H16.0043V42.8182H19.5242C20.535 42.8182 21.4034 43.022 22.1293 43.4297C22.8584 43.834 23.4186 44.4157 23.8097 45.1747C24.2008 45.9337 24.3963 46.8419 24.3963 47.8991C24.3963 48.9597 24.1991 49.8712 23.8047 50.6335C23.4136 51.3958 22.8485 51.9808 22.1094 52.3885C21.3736 52.7962 20.4886 53 19.4546 53ZM17.8487 51.4041H19.3651C20.0743 51.4041 20.666 51.2749 21.1399 51.0163C21.6139 50.7545 21.9702 50.3651 22.2088 49.848C22.4475 49.3276 22.5668 48.678 22.5668 47.8991C22.5668 47.1203 22.4475 46.474 22.2088 45.9602C21.9702 45.4432 21.6172 45.057 21.1499 44.8018C20.6859 44.5433 20.1091 44.4141 19.4198 44.4141H17.8487V51.4041Z" fill="white"/>
<path d="M29.4002 53.1491C28.6545 53.1491 28.0082 52.9851 27.4613 52.657C26.9144 52.3288 26.4902 51.8698 26.1886 51.2798C25.8903 50.6899 25.7411 50.0005 25.7411 49.2116C25.7411 48.4228 25.8903 47.7318 26.1886 47.1385C26.4902 46.5452 26.9144 46.0845 27.4613 45.7564C28.0082 45.4283 28.6545 45.2642 29.4002 45.2642C30.146 45.2642 30.7923 45.4283 31.3391 45.7564C31.886 46.0845 32.3086 46.5452 32.6069 47.1385C32.9085 47.7318 33.0593 48.4228 33.0593 49.2116C33.0593 50.0005 32.9085 50.6899 32.6069 51.2798C32.3086 51.8698 31.886 52.3288 31.3391 52.657C30.7923 52.9851 30.146 53.1491 29.4002 53.1491ZM29.4102 51.7074C29.8145 51.7074 30.1526 51.5963 30.4244 51.3743C30.6962 51.1489 30.8983 50.8473 31.0309 50.4695C31.1668 50.0916 31.2347 49.6707 31.2347 49.2067C31.2347 48.7393 31.1668 48.3168 31.0309 47.9389C30.8983 47.5578 30.6962 47.2545 30.4244 47.0291C30.1526 46.8037 29.8145 46.691 29.4102 46.691C28.9959 46.691 28.6512 46.8037 28.3761 47.0291C28.1043 47.2545 27.9005 47.5578 27.7646 47.9389C27.632 48.3168 27.5657 48.7393 27.5657 49.2067C27.5657 49.6707 27.632 50.0916 27.7646 50.4695C27.9005 50.8473 28.1043 51.1489 28.3761 51.3743C28.6512 51.5963 28.9959 51.7074 29.4102 51.7074Z" fill="white"/>
<path d="M37.9178 53.1491C37.1555 53.1491 36.5009 52.9818 35.954 52.647C35.4105 52.3123 34.9912 51.8499 34.6962 51.2599C34.4045 50.6667 34.2587 49.9839 34.2587 49.2116C34.2587 48.4361 34.4079 47.7517 34.7062 47.1584C35.0044 46.5618 35.4254 46.0978 35.9689 45.7663C36.5158 45.4316 37.1621 45.2642 37.9079 45.2642C38.5277 45.2642 39.0762 45.3785 39.5535 45.6072C40.034 45.8326 40.4169 46.1525 40.7019 46.5668C40.9869 46.9777 41.1493 47.4583 41.1891 48.0085H39.4689C39.3993 47.6406 39.2336 47.334 38.9718 47.0888C38.7133 46.8402 38.3669 46.7159 37.9327 46.7159C37.5648 46.7159 37.2417 46.8153 36.9633 47.0142C36.6848 47.2097 36.4678 47.4915 36.312 47.8594C36.1595 48.2273 36.0833 48.6681 36.0833 49.1818C36.0833 49.7022 36.1595 50.1496 36.312 50.5241C36.4644 50.8954 36.6782 51.182 36.9533 51.3842C37.2317 51.5831 37.5582 51.6825 37.9327 51.6825C38.1979 51.6825 38.4348 51.6328 38.6437 51.5334C38.8558 51.4306 39.0331 51.2831 39.1756 51.0909C39.3181 50.8987 39.4159 50.665 39.4689 50.3899H41.1891C41.146 50.9302 40.9869 51.4091 40.7118 51.8267C40.4367 52.241 40.0622 52.5658 39.5883 52.8011C39.1143 53.0331 38.5575 53.1491 37.9178 53.1491Z" fill="white"/>
<path d="M48.7024 47.3821L47.0618 47.5611C47.0154 47.3954 46.9342 47.2396 46.8182 47.0937C46.7055 46.9479 46.553 46.8303 46.3608 46.7408C46.1686 46.6513 45.9332 46.6065 45.6548 46.6065C45.2803 46.6065 44.9654 46.6877 44.7102 46.8501C44.4583 47.0125 44.3341 47.223 44.3374 47.4815C44.3341 47.7036 44.4153 47.8842 44.581 48.0234C44.75 48.1626 45.0284 48.277 45.4162 48.3665L46.7188 48.6449C47.4413 48.8007 47.9782 49.0476 48.3296 49.3856C48.6842 49.7237 48.8632 50.1662 48.8665 50.7131C48.8632 51.1936 48.7223 51.6179 48.4439 51.9858C48.1688 52.3504 47.786 52.6354 47.2955 52.8409C46.8049 53.0464 46.2415 53.1491 45.6051 53.1491C44.6705 53.1491 43.9181 52.9536 43.348 52.5625C42.7779 52.1681 42.4382 51.6195 42.3288 50.9169L44.0838 50.7479C44.1634 51.0926 44.3324 51.3527 44.5909 51.5284C44.8494 51.7041 45.1859 51.7919 45.6002 51.7919C46.0277 51.7919 46.3707 51.7041 46.6293 51.5284C46.8911 51.3527 47.022 51.1356 47.022 50.8771C47.022 50.6584 46.9375 50.4777 46.7685 50.3352C46.6028 50.1927 46.3442 50.0833 45.9929 50.0071L44.6904 49.7337C43.9579 49.5812 43.416 49.3243 43.0646 48.9631C42.7133 48.5985 42.5393 48.1378 42.5426 47.581C42.5393 47.1103 42.6669 46.7026 42.9254 46.3579C43.1873 46.0099 43.5502 45.7415 44.0142 45.5526C44.4815 45.3603 45.0201 45.2642 45.63 45.2642C46.5249 45.2642 47.2292 45.4548 47.7429 45.8359C48.26 46.2171 48.5798 46.7325 48.7024 47.3821Z" fill="white"/>
<path d="M128.126 54.2102L127.104 53.1989L130.655 49.6477H121.734V48.1704H130.655L127.104 44.625L128.126 43.6079L133.428 48.9091L128.126 54.2102Z" fill="white"/>
</svg>
