<svg width="150" height="96" viewBox="0 0 150 96" fill="none" xmlns="http://www.w3.org/2000/svg">
<rect width="150" height="50" transform="translate(0 23)" fill="#1D1D1F"/>
<path d="M19.4546 53H16.0043V42.8182H19.5242C20.535 42.8182 21.4034 43.022 22.1293 43.4297C22.8584 43.834 23.4186 44.4157 23.8097 45.1747C24.2008 45.9337 24.3963 46.8419 24.3963 47.8991C24.3963 48.9597 24.1991 49.8712 23.8047 50.6335C23.4136 51.3958 22.8485 51.9808 22.1094 52.3885C21.3736 52.7962 20.4886 53 19.4546 53ZM17.8487 51.4041H19.3651C20.0743 51.4041 20.666 51.2749 21.1399 51.0163C21.6139 50.7545 21.9702 50.3651 22.2088 49.848C22.4475 49.3276 22.5668 48.678 22.5668 47.8991C22.5668 47.1203 22.4475 46.474 22.2088 45.9602C21.9702 45.4432 21.6172 45.057 21.1499 44.8018C20.6859 44.5433 20.1091 44.4141 19.4198 44.4141H17.8487V51.4041Z" fill="white"/>
<path d="M29.4002 53.1491C28.6545 53.1491 28.0082 52.9851 27.4613 52.657C26.9144 52.3288 26.4902 51.8698 26.1886 51.2798C25.8903 50.6899 25.7411 50.0005 25.7411 49.2116C25.7411 48.4228 25.8903 47.7318 26.1886 47.1385C26.4902 46.5452 26.9144 46.0845 27.4613 45.7564C28.0082 45.4283 28.6545 45.2642 29.4002 45.2642C30.146 45.2642 30.7923 45.4283 31.3391 45.7564C31.886 46.0845 32.3086 46.5452 32.6069 47.1385C32.9085 47.7318 33.0593 48.4228 33.0593 49.2116C33.0593 50.0005 32.9085 50.6899 32.6069 51.2798C32.3086 51.8698 31.886 52.3288 31.3391 52.657C30.7923 52.9851 30.146 53.1491 29.4002 53.1491ZM29.4102 51.7074C29.8145 51.7074 30.1526 51.5963 30.4244 51.3743C30.6962 51.1489 30.8983 50.8473 31.0309 50.4695C31.1668 50.0916 31.2347 49.6707 31.2347 49.2067C31.2347 48.7393 31.1668 48.3168 31.0309 47.9389C30.8983 47.5578 30.6962 47.2545 30.4244 47.0291C30.1526 46.8037 29.8145 46.691 29.4102 46.691C28.9959 46.691 28.6512 46.8037 28.3761 47.0291C28.1043 47.2545 27.9005 47.5578 27.7646 47.9389C27.632 48.3168 27.5657 48.7393 27.5657 49.2067C27.5657 49.6707 27.632 50.0916 27.7646 50.4695C27.9005 50.8473 28.1043 51.1489 28.3761 51.3743C28.6512 51.5963 28.9959 51.7074 29.4102 51.7074Z" fill="white"/>
<path d="M35.9441 53L33.7864 45.3636H35.6209L36.9633 50.7329H37.0329L38.405 45.3636H40.2196L41.5918 50.7031H41.6664L42.9888 45.3636H44.8283L42.6657 53H40.7914L39.3596 47.8395H39.2552L37.8233 53H35.9441Z" fill="white"/>
<path d="M47.8846 48.5256V53H46.0849V45.3636H47.8051V46.6612H47.8945C48.0702 46.2337 48.3503 45.8939 48.7347 45.642C49.1225 45.3901 49.6015 45.2642 50.1715 45.2642C50.6985 45.2642 51.1576 45.3769 51.5487 45.6023C51.9431 45.8276 52.248 46.1541 52.4634 46.5817C52.6822 47.0092 52.7899 47.5279 52.7866 48.1378V53H50.9869V48.4162C50.9869 47.9058 50.8543 47.5064 50.5891 47.218C50.3273 46.9297 49.9644 46.7855 49.5004 46.7855C49.1855 46.7855 48.9054 46.8551 48.6602 46.9943C48.4182 47.1302 48.2276 47.3274 48.0884 47.5859C47.9525 47.8445 47.8846 48.1577 47.8846 48.5256Z" fill="white"/>
<path d="M56.4158 42.8182V53H54.6161V42.8182H56.4158Z" fill="white"/>
<path d="M61.5975 53.1491C60.8517 53.1491 60.2054 52.9851 59.6586 52.657C59.1117 52.3288 58.6875 51.8698 58.3858 51.2798C58.0875 50.6899 57.9384 50.0005 57.9384 49.2116C57.9384 48.4228 58.0875 47.7318 58.3858 47.1385C58.6875 46.5452 59.1117 46.0845 59.6586 45.7564C60.2054 45.4283 60.8517 45.2642 61.5975 45.2642C62.3432 45.2642 62.9895 45.4283 63.5364 45.7564C64.0833 46.0845 64.5059 46.5452 64.8042 47.1385C65.1058 47.7318 65.2566 48.4228 65.2566 49.2116C65.2566 50.0005 65.1058 50.6899 64.8042 51.2798C64.5059 51.8698 64.0833 52.3288 63.5364 52.657C62.9895 52.9851 62.3432 53.1491 61.5975 53.1491ZM61.6074 51.7074C62.0118 51.7074 62.3499 51.5963 62.6216 51.3743C62.8934 51.1489 63.0956 50.8473 63.2282 50.4695C63.3641 50.0916 63.432 49.6707 63.432 49.2067C63.432 48.7393 63.3641 48.3168 63.2282 47.9389C63.0956 47.5578 62.8934 47.2545 62.6216 47.0291C62.3499 46.8037 62.0118 46.691 61.6074 46.691C61.1931 46.691 60.8484 46.8037 60.5733 47.0291C60.3016 47.2545 60.0977 47.5578 59.9618 47.9389C59.8293 48.3168 59.763 48.7393 59.763 49.2067C59.763 49.6707 59.8293 50.0916 59.9618 50.4695C60.0977 50.8473 60.3016 51.1489 60.5733 51.3743C60.8484 51.5963 61.1931 51.7074 61.6074 51.7074Z" fill="white"/>
<path d="M68.9815 53.1541C68.4976 53.1541 68.0618 53.0679 67.674 52.8956C67.2895 52.7199 66.9846 52.4614 66.7592 52.12C66.5372 51.7786 66.4261 51.3577 66.4261 50.8572C66.4261 50.4264 66.5057 50.0701 66.6648 49.7883C66.8239 49.5066 67.041 49.2812 67.3161 49.1122C67.5912 48.9432 67.9011 48.8156 68.2458 48.7294C68.5938 48.6399 68.9534 48.5753 69.3246 48.5355C69.772 48.4891 70.135 48.4477 70.4134 48.4112C70.6918 48.3714 70.894 48.3118 71.0199 48.2322C71.1492 48.1494 71.2138 48.0218 71.2138 47.8494V47.8196C71.2138 47.4451 71.1028 47.1551 70.8807 46.9496C70.6586 46.7441 70.3388 46.6413 69.9212 46.6413C69.4804 46.6413 69.1307 46.7374 68.8722 46.9297C68.617 47.1219 68.4446 47.349 68.3551 47.6108L66.6747 47.3722C66.8073 46.9081 67.0261 46.5204 67.331 46.2088C67.6359 45.8939 68.0088 45.6586 68.4496 45.5028C68.8904 45.3437 69.3776 45.2642 69.9112 45.2642C70.2791 45.2642 70.6454 45.3073 71.01 45.3935C71.3745 45.4796 71.7076 45.6222 72.0092 45.821C72.3109 46.0166 72.5528 46.2834 72.7351 46.6214C72.9207 46.9595 73.0135 47.3821 73.0135 47.8892V53H71.2834V51.951H71.2237C71.1144 52.1631 70.9602 52.362 70.7614 52.5476C70.5658 52.7299 70.3189 52.8774 70.0206 52.9901C69.7256 53.0994 69.3793 53.1541 68.9815 53.1541ZM69.4489 51.8317C69.8101 51.8317 70.1234 51.7604 70.3885 51.6179C70.6537 51.4721 70.8575 51.2798 71 51.0412C71.1458 50.8026 71.2188 50.5424 71.2188 50.2606V49.3608C71.1624 49.4072 71.0663 49.4503 70.9304 49.4901C70.7978 49.5298 70.6487 49.5646 70.483 49.5945C70.3172 49.6243 70.1532 49.6508 69.9908 49.674C69.8284 49.6972 69.6875 49.7171 69.5682 49.7337C69.2997 49.7701 69.0594 49.8298 68.8473 49.9126C68.6352 49.9955 68.4678 50.1115 68.3452 50.2606C68.2225 50.4065 68.1612 50.5954 68.1612 50.8274C68.1612 51.1588 68.2822 51.4091 68.5242 51.5781C68.7661 51.7472 69.0743 51.8317 69.4489 51.8317Z" fill="white"/>
<path d="M77.657 53.1342C77.0571 53.1342 76.5201 52.9801 76.0462 52.6719C75.5722 52.3636 75.1977 51.9162 74.9226 51.3295C74.6475 50.7429 74.51 50.0303 74.51 49.1918C74.51 48.3433 74.6492 47.6274 74.9276 47.044C75.2093 46.4574 75.5888 46.0149 76.0661 45.7166C76.5433 45.415 77.0753 45.2642 77.6619 45.2642C78.1094 45.2642 78.4773 45.3404 78.7656 45.4929C79.054 45.642 79.2827 45.8227 79.4517 46.0348C79.6208 46.2436 79.7517 46.4408 79.8445 46.6264H79.919V42.8182H81.7237V53H79.9538V51.7969H79.8445C79.7517 51.9825 79.6174 52.1797 79.4418 52.3885C79.2661 52.594 79.0341 52.7696 78.7458 52.9155C78.4574 53.0613 78.0945 53.1342 77.657 53.1342ZM78.1591 51.6577C78.5403 51.6577 78.8651 51.5549 79.1335 51.3494C79.402 51.1406 79.6058 50.8506 79.745 50.4794C79.8842 50.1082 79.9538 49.6757 79.9538 49.1818C79.9538 48.688 79.8842 48.2588 79.745 47.8942C79.6092 47.5296 79.407 47.2462 79.1385 47.044C78.8734 46.8419 78.5469 46.7408 78.1591 46.7408C77.7581 46.7408 77.4233 46.8452 77.1548 47.054C76.8864 47.2628 76.6842 47.5511 76.5483 47.919C76.4124 48.2869 76.3445 48.7079 76.3445 49.1818C76.3445 49.6591 76.4124 50.085 76.5483 50.4595C76.6875 50.8307 76.8913 51.124 77.1598 51.3395C77.4316 51.5516 77.7647 51.6577 78.1591 51.6577Z" fill="white"/>
<path d="M128.126 54.2102L133.428 48.9091L128.126 43.6079L127.104 44.625L130.655 48.1704H121.734V49.6477H130.655L127.104 53.1989L128.126 54.2102Z" fill="white"/>
</svg>
