<svg width="320" height="96" viewBox="0 0 320 96" fill="none" xmlns="http://www.w3.org/2000/svg">
<path d="M0.0134277 10.7305C0.0157471 4.79206 4.32458 2.12897 9.63745 4.78229L86.3625 43.1866C91.6754 45.8399 95.9843 52.7608 95.9866 58.6993V85.2696C95.9843 91.2081 91.6754 93.8712 86.3625 91.2178L9.63745 52.8135C4.32458 50.1602 0.0157471 43.2393 0.0134277 37.3008V10.7305Z" fill="url(#paint0_linear_1446_423)"/>
<path d="M86.3625 4.78229C91.6754 2.12897 95.9843 4.79206 95.9866 10.7305V37.3008C95.9852 40.8954 94.4059 44.8499 91.9812 48C90.4001 45.9459 88.4595 44.2338 86.3625 43.1865L48 23.9844L86.3625 4.78229Z" fill="#1D1D1F"/>
<path d="M48 72.0156L9.63745 91.2178C4.32458 93.8712 0.0157471 91.2081 0.0134277 85.2696V58.6993C0.0157471 52.7608 4.32458 45.8399 9.63745 43.1866L48 23.9844V72.0156Z" fill="#1D1D1F"/>
<path d="M136.591 71.25V24.7045H166.409V31.7727H145.023V44.4091H164.364V51.4773H145.023V71.25H136.591Z" fill="#1D1D1F"/>
<path d="M191.23 56.5682V36.3409H199.457V71.25H191.48V65.0455H191.116C190.328 67 189.033 68.5985 187.23 69.8409C185.442 71.0833 183.237 71.7045 180.616 71.7045C178.328 71.7045 176.306 71.197 174.548 70.1818C172.806 69.1515 171.442 67.6591 170.457 65.7045C169.472 63.7348 168.98 61.3561 168.98 58.5682V36.3409H177.207V57.2955C177.207 59.5076 177.813 61.2652 179.025 62.5682C180.237 63.8712 181.828 64.5227 183.798 64.5227C185.01 64.5227 186.184 64.2273 187.321 63.6364C188.457 63.0455 189.389 62.1667 190.116 61C190.859 59.8182 191.23 58.3409 191.23 56.5682Z" fill="#1D1D1F"/>
<path d="M232.948 45.5682L225.448 46.3864C225.236 45.6288 224.865 44.9167 224.335 44.25C223.819 43.5833 223.122 43.0455 222.244 42.6364C221.365 42.2273 220.289 42.0227 219.016 42.0227C217.304 42.0227 215.865 42.3939 214.698 43.1364C213.547 43.8788 212.978 44.8409 212.994 46.0227C212.978 47.0379 213.35 47.8636 214.107 48.5C214.88 49.1364 216.153 49.6591 217.925 50.0682L223.88 51.3409C227.183 52.053 229.638 53.1818 231.244 54.7273C232.865 56.2727 233.683 58.2955 233.698 60.7955C233.683 62.9924 233.039 64.9318 231.766 66.6136C230.509 68.2803 228.759 69.5833 226.516 70.5227C224.274 71.4621 221.698 71.9318 218.789 71.9318C214.516 71.9318 211.077 71.0379 208.471 69.25C205.865 67.447 204.312 64.9394 203.812 61.7273L211.835 60.9545C212.198 62.5303 212.971 63.7197 214.153 64.5227C215.335 65.3258 216.872 65.7273 218.766 65.7273C220.721 65.7273 222.289 65.3258 223.471 64.5227C224.668 63.7197 225.266 62.7273 225.266 61.5455C225.266 60.5455 224.88 59.7197 224.107 59.0682C223.35 58.4167 222.168 57.9167 220.562 57.5682L214.607 56.3182C211.259 55.6212 208.782 54.447 207.175 52.7955C205.569 51.1288 204.774 49.0227 204.789 46.4773C204.774 44.3258 205.357 42.4621 206.539 40.8864C207.736 39.2955 209.395 38.0682 211.516 37.2045C213.653 36.3258 216.115 35.8864 218.903 35.8864C222.994 35.8864 226.213 36.7576 228.562 38.5C230.925 40.2424 232.388 42.5985 232.948 45.5682Z" fill="#1D1D1F"/>
<path d="M237.922 71.25V36.3409H246.15V71.25H237.922ZM242.059 31.3864C240.756 31.3864 239.634 30.9545 238.695 30.0909C237.756 29.2121 237.286 28.1591 237.286 26.9318C237.286 25.6894 237.756 24.6364 238.695 23.7727C239.634 22.8939 240.756 22.4545 242.059 22.4545C243.377 22.4545 244.498 22.8939 245.422 23.7727C246.362 24.6364 246.831 25.6894 246.831 26.9318C246.831 28.1591 246.362 29.2121 245.422 30.0909C244.498 30.9545 243.377 31.3864 242.059 31.3864Z" fill="#1D1D1F"/>
<path d="M267.277 71.9318C263.868 71.9318 260.913 71.1818 258.413 69.6818C255.913 68.1818 253.974 66.0833 252.595 63.3864C251.232 60.6894 250.55 57.5379 250.55 53.9318C250.55 50.3258 251.232 47.1667 252.595 44.4545C253.974 41.7424 255.913 39.6364 258.413 38.1364C260.913 36.6364 263.868 35.8864 267.277 35.8864C270.686 35.8864 273.641 36.6364 276.141 38.1364C278.641 39.6364 280.572 41.7424 281.936 44.4545C283.315 47.1667 284.004 50.3258 284.004 53.9318C284.004 57.5379 283.315 60.6894 281.936 63.3864C280.572 66.0833 278.641 68.1818 276.141 69.6818C273.641 71.1818 270.686 71.9318 267.277 71.9318ZM267.323 65.3409C269.171 65.3409 270.716 64.8333 271.959 63.8182C273.201 62.7879 274.126 61.4091 274.732 59.6818C275.353 57.9545 275.663 56.0303 275.663 53.9091C275.663 51.7727 275.353 49.8409 274.732 48.1136C274.126 46.3712 273.201 44.9848 271.959 43.9545C270.716 42.9242 269.171 42.4091 267.323 42.4091C265.429 42.4091 263.853 42.9242 262.595 43.9545C261.353 44.9848 260.421 46.3712 259.8 48.1136C259.194 49.8409 258.891 51.7727 258.891 53.9091C258.891 56.0303 259.194 57.9545 259.8 59.6818C260.421 61.4091 261.353 62.7879 262.595 63.8182C263.853 64.8333 265.429 65.3409 267.323 65.3409Z" fill="#1D1D1F"/>
<path d="M296.655 50.7955V71.25H288.427V36.3409H296.291V42.2727H296.7C297.503 40.3182 298.783 38.7652 300.541 37.6136C302.314 36.4621 304.503 35.8864 307.109 35.8864C309.518 35.8864 311.617 36.4015 313.405 37.4318C315.208 38.4621 316.602 39.9545 317.586 41.9091C318.586 43.8636 319.079 46.2348 319.064 49.0227V71.25H310.836V50.2955C310.836 47.9621 310.23 46.1364 309.018 44.8182C307.821 43.5 306.162 42.8409 304.041 42.8409C302.601 42.8409 301.321 43.1591 300.2 43.7955C299.094 44.4167 298.223 45.3182 297.586 46.5C296.965 47.6818 296.655 49.1136 296.655 50.7955Z" fill="#1D1D1F"/>
<defs>
<linearGradient id="paint0_linear_1446_423" x1="-0.000244664" y1="3.52784e-08" x2="112.736" y2="68.425" gradientUnits="userSpaceOnUse">
<stop stop-color="#FF00A8"/>
<stop offset="1" stop-color="#FFAA00"/>
</linearGradient>
</defs>
</svg>
