<svg width="329" height="96" viewBox="0 0 329 96" fill="none" xmlns="http://www.w3.org/2000/svg">
<g clip-path="url(#clip0_2727_62)">
<path fill-rule="evenodd" clip-rule="evenodd" d="M3.27046 51.9625C1.25522 56.3426 0.160156 61.1746 0.160156 66.1697V74.1868C0.160156 86.2072 12.9195 93.935 23.5723 88.3664L77.9109 59.9618C79.489 59.1369 80.9842 58.1983 82.3886 57.159C81.3318 54.6885 79.8283 52.4249 77.9492 50.4879C76.7831 51.379 75.5323 52.1781 74.2049 52.872L19.8662 81.2766C14.5398 84.0609 8.16016 80.197 8.16016 74.1868V66.1697C8.16016 63.5535 8.55297 60.9959 9.29563 58.5677C7.0221 56.6005 5.00272 54.3807 3.27046 51.9625ZM18.5746 45.3581C16.6716 43.4476 15.1396 41.2064 14.0507 38.7532C15.4205 37.7488 16.8758 36.8398 18.4094 36.0381L72.748 7.63354C83.4008 2.06499 96.1602 9.79272 96.1602 21.8131V29.8302C96.1602 34.7418 95.1014 39.4957 93.1502 43.8173C91.4179 41.3756 89.3936 39.1333 87.1105 37.1459C87.7976 34.8033 88.1602 32.3438 88.1602 29.8302V21.8131C88.1602 15.8029 81.7805 11.9391 76.4541 14.7233L22.1154 43.1279C20.8649 43.7816 19.6824 44.5287 18.5746 45.3581Z" fill="#F5F1FF"/>
<path fill-rule="evenodd" clip-rule="evenodd" d="M8.16016 20.2143C8.16016 14.1418 14.66 10.2833 19.991 13.1911L36.3797 22.1304L44.9109 17.6711L23.8218 6.16796C13.1598 0.352321 0.160156 8.06935 0.160156 20.2143V29.8302C0.160156 42.488 7.19178 54.098 18.4095 59.9618L35.2081 68.7429L43.8427 64.2294L22.1155 52.872C13.5373 48.3879 8.16016 39.5097 8.16016 29.8302V20.2143ZM61.112 73.2565L52.4773 77.77L72.7481 88.3661C83.4009 93.9346 96.1602 86.2069 96.1602 74.1865V65.8088C96.1602 53.3667 89.364 41.9183 78.4411 35.9603L61.8127 26.8903L53.2815 31.3496L74.6103 42.9835C82.9631 47.5396 88.1602 56.2942 88.1602 65.8088V74.1865C88.1602 80.1967 81.7805 84.0605 76.4541 81.2763L61.112 73.2565Z" fill="url(#paint0_linear_2727_62)"/>
</g>
<rect x="257.273" y="40.7998" width="28" height="32" rx="14" stroke="#F5F1FF" stroke-width="8.00001"/>
<path d="M162.16 41.6C154.428 41.6 148.16 47.868 148.16 55.6L148.16 76" stroke="#F5F1FF" stroke-width="8.00001"/>
<path fill-rule="evenodd" clip-rule="evenodd" d="M152.16 76.0796L152.16 37.9996C152.16 32.4767 156.637 27.9996 162.16 27.9996L162.16 19.9996C152.219 19.9996 144.16 28.0584 144.16 37.9996L144.16 76.0796L152.16 76.0796Z" fill="#F5F1FF"/>
<path d="M170.16 37.5996V59.1996C170.16 66.7107 176.249 72.7996 183.76 72.7996V72.7996C191.271 72.7996 197.36 66.7107 197.36 59.1996V37.5996" stroke="#F5F1FF" stroke-width="8.00001"/>
<path d="M324.473 75.9998V54.3998C324.473 46.8887 318.385 40.7998 310.873 40.7998V40.7998C303.362 40.7998 297.273 46.8887 297.273 54.3998V75.9998" stroke="#F5F1FF" stroke-width="8.00001"/>
<path d="M245.273 28.7191C247.924 28.7191 250.073 26.5701 250.073 23.9191C250.073 21.2682 247.924 19.1191 245.273 19.1191C242.622 19.1191 240.473 21.2682 240.473 23.9191C240.473 26.5701 242.622 28.7191 245.273 28.7191Z" fill="#F5F1FF"/>
<path d="M249.273 37.5991H241.273V75.9991H249.273V37.5991Z" fill="#F5F1FF"/>
<path d="M220.953 36.7998C228.933 36.7998 236.51 42.0211 237.273 49.1998H228.44C228.241 46.5427 224.513 44.7998 220.553 44.7998C216.253 44.7998 213.753 46.9198 213.753 49.1998C213.753 56.1998 237.753 49.1998 237.753 64.3998C237.753 72.6109 229.708 76.8098 221.753 76.8098C213.772 76.8098 205.395 71.5885 204.633 64.4098H213.465C213.665 67.0669 218.173 68.8098 222.153 68.8098C226.553 68.8098 229.353 66.6898 229.353 64.4098C229.353 57.6798 205.353 64.4098 205.353 49.1998C205.353 40.9887 214.198 36.7998 220.953 36.7998Z" fill="#F5F1FF"/>
<defs>
<linearGradient id="paint0_linear_2727_62" x1="24.1602" y1="-1.18435" x2="64.1244" y2="93.5964" gradientUnits="userSpaceOnUse">
<stop stop-color="#FF00AA"/>
<stop offset="1" stop-color="#FFAA00"/>
</linearGradient>
<clipPath id="clip0_2727_62">
<rect width="96" height="96" fill="white" transform="translate(0.160156)"/>
</clipPath>
</defs>
</svg>
