<svg width="329" height="96" viewBox="0 0 329 96" fill="none" xmlns="http://www.w3.org/2000/svg">
<path fill-rule="evenodd" clip-rule="evenodd" d="M2.91136 52.0427C1.02237 56.3072 0 60.9834 0 65.8092V75.7856C0 87.9306 12.9997 95.6476 23.6617 89.8319L78.2811 60.0392C79.7077 59.261 81.0639 58.3892 82.3438 57.4338C81.3186 54.9444 79.8427 52.6581 77.9875 50.6952C76.884 51.5555 75.7026 52.333 74.4503 53.016L19.8308 82.8088C14.4998 85.7166 8 81.8581 8 75.7856V65.8092C8 63.3993 8.33342 61.0381 8.96708 58.7816C6.67432 56.7742 4.6445 54.509 2.91136 52.0427ZM18.0127 45.3046C16.1575 43.3418 14.6816 41.0555 13.6563 38.5662C14.9362 37.6107 16.2924 36.7389 17.719 35.9608L72.3384 6.16838C83.0004 0.352748 96 8.06977 96 20.2147V30.1908C96 35.0165 94.9777 39.6927 93.0888 43.957C91.3556 41.4908 89.3258 39.2255 87.033 37.2181C87.6666 34.9617 88 32.6006 88 30.1908V20.2147C88 14.1422 81.5002 10.2837 76.1692 13.1915L21.5498 42.9839C20.2976 43.667 19.1162 44.4444 18.0127 45.3046Z" fill="#08001B"/>
<path fill-rule="evenodd" clip-rule="evenodd" d="M8 20.2143C8 14.1418 14.4998 10.2833 19.8308 13.1911L35.4696 21.7214L43.823 17.1651L23.6616 6.16796C12.9996 0.352321 0 8.06935 0 20.2143V30.1908C0 42.6329 6.79616 54.0813 17.719 60.0392L35.4701 69.7216L43.8234 65.1653L21.5498 53.0161C13.1971 48.46 8 39.7053 8 30.1908V20.2143ZM60.5301 74.278L52.1768 78.8344L72.3384 89.8316C83.0004 95.6472 96 87.9302 96 75.7853V65.8088C96 53.3667 89.2038 41.9183 78.281 35.9603L60.5297 26.2778L52.1763 30.8341L74.4502 42.9835C82.8029 47.5396 88 56.2942 88 65.8088V75.7853C88 81.8578 81.5002 85.7163 76.1692 82.8084L60.5301 74.278Z" fill="url(#paint0_linear_2727_62)"/>
<rect x="257.113" y="40.7998" width="28" height="32" rx="14" stroke="#08001B" stroke-width="8.00001"/>
<path d="M162 41.6C154.268 41.6 148 47.868 148 55.6L148 76" stroke="#08001B" stroke-width="8.00001"/>
<path fill-rule="evenodd" clip-rule="evenodd" d="M152 76.0796L152 37.9996C152 32.4767 156.477 27.9996 162 27.9996L162 19.9996C152.059 19.9996 144 28.0584 144 37.9996L144 76.0796H152Z" fill="#08001B"/>
<path d="M170 37.5996V59.1996C170 66.7107 176.089 72.7996 183.6 72.7996V72.7996C191.111 72.7996 197.2 66.7107 197.2 59.1996V37.5996" stroke="#08001B" stroke-width="8.00001"/>
<path d="M324.313 75.9998V54.3998C324.313 46.8887 318.224 40.7998 310.713 40.7998V40.7998C303.202 40.7998 297.113 46.8887 297.113 54.3998V75.9998" stroke="#08001B" stroke-width="8.00001"/>
<path d="M245.113 28.7191C247.763 28.7191 249.913 26.5701 249.913 23.9191C249.913 21.2682 247.763 19.1191 245.113 19.1191C242.462 19.1191 240.312 21.2682 240.312 23.9191C240.312 26.5701 242.462 28.7191 245.113 28.7191Z" fill="#08001B"/>
<path d="M249.113 37.5991H241.113V75.9991H249.113V37.5991Z" fill="#08001B"/>
<path d="M220.793 36.7998C228.773 36.7998 236.35 42.0211 237.113 49.1998H228.28C228.08 46.5427 224.353 44.7998 220.393 44.7998C216.093 44.7998 213.593 46.9198 213.593 49.1998C213.593 56.1998 237.593 49.1998 237.593 64.3998C237.593 72.6109 229.548 76.8098 221.593 76.8098C213.612 76.8098 205.235 71.5885 204.473 64.4098H213.305C213.505 67.0669 218.013 68.8098 221.993 68.8098C226.393 68.8098 229.193 66.6898 229.193 64.4098C229.193 57.6798 205.193 64.4098 205.193 49.1998C205.193 40.9887 214.038 36.7998 220.793 36.7998Z" fill="#08001B"/>
<defs>
<linearGradient id="paint0_linear_2727_62" x1="24" y1="-1.28433" x2="65.2309" y2="94.7151" gradientUnits="userSpaceOnUse">
<stop stop-color="#FF00AA"/>
<stop offset="1" stop-color="#FFAA00"/>
</linearGradient>
</defs>
</svg>
