<svg width="900" height="296" viewBox="0 0 900 296" fill="none" xmlns="http://www.w3.org/2000/svg">
<rect width="136" height="41" transform="translate(116.5 126)" fill="#CC8800"/>
<path d="M130.97 152.16C130.042 152.16 129.311 151.925 128.778 151.456C128.244 150.976 127.978 150.331 127.978 149.52C127.978 148.699 128.244 148.053 128.778 147.584C129.311 147.115 130.031 146.88 130.938 146.88H133.658V146C133.658 145.467 133.492 145.051 133.162 144.752C132.842 144.453 132.394 144.304 131.818 144.304C131.306 144.304 130.874 144.416 130.522 144.64C130.17 144.864 129.951 145.157 129.866 145.52H128.426C128.479 145.029 128.655 144.597 128.954 144.224C129.263 143.851 129.663 143.563 130.154 143.36C130.655 143.147 131.21 143.04 131.818 143.04C132.831 143.04 133.631 143.301 134.218 143.824C134.804 144.347 135.098 145.056 135.098 145.952V152H133.69V150.32H133.674C133.61 150.885 133.332 151.333 132.842 151.664C132.362 151.995 131.738 152.16 130.97 152.16ZM131.322 151.024C132.004 151.024 132.564 150.853 133.002 150.512C133.439 150.171 133.658 149.733 133.658 149.2V147.952H130.97C130.49 147.952 130.111 148.085 129.834 148.352C129.556 148.619 129.418 148.981 129.418 149.44C129.418 149.931 129.583 150.32 129.914 150.608C130.255 150.885 130.724 151.024 131.322 151.024ZM137.491 152V143.2H138.755V144.256H138.851C138.926 143.893 139.091 143.6 139.347 143.376C139.614 143.152 139.939 143.04 140.323 143.04C140.675 143.04 140.979 143.152 141.235 143.376C141.491 143.589 141.673 143.883 141.779 144.256H141.875C141.95 143.893 142.121 143.6 142.387 143.376C142.654 143.152 142.985 143.04 143.379 143.04C143.913 143.04 144.345 143.253 144.675 143.68C145.006 144.096 145.171 144.64 145.171 145.312V152H143.843V145.296C143.843 144.923 143.758 144.64 143.587 144.448C143.427 144.245 143.193 144.144 142.883 144.144C142.574 144.144 142.334 144.245 142.163 144.448C141.993 144.64 141.907 144.917 141.907 145.28V152H140.755V145.296C140.755 144.923 140.665 144.64 140.483 144.448C140.313 144.245 140.073 144.144 139.763 144.144C139.465 144.144 139.23 144.245 139.059 144.448C138.899 144.64 138.819 144.917 138.819 145.28V152H137.491ZM147.085 152V143.2H148.349V144.256H148.445C148.52 143.893 148.685 143.6 148.941 143.376C149.208 143.152 149.533 143.04 149.917 143.04C150.269 143.04 150.573 143.152 150.829 143.376C151.085 143.589 151.266 143.883 151.373 144.256H151.469C151.544 143.893 151.714 143.6 151.981 143.376C152.248 143.152 152.578 143.04 152.973 143.04C153.506 143.04 153.938 143.253 154.269 143.68C154.6 144.096 154.765 144.64 154.765 145.312V152H153.437V145.296C153.437 144.923 153.352 144.64 153.181 144.448C153.021 144.245 152.786 144.144 152.477 144.144C152.168 144.144 151.928 144.245 151.757 144.448C151.586 144.64 151.501 144.917 151.501 145.28V152H150.349V145.296C150.349 144.923 150.258 144.64 150.077 144.448C149.906 144.245 149.666 144.144 149.357 144.144C149.058 144.144 148.824 144.245 148.653 144.448C148.493 144.64 148.413 144.917 148.413 145.28V152H147.085ZM160.519 152.128C159.452 152.128 158.609 151.829 157.991 151.232C157.383 150.624 157.079 149.803 157.079 148.768V146.432C157.079 145.387 157.383 144.565 157.991 143.968C158.609 143.371 159.452 143.072 160.519 143.072C161.585 143.072 162.423 143.371 163.031 143.968C163.649 144.565 163.959 145.381 163.959 146.416V148.768C163.959 149.803 163.649 150.624 163.031 151.232C162.423 151.829 161.585 152.128 160.519 152.128ZM160.519 150.848C161.148 150.848 161.639 150.672 161.991 150.32C162.343 149.968 162.519 149.451 162.519 148.768V146.432C162.519 145.749 162.343 145.232 161.991 144.88C161.639 144.528 161.148 144.352 160.519 144.352C159.9 144.352 159.409 144.528 159.047 144.88C158.695 145.232 158.519 145.749 158.519 146.432V148.768C158.519 149.451 158.695 149.968 159.047 150.32C159.409 150.672 159.9 150.848 160.519 150.848ZM170.113 145.44C169.718 145.44 169.398 145.333 169.153 145.12C168.907 144.896 168.785 144.603 168.785 144.24C168.785 143.877 168.907 143.589 169.153 143.376C169.398 143.152 169.718 143.04 170.113 143.04C170.518 143.04 170.838 143.152 171.073 143.376C171.318 143.589 171.441 143.877 171.441 144.24C171.441 144.603 171.318 144.896 171.073 145.12C170.838 145.333 170.518 145.44 170.113 145.44ZM170.113 152.16C169.718 152.16 169.398 152.053 169.153 151.84C168.907 151.616 168.785 151.323 168.785 150.96C168.785 150.597 168.907 150.309 169.153 150.096C169.398 149.872 169.718 149.76 170.113 149.76C170.518 149.76 170.838 149.872 171.073 150.096C171.318 150.309 171.441 150.597 171.441 150.96C171.441 151.323 171.318 151.616 171.073 151.84C170.838 152.053 170.518 152.16 170.113 152.16ZM179.434 152.128C178.528 152.128 177.786 151.92 177.21 151.504C176.634 151.088 176.346 150.517 176.346 149.792H177.818C177.818 150.123 177.973 150.384 178.282 150.576C178.602 150.757 178.997 150.848 179.466 150.848H180.138C180.704 150.848 181.125 150.736 181.402 150.512C181.68 150.277 181.818 149.968 181.818 149.584C181.818 149.211 181.685 148.917 181.418 148.704C181.162 148.48 180.789 148.331 180.298 148.256L179.114 148.064C178.24 147.915 177.594 147.637 177.178 147.232C176.762 146.827 176.554 146.267 176.554 145.552C176.554 144.752 176.81 144.139 177.322 143.712C177.845 143.285 178.592 143.072 179.562 143.072H180.17C181.066 143.072 181.781 143.275 182.314 143.68C182.858 144.075 183.13 144.603 183.13 145.264H181.658C181.658 144.987 181.52 144.768 181.242 144.608C180.976 144.437 180.608 144.352 180.138 144.352H179.53C179.029 144.352 178.64 144.459 178.362 144.672C178.096 144.875 177.962 145.168 177.962 145.552C177.962 146.192 178.416 146.587 179.322 146.736L180.506 146.928C181.456 147.077 182.144 147.355 182.57 147.76C183.008 148.165 183.226 148.752 183.226 149.52C183.226 150.331 182.965 150.971 182.442 151.44C181.93 151.899 181.152 152.128 180.106 152.128H179.434ZM189.3 152.16C188.607 152.16 187.999 152.021 187.476 151.744C186.964 151.467 186.564 151.077 186.276 150.576C185.999 150.064 185.86 149.472 185.86 148.8V146.4C185.86 145.717 185.999 145.125 186.276 144.624C186.564 144.123 186.964 143.733 187.476 143.456C187.999 143.179 188.607 143.04 189.3 143.04C189.993 143.04 190.596 143.179 191.108 143.456C191.631 143.733 192.031 144.123 192.308 144.624C192.596 145.125 192.74 145.717 192.74 146.4V147.952H187.268V148.8C187.268 149.493 187.444 150.027 187.796 150.4C188.148 150.763 188.649 150.944 189.3 150.944C189.855 150.944 190.303 150.848 190.644 150.656C190.985 150.453 191.193 150.155 191.268 149.76H192.708C192.612 150.496 192.249 151.083 191.62 151.52C191.001 151.947 190.228 152.16 189.3 152.16ZM187.268 146.864H191.332V146.4C191.332 145.707 191.156 145.173 190.804 144.8C190.463 144.427 189.961 144.24 189.3 144.24C188.649 144.24 188.148 144.427 187.796 144.8C187.444 145.173 187.268 145.707 187.268 146.4V146.864ZM199.854 152C199.128 152 198.547 151.792 198.11 151.376C197.672 150.949 197.454 150.384 197.454 149.68V144.512H194.974V143.2H197.454V140.72H198.894V143.2H202.414V144.512H198.894V149.68C198.894 149.979 198.979 150.224 199.15 150.416C199.331 150.597 199.566 150.688 199.854 150.688H202.254V152H199.854ZM211.448 153.92C209.933 153.547 208.754 152.811 207.911 151.712C207.069 150.613 206.648 149.269 206.648 147.68V144.8C206.648 143.755 206.84 142.811 207.224 141.968C207.618 141.115 208.173 140.395 208.888 139.808C209.613 139.221 210.466 138.805 211.448 138.56V139.92C210.765 140.08 210.173 140.389 209.672 140.848C209.17 141.296 208.781 141.856 208.504 142.528C208.226 143.2 208.088 143.957 208.088 144.8V147.68C208.088 148.501 208.221 149.248 208.488 149.92C208.765 150.592 209.154 151.152 209.656 151.6C210.168 152.037 210.765 152.336 211.448 152.496V153.92ZM218.097 152.16C217.34 152.16 216.673 152.005 216.097 151.696C215.532 151.376 215.089 150.939 214.769 150.384C214.46 149.819 214.305 149.168 214.305 148.432C214.305 147.92 214.396 147.397 214.577 146.864C214.769 146.32 215.031 145.755 215.361 145.168L218.113 140.32H219.681L216.513 145.712L216.577 145.76C216.769 145.472 217.047 145.243 217.409 145.072C217.772 144.901 218.183 144.816 218.641 144.816C219.281 144.816 219.841 144.965 220.321 145.264C220.812 145.563 221.191 145.979 221.457 146.512C221.724 147.035 221.857 147.653 221.857 148.368C221.857 149.125 221.697 149.792 221.377 150.368C221.068 150.933 220.631 151.376 220.065 151.696C219.511 152.005 218.855 152.16 218.097 152.16ZM218.081 150.88C218.775 150.88 219.335 150.656 219.761 150.208C220.199 149.749 220.417 149.147 220.417 148.4C220.417 147.653 220.199 147.056 219.761 146.608C219.335 146.149 218.775 145.92 218.081 145.92C217.388 145.92 216.823 146.149 216.385 146.608C215.959 147.056 215.745 147.653 215.745 148.4C215.745 149.147 215.959 149.749 216.385 150.208C216.823 150.656 217.388 150.88 218.081 150.88ZM225.931 152L230.107 141.632H225.595V143.52H224.155V140.32H231.595V141.664L227.515 152H225.931ZM234.309 153.92V152.496C235.002 152.336 235.599 152.037 236.101 151.6C236.602 151.152 236.986 150.592 237.253 149.92C237.53 149.248 237.669 148.501 237.669 147.68V144.8C237.669 143.957 237.53 143.2 237.253 142.528C236.975 141.856 236.586 141.296 236.085 140.848C235.583 140.389 234.991 140.08 234.309 139.92V138.56C235.301 138.805 236.154 139.221 236.869 139.808C237.583 140.395 238.133 141.115 238.517 141.968C238.911 142.811 239.109 143.755 239.109 144.8V147.68C239.109 149.269 238.687 150.613 237.845 151.712C237.002 152.811 235.823 153.547 234.309 153.92Z" fill="#F8F8FA"/>
<path d="M118.741 95.6172C118.694 95.183 118.499 94.8449 118.154 94.603C117.813 94.361 117.369 94.2401 116.822 94.2401C116.437 94.2401 116.107 94.2981 115.832 94.4141C115.557 94.5301 115.347 94.6875 115.201 94.8864C115.055 95.0852 114.981 95.3123 114.977 95.5675C114.977 95.7796 115.025 95.9635 115.121 96.1193C115.221 96.2751 115.355 96.4077 115.524 96.517C115.693 96.6231 115.88 96.7126 116.086 96.7855C116.291 96.8584 116.499 96.9197 116.707 96.9695L117.662 97.2081C118.046 97.2976 118.416 97.4186 118.771 97.571C119.129 97.7235 119.448 97.9157 119.73 98.1477C120.015 98.3797 120.241 98.6598 120.406 98.9879C120.572 99.3161 120.655 99.7005 120.655 100.141C120.655 100.738 120.502 101.263 120.197 101.717C119.893 102.168 119.452 102.521 118.875 102.776C118.302 103.028 117.607 103.154 116.792 103.154C116 103.154 115.312 103.031 114.729 102.786C114.149 102.541 113.695 102.183 113.366 101.712C113.042 101.242 112.866 100.668 112.839 99.9922H114.654C114.681 100.347 114.79 100.642 114.982 100.877C115.174 101.112 115.425 101.288 115.733 101.404C116.045 101.52 116.393 101.578 116.777 101.578C117.178 101.578 117.529 101.518 117.831 101.399C118.136 101.277 118.375 101.107 118.547 100.892C118.719 100.673 118.807 100.418 118.81 100.126C118.807 99.8613 118.729 99.6425 118.577 99.4702C118.424 99.2945 118.21 99.1487 117.935 99.0327C117.664 98.9134 117.345 98.8073 116.981 98.7145L115.822 98.4162C114.984 98.2008 114.321 97.8743 113.834 97.4368C113.35 96.996 113.108 96.411 113.108 95.6818C113.108 95.0819 113.27 94.5566 113.595 94.1058C113.923 93.6551 114.369 93.3054 114.933 93.0568C115.496 92.8049 116.134 92.679 116.847 92.679C117.569 92.679 118.202 92.8049 118.746 93.0568C119.293 93.3054 119.722 93.6518 120.033 94.0959C120.345 94.5367 120.506 95.0438 120.516 95.6172H118.741ZM125.551 103.149C124.788 103.149 124.134 102.982 123.587 102.647C123.043 102.312 122.624 101.85 122.329 101.26C122.037 100.667 121.892 99.9839 121.892 99.2116C121.892 98.4361 122.041 97.7517 122.339 97.1584C122.637 96.5618 123.058 96.0978 123.602 95.7663C124.149 95.4316 124.795 95.2642 125.541 95.2642C126.16 95.2642 126.709 95.3786 127.186 95.6072C127.667 95.8326 128.05 96.1525 128.335 96.5668C128.62 96.9777 128.782 97.4583 128.822 98.0085H127.102C127.032 97.6406 126.866 97.334 126.605 97.0888C126.346 96.8402 126 96.7159 125.566 96.7159C125.198 96.7159 124.874 96.8153 124.596 97.0142C124.318 97.2098 124.101 97.4915 123.945 97.8594C123.792 98.2273 123.716 98.6681 123.716 99.1818C123.716 99.7022 123.792 100.15 123.945 100.524C124.097 100.895 124.311 101.182 124.586 101.384C124.865 101.583 125.191 101.683 125.566 101.683C125.831 101.683 126.068 101.633 126.276 101.533C126.489 101.431 126.666 101.283 126.808 101.091C126.951 100.899 127.049 100.665 127.102 100.39H128.822C128.779 100.93 128.62 101.409 128.345 101.827C128.07 102.241 127.695 102.566 127.221 102.801C126.747 103.033 126.19 103.149 125.551 103.149ZM130.3 103V95.3636H132.045V96.6364H132.124C132.263 96.1955 132.502 95.8558 132.84 95.6172C133.182 95.3752 133.571 95.2543 134.009 95.2543C134.108 95.2543 134.219 95.2592 134.342 95.2692C134.468 95.2758 134.572 95.2874 134.655 95.304V96.9595C134.579 96.933 134.458 96.9098 134.292 96.8899C134.129 96.8667 133.972 96.8551 133.82 96.8551C133.491 96.8551 133.196 96.9264 132.935 97.0689C132.676 97.2081 132.472 97.402 132.323 97.6506C132.174 97.8991 132.099 98.1858 132.099 98.5107V103H130.3ZM135.85 103V95.3636H137.65V103H135.85ZM136.755 94.2798C136.47 94.2798 136.225 94.1854 136.02 93.9964C135.814 93.8042 135.711 93.5739 135.711 93.3054C135.711 93.0336 135.814 92.8033 136.02 92.6143C136.225 92.4221 136.47 92.326 136.755 92.326C137.044 92.326 137.289 92.4221 137.491 92.6143C137.697 92.8033 137.799 93.0336 137.799 93.3054C137.799 93.5739 137.697 93.8042 137.491 93.9964C137.289 94.1854 137.044 94.2798 136.755 94.2798ZM139.501 105.864V95.3636H141.271V96.6264H141.375C141.468 96.4408 141.599 96.2436 141.768 96.0348C141.937 95.8227 142.166 95.642 142.454 95.4929C142.742 95.3404 143.11 95.2642 143.558 95.2642C144.148 95.2642 144.68 95.415 145.154 95.7166C145.631 96.0149 146.009 96.4574 146.287 97.044C146.569 97.6274 146.71 98.3433 146.71 99.1918C146.71 100.03 146.572 100.743 146.297 101.33C146.022 101.916 145.647 102.364 145.173 102.672C144.7 102.98 144.163 103.134 143.563 103.134C143.125 103.134 142.762 103.061 142.474 102.915C142.186 102.77 141.954 102.594 141.778 102.388C141.606 102.18 141.471 101.982 141.375 101.797H141.301V105.864H139.501ZM141.266 99.1818C141.266 99.6757 141.335 100.108 141.475 100.479C141.617 100.851 141.821 101.141 142.086 101.349C142.355 101.555 142.679 101.658 143.061 101.658C143.458 101.658 143.791 101.552 144.06 101.339C144.328 101.124 144.53 100.831 144.666 100.46C144.806 100.085 144.875 99.6591 144.875 99.1818C144.875 98.7079 144.807 98.2869 144.671 97.919C144.535 97.5511 144.333 97.2628 144.065 97.054C143.796 96.8452 143.462 96.7408 143.061 96.7408C142.676 96.7408 142.35 96.8419 142.081 97.044C141.813 97.2462 141.609 97.5296 141.47 97.8942C141.334 98.2588 141.266 98.688 141.266 99.1818ZM152.064 95.3636V96.7557H147.674V95.3636H152.064ZM148.758 93.5341H150.558V100.703C150.558 100.945 150.594 101.131 150.667 101.26C150.743 101.386 150.843 101.472 150.965 101.518C151.088 101.565 151.224 101.588 151.373 101.588C151.486 101.588 151.588 101.58 151.681 101.563C151.777 101.547 151.85 101.532 151.9 101.518L152.203 102.925C152.107 102.959 151.97 102.995 151.791 103.035C151.615 103.075 151.4 103.098 151.144 103.104C150.694 103.118 150.288 103.05 149.926 102.901C149.565 102.748 149.278 102.513 149.066 102.195C148.857 101.876 148.755 101.479 148.758 101.001V93.5341ZM163.077 97.3821L161.437 97.5611C161.39 97.3954 161.309 97.2396 161.193 97.0938C161.08 96.9479 160.928 96.8303 160.736 96.7408C160.544 96.6513 160.308 96.6065 160.03 96.6065C159.655 96.6065 159.34 96.6877 159.085 96.8501C158.833 97.0125 158.709 97.223 158.712 97.4815C158.709 97.7036 158.79 97.8842 158.956 98.0234C159.125 98.1626 159.403 98.277 159.791 98.3665L161.094 98.6449C161.816 98.8007 162.353 99.0476 162.705 99.3857C163.059 99.7237 163.238 100.166 163.241 100.713C163.238 101.194 163.097 101.618 162.819 101.986C162.544 102.35 162.161 102.635 161.67 102.841C161.18 103.046 160.616 103.149 159.98 103.149C159.045 103.149 158.293 102.954 157.723 102.562C157.153 102.168 156.813 101.62 156.704 100.917L158.459 100.748C158.538 101.093 158.707 101.353 158.966 101.528C159.224 101.704 159.561 101.792 159.975 101.792C160.403 101.792 160.746 101.704 161.004 101.528C161.266 101.353 161.397 101.136 161.397 100.877C161.397 100.658 161.313 100.478 161.143 100.335C160.978 100.193 160.719 100.083 160.368 100.007L159.065 99.7337C158.333 99.5812 157.791 99.3243 157.44 98.9631C157.088 98.5985 156.914 98.1378 156.918 97.581C156.914 97.1103 157.042 96.7027 157.3 96.358C157.562 96.0099 157.925 95.7415 158.389 95.5526C158.857 95.3603 159.395 95.2642 160.005 95.2642C160.9 95.2642 161.604 95.4548 162.118 95.8359C162.635 96.2171 162.955 96.7325 163.077 97.3821ZM168.106 103.149C167.341 103.149 166.679 102.99 166.123 102.672C165.569 102.35 165.143 101.896 164.845 101.31C164.547 100.72 164.397 100.025 164.397 99.2266C164.397 98.4411 164.547 97.7517 164.845 97.1584C165.146 96.5618 165.567 96.0978 166.108 95.7663C166.648 95.4316 167.283 95.2642 168.012 95.2642C168.482 95.2642 168.926 95.3404 169.344 95.4929C169.765 95.642 170.136 95.8741 170.458 96.1889C170.783 96.5038 171.038 96.9048 171.223 97.392C171.409 97.8759 171.502 98.4527 171.502 99.1222V99.674H165.243V98.4609H169.777C169.773 98.1162 169.699 97.8097 169.553 97.5412C169.407 97.2694 169.203 97.0556 168.941 96.8999C168.683 96.7441 168.381 96.6662 168.037 96.6662C167.669 96.6662 167.346 96.7557 167.067 96.9347C166.789 97.1103 166.572 97.3423 166.416 97.6307C166.263 97.9157 166.185 98.2289 166.182 98.5703V99.6293C166.182 100.073 166.263 100.455 166.426 100.773C166.588 101.088 166.815 101.33 167.107 101.499C167.399 101.664 167.74 101.747 168.131 101.747C168.393 101.747 168.63 101.711 168.842 101.638C169.054 101.562 169.238 101.451 169.394 101.305C169.55 101.159 169.667 100.978 169.747 100.763L171.427 100.952C171.321 101.396 171.119 101.784 170.821 102.115C170.526 102.443 170.148 102.698 169.687 102.881C169.226 103.06 168.699 103.149 168.106 103.149ZM176.838 95.3636V96.7557H172.448V95.3636H176.838ZM173.531 93.5341H175.331V100.703C175.331 100.945 175.368 101.131 175.441 101.26C175.517 101.386 175.616 101.472 175.739 101.518C175.861 101.565 175.997 101.588 176.146 101.588C176.259 101.588 176.362 101.58 176.455 101.563C176.551 101.547 176.624 101.532 176.673 101.518L176.977 102.925C176.881 102.959 176.743 102.995 176.564 103.035C176.388 103.075 176.173 103.098 175.918 103.104C175.467 103.118 175.061 103.05 174.7 102.901C174.338 102.748 174.052 102.513 173.84 102.195C173.631 101.876 173.528 101.479 173.531 101.001V93.5341ZM184.269 97.3821L182.628 97.5611C182.582 97.3954 182.501 97.2396 182.385 97.0938C182.272 96.9479 182.119 96.8303 181.927 96.7408C181.735 96.6513 181.5 96.6065 181.221 96.6065C180.847 96.6065 180.532 96.6877 180.277 96.8501C180.025 97.0125 179.9 97.223 179.904 97.4815C179.9 97.7036 179.982 97.8842 180.147 98.0234C180.316 98.1626 180.595 98.277 180.983 98.3665L182.285 98.6449C183.008 98.8007 183.545 99.0476 183.896 99.3857C184.251 99.7237 184.43 100.166 184.433 100.713C184.43 101.194 184.289 101.618 184.01 101.986C183.735 102.35 183.352 102.635 182.862 102.841C182.371 103.046 181.808 103.149 181.172 103.149C180.237 103.149 179.484 102.954 178.914 102.562C178.344 102.168 178.005 101.62 177.895 100.917L179.65 100.748C179.73 101.093 179.899 101.353 180.157 101.528C180.416 101.704 180.752 101.792 181.167 101.792C181.594 101.792 181.937 101.704 182.196 101.528C182.458 101.353 182.588 101.136 182.588 100.877C182.588 100.658 182.504 100.478 182.335 100.335C182.169 100.193 181.911 100.083 181.559 100.007L180.257 99.7337C179.524 99.5812 178.982 99.3243 178.631 98.9631C178.28 98.5985 178.106 98.1378 178.109 97.581C178.106 97.1103 178.233 96.7027 178.492 96.358C178.754 96.0099 179.117 95.7415 179.581 95.5526C180.048 95.3603 180.587 95.2642 181.196 95.2642C182.091 95.2642 182.796 95.4548 183.309 95.8359C183.826 96.2171 184.146 96.7325 184.269 97.3821ZM191.189 98.5256V103H189.39V95.3636H191.11V96.6612H191.199C191.375 96.2337 191.655 95.8939 192.039 95.642C192.427 95.3902 192.906 95.2642 193.476 95.2642C194.003 95.2642 194.462 95.3769 194.853 95.6023C195.248 95.8277 195.553 96.1541 195.768 96.5817C195.987 97.0092 196.095 97.5279 196.091 98.1378V103H194.292V98.4162C194.292 97.9058 194.159 97.5064 193.894 97.218C193.632 96.9297 193.269 96.7855 192.805 96.7855C192.49 96.7855 192.21 96.8551 191.965 96.9943C191.723 97.1302 191.532 97.3274 191.393 97.5859C191.257 97.8445 191.189 98.1577 191.189 98.5256ZM201.301 103.149C200.536 103.149 199.875 102.99 199.318 102.672C198.764 102.35 198.338 101.896 198.04 101.31C197.742 100.72 197.593 100.025 197.593 99.2266C197.593 98.4411 197.742 97.7517 198.04 97.1584C198.342 96.5618 198.763 96.0978 199.303 95.7663C199.843 95.4316 200.478 95.2642 201.207 95.2642C201.678 95.2642 202.122 95.3404 202.539 95.4929C202.96 95.642 203.332 95.8741 203.653 96.1889C203.978 96.5038 204.233 96.9048 204.419 97.392C204.604 97.8759 204.697 98.4527 204.697 99.1222V99.674H198.438V98.4609H202.972C202.969 98.1162 202.894 97.8097 202.748 97.5412C202.602 97.2694 202.399 97.0556 202.137 96.8999C201.878 96.7441 201.577 96.6662 201.232 96.6662C200.864 96.6662 200.541 96.7557 200.262 96.9347C199.984 97.1103 199.767 97.3423 199.611 97.6307C199.459 97.9157 199.381 98.2289 199.377 98.5703V99.6293C199.377 100.073 199.459 100.455 199.621 100.773C199.783 101.088 200.011 101.33 200.302 101.499C200.594 101.664 200.935 101.747 201.326 101.747C201.588 101.747 201.825 101.711 202.037 101.638C202.249 101.562 202.433 101.451 202.589 101.305C202.745 101.159 202.863 100.978 202.942 100.763L204.623 100.952C204.516 101.396 204.314 101.784 204.016 102.115C203.721 102.443 203.343 102.698 202.882 102.881C202.422 103.06 201.895 103.149 201.301 103.149ZM207.755 103L205.597 95.3636H207.431L208.774 100.733H208.843L210.216 95.3636H212.03L213.402 100.703H213.477L214.799 95.3636H216.639L214.476 103H212.602L211.17 97.8395H211.066L209.634 103H207.755ZM228.189 95.3636L225.47 103H223.481L220.762 95.3636H222.681L224.436 101.036H224.515L226.275 95.3636H228.189ZM231.413 103.154C230.929 103.154 230.493 103.068 230.106 102.896C229.721 102.72 229.416 102.461 229.191 102.12C228.969 101.779 228.858 101.358 228.858 100.857C228.858 100.426 228.937 100.07 229.096 99.7884C229.256 99.5066 229.473 99.2812 229.748 99.1122C230.023 98.9432 230.333 98.8156 230.677 98.7294C231.025 98.6399 231.385 98.5753 231.756 98.5355C232.204 98.4891 232.567 98.4477 232.845 98.4112C233.123 98.3714 233.326 98.3118 233.452 98.2322C233.581 98.1494 233.645 98.0218 233.645 97.8494V97.8196C233.645 97.4451 233.534 97.1551 233.312 96.9496C233.09 96.7441 232.77 96.6413 232.353 96.6413C231.912 96.6413 231.562 96.7375 231.304 96.9297C231.049 97.1219 230.876 97.349 230.787 97.6108L229.106 97.3722C229.239 96.9081 229.458 96.5204 229.763 96.2088C230.068 95.8939 230.44 95.6586 230.881 95.5028C231.322 95.3438 231.809 95.2642 232.343 95.2642C232.711 95.2642 233.077 95.3073 233.442 95.3935C233.806 95.4796 234.139 95.6222 234.441 95.821C234.742 96.0166 234.984 96.2834 235.167 96.6214C235.352 96.9595 235.445 97.3821 235.445 97.8892V103H233.715V101.951H233.655C233.546 102.163 233.392 102.362 233.193 102.548C232.997 102.73 232.751 102.877 232.452 102.99C232.157 103.099 231.811 103.154 231.413 103.154ZM231.881 101.832C232.242 101.832 232.555 101.76 232.82 101.618C233.085 101.472 233.289 101.28 233.432 101.041C233.577 100.803 233.65 100.542 233.65 100.261V99.3608C233.594 99.4072 233.498 99.4503 233.362 99.4901C233.229 99.5298 233.08 99.5646 232.915 99.5945C232.749 99.6243 232.585 99.6508 232.422 99.674C232.26 99.6972 232.119 99.7171 232 99.7337C231.731 99.7701 231.491 99.8298 231.279 99.9126C231.067 99.9955 230.899 100.112 230.777 100.261C230.654 100.406 230.593 100.595 230.593 100.827C230.593 101.159 230.714 101.409 230.956 101.578C231.198 101.747 231.506 101.832 231.881 101.832ZM239.055 92.8182V103H237.255V92.8182H239.055ZM245.772 99.7884V95.3636H247.572V103H245.827V101.643H245.748C245.575 102.07 245.292 102.42 244.897 102.692C244.506 102.964 244.024 103.099 243.451 103.099C242.95 103.099 242.508 102.988 242.123 102.766C241.742 102.541 241.444 102.214 241.228 101.787C241.013 101.356 240.905 100.836 240.905 100.226V95.3636H242.705V99.9474C242.705 100.431 242.837 100.816 243.103 101.101C243.368 101.386 243.716 101.528 244.147 101.528C244.412 101.528 244.669 101.464 244.917 101.335C245.166 101.205 245.37 101.013 245.529 100.758C245.691 100.499 245.772 100.176 245.772 99.7884ZM252.803 103.149C252.038 103.149 251.377 102.99 250.82 102.672C250.266 102.35 249.84 101.896 249.542 101.31C249.244 100.72 249.095 100.025 249.095 99.2266C249.095 98.4411 249.244 97.7517 249.542 97.1584C249.844 96.5618 250.265 96.0978 250.805 95.7663C251.345 95.4316 251.98 95.2642 252.709 95.2642C253.18 95.2642 253.624 95.3404 254.041 95.4929C254.462 95.642 254.834 95.8741 255.155 96.1889C255.48 96.5038 255.735 96.9048 255.921 97.392C256.106 97.8759 256.199 98.4527 256.199 99.1222V99.674H249.94V98.4609H254.474C254.471 98.1162 254.396 97.8097 254.25 97.5412C254.104 97.2694 253.901 97.0556 253.639 96.8999C253.38 96.7441 253.079 96.6662 252.734 96.6662C252.366 96.6662 252.043 96.7557 251.764 96.9347C251.486 97.1103 251.269 97.3423 251.113 97.6307C250.961 97.9157 250.883 98.2289 250.879 98.5703V99.6293C250.879 100.073 250.961 100.455 251.123 100.773C251.285 101.088 251.512 101.33 251.804 101.499C252.096 101.664 252.437 101.747 252.828 101.747C253.09 101.747 253.327 101.711 253.539 101.638C253.751 101.562 253.935 101.451 254.091 101.305C254.247 101.159 254.365 100.978 254.444 100.763L256.124 100.952C256.018 101.396 255.816 101.784 255.518 102.115C255.223 102.443 254.845 102.698 254.384 102.881C253.924 103.06 253.397 103.149 252.803 103.149Z" fill="#1D1D1F"/>
<path d="M648.933 23.8182V34H647.292L642.495 27.0646H642.41V34H640.566V23.8182H642.216L647.009 30.7585H647.098V23.8182H648.933ZM654.244 34.1491C653.478 34.1491 652.817 33.9901 652.26 33.6719C651.707 33.3504 651.281 32.8963 650.983 32.3097C650.684 31.7197 650.535 31.0253 650.535 30.2266C650.535 29.4411 650.684 28.7517 650.983 28.1584C651.284 27.5618 651.705 27.0978 652.245 26.7663C652.786 26.4316 653.42 26.2642 654.149 26.2642C654.62 26.2642 655.064 26.3404 655.482 26.4929C655.903 26.642 656.274 26.8741 656.595 27.1889C656.92 27.5038 657.175 27.9048 657.361 28.392C657.547 28.8759 657.639 29.4527 657.639 30.1222V30.674H651.38V29.4609H655.914C655.911 29.1162 655.836 28.8097 655.691 28.5412C655.545 28.2694 655.341 28.0556 655.079 27.8999C654.821 27.7441 654.519 27.6662 654.174 27.6662C653.806 27.6662 653.483 27.7557 653.205 27.9347C652.926 28.1103 652.709 28.3423 652.554 28.6307C652.401 28.9157 652.323 29.2289 652.32 29.5703V30.6293C652.32 31.0734 652.401 31.4545 652.563 31.7727C652.726 32.0876 652.953 32.3295 653.245 32.4986C653.536 32.6643 653.878 32.7472 654.269 32.7472C654.531 32.7472 654.768 32.7107 654.98 32.6378C655.192 32.5616 655.376 32.4505 655.532 32.3047C655.687 32.1589 655.805 31.9782 655.884 31.7628L657.565 31.9517C657.459 32.3958 657.257 32.7836 656.958 33.1151C656.663 33.4432 656.286 33.6984 655.825 33.8807C655.364 34.0597 654.837 34.1491 654.244 34.1491ZM660.697 34L658.539 26.3636H660.374L661.716 31.733H661.786L663.158 26.3636H664.973L666.345 31.7031H666.419L667.742 26.3636H669.581L667.419 34H665.544L664.112 28.8395H664.008L662.576 34H660.697ZM681.131 26.3636L678.412 34H676.423L673.704 26.3636H675.623L677.378 32.0362H677.457L679.217 26.3636H681.131ZM684.356 34.1541C683.872 34.1541 683.436 34.0679 683.048 33.8956C682.664 33.7199 682.359 33.4614 682.133 33.12C681.911 32.7786 681.8 32.3577 681.8 31.8572C681.8 31.4264 681.88 31.0701 682.039 30.7884C682.198 30.5066 682.415 30.2812 682.69 30.1122C682.965 29.9432 683.275 29.8156 683.62 29.7294C683.968 29.6399 684.327 29.5753 684.699 29.5355C685.146 29.4891 685.509 29.4477 685.787 29.4112C686.066 29.3714 686.268 29.3118 686.394 29.2322C686.523 29.1494 686.588 29.0218 686.588 28.8494V28.8196C686.588 28.4451 686.477 28.1551 686.255 27.9496C686.033 27.7441 685.713 27.6413 685.295 27.6413C684.854 27.6413 684.505 27.7375 684.246 27.9297C683.991 28.1219 683.819 28.349 683.729 28.6108L682.049 28.3722C682.181 27.9081 682.4 27.5204 682.705 27.2088C683.01 26.8939 683.383 26.6586 683.824 26.5028C684.264 26.3438 684.752 26.2642 685.285 26.2642C685.653 26.2642 686.019 26.3073 686.384 26.3935C686.749 26.4796 687.082 26.6222 687.383 26.821C687.685 27.0166 687.927 27.2834 688.109 27.6214C688.295 27.9595 688.388 28.3821 688.388 28.8892V34H686.657V32.951H686.598C686.488 33.1631 686.334 33.362 686.135 33.5476C685.94 33.7299 685.693 33.8774 685.395 33.9901C685.1 34.0994 684.753 34.1541 684.356 34.1541ZM684.823 32.8317C685.184 32.8317 685.497 32.7604 685.763 32.6179C686.028 32.4721 686.232 32.2798 686.374 32.0412C686.52 31.8026 686.593 31.5424 686.593 31.2607V30.3608C686.536 30.4072 686.44 30.4503 686.304 30.4901C686.172 30.5298 686.023 30.5646 685.857 30.5945C685.691 30.6243 685.527 30.6508 685.365 30.674C685.202 30.6972 685.062 30.7171 684.942 30.7337C684.674 30.7701 684.433 30.8298 684.221 30.9126C684.009 30.9955 683.842 31.1115 683.719 31.2607C683.597 31.4065 683.535 31.5954 683.535 31.8274C683.535 32.1589 683.656 32.4091 683.898 32.5781C684.14 32.7472 684.448 32.8317 684.823 32.8317ZM691.997 23.8182V34H690.197V23.8182H691.997ZM698.715 30.7884V26.3636H700.514V34H698.769V32.6428H698.69C698.518 33.0703 698.234 33.42 697.84 33.6918C697.449 33.9635 696.966 34.0994 696.393 34.0994C695.893 34.0994 695.45 33.9884 695.066 33.7663C694.684 33.541 694.386 33.2145 694.171 32.7869C693.955 32.3561 693.848 31.8357 693.848 31.2259V26.3636H695.647V30.9474C695.647 31.4313 695.78 31.8158 696.045 32.1009C696.31 32.3859 696.658 32.5284 697.089 32.5284C697.354 32.5284 697.611 32.4638 697.86 32.3345C698.108 32.2053 698.312 32.013 698.471 31.7578C698.634 31.4993 698.715 31.1761 698.715 30.7884ZM705.746 34.1491C704.98 34.1491 704.319 33.9901 703.762 33.6719C703.209 33.3504 702.783 32.8963 702.484 32.3097C702.186 31.7197 702.037 31.0253 702.037 30.2266C702.037 29.4411 702.186 28.7517 702.484 28.1584C702.786 27.5618 703.207 27.0978 703.747 26.7663C704.287 26.4316 704.922 26.2642 705.651 26.2642C706.122 26.2642 706.566 26.3404 706.984 26.4929C707.405 26.642 707.776 26.8741 708.097 27.1889C708.422 27.5038 708.677 27.9048 708.863 28.392C709.049 28.8759 709.141 29.4527 709.141 30.1222V30.674H702.882V29.4609H707.416C707.413 29.1162 707.338 28.8097 707.193 28.5412C707.047 28.2694 706.843 28.0556 706.581 27.8999C706.323 27.7441 706.021 27.6662 705.676 27.6662C705.308 27.6662 704.985 27.7557 704.707 27.9347C704.428 28.1103 704.211 28.3423 704.055 28.6307C703.903 28.9157 703.825 29.2289 703.822 29.5703V30.6293C703.822 31.0734 703.903 31.4545 704.065 31.7727C704.228 32.0876 704.455 32.3295 704.747 32.4986C705.038 32.6643 705.38 32.7472 705.771 32.7472C706.033 32.7472 706.27 32.7107 706.482 32.6378C706.694 32.5616 706.878 32.4505 707.033 32.3047C707.189 32.1589 707.307 31.9782 707.386 31.7628L709.067 31.9517C708.961 32.3958 708.759 32.7836 708.46 33.1151C708.165 33.4432 707.787 33.6984 707.327 33.8807C706.866 34.0597 706.339 34.1491 705.746 34.1491ZM714.137 34V26.3636H715.936V34H714.137ZM715.041 25.2798C714.756 25.2798 714.511 25.1854 714.306 24.9964C714.1 24.8042 713.997 24.5739 713.997 24.3054C713.997 24.0336 714.1 23.8033 714.306 23.6143C714.511 23.4221 714.756 23.326 715.041 23.326C715.33 23.326 715.575 23.4221 715.777 23.6143C715.983 23.8033 716.085 24.0336 716.085 24.3054C716.085 24.5739 715.983 24.8042 715.777 24.9964C715.575 25.1854 715.33 25.2798 715.041 25.2798ZM723.823 28.3821L722.182 28.5611C722.136 28.3954 722.054 28.2396 721.938 28.0938C721.826 27.9479 721.673 27.8303 721.481 27.7408C721.289 27.6513 721.053 27.6065 720.775 27.6065C720.4 27.6065 720.086 27.6877 719.83 27.8501C719.578 28.0125 719.454 28.223 719.457 28.4815C719.454 28.7036 719.535 28.8842 719.701 29.0234C719.87 29.1626 720.149 29.277 720.536 29.3665L721.839 29.6449C722.561 29.8007 723.098 30.0476 723.45 30.3857C723.804 30.7237 723.983 31.1662 723.987 31.7131C723.983 32.1937 723.842 32.6179 723.564 32.9858C723.289 33.3504 722.906 33.6354 722.416 33.8409C721.925 34.0464 721.362 34.1491 720.725 34.1491C719.791 34.1491 719.038 33.9536 718.468 33.5625C717.898 33.1681 717.558 32.6196 717.449 31.9169L719.204 31.7479C719.283 32.0926 719.453 32.3527 719.711 32.5284C719.97 32.7041 720.306 32.7919 720.72 32.7919C721.148 32.7919 721.491 32.7041 721.749 32.5284C722.011 32.3527 722.142 32.1357 722.142 31.8771C722.142 31.6584 722.058 31.4777 721.889 31.3352C721.723 31.1927 721.464 31.0833 721.113 31.0071L719.81 30.7337C719.078 30.5812 718.536 30.3243 718.185 29.9631C717.833 29.5985 717.659 29.1378 717.663 28.581C717.659 28.1103 717.787 27.7027 718.046 27.358C718.307 27.0099 718.67 26.7415 719.134 26.5526C719.602 26.3603 720.14 26.2642 720.75 26.2642C721.645 26.2642 722.349 26.4548 722.863 26.8359C723.38 27.2171 723.7 27.7325 723.823 28.3821ZM731.777 34.1342C731.177 34.1342 730.64 33.9801 730.166 33.6719C729.692 33.3636 729.318 32.9162 729.043 32.3295C728.768 31.7429 728.63 31.0303 728.63 30.1918C728.63 29.3433 728.769 28.6274 729.048 28.044C729.329 27.4574 729.709 27.0149 730.186 26.7166C730.663 26.415 731.195 26.2642 731.782 26.2642C732.229 26.2642 732.597 26.3404 732.886 26.4929C733.174 26.642 733.403 26.8227 733.572 27.0348C733.741 27.2436 733.872 27.4408 733.965 27.6264H734.039V23.8182H735.844V34H734.074V32.7969H733.965C733.872 32.9825 733.738 33.1797 733.562 33.3885C733.386 33.594 733.154 33.7696 732.866 33.9155C732.578 34.0613 732.215 34.1342 731.777 34.1342ZM732.279 32.6577C732.66 32.6577 732.985 32.5549 733.254 32.3494C733.522 32.1406 733.726 31.8506 733.865 31.4794C734.004 31.1082 734.074 30.6757 734.074 30.1818C734.074 29.688 734.004 29.2588 733.865 28.8942C733.729 28.5296 733.527 28.2462 733.259 28.044C732.993 27.8419 732.667 27.7408 732.279 27.7408C731.878 27.7408 731.543 27.8452 731.275 28.054C731.006 28.2628 730.804 28.5511 730.668 28.919C730.533 29.2869 730.465 29.7079 730.465 30.1818C730.465 30.6591 730.533 31.085 730.668 31.4595C730.808 31.8307 731.011 32.1241 731.28 32.3395C731.552 32.5516 731.885 32.6577 732.279 32.6577ZM737.762 34V26.3636H739.561V34H737.762ZM738.666 25.2798C738.381 25.2798 738.136 25.1854 737.931 24.9964C737.725 24.8042 737.622 24.5739 737.622 24.3054C737.622 24.0336 737.725 23.8033 737.931 23.6143C738.136 23.4221 738.381 23.326 738.666 23.326C738.955 23.326 739.2 23.4221 739.402 23.6143C739.608 23.8033 739.71 24.0336 739.71 24.3054C739.71 24.5739 739.608 24.8042 739.402 24.9964C739.2 25.1854 738.955 25.2798 738.666 25.2798ZM745.28 26.3636V27.7557H740.766V26.3636H745.28ZM741.894 34V25.6428C741.894 25.129 742 24.7015 742.212 24.3601C742.428 24.0187 742.716 23.7635 743.078 23.5945C743.439 23.4254 743.84 23.3409 744.281 23.3409C744.592 23.3409 744.869 23.3658 745.111 23.4155C745.353 23.4652 745.532 23.5099 745.648 23.5497L745.29 24.9418C745.214 24.9186 745.118 24.8954 745.002 24.8722C744.886 24.8456 744.756 24.8324 744.614 24.8324C744.279 24.8324 744.042 24.9136 743.903 25.076C743.767 25.2351 743.699 25.4638 743.699 25.7621V34H741.894ZM750.557 26.3636V27.7557H746.043V26.3636H750.557ZM747.172 34V25.6428C747.172 25.129 747.278 24.7015 747.49 24.3601C747.705 24.0187 747.994 23.7635 748.355 23.5945C748.716 23.4254 749.117 23.3409 749.558 23.3409C749.87 23.3409 750.146 23.3658 750.388 23.4155C750.63 23.4652 750.809 23.5099 750.925 23.5497L750.567 24.9418C750.491 24.9186 750.395 24.8954 750.279 24.8722C750.163 24.8456 750.034 24.8324 749.891 24.8324C749.556 24.8324 749.319 24.9136 749.18 25.076C749.044 25.2351 748.976 25.4638 748.976 25.7621V34H747.172ZM755.06 34.1491C754.295 34.1491 753.633 33.9901 753.077 33.6719C752.523 33.3504 752.097 32.8963 751.799 32.3097C751.501 31.7197 751.351 31.0253 751.351 30.2266C751.351 29.4411 751.501 28.7517 751.799 28.1584C752.101 27.5618 752.521 27.0978 753.062 26.7663C753.602 26.4316 754.237 26.2642 754.966 26.2642C755.436 26.2642 755.881 26.3404 756.298 26.4929C756.719 26.642 757.09 26.8741 757.412 27.1889C757.737 27.5038 757.992 27.9048 758.177 28.392C758.363 28.8759 758.456 29.4527 758.456 30.1222V30.674H752.197V29.4609H756.731C756.727 29.1162 756.653 28.8097 756.507 28.5412C756.361 28.2694 756.157 28.0556 755.896 27.8999C755.637 27.7441 755.335 27.6662 754.991 27.6662C754.623 27.6662 754.3 27.7557 754.021 27.9347C753.743 28.1103 753.526 28.3423 753.37 28.6307C753.217 28.9157 753.14 29.2289 753.136 29.5703V30.6293C753.136 31.0734 753.217 31.4545 753.38 31.7727C753.542 32.0876 753.769 32.3295 754.061 32.4986C754.353 32.6643 754.694 32.7472 755.085 32.7472C755.347 32.7472 755.584 32.7107 755.796 32.6378C756.008 32.5616 756.192 32.4505 756.348 32.3047C756.504 32.1589 756.621 31.9782 756.701 31.7628L758.381 31.9517C758.275 32.3958 758.073 32.7836 757.775 33.1151C757.48 33.4432 757.102 33.6984 756.641 33.8807C756.181 34.0597 755.654 34.1491 755.06 34.1491ZM759.978 34V26.3636H761.723V27.6364H761.803C761.942 27.1955 762.181 26.8558 762.519 26.6172C762.86 26.3752 763.25 26.2543 763.687 26.2543C763.787 26.2543 763.898 26.2592 764.02 26.2692C764.146 26.2758 764.251 26.2874 764.334 26.304V27.9595C764.257 27.933 764.136 27.9098 763.971 27.8899C763.808 27.8667 763.651 27.8551 763.498 27.8551C763.17 27.8551 762.875 27.9264 762.613 28.0689C762.355 28.2081 762.151 28.402 762.002 28.6506C761.853 28.8991 761.778 29.1858 761.778 29.5107V34H759.978ZM768.595 34.1491C767.83 34.1491 767.169 33.9901 766.612 33.6719C766.058 33.3504 765.632 32.8963 765.334 32.3097C765.036 31.7197 764.887 31.0253 764.887 30.2266C764.887 29.4411 765.036 28.7517 765.334 28.1584C765.636 27.5618 766.057 27.0978 766.597 26.7663C767.137 26.4316 767.772 26.2642 768.501 26.2642C768.972 26.2642 769.416 26.3404 769.833 26.4929C770.254 26.642 770.626 26.8741 770.947 27.1889C771.272 27.5038 771.527 27.9048 771.713 28.392C771.898 28.8759 771.991 29.4527 771.991 30.1222V30.674H765.732V29.4609H770.266C770.263 29.1162 770.188 28.8097 770.042 28.5412C769.896 28.2694 769.693 28.0556 769.431 27.8999C769.172 27.7441 768.871 27.6662 768.526 27.6662C768.158 27.6662 767.835 27.7557 767.556 27.9347C767.278 28.1103 767.061 28.3423 766.905 28.6307C766.753 28.9157 766.675 29.2289 766.671 29.5703V30.6293C766.671 31.0734 766.753 31.4545 766.915 31.7727C767.077 32.0876 767.304 32.3295 767.596 32.4986C767.888 32.6643 768.229 32.7472 768.62 32.7472C768.882 32.7472 769.119 32.7107 769.331 32.6378C769.543 32.5616 769.727 32.4505 769.883 32.3047C770.039 32.1589 770.157 31.9782 770.236 31.7628L771.916 31.9517C771.81 32.3958 771.608 32.7836 771.31 33.1151C771.015 33.4432 770.637 33.6984 770.176 33.8807C769.716 34.0597 769.189 34.1491 768.595 34.1491ZM775.313 29.5256V34H773.514V26.3636H775.234V27.6612H775.323C775.499 27.2337 775.779 26.8939 776.163 26.642C776.551 26.3902 777.03 26.2642 777.6 26.2642C778.127 26.2642 778.586 26.3769 778.977 26.6023C779.372 26.8277 779.677 27.1541 779.892 27.5817C780.111 28.0092 780.219 28.5279 780.215 29.1378V34H778.416V29.4162C778.416 28.9058 778.283 28.5064 778.018 28.218C777.756 27.9297 777.393 27.7855 776.929 27.7855C776.614 27.7855 776.334 27.8551 776.089 27.9943C775.847 28.1302 775.656 28.3274 775.517 28.5859C775.381 28.8445 775.313 29.1577 775.313 29.5256ZM785.858 26.3636V27.7557H781.468V26.3636H785.858ZM782.552 24.5341H784.352V31.7031C784.352 31.9451 784.388 32.1307 784.461 32.2599C784.537 32.3859 784.637 32.4721 784.759 32.5185C784.882 32.5649 785.018 32.5881 785.167 32.5881C785.28 32.5881 785.382 32.5798 785.475 32.5632C785.571 32.5466 785.644 32.5317 785.694 32.5185L785.997 33.9254C785.901 33.9586 785.764 33.995 785.585 34.0348C785.409 34.0746 785.194 34.0978 784.938 34.1044C784.488 34.1177 784.082 34.0497 783.72 33.9006C783.359 33.7481 783.072 33.5128 782.86 33.1946C782.651 32.8764 782.549 32.4787 782.552 32.0014V24.5341Z" fill="#1D1D1F"/>
<path d="M646.93 262.818V273H645.289L640.492 266.065H640.407V273H638.563V262.818H640.213L645.006 269.759H645.096V262.818H646.93ZM652.241 273.149C651.475 273.149 650.814 272.99 650.257 272.672C649.704 272.35 649.278 271.896 648.98 271.31C648.681 270.72 648.532 270.025 648.532 269.227C648.532 268.441 648.681 267.752 648.98 267.158C649.281 266.562 649.702 266.098 650.242 265.766C650.783 265.432 651.417 265.264 652.146 265.264C652.617 265.264 653.061 265.34 653.479 265.493C653.9 265.642 654.271 265.874 654.593 266.189C654.917 266.504 655.173 266.905 655.358 267.392C655.544 267.876 655.637 268.453 655.637 269.122V269.674H649.377V268.461H653.911C653.908 268.116 653.834 267.81 653.688 267.541C653.542 267.269 653.338 267.056 653.076 266.9C652.818 266.744 652.516 266.666 652.171 266.666C651.803 266.666 651.48 266.756 651.202 266.935C650.923 267.11 650.706 267.342 650.551 267.631C650.398 267.916 650.32 268.229 650.317 268.57V269.629C650.317 270.073 650.398 270.455 650.561 270.773C650.723 271.088 650.95 271.33 651.242 271.499C651.533 271.664 651.875 271.747 652.266 271.747C652.528 271.747 652.765 271.711 652.977 271.638C653.189 271.562 653.373 271.451 653.529 271.305C653.684 271.159 653.802 270.978 653.882 270.763L655.562 270.952C655.456 271.396 655.254 271.784 654.955 272.115C654.66 272.443 654.283 272.698 653.822 272.881C653.361 273.06 652.834 273.149 652.241 273.149ZM658.694 273L656.536 265.364H658.371L659.713 270.733H659.783L661.155 265.364H662.97L664.342 270.703H664.416L665.739 265.364H667.578L665.416 273H663.541L662.11 267.839H662.005L660.573 273H658.694ZM679.129 265.364L676.409 273H674.42L671.701 265.364H673.62L675.375 271.036H675.455L677.214 265.364H679.129ZM682.353 273.154C681.869 273.154 681.433 273.068 681.045 272.896C680.661 272.72 680.356 272.461 680.13 272.12C679.908 271.779 679.797 271.358 679.797 270.857C679.797 270.426 679.877 270.07 680.036 269.788C680.195 269.507 680.412 269.281 680.687 269.112C680.962 268.943 681.272 268.816 681.617 268.729C681.965 268.64 682.324 268.575 682.696 268.536C683.143 268.489 683.506 268.448 683.784 268.411C684.063 268.371 684.265 268.312 684.391 268.232C684.52 268.149 684.585 268.022 684.585 267.849V267.82C684.585 267.445 684.474 267.155 684.252 266.95C684.03 266.744 683.71 266.641 683.292 266.641C682.851 266.641 682.502 266.737 682.243 266.93C681.988 267.122 681.816 267.349 681.726 267.611L680.046 267.372C680.178 266.908 680.397 266.52 680.702 266.209C681.007 265.894 681.38 265.659 681.821 265.503C682.261 265.344 682.749 265.264 683.282 265.264C683.65 265.264 684.016 265.307 684.381 265.393C684.746 265.48 685.079 265.622 685.38 265.821C685.682 266.017 685.924 266.283 686.106 266.621C686.292 266.96 686.385 267.382 686.385 267.889V273H684.654V271.951H684.595C684.485 272.163 684.331 272.362 684.132 272.548C683.937 272.73 683.69 272.877 683.392 272.99C683.097 273.099 682.75 273.154 682.353 273.154ZM682.82 271.832C683.181 271.832 683.494 271.76 683.76 271.618C684.025 271.472 684.229 271.28 684.371 271.041C684.517 270.803 684.59 270.542 684.59 270.261V269.361C684.533 269.407 684.437 269.45 684.301 269.49C684.169 269.53 684.02 269.565 683.854 269.594C683.688 269.624 683.524 269.651 683.362 269.674C683.199 269.697 683.059 269.717 682.939 269.734C682.671 269.77 682.431 269.83 682.218 269.913C682.006 269.996 681.839 270.112 681.716 270.261C681.594 270.406 681.532 270.595 681.532 270.827C681.532 271.159 681.653 271.409 681.895 271.578C682.137 271.747 682.445 271.832 682.82 271.832ZM689.994 262.818V273H688.194V262.818H689.994ZM696.712 269.788V265.364H698.512V273H696.767V271.643H696.687C696.515 272.07 696.231 272.42 695.837 272.692C695.446 272.964 694.963 273.099 694.39 273.099C693.89 273.099 693.447 272.988 693.063 272.766C692.682 272.541 692.383 272.214 692.168 271.787C691.952 271.356 691.845 270.836 691.845 270.226V265.364H693.644V269.947C693.644 270.431 693.777 270.816 694.042 271.101C694.307 271.386 694.655 271.528 695.086 271.528C695.351 271.528 695.608 271.464 695.857 271.335C696.105 271.205 696.309 271.013 696.468 270.758C696.631 270.499 696.712 270.176 696.712 269.788ZM703.743 273.149C702.977 273.149 702.316 272.99 701.759 272.672C701.206 272.35 700.78 271.896 700.482 271.31C700.183 270.72 700.034 270.025 700.034 269.227C700.034 268.441 700.183 267.752 700.482 267.158C700.783 266.562 701.204 266.098 701.744 265.766C702.285 265.432 702.919 265.264 703.648 265.264C704.119 265.264 704.563 265.34 704.981 265.493C705.402 265.642 705.773 265.874 706.094 266.189C706.419 266.504 706.674 266.905 706.86 267.392C707.046 267.876 707.138 268.453 707.138 269.122V269.674H700.879V268.461H705.413C705.41 268.116 705.335 267.81 705.19 267.541C705.044 267.269 704.84 267.056 704.578 266.9C704.32 266.744 704.018 266.666 703.673 266.666C703.305 266.666 702.982 266.756 702.704 266.935C702.425 267.11 702.208 267.342 702.053 267.631C701.9 267.916 701.822 268.229 701.819 268.57V269.629C701.819 270.073 701.9 270.455 702.062 270.773C702.225 271.088 702.452 271.33 702.744 271.499C703.035 271.664 703.377 271.747 703.768 271.747C704.03 271.747 704.267 271.711 704.479 271.638C704.691 271.562 704.875 271.451 705.031 271.305C705.186 271.159 705.304 270.978 705.384 270.763L707.064 270.952C706.958 271.396 706.756 271.784 706.457 272.115C706.162 272.443 705.785 272.698 705.324 272.881C704.863 273.06 704.336 273.149 703.743 273.149ZM712.134 273V265.364H713.933V273H712.134ZM713.039 264.28C712.753 264.28 712.508 264.185 712.303 263.996C712.097 263.804 711.994 263.574 711.994 263.305C711.994 263.034 712.097 262.803 712.303 262.614C712.508 262.422 712.753 262.326 713.039 262.326C713.327 262.326 713.572 262.422 713.774 262.614C713.98 262.803 714.083 263.034 714.083 263.305C714.083 263.574 713.98 263.804 713.774 263.996C713.572 264.185 713.327 264.28 713.039 264.28ZM721.82 267.382L720.179 267.561C720.133 267.395 720.051 267.24 719.935 267.094C719.823 266.948 719.67 266.83 719.478 266.741C719.286 266.651 719.05 266.607 718.772 266.607C718.397 266.607 718.083 266.688 717.827 266.85C717.576 267.013 717.451 267.223 717.455 267.482C717.451 267.704 717.532 267.884 717.698 268.023C717.867 268.163 718.146 268.277 718.533 268.366L719.836 268.645C720.558 268.801 721.095 269.048 721.447 269.386C721.801 269.724 721.98 270.166 721.984 270.713C721.98 271.194 721.839 271.618 721.561 271.986C721.286 272.35 720.903 272.635 720.413 272.841C719.922 273.046 719.359 273.149 718.722 273.149C717.788 273.149 717.035 272.954 716.465 272.562C715.895 272.168 715.555 271.62 715.446 270.917L717.201 270.748C717.281 271.093 717.45 271.353 717.708 271.528C717.967 271.704 718.303 271.792 718.717 271.792C719.145 271.792 719.488 271.704 719.746 271.528C720.008 271.353 720.139 271.136 720.139 270.877C720.139 270.658 720.055 270.478 719.886 270.335C719.72 270.193 719.461 270.083 719.11 270.007L717.808 269.734C717.075 269.581 716.533 269.324 716.182 268.963C715.83 268.598 715.656 268.138 715.66 267.581C715.656 267.11 715.784 266.703 716.043 266.358C716.304 266.01 716.667 265.741 717.131 265.553C717.599 265.36 718.137 265.264 718.747 265.264C719.642 265.264 720.346 265.455 720.86 265.836C721.377 266.217 721.697 266.732 721.82 267.382ZM730.754 265.364V266.756H726.364V265.364H730.754ZM727.447 263.534H729.247V270.703C729.247 270.945 729.284 271.131 729.357 271.26C729.433 271.386 729.532 271.472 729.655 271.518C729.777 271.565 729.913 271.588 730.062 271.588C730.175 271.588 730.278 271.58 730.371 271.563C730.467 271.547 730.54 271.532 730.589 271.518L730.893 272.925C730.797 272.959 730.659 272.995 730.48 273.035C730.304 273.075 730.089 273.098 729.834 273.104C729.383 273.118 728.977 273.05 728.616 272.901C728.254 272.748 727.968 272.513 727.756 272.195C727.547 271.876 727.444 271.479 727.447 271.001V263.534ZM734.222 268.526V273H732.423V262.818H734.183V266.661H734.272C734.451 266.23 734.728 265.891 735.102 265.642C735.48 265.39 735.961 265.264 736.544 265.264C737.075 265.264 737.537 265.375 737.931 265.597C738.326 265.819 738.631 266.144 738.846 266.572C739.065 266.999 739.174 267.521 739.174 268.138V273H737.374V268.416C737.374 267.902 737.242 267.503 736.977 267.218C736.715 266.93 736.347 266.786 735.873 266.786C735.555 266.786 735.27 266.855 735.018 266.994C734.769 267.13 734.574 267.327 734.431 267.586C734.292 267.844 734.222 268.158 734.222 268.526ZM744.389 273.149C743.624 273.149 742.963 272.99 742.406 272.672C741.852 272.35 741.426 271.896 741.128 271.31C740.83 270.72 740.681 270.025 740.681 269.227C740.681 268.441 740.83 267.752 741.128 267.158C741.43 266.562 741.851 266.098 742.391 265.766C742.931 265.432 743.566 265.264 744.295 265.264C744.766 265.264 745.21 265.34 745.627 265.493C746.048 265.642 746.419 265.874 746.741 266.189C747.066 266.504 747.321 266.905 747.507 267.392C747.692 267.876 747.785 268.453 747.785 269.122V269.674H741.526V268.461H746.06C746.057 268.116 745.982 267.81 745.836 267.541C745.69 267.269 745.486 267.056 745.225 266.9C744.966 266.744 744.664 266.666 744.32 266.666C743.952 266.666 743.629 266.756 743.35 266.935C743.072 267.11 742.855 267.342 742.699 267.631C742.547 267.916 742.469 268.229 742.465 268.57V269.629C742.465 270.073 742.547 270.455 742.709 270.773C742.871 271.088 743.098 271.33 743.39 271.499C743.682 271.664 744.023 271.747 744.414 271.747C744.676 271.747 744.913 271.711 745.125 271.638C745.337 271.562 745.521 271.451 745.677 271.305C745.833 271.159 745.95 270.978 746.03 270.763L747.71 270.952C747.604 271.396 747.402 271.784 747.104 272.115C746.809 272.443 746.431 272.698 745.97 272.881C745.51 273.06 744.983 273.149 744.389 273.149ZM758.816 267.382L757.175 267.561C757.129 267.395 757.047 267.24 756.931 267.094C756.819 266.948 756.666 266.83 756.474 266.741C756.282 266.651 756.047 266.607 755.768 266.607C755.394 266.607 755.079 266.688 754.824 266.85C754.572 267.013 754.447 267.223 754.451 267.482C754.447 267.704 754.529 267.884 754.694 268.023C754.863 268.163 755.142 268.277 755.529 268.366L756.832 268.645C757.555 268.801 758.092 269.048 758.443 269.386C758.797 269.724 758.976 270.166 758.98 270.713C758.976 271.194 758.836 271.618 758.557 271.986C758.282 272.35 757.899 272.635 757.409 272.841C756.918 273.046 756.355 273.149 755.718 273.149C754.784 273.149 754.031 272.954 753.461 272.562C752.891 272.168 752.551 271.62 752.442 270.917L754.197 270.748C754.277 271.093 754.446 271.353 754.704 271.528C754.963 271.704 755.299 271.792 755.713 271.792C756.141 271.792 756.484 271.704 756.743 271.528C757.004 271.353 757.135 271.136 757.135 270.877C757.135 270.658 757.051 270.478 756.882 270.335C756.716 270.193 756.458 270.083 756.106 270.007L754.804 269.734C754.071 269.581 753.529 269.324 753.178 268.963C752.827 268.598 752.653 268.138 752.656 267.581C752.653 267.11 752.78 266.703 753.039 266.358C753.301 266.01 753.663 265.741 754.127 265.553C754.595 265.36 755.133 265.264 755.743 265.264C756.638 265.264 757.342 265.455 757.856 265.836C758.373 266.217 758.693 266.732 758.816 267.382ZM762.661 273.154C762.177 273.154 761.741 273.068 761.354 272.896C760.969 272.72 760.664 272.461 760.439 272.12C760.217 271.779 760.106 271.358 760.106 270.857C760.106 270.426 760.185 270.07 760.344 269.788C760.504 269.507 760.721 269.281 760.996 269.112C761.271 268.943 761.581 268.816 761.925 268.729C762.273 268.64 762.633 268.575 763.004 268.536C763.452 268.489 763.815 268.448 764.093 268.411C764.371 268.371 764.574 268.312 764.7 268.232C764.829 268.149 764.893 268.022 764.893 267.849V267.82C764.893 267.445 764.782 267.155 764.56 266.95C764.338 266.744 764.018 266.641 763.601 266.641C763.16 266.641 762.81 266.737 762.552 266.93C762.297 267.122 762.124 267.349 762.035 267.611L760.354 267.372C760.487 266.908 760.706 266.52 761.011 266.209C761.316 265.894 761.688 265.659 762.129 265.503C762.57 265.344 763.057 265.264 763.591 265.264C763.959 265.264 764.325 265.307 764.69 265.393C765.054 265.48 765.387 265.622 765.689 265.821C765.991 266.017 766.232 266.283 766.415 266.621C766.6 266.96 766.693 267.382 766.693 267.889V273H764.963V271.951H764.903C764.794 272.163 764.64 272.362 764.441 272.548C764.246 272.73 763.999 272.877 763.7 272.99C763.405 273.099 763.059 273.154 762.661 273.154ZM763.129 271.832C763.49 271.832 763.803 271.76 764.068 271.618C764.333 271.472 764.537 271.28 764.68 271.041C764.826 270.803 764.898 270.542 764.898 270.261V269.361C764.842 269.407 764.746 269.45 764.61 269.49C764.478 269.53 764.328 269.565 764.163 269.594C763.997 269.624 763.833 269.651 763.67 269.674C763.508 269.697 763.367 269.717 763.248 269.734C762.979 269.77 762.739 269.83 762.527 269.913C762.315 269.996 762.147 270.112 762.025 270.261C761.902 270.406 761.841 270.595 761.841 270.827C761.841 271.159 761.962 271.409 762.204 271.578C762.446 271.747 762.754 271.832 763.129 271.832ZM768.503 273V265.364H770.223V266.661H770.312C770.472 266.224 770.735 265.882 771.103 265.637C771.471 265.388 771.91 265.264 772.42 265.264C772.938 265.264 773.373 265.39 773.728 265.642C774.086 265.891 774.338 266.23 774.484 266.661H774.563C774.732 266.237 775.017 265.899 775.418 265.647C775.823 265.392 776.302 265.264 776.855 265.264C777.558 265.264 778.131 265.486 778.575 265.93C779.019 266.375 779.241 267.022 779.241 267.874V273H777.437V268.153C777.437 267.679 777.311 267.332 777.059 267.114C776.807 266.892 776.499 266.781 776.134 266.781C775.7 266.781 775.36 266.916 775.115 267.188C774.873 267.457 774.752 267.806 774.752 268.237V273H772.987V268.078C772.987 267.684 772.868 267.369 772.629 267.134C772.394 266.898 772.086 266.781 771.705 266.781C771.446 266.781 771.211 266.847 770.999 266.979C770.786 267.109 770.617 267.293 770.491 267.531C770.366 267.767 770.303 268.042 770.303 268.357V273H768.503ZM784.448 273.149C783.682 273.149 783.021 272.99 782.464 272.672C781.911 272.35 781.485 271.896 781.187 271.31C780.888 270.72 780.739 270.025 780.739 269.227C780.739 268.441 780.888 267.752 781.187 267.158C781.488 266.562 781.909 266.098 782.449 265.766C782.99 265.432 783.624 265.264 784.354 265.264C784.824 265.264 785.268 265.34 785.686 265.493C786.107 265.642 786.478 265.874 786.8 266.189C787.124 266.504 787.38 266.905 787.565 267.392C787.751 267.876 787.844 268.453 787.844 269.122V269.674H781.584V268.461H786.118C786.115 268.116 786.041 267.81 785.895 267.541C785.749 267.269 785.545 267.056 785.283 266.9C785.025 266.744 784.723 266.666 784.378 266.666C784.01 266.666 783.687 266.756 783.409 266.935C783.131 267.11 782.913 267.342 782.758 267.631C782.605 267.916 782.527 268.229 782.524 268.57V269.629C782.524 270.073 782.605 270.455 782.768 270.773C782.93 271.088 783.157 271.33 783.449 271.499C783.74 271.664 784.082 271.747 784.473 271.747C784.735 271.747 784.972 271.711 785.184 271.638C785.396 271.562 785.58 271.451 785.736 271.305C785.891 271.159 786.009 270.978 786.089 270.763L787.769 270.952C787.663 271.396 787.461 271.784 787.162 272.115C786.867 272.443 786.49 272.698 786.029 272.881C785.568 273.06 785.041 273.149 784.448 273.149Z" fill="#1D1D1F"/>
<path d="M352.5 148H252.5" stroke="#CC8800" stroke-width="2"/>
<path d="M303.207 148.707C303.598 148.317 303.598 147.683 303.207 147.293L296.843 140.929C296.453 140.538 295.819 140.538 295.429 140.929C295.038 141.319 295.038 141.953 295.429 142.343L301.086 148L295.429 153.657C295.038 154.047 295.038 154.681 295.429 155.071C295.819 155.462 296.453 155.462 296.843 155.071L303.207 148.707ZM302.5 147H252.5V149H302.5V147Z" fill="#CC8800"/>
<path d="M596.5 78V77H595.5V78H596.5ZM596.5 219H595.5V220H596.5V219ZM596.5 147H546.5V149H596.5V147ZM597.5 148V78H595.5V148H597.5ZM596.5 79H646.5V77H596.5V79ZM595.5 148V219H597.5V148H595.5ZM596.5 220H676.5V218H596.5V220Z" fill="#CC8800"/>
<path d="M597.207 112.293C596.817 111.902 596.183 111.902 595.793 112.293L589.429 118.657C589.038 119.047 589.038 119.681 589.429 120.071C589.819 120.462 590.453 120.462 590.843 120.071L596.5 114.414L602.157 120.071C602.547 120.462 603.181 120.462 603.571 120.071C603.962 119.681 603.962 119.047 603.571 118.657L597.207 112.293ZM595.793 184.207C596.183 184.598 596.817 184.598 597.207 184.207L603.571 177.843C603.962 177.453 603.962 176.819 603.571 176.429C603.181 176.038 602.547 176.038 602.157 176.429L596.5 182.086L590.843 176.429C590.453 176.038 589.819 176.038 589.429 176.429C589.038 176.819 589.038 177.453 589.429 177.843L595.793 184.207ZM595.5 113V183.5H597.5V113H595.5Z" fill="#CC8800"/>
<rect width="194" height="35" transform="translate(352.5 130)" fill="#CC8800"/>
<path d="M370.533 143.273V152H369.126L365.014 146.055H364.942V152H363.361V143.273H364.776L368.884 149.222H368.96V143.273H370.533ZM375.085 152.128C374.429 152.128 373.862 151.991 373.385 151.719C372.91 151.443 372.545 151.054 372.289 150.551C372.034 150.045 371.906 149.45 371.906 148.766C371.906 148.092 372.034 147.501 372.289 146.993C372.548 146.482 372.909 146.084 373.372 145.8C373.835 145.513 374.379 145.369 375.004 145.369C375.407 145.369 375.788 145.435 376.146 145.565C376.507 145.693 376.825 145.892 377.1 146.162C377.379 146.432 377.598 146.776 377.757 147.193C377.916 147.608 377.995 148.102 377.995 148.676V149.149H372.63V148.109H376.517C376.514 147.814 376.45 147.551 376.325 147.321C376.2 147.088 376.025 146.905 375.801 146.771C375.579 146.638 375.321 146.571 375.025 146.571C374.71 146.571 374.433 146.648 374.194 146.801C373.956 146.952 373.77 147.151 373.636 147.398C373.505 147.642 373.439 147.911 373.436 148.203V149.111C373.436 149.491 373.505 149.818 373.645 150.091C373.784 150.361 373.978 150.568 374.228 150.713C374.478 150.855 374.771 150.926 375.106 150.926C375.331 150.926 375.534 150.895 375.716 150.832C375.897 150.767 376.055 150.672 376.189 150.547C376.322 150.422 376.423 150.267 376.491 150.082L377.931 150.244C377.841 150.625 377.667 150.957 377.412 151.241C377.159 151.523 376.835 151.741 376.44 151.898C376.045 152.051 375.593 152.128 375.085 152.128ZM380.616 152L378.767 145.455H380.339L381.49 150.057H381.549L382.725 145.455H384.281L385.457 150.031H385.521L386.654 145.455H388.231L386.377 152H384.771L383.544 147.577H383.454L382.227 152H380.616ZM398.131 145.455L395.8 152H394.096L391.765 145.455H393.41L394.914 150.317H394.982L396.491 145.455H398.131ZM400.895 152.132C400.48 152.132 400.107 152.058 399.774 151.911C399.445 151.76 399.183 151.538 398.99 151.246C398.8 150.953 398.705 150.592 398.705 150.163C398.705 149.794 398.773 149.489 398.909 149.247C399.045 149.006 399.232 148.812 399.467 148.668C399.703 148.523 399.969 148.413 400.264 148.339C400.563 148.263 400.871 148.207 401.189 148.173C401.572 148.134 401.884 148.098 402.122 148.067C402.361 148.033 402.534 147.982 402.642 147.913C402.753 147.842 402.808 147.733 402.808 147.585V147.56C402.808 147.239 402.713 146.99 402.523 146.814C402.332 146.638 402.058 146.55 401.7 146.55C401.322 146.55 401.023 146.632 400.801 146.797C400.582 146.962 400.435 147.156 400.358 147.381L398.918 147.176C399.031 146.778 399.219 146.446 399.48 146.179C399.741 145.909 400.061 145.707 400.439 145.574C400.817 145.438 401.234 145.369 401.692 145.369C402.007 145.369 402.321 145.406 402.634 145.48C402.946 145.554 403.232 145.676 403.49 145.847C403.749 146.014 403.956 146.243 404.112 146.533C404.271 146.822 404.351 147.185 404.351 147.619V152H402.868V151.101H402.817C402.723 151.283 402.591 151.453 402.42 151.612C402.253 151.768 402.041 151.895 401.786 151.991C401.533 152.085 401.236 152.132 400.895 152.132ZM401.295 150.999C401.605 150.999 401.874 150.937 402.101 150.815C402.328 150.69 402.503 150.526 402.625 150.321C402.75 150.116 402.812 149.893 402.812 149.652V148.881C402.764 148.92 402.682 148.957 402.565 148.991C402.452 149.026 402.324 149.055 402.182 149.081C402.04 149.107 401.899 149.129 401.76 149.149C401.621 149.169 401.5 149.186 401.398 149.2C401.168 149.232 400.962 149.283 400.78 149.354C400.598 149.425 400.455 149.524 400.349 149.652C400.244 149.777 400.192 149.939 400.192 150.138C400.192 150.422 400.295 150.636 400.503 150.781C400.71 150.926 400.974 150.999 401.295 150.999ZM407.445 143.273V152H405.902V143.273H407.445ZM413.203 149.247V145.455H414.745V152H413.25V150.837H413.181C413.034 151.203 412.791 151.503 412.453 151.736C412.118 151.969 411.704 152.085 411.213 152.085C410.784 152.085 410.404 151.99 410.075 151.8C409.748 151.607 409.493 151.327 409.308 150.96C409.123 150.591 409.031 150.145 409.031 149.622V145.455H410.574V149.384C410.574 149.798 410.687 150.128 410.914 150.372C411.142 150.616 411.44 150.739 411.809 150.739C412.037 150.739 412.257 150.683 412.47 150.572C412.683 150.462 412.858 150.297 412.994 150.078C413.133 149.857 413.203 149.58 413.203 149.247ZM419.229 152.128C418.573 152.128 418.006 151.991 417.529 151.719C417.055 151.443 416.69 151.054 416.434 150.551C416.178 150.045 416.05 149.45 416.05 148.766C416.05 148.092 416.178 147.501 416.434 146.993C416.692 146.482 417.053 146.084 417.516 145.8C417.979 145.513 418.523 145.369 419.148 145.369C419.552 145.369 419.933 145.435 420.29 145.565C420.651 145.693 420.969 145.892 421.245 146.162C421.523 146.432 421.742 146.776 421.901 147.193C422.06 147.608 422.14 148.102 422.14 148.676V149.149H416.775V148.109H420.661C420.658 147.814 420.594 147.551 420.469 147.321C420.344 147.088 420.17 146.905 419.945 146.771C419.724 146.638 419.465 146.571 419.17 146.571C418.854 146.571 418.577 146.648 418.339 146.801C418.1 146.952 417.914 147.151 417.781 147.398C417.65 147.642 417.583 147.911 417.58 148.203V149.111C417.58 149.491 417.65 149.818 417.789 150.091C417.928 150.361 418.123 150.568 418.373 150.713C418.623 150.855 418.915 150.926 419.251 150.926C419.475 150.926 419.678 150.895 419.86 150.832C420.042 150.767 420.2 150.672 420.333 150.547C420.467 150.422 420.567 150.267 420.636 150.082L422.076 150.244C421.985 150.625 421.812 150.957 421.556 151.241C421.303 151.523 420.979 151.741 420.585 151.898C420.19 152.051 419.738 152.128 419.229 152.128ZM426.831 147.832V146.516H432.502V147.832H426.831ZM426.831 150.56V149.243H432.502V150.56H426.831ZM434.905 147.832V146.516H440.577V147.832H434.905ZM434.905 150.56V149.243H440.577V150.56H434.905ZM445.547 154.455V145.455H447.064V146.537H447.153C447.233 146.378 447.345 146.209 447.49 146.03C447.635 145.848 447.831 145.693 448.078 145.565C448.325 145.435 448.64 145.369 449.024 145.369C449.529 145.369 449.985 145.499 450.392 145.757C450.801 146.013 451.125 146.392 451.363 146.895C451.605 147.395 451.725 148.009 451.725 148.736C451.725 149.455 451.608 150.065 451.372 150.568C451.136 151.071 450.815 151.455 450.409 151.719C450.002 151.983 449.542 152.115 449.028 152.115C448.653 152.115 448.342 152.053 448.095 151.928C447.848 151.803 447.649 151.652 447.498 151.476C447.35 151.297 447.235 151.128 447.153 150.969H447.089V154.455H445.547ZM447.059 148.727C447.059 149.151 447.119 149.521 447.238 149.839C447.36 150.158 447.535 150.406 447.762 150.585C447.993 150.761 448.271 150.849 448.598 150.849C448.939 150.849 449.224 150.759 449.454 150.577C449.684 150.392 449.858 150.141 449.974 149.822C450.093 149.501 450.153 149.136 450.153 148.727C450.153 148.321 450.095 147.96 449.978 147.645C449.862 147.33 449.689 147.082 449.458 146.903C449.228 146.724 448.941 146.635 448.598 146.635C448.268 146.635 447.988 146.722 447.758 146.895C447.528 147.068 447.353 147.311 447.234 147.624C447.118 147.936 447.059 148.304 447.059 148.727ZM453.047 152V145.455H454.542V146.545H454.61C454.73 146.168 454.934 145.876 455.224 145.672C455.517 145.464 455.85 145.361 456.225 145.361C456.311 145.361 456.406 145.365 456.511 145.374C456.619 145.379 456.708 145.389 456.779 145.403V146.822C456.714 146.8 456.61 146.78 456.468 146.763C456.329 146.743 456.194 146.733 456.064 146.733C455.782 146.733 455.529 146.794 455.305 146.916C455.083 147.036 454.909 147.202 454.781 147.415C454.653 147.628 454.589 147.874 454.589 148.152V152H453.047ZM460.433 152.128C459.776 152.128 459.21 151.991 458.732 151.719C458.258 151.443 457.893 151.054 457.637 150.551C457.381 150.045 457.254 149.45 457.254 148.766C457.254 148.092 457.381 147.501 457.637 146.993C457.896 146.482 458.256 146.084 458.719 145.8C459.183 145.513 459.727 145.369 460.352 145.369C460.755 145.369 461.136 145.435 461.494 145.565C461.854 145.693 462.173 145.892 462.448 146.162C462.727 146.432 462.945 146.776 463.104 147.193C463.263 147.608 463.343 148.102 463.343 148.676V149.149H457.978V148.109H461.864C461.862 147.814 461.798 147.551 461.673 147.321C461.548 147.088 461.373 146.905 461.148 146.771C460.927 146.638 460.668 146.571 460.373 146.571C460.058 146.571 459.781 146.648 459.542 146.801C459.303 146.952 459.117 147.151 458.984 147.398C458.853 147.642 458.786 147.911 458.783 148.203V149.111C458.783 149.491 458.853 149.818 458.992 150.091C459.131 150.361 459.326 150.568 459.576 150.713C459.826 150.855 460.119 150.926 460.454 150.926C460.678 150.926 460.881 150.895 461.063 150.832C461.245 150.767 461.403 150.672 461.536 150.547C461.67 150.422 461.771 150.267 461.839 150.082L463.279 150.244C463.188 150.625 463.015 150.957 462.759 151.241C462.506 151.523 462.183 151.741 461.788 151.898C461.393 152.051 460.941 152.128 460.433 152.128ZM470.307 145.455L467.976 152H466.272L463.941 145.455H465.586L467.09 150.317H467.158L468.667 145.455H470.307ZM471.375 152V145.455H472.917V152H471.375ZM472.15 144.526C471.906 144.526 471.696 144.445 471.52 144.283C471.343 144.118 471.255 143.92 471.255 143.69C471.255 143.457 471.343 143.26 471.52 143.098C471.696 142.933 471.906 142.851 472.15 142.851C472.397 142.851 472.608 142.933 472.781 143.098C472.957 143.26 473.045 143.457 473.045 143.69C473.045 143.92 472.957 144.118 472.781 144.283C472.608 144.445 472.397 144.526 472.15 144.526ZM477.359 152.128C476.719 152.128 476.165 151.987 475.697 151.706C475.228 151.425 474.864 151.031 474.606 150.526C474.35 150.02 474.222 149.429 474.222 148.753C474.222 148.077 474.35 147.484 474.606 146.976C474.864 146.467 475.228 146.072 475.697 145.791C476.165 145.51 476.719 145.369 477.359 145.369C477.998 145.369 478.552 145.51 479.021 145.791C479.489 146.072 479.852 146.467 480.107 146.976C480.366 147.484 480.495 148.077 480.495 148.753C480.495 149.429 480.366 150.02 480.107 150.526C479.852 151.031 479.489 151.425 479.021 151.706C478.552 151.987 477.998 152.128 477.359 152.128ZM477.367 150.892C477.714 150.892 478.004 150.797 478.237 150.607C478.469 150.413 478.643 150.155 478.756 149.831C478.873 149.507 478.931 149.146 478.931 148.749C478.931 148.348 478.873 147.986 478.756 147.662C478.643 147.335 478.469 147.075 478.237 146.882C478.004 146.689 477.714 146.592 477.367 146.592C477.012 146.592 476.717 146.689 476.481 146.882C476.248 147.075 476.073 147.335 475.957 147.662C475.843 147.986 475.786 148.348 475.786 148.749C475.786 149.146 475.843 149.507 475.957 149.831C476.073 150.155 476.248 150.413 476.481 150.607C476.717 150.797 477.012 150.892 477.367 150.892ZM485.976 149.247V145.455H487.519V152H486.023V150.837H485.955C485.807 151.203 485.564 151.503 485.226 151.736C484.891 151.969 484.478 152.085 483.986 152.085C483.557 152.085 483.178 151.99 482.848 151.8C482.522 151.607 482.266 151.327 482.081 150.96C481.897 150.591 481.804 150.145 481.804 149.622V145.455H483.347V149.384C483.347 149.798 483.461 150.128 483.688 150.372C483.915 150.616 484.213 150.739 484.583 150.739C484.81 150.739 485.03 150.683 485.243 150.572C485.456 150.462 485.631 150.297 485.767 150.078C485.907 149.857 485.976 149.58 485.976 149.247ZM494.278 147.185L492.872 147.338C492.832 147.196 492.763 147.062 492.663 146.938C492.567 146.812 492.436 146.712 492.271 146.635C492.107 146.558 491.905 146.52 491.666 146.52C491.345 146.52 491.075 146.589 490.857 146.729C490.641 146.868 490.534 147.048 490.537 147.27C490.534 147.46 490.604 147.615 490.746 147.734C490.891 147.854 491.129 147.952 491.462 148.028L492.578 148.267C493.197 148.401 493.658 148.612 493.959 148.902C494.263 149.192 494.416 149.571 494.419 150.04C494.416 150.452 494.295 150.815 494.057 151.131C493.821 151.443 493.493 151.687 493.072 151.864C492.652 152.04 492.169 152.128 491.624 152.128C490.822 152.128 490.178 151.96 489.689 151.625C489.2 151.287 488.909 150.817 488.815 150.214L490.32 150.07C490.388 150.365 490.533 150.588 490.754 150.739C490.976 150.889 491.264 150.964 491.619 150.964C491.986 150.964 492.28 150.889 492.501 150.739C492.726 150.588 492.838 150.402 492.838 150.18C492.838 149.993 492.766 149.838 492.621 149.716C492.479 149.594 492.257 149.5 491.956 149.435L490.839 149.2C490.212 149.07 489.747 148.849 489.446 148.54C489.145 148.227 488.996 147.832 488.999 147.355C488.996 146.952 489.105 146.602 489.327 146.307C489.551 146.009 489.862 145.778 490.26 145.616C490.661 145.452 491.122 145.369 491.645 145.369C492.412 145.369 493.016 145.533 493.456 145.859C493.899 146.186 494.173 146.628 494.278 147.185ZM504.514 145.455L502.183 152H500.479L498.148 145.455H499.793L501.297 150.317H501.365L502.874 145.455H504.514ZM507.278 152.132C506.863 152.132 506.489 152.058 506.157 151.911C505.827 151.76 505.566 151.538 505.373 151.246C505.183 150.953 505.087 150.592 505.087 150.163C505.087 149.794 505.156 149.489 505.292 149.247C505.428 149.006 505.614 148.812 505.85 148.668C506.086 148.523 506.352 148.413 506.647 148.339C506.945 148.263 507.254 148.207 507.572 148.173C507.955 148.134 508.266 148.098 508.505 148.067C508.744 148.033 508.917 147.982 509.025 147.913C509.136 147.842 509.191 147.733 509.191 147.585V147.56C509.191 147.239 509.096 146.99 508.906 146.814C508.715 146.638 508.441 146.55 508.083 146.55C507.705 146.55 507.406 146.632 507.184 146.797C506.965 146.962 506.817 147.156 506.741 147.381L505.3 147.176C505.414 146.778 505.602 146.446 505.863 146.179C506.124 145.909 506.444 145.707 506.822 145.574C507.2 145.438 507.617 145.369 508.075 145.369C508.39 145.369 508.704 145.406 509.016 145.48C509.329 145.554 509.614 145.676 509.873 145.847C510.131 146.014 510.339 146.243 510.495 146.533C510.654 146.822 510.734 147.185 510.734 147.619V152H509.251V151.101H509.2C509.106 151.283 508.974 151.453 508.803 151.612C508.636 151.768 508.424 151.895 508.168 151.991C507.915 152.085 507.619 152.132 507.278 152.132ZM507.678 150.999C507.988 150.999 508.256 150.937 508.484 150.815C508.711 150.69 508.886 150.526 509.008 150.321C509.133 150.116 509.195 149.893 509.195 149.652V148.881C509.147 148.92 509.065 148.957 508.948 148.991C508.835 149.026 508.707 149.055 508.565 149.081C508.423 149.107 508.282 149.129 508.143 149.149C508.004 149.169 507.883 149.186 507.781 149.2C507.55 149.232 507.344 149.283 507.163 149.354C506.981 149.425 506.837 149.524 506.732 149.652C506.627 149.777 506.575 149.939 506.575 150.138C506.575 150.422 506.678 150.636 506.886 150.781C507.093 150.926 507.357 150.999 507.678 150.999ZM513.827 143.273V152H512.285V143.273H513.827ZM519.586 149.247V145.455H521.128V152H519.632V150.837H519.564C519.417 151.203 519.174 151.503 518.836 151.736C518.5 151.969 518.087 152.085 517.596 152.085C517.167 152.085 516.787 151.99 516.458 151.8C516.131 151.607 515.875 151.327 515.691 150.96C515.506 150.591 515.414 150.145 515.414 149.622V145.455H516.956V149.384C516.956 149.798 517.07 150.128 517.297 150.372C517.525 150.616 517.823 150.739 518.192 150.739C518.419 150.739 518.64 150.683 518.853 150.572C519.066 150.462 519.24 150.297 519.377 150.078C519.516 149.857 519.586 149.58 519.586 149.247ZM525.612 152.128C524.956 152.128 524.389 151.991 523.912 151.719C523.438 151.443 523.072 151.054 522.817 150.551C522.561 150.045 522.433 149.45 522.433 148.766C522.433 148.092 522.561 147.501 522.817 146.993C523.075 146.482 523.436 146.084 523.899 145.8C524.362 145.513 524.906 145.369 525.531 145.369C525.935 145.369 526.315 145.435 526.673 145.565C527.034 145.693 527.352 145.892 527.628 146.162C527.906 146.432 528.125 146.776 528.284 147.193C528.443 147.608 528.523 148.102 528.523 148.676V149.149H523.158V148.109H527.044C527.041 147.814 526.977 147.551 526.852 147.321C526.727 147.088 526.553 146.905 526.328 146.771C526.107 146.638 525.848 146.571 525.553 146.571C525.237 146.571 524.96 146.648 524.722 146.801C524.483 146.952 524.297 147.151 524.163 147.398C524.033 147.642 523.966 147.911 523.963 148.203V149.111C523.963 149.491 524.033 149.818 524.172 150.091C524.311 150.361 524.506 150.568 524.756 150.713C525.006 150.855 525.298 150.926 525.634 150.926C525.858 150.926 526.061 150.895 526.243 150.832C526.425 150.767 526.582 150.672 526.716 150.547C526.849 150.422 526.95 150.267 527.018 150.082L528.459 150.244C528.368 150.625 528.195 150.957 527.939 151.241C527.686 151.523 527.362 151.741 526.967 151.898C526.572 152.051 526.121 152.128 525.612 152.128ZM531.302 149.435V149.324C531.305 148.81 531.353 148.401 531.447 148.097C531.544 147.793 531.68 147.548 531.856 147.364C532.032 147.176 532.247 147.004 532.5 146.848C532.673 146.74 532.828 146.622 532.964 146.494C533.103 146.364 533.213 146.219 533.292 146.06C533.372 145.898 533.412 145.717 533.412 145.518C533.412 145.294 533.359 145.099 533.254 144.935C533.149 144.77 533.007 144.642 532.828 144.551C532.652 144.46 532.454 144.415 532.235 144.415C532.034 144.415 531.842 144.459 531.66 144.547C531.481 144.632 531.332 144.763 531.213 144.939C531.096 145.112 531.031 145.332 531.017 145.599H529.5C529.514 145.06 529.645 144.608 529.892 144.244C530.142 143.881 530.471 143.608 530.88 143.426C531.292 143.244 531.747 143.153 532.244 143.153C532.787 143.153 533.264 143.249 533.676 143.439C534.091 143.629 534.413 143.901 534.643 144.253C534.876 144.602 534.993 145.017 534.993 145.497C534.993 145.821 534.94 146.111 534.835 146.366C534.733 146.622 534.586 146.849 534.396 147.048C534.206 147.247 533.98 147.425 533.718 147.581C533.488 147.723 533.299 147.871 533.152 148.024C533.007 148.178 532.899 148.358 532.828 148.565C532.76 148.77 532.724 149.023 532.721 149.324V149.435H531.302ZM532.044 152.094C531.788 152.094 531.568 152.003 531.383 151.821C531.199 151.639 531.106 151.418 531.106 151.156C531.106 150.901 531.199 150.682 531.383 150.5C531.568 150.318 531.788 150.227 532.044 150.227C532.297 150.227 532.515 150.318 532.7 150.5C532.887 150.682 532.981 150.901 532.981 151.156C532.981 151.33 532.937 151.487 532.849 151.629C532.764 151.771 532.65 151.885 532.508 151.97C532.369 152.053 532.214 152.094 532.044 152.094Z" fill="#F8F8FA"/>
<rect width="84" height="35" transform="translate(676.5 201)" fill="#CC8800"/>
<path d="M690.318 223H687.361V214.273H690.378C691.244 214.273 691.989 214.447 692.611 214.797C693.236 215.143 693.716 215.642 694.051 216.293C694.386 216.943 694.554 217.722 694.554 218.628C694.554 219.537 694.385 220.318 694.047 220.972C693.712 221.625 693.227 222.126 692.594 222.476C691.963 222.825 691.205 223 690.318 223ZM688.942 221.632H690.241C690.849 221.632 691.357 221.521 691.763 221.3C692.169 221.075 692.474 220.741 692.679 220.298C692.884 219.852 692.986 219.295 692.986 218.628C692.986 217.96 692.884 217.406 692.679 216.966C692.474 216.523 692.172 216.192 691.771 215.973C691.374 215.751 690.879 215.641 690.288 215.641H688.942V221.632ZM698.843 223.128C698.204 223.128 697.65 222.987 697.181 222.706C696.712 222.425 696.349 222.031 696.09 221.526C695.835 221.02 695.707 220.429 695.707 219.753C695.707 219.077 695.835 218.484 696.09 217.976C696.349 217.467 696.712 217.072 697.181 216.791C697.65 216.51 698.204 216.369 698.843 216.369C699.482 216.369 700.036 216.51 700.505 216.791C700.974 217.072 701.336 217.467 701.592 217.976C701.85 218.484 701.979 219.077 701.979 219.753C701.979 220.429 701.85 221.02 701.592 221.526C701.336 222.031 700.974 222.425 700.505 222.706C700.036 222.987 699.482 223.128 698.843 223.128ZM698.852 221.892C699.198 221.892 699.488 221.797 699.721 221.607C699.954 221.413 700.127 221.155 700.241 220.831C700.357 220.507 700.415 220.146 700.415 219.749C700.415 219.348 700.357 218.986 700.241 218.662C700.127 218.335 699.954 218.075 699.721 217.882C699.488 217.689 699.198 217.592 698.852 217.592C698.496 217.592 698.201 217.689 697.965 217.882C697.732 218.075 697.558 218.335 697.441 218.662C697.327 218.986 697.271 219.348 697.271 219.749C697.271 220.146 697.327 220.507 697.441 220.831C697.558 221.155 697.732 221.413 697.965 221.607C698.201 221.797 698.496 221.892 698.852 221.892ZM707.808 219.165V223H706.265V216.455H707.74V217.567H707.816C707.967 217.2 708.207 216.909 708.537 216.693C708.869 216.477 709.279 216.369 709.768 216.369C710.22 216.369 710.613 216.466 710.949 216.659C711.287 216.852 711.548 217.132 711.733 217.499C711.92 217.865 712.012 218.31 712.01 218.832V223H710.467V219.071C710.467 218.634 710.353 218.291 710.126 218.044C709.902 217.797 709.591 217.673 709.193 217.673C708.923 217.673 708.683 217.733 708.473 217.852C708.265 217.969 708.102 218.138 707.983 218.359C707.866 218.581 707.808 218.849 707.808 219.165ZM716.433 223.128C715.794 223.128 715.24 222.987 714.771 222.706C714.302 222.425 713.939 222.031 713.68 221.526C713.424 221.02 713.297 220.429 713.297 219.753C713.297 219.077 713.424 218.484 713.68 217.976C713.939 217.467 714.302 217.072 714.771 216.791C715.24 216.51 715.794 216.369 716.433 216.369C717.072 216.369 717.626 216.51 718.095 216.791C718.564 217.072 718.926 217.467 719.181 217.976C719.44 218.484 719.569 219.077 719.569 219.753C719.569 220.429 719.44 221.02 719.181 221.526C718.926 222.031 718.564 222.425 718.095 222.706C717.626 222.987 717.072 223.128 716.433 223.128ZM716.441 221.892C716.788 221.892 717.078 221.797 717.311 221.607C717.544 221.413 717.717 221.155 717.831 220.831C717.947 220.507 718.005 220.146 718.005 219.749C718.005 219.348 717.947 218.986 717.831 218.662C717.717 218.335 717.544 218.075 717.311 217.882C717.078 217.689 716.788 217.592 716.441 217.592C716.086 217.592 715.791 217.689 715.555 217.882C715.322 218.075 715.147 218.335 715.031 218.662C714.917 218.986 714.86 219.348 714.86 219.749C714.86 220.146 714.917 220.507 715.031 220.831C715.147 221.155 715.322 221.413 715.555 221.607C715.791 221.797 716.086 221.892 716.441 221.892ZM724.147 216.455V217.648H720.384V216.455H724.147ZM721.313 214.886H722.856V221.031C722.856 221.239 722.887 221.398 722.95 221.509C723.015 221.616 723.1 221.69 723.205 221.73C723.31 221.77 723.427 221.79 723.555 221.79C723.651 221.79 723.739 221.783 723.819 221.768C723.901 221.754 723.964 221.741 724.006 221.73L724.266 222.936C724.184 222.964 724.066 222.996 723.913 223.03C723.762 223.064 723.577 223.084 723.359 223.089C722.972 223.101 722.624 223.043 722.315 222.915C722.005 222.784 721.759 222.582 721.577 222.31C721.398 222.037 721.31 221.696 721.313 221.287V214.886ZM727.12 219.165V223H725.578V214.273H727.086V217.567H727.163C727.316 217.197 727.554 216.906 727.875 216.693C728.199 216.477 728.61 216.369 729.11 216.369C729.565 216.369 729.961 216.464 730.299 216.655C730.637 216.845 730.899 217.124 731.083 217.49C731.271 217.857 731.365 218.304 731.365 218.832V223H729.822V219.071C729.822 218.631 729.708 218.288 729.481 218.044C729.257 217.797 728.941 217.673 728.535 217.673C728.262 217.673 728.018 217.733 727.802 217.852C727.589 217.969 727.422 218.138 727.299 218.359C727.18 218.581 727.12 218.849 727.12 219.165ZM732.937 223V216.455H734.48V223H732.937ZM733.713 215.526C733.468 215.526 733.258 215.445 733.082 215.283C732.906 215.118 732.818 214.92 732.818 214.69C732.818 214.457 732.906 214.26 733.082 214.098C733.258 213.933 733.468 213.851 733.713 213.851C733.96 213.851 734.17 213.933 734.343 214.098C734.52 214.26 734.608 214.457 734.608 214.69C734.608 214.92 734.52 215.118 734.343 215.283C734.17 215.445 733.96 215.526 733.713 215.526ZM737.609 219.165V223H736.066V216.455H737.54V217.567H737.617C737.768 217.2 738.008 216.909 738.337 216.693C738.67 216.477 739.08 216.369 739.569 216.369C740.021 216.369 740.414 216.466 740.749 216.659C741.087 216.852 741.349 217.132 741.533 217.499C741.721 217.865 741.813 218.31 741.81 218.832V223H740.268V219.071C740.268 218.634 740.154 218.291 739.927 218.044C739.702 217.797 739.391 217.673 738.994 217.673C738.724 217.673 738.484 217.733 738.273 217.852C738.066 217.969 737.903 218.138 737.783 218.359C737.667 218.581 737.609 218.849 737.609 219.165ZM746.225 225.591C745.671 225.591 745.195 225.516 744.798 225.365C744.4 225.217 744.08 225.018 743.839 224.768C743.597 224.518 743.43 224.241 743.336 223.938L744.725 223.601C744.788 223.729 744.879 223.855 744.998 223.98C745.117 224.108 745.278 224.213 745.479 224.295C745.684 224.381 745.941 224.423 746.251 224.423C746.688 224.423 747.05 224.317 747.337 224.104C747.624 223.893 747.768 223.547 747.768 223.064V221.824H747.691C747.612 221.983 747.495 222.146 747.342 222.314C747.191 222.482 746.991 222.622 746.741 222.736C746.494 222.849 746.183 222.906 745.808 222.906C745.305 222.906 744.849 222.788 744.44 222.553C744.033 222.314 743.71 221.959 743.468 221.487C743.229 221.013 743.11 220.419 743.11 219.706C743.11 218.987 743.229 218.381 743.468 217.886C743.71 217.389 744.035 217.013 744.444 216.757C744.853 216.499 745.309 216.369 745.812 216.369C746.195 216.369 746.511 216.435 746.758 216.565C747.008 216.693 747.207 216.848 747.354 217.03C747.502 217.209 747.614 217.378 747.691 217.537H747.776V216.455H749.298V223.107C749.298 223.666 749.164 224.129 748.897 224.496C748.63 224.862 748.265 225.136 747.802 225.318C747.339 225.5 746.813 225.591 746.225 225.591ZM746.238 221.696C746.565 221.696 746.843 221.616 747.073 221.457C747.303 221.298 747.478 221.07 747.597 220.771C747.717 220.473 747.776 220.115 747.776 219.697C747.776 219.286 747.717 218.925 747.597 218.615C747.481 218.305 747.308 218.065 747.077 217.895C746.85 217.722 746.57 217.635 746.238 217.635C745.894 217.635 745.607 217.724 745.377 217.903C745.147 218.082 744.974 218.328 744.857 218.641C744.741 218.95 744.683 219.303 744.683 219.697C744.683 220.098 744.741 220.449 744.857 220.75C744.977 221.048 745.151 221.281 745.381 221.449C745.614 221.614 745.9 221.696 746.238 221.696Z" fill="#F8F8FA"/>
<rect width="133" height="35" transform="translate(646.5 60)" fill="#CC8800"/>
<path d="M662.104 75.6719C662.064 75.2997 661.896 75.0099 661.601 74.8026C661.308 74.5952 660.928 74.4915 660.459 74.4915C660.129 74.4915 659.847 74.5412 659.611 74.6406C659.375 74.7401 659.195 74.875 659.07 75.0455C658.945 75.2159 658.881 75.4105 658.878 75.6293C658.878 75.8111 658.919 75.9687 659.001 76.1023C659.087 76.2358 659.202 76.3494 659.347 76.4432C659.491 76.5341 659.652 76.6108 659.828 76.6733C660.004 76.7358 660.182 76.7884 660.361 76.831L661.179 77.0355C661.509 77.1122 661.825 77.2159 662.129 77.3466C662.436 77.4773 662.71 77.642 662.952 77.8409C663.196 78.0398 663.389 78.2798 663.531 78.5611C663.673 78.8423 663.744 79.1719 663.744 79.5497C663.744 80.0611 663.614 80.5114 663.352 80.9006C663.091 81.2869 662.713 81.5895 662.219 81.8082C661.727 82.0241 661.132 82.1321 660.433 82.1321C659.754 82.1321 659.165 82.027 658.665 81.8168C658.168 81.6065 657.778 81.2997 657.497 80.8963C657.219 80.4929 657.068 80.0014 657.045 79.4219H658.601C658.624 79.7259 658.717 79.9787 658.882 80.1804C659.047 80.3821 659.261 80.5327 659.526 80.6321C659.793 80.7315 660.091 80.7812 660.42 80.7812C660.764 80.7812 661.065 80.7301 661.324 80.6278C661.585 80.5227 661.79 80.3778 661.938 80.1932C662.085 80.0057 662.161 79.7869 662.163 79.5369C662.161 79.3097 662.094 79.1222 661.963 78.9744C661.832 78.8239 661.649 78.6989 661.413 78.5994C661.18 78.4972 660.908 78.4062 660.595 78.3267L659.602 78.071C658.884 77.8864 658.315 77.6065 657.898 77.2315C657.483 76.8537 657.276 76.3523 657.276 75.7273C657.276 75.2131 657.415 74.7628 657.693 74.3764C657.974 73.9901 658.357 73.6903 658.839 73.4773C659.322 73.2614 659.869 73.1534 660.48 73.1534C661.099 73.1534 661.642 73.2614 662.108 73.4773C662.577 73.6903 662.945 73.9872 663.212 74.3679C663.479 74.7457 663.616 75.1804 663.625 75.6719H662.104ZM667.983 82.1278C667.327 82.1278 666.76 81.9915 666.283 81.7188C665.809 81.4432 665.444 81.054 665.188 80.5511C664.932 80.0455 664.804 79.4503 664.804 78.7656C664.804 78.0923 664.932 77.5014 665.188 76.9929C665.446 76.4815 665.807 76.0838 666.27 75.7997C666.733 75.5128 667.277 75.3693 667.902 75.3693C668.306 75.3693 668.686 75.4347 669.044 75.5653C669.405 75.6932 669.723 75.892 669.999 76.1619C670.277 76.4318 670.496 76.7756 670.655 77.1932C670.814 77.608 670.894 78.1023 670.894 78.6761V79.1491H665.529V78.1094H669.415C669.412 77.8139 669.348 77.5511 669.223 77.321C669.098 77.0881 668.924 76.9048 668.699 76.7713C668.478 76.6378 668.219 76.571 667.924 76.571C667.608 76.571 667.331 76.6477 667.093 76.8011C666.854 76.9517 666.668 77.1506 666.534 77.3977C666.404 77.642 666.337 77.9105 666.334 78.2031V79.1108C666.334 79.4915 666.404 79.8182 666.543 80.0909C666.682 80.3608 666.877 80.5682 667.127 80.7131C667.377 80.8551 667.669 80.9261 668.005 80.9261C668.229 80.9261 668.432 80.8949 668.614 80.8324C668.796 80.767 668.953 80.6719 669.087 80.5469C669.221 80.4219 669.321 80.267 669.39 80.0824L670.83 80.2443C670.739 80.625 670.566 80.9574 670.31 81.2415C670.057 81.5227 669.733 81.7415 669.338 81.8977C668.944 82.0511 668.492 82.1278 667.983 82.1278ZM673.741 78.1648V82H672.199V75.4545H673.673V76.5668H673.75C673.901 76.2003 674.141 75.9091 674.47 75.6932C674.803 75.4773 675.213 75.3693 675.702 75.3693C676.153 75.3693 676.547 75.4659 676.882 75.6591C677.22 75.8523 677.482 76.1321 677.666 76.4986C677.854 76.8651 677.946 77.3097 677.943 77.8324V82H676.401V78.071C676.401 77.6335 676.287 77.2912 676.06 77.044C675.835 76.7969 675.524 76.6733 675.126 76.6733C674.857 76.6733 674.616 76.733 674.406 76.8523C674.199 76.9687 674.036 77.1378 673.916 77.3594C673.8 77.581 673.741 77.8494 673.741 78.1648ZM681.94 82.1151C681.426 82.1151 680.966 81.983 680.56 81.7188C680.153 81.4545 679.832 81.071 679.597 80.5682C679.361 80.0653 679.243 79.4545 679.243 78.7358C679.243 78.0085 679.362 77.3949 679.601 76.8949C679.842 76.392 680.168 76.0128 680.577 75.7571C680.986 75.4986 681.442 75.3693 681.945 75.3693C682.328 75.3693 682.643 75.4347 682.891 75.5653C683.138 75.6932 683.334 75.848 683.479 76.0298C683.624 76.2088 683.736 76.3778 683.815 76.5369H683.879V73.2727H685.426V82H683.909V80.9688H683.815C683.736 81.1278 683.621 81.2969 683.47 81.4759C683.32 81.652 683.121 81.8026 682.874 81.9276C682.626 82.0526 682.315 82.1151 681.94 82.1151ZM682.371 80.8494C682.697 80.8494 682.976 80.7614 683.206 80.5852C683.436 80.4062 683.611 80.1577 683.73 79.8395C683.849 79.5213 683.909 79.1506 683.909 78.7273C683.909 78.304 683.849 77.9361 683.73 77.6236C683.614 77.3111 683.44 77.0682 683.21 76.8949C682.983 76.7216 682.703 76.6349 682.371 76.6349C682.027 76.6349 681.74 76.7244 681.51 76.9034C681.28 77.0824 681.107 77.3295 680.99 77.6449C680.874 77.9602 680.815 78.321 680.815 78.7273C680.815 79.1364 680.874 79.5014 680.99 79.8224C681.109 80.1406 681.284 80.392 681.514 80.5767C681.747 80.7585 682.033 80.8494 682.371 80.8494ZM692.902 82.1278C692.262 82.1278 691.708 81.9872 691.24 81.706C690.771 81.4247 690.407 81.0312 690.149 80.5256C689.893 80.0199 689.765 79.429 689.765 78.7528C689.765 78.0767 689.893 77.4844 690.149 76.9759C690.407 76.4673 690.771 76.0724 691.24 75.7912C691.708 75.5099 692.262 75.3693 692.902 75.3693C693.541 75.3693 694.095 75.5099 694.564 75.7912C695.032 76.0724 695.395 76.4673 695.65 76.9759C695.909 77.4844 696.038 78.0767 696.038 78.7528C696.038 79.429 695.909 80.0199 695.65 80.5256C695.395 81.0312 695.032 81.4247 694.564 81.706C694.095 81.9872 693.541 82.1278 692.902 82.1278ZM692.91 80.892C693.257 80.892 693.547 80.7969 693.779 80.6065C694.012 80.4134 694.186 80.1548 694.299 79.831C694.416 79.5071 694.474 79.1463 694.474 78.7486C694.474 78.348 694.416 77.9858 694.299 77.6619C694.186 77.3352 694.012 77.0753 693.779 76.8821C693.547 76.6889 693.257 76.5923 692.91 76.5923C692.555 76.5923 692.26 76.6889 692.024 76.8821C691.791 77.0753 691.616 77.3352 691.5 77.6619C691.386 77.9858 691.329 78.348 691.329 78.7486C691.329 79.1463 691.386 79.5071 691.5 79.831C691.616 80.1548 691.791 80.4134 692.024 80.6065C692.26 80.7969 692.555 80.892 692.91 80.892ZM701.519 79.2472V75.4545H703.062V82H701.566V80.8366H701.498C701.35 81.2031 701.107 81.5028 700.769 81.7358C700.434 81.9687 700.021 82.0852 699.529 82.0852C699.1 82.0852 698.721 81.9901 698.391 81.7997C698.065 81.6065 697.809 81.3267 697.624 80.9602C697.44 80.5909 697.347 80.1449 697.347 79.6222V75.4545H698.89V79.3835C698.89 79.7983 699.004 80.1278 699.231 80.3722C699.458 80.6165 699.756 80.7386 700.126 80.7386C700.353 80.7386 700.573 80.6832 700.786 80.5724C700.999 80.4616 701.174 80.2969 701.31 80.0781C701.45 79.8565 701.519 79.5795 701.519 79.2472ZM707.917 75.4545V76.6477H704.154V75.4545H707.917ZM705.083 73.8864H706.625V80.0312C706.625 80.2386 706.657 80.3977 706.719 80.5085C706.784 80.6165 706.87 80.6903 706.975 80.7301C707.08 80.7699 707.196 80.7898 707.324 80.7898C707.421 80.7898 707.509 80.7827 707.588 80.7685C707.671 80.7543 707.733 80.7415 707.776 80.7301L708.036 81.9361C707.953 81.9645 707.836 81.9957 707.682 82.0298C707.532 82.0639 707.347 82.0838 707.128 82.0895C706.742 82.1009 706.394 82.0426 706.084 81.9148C705.775 81.7841 705.529 81.5824 705.347 81.3097C705.168 81.0369 705.08 80.696 705.083 80.2869V73.8864ZM714.067 82.1321C713.652 82.1321 713.278 82.0582 712.946 81.9105C712.616 81.7599 712.355 81.5384 712.162 81.2457C711.972 80.9531 711.876 80.5923 711.876 80.1634C711.876 79.794 711.945 79.4886 712.081 79.2472C712.217 79.0057 712.403 78.8125 712.639 78.6676C712.875 78.5227 713.141 78.4134 713.436 78.3395C713.734 78.2628 714.043 78.2074 714.361 78.1733C714.744 78.1335 715.055 78.098 715.294 78.0668C715.533 78.0327 715.706 77.9815 715.814 77.9134C715.925 77.8423 715.98 77.733 715.98 77.5852V77.5597C715.98 77.2386 715.885 76.9901 715.695 76.8139C715.504 76.6378 715.23 76.5497 714.872 76.5497C714.494 76.5497 714.195 76.6321 713.973 76.7969C713.754 76.9616 713.607 77.1562 713.53 77.3807L712.089 77.1761C712.203 76.7784 712.391 76.446 712.652 76.179C712.913 75.9091 713.233 75.7074 713.611 75.5739C713.989 75.4375 714.406 75.3693 714.864 75.3693C715.179 75.3693 715.493 75.4062 715.805 75.4801C716.118 75.554 716.403 75.6761 716.662 75.8466C716.92 76.0142 717.128 76.2429 717.284 76.5327C717.443 76.8224 717.523 77.1847 717.523 77.6193V82H716.04V81.1009H715.989C715.895 81.2827 715.763 81.4531 715.592 81.6122C715.425 81.7685 715.213 81.8949 714.957 81.9915C714.705 82.0852 714.408 82.1321 714.067 82.1321ZM714.467 80.9986C714.777 80.9986 715.045 80.9375 715.273 80.8153C715.5 80.6903 715.675 80.5256 715.797 80.321C715.922 80.1165 715.984 79.8935 715.984 79.652V78.8807C715.936 78.9205 715.854 78.9574 715.737 78.9915C715.624 79.0256 715.496 79.0554 715.354 79.081C715.212 79.1065 715.071 79.1293 714.932 79.1491C714.793 79.169 714.672 79.1861 714.57 79.2003C714.339 79.2315 714.134 79.2827 713.952 79.3537C713.77 79.4247 713.626 79.5241 713.521 79.652C713.416 79.777 713.364 79.9389 713.364 80.1378C713.364 80.4219 713.467 80.6364 713.675 80.7812C713.882 80.9261 714.146 80.9986 714.467 80.9986ZM720.616 78.1648V82H719.074V75.4545H720.548V76.5668H720.625C720.776 76.2003 721.016 75.9091 721.345 75.6932C721.678 75.4773 722.088 75.3693 722.577 75.3693C723.028 75.3693 723.422 75.4659 723.757 75.6591C724.095 75.8523 724.357 76.1321 724.541 76.4986C724.729 76.8651 724.821 77.3097 724.818 77.8324V82H723.276V78.071C723.276 77.6335 723.162 77.2912 722.935 77.044C722.71 76.7969 722.399 76.6733 722.001 76.6733C721.732 76.6733 721.491 76.733 721.281 76.8523C721.074 76.9687 720.911 77.1378 720.791 77.3594C720.675 77.581 720.616 77.8494 720.616 78.1648ZM733.535 79.2472V75.4545H735.077V82H733.582V80.8366H733.513C733.366 81.2031 733.123 81.5028 732.785 81.7358C732.45 81.9687 732.036 82.0852 731.545 82.0852C731.116 82.0852 730.737 81.9901 730.407 81.7997C730.08 81.6065 729.825 81.3267 729.64 80.9602C729.455 80.5909 729.363 80.1449 729.363 79.6222V75.4545H730.906V79.3835C730.906 79.7983 731.019 80.1278 731.246 80.3722C731.474 80.6165 731.772 80.7386 732.141 80.7386C732.369 80.7386 732.589 80.6832 732.802 80.5724C733.015 80.4616 733.19 80.2969 733.326 80.0781C733.465 79.8565 733.535 79.5795 733.535 79.2472ZM736.664 84.4545V75.4545H738.181V76.5369H738.27C738.35 76.3778 738.462 76.2088 738.607 76.0298C738.752 75.848 738.948 75.6932 739.195 75.5653C739.442 75.4347 739.757 75.3693 740.141 75.3693C740.647 75.3693 741.103 75.4986 741.509 75.7571C741.918 76.0128 742.242 76.392 742.48 76.8949C742.722 77.3949 742.843 78.0085 742.843 78.7358C742.843 79.4545 742.725 80.0653 742.489 80.5682C742.253 81.071 741.932 81.4545 741.526 81.7188C741.12 81.983 740.659 82.1151 740.145 82.1151C739.77 82.1151 739.459 82.0526 739.212 81.9276C738.965 81.8026 738.766 81.652 738.615 81.4759C738.468 81.2969 738.353 81.1278 738.27 80.9688H738.206V84.4545H736.664ZM738.176 78.7273C738.176 79.1506 738.236 79.5213 738.355 79.8395C738.478 80.1577 738.652 80.4062 738.88 80.5852C739.11 80.7614 739.388 80.8494 739.715 80.8494C740.056 80.8494 740.341 80.7585 740.571 80.5767C740.801 80.392 740.975 80.1406 741.091 79.8224C741.211 79.5014 741.27 79.1364 741.27 78.7273C741.27 78.321 741.212 77.9602 741.096 77.6449C740.979 77.3295 740.806 77.0824 740.576 76.9034C740.346 76.7244 740.059 76.6349 739.715 76.6349C739.385 76.6349 739.105 76.7216 738.875 76.8949C738.645 77.0682 738.471 77.3111 738.351 77.6236C738.235 77.9361 738.176 78.304 738.176 78.7273ZM746.593 82.1151C746.078 82.1151 745.618 81.983 745.212 81.7188C744.806 81.4545 744.485 81.071 744.249 80.5682C744.013 80.0653 743.895 79.4545 743.895 78.7358C743.895 78.0085 744.015 77.3949 744.253 76.8949C744.495 76.392 744.82 76.0128 745.229 75.7571C745.638 75.4986 746.094 75.3693 746.597 75.3693C746.98 75.3693 747.296 75.4347 747.543 75.5653C747.79 75.6932 747.986 75.848 748.131 76.0298C748.276 76.2088 748.388 76.3778 748.468 76.5369H748.532V73.2727H750.078V82H748.561V80.9688H748.468C748.388 81.1278 748.273 81.2969 748.123 81.4759C747.972 81.652 747.773 81.8026 747.526 81.9276C747.279 82.0526 746.968 82.1151 746.593 82.1151ZM747.023 80.8494C747.35 80.8494 747.628 80.7614 747.858 80.5852C748.088 80.4062 748.263 80.1577 748.382 79.8395C748.502 79.5213 748.561 79.1506 748.561 78.7273C748.561 78.304 748.502 77.9361 748.382 77.6236C748.266 77.3111 748.093 77.0682 747.863 76.8949C747.635 76.7216 747.355 76.6349 747.023 76.6349C746.679 76.6349 746.392 76.7244 746.162 76.9034C745.932 77.0824 745.759 77.3295 745.642 77.6449C745.526 77.9602 745.468 78.321 745.468 78.7273C745.468 79.1364 745.526 79.5014 745.642 79.8224C745.762 80.1406 745.936 80.392 746.167 80.5767C746.4 80.7585 746.685 80.8494 747.023 80.8494ZM753.606 82.1321C753.191 82.1321 752.817 82.0582 752.485 81.9105C752.156 81.7599 751.894 81.5384 751.701 81.2457C751.511 80.9531 751.415 80.5923 751.415 80.1634C751.415 79.794 751.484 79.4886 751.62 79.2472C751.756 79.0057 751.942 78.8125 752.178 78.6676C752.414 78.5227 752.68 78.4134 752.975 78.3395C753.273 78.2628 753.582 78.2074 753.9 78.1733C754.283 78.1335 754.594 78.098 754.833 78.0668C755.072 78.0327 755.245 77.9815 755.353 77.9134C755.464 77.8423 755.519 77.733 755.519 77.5852V77.5597C755.519 77.2386 755.424 76.9901 755.234 76.8139C755.043 76.6378 754.769 76.5497 754.411 76.5497C754.033 76.5497 753.734 76.6321 753.512 76.7969C753.293 76.9616 753.146 77.1562 753.069 77.3807L751.629 77.1761C751.742 76.7784 751.93 76.446 752.191 76.179C752.452 75.9091 752.772 75.7074 753.15 75.5739C753.528 75.4375 753.945 75.3693 754.403 75.3693C754.718 75.3693 755.032 75.4062 755.344 75.4801C755.657 75.554 755.942 75.6761 756.201 75.8466C756.46 76.0142 756.667 76.2429 756.823 76.5327C756.982 76.8224 757.062 77.1847 757.062 77.6193V82H755.579V81.1009H755.528C755.434 81.2827 755.302 81.4531 755.131 81.6122C754.964 81.7685 754.752 81.8949 754.496 81.9915C754.244 82.0852 753.947 82.1321 753.606 82.1321ZM754.006 80.9986C754.316 80.9986 754.585 80.9375 754.812 80.8153C755.039 80.6903 755.214 80.5256 755.336 80.321C755.461 80.1165 755.523 79.8935 755.523 79.652V78.8807C755.475 78.9205 755.393 78.9574 755.276 78.9915C755.163 79.0256 755.035 79.0554 754.893 79.081C754.751 79.1065 754.61 79.1293 754.471 79.1491C754.332 79.169 754.211 79.1861 754.109 79.2003C753.879 79.2315 753.673 79.2827 753.491 79.3537C753.309 79.4247 753.165 79.5241 753.06 79.652C752.955 79.777 752.903 79.9389 752.903 80.1378C752.903 80.4219 753.006 80.6364 753.214 80.7812C753.421 80.9261 753.685 80.9986 754.006 80.9986ZM761.881 75.4545V76.6477H758.119V75.4545H761.881ZM759.048 73.8864H760.59V80.0312C760.59 80.2386 760.621 80.3977 760.684 80.5085C760.749 80.6165 760.835 80.6903 760.94 80.7301C761.045 80.7699 761.161 80.7898 761.289 80.7898C761.386 80.7898 761.474 80.7827 761.553 80.7685C761.636 80.7543 761.698 80.7415 761.741 80.7301L762.001 81.9361C761.918 81.9645 761.8 81.9957 761.647 82.0298C761.496 82.0639 761.312 82.0838 761.093 82.0895C760.707 82.1009 760.359 82.0426 760.049 81.9148C759.739 81.7841 759.494 81.5824 759.312 81.3097C759.133 81.0369 759.045 80.696 759.048 80.2869V73.8864ZM765.999 82.1278C765.343 82.1278 764.776 81.9915 764.299 81.7188C763.824 81.4432 763.459 81.054 763.203 80.5511C762.948 80.0455 762.82 79.4503 762.82 78.7656C762.82 78.0923 762.948 77.5014 763.203 76.9929C763.462 76.4815 763.823 76.0838 764.286 75.7997C764.749 75.5128 765.293 75.3693 765.918 75.3693C766.321 75.3693 766.702 75.4347 767.06 75.5653C767.421 75.6932 767.739 75.892 768.015 76.1619C768.293 76.4318 768.512 76.7756 768.671 77.1932C768.83 77.608 768.909 78.1023 768.909 78.6761V79.1491H763.544V78.1094H767.431C767.428 77.8139 767.364 77.5511 767.239 77.321C767.114 77.0881 766.939 76.9048 766.715 76.7713C766.493 76.6378 766.235 76.571 765.939 76.571C765.624 76.571 765.347 76.6477 765.108 76.8011C764.87 76.9517 764.684 77.1506 764.55 77.3977C764.419 77.642 764.353 77.9105 764.35 78.2031V79.1108C764.35 79.4915 764.419 79.8182 764.559 80.0909C764.698 80.3608 764.892 80.5682 765.142 80.7131C765.392 80.8551 765.685 80.9261 766.02 80.9261C766.245 80.9261 766.448 80.8949 766.63 80.8324C766.811 80.767 766.969 80.6719 767.103 80.5469C767.236 80.4219 767.337 80.267 767.405 80.0824L768.846 80.2443C768.755 80.625 768.581 80.9574 768.326 81.2415C768.073 81.5227 767.749 81.7415 767.354 81.8977C766.959 82.0511 766.507 82.1278 765.999 82.1278Z" fill="#F8F8FA"/>
</svg>
