<svg width="586" height="200" viewBox="0 0 586 200" fill="none" xmlns="http://www.w3.org/2000/svg">
<path fill-rule="evenodd" clip-rule="evenodd" d="M233 48H177C172.582 48 169 51.5817 169 56V144C169 148.418 172.582 152 177 152H232.056C230.155 149.877 229 147.073 229 144V88C229 81.3726 234.373 76 241 76V56C241 51.5817 237.418 48 233 48ZM245 76H265C271.627 76 277 81.3726 277 88V144C277 150.627 271.627 156 265 156H241H177C170.373 156 165 150.627 165 144V56C165 49.3726 170.373 44 177 44H233C239.627 44 245 49.3726 245 56V76ZM33 46C27.4772 46 23 50.4772 23 56V112V120C23 125.523 27.4772 130 33 130H63V146C63 149.314 60.3137 152 57 152H53H51V156H53H57H97H101H103V152H101H97C93.6863 152 91 149.314 91 146V130H121C126.523 130 131 125.523 131 120V112V56C131 50.4772 126.523 46 121 46H33ZM88.9993 152C87.7439 150.329 87 148.251 87 146V130H67V146C67 148.251 66.2561 150.329 65.0007 152H88.9993ZM27 56C27 52.6863 29.6863 50 33 50H121C124.314 50 127 52.6863 127 56V110H27V56ZM27 114H127V120C127 123.314 124.314 126 121 126H89H65H33C29.6863 126 27 123.314 27 120V114ZM265 80H241C236.582 80 233 83.5817 233 88V144C233 148.418 236.582 152 241 152H265C269.418 152 273 148.418 273 144V88C273 83.5817 269.418 80 265 80ZM197 140H213V144H197V140ZM261 140H245V144H261V140ZM356.03 117.634C358.033 109.621 365.233 104 373.492 104H377V56C377 51.5817 373.418 48 369 48H321C316.582 48 313 51.5817 313 56V144C313 148.418 316.582 152 321 152H325V108H329V152H355.078C351.441 148.541 349.623 143.261 350.968 137.884L356.03 117.634ZM365.112 156H366.333C366.213 156 366.096 155.984 365.985 155.954C368.776 155.659 371.254 153.963 372.527 151.417L377.683 141.106C378.022 140.428 378.715 140 379.472 140H390.528C391.285 140 391.978 140.428 392.317 141.106L397.473 151.417C398.877 154.226 401.747 156 404.888 156C414.373 156 421.333 147.086 419.032 137.884L413.97 117.634C411.967 109.621 404.767 104 396.508 104H381V56C381 49.3726 375.627 44 369 44H321C314.373 44 309 49.3726 309 56V144C309 150.627 314.373 156 321 156H365.112ZM373.492 108C367.068 108 361.469 112.372 359.91 118.604L354.848 138.854C353.179 145.531 358.229 152 365.112 152C366.737 152 368.223 151.082 368.95 149.628L374.106 139.317C375.122 137.284 377.199 136 379.472 136H390.528C392.801 136 394.878 137.284 395.894 139.317L401.05 149.628C401.777 151.082 403.263 152 404.888 152C411.771 152 416.821 145.531 415.152 138.854L410.09 118.604C408.531 112.372 402.932 108 396.508 108H373.492ZM325 92H329V100H325V92ZM495 88H469C462.373 88 457 93.3726 457 100V133.373C457 136.555 458.264 139.607 460.515 141.858L467.142 148.485C469.393 150.736 472.445 152 475.627 152H542.373C545.555 152 548.607 150.736 550.858 148.485L557.485 141.858C559.736 139.607 561 136.555 561 133.373V100C561 93.3726 555.627 88 549 88H523H519H499H495ZM495 84H469C460.163 84 453 91.1634 453 100V106H451C447.686 106 445 108.686 445 112V128C445 131.314 447.686 134 451 134H453V133.373C453 137.616 454.686 141.686 457.686 144.686L464.314 151.314C467.314 154.314 471.384 156 475.627 156H542.373C546.616 156 550.686 154.314 553.686 151.314L560.314 144.686C563.314 141.686 565 137.616 565 133.373V134H567C570.314 134 573 131.314 573 128V112C573 108.686 570.314 106 567 106H565V100C565 91.1634 557.837 84 549 84H523V62C523 58.6863 520.314 56 517 56H501C497.686 56 495 58.6863 495 62V84ZM565 130H567C568.105 130 569 129.105 569 128V112C569 110.895 568.105 110 567 110H565V130ZM451 110H453V130H451C449.895 130 449 129.105 449 128V112C449 110.895 449.895 110 451 110ZM499 84H519V62C519 60.8954 518.105 60 517 60H501C499.895 60 499 60.8954 499 62V84ZM473 140C475.209 140 477 138.209 477 136C477 133.791 475.209 132 473 132C470.791 132 469 133.791 469 136C469 138.209 470.791 140 473 140ZM549 136C549 138.209 547.209 140 545 140C542.791 140 541 138.209 541 136C541 133.791 542.791 132 545 132C547.209 132 549 133.791 549 136Z" fill="#8D8D8F"/>
</svg>
