<svg width="1440" height="480" viewBox="0 0 1440 480" fill="none" xmlns="http://www.w3.org/2000/svg">
<g clip-path="url(#clip0_2402_1043)">
<path d="M135 275L135 281C135 285.971 130.971 290 126 290L125 290L125 291C125 293.209 123.209 295 121 295L119 295C116.791 295 115 293.209 115 291L115 290L105 290L105 540L115 540L115 539C115 536.791 116.791 535 119 535L121 535C123.209 535 125 536.791 125 539L125 540L126 540C130.971 540 135 544.029 135 549L135 555L4.99999 555L4.99999 549C4.99999 544.029 9.02942 540 14 540L15 540L15 539C15 536.791 16.7909 535 19 535L21 535C23.2091 535 25 536.791 25 539L25 540L35 540L35 290L25 290L25 291C25 293.209 23.2091 295 21 295L19 295C16.7909 295 15 293.209 15 291L15 290L14 290C9.02943 290 5 285.971 5 281L5 275L135 275Z" fill="#E4E4E7"/>
<path d="M105 290L115 290L115 291C115 293.209 116.791 295 119 295L121 295C123.209 295 125 293.209 125 291L125 290L126 290C130.971 290 135 285.971 135 281L135 275L5 275L5 281C5 285.971 9.02944 290 14 290L15 290L15 291C15 293.209 16.7909 295 19 295L21 295C23.2091 295 25 293.209 25 291L25 290L35 290M105 290L105 540M105 290L35 290M105 540L115 540L115 539C115 536.791 116.791 535 119 535L121 535C123.209 535 125 536.791 125 539L125 540L126 540C130.971 540 135 544.029 135 549L135 555L4.99999 555L4.99999 549C4.99999 544.029 9.02943 540 14 540L15 540L15 539C15 536.791 16.7908 535 19 535L21 535C23.2091 535 25 536.791 25 539L25 540L35 540M105 540L35 540M35 540L35 290" stroke="#ADADAF" stroke-width="4"/>
<path d="M135 -5L135 1C135 5.97056 130.971 10 126 10L125 10L125 11C125 13.2091 123.209 15 121 15L119 15C116.791 15 115 13.2091 115 11L115 10L105 10L105 260L115 260L115 259C115 256.791 116.791 255 119 255L121 255C123.209 255 125 256.791 125 259L125 260L126 260C130.971 260 135 264.029 135 269L135 275L4.99999 275L4.99999 269C4.99999 264.029 9.02942 260 14 260L15 260L15 259C15 256.791 16.7909 255 19 255L21 255C23.2091 255 25 256.791 25 259L25 260L35 260L35 10L25 10L25 11C25 13.2091 23.2091 15 21 15L19 15C16.7909 15 15 13.2091 15 11L15 9.99999L14 9.99999C9.02943 9.99999 5 5.97056 5 0.999994L5 -5.00001L135 -5Z" fill="#E4E4E7"/>
<path d="M105 10L115 10L115 11C115 13.2091 116.791 15 119 15L121 15C123.209 15 125 13.2091 125 11L125 10L126 10C130.971 10 135 5.97056 135 1L135 -5L5 -5.00001L5 0.999994C5 5.97056 9.02944 9.99999 14 9.99999L15 9.99999L15 11C15 13.2091 16.7909 15 19 15L21 15C23.2091 15 25 13.2091 25 11L25 10L35 10M105 10L105 260M105 10L35 10M105 260L115 260L115 259C115 256.791 116.791 255 119 255L121 255C123.209 255 125 256.791 125 259L125 260L126 260C130.971 260 135 264.029 135 269L135 275L4.99999 275L4.99999 269C4.99999 264.029 9.02943 260 14 260L15 260L15 259C15 256.791 16.7908 255 19 255L21 255C23.2091 255 25 256.791 25 259L25 260L35 260M105 260L35 260M35 260L35 10" stroke="#ADADAF" stroke-width="4"/>
<path d="M805 -246.667L805 -241.559C805 -236.589 800.971 -232.559 796 -232.559L795 -232.559L795 -231.857C795 -229.648 793.209 -227.857 791 -227.857L789 -227.857C786.791 -227.857 785 -229.648 785 -231.857L785 -232.559L775 -232.559L775 2.55957L785 2.55957L785 1.85719C785 -0.351945 786.791 -2.14281 789 -2.14281L791 -2.14281C793.209 -2.14281 795 -0.351944 795 1.85719L795 2.55957L796 2.55957C800.971 2.55957 805 6.589 805 11.5596L805 16.6667L675 16.6667L675 11.5596C675 6.589 679.029 2.55956 684 2.55957L685 2.55957L685 1.85719C685 -0.351949 686.791 -2.14281 689 -2.14281L691 -2.14281C693.209 -2.14281 695 -0.351949 695 1.85719L695 2.55957L705 2.55957L705 -232.559L695 -232.559L695 -231.857C695 -229.648 693.209 -227.857 691 -227.857L689 -227.857C686.791 -227.857 685 -229.648 685 -231.857L685 -232.559L684 -232.559C679.029 -232.559 675 -236.589 675 -241.559L675 -246.667L805 -246.667Z" fill="#E4E4E7"/>
<path d="M775 -232.559L785 -232.559L785 -231.857C785 -229.648 786.791 -227.857 789 -227.857L791 -227.857C793.209 -227.857 795 -229.648 795 -231.857L795 -232.559L796 -232.559C800.971 -232.559 805 -236.589 805 -241.559L805 -246.667L675 -246.667L675 -241.559C675 -236.589 679.029 -232.559 684 -232.559L685 -232.559L685 -231.857C685 -229.648 686.791 -227.857 689 -227.857L691 -227.857C693.209 -227.857 695 -229.648 695 -231.857L695 -232.559L705 -232.559M775 -232.559L775 2.55957M775 -232.559L705 -232.559M775 2.55957L785 2.55957L785 1.85719C785 -0.351945 786.791 -2.14281 789 -2.14281L791 -2.14281C793.209 -2.14281 795 -0.351945 795 1.85719L795 2.55957L796 2.55957C800.971 2.55957 805 6.58901 805 11.5596L805 16.6667L675 16.6667L675 11.5596C675 6.589 679.029 2.55957 684 2.55957L685 2.55957L685 1.85719C685 -0.351949 686.791 -2.14281 689 -2.14281L691 -2.14281C693.209 -2.14281 695 -0.351949 695 1.85719L695 2.55957L705 2.55957M775 2.55957L705 2.55957M705 2.55957L705 -232.559" stroke="#6D6D6F" stroke-width="4"/>
<path d="M805 16.6667L805 21.7739C805 26.7445 800.971 30.7739 796 30.7739L795 30.7739L795 31.4763C795 33.6854 793.209 35.4763 791 35.4763L789 35.4763C786.791 35.4763 785 33.6854 785 31.4763L785 30.7739L775 30.7739L775 265.893L785 265.893L785 265.191C785 262.981 786.791 261.191 789 261.191L791 261.191C793.209 261.191 795 262.981 795 265.191L795 265.893L796 265.893C800.971 265.893 805 269.922 805 274.893L805 280L675 280L675 274.893C675 269.922 679.029 265.893 684 265.893L685 265.893L685 265.191C685 262.981 686.791 261.191 689 261.191L691 261.191C693.209 261.191 695 262.981 695 265.191L695 265.893L705 265.893L705 30.7739L695 30.7739L695 31.4763C695 33.6854 693.209 35.4763 691 35.4763L689 35.4763C686.791 35.4763 685 33.6854 685 31.4763L685 30.7739L684 30.7739C679.029 30.7739 675 26.7444 675 21.7739L675 16.6667L805 16.6667Z" fill="#E4E4E7"/>
<path d="M775 30.7739L785 30.7739L785 31.4763C785 33.6854 786.791 35.4763 789 35.4763L791 35.4763C793.209 35.4763 795 33.6854 795 31.4763L795 30.7739L796 30.7739C800.971 30.7739 805 26.7445 805 21.7739L805 16.6667L675 16.6667L675 21.7739C675 26.7444 679.029 30.7739 684 30.7739L685 30.7739L685 31.4763C685 33.6854 686.791 35.4763 689 35.4763L691 35.4763C693.209 35.4763 695 33.6854 695 31.4763L695 30.7739L705 30.7739M775 30.7739L775 265.893M775 30.7739L705 30.7739M775 265.893L785 265.893L785 265.191C785 262.981 786.791 261.191 789 261.191L791 261.191C793.209 261.191 795 262.981 795 265.191L795 265.893L796 265.893C800.971 265.893 805 269.922 805 274.893L805 280L675 280L675 274.893C675 269.922 679.029 265.893 684 265.893L685 265.893L685 265.191C685 262.981 686.791 261.191 689 261.191L691 261.191C693.209 261.191 695 262.981 695 265.191L695 265.893L705 265.893M775 265.893L705 265.893M705 265.893L705 30.7739" stroke="#6D6D6F" stroke-width="4"/>
<path d="M650 435L644 435C639.029 435 635 430.971 635 426L635 425L634 425C631.791 425 630 423.209 630 421L630 419C630 416.791 631.791 415 634 415L635 415L635 405L385 405L385 415L386 415C388.209 415 390 416.791 390 419L390 421C390 423.209 388.209 425 386 425L385 425L385 426C385 430.971 380.971 435 376 435L370 435L370 305L376 305C380.971 305 385 309.029 385 314L385 315L386 315C388.209 315 390 316.791 390 319L390 321C390 323.209 388.209 325 386 325L385 325L385 335L635 335L635 325L634 325C631.791 325 630 323.209 630 321L630 319C630 316.791 631.791 315 634 315L635 315L635 314C635 309.029 639.029 305 644 305L650 305L650 435Z" fill="#E4E4E7"/>
<path d="M635 405L635 415L634 415C631.791 415 630 416.791 630 419L630 421C630 423.209 631.791 425 634 425L635 425L635 426C635 430.971 639.029 435 644 435L650 435L650 305L644 305C639.029 305 635 309.029 635 314L635 315L634 315C631.791 315 630 316.791 630 319L630 321C630 323.209 631.791 325 634 325L635 325L635 335M635 405L385 405M635 405L635 335M385 405L385 415L386 415C388.209 415 390 416.791 390 419L390 421C390 423.209 388.209 425 386 425L385 425L385 426C385 430.971 380.971 435 376 435L370 435L370 305L376 305C380.971 305 385 309.029 385 314L385 315L386 315C388.209 315 390 316.791 390 319L390 321C390 323.209 388.209 325 386 325L385 325L385 335M385 405L385 335M385 335L635 335" stroke="#2D2D2F" stroke-width="4"/>
<path d="M1210 435L1204 435C1199.03 435 1195 430.971 1195 426L1195 425L1194 425C1191.79 425 1190 423.209 1190 421L1190 419C1190 416.791 1191.79 415 1194 415L1195 415L1195 405L945 405L945 415L946 415C948.209 415 950 416.791 950 419L950 421C950 423.209 948.209 425 946 425L945 425L945 426C945 430.971 940.971 435 936 435L930 435L930 305L936 305C940.971 305 945 309.029 945 314L945 315L946 315C948.209 315 950 316.791 950 319L950 321C950 323.209 948.209 325 946 325L945 325L945 335L1195 335L1195 325L1194 325C1191.79 325 1190 323.209 1190 321L1190 319C1190 316.791 1191.79 315 1194 315L1195 315L1195 314C1195 309.029 1199.03 305 1204 305L1210 305L1210 435Z" fill="#E4E4E7"/>
<path d="M1195 405L1195 415L1194 415C1191.79 415 1190 416.791 1190 419L1190 421C1190 423.209 1191.79 425 1194 425L1195 425L1195 426C1195 430.971 1199.03 435 1204 435L1210 435L1210 305L1204 305C1199.03 305 1195 309.029 1195 314L1195 315L1194 315C1191.79 315 1190 316.791 1190 319L1190 321C1190 323.209 1191.79 325 1194 325L1195 325L1195 335M1195 405L945 405M1195 405L1195 335M945 405L945 415L946 415C948.209 415 950 416.791 950 419L950 421C950 423.209 948.209 425 946 425L945 425L945 426C945 430.971 940.971 435 936 435L930 435L930 305L936 305C940.971 305 945 309.029 945 314L945 315L946 315C948.209 315 950 316.791 950 319L950 321C950 323.209 948.209 325 946 325L945 325L945 335M945 405L945 335M945 335L1195 335" stroke="#2D2D2F" stroke-width="4"/>
<path d="M1490 435L1484 435C1479.03 435 1475 430.971 1475 426L1475 425L1474 425C1471.79 425 1470 423.209 1470 421L1470 419C1470 416.791 1471.79 415 1474 415L1475 415L1475 405L1225 405L1225 415L1226 415C1228.21 415 1230 416.791 1230 419L1230 421C1230 423.209 1228.21 425 1226 425L1225 425L1225 426C1225 430.971 1220.97 435 1216 435L1210 435L1210 305L1216 305C1220.97 305 1225 309.029 1225 314L1225 315L1226 315C1228.21 315 1230 316.791 1230 319L1230 321C1230 323.209 1228.21 325 1226 325L1225 325L1225 335L1475 335L1475 325L1474 325C1471.79 325 1470 323.209 1470 321L1470 319C1470 316.791 1471.79 315 1474 315L1475 315L1475 314C1475 309.029 1479.03 305 1484 305L1490 305L1490 435Z" fill="#E4E4E7"/>
<path d="M1475 405L1475 415L1474 415C1471.79 415 1470 416.791 1470 419L1470 421C1470 423.209 1471.79 425 1474 425L1475 425L1475 426C1475 430.971 1479.03 435 1484 435L1490 435L1490 305L1484 305C1479.03 305 1475 309.029 1475 314L1475 315L1474 315C1471.79 315 1470 316.791 1470 319L1470 321C1470 323.209 1471.79 325 1474 325L1475 325L1475 335M1475 405L1225 405M1475 405L1475 335M1225 405L1225 415L1226 415C1228.21 415 1230 416.791 1230 419L1230 421C1230 423.209 1228.21 425 1226 425L1225 425L1225 426C1225 430.971 1220.97 435 1216 435L1210 435L1210 305L1216 305C1220.97 305 1225 309.029 1225 314L1225 315L1226 315C1228.21 315 1230 316.791 1230 319L1230 321C1230 323.209 1228.21 325 1226 325L1225 325L1225 335M1225 405L1225 335M1225 335L1475 335" stroke="#2D2D2F" stroke-width="4"/>
<path d="M120 180L130 180L200 180L210 180L210 181C210 183.209 211.791 185 214 185L216 185C218.209 185 220 183.209 220 181L220 180L221 180C225.971 180 230 175.97 230 171L230 165L100 165L100 171C100 175.97 104.029 180 109 180L110 180L110 181C110 183.209 111.791 185 114 185L116 185C118.209 185 120 183.209 120 181L120 180Z" fill="#E4E4E7"/>
<path d="M355 405L355 335V335C269.396 335 200 265.604 200 180V180L130 180V180C130 304.264 230.736 405 355 405V405Z" fill="#E4E4E7"/>
<path d="M355 405L355 415L354 415C351.791 415 350 416.791 350 419L350 421C350 423.209 351.791 425 354 425L355 425L355 426C355 430.97 359.029 435 364 435L370 435L370 305L364 305C359.029 305 355 309.029 355 314L355 315L354 315C351.791 315 350 316.791 350 319L350 321C350 323.209 351.791 325 354 325L355 325L355 335M355 405L355 335M355 405V405C230.736 405 130 304.264 130 180V180M355 335V335C269.396 335 200 265.604 200 180V180M130 180L120 180L120 181C120 183.209 118.209 185 116 185L114 185C111.791 185 110 183.209 110 181L110 180L109 180C104.029 180 100 175.97 100 171L100 165L230 165L230 171C230 175.97 225.971 180 221 180L220 180L220 181C220 183.209 218.209 185 216 185L214 185C211.791 185 210 183.209 210 181L210 180L200 180M130 180L200 180" stroke="#2D2D2F" stroke-width="4"/>
<path d="M100 165L100 159C100 154.029 104.029 150 109 150L110 150L110 149C110 146.791 111.791 145 114 145L116 145C118.209 145 120 146.791 120 149L120 150L130 150L130 -100L120 -100L120 -99.0001C120 -96.791 118.209 -95.0001 116 -95.0001L114 -95.0001C111.791 -95.0001 110 -96.791 110 -99.0001L110 -100L109 -100C104.029 -100 100 -104.03 100 -109L100 -115L230 -115L230 -109C230 -104.03 225.971 -100 221 -100L220 -100L220 -99.0001C220 -96.791 218.209 -95.0001 216 -95.0001L214 -95.0001C211.791 -95.0001 210 -96.791 210 -99.0001L210 -100L200 -100L200 150L210 150L210 149C210 146.791 211.791 145 214 145L216 145C218.209 145 220 146.791 220 149L220 150L221 150C225.971 150 230 154.029 230 159L230 165L100 165Z" fill="#E4E4E7"/>
<path d="M130 150L120 150L120 149C120 146.791 118.209 145 116 145L114 145C111.791 145 110 146.791 110 149L110 150L109 150C104.029 150 100 154.029 100 159L100 165L230 165L230 159C230 154.029 225.971 150 221 150L220 150L220 149C220 146.791 218.209 145 216 145L214 145C211.791 145 210 146.791 210 149L210 150L200 150M130 150L130 -100M130 150L200 150M130 -100L120 -100L120 -99.0001C120 -96.791 118.209 -95.0001 116 -95.0001L114 -95.0001C111.791 -95.0001 110 -96.791 110 -99.0001L110 -100L109 -100C104.029 -100 100 -104.03 100 -109L100 -115L230 -115L230 -109C230 -104.03 225.971 -100 221 -100L220 -100L220 -99.0001C220 -96.791 218.209 -95.0001 216 -95.0001L214 -95.0001C211.791 -95.0001 210 -96.791 210 -99.0001L210 -100L200 -100M130 -100L200 -100M200 -100L200 150" stroke="#2D2D2F" stroke-width="4"/>
<rect x="650" y="280" width="280" height="180" fill="#E4E4E7" stroke="#CC8800" stroke-width="4"/>
<rect x="670" y="300" width="160" height="140" fill="#E4E4E7" stroke="#CC8800" stroke-width="4"/>
<circle cx="880" cy="320" r="20" stroke="#CC8800" stroke-width="4"/>
<circle cx="740" cy="400" r="20" stroke="#CC8800" stroke-width="4"/>
<circle cx="880" cy="380" r="20" stroke="#CC8800" stroke-width="4"/>
<path d="M878.586 318.586L877.172 320L880 322.828L881.414 321.414L878.586 318.586ZM881.414 321.414L896.414 306.414L893.586 303.586L878.586 318.586L881.414 321.414Z" fill="#CC8800"/>
<path d="M880 382H882V378H880V382ZM880 378H860V382H880V378Z" fill="#CC8800"/>
<path d="M710 325L735 325M735 325L735 350M735 325L705 355" stroke="#CC8800" stroke-width="4"/>
<circle cx="760" cy="380" r="20" fill="#E4E4E7" stroke="#CC8800" stroke-width="4"/>
<circle cx="780" cy="360" r="20" fill="#E4E4E7" stroke="#CC8800" stroke-width="4"/>
<path d="M1248 100V102H1252V100H1248ZM1250 80.0002L1248.19 79.1404L1248 79.5484V80.0002H1250ZM1260 59.0002L1261.81 58.1404H1258.19L1260 59.0002ZM1270 80.0002H1272V79.5484L1271.81 79.1404L1270 80.0002ZM1268 100V102H1272V100H1268ZM1278 100V102H1282V100H1278ZM1282 60.0002V58.0002H1278V60.0002H1282ZM1298 100V102H1302V100H1298ZM1302 60.0002V58.0002H1298V60.0002H1302ZM1310 58.0002H1308V62.0002H1310V58.0002ZM1330 62.0002H1332V58.0002H1330V62.0002ZM1310 98.0002H1308V102H1310V98.0002ZM1330 102H1332V98.0002H1330V102ZM1338 100V102H1342V100H1338ZM1342 60.0002V58.0002H1338V60.0002H1342ZM1348 100V102H1352V100H1348ZM1362 60.0002V58.0002H1358V60.0002H1362ZM1358 100V102H1362V100H1358ZM1368 100V102H1372V100H1368ZM1370 80.0002L1368.19 79.1404L1368 79.5484V80.0002H1370ZM1380 59.0002L1381.81 58.1404H1378.19L1380 59.0002ZM1390 80.0002H1392V79.5484L1391.81 79.1404L1390 80.0002ZM1388 100V102H1392V100H1388ZM1400 58.0002H1398V62.0002H1400V58.0002ZM1420 62.0002H1422V58.0002H1420V62.0002ZM1408 100V102H1412V100H1408ZM1430 58.0002H1428V62.0002H1430V58.0002ZM1450 62.0002H1452V58.0002H1450V62.0002ZM1430 98.0002H1428V102H1430V98.0002ZM1450 102H1452V98.0002H1450V102ZM1488 100V102H1492V100H1488ZM1492 60.0002V58.0002H1488V60.0002H1492ZM1508 100V102H1512V100H1508ZM1512 60.0002V58.0002H1508V60.0002H1512ZM1470 62.0002H1472V58.0002H1470V62.0002ZM1252 100V80.0002H1248V100H1252ZM1251.81 80.8601L1261.81 59.8601L1258.19 58.1404L1248.19 79.1404L1251.81 80.8601ZM1258.19 59.8601L1268.19 80.8601L1271.81 79.1404L1261.81 58.1404L1258.19 59.8601ZM1268 80.0002V100H1272V80.0002H1268ZM1270 78.0002H1250V82.0002H1270V78.0002ZM1282 100V65.0002H1278V100H1282ZM1282 65.0002V60.0002H1278V65.0002H1282ZM1278.34 66.1096L1298.34 96.1096L1301.66 93.8908L1281.66 63.8908L1278.34 66.1096ZM1298 95.0002V100H1302V95.0002H1298ZM1302 95.0002V60.0002H1298V95.0002H1302ZM1310 62.0002H1320V58.0002H1310V62.0002ZM1320 62.0002H1330V58.0002H1320V62.0002ZM1318 60.0002V100H1322V60.0002H1318ZM1320 98.0002H1310V102H1320V98.0002ZM1320 102H1330V98.0002H1320V102ZM1342 100V65.0002H1338V100H1342ZM1342 65.0002V60.0002H1338V65.0002H1342ZM1338.1 65.6327L1348.1 95.6327L1351.9 94.3678L1341.9 64.3678L1338.1 65.6327ZM1348 95.0002V100H1352V95.0002H1348ZM1351.9 95.6327L1361.9 65.6327L1358.1 64.3678L1348.1 94.3678L1351.9 95.6327ZM1362 65.0002V60.0002H1358V65.0002H1362ZM1358 65.0002V100H1362V65.0002H1358ZM1372 100V80.0002H1368V100H1372ZM1371.81 80.8601L1381.81 59.8601L1378.19 58.1404L1368.19 79.1404L1371.81 80.8601ZM1378.19 59.8601L1388.19 80.8601L1391.81 79.1404L1381.81 58.1404L1378.19 59.8601ZM1388 80.0002V100H1392V80.0002H1388ZM1390 78.0002H1370V82.0002H1390V78.0002ZM1400 62.0002H1410V58.0002H1400V62.0002ZM1410 62.0002H1420V58.0002H1410V62.0002ZM1408 60.0002V100H1412V60.0002H1408ZM1430 62.0002H1440V58.0002H1430V62.0002ZM1440 62.0002H1450V58.0002H1440V62.0002ZM1438 60.0002V100H1442V60.0002H1438ZM1440 98.0002H1430V102H1440V98.0002ZM1440 102H1450V98.0002H1440V102ZM1458 70.0002V90.0002H1462V70.0002H1458ZM1478 70.0002V90.0002H1482V70.0002H1478ZM1492 100V65.0002H1488V100H1492ZM1492 65.0002V60.0002H1488V65.0002H1492ZM1488.34 66.1096L1508.34 96.1096L1511.66 93.8908L1491.66 63.8908L1488.34 66.1096ZM1508 95.0002V100H1512V95.0002H1508ZM1512 95.0002V60.0002H1508V95.0002H1512ZM1478 90.0002C1478 94.4185 1474.42 98.0002 1470 98.0002V102C1476.63 102 1482 96.6277 1482 90.0002H1478ZM1470 62.0002C1474.42 62.0002 1478 65.582 1478 70.0002H1482C1482 63.3728 1476.63 58.0002 1470 58.0002V62.0002ZM1458 90.0002C1458 96.6277 1463.37 102 1470 102V98.0002C1465.58 98.0002 1462 94.4185 1462 90.0002H1458ZM1462 70.0002C1462 65.582 1465.58 62.0002 1470 62.0002V58.0002C1463.37 58.0002 1458 63.3728 1458 70.0002H1462Z" fill="#6D6D6F"/>
<rect x="1230" y="40" width="300" height="80" stroke="#6D6D6F" stroke-width="4"/>
<path d="M457.98 98.6969L473.953 158.31C478.64 175.803 476.186 194.441 467.131 210.125L612.02 171.302C621.075 155.618 623.529 136.98 618.842 119.487L602.869 59.8741L457.98 98.6969Z" stroke="#6D6D6F" stroke-width="4" stroke-miterlimit="5.75877" stroke-linecap="square"/>
<circle cx="592.262" cy="78.2452" r="5" transform="rotate(-15 592.262 78.2452)" stroke="#6D6D6F" stroke-width="4"/>
<path d="M487.651 132.158L498.004 170.795M597.184 154.572L500.592 180.454L498.004 170.795M498.004 170.795L517.322 165.618L517.674 144.307C517.821 135.378 523.869 127.629 532.495 125.318L585.538 111.105" stroke="#6D6D6F" stroke-width="4" stroke-miterlimit="5.75877" stroke-linecap="square"/>
<path d="M996.45 135.051L980.477 194.663C975.789 212.156 964.345 227.071 948.661 236.126L1093.55 274.949C1109.23 265.894 1120.68 250.979 1125.37 233.486L1141.34 173.874L996.45 135.051Z" stroke="#6D6D6F" stroke-width="4" stroke-miterlimit="5.75877" stroke-linecap="square"/>
<circle cx="1007.06" cy="153.422" r="5" transform="rotate(15 1007.06 153.422)" stroke="#6D6D6F" stroke-width="4"/>
<circle cx="1122.97" cy="184.48" r="5" transform="rotate(15 1122.97 184.48)" stroke="#6D6D6F" stroke-width="4"/>
<path d="M1005.42 178.864L995.063 217.501M1089.07 253.042L994.406 227.678C993.339 227.392 992.706 226.295 992.992 225.228L995.063 217.501M995.063 217.501L1012.87 222.273C1013.76 222.511 1014.69 222.115 1015.14 221.312L1030.77 193.159C1031.76 191.369 1034.48 192.05 1034.52 194.096L1034.89 216.56C1034.92 218.526 1037.47 219.27 1038.56 217.629L1047.91 203.469C1049.45 201.137 1053.06 201.992 1053.39 204.767L1054.55 214.526C1054.96 217.953 1059.23 219.289 1061.52 216.706L1065.49 212.224C1067.7 209.736 1071.77 210.56 1072.83 213.71L1073.73 216.356C1075.02 220.165 1079.47 221.842 1082.95 219.832L1084.14 219.147C1086.53 217.766 1089.59 218.585 1090.97 220.977V220.977C1091.63 222.125 1092.72 222.963 1094 223.306L1096.83 224.064" stroke="#6D6D6F" stroke-width="4" stroke-miterlimit="5.75877" stroke-linecap="square"/>
<path d="M535 -25L535 -19C535 -14.0294 530.971 -10 526 -10L525 -10L525 -9C525 -6.79086 523.209 -5 521 -5L519 -5C516.791 -5 515 -6.79086 515 -9L515 -10L505 -10L505 240L515 240L515 239C515 236.791 516.791 235 519 235L521 235C523.209 235 525 236.791 525 239L525 240L526 240C530.971 240 535 244.029 535 249L535 255L405 255L405 249C405 244.029 409.029 240 414 240L415 240L415 239C415 236.791 416.791 235 419 235L421 235C423.209 235 425 236.791 425 239L425 240L435 240L435 -10L425 -10L425 -9C425 -6.79087 423.209 -5 421 -5L419 -5.00001C416.791 -5.00001 415 -6.79087 415 -9.00001L415 -10L414 -10C409.029 -10 405 -14.0294 405 -19L405 -25L535 -25Z" fill="#E4E4E7"/>
<path d="M505 -10L515 -10L515 -9C515 -6.79086 516.791 -5 519 -5L521 -5C523.209 -5 525 -6.79086 525 -9L525 -10L526 -10C530.971 -10 535 -14.0294 535 -19L535 -25L405 -25L405 -19C405 -14.0294 409.029 -10 414 -10L415 -10L415 -9.00001C415 -6.79087 416.791 -5.00001 419 -5.00001L421 -5C423.209 -5 425 -6.79087 425 -9L425 -10L435 -10M505 -10L505 240M505 -10L435 -10M505 240L515 240L515 239C515 236.791 516.791 235 519 235L521 235C523.209 235 525 236.791 525 239L525 240L526 240C530.971 240 535 244.029 535 249L535 255L405 255L405 249C405 244.029 409.029 240 414 240L415 240L415 239C415 236.791 416.791 235 419 235L421 235C423.209 235 425 236.791 425 239L425 240L435 240M505 240L435 240M435 240L435 -10" stroke="#ADADAF" stroke-width="4"/>
<path d="M535 255L535 261C535 265.971 530.971 270 526 270L525 270L525 271C525 273.209 523.209 275 521 275L519 275C516.791 275 515 273.209 515 271L515 270L505 270L505 520L515 520L515 519C515 516.791 516.791 515 519 515L521 515C523.209 515 525 516.791 525 519L525 520L526 520C530.971 520 535 524.029 535 529L535 535L405 535L405 529C405 524.029 409.029 520 414 520L415 520L415 519C415 516.791 416.791 515 419 515L421 515C423.209 515 425 516.791 425 519L425 520L435 520L435 270L425 270L425 271C425 273.209 423.209 275 421 275L419 275C416.791 275 415 273.209 415 271L415 270L414 270C409.029 270 405 265.971 405 261L405 255L535 255Z" fill="#E4E4E7"/>
<path d="M505 270L515 270L515 271C515 273.209 516.791 275 519 275L521 275C523.209 275 525 273.209 525 271L525 270L526 270C530.971 270 535 265.971 535 261L535 255L405 255L405 261C405 265.971 409.029 270 414 270L415 270L415 271C415 273.209 416.791 275 419 275L421 275C423.209 275 425 273.209 425 271L425 270L435 270M505 270L505 520M505 270L435 270M505 520L515 520L515 519C515 516.791 516.791 515 519 515L521 515C523.209 515 525 516.791 525 519L525 520L526 520C530.971 520 535 524.029 535 529L535 535L405 535L405 529C405 524.029 409.029 520 414 520L415 520L415 519C415 516.791 416.791 515 419 515L421 515C423.209 515 425 516.791 425 519L425 520L435 520M505 520L435 520M435 520L435 270" stroke="#ADADAF" stroke-width="4"/>
</g>
<defs>
<clipPath id="clip0_2402_1043">
<rect width="1440" height="480" fill="white"/>
</clipPath>
</defs>
</svg>
