<svg width="1920" height="1080" viewBox="0 0 1920 1080" fill="none" xmlns="http://www.w3.org/2000/svg">
<g clip-path="url(#clip0_2908_479)">
<rect width="1920" height="1080" fill="#F5F1FF"/>
<mask id="mask0_2908_479" style="mask-type:alpha" maskUnits="userSpaceOnUse" x="0" y="0" width="1920" height="1080">
<rect width="1920" height="1080" fill="url(#paint0_radial_2908_479)"/>
</mask>
<g mask="url(#mask0_2908_479)">
<rect x="156" y="536" width="8" height="8" rx="4" fill="#D2CEDE"/>
<rect x="356" y="536" width="8" height="8" rx="4" fill="#D2CEDE"/>
<rect x="556" y="536" width="8" height="8" rx="4" fill="#D2CEDE"/>
<rect x="756" y="536" width="8" height="8" rx="4" fill="#D2CEDE"/>
<rect x="956" y="536" width="8" height="8" rx="4" fill="#D2CEDE"/>
<rect x="1356" y="536" width="8" height="8" rx="4" fill="#D2CEDE"/>
<rect x="1556" y="536" width="8" height="8" rx="4" fill="#D2CEDE"/>
<rect x="56" y="586" width="8" height="8" rx="4" fill="#D2CEDE"/>
<rect x="256" y="586" width="8" height="8" rx="4" fill="#D2CEDE"/>
<rect x="456" y="586" width="8" height="8" rx="4" fill="#D2CEDE"/>
<rect x="656" y="586" width="8" height="8" rx="4" fill="#D2CEDE"/>
<rect x="856" y="586" width="8" height="8" rx="4" fill="#D2CEDE"/>
<rect x="1056" y="586" width="8" height="8" rx="4" fill="#D2CEDE"/>
<rect x="1256" y="586" width="8" height="8" rx="4" fill="#D2CEDE"/>
<rect x="1456" y="586" width="8" height="8" rx="4" fill="#D2CEDE"/>
<rect x="1656" y="586" width="8" height="8" rx="4" fill="#D2CEDE"/>
<rect x="1856" y="586" width="8" height="8" rx="4" fill="#D2CEDE"/>
<rect x="156" y="636" width="8" height="8" rx="4" fill="#D2CEDE"/>
<rect x="356" y="636" width="8" height="8" rx="4" fill="#D2CEDE"/>
<rect x="556" y="636" width="8" height="8" rx="4" fill="#D2CEDE"/>
<rect x="756" y="636" width="8" height="8" rx="4" fill="#D2CEDE"/>
<rect x="956" y="636" width="8" height="8" rx="4" fill="#D2CEDE"/>
<rect x="1156" y="636" width="8" height="8" rx="4" fill="#D2CEDE"/>
<rect x="1356" y="636" width="8" height="8" rx="4" fill="#D2CEDE"/>
<rect x="1556" y="636" width="8" height="8" rx="4" fill="#D2CEDE"/>
<rect x="1756" y="636" width="8" height="8" rx="4" fill="#D2CEDE"/>
<rect x="56" y="686" width="8" height="8" rx="4" fill="#D2CEDE"/>
<rect x="256" y="686" width="8" height="8" rx="4" fill="#D2CEDE"/>
<rect x="456" y="686" width="8" height="8" rx="4" fill="#D2CEDE"/>
<rect x="656" y="686" width="8" height="8" rx="4" fill="#D2CEDE"/>
<rect x="856" y="686" width="8" height="8" rx="4" fill="#D2CEDE"/>
<rect x="1056" y="686" width="8" height="8" rx="4" fill="#D2CEDE"/>
<rect x="1256" y="686" width="8" height="8" rx="4" fill="#D2CEDE"/>
<rect x="1456" y="686" width="8" height="8" rx="4" fill="#D2CEDE"/>
<rect x="1656" y="686" width="8" height="8" rx="4" fill="#D2CEDE"/>
<rect x="1856" y="686" width="8" height="8" rx="4" fill="#D2CEDE"/>
<rect x="156" y="736" width="8" height="8" rx="4" fill="#D2CEDE"/>
<rect x="356" y="736" width="8" height="8" rx="4" fill="#D2CEDE"/>
<rect x="556" y="736" width="8" height="8" rx="4" fill="#D2CEDE"/>
<rect x="756" y="736" width="8" height="8" rx="4" fill="#D2CEDE"/>
<rect x="956" y="736" width="8" height="8" rx="4" fill="#D2CEDE"/>
<rect x="1156" y="736" width="8" height="8" rx="4" fill="#D2CEDE"/>
<rect x="1356" y="736" width="8" height="8" rx="4" fill="#D2CEDE"/>
<rect x="1556" y="736" width="8" height="8" rx="4" fill="#D2CEDE"/>
<rect x="1756" y="736" width="8" height="8" rx="4" fill="#D2CEDE"/>
<rect x="56" y="786" width="8" height="8" rx="4" fill="#D2CEDE"/>
<rect x="256" y="786" width="8" height="8" rx="4" fill="#D2CEDE"/>
<rect x="456" y="786" width="8" height="8" rx="4" fill="#D2CEDE"/>
<rect x="656" y="786" width="8" height="8" rx="4" fill="#D2CEDE"/>
<rect x="856" y="786" width="8" height="8" rx="4" fill="#D2CEDE"/>
<rect x="1056" y="786" width="8" height="8" rx="4" fill="#D2CEDE"/>
<rect x="1256" y="786" width="8" height="8" rx="4" fill="#D2CEDE"/>
<rect x="1456" y="786" width="8" height="8" rx="4" fill="#D2CEDE"/>
<rect x="1656" y="786" width="8" height="8" rx="4" fill="#D2CEDE"/>
<rect x="1856" y="786" width="8" height="8" rx="4" fill="#D2CEDE"/>
<rect x="56" y="286" width="8" height="8" rx="4" fill="#D2CEDE"/>
<rect x="256" y="286" width="8" height="8" rx="4" fill="#D2CEDE"/>
<rect x="456" y="286" width="8" height="8" rx="4" fill="#D2CEDE"/>
<rect x="656" y="286" width="8" height="8" rx="4" fill="#D2CEDE"/>
<rect x="856" y="286" width="8" height="8" rx="4" fill="#D2CEDE"/>
<rect x="1056" y="286" width="8" height="8" rx="4" fill="#D2CEDE"/>
<rect x="1256" y="286" width="8" height="8" rx="4" fill="#D2CEDE"/>
<rect x="1456" y="286" width="8" height="8" rx="4" fill="#D2CEDE"/>
<rect x="1656" y="286" width="8" height="8" rx="4" fill="#D2CEDE"/>
<rect x="1856" y="286" width="8" height="8" rx="4" fill="#D2CEDE"/>
<rect x="156" y="36" width="8" height="8" rx="4" fill="#D2CEDE"/>
<rect x="356" y="36" width="8" height="8" rx="4" fill="#D2CEDE"/>
<rect x="556" y="36" width="8" height="8" rx="4" fill="#D2CEDE"/>
<rect x="756" y="36" width="8" height="8" rx="4" fill="#D2CEDE"/>
<rect x="956" y="36" width="8" height="8" rx="4" fill="#D2CEDE"/>
<rect x="1156" y="36" width="8" height="8" rx="4" fill="#D2CEDE"/>
<rect x="1356" y="36" width="8" height="8" rx="4" fill="#D2CEDE"/>
<rect x="1556" y="36" width="8" height="8" rx="4" fill="#D2CEDE"/>
<rect x="1756" y="36" width="8" height="8" rx="4" fill="#D2CEDE"/>
<rect x="156" y="836" width="8" height="8" rx="4" fill="#D2CEDE"/>
<rect x="356" y="836" width="8" height="8" rx="4" fill="#D2CEDE"/>
<rect x="556" y="836" width="8" height="8" rx="4" fill="#D2CEDE"/>
<rect x="756" y="836" width="8" height="8" rx="4" fill="#D2CEDE"/>
<rect x="956" y="836" width="8" height="8" rx="4" fill="#D2CEDE"/>
<rect x="1156" y="836" width="8" height="8" rx="4" fill="#D2CEDE"/>
<rect x="1356" y="836" width="8" height="8" rx="4" fill="#D2CEDE"/>
<rect x="1556" y="836" width="8" height="8" rx="4" fill="#D2CEDE"/>
<rect x="1756" y="836" width="8" height="8" rx="4" fill="#D2CEDE"/>
<rect x="156" y="336" width="8" height="8" rx="4" fill="#D2CEDE"/>
<rect x="356" y="336" width="8" height="8" rx="4" fill="#D2CEDE"/>
<rect x="556" y="336" width="8" height="8" rx="4" fill="#D2CEDE"/>
<rect x="756" y="336" width="8" height="8" rx="4" fill="#D2CEDE"/>
<rect x="956" y="336" width="8" height="8" rx="4" fill="#D2CEDE"/>
<rect x="1156" y="336" width="8" height="8" rx="4" fill="#D2CEDE"/>
<rect x="1356" y="336" width="8" height="8" rx="4" fill="#D2CEDE"/>
<rect x="1556" y="336" width="8" height="8" rx="4" fill="#D2CEDE"/>
<rect x="1756" y="336" width="8" height="8" rx="4" fill="#D2CEDE"/>
<rect x="56" y="86" width="8" height="8" rx="4" fill="#D2CEDE"/>
<rect x="256" y="86" width="8" height="8" rx="4" fill="#D2CEDE"/>
<rect x="456" y="86" width="8" height="8" rx="4" fill="#D2CEDE"/>
<rect x="656" y="86" width="8" height="8" rx="4" fill="#D2CEDE"/>
<rect x="856" y="86" width="8" height="8" rx="4" fill="#D2CEDE"/>
<rect x="1056" y="86" width="8" height="8" rx="4" fill="#D2CEDE"/>
<rect x="1256" y="86" width="8" height="8" rx="4" fill="#D2CEDE"/>
<rect x="1456" y="86" width="8" height="8" rx="4" fill="#D2CEDE"/>
<rect x="1656" y="86" width="8" height="8" rx="4" fill="#D2CEDE"/>
<rect x="1856" y="86" width="8" height="8" rx="4" fill="#D2CEDE"/>
<rect x="56" y="886" width="8" height="8" rx="4" fill="#D2CEDE"/>
<rect x="256" y="886" width="8" height="8" rx="4" fill="#D2CEDE"/>
<rect x="456" y="886" width="8" height="8" rx="4" fill="#D2CEDE"/>
<rect x="656" y="886" width="8" height="8" rx="4" fill="#D2CEDE"/>
<rect x="856" y="886" width="8" height="8" rx="4" fill="#D2CEDE"/>
<rect x="1056" y="886" width="8" height="8" rx="4" fill="#D2CEDE"/>
<rect x="1256" y="886" width="8" height="8" rx="4" fill="#D2CEDE"/>
<rect x="1456" y="886" width="8" height="8" rx="4" fill="#D2CEDE"/>
<rect x="1656" y="886" width="8" height="8" rx="4" fill="#D2CEDE"/>
<rect x="1856" y="886" width="8" height="8" rx="4" fill="#D2CEDE"/>
<rect x="56" y="386" width="8" height="8" rx="4" fill="#D2CEDE"/>
<rect x="256" y="386" width="8" height="8" rx="4" fill="#D2CEDE"/>
<rect x="456" y="386" width="8" height="8" rx="4" fill="#D2CEDE"/>
<rect x="656" y="386" width="8" height="8" rx="4" fill="#D2CEDE"/>
<rect x="856" y="386" width="8" height="8" rx="4" fill="#D2CEDE"/>
<rect x="1056" y="386" width="8" height="8" rx="4" fill="#D2CEDE"/>
<rect x="1256" y="386" width="8" height="8" rx="4" fill="#D2CEDE"/>
<rect x="1456" y="386" width="8" height="8" rx="4" fill="#D2CEDE"/>
<rect x="1656" y="386" width="8" height="8" rx="4" fill="#D2CEDE"/>
<rect x="1856" y="386" width="8" height="8" rx="4" fill="#D2CEDE"/>
<rect x="156" y="136" width="8" height="8" rx="4" fill="#D2CEDE"/>
<rect x="356" y="136" width="8" height="8" rx="4" fill="#D2CEDE"/>
<rect x="556" y="136" width="8" height="8" rx="4" fill="#D2CEDE"/>
<rect x="756" y="136" width="8" height="8" rx="4" fill="#D2CEDE"/>
<rect x="956" y="136" width="8" height="8" rx="4" fill="#D2CEDE"/>
<rect x="1156" y="136" width="8" height="8" rx="4" fill="#D2CEDE"/>
<rect x="1356" y="136" width="8" height="8" rx="4" fill="#D2CEDE"/>
<rect x="1556" y="136" width="8" height="8" rx="4" fill="#D2CEDE"/>
<rect x="1756" y="136" width="8" height="8" rx="4" fill="#D2CEDE"/>
<rect x="156" y="936" width="8" height="8" rx="4" fill="#D2CEDE"/>
<rect x="56" y="986" width="8" height="8" rx="4" fill="#D2CEDE"/>
<rect x="356" y="936" width="8" height="8" rx="4" fill="#D2CEDE"/>
<rect x="556" y="936" width="8" height="8" rx="4" fill="#D2CEDE"/>
<rect x="756" y="936" width="8" height="8" rx="4" fill="#D2CEDE"/>
<rect x="956" y="936" width="8" height="8" rx="4" fill="#D2CEDE"/>
<rect x="1156" y="936" width="8" height="8" rx="4" fill="#D2CEDE"/>
<rect x="1356" y="936" width="8" height="8" rx="4" fill="#D2CEDE"/>
<rect x="1556" y="936" width="8" height="8" rx="4" fill="#D2CEDE"/>
<rect x="1756" y="936" width="8" height="8" rx="4" fill="#D2CEDE"/>
<rect x="156" y="436" width="8" height="8" rx="4" fill="#D2CEDE"/>
<rect x="356" y="436" width="8" height="8" rx="4" fill="#D2CEDE"/>
<rect x="556" y="436" width="8" height="8" rx="4" fill="#D2CEDE"/>
<rect x="756" y="436" width="8" height="8" rx="4" fill="#D2CEDE"/>
<rect x="956" y="436" width="8" height="8" rx="4" fill="#D2CEDE"/>
<rect x="1156" y="436" width="8" height="8" rx="4" fill="#D2CEDE"/>
<rect x="1356" y="436" width="8" height="8" rx="4" fill="#D2CEDE"/>
<rect x="1556" y="436" width="8" height="8" rx="4" fill="#D2CEDE"/>
<rect x="1756" y="436" width="8" height="8" rx="4" fill="#D2CEDE"/>
<rect x="56" y="186" width="8" height="8" rx="4" fill="#D2CEDE"/>
<rect x="256" y="186" width="8" height="8" rx="4" fill="#D2CEDE"/>
<rect x="456" y="186" width="8" height="8" rx="4" fill="#D2CEDE"/>
<rect x="656" y="186" width="8" height="8" rx="4" fill="#D2CEDE"/>
<rect x="856" y="186" width="8" height="8" rx="4" fill="#D2CEDE"/>
<rect x="1056" y="186" width="8" height="8" rx="4" fill="#D2CEDE"/>
<rect x="1256" y="186" width="8" height="8" rx="4" fill="#D2CEDE"/>
<rect x="1456" y="186" width="8" height="8" rx="4" fill="#D2CEDE"/>
<rect x="1656" y="186" width="8" height="8" rx="4" fill="#D2CEDE"/>
<rect x="1856" y="186" width="8" height="8" rx="4" fill="#D2CEDE"/>
<rect x="256" y="986" width="8" height="8" rx="4" fill="#D2CEDE"/>
<rect x="156" y="1036" width="8" height="8" rx="4" fill="#D2CEDE"/>
<rect x="456" y="986" width="8" height="8" rx="4" fill="#D2CEDE"/>
<rect x="656" y="986" width="8" height="8" rx="4" fill="#D2CEDE"/>
<rect x="856" y="986" width="8" height="8" rx="4" fill="#D2CEDE"/>
<rect x="1056" y="986" width="8" height="8" rx="4" fill="#D2CEDE"/>
<rect x="1256" y="986" width="8" height="8" rx="4" fill="#D2CEDE"/>
<rect x="1456" y="986" width="8" height="8" rx="4" fill="#D2CEDE"/>
<rect x="1656" y="986" width="8" height="8" rx="4" fill="#D2CEDE"/>
<rect x="1856" y="986" width="8" height="8" rx="4" fill="#D2CEDE"/>
<rect x="356" y="1036" width="8" height="8" rx="4" fill="#D2CEDE"/>
<rect x="556" y="1036" width="8" height="8" rx="4" fill="#D2CEDE"/>
<rect x="756" y="1036" width="8" height="8" rx="4" fill="#D2CEDE"/>
<rect x="956" y="1036" width="8" height="8" rx="4" fill="#D2CEDE"/>
<rect x="1156" y="1036" width="8" height="8" rx="4" fill="#D2CEDE"/>
<rect x="1356" y="1036" width="8" height="8" rx="4" fill="#D2CEDE"/>
<rect x="1556" y="1036" width="8" height="8" rx="4" fill="#D2CEDE"/>
<rect x="1756" y="1036" width="8" height="8" rx="4" fill="#D2CEDE"/>
<rect x="56" y="486" width="8" height="8" rx="4" fill="#D2CEDE"/>
<rect x="256" y="486" width="8" height="8" rx="4" fill="#D2CEDE"/>
<rect x="456" y="486" width="8" height="8" rx="4" fill="#D2CEDE"/>
<rect x="656" y="486" width="8" height="8" rx="4" fill="#D2CEDE"/>
<rect x="856" y="486" width="8" height="8" rx="4" fill="#D2CEDE"/>
<rect x="1056" y="486" width="8" height="8" rx="4" fill="#D2CEDE"/>
<rect x="1256" y="486" width="8" height="8" rx="4" fill="#D2CEDE"/>
<rect x="1456" y="486" width="8" height="8" rx="4" fill="#D2CEDE"/>
<rect x="1656" y="486" width="8" height="8" rx="4" fill="#D2CEDE"/>
<rect x="1856" y="486" width="8" height="8" rx="4" fill="#D2CEDE"/>
<rect x="156" y="236" width="8" height="8" rx="4" fill="#D2CEDE"/>
<rect x="356" y="236" width="8" height="8" rx="4" fill="#D2CEDE"/>
<rect x="556" y="236" width="8" height="8" rx="4" fill="#D2CEDE"/>
<rect x="756" y="236" width="8" height="8" rx="4" fill="#D2CEDE"/>
<rect x="956" y="236" width="8" height="8" rx="4" fill="#D2CEDE"/>
<rect x="1156" y="236" width="8" height="8" rx="4" fill="#D2CEDE"/>
<rect x="1356" y="236" width="8" height="8" rx="4" fill="#D2CEDE"/>
<rect x="1556" y="236" width="8" height="8" rx="4" fill="#D2CEDE"/>
<rect x="1756" y="236" width="8" height="8" rx="4" fill="#D2CEDE"/>
</g>
<path fill-rule="evenodd" clip-rule="evenodd" d="M1151.89 567.625C1138.99 596.765 1132 628.72 1132 661.696V729.868C1132 812.859 1220.83 865.592 1293.69 825.851L1666.92 622.268C1676.67 616.95 1685.94 610.993 1694.68 604.464C1687.68 587.453 1677.59 571.83 1664.92 558.417C1657.37 564.296 1649.3 569.608 1640.74 574.276L1267.51 777.86C1231.08 797.73 1186.67 771.364 1186.67 729.868V661.696C1186.67 645.228 1188.95 629.093 1193.28 613.674C1177.61 599.956 1163.74 584.477 1151.89 567.625ZM1255.09 521.581C1242.41 508.168 1232.32 492.546 1225.32 475.535C1234.06 469.006 1243.33 463.049 1253.08 457.732L1626.31 254.151C1699.17 214.411 1788 267.143 1788 350.134V418.304C1788 451.279 1781.01 483.233 1768.11 512.372C1756.26 495.52 1742.39 480.041 1726.73 466.323C1731.06 450.904 1733.33 434.771 1733.33 418.304V350.134C1733.33 308.639 1688.92 282.272 1652.49 302.142L1279.26 505.723C1270.7 510.391 1262.63 515.703 1255.09 521.581Z" fill="#F5F1FF"/>
<path fill-rule="evenodd" clip-rule="evenodd" d="M1186.67 350.131C1186.67 308.636 1231.08 282.269 1267.51 302.139L1374.38 360.43L1431.46 329.295L1293.69 254.148C1220.83 214.408 1132 267.14 1132 350.131V418.304C1132 503.325 1178.44 581.556 1253.08 622.268L1374.38 688.431L1431.46 657.296L1279.26 574.276C1222.18 543.143 1186.67 483.32 1186.67 418.304V350.131ZM1545.62 719.567L1488.54 750.702L1626.31 825.849C1699.17 865.589 1788 812.857 1788 729.866V661.693C1788 576.672 1741.56 498.441 1666.92 457.729L1545.62 391.565L1488.54 422.7L1640.74 505.72C1697.82 536.854 1733.33 596.677 1733.33 661.693V729.866C1733.33 771.361 1688.92 797.728 1652.49 777.858L1545.62 719.567Z" fill="#F5F1FF"/>
<g opacity="0.5">
<path fill-rule="evenodd" clip-rule="evenodd" d="M1151.89 567.625C1138.99 596.765 1132 628.72 1132 661.696V729.868C1132 812.859 1220.83 865.592 1293.69 825.851L1666.92 622.268C1676.67 616.95 1685.94 610.993 1694.68 604.464C1687.68 587.453 1677.59 571.83 1664.92 558.417C1657.37 564.296 1649.3 569.608 1640.74 574.276L1267.51 777.86C1231.08 797.73 1186.67 771.364 1186.67 729.868V661.696C1186.67 645.228 1188.95 629.093 1193.28 613.674C1177.61 599.956 1163.74 584.477 1151.89 567.625ZM1255.09 521.581C1242.41 508.168 1232.32 492.546 1225.32 475.535C1234.06 469.006 1243.33 463.049 1253.08 457.732L1626.31 254.151C1699.17 214.411 1788 267.143 1788 350.134V418.304C1788 451.279 1781.01 483.233 1768.11 512.372C1756.26 495.52 1742.39 480.041 1726.73 466.323C1731.06 450.904 1733.33 434.771 1733.33 418.304V350.134C1733.33 308.639 1688.92 282.272 1652.49 302.142L1279.26 505.723C1270.7 510.391 1262.63 515.703 1255.09 521.581Z" fill="#08001B"/>
<path fill-rule="evenodd" clip-rule="evenodd" d="M1186.67 350.131C1186.67 308.636 1231.08 282.269 1267.51 302.139L1374.38 360.43L1431.46 329.295L1293.69 254.148C1220.83 214.408 1132 267.14 1132 350.131V418.304C1132 503.325 1178.44 581.556 1253.08 622.268L1374.38 688.431L1431.46 657.296L1279.26 574.276C1222.18 543.143 1186.67 483.32 1186.67 418.304V350.131ZM1545.62 719.567L1488.54 750.702L1626.31 825.849C1699.17 865.589 1788 812.857 1788 729.866V661.693C1788 576.672 1741.56 498.441 1666.92 457.729L1545.62 391.565L1488.54 422.7L1640.74 505.72C1697.82 536.854 1733.33 596.677 1733.33 661.693V729.866C1733.33 771.361 1688.92 797.728 1652.49 777.858L1545.62 719.567Z" fill="url(#paint1_linear_2908_479)"/>
</g>
</g>
<defs>
<radialGradient id="paint0_radial_2908_479" cx="0" cy="0" r="1" gradientUnits="userSpaceOnUse" gradientTransform="translate(1560 634) rotate(90) scale(740 1315.56)">
<stop stop-color="#D9D9D9"/>
<stop offset="1" stop-color="#D9D9D9" stop-opacity="0.32"/>
</radialGradient>
<linearGradient id="paint1_linear_2908_479" x1="1296" y1="203.224" x2="1577.74" y2="859.22" gradientUnits="userSpaceOnUse">
<stop stop-color="#FF00AA"/>
<stop offset="1" stop-color="#FFAA00"/>
</linearGradient>
<clipPath id="clip0_2908_479">
<rect width="1920" height="1080" fill="white"/>
</clipPath>
</defs>
</svg>
