<svg width="1440" height="480" viewBox="0 0 1440 480" fill="none" xmlns="http://www.w3.org/2000/svg">
<g clip-path="url(#clip0_2402_981)">
<rect width="1440" height="480" fill="#E4E4E7"/>
<path d="M1262.43 234.142L1227.07 269.497C1223.17 273.403 1223.17 279.734 1227.07 283.64L1269.5 326.066C1273.4 329.971 1279.73 329.971 1283.64 326.066L1318.99 290.711M1262.43 234.142L1269.5 227.071C1273.4 223.166 1279.73 223.166 1283.64 227.071L1326.07 269.497C1329.97 273.403 1329.97 279.734 1326.07 283.64L1318.99 290.711M1262.43 234.142L1318.99 290.711" stroke="#2D2D2F" stroke-width="4" stroke-miterlimit="5.75877" stroke-linecap="square"/>
<path d="M830.981 228.301L848.301 238.301M833.66 183.66L885.622 213.66L870.622 239.641L818.66 209.641L833.66 183.66ZM808.66 226.962L860.622 256.962C865.405 259.723 871.521 258.084 874.282 253.301L894.282 218.66C897.043 213.877 895.405 207.761 890.622 205L838.66 175C833.877 172.239 827.761 173.877 825 178.66L805 213.301C802.239 218.084 803.877 224.2 808.66 226.962Z" stroke="#2D2D2F" stroke-width="4" stroke-miterlimit="5.75877" stroke-linecap="square"/>
<path d="M745 -245L745 -239C745 -234.029 740.971 -230 736 -230L735 -230L735 -229C735 -226.791 733.209 -225 731 -225L729 -225C726.791 -225 725 -226.791 725 -229L725 -230L715 -230L715 20L725 20L725 19C725 16.7909 726.791 15 729 15L731 15C733.209 15 735 16.7909 735 19L735 20L736 20C740.971 20 745 24.0294 745 29L745 35L615 35L615 29C615 24.0294 619.029 20 624 20L625 20L625 19C625 16.7909 626.791 15 629 15L631 15C633.209 15 635 16.7909 635 19L635 20L645 20L645 -230L635 -230L635 -229C635 -226.791 633.209 -225 631 -225L629 -225C626.791 -225 625 -226.791 625 -229L625 -230L624 -230C619.029 -230 615 -234.029 615 -239L615 -245L745 -245Z" fill="#E4E4E7"/>
<path d="M715 -230L725 -230L725 -229C725 -226.791 726.791 -225 729 -225L731 -225C733.209 -225 735 -226.791 735 -229L735 -230L736 -230C740.971 -230 745 -234.029 745 -239L745 -245L615 -245L615 -239C615 -234.029 619.029 -230 624 -230L625 -230L625 -229C625 -226.791 626.791 -225 629 -225L631 -225C633.209 -225 635 -226.791 635 -229L635 -230L645 -230M715 -230L715 20M715 -230L645 -230M715 20L725 20L725 19C725 16.7909 726.791 15 729 15L731 15C733.209 15 735 16.7909 735 19L735 20L736 20C740.971 20 745 24.0294 745 29L745 35L615 35L615 29C615 24.0294 619.029 20 624 20L625 20L625 19C625 16.7909 626.791 15 629 15L631 15C633.209 15 635 16.7909 635 19L635 20L645 20M715 20L645 20M645 20L645 -230" stroke="#ADADAF" stroke-width="4"/>
<path d="M145 -213.334L145 -208.227C145 -203.256 140.971 -199.227 136 -199.227L135 -199.227L135 -198.524C135 -196.315 133.209 -194.524 131 -194.524L129 -194.524C126.791 -194.524 125 -196.315 125 -198.524L125 -199.227L115 -199.227L115 35.8924L125 35.8924L125 35.1901C125 32.9809 126.791 31.1901 129 31.1901L131 31.1901C133.209 31.1901 135 32.9809 135 35.1901L135 35.8924L136 35.8924C140.971 35.8924 145 39.9219 145 44.8925L145 49.9996L15 49.9996L15 44.8925C15 39.9219 19.0294 35.8924 24 35.8924L25 35.8924L25 35.1901C25 32.9809 26.7909 31.1901 29 31.1901L31 31.1901C33.2091 31.1901 35 32.9809 35 35.1901L35 35.8924L45 35.8924L45 -199.227L35 -199.227L35 -198.524C35 -196.315 33.2092 -194.524 31 -194.524L29 -194.524C26.7909 -194.524 25 -196.315 25 -198.524L25 -199.227L24 -199.227C19.0294 -199.227 15 -203.256 15 -208.227L15 -213.334L145 -213.334Z" fill="#E4E4E7"/>
<path d="M115 -199.227L125 -199.227L125 -198.524C125 -196.315 126.791 -194.524 129 -194.524L131 -194.524C133.209 -194.524 135 -196.315 135 -198.524L135 -199.227L136 -199.227C140.971 -199.227 145 -203.256 145 -208.227L145 -213.334L15 -213.334L15 -208.227C15 -203.256 19.0294 -199.227 24 -199.227L25 -199.227L25 -198.524C25 -196.315 26.7909 -194.524 29 -194.524L31 -194.524C33.2091 -194.524 35 -196.315 35 -198.524L35 -199.227L45 -199.227M115 -199.227L115 35.8924M115 -199.227L45 -199.227M115 35.8924L125 35.8924L125 35.1901C125 32.9809 126.791 31.1901 129 31.1901L131 31.1901C133.209 31.1901 135 32.9809 135 35.1901L135 35.8924L136 35.8924C140.971 35.8924 145 39.9219 145 44.8924L145 49.9996L15 49.9996L15 44.8924C15 39.9219 19.0294 35.8924 24 35.8924L25 35.8924L25 35.1901C25 32.9809 26.7909 31.1901 29 31.1901L31 31.1901C33.2091 31.1901 35 32.9809 35 35.1901L35 35.8924L45 35.8924M115 35.8924L45 35.8924M45 35.8924L45 -199.227" stroke="#6D6D6F" stroke-width="4"/>
<path d="M1425 -148.333L1425 -143.226C1425 -138.256 1420.97 -134.226 1416 -134.226L1415 -134.226L1415 -133.524C1415 -131.315 1413.21 -129.524 1411 -129.524L1409 -129.524C1406.79 -129.524 1405 -131.315 1405 -133.524L1405 -134.226L1395 -134.226L1395 100.893L1405 100.893L1405 100.191C1405 97.9814 1406.79 96.1906 1409 96.1906L1411 96.1906C1413.21 96.1906 1415 97.9814 1415 100.191L1415 100.893L1416 100.893C1420.97 100.893 1425 104.922 1425 109.893L1425 115L1295 115L1295 109.893C1295 104.922 1299.03 100.893 1304 100.893L1305 100.893L1305 100.191C1305 97.9814 1306.79 96.1906 1309 96.1906L1311 96.1906C1313.21 96.1906 1315 97.9814 1315 100.191L1315 100.893L1325 100.893L1325 -134.226L1315 -134.226L1315 -133.524C1315 -131.315 1313.21 -129.524 1311 -129.524L1309 -129.524C1306.79 -129.524 1305 -131.315 1305 -133.524L1305 -134.226L1304 -134.226C1299.03 -134.226 1295 -138.256 1295 -143.226L1295 -148.333L1425 -148.333Z" fill="#E4E4E7"/>
<path d="M1395 -134.226L1405 -134.226L1405 -133.524C1405 -131.315 1406.79 -129.524 1409 -129.524L1411 -129.524C1413.21 -129.524 1415 -131.315 1415 -133.524L1415 -134.226L1416 -134.226C1420.97 -134.226 1425 -138.256 1425 -143.226L1425 -148.333L1295 -148.333L1295 -143.226C1295 -138.256 1299.03 -134.226 1304 -134.226L1305 -134.226L1305 -133.524C1305 -131.315 1306.79 -129.524 1309 -129.524L1311 -129.524C1313.21 -129.524 1315 -131.315 1315 -133.524L1315 -134.226L1325 -134.226M1395 -134.226L1395 100.893M1395 -134.226L1325 -134.226M1395 100.893L1405 100.893L1405 100.191C1405 97.9814 1406.79 96.1906 1409 96.1906L1411 96.1906C1413.21 96.1906 1415 97.9814 1415 100.191L1415 100.893L1416 100.893C1420.97 100.893 1425 104.922 1425 109.893L1425 115L1295 115L1295 109.893C1295 104.922 1299.03 100.893 1304 100.893L1305 100.893L1305 100.191C1305 97.9814 1306.79 96.1906 1309 96.1906L1311 96.1906C1313.21 96.1906 1315 97.9814 1315 100.191L1315 100.893L1325 100.893M1395 100.893L1325 100.893M1325 100.893L1325 -134.226" stroke="#6D6D6F" stroke-width="4"/>
<path d="M1270 -165L1270 -159C1270 -154.029 1265.97 -150 1261 -150L1260 -150L1260 -149C1260 -146.791 1258.21 -145 1256 -145L1254 -145C1251.79 -145 1250 -146.791 1250 -149L1250 -150L1240 -150L1240 100L1250 100L1250 99C1250 96.7909 1251.79 95 1254 95L1256 95C1258.21 95 1260 96.7909 1260 99L1260 100L1261 100C1265.97 100 1270 104.029 1270 109L1270 115L1140 115L1140 109C1140 104.029 1144.03 100 1149 100L1150 100L1150 99C1150 96.7909 1151.79 95 1154 95L1156 95C1158.21 95 1160 96.7909 1160 99L1160 100L1170 100L1170 -150L1160 -150L1160 -149C1160 -146.791 1158.21 -145 1156 -145L1154 -145C1151.79 -145 1150 -146.791 1150 -149L1150 -150L1149 -150C1144.03 -150 1140 -154.029 1140 -159L1140 -165L1270 -165Z" fill="#E4E4E7"/>
<path d="M1240 -150L1250 -150L1250 -149C1250 -146.791 1251.79 -145 1254 -145L1256 -145C1258.21 -145 1260 -146.791 1260 -149L1260 -150L1261 -150C1265.97 -150 1270 -154.029 1270 -159L1270 -165L1140 -165L1140 -159C1140 -154.029 1144.03 -150 1149 -150L1150 -150L1150 -149C1150 -146.791 1151.79 -145 1154 -145L1156 -145C1158.21 -145 1160 -146.791 1160 -149L1160 -150L1170 -150M1240 -150L1240 100M1240 -150L1170 -150M1240 100L1250 100L1250 99C1250 96.7909 1251.79 95 1254 95L1256 95C1258.21 95 1260 96.7909 1260 99L1260 100L1261 100C1265.97 100 1270 104.029 1270 109L1270 115L1140 115L1140 109C1140 104.029 1144.03 100 1149 100L1150 100L1150 99C1150 96.7909 1151.79 95 1154 95L1156 95C1158.21 95 1160 96.7909 1160 99L1160 100L1170 100M1240 100L1170 100M1170 100L1170 -150" stroke="#2D2D2F" stroke-width="4"/>
<path d="M935 -245L935 -239C935 -234.029 930.971 -230 926 -230L925 -230L925 -229C925 -226.791 923.209 -225 921 -225L919 -225C916.791 -225 915 -226.791 915 -229L915 -230L905 -230L905 20L915 20L915 19C915 16.7909 916.791 15 919 15L921 15C923.209 15 925 16.7909 925 19L925 20L926 20C930.971 20 935 24.0294 935 29L935 35L805 35L805 29C805 24.0294 809.029 20 814 20L815 20L815 19C815 16.7909 816.791 15 819 15L821 15C823.209 15 825 16.7909 825 19L825 20L835 20L835 -230L825 -230L825 -229C825 -226.791 823.209 -225 821 -225L819 -225C816.791 -225 815 -226.791 815 -229L815 -230L814 -230C809.029 -230 805 -234.029 805 -239L805 -245L935 -245Z" fill="#E4E4E7"/>
<path d="M905 -230L915 -230L915 -229C915 -226.791 916.791 -225 919 -225L921 -225C923.209 -225 925 -226.791 925 -229L925 -230L926 -230C930.971 -230 935 -234.029 935 -239L935 -245L805 -245L805 -239C805 -234.029 809.029 -230 814 -230L815 -230L815 -229C815 -226.791 816.791 -225 819 -225L821 -225C823.209 -225 825 -226.791 825 -229L825 -230L835 -230M905 -230L905 20M905 -230L835 -230M905 20L915 20L915 19C915 16.7909 916.791 15 919 15L921 15C923.209 15 925 16.7909 925 19L925 20L926 20C930.971 20 935 24.0294 935 29L935 35L805 35L805 29C805 24.0294 809.029 20 814 20L815 20L815 19C815 16.7909 816.791 15 819 15L821 15C823.209 15 825 16.7909 825 19L825 20L835 20M905 20L835 20M835 20L835 -230" stroke="#ADADAF" stroke-width="4"/>
<path d="M590 40H960V110H940H610H590V40Z" fill="#E4E4E7"/>
<path d="M610 110V130L560 180V200H990V180L940 130V110H610Z" fill="#E4E4E7"/>
<path d="M610 110H590V40H960V110H940M610 110V130L560 180V200H990V180L940 130V110M610 110H940" stroke="#CC8800" stroke-width="4"/>
<path d="M610 60V75M610 90V75M610 75H620M620 75V60M620 75V90M630 60H635M640 60H635M635 60V90M635 90H630M635 90H640M645 75H655M680 90V80M685 80L690 75V65C690 62.2386 687.761 60 685 60V60C682.239 60 680 62.2386 680 65V80M685 80L690 85V90M685 80H680M705 75L710 70V65C710 62.2386 707.761 60 705 60V60C702.239 60 700 62.2386 700 65V70L705 75ZM705 75L700 80V85C700 87.7614 702.239 90 705 90V90C707.761 90 710 87.7614 710 85V80L705 75ZM660 60V90H661C665.971 90 670 85.9706 670 81V69C670 64.0294 665.971 60 661 60H660Z" stroke="#CC8800" stroke-width="4" stroke-miterlimit="5.75877" stroke-linecap="square"/>
<path d="M921.094 73.359L930 60L938.906 73.359C943.648 80.4722 938.549 90 930 90C921.451 90 916.352 80.4722 921.094 73.359Z" stroke="#CC8800" stroke-width="4" stroke-miterlimit="5.75877" stroke-linecap="square" stroke-linejoin="bevel"/>
<path d="M-180 120H-200V50H170V120H150M-180 120V140L-230 190V210H200V190L150 140V120M-180 120H150" stroke="#CC8800" stroke-width="4"/>
<path d="M131.094 83.359L140 70L148.906 83.359C153.648 90.4722 148.549 100 140 100C131.451 100 126.352 90.4722 131.094 83.359Z" stroke="#CC8800" stroke-width="4" stroke-miterlimit="5.75877" stroke-linecap="square" stroke-linejoin="bevel"/>
<path d="M1120 115H1490V185H1470H1140H1120V115Z" fill="#E4E4E7"/>
<path d="M1140 185V205L1090 255V275H1520V255L1470 205V185H1140Z" fill="#E4E4E7"/>
<path d="M1140 185H1120V115H1490V185H1470M1140 185V205L1090 255V275H1520V255L1470 205V185M1140 185H1470" stroke="#CC8800" stroke-width="4"/>
<path d="M1140 135V150M1140 165V150M1140 150H1150M1150 150V135M1150 150V165M1160 135H1165M1170 135H1165M1165 135V165M1165 165H1160M1165 165H1170M1175 150H1185M1210 165V155M1215 155L1220 150V140C1220 137.239 1217.76 135 1215 135V135C1212.24 135 1210 137.239 1210 140V155M1215 155L1220 160V165M1215 155H1210M1235 150L1240 145V140C1240 137.239 1237.76 135 1235 135V135C1232.24 135 1230 137.239 1230 140V145L1235 150ZM1235 150L1230 155V160C1230 162.761 1232.24 165 1235 165V165C1237.76 165 1240 162.761 1240 160V155L1235 150ZM1190 135V165H1191C1195.97 165 1200 160.971 1200 156V144C1200 139.029 1195.97 135 1191 135H1190Z" stroke="#CC8800" stroke-width="4" stroke-miterlimit="5.75877" stroke-linecap="square"/>
<path d="M615.359 292.68L640.359 335.981C643.12 340.764 649.236 342.402 654.019 339.641L705.981 309.641C710.764 306.88 712.402 300.764 709.641 295.981L684.641 252.68M615.359 292.68L610.359 284.019C607.597 279.236 609.236 273.12 614.019 270.359L665.981 240.359C670.764 237.598 676.879 239.236 679.641 244.019L684.641 252.68M615.359 292.68L684.641 252.68" stroke="#ADADAF" stroke-width="4" stroke-miterlimit="5.75877" stroke-linecap="square"/>
<path d="M1169.5 357.071L1127.07 399.498C1123.17 403.403 1123.17 409.734 1127.07 413.64L1155.36 441.924C1159.26 445.829 1165.59 445.829 1169.5 441.924L1211.92 399.498C1215.83 395.592 1215.83 389.261 1211.92 385.355L1183.64 357.071C1179.73 353.166 1173.4 353.166 1169.5 357.071Z" stroke="#2D2D2F" stroke-width="4" stroke-miterlimit="5.75877" stroke-linecap="square"/>
<path d="M1148.28 434.853V406.569L1151.82 403.033H1208.39" stroke="#2D2D2F" stroke-width="4" stroke-miterlimit="5.75877" stroke-linecap="square"/>
<path d="M1180.1 367.678C1182.06 369.63 1182.06 372.796 1180.1 374.749C1178.15 376.701 1174.99 376.701 1173.03 374.749C1171.08 372.796 1171.08 369.63 1173.03 367.678C1174.99 365.725 1178.15 365.725 1180.1 367.678Z" stroke="#2D2D2F" stroke-width="4"/>
<path d="M922.426 410.001L880 367.574C876.095 363.669 869.763 363.669 865.858 367.574L837.573 395.858C833.668 399.764 833.668 406.095 837.573 410.001L880 452.427C883.905 456.332 890.237 456.332 894.142 452.427L922.426 424.143C926.331 420.237 926.331 413.906 922.426 410.001Z" stroke="#6D6D6F" stroke-width="4" stroke-miterlimit="5.75877" stroke-linecap="square"/>
<path d="M857.372 415.657L855.958 417.072L858.787 419.9L860.201 418.486L857.372 415.657ZM869.393 406.465L868.605 404.627L868.251 404.778L867.979 405.051L869.393 406.465ZM894.142 395.858L895.98 396.646L893.354 394.02L894.142 395.858ZM883.535 420.607L884.949 422.021L885.222 421.749L885.374 421.395L883.535 420.607ZM871.514 429.8L870.1 431.214L872.929 434.042L874.343 432.628L871.514 429.8ZM860.201 418.486L870.807 407.879L867.979 405.051L857.372 415.657L860.201 418.486ZM882.121 419.193L871.514 429.8L874.343 432.628L884.949 422.021L882.121 419.193ZM870.181 408.303L894.93 397.697L893.354 394.02L868.605 404.627L870.181 408.303ZM867.979 407.879L882.121 422.021L884.949 419.193L870.807 405.051L867.979 407.879ZM892.304 395.071L881.697 419.819L885.374 421.395L895.98 396.646L892.304 395.071Z" fill="#6D6D6F"/>
<path d="M71.3396 502.321L88.6602 492.321M34.0191 477.68L85.9807 447.68L100.981 473.661L49.0191 503.661L34.0191 477.68ZM59.0191 520.981L110.981 490.981C115.764 488.22 117.402 482.104 114.641 477.321L94.6409 442.68C91.8795 437.897 85.7636 436.258 80.9807 439.02L29.0191 469.02C24.2362 471.781 22.5975 477.897 25.3589 482.68L45.3589 517.321C48.1203 522.104 54.2362 523.743 59.0191 520.981Z" stroke="#2D2D2F" stroke-width="4" stroke-miterlimit="5.75877" stroke-linecap="square"/>
<path d="M136.742 278.786L78.7867 263.257C73.452 261.828 67.9687 264.994 66.5393 270.328L56.1865 308.965C54.7571 314.3 57.9229 319.783 63.2576 321.213L121.213 336.742C126.548 338.171 132.031 335.005 133.461 329.671L143.813 291.034C145.243 285.699 142.077 280.216 136.742 278.786Z" stroke="#6D6D6F" stroke-width="4" stroke-miterlimit="5.75877" stroke-linecap="square"/>
<path d="M58.7748 299.306L83.2697 285.164L88.0993 286.458L116.384 335.448" stroke="#6D6D6F" stroke-width="4" stroke-miterlimit="5.75877" stroke-linecap="square"/>
<path d="M132.86 293.275C132.145 295.942 129.403 297.525 126.736 296.811C124.069 296.096 122.486 293.354 123.201 290.687C123.915 288.02 126.657 286.437 129.324 287.151C131.992 287.866 133.575 290.608 132.86 293.275Z" stroke="#6D6D6F" stroke-width="4"/>
<path d="M1456.74 458.786L1398.79 443.257C1393.45 441.828 1387.97 444.994 1386.54 450.328L1376.19 488.965C1374.76 494.3 1377.92 499.783 1383.26 501.213L1441.21 516.742C1446.55 518.171 1452.03 515.005 1453.46 509.671L1463.81 471.034C1465.24 465.699 1462.08 460.216 1456.74 458.786Z" stroke="#ADADAF" stroke-width="4" stroke-miterlimit="5.75877" stroke-linecap="square"/>
<path d="M1378.77 479.306L1403.27 465.164L1408.1 466.458L1436.38 515.448" stroke="#ADADAF" stroke-width="4" stroke-miterlimit="5.75877" stroke-linecap="square"/>
<path d="M1452.86 473.275C1452.15 475.942 1449.4 477.525 1446.74 476.811C1444.07 476.096 1442.49 473.354 1443.2 470.687C1443.92 468.02 1446.66 466.437 1449.32 467.151C1451.99 467.866 1453.57 470.608 1452.86 473.275Z" stroke="#ADADAF" stroke-width="4"/>
</g>
<defs>
<clipPath id="clip0_2402_981">
<rect width="1440" height="480" fill="white"/>
</clipPath>
</defs>
</svg>
