<svg width="900" height="210" viewBox="0 0 900 210" fill="none" xmlns="http://www.w3.org/2000/svg">
<rect width="32" height="32" transform="translate(459 54)" fill="#CC8800"/>
<path d="M467 72L471 76L483 64" stroke="#F8F8FA" stroke-width="4" stroke-linecap="square"/>
<path d="M502.004 75V64.8182H505.822C506.605 64.8182 507.261 64.964 507.791 65.2557C508.325 65.5473 508.728 65.9484 508.999 66.4588C509.274 66.9659 509.412 67.5426 509.412 68.1889C509.412 68.8419 509.274 69.4219 508.999 69.929C508.724 70.4361 508.318 70.8355 507.781 71.1271C507.244 71.4155 506.583 71.5597 505.798 71.5597H503.267V70.0433H505.549C506.006 70.0433 506.381 69.9638 506.673 69.8047C506.964 69.6456 507.18 69.4268 507.319 69.1484C507.461 68.87 507.533 68.5502 507.533 68.1889C507.533 67.8277 507.461 67.5095 507.319 67.2344C507.18 66.9593 506.963 66.7455 506.668 66.593C506.376 66.4373 506 66.3594 505.539 66.3594H503.849V75H502.004ZM512.734 64.8182V75H510.934V64.8182H512.734ZM516.782 75.1541C516.298 75.1541 515.863 75.0679 515.475 74.8956C515.09 74.7199 514.785 74.4614 514.56 74.12C514.338 73.7786 514.227 73.3577 514.227 72.8572C514.227 72.4264 514.306 72.0701 514.466 71.7884C514.625 71.5066 514.842 71.2812 515.117 71.1122C515.392 70.9432 515.702 70.8156 516.047 70.7294C516.395 70.6399 516.754 70.5753 517.125 70.5355C517.573 70.4891 517.936 70.4477 518.214 70.4112C518.493 70.3714 518.695 70.3118 518.821 70.2322C518.95 70.1494 519.015 70.0218 519.015 69.8494V69.8196C519.015 69.4451 518.904 69.1551 518.681 68.9496C518.459 68.7441 518.14 68.6413 517.722 68.6413C517.281 68.6413 516.931 68.7375 516.673 68.9297C516.418 69.1219 516.245 69.349 516.156 69.6108L514.475 69.3722C514.608 68.9081 514.827 68.5204 515.132 68.2088C515.437 67.8939 515.81 67.6586 516.25 67.5028C516.691 67.3438 517.178 67.2642 517.712 67.2642C518.08 67.2642 518.446 67.3073 518.811 67.3935C519.175 67.4796 519.508 67.6222 519.81 67.821C520.112 68.0166 520.354 68.2834 520.536 68.6214C520.721 68.9595 520.814 69.3821 520.814 69.8892V75H519.084V73.951H519.025C518.915 74.1631 518.761 74.362 518.562 74.5476C518.367 74.7299 518.12 74.8774 517.821 74.9901C517.526 75.0994 517.18 75.1541 516.782 75.1541ZM517.25 73.8317C517.611 73.8317 517.924 73.7604 518.189 73.6179C518.454 73.4721 518.658 73.2798 518.801 73.0412C518.947 72.8026 519.02 72.5424 519.02 72.2607V71.3608C518.963 71.4072 518.867 71.4503 518.731 71.4901C518.599 71.5298 518.449 71.5646 518.284 71.5945C518.118 71.6243 517.954 71.6508 517.792 71.674C517.629 71.6972 517.488 71.7171 517.369 71.7337C517.1 71.7701 516.86 71.8298 516.648 71.9126C516.436 71.9955 516.269 72.1115 516.146 72.2607C516.023 72.4065 515.962 72.5954 515.962 72.8274C515.962 73.1589 516.083 73.4091 516.325 73.5781C516.567 73.7472 516.875 73.8317 517.25 73.8317ZM523.469 77.8636C523.224 77.8636 522.997 77.8438 522.788 77.804C522.583 77.7675 522.418 77.7244 522.296 77.6747L522.713 76.2727C522.975 76.349 523.209 76.3854 523.414 76.3821C523.62 76.3788 523.801 76.3142 523.956 76.1882C524.115 76.0656 524.25 75.8601 524.359 75.5717L524.513 75.1591L521.744 67.3636H523.653L525.413 73.1307H525.493L527.257 67.3636H529.172L526.114 75.9247C525.971 76.3291 525.783 76.6754 525.547 76.9638C525.312 77.2554 525.024 77.4775 524.682 77.63C524.344 77.7857 523.94 77.8636 523.469 77.8636ZM539.925 69.3821L538.284 69.5611C538.238 69.3954 538.157 69.2396 538.041 69.0938C537.928 68.9479 537.776 68.8303 537.583 68.7408C537.391 68.6513 537.156 68.6065 536.877 68.6065C536.503 68.6065 536.188 68.6877 535.933 68.8501C535.681 69.0125 535.557 69.223 535.56 69.4815C535.557 69.7036 535.638 69.8842 535.804 70.0234C535.973 70.1626 536.251 70.277 536.639 70.3665L537.941 70.6449C538.664 70.8007 539.201 71.0476 539.552 71.3857C539.907 71.7237 540.086 72.1662 540.089 72.7131C540.086 73.1937 539.945 73.6179 539.667 73.9858C539.391 74.3504 539.009 74.6354 538.518 74.8409C538.028 75.0464 537.464 75.1491 536.828 75.1491C535.893 75.1491 535.141 74.9536 534.571 74.5625C534.001 74.1681 533.661 73.6196 533.551 72.9169L535.306 72.7479C535.386 73.0926 535.555 73.3527 535.814 73.5284C536.072 73.7041 536.408 73.7919 536.823 73.7919C537.25 73.7919 537.593 73.7041 537.852 73.5284C538.114 73.3527 538.245 73.1357 538.245 72.8771C538.245 72.6584 538.16 72.4777 537.991 72.3352C537.825 72.1927 537.567 72.0833 537.216 72.0071L535.913 71.7337C535.181 71.5812 534.639 71.3243 534.287 70.9631C533.936 70.5985 533.762 70.1378 533.765 69.581C533.762 69.1103 533.89 68.7027 534.148 68.358C534.41 68.0099 534.773 67.7415 535.237 67.5526C535.704 67.3603 536.243 67.2642 536.853 67.2642C537.748 67.2642 538.452 67.4548 538.966 67.8359C539.483 68.2171 539.802 68.7325 539.925 69.3821ZM544.904 75.1491C544.158 75.1491 543.512 74.9851 542.965 74.657C542.418 74.3288 541.994 73.8698 541.692 73.2798C541.394 72.6899 541.245 72.0005 541.245 71.2116C541.245 70.4228 541.394 69.7318 541.692 69.1385C541.994 68.5452 542.418 68.0845 542.965 67.7564C543.512 67.4283 544.158 67.2642 544.904 67.2642C545.65 67.2642 546.296 67.4283 546.843 67.7564C547.39 68.0845 547.813 68.5452 548.111 69.1385C548.412 69.7318 548.563 70.4228 548.563 71.2116C548.563 72.0005 548.412 72.6899 548.111 73.2798C547.813 73.8698 547.39 74.3288 546.843 74.657C546.296 74.9851 545.65 75.1491 544.904 75.1491ZM544.914 73.7074C545.318 73.7074 545.656 73.5964 545.928 73.3743C546.2 73.1489 546.402 72.8473 546.535 72.4695C546.671 72.0916 546.739 71.6707 546.739 71.2067C546.739 70.7393 546.671 70.3168 546.535 69.9389C546.402 69.5578 546.2 69.2545 545.928 69.0291C545.656 68.8037 545.318 68.6911 544.914 68.6911C544.5 68.6911 544.155 68.8037 543.88 69.0291C543.608 69.2545 543.404 69.5578 543.268 69.9389C543.136 70.3168 543.07 70.7393 543.07 71.2067C543.07 71.6707 543.136 72.0916 543.268 72.4695C543.404 72.8473 543.608 73.1489 543.88 73.3743C544.155 73.5964 544.5 73.7074 544.914 73.7074ZM554.958 71.7884V67.3636H556.758V75H555.013V73.6428H554.933C554.761 74.0703 554.477 74.42 554.083 74.6918C553.692 74.9635 553.21 75.0994 552.636 75.0994C552.136 75.0994 551.693 74.9884 551.309 74.7663C550.928 74.541 550.629 74.2145 550.414 73.7869C550.198 73.3561 550.091 72.8357 550.091 72.2259V67.3636H551.89V71.9474C551.89 72.4313 552.023 72.8158 552.288 73.1009C552.553 73.3859 552.901 73.5284 553.332 73.5284C553.597 73.5284 553.854 73.4638 554.103 73.3345C554.351 73.2053 554.555 73.013 554.714 72.7578C554.877 72.4993 554.958 72.1761 554.958 71.7884ZM560.408 70.5256V75H558.608V67.3636H560.328V68.6612H560.418C560.594 68.2337 560.874 67.8939 561.258 67.642C561.646 67.3902 562.125 67.2642 562.695 67.2642C563.222 67.2642 563.681 67.3769 564.072 67.6023C564.467 67.8277 564.771 68.1541 564.987 68.5817C565.206 69.0092 565.313 69.5279 565.31 70.1378V75H563.51V70.4162C563.51 69.9058 563.378 69.5064 563.113 69.218C562.851 68.9297 562.488 68.7855 562.024 68.7855C561.709 68.7855 561.429 68.8551 561.184 68.9943C560.942 69.1302 560.751 69.3274 560.612 69.5859C560.476 69.8445 560.408 70.1577 560.408 70.5256ZM569.973 75.1342C569.373 75.1342 568.837 74.9801 568.363 74.6719C567.889 74.3636 567.514 73.9162 567.239 73.3295C566.964 72.7429 566.826 72.0303 566.826 71.1918C566.826 70.3433 566.966 69.6274 567.244 69.044C567.526 68.4574 567.905 68.0149 568.382 67.7166C568.86 67.415 569.392 67.2642 569.978 67.2642C570.426 67.2642 570.794 67.3404 571.082 67.4929C571.37 67.642 571.599 67.8227 571.768 68.0348C571.937 68.2436 572.068 68.4408 572.161 68.6264H572.235V64.8182H574.04V75H572.27V73.7969H572.161C572.068 73.9825 571.934 74.1797 571.758 74.3885C571.583 74.594 571.35 74.7696 571.062 74.9155C570.774 75.0613 570.411 75.1342 569.973 75.1342ZM570.475 73.6577C570.857 73.6577 571.181 73.5549 571.45 73.3494C571.718 73.1406 571.922 72.8506 572.061 72.4794C572.201 72.1082 572.27 71.6757 572.27 71.1818C572.27 70.688 572.201 70.2588 572.061 69.8942C571.926 69.5296 571.723 69.2462 571.455 69.044C571.19 68.8419 570.863 68.7408 570.475 68.7408C570.074 68.7408 569.74 68.8452 569.471 69.054C569.203 69.2628 569.001 69.5511 568.865 69.919C568.729 70.2869 568.661 70.7079 568.661 71.1818C568.661 71.6591 568.729 72.085 568.865 72.4595C569.004 72.8307 569.208 73.1241 569.476 73.3395C569.748 73.5516 570.081 73.6577 570.475 73.6577ZM582.811 75.1491C582.046 75.1491 581.384 74.9901 580.828 74.6719C580.274 74.3504 579.848 73.8963 579.55 73.3097C579.252 72.7197 579.102 72.0253 579.102 71.2266C579.102 70.4411 579.252 69.7517 579.55 69.1584C579.852 68.5618 580.272 68.0978 580.813 67.7663C581.353 67.4316 581.988 67.2642 582.717 67.2642C583.187 67.2642 583.632 67.3404 584.049 67.4929C584.47 67.642 584.841 67.8741 585.163 68.1889C585.488 68.5038 585.743 68.9048 585.928 69.392C586.114 69.8759 586.207 70.4527 586.207 71.1222V71.674H579.948V70.4609H584.482C584.478 70.1162 584.404 69.8097 584.258 69.5412C584.112 69.2694 583.908 69.0556 583.646 68.8999C583.388 68.7441 583.086 68.6662 582.742 68.6662C582.374 68.6662 582.051 68.7557 581.772 68.9347C581.494 69.1103 581.277 69.3423 581.121 69.6307C580.968 69.9157 580.891 70.2289 580.887 70.5703V71.6293C580.887 72.0734 580.968 72.4545 581.131 72.7727C581.293 73.0876 581.52 73.3295 581.812 73.4986C582.104 73.6643 582.445 73.7472 582.836 73.7472C583.098 73.7472 583.335 73.7107 583.547 73.6378C583.759 73.5616 583.943 73.4505 584.099 73.3047C584.255 73.1589 584.372 72.9782 584.452 72.7628L586.132 72.9517C586.026 73.3958 585.824 73.7836 585.526 74.1151C585.231 74.4432 584.853 74.6984 584.392 74.8807C583.932 75.0597 583.405 75.1491 582.811 75.1491ZM591.597 67.3636V68.7557H587.083V67.3636H591.597ZM588.212 75V66.6428C588.212 66.129 588.318 65.7015 588.53 65.3601C588.745 65.0187 589.034 64.7635 589.395 64.5945C589.756 64.4254 590.157 64.3409 590.598 64.3409C590.91 64.3409 591.186 64.3658 591.428 64.4155C591.67 64.4652 591.849 64.5099 591.965 64.5497L591.607 65.9418C591.531 65.9186 591.435 65.8954 591.319 65.8722C591.203 65.8456 591.074 65.8324 590.931 65.8324C590.596 65.8324 590.359 65.9136 590.22 66.076C590.084 66.2351 590.016 66.4638 590.016 66.7621V75H588.212ZM596.875 67.3636V68.7557H592.36V67.3636H596.875ZM593.489 75V66.6428C593.489 66.129 593.595 65.7015 593.807 65.3601C594.023 65.0187 594.311 64.7635 594.672 64.5945C595.033 64.4254 595.435 64.3409 595.875 64.3409C596.187 64.3409 596.464 64.3658 596.706 64.4155C596.948 64.4652 597.127 64.5099 597.243 64.5497L596.885 65.9418C596.808 65.9186 596.712 65.8954 596.596 65.8722C596.48 65.8456 596.351 65.8324 596.208 65.8324C595.874 65.8324 595.637 65.9136 595.498 66.076C595.362 66.2351 595.294 66.4638 595.294 66.7621V75H593.489ZM601.378 75.1491C600.612 75.1491 599.951 74.9901 599.394 74.6719C598.84 74.3504 598.415 73.8963 598.116 73.3097C597.818 72.7197 597.669 72.0253 597.669 71.2266C597.669 70.4411 597.818 69.7517 598.116 69.1584C598.418 68.5618 598.839 68.0978 599.379 67.7663C599.919 67.4316 600.554 67.2642 601.283 67.2642C601.754 67.2642 602.198 67.3404 602.616 67.4929C603.037 67.642 603.408 67.8741 603.729 68.1889C604.054 68.5038 604.309 68.9048 604.495 69.392C604.68 69.8759 604.773 70.4527 604.773 71.1222V71.674H598.514V70.4609H603.048C603.045 70.1162 602.97 69.8097 602.824 69.5412C602.679 69.2694 602.475 69.0556 602.213 68.8999C601.954 68.7441 601.653 68.6662 601.308 68.6662C600.94 68.6662 600.617 68.7557 600.339 68.9347C600.06 69.1103 599.843 69.3423 599.687 69.6307C599.535 69.9157 599.457 70.2289 599.454 70.5703V71.6293C599.454 72.0734 599.535 72.4545 599.697 72.7727C599.86 73.0876 600.087 73.3295 600.378 73.4986C600.67 73.6643 601.011 73.7472 601.403 73.7472C601.664 73.7472 601.901 73.7107 602.113 73.6378C602.326 73.5616 602.51 73.4505 602.665 73.3047C602.821 73.1589 602.939 72.9782 603.018 72.7628L604.699 72.9517C604.593 73.3958 604.39 73.7836 604.092 74.1151C603.797 74.4432 603.419 74.6984 602.959 74.8807C602.498 75.0597 601.971 75.1491 601.378 75.1491ZM609.627 75.1491C608.864 75.1491 608.21 74.9818 607.663 74.647C607.119 74.3123 606.7 73.8499 606.405 73.2599C606.114 72.6667 605.968 71.9839 605.968 71.2116C605.968 70.4361 606.117 69.7517 606.415 69.1584C606.713 68.5618 607.134 68.0978 607.678 67.7663C608.225 67.4316 608.871 67.2642 609.617 67.2642C610.237 67.2642 610.785 67.3786 611.262 67.6072C611.743 67.8326 612.126 68.1525 612.411 68.5668C612.696 68.9777 612.858 69.4583 612.898 70.0085H611.178C611.108 69.6406 610.943 69.334 610.681 69.0888C610.422 68.8402 610.076 68.7159 609.642 68.7159C609.274 68.7159 608.951 68.8153 608.672 69.0142C608.394 69.2098 608.177 69.4915 608.021 69.8594C607.868 70.2273 607.792 70.6681 607.792 71.1818C607.792 71.7022 607.868 72.1496 608.021 72.5241C608.173 72.8954 608.387 73.1821 608.662 73.3842C608.941 73.5831 609.267 73.6825 609.642 73.6825C609.907 73.6825 610.144 73.6328 610.353 73.5334C610.565 73.4306 610.742 73.2831 610.885 73.0909C611.027 72.8987 611.125 72.665 611.178 72.3899H612.898C612.855 72.9302 612.696 73.4091 612.421 73.8267C612.146 74.241 611.771 74.5658 611.297 74.8011C610.823 75.0331 610.266 75.1491 609.627 75.1491ZM618.189 67.3636V68.7557H613.799V67.3636H618.189ZM614.883 65.5341H616.683V72.7031C616.683 72.9451 616.719 73.1307 616.792 73.2599C616.868 73.3859 616.968 73.4721 617.09 73.5185C617.213 73.5649 617.349 73.5881 617.498 73.5881C617.611 73.5881 617.713 73.5798 617.806 73.5632C617.902 73.5466 617.975 73.5317 618.025 73.5185L618.328 74.9254C618.232 74.9586 618.095 74.995 617.916 75.0348C617.74 75.0746 617.525 75.0978 617.269 75.1044C616.819 75.1177 616.413 75.0497 616.051 74.9006C615.69 74.7481 615.403 74.5128 615.191 74.1946C614.982 73.8764 614.88 73.4787 614.883 73.0014V65.5341ZM625.62 69.3821L623.98 69.5611C623.933 69.3954 623.852 69.2396 623.736 69.0938C623.623 68.9479 623.471 68.8303 623.279 68.7408C623.087 68.6513 622.851 68.6065 622.573 68.6065C622.198 68.6065 621.883 68.6877 621.628 68.8501C621.376 69.0125 621.252 69.223 621.255 69.4815C621.252 69.7036 621.333 69.8842 621.499 70.0234C621.668 70.1626 621.946 70.277 622.334 70.3665L623.637 70.6449C624.359 70.8007 624.896 71.0476 625.248 71.3857C625.602 71.7237 625.781 72.1662 625.784 72.7131C625.781 73.1937 625.64 73.6179 625.362 73.9858C625.087 74.3504 624.704 74.6354 624.213 74.8409C623.723 75.0464 623.159 75.1491 622.523 75.1491C621.588 75.1491 620.836 74.9536 620.266 74.5625C619.696 74.1681 619.356 73.6196 619.247 72.9169L621.002 72.7479C621.081 73.0926 621.25 73.3527 621.509 73.5284C621.767 73.7041 622.104 73.7919 622.518 73.7919C622.946 73.7919 623.289 73.7041 623.547 73.5284C623.809 73.3527 623.94 73.1357 623.94 72.8771C623.94 72.6584 623.855 72.4777 623.686 72.3352C623.521 72.1927 623.262 72.0833 622.911 72.0071L621.608 71.7337C620.876 71.5812 620.334 71.3243 619.983 70.9631C619.631 70.5985 619.457 70.1378 619.461 69.581C619.457 69.1103 619.585 68.7027 619.843 68.358C620.105 68.0099 620.468 67.7415 620.932 67.5526C621.4 67.3603 621.938 67.2642 622.548 67.2642C623.443 67.2642 624.147 67.4548 624.661 67.8359C625.178 68.2171 625.498 68.7325 625.62 69.3821Z" fill="#1D1D1F"/>
<rect width="32" height="32" transform="translate(459 104)" fill="#888888"/>
<path d="M502.004 125V114.818H505.822C506.605 114.818 507.261 114.964 507.791 115.256C508.325 115.547 508.728 115.948 508.999 116.459C509.274 116.966 509.412 117.543 509.412 118.189C509.412 118.842 509.274 119.422 508.999 119.929C508.724 120.436 508.318 120.835 507.781 121.127C507.244 121.415 506.583 121.56 505.798 121.56H503.267V120.043H505.549C506.006 120.043 506.381 119.964 506.673 119.805C506.964 119.646 507.18 119.427 507.319 119.148C507.461 118.87 507.533 118.55 507.533 118.189C507.533 117.828 507.461 117.509 507.319 117.234C507.18 116.959 506.963 116.746 506.668 116.593C506.376 116.437 506 116.359 505.539 116.359H503.849V125H502.004ZM512.734 114.818V125H510.934V114.818H512.734ZM516.782 125.154C516.298 125.154 515.863 125.068 515.475 124.896C515.09 124.72 514.785 124.461 514.56 124.12C514.338 123.779 514.227 123.358 514.227 122.857C514.227 122.426 514.306 122.07 514.466 121.788C514.625 121.507 514.842 121.281 515.117 121.112C515.392 120.943 515.702 120.816 516.047 120.729C516.395 120.64 516.754 120.575 517.125 120.536C517.573 120.489 517.936 120.448 518.214 120.411C518.493 120.371 518.695 120.312 518.821 120.232C518.95 120.149 519.015 120.022 519.015 119.849V119.82C519.015 119.445 518.904 119.155 518.681 118.95C518.459 118.744 518.14 118.641 517.722 118.641C517.281 118.641 516.931 118.737 516.673 118.93C516.418 119.122 516.245 119.349 516.156 119.611L514.475 119.372C514.608 118.908 514.827 118.52 515.132 118.209C515.437 117.894 515.81 117.659 516.25 117.503C516.691 117.344 517.178 117.264 517.712 117.264C518.08 117.264 518.446 117.307 518.811 117.393C519.175 117.48 519.508 117.622 519.81 117.821C520.112 118.017 520.354 118.283 520.536 118.621C520.721 118.96 520.814 119.382 520.814 119.889V125H519.084V123.951H519.025C518.915 124.163 518.761 124.362 518.562 124.548C518.367 124.73 518.12 124.877 517.821 124.99C517.526 125.099 517.18 125.154 516.782 125.154ZM517.25 123.832C517.611 123.832 517.924 123.76 518.189 123.618C518.454 123.472 518.658 123.28 518.801 123.041C518.947 122.803 519.02 122.542 519.02 122.261V121.361C518.963 121.407 518.867 121.45 518.731 121.49C518.599 121.53 518.449 121.565 518.284 121.594C518.118 121.624 517.954 121.651 517.792 121.674C517.629 121.697 517.488 121.717 517.369 121.734C517.1 121.77 516.86 121.83 516.648 121.913C516.436 121.996 516.269 122.112 516.146 122.261C516.023 122.406 515.962 122.595 515.962 122.827C515.962 123.159 516.083 123.409 516.325 123.578C516.567 123.747 516.875 123.832 517.25 123.832ZM523.469 127.864C523.224 127.864 522.997 127.844 522.788 127.804C522.583 127.768 522.418 127.724 522.296 127.675L522.713 126.273C522.975 126.349 523.209 126.385 523.414 126.382C523.62 126.379 523.801 126.314 523.956 126.188C524.115 126.066 524.25 125.86 524.359 125.572L524.513 125.159L521.744 117.364H523.653L525.413 123.131H525.493L527.257 117.364H529.172L526.114 125.925C525.971 126.329 525.783 126.675 525.547 126.964C525.312 127.255 525.024 127.478 524.682 127.63C524.344 127.786 523.94 127.864 523.469 127.864ZM533.89 125V117.364H535.61V118.661H535.699C535.858 118.224 536.122 117.882 536.49 117.637C536.858 117.388 537.297 117.264 537.807 117.264C538.324 117.264 538.76 117.39 539.115 117.642C539.473 117.891 539.725 118.23 539.87 118.661H539.95C540.119 118.237 540.404 117.899 540.805 117.647C541.209 117.392 541.688 117.264 542.242 117.264C542.944 117.264 543.518 117.486 543.962 117.93C544.406 118.375 544.628 119.022 544.628 119.874V125H542.824V120.153C542.824 119.679 542.698 119.332 542.446 119.114C542.194 118.892 541.886 118.781 541.521 118.781C541.087 118.781 540.747 118.916 540.502 119.188C540.26 119.457 540.139 119.806 540.139 120.237V125H538.374V120.078C538.374 119.684 538.255 119.369 538.016 119.134C537.781 118.898 537.472 118.781 537.091 118.781C536.833 118.781 536.597 118.847 536.385 118.979C536.173 119.109 536.004 119.293 535.878 119.531C535.752 119.767 535.689 120.042 535.689 120.357V125H533.89ZM551.321 121.788V117.364H553.121V125H551.376V123.643H551.296C551.124 124.07 550.841 124.42 550.446 124.692C550.055 124.964 549.573 125.099 548.999 125.099C548.499 125.099 548.057 124.988 547.672 124.766C547.291 124.541 546.993 124.214 546.777 123.787C546.562 123.356 546.454 122.836 546.454 122.226V117.364H548.254V121.947C548.254 122.431 548.386 122.816 548.651 123.101C548.917 123.386 549.265 123.528 549.695 123.528C549.961 123.528 550.218 123.464 550.466 123.335C550.715 123.205 550.919 123.013 551.078 122.758C551.24 122.499 551.321 122.176 551.321 121.788ZM561.007 119.382L559.366 119.561C559.32 119.395 559.239 119.24 559.123 119.094C559.01 118.948 558.858 118.83 558.665 118.741C558.473 118.651 558.238 118.607 557.96 118.607C557.585 118.607 557.27 118.688 557.015 118.85C556.763 119.013 556.639 119.223 556.642 119.482C556.639 119.704 556.72 119.884 556.886 120.023C557.055 120.163 557.333 120.277 557.721 120.366L559.023 120.645C559.746 120.801 560.283 121.048 560.634 121.386C560.989 121.724 561.168 122.166 561.171 122.713C561.168 123.194 561.027 123.618 560.749 123.986C560.473 124.35 560.091 124.635 559.6 124.841C559.11 125.046 558.546 125.149 557.91 125.149C556.975 125.149 556.223 124.954 555.653 124.562C555.083 124.168 554.743 123.62 554.634 122.917L556.388 122.748C556.468 123.093 556.637 123.353 556.896 123.528C557.154 123.704 557.491 123.792 557.905 123.792C558.332 123.792 558.675 123.704 558.934 123.528C559.196 123.353 559.327 123.136 559.327 122.877C559.327 122.658 559.242 122.478 559.073 122.335C558.907 122.193 558.649 122.083 558.298 122.007L556.995 121.734C556.263 121.581 555.721 121.324 555.369 120.963C555.018 120.598 554.844 120.138 554.847 119.581C554.844 119.11 554.972 118.703 555.23 118.358C555.492 118.01 555.855 117.741 556.319 117.553C556.786 117.36 557.325 117.264 557.935 117.264C558.83 117.264 559.534 117.455 560.048 117.836C560.565 118.217 560.884 118.732 561.007 119.382ZM562.655 125V117.364H564.455V125H562.655ZM563.56 116.28C563.275 116.28 563.03 116.185 562.824 115.996C562.619 115.804 562.516 115.574 562.516 115.305C562.516 115.034 562.619 114.803 562.824 114.614C563.03 114.422 563.275 114.326 563.56 114.326C563.848 114.326 564.094 114.422 564.296 114.614C564.501 114.803 564.604 115.034 564.604 115.305C564.604 115.574 564.501 115.804 564.296 115.996C564.094 116.185 563.848 116.28 563.56 116.28ZM569.637 125.149C568.874 125.149 568.22 124.982 567.673 124.647C567.129 124.312 566.71 123.85 566.415 123.26C566.123 122.667 565.977 121.984 565.977 121.212C565.977 120.436 566.127 119.752 566.425 119.158C566.723 118.562 567.144 118.098 567.688 117.766C568.235 117.432 568.881 117.264 569.627 117.264C570.246 117.264 570.795 117.379 571.272 117.607C571.753 117.833 572.136 118.152 572.421 118.567C572.706 118.978 572.868 119.458 572.908 120.009H571.188C571.118 119.641 570.952 119.334 570.691 119.089C570.432 118.84 570.086 118.716 569.651 118.716C569.284 118.716 568.96 118.815 568.682 119.014C568.404 119.21 568.186 119.491 568.031 119.859C567.878 120.227 567.802 120.668 567.802 121.182C567.802 121.702 567.878 122.15 568.031 122.524C568.183 122.895 568.397 123.182 568.672 123.384C568.95 123.583 569.277 123.683 569.651 123.683C569.917 123.683 570.154 123.633 570.362 123.533C570.575 123.431 570.752 123.283 570.894 123.091C571.037 122.899 571.135 122.665 571.188 122.39H572.908C572.865 122.93 572.706 123.409 572.431 123.827C572.155 124.241 571.781 124.566 571.307 124.801C570.833 125.033 570.276 125.149 569.637 125.149Z" fill="#1D1D1F"/>
<rect width="32" height="32" transform="translate(459 154)" fill="#CC8800"/>
<path d="M467 172L471 176L483 164" stroke="#F8F8FA" stroke-width="4" stroke-linecap="square"/>
<path d="M502.004 175V164.818H503.849V169.129H508.567V164.818H510.416V175H508.567V170.675H503.849V175H502.004ZM515.723 175.149C514.958 175.149 514.297 174.99 513.74 174.672C513.186 174.35 512.76 173.896 512.462 173.31C512.164 172.72 512.015 172.025 512.015 171.227C512.015 170.441 512.164 169.752 512.462 169.158C512.764 168.562 513.185 168.098 513.725 167.766C514.265 167.432 514.9 167.264 515.629 167.264C516.1 167.264 516.544 167.34 516.961 167.493C517.382 167.642 517.753 167.874 518.075 168.189C518.4 168.504 518.655 168.905 518.841 169.392C519.026 169.876 519.119 170.453 519.119 171.122V171.674H512.86V170.461H517.394C517.391 170.116 517.316 169.81 517.17 169.541C517.024 169.269 516.82 169.056 516.559 168.9C516.3 168.744 515.998 168.666 515.654 168.666C515.286 168.666 514.963 168.756 514.684 168.935C514.406 169.11 514.189 169.342 514.033 169.631C513.881 169.916 513.803 170.229 513.799 170.57V171.629C513.799 172.073 513.881 172.455 514.043 172.773C514.205 173.088 514.432 173.33 514.724 173.499C515.016 173.664 515.357 173.747 515.748 173.747C516.01 173.747 516.247 173.711 516.459 173.638C516.671 173.562 516.855 173.451 517.011 173.305C517.167 173.159 517.284 172.978 517.364 172.763L519.044 172.952C518.938 173.396 518.736 173.784 518.438 174.115C518.143 174.443 517.765 174.698 517.304 174.881C516.844 175.06 516.317 175.149 515.723 175.149ZM522.839 175.154C522.355 175.154 521.919 175.068 521.531 174.896C521.147 174.72 520.842 174.461 520.617 174.12C520.395 173.779 520.284 173.358 520.284 172.857C520.284 172.426 520.363 172.07 520.522 171.788C520.681 171.507 520.898 171.281 521.173 171.112C521.449 170.943 521.758 170.816 522.103 170.729C522.451 170.64 522.811 170.575 523.182 170.536C523.629 170.489 523.992 170.448 524.271 170.411C524.549 170.371 524.751 170.312 524.877 170.232C525.007 170.149 525.071 170.022 525.071 169.849V169.82C525.071 169.445 524.96 169.155 524.738 168.95C524.516 168.744 524.196 168.641 523.779 168.641C523.338 168.641 522.988 168.737 522.73 168.93C522.474 169.122 522.302 169.349 522.213 169.611L520.532 169.372C520.665 168.908 520.883 168.52 521.188 168.209C521.493 167.894 521.866 167.659 522.307 167.503C522.748 167.344 523.235 167.264 523.769 167.264C524.137 167.264 524.503 167.307 524.867 167.393C525.232 167.48 525.565 167.622 525.867 167.821C526.168 168.017 526.41 168.283 526.593 168.621C526.778 168.96 526.871 169.382 526.871 169.889V175H525.141V173.951H525.081C524.972 174.163 524.818 174.362 524.619 174.548C524.423 174.73 524.176 174.877 523.878 174.99C523.583 175.099 523.237 175.154 522.839 175.154ZM523.306 173.832C523.668 173.832 523.981 173.76 524.246 173.618C524.511 173.472 524.715 173.28 524.857 173.041C525.003 172.803 525.076 172.542 525.076 172.261V171.361C525.02 171.407 524.924 171.45 524.788 171.49C524.655 171.53 524.506 171.565 524.34 171.594C524.175 171.624 524.011 171.651 523.848 171.674C523.686 171.697 523.545 171.717 523.426 171.734C523.157 171.77 522.917 171.83 522.705 171.913C522.493 171.996 522.325 172.112 522.203 172.261C522.08 172.406 522.019 172.595 522.019 172.827C522.019 173.159 522.14 173.409 522.382 173.578C522.624 173.747 522.932 173.832 523.306 173.832ZM528.681 175V167.364H530.426V168.636H530.505C530.644 168.196 530.883 167.856 531.221 167.617C531.562 167.375 531.952 167.254 532.389 167.254C532.489 167.254 532.6 167.259 532.722 167.269C532.848 167.276 532.953 167.287 533.036 167.304V168.96C532.959 168.933 532.838 168.91 532.673 168.89C532.51 168.867 532.353 168.855 532.2 168.855C531.872 168.855 531.577 168.926 531.316 169.069C531.057 169.208 530.853 169.402 530.704 169.651C530.555 169.899 530.48 170.186 530.48 170.511V175H528.681ZM539.504 170.526V175H537.704V167.364H539.424V168.661H539.514C539.689 168.234 539.969 167.894 540.354 167.642C540.742 167.39 541.221 167.264 541.791 167.264C542.318 167.264 542.777 167.377 543.168 167.602C543.562 167.828 543.867 168.154 544.083 168.582C544.301 169.009 544.409 169.528 544.406 170.138V175H542.606V170.416C542.606 169.906 542.473 169.506 542.208 169.218C541.946 168.93 541.584 168.786 541.119 168.786C540.805 168.786 540.525 168.855 540.279 168.994C540.037 169.13 539.847 169.327 539.708 169.586C539.572 169.844 539.504 170.158 539.504 170.526ZM548.433 175.154C547.949 175.154 547.513 175.068 547.125 174.896C546.741 174.72 546.436 174.461 546.21 174.12C545.988 173.779 545.877 173.358 545.877 172.857C545.877 172.426 545.957 172.07 546.116 171.788C546.275 171.507 546.492 171.281 546.767 171.112C547.042 170.943 547.352 170.816 547.697 170.729C548.045 170.64 548.405 170.575 548.776 170.536C549.223 170.489 549.586 170.448 549.865 170.411C550.143 170.371 550.345 170.312 550.471 170.232C550.6 170.149 550.665 170.022 550.665 169.849V169.82C550.665 169.445 550.554 169.155 550.332 168.95C550.11 168.744 549.79 168.641 549.372 168.641C548.932 168.641 548.582 168.737 548.323 168.93C548.068 169.122 547.896 169.349 547.806 169.611L546.126 169.372C546.258 168.908 546.477 168.52 546.782 168.209C547.087 167.894 547.46 167.659 547.901 167.503C548.342 167.344 548.829 167.264 549.362 167.264C549.73 167.264 550.097 167.307 550.461 167.393C550.826 167.48 551.159 167.622 551.46 167.821C551.762 168.017 552.004 168.283 552.186 168.621C552.372 168.96 552.465 169.382 552.465 169.889V175H550.735V173.951H550.675C550.566 174.163 550.411 174.362 550.213 174.548C550.017 174.73 549.77 174.877 549.472 174.99C549.177 175.099 548.83 175.154 548.433 175.154ZM548.9 173.832C549.261 173.832 549.575 173.76 549.84 173.618C550.105 173.472 550.309 173.28 550.451 173.041C550.597 172.803 550.67 172.542 550.67 172.261V171.361C550.614 171.407 550.517 171.45 550.382 171.49C550.249 171.53 550.1 171.565 549.934 171.594C549.768 171.624 549.604 171.651 549.442 171.674C549.28 171.697 549.139 171.717 549.019 171.734C548.751 171.77 548.511 171.83 548.298 171.913C548.086 171.996 547.919 172.112 547.796 172.261C547.674 172.406 547.612 172.595 547.612 172.827C547.612 173.159 547.733 173.409 547.975 173.578C548.217 173.747 548.526 173.832 548.9 173.832ZM554.274 175V167.364H556.019V168.636H556.099C556.238 168.196 556.477 167.856 556.815 167.617C557.156 167.375 557.546 167.254 557.983 167.254C558.083 167.254 558.194 167.259 558.316 167.269C558.442 167.276 558.547 167.287 558.629 167.304V168.96C558.553 168.933 558.432 168.91 558.267 168.89C558.104 168.867 557.947 168.855 557.794 168.855C557.466 168.855 557.171 168.926 556.909 169.069C556.651 169.208 556.447 169.402 556.298 169.651C556.149 169.899 556.074 170.186 556.074 170.511V175H554.274ZM559.825 175V167.364H561.57V168.636H561.65C561.789 168.196 562.028 167.856 562.366 167.617C562.707 167.375 563.096 167.254 563.534 167.254C563.633 167.254 563.744 167.259 563.867 167.269C563.993 167.276 564.097 167.287 564.18 167.304V168.96C564.104 168.933 563.983 168.91 563.817 168.89C563.655 168.867 563.497 168.855 563.345 168.855C563.017 168.855 562.722 168.926 562.46 169.069C562.202 169.208 561.998 169.402 561.849 169.651C561.699 169.899 561.625 170.186 561.625 170.511V175H559.825ZM567.437 175.154C566.953 175.154 566.517 175.068 566.129 174.896C565.745 174.72 565.44 174.461 565.214 174.12C564.992 173.779 564.881 173.358 564.881 172.857C564.881 172.426 564.961 172.07 565.12 171.788C565.279 171.507 565.496 171.281 565.771 171.112C566.046 170.943 566.356 170.816 566.701 170.729C567.049 170.64 567.408 170.575 567.78 170.536C568.227 170.489 568.59 170.448 568.868 170.411C569.147 170.371 569.349 170.312 569.475 170.232C569.604 170.149 569.669 170.022 569.669 169.849V169.82C569.669 169.445 569.558 169.155 569.336 168.95C569.114 168.744 568.794 168.641 568.376 168.641C567.935 168.641 567.586 168.737 567.327 168.93C567.072 169.122 566.9 169.349 566.81 169.611L565.13 169.372C565.262 168.908 565.481 168.52 565.786 168.209C566.091 167.894 566.464 167.659 566.905 167.503C567.345 167.344 567.833 167.264 568.366 167.264C568.734 167.264 569.1 167.307 569.465 167.393C569.83 167.48 570.163 167.622 570.464 167.821C570.766 168.017 571.008 168.283 571.19 168.621C571.376 168.96 571.469 169.382 571.469 169.889V175H569.738V173.951H569.679C569.569 174.163 569.415 174.362 569.216 174.548C569.021 174.73 568.774 174.877 568.476 174.99C568.181 175.099 567.834 175.154 567.437 175.154ZM567.904 173.832C568.265 173.832 568.578 173.76 568.844 173.618C569.109 173.472 569.313 173.28 569.455 173.041C569.601 172.803 569.674 172.542 569.674 172.261V171.361C569.617 171.407 569.521 171.45 569.385 171.49C569.253 171.53 569.104 171.565 568.938 171.594C568.772 171.624 568.608 171.651 568.446 171.674C568.283 171.697 568.143 171.717 568.023 171.734C567.755 171.77 567.515 171.83 567.302 171.913C567.09 171.996 566.923 172.112 566.8 172.261C566.678 172.406 566.616 172.595 566.616 172.827C566.616 173.159 566.737 173.409 566.979 173.578C567.221 173.747 567.529 173.832 567.904 173.832ZM577.091 167.364V168.756H572.702V167.364H577.091ZM573.785 165.534H575.585V172.703C575.585 172.945 575.622 173.131 575.694 173.26C575.771 173.386 575.87 173.472 575.993 173.518C576.115 173.565 576.251 173.588 576.4 173.588C576.513 173.588 576.616 173.58 576.709 173.563C576.805 173.547 576.878 173.532 576.927 173.518L577.231 174.925C577.135 174.959 576.997 174.995 576.818 175.035C576.642 175.075 576.427 175.098 576.172 175.104C575.721 175.118 575.315 175.05 574.954 174.901C574.592 174.748 574.306 174.513 574.094 174.195C573.885 173.876 573.782 173.479 573.785 173.001V165.534ZM578.597 175V167.364H580.396V175H578.597ZM579.501 166.28C579.216 166.28 578.971 166.185 578.766 165.996C578.56 165.804 578.457 165.574 578.457 165.305C578.457 165.034 578.56 164.803 578.766 164.614C578.971 164.422 579.216 164.326 579.501 164.326C579.79 164.326 580.035 164.422 580.237 164.614C580.443 164.803 580.545 165.034 580.545 165.305C580.545 165.574 580.443 165.804 580.237 165.996C580.035 166.185 579.79 166.28 579.501 166.28ZM585.578 175.149C584.832 175.149 584.186 174.985 583.639 174.657C583.092 174.329 582.668 173.87 582.366 173.28C582.068 172.69 581.919 172 581.919 171.212C581.919 170.423 582.068 169.732 582.366 169.138C582.668 168.545 583.092 168.085 583.639 167.756C584.186 167.428 584.832 167.264 585.578 167.264C586.324 167.264 586.97 167.428 587.517 167.756C588.064 168.085 588.486 168.545 588.785 169.138C589.086 169.732 589.237 170.423 589.237 171.212C589.237 172 589.086 172.69 588.785 173.28C588.486 173.87 588.064 174.329 587.517 174.657C586.97 174.985 586.324 175.149 585.578 175.149ZM585.588 173.707C585.992 173.707 586.33 173.596 586.602 173.374C586.874 173.149 587.076 172.847 587.209 172.469C587.345 172.092 587.412 171.671 587.412 171.207C587.412 170.739 587.345 170.317 587.209 169.939C587.076 169.558 586.874 169.254 586.602 169.029C586.33 168.804 585.992 168.691 585.588 168.691C585.174 168.691 584.829 168.804 584.554 169.029C584.282 169.254 584.078 169.558 583.942 169.939C583.81 170.317 583.743 170.739 583.743 171.207C583.743 171.671 583.81 172.092 583.942 172.469C584.078 172.847 584.282 173.149 584.554 173.374C584.829 173.596 585.174 173.707 585.588 173.707ZM592.564 170.526V175H590.765V167.364H592.485V168.661H592.574C592.75 168.234 593.03 167.894 593.414 167.642C593.802 167.39 594.281 167.264 594.851 167.264C595.378 167.264 595.837 167.377 596.228 167.602C596.623 167.828 596.928 168.154 597.143 168.582C597.362 169.009 597.47 169.528 597.466 170.138V175H595.667V170.416C595.667 169.906 595.534 169.506 595.269 169.218C595.007 168.93 594.644 168.786 594.18 168.786C593.865 168.786 593.585 168.855 593.34 168.994C593.098 169.13 592.907 169.327 592.768 169.586C592.632 169.844 592.564 170.158 592.564 170.526ZM605.602 175.134C605.002 175.134 604.465 174.98 603.991 174.672C603.518 174.364 603.143 173.916 602.868 173.33C602.593 172.743 602.455 172.03 602.455 171.192C602.455 170.343 602.594 169.627 602.873 169.044C603.155 168.457 603.534 168.015 604.011 167.717C604.489 167.415 605.021 167.264 605.607 167.264C606.055 167.264 606.423 167.34 606.711 167.493C606.999 167.642 607.228 167.823 607.397 168.035C607.566 168.244 607.697 168.441 607.79 168.626H607.864V164.818H609.669V175H607.899V173.797H607.79C607.697 173.982 607.563 174.18 607.387 174.388C607.211 174.594 606.979 174.77 606.691 174.915C606.403 175.061 606.04 175.134 605.602 175.134ZM606.104 173.658C606.486 173.658 606.81 173.555 607.079 173.349C607.347 173.141 607.551 172.851 607.69 172.479C607.83 172.108 607.899 171.676 607.899 171.182C607.899 170.688 607.83 170.259 607.69 169.894C607.554 169.53 607.352 169.246 607.084 169.044C606.819 168.842 606.492 168.741 606.104 168.741C605.703 168.741 605.369 168.845 605.1 169.054C604.832 169.263 604.629 169.551 604.494 169.919C604.358 170.287 604.29 170.708 604.29 171.182C604.29 171.659 604.358 172.085 604.494 172.46C604.633 172.831 604.837 173.124 605.105 173.339C605.377 173.552 605.71 173.658 606.104 173.658ZM616.454 171.788V167.364H618.254V175H616.509V173.643H616.429C616.257 174.07 615.973 174.42 615.579 174.692C615.188 174.964 614.706 175.099 614.132 175.099C613.632 175.099 613.189 174.988 612.805 174.766C612.424 174.541 612.125 174.214 611.91 173.787C611.695 173.356 611.587 172.836 611.587 172.226V167.364H613.387V171.947C613.387 172.431 613.519 172.816 613.784 173.101C614.049 173.386 614.397 173.528 614.828 173.528C615.093 173.528 615.35 173.464 615.599 173.335C615.847 173.205 616.051 173.013 616.21 172.758C616.373 172.499 616.454 172.176 616.454 171.788ZM620.104 175V167.364H621.849V168.636H621.929C622.068 168.196 622.307 167.856 622.645 167.617C622.986 167.375 623.376 167.254 623.813 167.254C623.913 167.254 624.024 167.259 624.146 167.269C624.272 167.276 624.377 167.287 624.46 167.304V168.96C624.383 168.933 624.262 168.91 624.097 168.89C623.934 168.867 623.777 168.855 623.624 168.855C623.296 168.855 623.001 168.926 622.739 169.069C622.481 169.208 622.277 169.402 622.128 169.651C621.979 169.899 621.904 170.186 621.904 170.511V175H620.104ZM625.655 175V167.364H627.455V175H625.655ZM626.56 166.28C626.275 166.28 626.03 166.185 625.824 165.996C625.619 165.804 625.516 165.574 625.516 165.305C625.516 165.034 625.619 164.803 625.824 164.614C626.03 164.422 626.275 164.326 626.56 164.326C626.848 164.326 627.094 164.422 627.296 164.614C627.501 164.803 627.604 165.034 627.604 165.305C627.604 165.574 627.501 165.804 627.296 165.996C627.094 166.185 626.848 166.28 626.56 166.28ZM631.105 170.526V175H629.306V167.364H631.026V168.661H631.115C631.291 168.234 631.571 167.894 631.955 167.642C632.343 167.39 632.822 167.264 633.392 167.264C633.919 167.264 634.378 167.377 634.769 167.602C635.164 167.828 635.469 168.154 635.684 168.582C635.903 169.009 636.011 169.528 636.007 170.138V175H634.208V170.416C634.208 169.906 634.075 169.506 633.81 169.218C633.548 168.93 633.185 168.786 632.721 168.786C632.406 168.786 632.126 168.855 631.881 168.994C631.639 169.13 631.448 169.327 631.309 169.586C631.173 169.844 631.105 170.158 631.105 170.526ZM641.158 178.023C640.512 178.023 639.956 177.935 639.492 177.759C639.028 177.587 638.655 177.355 638.374 177.063C638.092 176.772 637.896 176.448 637.787 176.094L639.408 175.701C639.481 175.85 639.587 175.998 639.726 176.143C639.865 176.293 640.052 176.415 640.288 176.511C640.526 176.611 640.826 176.661 641.188 176.661C641.698 176.661 642.121 176.536 642.455 176.288C642.79 176.042 642.958 175.638 642.958 175.075V173.628H642.868C642.775 173.813 642.639 174.004 642.46 174.2C642.285 174.395 642.051 174.559 641.759 174.692C641.471 174.824 641.108 174.891 640.671 174.891C640.084 174.891 639.552 174.753 639.075 174.478C638.601 174.2 638.223 173.785 637.941 173.235C637.663 172.682 637.524 171.989 637.524 171.157C637.524 170.318 637.663 169.611 637.941 169.034C638.223 168.454 638.602 168.015 639.08 167.717C639.557 167.415 640.089 167.264 640.676 167.264C641.123 167.264 641.491 167.34 641.779 167.493C642.071 167.642 642.303 167.823 642.475 168.035C642.648 168.244 642.779 168.441 642.868 168.626H642.968V167.364H644.742V175.124C644.742 175.777 644.587 176.317 644.275 176.745C643.963 177.173 643.538 177.492 642.997 177.705C642.457 177.917 641.844 178.023 641.158 178.023ZM641.173 173.479C641.554 173.479 641.879 173.386 642.147 173.2C642.416 173.015 642.619 172.748 642.759 172.4C642.898 172.052 642.968 171.634 642.968 171.147C642.968 170.666 642.898 170.246 642.759 169.884C642.623 169.523 642.421 169.243 642.152 169.044C641.887 168.842 641.561 168.741 641.173 168.741C640.772 168.741 640.437 168.845 640.169 169.054C639.9 169.263 639.698 169.549 639.562 169.914C639.426 170.275 639.358 170.686 639.358 171.147C639.358 171.614 639.426 172.024 639.562 172.375C639.701 172.723 639.905 172.995 640.173 173.19C640.445 173.383 640.778 173.479 641.173 173.479ZM653.39 175.149C652.628 175.149 651.974 174.982 651.427 174.647C650.883 174.312 650.464 173.85 650.169 173.26C649.877 172.667 649.731 171.984 649.731 171.212C649.731 170.436 649.881 169.752 650.179 169.158C650.477 168.562 650.898 168.098 651.442 167.766C651.988 167.432 652.635 167.264 653.381 167.264C654 167.264 654.549 167.379 655.026 167.607C655.507 167.833 655.89 168.152 656.175 168.567C656.46 168.978 656.622 169.458 656.662 170.009H654.942C654.872 169.641 654.706 169.334 654.444 169.089C654.186 168.84 653.84 168.716 653.405 168.716C653.037 168.716 652.714 168.815 652.436 169.014C652.157 169.21 651.94 169.491 651.785 169.859C651.632 170.227 651.556 170.668 651.556 171.182C651.556 171.702 651.632 172.15 651.785 172.524C651.937 172.895 652.151 173.182 652.426 173.384C652.704 173.583 653.031 173.683 653.405 173.683C653.671 173.683 653.907 173.633 654.116 173.533C654.328 173.431 654.506 173.283 654.648 173.091C654.791 172.899 654.889 172.665 654.942 172.39H656.662C656.619 172.93 656.46 173.409 656.184 173.827C655.909 174.241 655.535 174.566 655.061 174.801C654.587 175.033 654.03 175.149 653.39 175.149ZM663.007 171.788V167.364H664.806V175H663.061V173.643H662.982C662.81 174.07 662.526 174.42 662.132 174.692C661.741 174.964 661.258 175.099 660.685 175.099C660.185 175.099 659.742 174.988 659.358 174.766C658.976 174.541 658.678 174.214 658.463 173.787C658.247 173.356 658.14 172.836 658.14 172.226V167.364H659.939V171.947C659.939 172.431 660.072 172.816 660.337 173.101C660.602 173.386 660.95 173.528 661.381 173.528C661.646 173.528 661.903 173.464 662.152 173.335C662.4 173.205 662.604 173.013 662.763 172.758C662.926 172.499 663.007 172.176 663.007 171.788ZM670.47 167.364V168.756H666.08V167.364H670.47ZM667.164 165.534H668.964V172.703C668.964 172.945 669 173.131 669.073 173.26C669.15 173.386 669.249 173.472 669.372 173.518C669.494 173.565 669.63 173.588 669.779 173.588C669.892 173.588 669.995 173.58 670.088 173.563C670.184 173.547 670.257 173.532 670.306 173.518L670.61 174.925C670.513 174.959 670.376 174.995 670.197 175.035C670.021 175.075 669.806 175.098 669.551 175.104C669.1 175.118 668.694 175.05 668.333 174.901C667.971 174.748 667.685 174.513 667.472 174.195C667.264 173.876 667.161 173.479 667.164 173.001V165.534ZM677.902 169.382L676.261 169.561C676.215 169.395 676.133 169.24 676.017 169.094C675.905 168.948 675.752 168.83 675.56 168.741C675.368 168.651 675.132 168.607 674.854 168.607C674.48 168.607 674.165 168.688 673.909 168.85C673.658 169.013 673.533 169.223 673.537 169.482C673.533 169.704 673.614 169.884 673.78 170.023C673.949 170.163 674.228 170.277 674.615 170.366L675.918 170.645C676.641 170.801 677.177 171.048 677.529 171.386C677.883 171.724 678.062 172.166 678.066 172.713C678.062 173.194 677.922 173.618 677.643 173.986C677.368 174.35 676.985 174.635 676.495 174.841C676.004 175.046 675.441 175.149 674.804 175.149C673.87 175.149 673.117 174.954 672.547 174.562C671.977 174.168 671.637 173.62 671.528 172.917L673.283 172.748C673.363 173.093 673.532 173.353 673.79 173.528C674.049 173.704 674.385 173.792 674.799 173.792C675.227 173.792 675.57 173.704 675.828 173.528C676.09 173.353 676.221 173.136 676.221 172.877C676.221 172.658 676.137 172.478 675.968 172.335C675.802 172.193 675.543 172.083 675.192 172.007L673.89 171.734C673.157 171.581 672.615 171.324 672.264 170.963C671.913 170.598 671.739 170.138 671.742 169.581C671.739 169.11 671.866 168.703 672.125 168.358C672.386 168.01 672.749 167.741 673.213 167.553C673.681 167.36 674.219 167.264 674.829 167.264C675.724 167.264 676.428 167.455 676.942 167.836C677.459 168.217 677.779 168.732 677.902 169.382ZM682.881 175.149C682.118 175.149 681.464 174.982 680.917 174.647C680.373 174.312 679.954 173.85 679.659 173.26C679.367 172.667 679.222 171.984 679.222 171.212C679.222 170.436 679.371 169.752 679.669 169.158C679.967 168.562 680.388 168.098 680.932 167.766C681.479 167.432 682.125 167.264 682.871 167.264C683.491 167.264 684.039 167.379 684.516 167.607C684.997 167.833 685.38 168.152 685.665 168.567C685.95 168.978 686.112 169.458 686.152 170.009H684.432C684.362 169.641 684.196 169.334 683.935 169.089C683.676 168.84 683.33 168.716 682.896 168.716C682.528 168.716 682.205 168.815 681.926 169.014C681.648 169.21 681.431 169.491 681.275 169.859C681.122 170.227 681.046 170.668 681.046 171.182C681.046 171.702 681.122 172.15 681.275 172.524C681.427 172.895 681.641 173.182 681.916 173.384C682.195 173.583 682.521 173.683 682.896 173.683C683.161 173.683 683.398 173.633 683.607 173.533C683.819 173.431 683.996 173.283 684.138 173.091C684.281 172.899 684.379 172.665 684.432 172.39H686.152C686.109 172.93 685.95 173.409 685.675 173.827C685.4 174.241 685.025 174.566 684.551 174.801C684.077 175.033 683.52 175.149 682.881 175.149ZM691.01 175.149C690.245 175.149 689.584 174.99 689.027 174.672C688.473 174.35 688.047 173.896 687.749 173.31C687.451 172.72 687.302 172.025 687.302 171.227C687.302 170.441 687.451 169.752 687.749 169.158C688.051 168.562 688.472 168.098 689.012 167.766C689.552 167.432 690.187 167.264 690.916 167.264C691.387 167.264 691.831 167.34 692.248 167.493C692.669 167.642 693.041 167.874 693.362 168.189C693.687 168.504 693.942 168.905 694.128 169.392C694.313 169.876 694.406 170.453 694.406 171.122V171.674H688.147V170.461H692.681C692.678 170.116 692.603 169.81 692.457 169.541C692.311 169.269 692.108 169.056 691.846 168.9C691.587 168.744 691.286 168.666 690.941 168.666C690.573 168.666 690.25 168.756 689.971 168.935C689.693 169.11 689.476 169.342 689.32 169.631C689.168 169.916 689.09 170.229 689.086 170.57V171.629C689.086 172.073 689.168 172.455 689.33 172.773C689.492 173.088 689.72 173.33 690.011 173.499C690.303 173.664 690.644 173.747 691.035 173.747C691.297 173.747 691.534 173.711 691.746 173.638C691.958 173.562 692.142 173.451 692.298 173.305C692.454 173.159 692.572 172.978 692.651 172.763L694.331 172.952C694.225 173.396 694.023 173.784 693.725 174.115C693.43 174.443 693.052 174.698 692.591 174.881C692.131 175.06 691.604 175.149 691.01 175.149ZM697.728 170.526V175H695.929V167.364H697.649V168.661H697.738C697.914 168.234 698.194 167.894 698.578 167.642C698.966 167.39 699.445 167.264 700.015 167.264C700.542 167.264 701.001 167.377 701.392 167.602C701.787 167.828 702.092 168.154 702.307 168.582C702.526 169.009 702.634 169.528 702.63 170.138V175H700.831V170.416C700.831 169.906 700.698 169.506 700.433 169.218C700.171 168.93 699.808 168.786 699.344 168.786C699.029 168.786 698.749 168.855 698.504 168.994C698.262 169.13 698.071 169.327 697.932 169.586C697.796 169.844 697.728 170.158 697.728 170.526ZM707.841 175.149C707.075 175.149 706.414 174.99 705.857 174.672C705.303 174.35 704.877 173.896 704.579 173.31C704.281 172.72 704.132 172.025 704.132 171.227C704.132 170.441 704.281 169.752 704.579 169.158C704.881 168.562 705.302 168.098 705.842 167.766C706.382 167.432 707.017 167.264 707.746 167.264C708.217 167.264 708.661 167.34 709.078 167.493C709.499 167.642 709.871 167.874 710.192 168.189C710.517 168.504 710.772 168.905 710.958 169.392C711.143 169.876 711.236 170.453 711.236 171.122V171.674H704.977V170.461H709.511C709.508 170.116 709.433 169.81 709.287 169.541C709.141 169.269 708.938 169.056 708.676 168.9C708.417 168.744 708.116 168.666 707.771 168.666C707.403 168.666 707.08 168.756 706.801 168.935C706.523 169.11 706.306 169.342 706.15 169.631C705.998 169.916 705.92 170.229 705.917 170.57V171.629C705.917 172.073 705.998 172.455 706.16 172.773C706.323 173.088 706.55 173.33 706.841 173.499C707.133 173.664 707.474 173.747 707.865 173.747C708.127 173.747 708.364 173.711 708.576 173.638C708.788 173.562 708.972 173.451 709.128 173.305C709.284 173.159 709.402 172.978 709.481 172.763L711.162 172.952C711.056 173.396 710.853 173.784 710.555 174.115C710.26 174.443 709.882 174.698 709.422 174.881C708.961 175.06 708.434 175.149 707.841 175.149ZM718.794 169.382L717.154 169.561C717.107 169.395 717.026 169.24 716.91 169.094C716.797 168.948 716.645 168.83 716.453 168.741C716.26 168.651 716.025 168.607 715.747 168.607C715.372 168.607 715.057 168.688 714.802 168.85C714.55 169.013 714.426 169.223 714.429 169.482C714.426 169.704 714.507 169.884 714.673 170.023C714.842 170.163 715.12 170.277 715.508 170.366L716.811 170.645C717.533 170.801 718.07 171.048 718.421 171.386C718.776 171.724 718.955 172.166 718.958 172.713C718.955 173.194 718.814 173.618 718.536 173.986C718.261 174.35 717.878 174.635 717.387 174.841C716.897 175.046 716.333 175.149 715.697 175.149C714.762 175.149 714.01 174.954 713.44 174.562C712.87 174.168 712.53 173.62 712.421 172.917L714.176 172.748C714.255 173.093 714.424 173.353 714.683 173.528C714.941 173.704 715.278 173.792 715.692 173.792C716.119 173.792 716.463 173.704 716.721 173.528C716.983 173.353 717.114 173.136 717.114 172.877C717.114 172.658 717.029 172.478 716.86 172.335C716.695 172.193 716.436 172.083 716.085 172.007L714.782 171.734C714.05 171.581 713.508 171.324 713.156 170.963C712.805 170.598 712.631 170.138 712.634 169.581C712.631 169.11 712.759 168.703 713.017 168.358C713.279 168.01 713.642 167.741 714.106 167.553C714.573 167.36 715.112 167.264 715.722 167.264C716.617 167.264 717.321 167.455 717.835 167.836C718.352 168.217 718.672 168.732 718.794 169.382Z" fill="#1D1D1F"/>
<path d="M548.729 19.8182H550.574V26.4702C550.574 27.1993 550.401 27.8407 550.057 28.3942C549.715 28.9477 549.235 29.3802 548.615 29.6918C547.995 30 547.271 30.1541 546.442 30.1541C545.61 30.1541 544.885 30 544.265 29.6918C543.645 29.3802 543.164 28.9477 542.823 28.3942C542.482 27.8407 542.311 27.1993 542.311 26.4702V19.8182H544.155V26.3161C544.155 26.7403 544.248 27.1181 544.434 27.4496C544.623 27.781 544.888 28.0412 545.229 28.2301C545.571 28.4157 545.975 28.5085 546.442 28.5085C546.91 28.5085 547.314 28.4157 547.655 28.2301C548 28.0412 548.265 27.781 548.451 27.4496C548.636 27.1181 548.729 26.7403 548.729 26.3161V19.8182ZM558.534 24.3821L556.894 24.5611C556.847 24.3954 556.766 24.2396 556.65 24.0938C556.538 23.9479 556.385 23.8303 556.193 23.7408C556.001 23.6513 555.765 23.6065 555.487 23.6065C555.112 23.6065 554.797 23.6877 554.542 23.8501C554.29 24.0125 554.166 24.223 554.169 24.4815C554.166 24.7036 554.247 24.8842 554.413 25.0234C554.582 25.1626 554.86 25.277 555.248 25.3665L556.551 25.6449C557.273 25.8007 557.81 26.0476 558.162 26.3857C558.516 26.7237 558.695 27.1662 558.699 27.7131C558.695 28.1937 558.554 28.6179 558.276 28.9858C558.001 29.3504 557.618 29.6354 557.127 29.8409C556.637 30.0464 556.074 30.1491 555.437 30.1491C554.502 30.1491 553.75 29.9536 553.18 29.5625C552.61 29.1681 552.27 28.6196 552.161 27.9169L553.916 27.7479C553.995 28.0926 554.164 28.3527 554.423 28.5284C554.681 28.7041 555.018 28.7919 555.432 28.7919C555.86 28.7919 556.203 28.7041 556.461 28.5284C556.723 28.3527 556.854 28.1357 556.854 27.8771C556.854 27.6584 556.77 27.4777 556.6 27.3352C556.435 27.1927 556.176 27.0833 555.825 27.0071L554.522 26.7337C553.79 26.5812 553.248 26.3243 552.897 25.9631C552.545 25.5985 552.371 25.1378 552.375 24.581C552.371 24.1103 552.499 23.7027 552.757 23.358C553.019 23.0099 553.382 22.7415 553.846 22.5526C554.314 22.3603 554.852 22.2642 555.462 22.2642C556.357 22.2642 557.061 22.4548 557.575 22.8359C558.092 23.2171 558.412 23.7325 558.534 24.3821ZM563.563 30.1491C562.798 30.1491 562.136 29.9901 561.58 29.6719C561.026 29.3504 560.6 28.8963 560.302 28.3097C560.004 27.7197 559.854 27.0253 559.854 26.2266C559.854 25.4411 560.004 24.7517 560.302 24.1584C560.603 23.5618 561.024 23.0978 561.565 22.7663C562.105 22.4316 562.74 22.2642 563.469 22.2642C563.939 22.2642 564.384 22.3404 564.801 22.4929C565.222 22.642 565.593 22.8741 565.915 23.1889C566.24 23.5038 566.495 23.9048 566.68 24.392C566.866 24.8759 566.959 25.4527 566.959 26.1222V26.674H560.7V25.4609H565.234C565.23 25.1162 565.156 24.8097 565.01 24.5412C564.864 24.2694 564.66 24.0556 564.398 23.8999C564.14 23.7441 563.838 23.6662 563.494 23.6662C563.126 23.6662 562.803 23.7557 562.524 23.9347C562.246 24.1103 562.029 24.3423 561.873 24.6307C561.72 24.9157 561.643 25.2289 561.639 25.5703V26.6293C561.639 27.0734 561.72 27.4545 561.883 27.7727C562.045 28.0876 562.272 28.3295 562.564 28.4986C562.856 28.6643 563.197 28.7472 563.588 28.7472C563.85 28.7472 564.087 28.7107 564.299 28.6378C564.511 28.5616 564.695 28.4505 564.851 28.3047C565.007 28.1589 565.124 27.9782 565.204 27.7628L566.884 27.9517C566.778 28.3958 566.576 28.7836 566.278 29.1151C565.983 29.4432 565.605 29.6984 565.144 29.8807C564.683 30.0597 564.156 30.1491 563.563 30.1491ZM568.481 30V22.3636H570.226V23.6364H570.306C570.445 23.1955 570.684 22.8558 571.022 22.6172C571.363 22.3752 571.753 22.2543 572.19 22.2543C572.29 22.2543 572.401 22.2592 572.523 22.2692C572.649 22.2758 572.754 22.2874 572.836 22.304V23.9595C572.76 23.933 572.639 23.9098 572.474 23.8899C572.311 23.8667 572.154 23.8551 572.001 23.8551C571.673 23.8551 571.378 23.9264 571.116 24.0689C570.858 24.2081 570.654 24.402 570.505 24.6506C570.356 24.8991 570.281 25.1858 570.281 25.5107V30H568.481ZM577.505 30V22.3636H579.305V30H577.505ZM578.41 21.2798C578.125 21.2798 577.879 21.1854 577.674 20.9964C577.468 20.8042 577.366 20.5739 577.366 20.3054C577.366 20.0336 577.468 19.8033 577.674 19.6143C577.879 19.4221 578.125 19.326 578.41 19.326C578.698 19.326 578.943 19.4221 579.145 19.6143C579.351 19.8033 579.454 20.0336 579.454 20.3054C579.454 20.5739 579.351 20.8042 579.145 20.9964C578.943 21.1854 578.698 21.2798 578.41 21.2798ZM582.955 25.5256V30H581.155V22.3636H582.875V23.6612H582.965C583.141 23.2337 583.421 22.8939 583.805 22.642C584.193 22.3902 584.672 22.2642 585.242 22.2642C585.769 22.2642 586.228 22.3769 586.619 22.6023C587.013 22.8277 587.318 23.1541 587.534 23.5817C587.752 24.0092 587.86 24.5279 587.857 25.1378V30H586.057V25.4162C586.057 24.9058 585.925 24.5064 585.659 24.218C585.398 23.9297 585.035 23.7855 584.571 23.7855C584.256 23.7855 583.976 23.8551 583.73 23.9943C583.489 24.1302 583.298 24.3274 583.159 24.5859C583.023 24.8445 582.955 25.1577 582.955 25.5256ZM593.5 22.3636V23.7557H589.11V22.3636H593.5ZM590.194 20.5341H591.993V27.7031C591.993 27.9451 592.03 28.1307 592.103 28.2599C592.179 28.3859 592.278 28.4721 592.401 28.5185C592.524 28.5649 592.659 28.5881 592.809 28.5881C592.921 28.5881 593.024 28.5798 593.117 28.5632C593.213 28.5466 593.286 28.5317 593.336 28.5185L593.639 29.9254C593.543 29.9586 593.405 29.995 593.226 30.0348C593.051 30.0746 592.835 30.0978 592.58 30.1044C592.129 30.1177 591.723 30.0497 591.362 29.9006C591.001 29.7481 590.714 29.5128 590.502 29.1946C590.293 28.8764 590.19 28.4787 590.194 28.0014V20.5341ZM598.303 30.1491C597.538 30.1491 596.877 29.9901 596.32 29.6719C595.766 29.3504 595.34 28.8963 595.042 28.3097C594.744 27.7197 594.595 27.0253 594.595 26.2266C594.595 25.4411 594.744 24.7517 595.042 24.1584C595.344 23.5618 595.765 23.0978 596.305 22.7663C596.845 22.4316 597.48 22.2642 598.209 22.2642C598.68 22.2642 599.124 22.3404 599.541 22.4929C599.962 22.642 600.334 22.8741 600.655 23.1889C600.98 23.5038 601.235 23.9048 601.421 24.392C601.606 24.8759 601.699 25.4527 601.699 26.1222V26.674H595.44V25.4609H599.974C599.971 25.1162 599.896 24.8097 599.75 24.5412C599.604 24.2694 599.401 24.0556 599.139 23.8999C598.88 23.7441 598.579 23.6662 598.234 23.6662C597.866 23.6662 597.543 23.7557 597.264 23.9347C596.986 24.1103 596.769 24.3423 596.613 24.6307C596.461 24.9157 596.383 25.2289 596.379 25.5703V26.6293C596.379 27.0734 596.461 27.4545 596.623 27.7727C596.785 28.0876 597.012 28.3295 597.304 28.4986C597.596 28.6643 597.937 28.7472 598.328 28.7472C598.59 28.7472 598.827 28.7107 599.039 28.6378C599.251 28.5616 599.435 28.4505 599.591 28.3047C599.747 28.1589 599.865 27.9782 599.944 27.7628L601.624 27.9517C601.518 28.3958 601.316 28.7836 601.018 29.1151C600.723 29.4432 600.345 29.6984 599.884 29.8807C599.424 30.0597 598.897 30.1491 598.303 30.1491ZM603.222 30V22.3636H604.967V23.6364H605.046C605.185 23.1955 605.424 22.8558 605.762 22.6172C606.103 22.3752 606.493 22.2543 606.93 22.2543C607.03 22.2543 607.141 22.2592 607.263 22.2692C607.389 22.2758 607.494 22.2874 607.577 22.304V23.9595C607.5 23.933 607.379 23.9098 607.214 23.8899C607.051 23.8667 606.894 23.8551 606.741 23.8551C606.413 23.8551 606.118 23.9264 605.857 24.0689C605.598 24.2081 605.394 24.402 605.245 24.6506C605.096 24.8991 605.021 25.1858 605.021 25.5107V30H603.222ZM613.05 22.3636V23.7557H608.536V22.3636H613.05ZM609.665 30V21.6428C609.665 21.129 609.771 20.7015 609.983 20.3601C610.198 20.0187 610.487 19.7635 610.848 19.5945C611.209 19.4254 611.61 19.3409 612.051 19.3409C612.363 19.3409 612.639 19.3658 612.881 19.4155C613.123 19.4652 613.302 19.5099 613.418 19.5497L613.06 20.9418C612.984 20.9186 612.888 20.8954 612.772 20.8722C612.656 20.8456 612.527 20.8324 612.384 20.8324C612.049 20.8324 611.813 20.9136 611.673 21.076C611.537 21.2351 611.469 21.4638 611.469 21.7621V30H609.665ZM616.398 30.1541C615.914 30.1541 615.478 30.0679 615.09 29.8956C614.706 29.7199 614.401 29.4614 614.175 29.12C613.953 28.7786 613.842 28.3577 613.842 27.8572C613.842 27.4264 613.922 27.0701 614.081 26.7884C614.24 26.5066 614.457 26.2812 614.732 26.1122C615.007 25.9432 615.317 25.8156 615.662 25.7294C616.01 25.6399 616.369 25.5753 616.741 25.5355C617.188 25.4891 617.551 25.4477 617.829 25.4112C618.108 25.3714 618.31 25.3118 618.436 25.2322C618.565 25.1494 618.63 25.0218 618.63 24.8494V24.8196C618.63 24.4451 618.519 24.1551 618.297 23.9496C618.075 23.7441 617.755 23.6413 617.337 23.6413C616.896 23.6413 616.547 23.7375 616.288 23.9297C616.033 24.1219 615.861 24.349 615.771 24.6108L614.091 24.3722C614.223 23.9081 614.442 23.5204 614.747 23.2088C615.052 22.8939 615.425 22.6586 615.866 22.5028C616.306 22.3438 616.794 22.2642 617.327 22.2642C617.695 22.2642 618.061 22.3073 618.426 22.3935C618.791 22.4796 619.124 22.6222 619.425 22.821C619.727 23.0166 619.969 23.2834 620.151 23.6214C620.337 23.9595 620.43 24.3821 620.43 24.8892V30H618.699V28.951H618.64C618.53 29.1631 618.376 29.362 618.177 29.5476C617.982 29.7299 617.735 29.8774 617.437 29.9901C617.142 30.0994 616.795 30.1541 616.398 30.1541ZM616.865 28.8317C617.226 28.8317 617.539 28.7604 617.805 28.6179C618.07 28.4721 618.273 28.2798 618.416 28.0412C618.562 27.8026 618.635 27.5424 618.635 27.2607V26.3608C618.578 26.4072 618.482 26.4503 618.346 26.4901C618.214 26.5298 618.065 26.5646 617.899 26.5945C617.733 26.6243 617.569 26.6508 617.407 26.674C617.244 26.6972 617.104 26.7171 616.984 26.7337C616.716 26.7701 616.475 26.8298 616.263 26.9126C616.051 26.9955 615.884 27.1115 615.761 27.2607C615.639 27.4065 615.577 27.5954 615.577 27.8274C615.577 28.1589 615.698 28.4091 615.94 28.5781C616.182 28.7472 616.49 28.8317 616.865 28.8317ZM625.57 30.1491C624.808 30.1491 624.153 29.9818 623.606 29.647C623.063 29.3123 622.644 28.8499 622.349 28.2599C622.057 27.6667 621.911 26.9839 621.911 26.2116C621.911 25.4361 622.06 24.7517 622.358 24.1584C622.657 23.5618 623.078 23.0978 623.621 22.7663C624.168 22.4316 624.814 22.2642 625.56 22.2642C626.18 22.2642 626.729 22.3786 627.206 22.6072C627.686 22.8326 628.069 23.1525 628.354 23.5668C628.639 23.9777 628.802 24.4583 628.841 25.0085H627.121C627.052 24.6406 626.886 24.334 626.624 24.0888C626.366 23.8402 626.019 23.7159 625.585 23.7159C625.217 23.7159 624.894 23.8153 624.616 24.0142C624.337 24.2098 624.12 24.4915 623.964 24.8594C623.812 25.2273 623.736 25.6681 623.736 26.1818C623.736 26.7022 623.812 27.1496 623.964 27.5241C624.117 27.8954 624.331 28.1821 624.606 28.3842C624.884 28.5831 625.211 28.6825 625.585 28.6825C625.85 28.6825 626.087 28.6328 626.296 28.5334C626.508 28.4306 626.685 28.2831 626.828 28.0909C626.97 27.8987 627.068 27.665 627.121 27.3899H628.841C628.798 27.9302 628.639 28.4091 628.364 28.8267C628.089 29.241 627.715 29.5658 627.241 29.8011C626.767 30.0331 626.21 30.1491 625.57 30.1491ZM633.7 30.1491C632.934 30.1491 632.273 29.9901 631.716 29.6719C631.163 29.3504 630.737 28.8963 630.439 28.3097C630.14 27.7197 629.991 27.0253 629.991 26.2266C629.991 25.4411 630.14 24.7517 630.439 24.1584C630.74 23.5618 631.161 23.0978 631.701 22.7663C632.242 22.4316 632.876 22.2642 633.605 22.2642C634.076 22.2642 634.52 22.3404 634.938 22.4929C635.359 22.642 635.73 22.8741 636.051 23.1889C636.376 23.5038 636.632 23.9048 636.817 24.392C637.003 24.8759 637.096 25.4527 637.096 26.1222V26.674H630.836V25.4609H635.37C635.367 25.1162 635.292 24.8097 635.147 24.5412C635.001 24.2694 634.797 24.0556 634.535 23.8999C634.277 23.7441 633.975 23.6662 633.63 23.6662C633.262 23.6662 632.939 23.7557 632.661 23.9347C632.382 24.1103 632.165 24.3423 632.01 24.6307C631.857 24.9157 631.779 25.2289 631.776 25.5703V26.6293C631.776 27.0734 631.857 27.4545 632.02 27.7727C632.182 28.0876 632.409 28.3295 632.701 28.4986C632.992 28.6643 633.334 28.7472 633.725 28.7472C633.987 28.7472 634.224 28.7107 634.436 28.6378C634.648 28.5616 634.832 28.4505 634.988 28.3047C635.143 28.1589 635.261 27.9782 635.341 27.7628L637.021 27.9517C636.915 28.3958 636.713 28.7836 636.414 29.1151C636.119 29.4432 635.742 29.6984 635.281 29.8807C634.82 30.0597 634.293 30.1491 633.7 30.1491Z" fill="#1D1D1F"/>
<path d="M210.68 22.6172C210.634 22.183 210.438 21.8449 210.094 21.603C209.752 21.361 209.308 21.2401 208.761 21.2401C208.377 21.2401 208.047 21.2981 207.772 21.4141C207.497 21.5301 207.286 21.6875 207.14 21.8864C206.995 22.0852 206.92 22.3123 206.917 22.5675C206.917 22.7796 206.965 22.9635 207.061 23.1193C207.16 23.2751 207.295 23.4077 207.464 23.517C207.633 23.6231 207.82 23.7126 208.025 23.7855C208.231 23.8584 208.438 23.9197 208.647 23.9695L209.601 24.2081C209.986 24.2976 210.355 24.4186 210.71 24.571C211.068 24.7235 211.388 24.9157 211.67 25.1477C211.955 25.3797 212.18 25.6598 212.346 25.9879C212.511 26.3161 212.594 26.7005 212.594 27.1413C212.594 27.7379 212.442 28.2633 212.137 28.7173C211.832 29.1681 211.391 29.5211 210.814 29.7763C210.241 30.0282 209.547 30.1541 208.731 30.1541C207.939 30.1541 207.251 30.0315 206.668 29.7862C206.088 29.541 205.634 29.183 205.306 28.7124C204.981 28.2417 204.805 27.6683 204.779 26.9922H206.594C206.62 27.3468 206.729 27.6418 206.922 27.8771C207.114 28.1125 207.364 28.2881 207.672 28.4041C207.984 28.5201 208.332 28.5781 208.716 28.5781C209.117 28.5781 209.469 28.5185 209.77 28.3991C210.075 28.2765 210.314 28.1075 210.486 27.892C210.659 27.6733 210.747 27.4181 210.75 27.1264C210.747 26.8613 210.669 26.6425 210.516 26.4702C210.364 26.2945 210.15 26.1487 209.875 26.0327C209.603 25.9134 209.285 25.8073 208.92 25.7145L207.762 25.4162C206.923 25.2008 206.26 24.8743 205.773 24.4368C205.289 23.996 205.047 23.411 205.047 22.6818C205.047 22.0819 205.21 21.5566 205.535 21.1058C205.863 20.6551 206.309 20.3054 206.872 20.0568C207.435 19.8049 208.073 19.679 208.786 19.679C209.509 19.679 210.142 19.8049 210.685 20.0568C211.232 20.3054 211.661 20.6518 211.973 21.0959C212.284 21.5367 212.445 22.0438 212.455 22.6172H210.68ZM217.972 22.3636V23.7557H213.582V22.3636H217.972ZM214.666 20.5341H216.466V27.7031C216.466 27.9451 216.502 28.1307 216.575 28.2599C216.652 28.3859 216.751 28.4721 216.874 28.5185C216.996 28.5649 217.132 28.5881 217.281 28.5881C217.394 28.5881 217.497 28.5798 217.589 28.5632C217.686 28.5466 217.759 28.5317 217.808 28.5185L218.112 29.9254C218.015 29.9586 217.878 29.995 217.699 30.0348C217.523 30.0746 217.308 30.0978 217.053 30.1044C216.602 30.1177 216.196 30.0497 215.835 29.9006C215.473 29.7481 215.187 29.5128 214.974 29.1946C214.766 28.8764 214.663 28.4787 214.666 28.0014V20.5341ZM221.675 30.1541C221.191 30.1541 220.755 30.0679 220.367 29.8956C219.983 29.7199 219.678 29.4614 219.453 29.12C219.231 28.7786 219.119 28.3577 219.119 27.8572C219.119 27.4264 219.199 27.0701 219.358 26.7884C219.517 26.5066 219.734 26.2812 220.009 26.1122C220.285 25.9432 220.594 25.8156 220.939 25.7294C221.287 25.6399 221.647 25.5753 222.018 25.5355C222.465 25.4891 222.828 25.4477 223.107 25.4112C223.385 25.3714 223.587 25.3118 223.713 25.2322C223.843 25.1494 223.907 25.0218 223.907 24.8494V24.8196C223.907 24.4451 223.796 24.1551 223.574 23.9496C223.352 23.7441 223.032 23.6413 222.615 23.6413C222.174 23.6413 221.824 23.7375 221.566 23.9297C221.31 24.1219 221.138 24.349 221.048 24.6108L219.368 24.3722C219.501 23.9081 219.719 23.5204 220.024 23.2088C220.329 22.8939 220.702 22.6586 221.143 22.5028C221.584 22.3438 222.071 22.2642 222.605 22.2642C222.972 22.2642 223.339 22.3073 223.703 22.3935C224.068 22.4796 224.401 22.6222 224.703 22.821C225.004 23.0166 225.246 23.2834 225.428 23.6214C225.614 23.9595 225.707 24.3821 225.707 24.8892V30H223.977V28.951H223.917C223.808 29.1631 223.654 29.362 223.455 29.5476C223.259 29.7299 223.012 29.8774 222.714 29.9901C222.419 30.0994 222.073 30.1541 221.675 30.1541ZM222.142 28.8317C222.503 28.8317 222.817 28.7604 223.082 28.6179C223.347 28.4721 223.551 28.2798 223.693 28.0412C223.839 27.8026 223.912 27.5424 223.912 27.2607V26.3608C223.856 26.4072 223.76 26.4503 223.624 26.4901C223.491 26.5298 223.342 26.5646 223.176 26.5945C223.011 26.6243 222.847 26.6508 222.684 26.674C222.522 26.6972 222.381 26.7171 222.262 26.7337C221.993 26.7701 221.753 26.8298 221.541 26.9126C221.329 26.9955 221.161 27.1115 221.039 27.2607C220.916 27.4065 220.855 27.5954 220.855 27.8274C220.855 28.1589 220.976 28.4091 221.218 28.5781C221.459 28.7472 221.768 28.8317 222.142 28.8317ZM231.33 22.3636V23.7557H226.94V22.3636H231.33ZM228.024 20.5341H229.823V27.7031C229.823 27.9451 229.86 28.1307 229.933 28.2599C230.009 28.3859 230.108 28.4721 230.231 28.5185C230.354 28.5649 230.49 28.5881 230.639 28.5881C230.751 28.5881 230.854 28.5798 230.947 28.5632C231.043 28.5466 231.116 28.5317 231.166 28.5185L231.469 29.9254C231.373 29.9586 231.235 29.995 231.056 30.0348C230.881 30.0746 230.665 30.0978 230.41 30.1044C229.959 30.1177 229.553 30.0497 229.192 29.9006C228.831 29.7481 228.544 29.5128 228.332 29.1946C228.123 28.8764 228.02 28.4787 228.024 28.0014V20.5341ZM236.134 30.1491C235.368 30.1491 234.707 29.9901 234.15 29.6719C233.596 29.3504 233.17 28.8963 232.872 28.3097C232.574 27.7197 232.425 27.0253 232.425 26.2266C232.425 25.4411 232.574 24.7517 232.872 24.1584C233.174 23.5618 233.595 23.0978 234.135 22.7663C234.675 22.4316 235.31 22.2642 236.039 22.2642C236.51 22.2642 236.954 22.3404 237.371 22.4929C237.792 22.642 238.164 22.8741 238.485 23.1889C238.81 23.5038 239.065 23.9048 239.251 24.392C239.436 24.8759 239.529 25.4527 239.529 26.1222V26.674H233.27V25.4609H237.804C237.801 25.1162 237.726 24.8097 237.58 24.5412C237.434 24.2694 237.231 24.0556 236.969 23.8999C236.71 23.7441 236.409 23.6662 236.064 23.6662C235.696 23.6662 235.373 23.7557 235.094 23.9347C234.816 24.1103 234.599 24.3423 234.443 24.6307C234.291 24.9157 234.213 25.2289 234.21 25.5703V26.6293C234.21 27.0734 234.291 27.4545 234.453 27.7727C234.616 28.0876 234.843 28.3295 235.134 28.4986C235.426 28.6643 235.767 28.7472 236.158 28.7472C236.42 28.7472 236.657 28.7107 236.869 28.6378C237.081 28.5616 237.265 28.4505 237.421 28.3047C237.577 28.1589 237.695 27.9782 237.774 27.7628L239.455 27.9517C239.348 28.3958 239.146 28.7836 238.848 29.1151C238.553 29.4432 238.175 29.6984 237.714 29.8807C237.254 30.0597 236.727 30.1491 236.134 30.1491ZM247.855 30.1491C247.11 30.1491 246.463 29.9851 245.916 29.657C245.369 29.3288 244.945 28.8698 244.644 28.2798C244.345 27.6899 244.196 27.0005 244.196 26.2116C244.196 25.4228 244.345 24.7318 244.644 24.1385C244.945 23.5452 245.369 23.0845 245.916 22.7564C246.463 22.4283 247.11 22.2642 247.855 22.2642C248.601 22.2642 249.247 22.4283 249.794 22.7564C250.341 23.0845 250.764 23.5452 251.062 24.1385C251.364 24.7318 251.514 25.4228 251.514 26.2116C251.514 27.0005 251.364 27.6899 251.062 28.2798C250.764 28.8698 250.341 29.3288 249.794 29.657C249.247 29.9851 248.601 30.1491 247.855 30.1491ZM247.865 28.7074C248.27 28.7074 248.608 28.5964 248.879 28.3743C249.151 28.1489 249.353 27.8473 249.486 27.4695C249.622 27.0916 249.69 26.6707 249.69 26.2067C249.69 25.7393 249.622 25.3168 249.486 24.9389C249.353 24.5578 249.151 24.2545 248.879 24.0291C248.608 23.8037 248.27 23.6911 247.865 23.6911C247.451 23.6911 247.106 23.8037 246.831 24.0291C246.559 24.2545 246.356 24.5578 246.22 24.9389C246.087 25.3168 246.021 25.7393 246.021 26.2067C246.021 26.6707 246.087 27.0916 246.22 27.4695C246.356 27.8473 246.559 28.1489 246.831 28.3743C247.106 28.5964 247.451 28.7074 247.865 28.7074ZM253.121 30V19.8182H254.921V23.6264H254.996C255.089 23.4408 255.219 23.2436 255.388 23.0348C255.558 22.8227 255.786 22.642 256.075 22.4929C256.363 22.3404 256.731 22.2642 257.178 22.2642C257.768 22.2642 258.3 22.415 258.774 22.7166C259.251 23.0149 259.629 23.4574 259.908 24.044C260.189 24.6274 260.33 25.3433 260.33 26.1918C260.33 27.0303 260.193 27.7429 259.918 28.3295C259.643 28.9162 259.268 29.3636 258.794 29.6719C258.32 29.9801 257.783 30.1342 257.183 30.1342C256.746 30.1342 256.383 30.0613 256.094 29.9155C255.806 29.7696 255.574 29.594 255.398 29.3885C255.226 29.1797 255.092 28.9825 254.996 28.7969H254.891V30H253.121ZM254.886 26.1818C254.886 26.6757 254.956 27.1082 255.095 27.4794C255.238 27.8506 255.442 28.1406 255.707 28.3494C255.975 28.5549 256.3 28.6577 256.681 28.6577C257.079 28.6577 257.412 28.5516 257.68 28.3395C257.949 28.1241 258.151 27.8307 258.287 27.4595C258.426 27.085 258.496 26.6591 258.496 26.1818C258.496 25.7079 258.428 25.2869 258.292 24.919C258.156 24.5511 257.954 24.2628 257.685 24.054C257.417 23.8452 257.082 23.7408 256.681 23.7408C256.297 23.7408 255.97 23.8419 255.702 24.044C255.433 24.2462 255.229 24.5296 255.09 24.8942C254.954 25.2588 254.886 25.688 254.886 26.1818ZM261.86 22.3636H263.66V30.4375C263.66 30.9877 263.556 31.4418 263.347 31.7997C263.138 32.1577 262.836 32.4245 262.442 32.6001C262.048 32.7758 261.569 32.8636 261.005 32.8636C260.939 32.8636 260.878 32.862 260.821 32.8587C260.765 32.8587 260.704 32.857 260.637 32.8537V31.3871C260.687 31.3904 260.732 31.392 260.771 31.392C260.811 31.3954 260.853 31.397 260.896 31.397C261.24 31.397 261.487 31.3125 261.637 31.1435C261.786 30.9777 261.86 30.7341 261.86 30.4126V22.3636ZM262.755 21.2798C262.467 21.2798 262.22 21.1854 262.014 20.9964C261.812 20.8042 261.711 20.5739 261.711 20.3054C261.711 20.0336 261.812 19.8033 262.014 19.6143C262.22 19.4221 262.467 19.326 262.755 19.326C263.04 19.326 263.284 19.4221 263.486 19.6143C263.691 19.8033 263.794 20.0336 263.794 20.3054C263.794 20.5739 263.691 20.8042 263.486 20.9964C263.284 21.1854 263.04 21.2798 262.755 21.2798ZM268.891 30.1491C268.126 30.1491 267.464 29.9901 266.908 29.6719C266.354 29.3504 265.928 28.8963 265.63 28.3097C265.332 27.7197 265.183 27.0253 265.183 26.2266C265.183 25.4411 265.332 24.7517 265.63 24.1584C265.932 23.5618 266.353 23.0978 266.893 22.7663C267.433 22.4316 268.068 22.2642 268.797 22.2642C269.268 22.2642 269.712 22.3404 270.129 22.4929C270.55 22.642 270.921 22.8741 271.243 23.1889C271.568 23.5038 271.823 23.9048 272.009 24.392C272.194 24.8759 272.287 25.4527 272.287 26.1222V26.674H266.028V25.4609H270.562C270.558 25.1162 270.484 24.8097 270.338 24.5412C270.192 24.2694 269.988 24.0556 269.727 23.8999C269.468 23.7441 269.166 23.6662 268.822 23.6662C268.454 23.6662 268.131 23.7557 267.852 23.9347C267.574 24.1103 267.357 24.3423 267.201 24.6307C267.049 24.9157 266.971 25.2289 266.967 25.5703V26.6293C266.967 27.0734 267.049 27.4545 267.211 27.7727C267.373 28.0876 267.6 28.3295 267.892 28.4986C268.184 28.6643 268.525 28.7472 268.916 28.7472C269.178 28.7472 269.415 28.7107 269.627 28.6378C269.839 28.5616 270.023 28.4505 270.179 28.3047C270.335 28.1589 270.452 27.9782 270.532 27.7628L272.212 27.9517C272.106 28.3958 271.904 28.7836 271.606 29.1151C271.311 29.4432 270.933 29.6984 270.472 29.8807C270.012 30.0597 269.485 30.1491 268.891 30.1491ZM277.14 30.1491C276.378 30.1491 275.724 29.9818 275.177 29.647C274.633 29.3123 274.214 28.8499 273.919 28.2599C273.627 27.6667 273.481 26.9839 273.481 26.2116C273.481 25.4361 273.631 24.7517 273.929 24.1584C274.227 23.5618 274.648 23.0978 275.192 22.7663C275.738 22.4316 276.385 22.2642 277.131 22.2642C277.75 22.2642 278.299 22.3786 278.776 22.6072C279.257 22.8326 279.64 23.1525 279.925 23.5668C280.21 23.9777 280.372 24.4583 280.412 25.0085H278.692C278.622 24.6406 278.456 24.334 278.194 24.0888C277.936 23.8402 277.59 23.7159 277.155 23.7159C276.787 23.7159 276.464 23.8153 276.186 24.0142C275.907 24.2098 275.69 24.4915 275.535 24.8594C275.382 25.2273 275.306 25.6681 275.306 26.1818C275.306 26.7022 275.382 27.1496 275.535 27.5241C275.687 27.8954 275.901 28.1821 276.176 28.3842C276.454 28.5831 276.781 28.6825 277.155 28.6825C277.421 28.6825 277.657 28.6328 277.866 28.5334C278.078 28.4306 278.256 28.2831 278.398 28.0909C278.541 27.8987 278.639 27.665 278.692 27.3899H280.412C280.369 27.9302 280.21 28.4091 279.934 28.8267C279.659 29.241 279.285 29.5658 278.811 29.8011C278.337 30.0331 277.78 30.1491 277.14 30.1491ZM285.703 22.3636V23.7557H281.313V22.3636H285.703ZM282.397 20.5341H284.196V27.7031C284.196 27.9451 284.233 28.1307 284.306 28.2599C284.382 28.3859 284.481 28.4721 284.604 28.5185C284.727 28.5649 284.863 28.5881 285.012 28.5881C285.124 28.5881 285.227 28.5798 285.32 28.5632C285.416 28.5466 285.489 28.5317 285.539 28.5185L285.842 29.9254C285.746 29.9586 285.608 29.995 285.429 30.0348C285.254 30.0746 285.038 30.0978 284.783 30.1044C284.332 30.1177 283.926 30.0497 283.565 29.9006C283.204 29.7481 282.917 29.5128 282.705 29.1946C282.496 28.8764 282.393 28.4787 282.397 28.0014V20.5341ZM293.134 24.3821L291.493 24.5611C291.447 24.3954 291.366 24.2396 291.25 24.0938C291.137 23.9479 290.985 23.8303 290.792 23.7408C290.6 23.6513 290.365 23.6065 290.086 23.6065C289.712 23.6065 289.397 23.6877 289.142 23.8501C288.89 24.0125 288.766 24.223 288.769 24.4815C288.766 24.7036 288.847 24.8842 289.013 25.0234C289.182 25.1626 289.46 25.277 289.848 25.3665L291.15 25.6449C291.873 25.8007 292.41 26.0476 292.761 26.3857C293.116 26.7237 293.295 27.1662 293.298 27.7131C293.295 28.1937 293.154 28.6179 292.876 28.9858C292.6 29.3504 292.218 29.6354 291.727 29.8409C291.237 30.0464 290.673 30.1491 290.037 30.1491C289.102 30.1491 288.35 29.9536 287.78 29.5625C287.21 29.1681 286.87 28.6196 286.76 27.9169L288.515 27.7479C288.595 28.0926 288.764 28.3527 289.023 28.5284C289.281 28.7041 289.617 28.7919 290.032 28.7919C290.459 28.7919 290.802 28.7041 291.061 28.5284C291.323 28.3527 291.454 28.1357 291.454 27.8771C291.454 27.6584 291.369 27.4777 291.2 27.3352C291.034 27.1927 290.776 27.0833 290.425 27.0071L289.122 26.7337C288.39 26.5812 287.848 26.3243 287.496 25.9631C287.145 25.5985 286.971 25.1378 286.974 24.581C286.971 24.1103 287.099 23.7027 287.357 23.358C287.619 23.0099 287.982 22.7415 288.446 22.5526C288.913 22.3603 289.452 22.2642 290.062 22.2642C290.956 22.2642 291.661 22.4548 292.175 22.8359C292.692 23.2171 293.011 23.7325 293.134 24.3821Z" fill="#1D1D1F"/>
<rect width="136" height="40" transform="translate(181 50)" fill="#CC8800"/>
<path d="M200.042 76L197.034 64.32H198.506L200.506 72.272C200.645 72.8267 200.757 73.3387 200.842 73.808C200.938 74.2773 201.008 74.6347 201.05 74.88C201.093 74.6347 201.162 74.2773 201.258 73.808C201.365 73.328 201.488 72.8107 201.626 72.256L203.546 64.32H205.034L202.01 76H200.042ZM209.86 76.16C208.932 76.16 208.201 75.9253 207.668 75.456C207.135 74.976 206.868 74.3307 206.868 73.52C206.868 72.6987 207.135 72.0533 207.668 71.584C208.201 71.1147 208.921 70.88 209.828 70.88H212.548V70C212.548 69.4667 212.383 69.0507 212.052 68.752C211.732 68.4533 211.284 68.304 210.708 68.304C210.196 68.304 209.764 68.416 209.412 68.64C209.06 68.864 208.841 69.1573 208.756 69.52H207.316C207.369 69.0293 207.545 68.5973 207.844 68.224C208.153 67.8507 208.553 67.5627 209.044 67.36C209.545 67.1467 210.1 67.04 210.708 67.04C211.721 67.04 212.521 67.3013 213.108 67.824C213.695 68.3467 213.988 69.056 213.988 69.952V76H212.58V74.32H212.564C212.5 74.8853 212.223 75.3333 211.732 75.664C211.252 75.9947 210.628 76.16 209.86 76.16ZM210.212 75.024C210.895 75.024 211.455 74.8533 211.892 74.512C212.329 74.1707 212.548 73.7333 212.548 73.2V71.952H209.86C209.38 71.952 209.001 72.0853 208.724 72.352C208.447 72.6187 208.308 72.9813 208.308 73.44C208.308 73.9307 208.473 74.32 208.804 74.608C209.145 74.8853 209.615 75.024 210.212 75.024ZM221.502 76C220.723 76 220.099 75.776 219.63 75.328C219.171 74.8693 218.942 74.2667 218.942 73.52V65.632H215.902V64.32H220.382V73.52C220.382 73.8827 220.483 74.1707 220.686 74.384C220.889 74.5867 221.161 74.688 221.502 74.688H224.222V76H221.502ZM229.8 76.16C228.786 76.16 227.976 75.8613 227.368 75.264C226.76 74.656 226.456 73.8347 226.456 72.8V67.2H227.896V72.8C227.896 73.4613 228.066 73.9787 228.408 74.352C228.749 74.7147 229.213 74.896 229.8 74.896C230.397 74.896 230.866 74.7147 231.208 74.352C231.56 73.9787 231.736 73.4613 231.736 72.8V67.2H233.176V72.8C233.176 73.8347 232.866 74.656 232.248 75.264C231.629 75.8613 230.813 76.16 229.8 76.16ZM239.409 76.16C238.716 76.16 238.108 76.0213 237.585 75.744C237.073 75.4667 236.673 75.0773 236.385 74.576C236.108 74.064 235.969 73.472 235.969 72.8V70.4C235.969 69.7173 236.108 69.1253 236.385 68.624C236.673 68.1227 237.073 67.7333 237.585 67.456C238.108 67.1787 238.716 67.04 239.409 67.04C240.103 67.04 240.705 67.1787 241.217 67.456C241.74 67.7333 242.14 68.1227 242.417 68.624C242.705 69.1253 242.849 69.7173 242.849 70.4V71.952H237.377V72.8C237.377 73.4933 237.553 74.0267 237.905 74.4C238.257 74.7627 238.759 74.944 239.409 74.944C239.964 74.944 240.412 74.848 240.753 74.656C241.095 74.4533 241.303 74.1547 241.377 73.76H242.817C242.721 74.496 242.359 75.0827 241.729 75.52C241.111 75.9467 240.337 76.16 239.409 76.16ZM237.377 70.864H241.441V70.4C241.441 69.7067 241.265 69.1733 240.913 68.8C240.572 68.4267 240.071 68.24 239.409 68.24C238.759 68.24 238.257 68.4267 237.905 68.8C237.553 69.1733 237.377 69.7067 237.377 70.4V70.864ZM251.963 77.92C250.448 77.5467 249.27 76.8107 248.427 75.712C247.584 74.6133 247.163 73.2693 247.163 71.68V68.8C247.163 67.7547 247.355 66.8107 247.739 65.968C248.134 65.1147 248.688 64.3947 249.403 63.808C250.128 63.2213 250.982 62.8053 251.963 62.56V63.92C251.28 64.08 250.688 64.3893 250.187 64.848C249.686 65.296 249.296 65.856 249.019 66.528C248.742 67.2 248.603 67.9573 248.603 68.8V71.68C248.603 72.5013 248.736 73.248 249.003 73.92C249.28 74.592 249.67 75.152 250.171 75.6C250.683 76.0373 251.28 76.336 251.963 76.496V77.92ZM259.557 76C258.832 76 258.25 75.792 257.813 75.376C257.376 74.9493 257.157 74.384 257.157 73.68V68.512H254.677V67.2H257.157V64.72H258.597V67.2H262.117V68.512H258.597V73.68C258.597 73.9787 258.682 74.224 258.853 74.416C259.034 74.5973 259.269 74.688 259.557 74.688H261.957V76H259.557ZM265.135 76V67.2H266.575V68.88H266.591C266.665 68.2933 266.905 67.84 267.311 67.52C267.716 67.2 268.255 67.04 268.927 67.04C269.844 67.04 270.575 67.3333 271.119 67.92C271.663 68.496 271.935 69.28 271.935 70.272V70.88H270.495V70.4C270.495 69.728 270.324 69.2107 269.983 68.848C269.641 68.4747 269.145 68.288 268.495 68.288C267.215 68.288 266.575 68.992 266.575 70.4V76H265.135ZM277.768 76.16C276.755 76.16 275.944 75.8613 275.336 75.264C274.728 74.656 274.424 73.8347 274.424 72.8V67.2H275.864V72.8C275.864 73.4613 276.035 73.9787 276.376 74.352C276.718 74.7147 277.182 74.896 277.768 74.896C278.366 74.896 278.835 74.7147 279.176 74.352C279.528 73.9787 279.704 73.4613 279.704 72.8V67.2H281.144V72.8C281.144 73.8347 280.835 74.656 280.216 75.264C279.598 75.8613 278.782 76.16 277.768 76.16ZM287.378 76.16C286.685 76.16 286.077 76.0213 285.554 75.744C285.042 75.4667 284.642 75.0773 284.354 74.576C284.077 74.064 283.938 73.472 283.938 72.8V70.4C283.938 69.7173 284.077 69.1253 284.354 68.624C284.642 68.1227 285.042 67.7333 285.554 67.456C286.077 67.1787 286.685 67.04 287.378 67.04C288.071 67.04 288.674 67.1787 289.186 67.456C289.709 67.7333 290.109 68.1227 290.386 68.624C290.674 69.1253 290.818 69.7173 290.818 70.4V71.952H285.346V72.8C285.346 73.4933 285.522 74.0267 285.874 74.4C286.226 74.7627 286.727 74.944 287.378 74.944C287.933 74.944 288.381 74.848 288.722 74.656C289.063 74.4533 289.271 74.1547 289.346 73.76H290.786C290.69 74.496 290.327 75.0827 289.698 75.52C289.079 75.9467 288.306 76.16 287.378 76.16ZM285.346 70.864H289.41V70.4C289.41 69.7067 289.234 69.1733 288.882 68.8C288.541 68.4267 288.039 68.24 287.378 68.24C286.727 68.24 286.226 68.4267 285.874 68.8C285.522 69.1733 285.346 69.7067 285.346 70.4V70.864ZM294.012 77.92V76.496C294.705 76.336 295.303 76.0373 295.804 75.6C296.305 75.152 296.689 74.592 296.956 73.92C297.233 73.248 297.372 72.5013 297.372 71.68V68.8C297.372 67.9573 297.233 67.2 296.956 66.528C296.679 65.856 296.289 65.296 295.788 64.848C295.287 64.3893 294.695 64.08 294.012 63.92V62.56C295.004 62.8053 295.857 63.2213 296.572 63.808C297.287 64.3947 297.836 65.1147 298.22 65.968C298.615 66.8107 298.812 67.7547 298.812 68.8V71.68C298.812 73.2693 298.391 74.6133 297.548 75.712C296.705 76.8107 295.527 77.5467 294.012 77.92Z" fill="#F8F8FA"/>
<path d="M446.707 70.7071C447.098 70.3166 447.098 69.6834 446.707 69.2929L440.343 62.9289C439.953 62.5384 439.319 62.5384 438.929 62.9289C438.538 63.3195 438.538 63.9526 438.929 64.3431L444.586 70L438.929 75.6569C438.538 76.0474 438.538 76.6805 438.929 77.0711C439.319 77.4616 439.953 77.4616 440.343 77.0711L446.707 70.7071ZM446 69H317V71H446V69Z" fill="#CC8800"/>
<path d="M381.707 70.7071C382.098 70.3166 382.098 69.6834 381.707 69.2929L375.343 62.9289C374.953 62.5384 374.319 62.5384 373.929 62.9289C373.538 63.3195 373.538 63.9526 373.929 64.3431L379.586 70L373.929 75.6569C373.538 76.0474 373.538 76.6805 373.929 77.0711C374.319 77.4616 374.953 77.4616 375.343 77.0711L381.707 70.7071ZM381 69H317V71H381V69Z" fill="#CC8800"/>
<path d="M446.707 120.707C447.098 120.317 447.098 119.683 446.707 119.293L440.343 112.929C439.953 112.538 439.319 112.538 438.929 112.929C438.538 113.319 438.538 113.953 438.929 114.343L444.586 120L438.929 125.657C438.538 126.047 438.538 126.681 438.929 127.071C439.319 127.462 439.953 127.462 440.343 127.071L446.707 120.707ZM446 119H317V121H446V119Z" fill="#CC8800"/>
<path d="M381.707 120.707C382.098 120.317 382.098 119.683 381.707 119.293L375.343 112.929C374.953 112.538 374.319 112.538 373.929 112.929C373.538 113.319 373.538 113.953 373.929 114.343L379.586 120L373.929 125.657C373.538 126.047 373.538 126.681 373.929 127.071C374.319 127.462 374.953 127.462 375.343 127.071L381.707 120.707ZM381 119H317V121H381V119Z" fill="#CC8800"/>
<path d="M446.707 170.707C447.098 170.317 447.098 169.683 446.707 169.293L440.343 162.929C439.953 162.538 439.319 162.538 438.929 162.929C438.538 163.319 438.538 163.953 438.929 164.343L444.586 170L438.929 175.657C438.538 176.047 438.538 176.681 438.929 177.071C439.319 177.462 439.953 177.462 440.343 177.071L446.707 170.707ZM446 169H317V171H446V169Z" fill="#CC8800"/>
<path d="M381.707 170.707C382.098 170.317 382.098 169.683 381.707 169.293L375.343 162.929C374.953 162.538 374.319 162.538 373.929 162.929C373.538 163.319 373.538 163.953 373.929 164.343L379.586 170L373.929 175.657C373.538 176.047 373.538 176.681 373.929 177.071C374.319 177.462 374.953 177.462 375.343 177.071L381.707 170.707ZM381 169H317V171H381V169Z" fill="#CC8800"/>
<rect width="136" height="40" transform="translate(181 100)" fill="#CC8800"/>
<path d="M195.246 126L192.238 114.32H193.71L195.71 122.272C195.848 122.827 195.96 123.339 196.046 123.808C196.142 124.277 196.211 124.635 196.254 124.88C196.296 124.635 196.366 124.277 196.462 123.808C196.568 123.328 196.691 122.811 196.83 122.256L198.75 114.32H200.238L197.214 126H195.246ZM205.063 126.16C204.135 126.16 203.405 125.925 202.871 125.456C202.338 124.976 202.071 124.331 202.071 123.52C202.071 122.699 202.338 122.053 202.871 121.584C203.405 121.115 204.125 120.88 205.031 120.88H207.751V120C207.751 119.467 207.586 119.051 207.255 118.752C206.935 118.453 206.487 118.304 205.911 118.304C205.399 118.304 204.967 118.416 204.615 118.64C204.263 118.864 204.045 119.157 203.959 119.52H202.519C202.573 119.029 202.749 118.597 203.047 118.224C203.357 117.851 203.757 117.563 204.247 117.36C204.749 117.147 205.303 117.04 205.911 117.04C206.925 117.04 207.725 117.301 208.311 117.824C208.898 118.347 209.191 119.056 209.191 119.952V126H207.783V124.32H207.767C207.703 124.885 207.426 125.333 206.935 125.664C206.455 125.995 205.831 126.16 205.063 126.16ZM205.415 125.024C206.098 125.024 206.658 124.853 207.095 124.512C207.533 124.171 207.751 123.733 207.751 123.2V121.952H205.063C204.583 121.952 204.205 122.085 203.927 122.352C203.65 122.619 203.511 122.981 203.511 123.44C203.511 123.931 203.677 124.32 204.007 124.608C204.349 124.885 204.818 125.024 205.415 125.024ZM216.705 126C215.926 126 215.302 125.776 214.833 125.328C214.374 124.869 214.145 124.267 214.145 123.52V115.632H211.105V114.32H215.585V123.52C215.585 123.883 215.686 124.171 215.889 124.384C216.092 124.587 216.364 124.688 216.705 124.688H219.425V126H216.705ZM225.003 126.16C223.989 126.16 223.179 125.861 222.571 125.264C221.963 124.656 221.659 123.835 221.659 122.8V117.2H223.099V122.8C223.099 123.461 223.269 123.979 223.611 124.352C223.952 124.715 224.416 124.896 225.003 124.896C225.6 124.896 226.069 124.715 226.411 124.352C226.763 123.979 226.939 123.461 226.939 122.8V117.2H228.379V122.8C228.379 123.835 228.069 124.656 227.451 125.264C226.832 125.861 226.016 126.16 225.003 126.16ZM234.613 126.16C233.919 126.16 233.311 126.021 232.789 125.744C232.277 125.467 231.877 125.077 231.589 124.576C231.311 124.064 231.173 123.472 231.173 122.8V120.4C231.173 119.717 231.311 119.125 231.589 118.624C231.877 118.123 232.277 117.733 232.789 117.456C233.311 117.179 233.919 117.04 234.613 117.04C235.306 117.04 235.909 117.179 236.421 117.456C236.943 117.733 237.343 118.123 237.621 118.624C237.909 119.125 238.053 119.717 238.053 120.4V121.952H232.581V122.8C232.581 123.493 232.757 124.027 233.109 124.4C233.461 124.763 233.962 124.944 234.613 124.944C235.167 124.944 235.615 124.848 235.957 124.656C236.298 124.453 236.506 124.155 236.581 123.76H238.021C237.925 124.496 237.562 125.083 236.933 125.52C236.314 125.947 235.541 126.16 234.613 126.16ZM232.581 120.864H236.645V120.4C236.645 119.707 236.469 119.173 236.117 118.8C235.775 118.427 235.274 118.24 234.613 118.24C233.962 118.24 233.461 118.427 233.109 118.8C232.757 119.173 232.581 119.707 232.581 120.4V120.864ZM247.166 127.92C245.652 127.547 244.473 126.811 243.63 125.712C242.788 124.613 242.366 123.269 242.366 121.68V118.8C242.366 117.755 242.558 116.811 242.942 115.968C243.337 115.115 243.892 114.395 244.606 113.808C245.332 113.221 246.185 112.805 247.166 112.56V113.92C246.484 114.08 245.892 114.389 245.39 114.848C244.889 115.296 244.5 115.856 244.222 116.528C243.945 117.2 243.806 117.957 243.806 118.8V121.68C243.806 122.501 243.94 123.248 244.206 123.92C244.484 124.592 244.873 125.152 245.374 125.6C245.886 126.037 246.484 126.336 247.166 126.496V127.92ZM252.52 126V119.392H249.96V118.08H252.52V116.56C252.52 115.867 252.739 115.323 253.176 114.928C253.613 114.523 254.216 114.32 254.984 114.32H257.56V115.632H254.984C254.301 115.632 253.96 115.941 253.96 116.56V118.08H257.56V119.392H253.96V126H252.52ZM262.626 126.16C261.698 126.16 260.967 125.925 260.434 125.456C259.9 124.976 259.634 124.331 259.634 123.52C259.634 122.699 259.9 122.053 260.434 121.584C260.967 121.115 261.687 120.88 262.594 120.88H265.314V120C265.314 119.467 265.148 119.051 264.818 118.752C264.498 118.453 264.05 118.304 263.474 118.304C262.962 118.304 262.53 118.416 262.178 118.64C261.826 118.864 261.607 119.157 261.522 119.52H260.082C260.135 119.029 260.311 118.597 260.61 118.224C260.919 117.851 261.319 117.563 261.81 117.36C262.311 117.147 262.866 117.04 263.474 117.04C264.487 117.04 265.287 117.301 265.874 117.824C266.46 118.347 266.754 119.056 266.754 119.952V126H265.346V124.32H265.33C265.266 124.885 264.988 125.333 264.498 125.664C264.018 125.995 263.394 126.16 262.626 126.16ZM262.978 125.024C263.66 125.024 264.22 124.853 264.658 124.512C265.095 124.171 265.314 123.733 265.314 123.2V121.952H262.626C262.146 121.952 261.767 122.085 261.49 122.352C261.212 122.619 261.074 122.981 261.074 123.44C261.074 123.931 261.239 124.32 261.57 124.608C261.911 124.885 262.38 125.024 262.978 125.024ZM274.268 126C273.489 126 272.865 125.776 272.396 125.328C271.937 124.869 271.708 124.267 271.708 123.52V115.632H268.668V114.32H273.148V123.52C273.148 123.883 273.249 124.171 273.452 124.384C273.654 124.587 273.926 124.688 274.268 124.688H276.988V126H274.268ZM282.309 126.128C281.403 126.128 280.661 125.92 280.085 125.504C279.509 125.088 279.221 124.517 279.221 123.792H280.693C280.693 124.123 280.848 124.384 281.157 124.576C281.477 124.757 281.872 124.848 282.341 124.848H283.013C283.579 124.848 284 124.736 284.277 124.512C284.555 124.277 284.693 123.968 284.693 123.584C284.693 123.211 284.56 122.917 284.293 122.704C284.037 122.48 283.664 122.331 283.173 122.256L281.989 122.064C281.115 121.915 280.469 121.637 280.053 121.232C279.637 120.827 279.429 120.267 279.429 119.552C279.429 118.752 279.685 118.139 280.197 117.712C280.72 117.285 281.467 117.072 282.437 117.072H283.045C283.941 117.072 284.656 117.275 285.189 117.68C285.733 118.075 286.005 118.603 286.005 119.264H284.533C284.533 118.987 284.395 118.768 284.117 118.608C283.851 118.437 283.483 118.352 283.013 118.352H282.405C281.904 118.352 281.515 118.459 281.237 118.672C280.971 118.875 280.837 119.168 280.837 119.552C280.837 120.192 281.291 120.587 282.197 120.736L283.381 120.928C284.331 121.077 285.019 121.355 285.445 121.76C285.883 122.165 286.101 122.752 286.101 123.52C286.101 124.331 285.84 124.971 285.317 125.44C284.805 125.899 284.027 126.128 282.981 126.128H282.309ZM292.175 126.16C291.482 126.16 290.874 126.021 290.351 125.744C289.839 125.467 289.439 125.077 289.151 124.576C288.874 124.064 288.735 123.472 288.735 122.8V120.4C288.735 119.717 288.874 119.125 289.151 118.624C289.439 118.123 289.839 117.733 290.351 117.456C290.874 117.179 291.482 117.04 292.175 117.04C292.868 117.04 293.471 117.179 293.983 117.456C294.506 117.733 294.906 118.123 295.183 118.624C295.471 119.125 295.615 119.717 295.615 120.4V121.952H290.143V122.8C290.143 123.493 290.319 124.027 290.671 124.4C291.023 124.763 291.524 124.944 292.175 124.944C292.73 124.944 293.178 124.848 293.519 124.656C293.86 124.453 294.068 124.155 294.143 123.76H295.583C295.487 124.496 295.124 125.083 294.495 125.52C293.876 125.947 293.103 126.16 292.175 126.16ZM290.143 120.864H294.207V120.4C294.207 119.707 294.031 119.173 293.679 118.8C293.338 118.427 292.836 118.24 292.175 118.24C291.524 118.24 291.023 118.427 290.671 118.8C290.319 119.173 290.143 119.707 290.143 120.4V120.864ZM298.809 127.92V126.496C299.502 126.336 300.099 126.037 300.601 125.6C301.102 125.152 301.486 124.592 301.753 123.92C302.03 123.248 302.169 122.501 302.169 121.68V118.8C302.169 117.957 302.03 117.2 301.753 116.528C301.475 115.856 301.086 115.296 300.585 114.848C300.083 114.389 299.491 114.08 298.809 113.92V112.56C299.801 112.805 300.654 113.221 301.369 113.808C302.083 114.395 302.633 115.115 303.017 115.968C303.411 116.811 303.609 117.755 303.609 118.8V121.68C303.609 123.269 303.187 124.613 302.345 125.712C301.502 126.811 300.323 127.547 298.809 127.92Z" fill="#F8F8FA"/>
<rect width="136" height="40" transform="translate(181 150)" fill="#CC8800"/>
<path d="M200.042 176L197.034 164.32H198.506L200.506 172.272C200.645 172.827 200.757 173.339 200.842 173.808C200.938 174.277 201.008 174.635 201.05 174.88C201.093 174.635 201.162 174.277 201.258 173.808C201.365 173.328 201.488 172.811 201.626 172.256L203.546 164.32H205.034L202.01 176H200.042ZM209.86 176.16C208.932 176.16 208.201 175.925 207.668 175.456C207.135 174.976 206.868 174.331 206.868 173.52C206.868 172.699 207.135 172.053 207.668 171.584C208.201 171.115 208.921 170.88 209.828 170.88H212.548V170C212.548 169.467 212.383 169.051 212.052 168.752C211.732 168.453 211.284 168.304 210.708 168.304C210.196 168.304 209.764 168.416 209.412 168.64C209.06 168.864 208.841 169.157 208.756 169.52H207.316C207.369 169.029 207.545 168.597 207.844 168.224C208.153 167.851 208.553 167.563 209.044 167.36C209.545 167.147 210.1 167.04 210.708 167.04C211.721 167.04 212.521 167.301 213.108 167.824C213.695 168.347 213.988 169.056 213.988 169.952V176H212.58V174.32H212.564C212.5 174.885 212.223 175.333 211.732 175.664C211.252 175.995 210.628 176.16 209.86 176.16ZM210.212 175.024C210.895 175.024 211.455 174.853 211.892 174.512C212.329 174.171 212.548 173.733 212.548 173.2V171.952H209.86C209.38 171.952 209.001 172.085 208.724 172.352C208.447 172.619 208.308 172.981 208.308 173.44C208.308 173.931 208.473 174.32 208.804 174.608C209.145 174.885 209.615 175.024 210.212 175.024ZM221.502 176C220.723 176 220.099 175.776 219.63 175.328C219.171 174.869 218.942 174.267 218.942 173.52V165.632H215.902V164.32H220.382V173.52C220.382 173.883 220.483 174.171 220.686 174.384C220.889 174.587 221.161 174.688 221.502 174.688H224.222V176H221.502ZM229.8 176.16C228.786 176.16 227.976 175.861 227.368 175.264C226.76 174.656 226.456 173.835 226.456 172.8V167.2H227.896V172.8C227.896 173.461 228.066 173.979 228.408 174.352C228.749 174.715 229.213 174.896 229.8 174.896C230.397 174.896 230.866 174.715 231.208 174.352C231.56 173.979 231.736 173.461 231.736 172.8V167.2H233.176V172.8C233.176 173.835 232.866 174.656 232.248 175.264C231.629 175.861 230.813 176.16 229.8 176.16ZM239.409 176.16C238.716 176.16 238.108 176.021 237.585 175.744C237.073 175.467 236.673 175.077 236.385 174.576C236.108 174.064 235.969 173.472 235.969 172.8V170.4C235.969 169.717 236.108 169.125 236.385 168.624C236.673 168.123 237.073 167.733 237.585 167.456C238.108 167.179 238.716 167.04 239.409 167.04C240.103 167.04 240.705 167.179 241.217 167.456C241.74 167.733 242.14 168.123 242.417 168.624C242.705 169.125 242.849 169.717 242.849 170.4V171.952H237.377V172.8C237.377 173.493 237.553 174.027 237.905 174.4C238.257 174.763 238.759 174.944 239.409 174.944C239.964 174.944 240.412 174.848 240.753 174.656C241.095 174.453 241.303 174.155 241.377 173.76H242.817C242.721 174.496 242.359 175.083 241.729 175.52C241.111 175.947 240.337 176.16 239.409 176.16ZM237.377 170.864H241.441V170.4C241.441 169.707 241.265 169.173 240.913 168.8C240.572 168.427 240.071 168.24 239.409 168.24C238.759 168.24 238.257 168.427 237.905 168.8C237.553 169.173 237.377 169.707 237.377 170.4V170.864ZM251.963 177.92C250.448 177.547 249.27 176.811 248.427 175.712C247.584 174.613 247.163 173.269 247.163 171.68V168.8C247.163 167.755 247.355 166.811 247.739 165.968C248.134 165.115 248.688 164.395 249.403 163.808C250.128 163.221 250.982 162.805 251.963 162.56V163.92C251.28 164.08 250.688 164.389 250.187 164.848C249.686 165.296 249.296 165.856 249.019 166.528C248.742 167.2 248.603 167.957 248.603 168.8V171.68C248.603 172.501 248.736 173.248 249.003 173.92C249.28 174.592 249.67 175.152 250.171 175.6C250.683 176.037 251.28 176.336 251.963 176.496V177.92ZM259.557 176C258.832 176 258.25 175.792 257.813 175.376C257.376 174.949 257.157 174.384 257.157 173.68V168.512H254.677V167.2H257.157V164.72H258.597V167.2H262.117V168.512H258.597V173.68C258.597 173.979 258.682 174.224 258.853 174.416C259.034 174.597 259.269 174.688 259.557 174.688H261.957V176H259.557ZM265.135 176V167.2H266.575V168.88H266.591C266.665 168.293 266.905 167.84 267.311 167.52C267.716 167.2 268.255 167.04 268.927 167.04C269.844 167.04 270.575 167.333 271.119 167.92C271.663 168.496 271.935 169.28 271.935 170.272V170.88H270.495V170.4C270.495 169.728 270.324 169.211 269.983 168.848C269.641 168.475 269.145 168.288 268.495 168.288C267.215 168.288 266.575 168.992 266.575 170.4V176H265.135ZM277.768 176.16C276.755 176.16 275.944 175.861 275.336 175.264C274.728 174.656 274.424 173.835 274.424 172.8V167.2H275.864V172.8C275.864 173.461 276.035 173.979 276.376 174.352C276.718 174.715 277.182 174.896 277.768 174.896C278.366 174.896 278.835 174.715 279.176 174.352C279.528 173.979 279.704 173.461 279.704 172.8V167.2H281.144V172.8C281.144 173.835 280.835 174.656 280.216 175.264C279.598 175.861 278.782 176.16 277.768 176.16ZM287.378 176.16C286.685 176.16 286.077 176.021 285.554 175.744C285.042 175.467 284.642 175.077 284.354 174.576C284.077 174.064 283.938 173.472 283.938 172.8V170.4C283.938 169.717 284.077 169.125 284.354 168.624C284.642 168.123 285.042 167.733 285.554 167.456C286.077 167.179 286.685 167.04 287.378 167.04C288.071 167.04 288.674 167.179 289.186 167.456C289.709 167.733 290.109 168.123 290.386 168.624C290.674 169.125 290.818 169.717 290.818 170.4V171.952H285.346V172.8C285.346 173.493 285.522 174.027 285.874 174.4C286.226 174.763 286.727 174.944 287.378 174.944C287.933 174.944 288.381 174.848 288.722 174.656C289.063 174.453 289.271 174.155 289.346 173.76H290.786C290.69 174.496 290.327 175.083 289.698 175.52C289.079 175.947 288.306 176.16 287.378 176.16ZM285.346 170.864H289.41V170.4C289.41 169.707 289.234 169.173 288.882 168.8C288.541 168.427 288.039 168.24 287.378 168.24C286.727 168.24 286.226 168.427 285.874 168.8C285.522 169.173 285.346 169.707 285.346 170.4V170.864ZM294.012 177.92V176.496C294.705 176.336 295.303 176.037 295.804 175.6C296.305 175.152 296.689 174.592 296.956 173.92C297.233 173.248 297.372 172.501 297.372 171.68V168.8C297.372 167.957 297.233 167.2 296.956 166.528C296.679 165.856 296.289 165.296 295.788 164.848C295.287 164.389 294.695 164.08 294.012 163.92V162.56C295.004 162.805 295.857 163.221 296.572 163.808C297.287 164.395 297.836 165.115 298.22 165.968C298.615 166.811 298.812 167.755 298.812 168.8V171.68C298.812 173.269 298.391 174.613 297.548 175.712C296.705 176.811 295.527 177.547 294.012 177.92Z" fill="#F8F8FA"/>
</svg>
