<svg width="900" height="260" viewBox="0 0 900 260" fill="none" xmlns="http://www.w3.org/2000/svg">
<rect width="32" height="32" transform="translate(509 104)" fill="#FFAA00"/>
<path d="M517 122L521 126L533 114" stroke="#1D1D1F" stroke-width="4" stroke-linecap="square"/>
<path d="M557.538 117.617C557.491 117.183 557.296 116.845 556.951 116.603C556.61 116.361 556.165 116.24 555.619 116.24C555.234 116.24 554.904 116.298 554.629 116.414C554.354 116.53 554.144 116.687 553.998 116.886C553.852 117.085 553.777 117.312 553.774 117.567C553.774 117.78 553.822 117.964 553.918 118.119C554.018 118.275 554.152 118.408 554.321 118.517C554.49 118.623 554.677 118.713 554.883 118.786C555.088 118.858 555.295 118.92 555.504 118.969L556.459 119.208C556.843 119.298 557.213 119.419 557.567 119.571C557.925 119.723 558.245 119.916 558.527 120.148C558.812 120.38 559.037 120.66 559.203 120.988C559.369 121.316 559.452 121.701 559.452 122.141C559.452 122.738 559.299 123.263 558.994 123.717C558.689 124.168 558.249 124.521 557.672 124.776C557.098 125.028 556.404 125.154 555.589 125.154C554.797 125.154 554.109 125.031 553.526 124.786C552.946 124.541 552.491 124.183 552.163 123.712C551.839 123.242 551.663 122.668 551.636 121.992H553.451C553.478 122.347 553.587 122.642 553.779 122.877C553.971 123.112 554.222 123.288 554.53 123.404C554.841 123.52 555.189 123.578 555.574 123.578C555.975 123.578 556.326 123.518 556.628 123.399C556.933 123.277 557.171 123.107 557.344 122.892C557.516 122.673 557.604 122.418 557.607 122.126C557.604 121.861 557.526 121.643 557.374 121.47C557.221 121.295 557.007 121.149 556.732 121.033C556.46 120.913 556.142 120.807 555.778 120.714L554.619 120.416C553.781 120.201 553.118 119.874 552.631 119.437C552.147 118.996 551.905 118.411 551.905 117.682C551.905 117.082 552.067 116.557 552.392 116.106C552.72 115.655 553.166 115.305 553.729 115.057C554.293 114.805 554.931 114.679 555.643 114.679C556.366 114.679 556.999 114.805 557.543 115.057C558.089 115.305 558.519 115.652 558.83 116.096C559.142 116.537 559.303 117.044 559.312 117.617H557.538ZM564.347 125.149C563.602 125.149 562.955 124.985 562.409 124.657C561.862 124.329 561.437 123.87 561.136 123.28C560.838 122.69 560.688 122 560.688 121.212C560.688 120.423 560.838 119.732 561.136 119.138C561.437 118.545 561.862 118.085 562.409 117.756C562.955 117.428 563.602 117.264 564.347 117.264C565.093 117.264 565.74 117.428 566.286 117.756C566.833 118.085 567.256 118.545 567.554 119.138C567.856 119.732 568.007 120.423 568.007 121.212C568.007 122 567.856 122.69 567.554 123.28C567.256 123.87 566.833 124.329 566.286 124.657C565.74 124.985 565.093 125.149 564.347 125.149ZM564.357 123.707C564.762 123.707 565.1 123.596 565.372 123.374C565.643 123.149 565.846 122.847 565.978 122.469C566.114 122.092 566.182 121.671 566.182 121.207C566.182 120.739 566.114 120.317 565.978 119.939C565.846 119.558 565.643 119.254 565.372 119.029C565.1 118.804 564.762 118.691 564.357 118.691C563.943 118.691 563.598 118.804 563.323 119.029C563.052 119.254 562.848 119.558 562.712 119.939C562.579 120.317 562.513 120.739 562.513 121.207C562.513 121.671 562.579 122.092 562.712 122.469C562.848 122.847 563.052 123.149 563.323 123.374C563.598 123.596 563.943 123.707 564.357 123.707ZM574.401 121.788V117.364H576.201V125H574.456V123.643H574.376C574.204 124.07 573.921 124.42 573.526 124.692C573.135 124.964 572.653 125.099 572.08 125.099C571.579 125.099 571.137 124.988 570.752 124.766C570.371 124.541 570.073 124.214 569.857 123.787C569.642 123.356 569.534 122.836 569.534 122.226V117.364H571.334V121.947C571.334 122.431 571.466 122.816 571.732 123.101C571.997 123.386 572.345 123.528 572.776 123.528C573.041 123.528 573.298 123.464 573.546 123.335C573.795 123.205 573.999 123.013 574.158 122.758C574.32 122.499 574.401 122.176 574.401 121.788ZM579.851 120.526V125H578.052V117.364H579.772V118.661H579.861C580.037 118.234 580.317 117.894 580.702 117.642C581.089 117.39 581.568 117.264 582.138 117.264C582.665 117.264 583.124 117.377 583.515 117.602C583.91 117.828 584.215 118.154 584.43 118.582C584.649 119.009 584.757 119.528 584.753 120.138V125H582.954V120.416C582.954 119.906 582.821 119.506 582.556 119.218C582.294 118.93 581.931 118.786 581.467 118.786C581.152 118.786 580.872 118.855 580.627 118.994C580.385 119.13 580.194 119.327 580.055 119.586C579.919 119.844 579.851 120.158 579.851 120.526ZM589.417 125.134C588.817 125.134 588.28 124.98 587.806 124.672C587.332 124.364 586.957 123.916 586.682 123.33C586.407 122.743 586.27 122.03 586.27 121.192C586.27 120.343 586.409 119.627 586.687 119.044C586.969 118.457 587.349 118.015 587.826 117.717C588.303 117.415 588.835 117.264 589.422 117.264C589.869 117.264 590.237 117.34 590.525 117.493C590.814 117.642 591.042 117.823 591.211 118.035C591.381 118.244 591.511 118.441 591.604 118.626H591.679V114.818H593.483V125H591.714V123.797H591.604C591.511 123.982 591.377 124.18 591.202 124.388C591.026 124.594 590.794 124.77 590.506 124.915C590.217 125.061 589.854 125.134 589.417 125.134ZM589.919 123.658C590.3 123.658 590.625 123.555 590.893 123.349C591.162 123.141 591.366 122.851 591.505 122.479C591.644 122.108 591.714 121.676 591.714 121.182C591.714 120.688 591.644 120.259 591.505 119.894C591.369 119.53 591.167 119.246 590.898 119.044C590.633 118.842 590.307 118.741 589.919 118.741C589.518 118.741 589.183 118.845 588.915 119.054C588.646 119.263 588.444 119.551 588.308 119.919C588.172 120.287 588.104 120.708 588.104 121.182C588.104 121.659 588.172 122.085 588.308 122.46C588.447 122.831 588.651 123.124 588.92 123.339C589.191 123.552 589.524 123.658 589.919 123.658ZM602.255 125.149C601.489 125.149 600.828 124.99 600.271 124.672C599.717 124.35 599.292 123.896 598.993 123.31C598.695 122.72 598.546 122.025 598.546 121.227C598.546 120.441 598.695 119.752 598.993 119.158C599.295 118.562 599.716 118.098 600.256 117.766C600.796 117.432 601.431 117.264 602.16 117.264C602.631 117.264 603.075 117.34 603.493 117.493C603.913 117.642 604.285 117.874 604.606 118.189C604.931 118.504 605.186 118.905 605.372 119.392C605.557 119.876 605.65 120.453 605.65 121.122V121.674H599.391V120.461H603.925C603.922 120.116 603.847 119.81 603.701 119.541C603.556 119.269 603.352 119.056 603.09 118.9C602.831 118.744 602.53 118.666 602.185 118.666C601.817 118.666 601.494 118.756 601.216 118.935C600.937 119.11 600.72 119.342 600.564 119.631C600.412 119.916 600.334 120.229 600.331 120.57V121.629C600.331 122.073 600.412 122.455 600.574 122.773C600.737 123.088 600.964 123.33 601.255 123.499C601.547 123.664 601.888 123.747 602.279 123.747C602.541 123.747 602.778 123.711 602.99 123.638C603.203 123.562 603.386 123.451 603.542 123.305C603.698 123.159 603.816 122.978 603.895 122.763L605.576 122.952C605.47 123.396 605.267 123.784 604.969 124.115C604.674 124.443 604.296 124.698 603.836 124.881C603.375 125.06 602.848 125.149 602.255 125.149ZM611.041 117.364V118.756H606.526V117.364H611.041ZM607.655 125V116.643C607.655 116.129 607.761 115.701 607.973 115.36C608.189 115.019 608.477 114.763 608.838 114.594C609.2 114.425 609.601 114.341 610.041 114.341C610.353 114.341 610.63 114.366 610.872 114.415C611.114 114.465 611.293 114.51 611.409 114.55L611.051 115.942C610.974 115.919 610.878 115.895 610.762 115.872C610.646 115.846 610.517 115.832 610.374 115.832C610.04 115.832 609.803 115.914 609.664 116.076C609.528 116.235 609.46 116.464 609.46 116.762V125H607.655ZM616.318 117.364V118.756H611.804V117.364H616.318ZM612.932 125V116.643C612.932 116.129 613.038 115.701 613.251 115.36C613.466 115.019 613.754 114.763 614.116 114.594C614.477 114.425 614.878 114.341 615.319 114.341C615.63 114.341 615.907 114.366 616.149 114.415C616.391 114.465 616.57 114.51 616.686 114.55L616.328 115.942C616.252 115.919 616.156 115.895 616.04 115.872C615.924 115.846 615.794 115.832 615.652 115.832C615.317 115.832 615.08 115.914 614.941 116.076C614.805 116.235 614.737 116.464 614.737 116.762V125H612.932ZM620.821 125.149C620.055 125.149 619.394 124.99 618.837 124.672C618.284 124.35 617.858 123.896 617.56 123.31C617.261 122.72 617.112 122.025 617.112 121.227C617.112 120.441 617.261 119.752 617.56 119.158C617.861 118.562 618.282 118.098 618.822 117.766C619.363 117.432 619.997 117.264 620.727 117.264C621.197 117.264 621.641 117.34 622.059 117.493C622.48 117.642 622.851 117.874 623.173 118.189C623.497 118.504 623.753 118.905 623.938 119.392C624.124 119.876 624.217 120.453 624.217 121.122V121.674H617.957V120.461H622.491C622.488 120.116 622.414 119.81 622.268 119.541C622.122 119.269 621.918 119.056 621.656 118.9C621.398 118.744 621.096 118.666 620.751 118.666C620.384 118.666 620.06 118.756 619.782 118.935C619.504 119.11 619.286 119.342 619.131 119.631C618.978 119.916 618.9 120.229 618.897 120.57V121.629C618.897 122.073 618.978 122.455 619.141 122.773C619.303 123.088 619.53 123.33 619.822 123.499C620.113 123.664 620.455 123.747 620.846 123.747C621.108 123.747 621.345 123.711 621.557 123.638C621.769 123.562 621.953 123.451 622.109 123.305C622.264 123.159 622.382 122.978 622.462 122.763L624.142 122.952C624.036 123.396 623.834 123.784 623.536 124.115C623.241 124.443 622.863 124.698 622.402 124.881C621.941 125.06 621.414 125.149 620.821 125.149ZM629.07 125.149C628.308 125.149 627.653 124.982 627.106 124.647C626.563 124.312 626.144 123.85 625.849 123.26C625.557 122.667 625.411 121.984 625.411 121.212C625.411 120.436 625.56 119.752 625.858 119.158C626.157 118.562 626.578 118.098 627.121 117.766C627.668 117.432 628.314 117.264 629.06 117.264C629.68 117.264 630.229 117.379 630.706 117.607C631.186 117.833 631.569 118.152 631.854 118.567C632.139 118.978 632.302 119.458 632.341 120.009H630.621C630.552 119.641 630.386 119.334 630.124 119.089C629.866 118.84 629.519 118.716 629.085 118.716C628.717 118.716 628.394 118.815 628.116 119.014C627.837 119.21 627.62 119.491 627.464 119.859C627.312 120.227 627.236 120.668 627.236 121.182C627.236 121.702 627.312 122.15 627.464 122.524C627.617 122.895 627.831 123.182 628.106 123.384C628.384 123.583 628.711 123.683 629.085 123.683C629.35 123.683 629.587 123.633 629.796 123.533C630.008 123.431 630.185 123.283 630.328 123.091C630.47 122.899 630.568 122.665 630.621 122.39H632.341C632.298 122.93 632.139 123.409 631.864 123.827C631.589 124.241 631.215 124.566 630.741 124.801C630.267 125.033 629.71 125.149 629.07 125.149ZM637.632 117.364V118.756H633.243V117.364H637.632ZM634.326 115.534H636.126V122.703C636.126 122.945 636.163 123.131 636.235 123.26C636.312 123.386 636.411 123.472 636.534 123.518C636.656 123.565 636.792 123.588 636.941 123.588C637.054 123.588 637.157 123.58 637.25 123.563C637.346 123.547 637.419 123.532 637.468 123.518L637.772 124.925C637.676 124.959 637.538 124.995 637.359 125.035C637.183 125.075 636.968 125.098 636.713 125.104C636.262 125.118 635.856 125.05 635.495 124.901C635.133 124.748 634.847 124.513 634.635 124.195C634.426 123.876 634.323 123.479 634.326 123.001V115.534ZM645.064 119.382L643.423 119.561C643.377 119.395 643.296 119.24 643.18 119.094C643.067 118.948 642.914 118.83 642.722 118.741C642.53 118.651 642.295 118.607 642.016 118.607C641.642 118.607 641.327 118.688 641.072 118.85C640.82 119.013 640.695 119.223 640.699 119.482C640.695 119.704 640.777 119.884 640.942 120.023C641.111 120.163 641.39 120.277 641.778 120.366L643.08 120.645C643.803 120.801 644.34 121.048 644.691 121.386C645.046 121.724 645.224 122.166 645.228 122.713C645.224 123.194 645.084 123.618 644.805 123.986C644.53 124.35 644.147 124.635 643.657 124.841C643.166 125.046 642.603 125.149 641.966 125.149C641.032 125.149 640.279 124.954 639.709 124.562C639.139 124.168 638.8 123.62 638.69 122.917L640.445 122.748C640.525 123.093 640.694 123.353 640.952 123.528C641.211 123.704 641.547 123.792 641.961 123.792C642.389 123.792 642.732 123.704 642.991 123.528C643.252 123.353 643.383 123.136 643.383 122.877C643.383 122.658 643.299 122.478 643.13 122.335C642.964 122.193 642.706 122.083 642.354 122.007L641.052 121.734C640.319 121.581 639.777 121.324 639.426 120.963C639.075 120.598 638.901 120.138 638.904 119.581C638.901 119.11 639.028 118.703 639.287 118.358C639.549 118.01 639.912 117.741 640.376 117.553C640.843 117.36 641.381 117.264 641.991 117.264C642.886 117.264 643.59 117.455 644.104 117.836C644.621 118.217 644.941 118.732 645.064 119.382Z" fill="#F8F8FA"/>
<rect width="32" height="32" transform="translate(459 54)" fill="#FFAA00"/>
<path d="M467 70H483" stroke="#1D1D1F" stroke-width="4" stroke-linecap="square"/>
<path d="M502.004 75V64.8182H505.822C506.605 64.8182 507.261 64.964 507.791 65.2557C508.325 65.5473 508.728 65.9484 508.999 66.4588C509.274 66.9659 509.412 67.5426 509.412 68.1889C509.412 68.8419 509.274 69.4219 508.999 69.929C508.724 70.4361 508.318 70.8355 507.781 71.1271C507.244 71.4155 506.583 71.5597 505.798 71.5597H503.267V70.0433H505.549C506.006 70.0433 506.381 69.9638 506.673 69.8047C506.964 69.6456 507.18 69.4268 507.319 69.1484C507.461 68.87 507.533 68.5502 507.533 68.1889C507.533 67.8277 507.461 67.5095 507.319 67.2344C507.18 66.9593 506.963 66.7455 506.668 66.593C506.376 66.4373 506 66.3594 505.539 66.3594H503.849V75H502.004ZM512.734 64.8182V75H510.934V64.8182H512.734ZM516.782 75.1541C516.298 75.1541 515.863 75.0679 515.475 74.8956C515.09 74.7199 514.785 74.4614 514.56 74.12C514.338 73.7786 514.227 73.3577 514.227 72.8572C514.227 72.4264 514.306 72.0701 514.466 71.7884C514.625 71.5066 514.842 71.2812 515.117 71.1122C515.392 70.9432 515.702 70.8156 516.047 70.7294C516.395 70.6399 516.754 70.5753 517.125 70.5355C517.573 70.4891 517.936 70.4477 518.214 70.4112C518.493 70.3714 518.695 70.3118 518.821 70.2322C518.95 70.1494 519.015 70.0218 519.015 69.8494V69.8196C519.015 69.4451 518.904 69.1551 518.681 68.9496C518.459 68.7441 518.14 68.6413 517.722 68.6413C517.281 68.6413 516.931 68.7375 516.673 68.9297C516.418 69.1219 516.245 69.349 516.156 69.6108L514.475 69.3722C514.608 68.9081 514.827 68.5204 515.132 68.2088C515.437 67.8939 515.81 67.6586 516.25 67.5028C516.691 67.3438 517.178 67.2642 517.712 67.2642C518.08 67.2642 518.446 67.3073 518.811 67.3935C519.175 67.4796 519.508 67.6222 519.81 67.821C520.112 68.0166 520.354 68.2834 520.536 68.6214C520.721 68.9595 520.814 69.3821 520.814 69.8892V75H519.084V73.951H519.025C518.915 74.1631 518.761 74.362 518.562 74.5476C518.367 74.7299 518.12 74.8774 517.821 74.9901C517.526 75.0994 517.18 75.1541 516.782 75.1541ZM517.25 73.8317C517.611 73.8317 517.924 73.7604 518.189 73.6179C518.454 73.4721 518.658 73.2798 518.801 73.0412C518.947 72.8026 519.02 72.5424 519.02 72.2607V71.3608C518.963 71.4072 518.867 71.4503 518.731 71.4901C518.599 71.5298 518.449 71.5646 518.284 71.5945C518.118 71.6243 517.954 71.6508 517.792 71.674C517.629 71.6972 517.488 71.7171 517.369 71.7337C517.1 71.7701 516.86 71.8298 516.648 71.9126C516.436 71.9955 516.269 72.1115 516.146 72.2607C516.023 72.4065 515.962 72.5954 515.962 72.8274C515.962 73.1589 516.083 73.4091 516.325 73.5781C516.567 73.7472 516.875 73.8317 517.25 73.8317ZM523.469 77.8636C523.224 77.8636 522.997 77.8438 522.788 77.804C522.583 77.7675 522.418 77.7244 522.296 77.6747L522.713 76.2727C522.975 76.349 523.209 76.3854 523.414 76.3821C523.62 76.3788 523.801 76.3142 523.956 76.1882C524.115 76.0656 524.25 75.8601 524.359 75.5717L524.513 75.1591L521.744 67.3636H523.653L525.413 73.1307H525.493L527.257 67.3636H529.172L526.114 75.9247C525.971 76.3291 525.783 76.6754 525.547 76.9638C525.312 77.2554 525.024 77.4775 524.682 77.63C524.344 77.7857 523.94 77.8636 523.469 77.8636ZM539.925 69.3821L538.284 69.5611C538.238 69.3954 538.157 69.2396 538.041 69.0938C537.928 68.9479 537.776 68.8303 537.583 68.7408C537.391 68.6513 537.156 68.6065 536.877 68.6065C536.503 68.6065 536.188 68.6877 535.933 68.8501C535.681 69.0125 535.557 69.223 535.56 69.4815C535.557 69.7036 535.638 69.8842 535.804 70.0234C535.973 70.1626 536.251 70.277 536.639 70.3665L537.941 70.6449C538.664 70.8007 539.201 71.0476 539.552 71.3857C539.907 71.7237 540.086 72.1662 540.089 72.7131C540.086 73.1937 539.945 73.6179 539.667 73.9858C539.391 74.3504 539.009 74.6354 538.518 74.8409C538.028 75.0464 537.464 75.1491 536.828 75.1491C535.893 75.1491 535.141 74.9536 534.571 74.5625C534.001 74.1681 533.661 73.6196 533.551 72.9169L535.306 72.7479C535.386 73.0926 535.555 73.3527 535.814 73.5284C536.072 73.7041 536.408 73.7919 536.823 73.7919C537.25 73.7919 537.593 73.7041 537.852 73.5284C538.114 73.3527 538.245 73.1357 538.245 72.8771C538.245 72.6584 538.16 72.4777 537.991 72.3352C537.825 72.1927 537.567 72.0833 537.216 72.0071L535.913 71.7337C535.181 71.5812 534.639 71.3243 534.287 70.9631C533.936 70.5985 533.762 70.1378 533.765 69.581C533.762 69.1103 533.89 68.7027 534.148 68.358C534.41 68.0099 534.773 67.7415 535.237 67.5526C535.704 67.3603 536.243 67.2642 536.853 67.2642C537.748 67.2642 538.452 67.4548 538.966 67.8359C539.483 68.2171 539.802 68.7325 539.925 69.3821ZM544.904 75.1491C544.158 75.1491 543.512 74.9851 542.965 74.657C542.418 74.3288 541.994 73.8698 541.692 73.2798C541.394 72.6899 541.245 72.0005 541.245 71.2116C541.245 70.4228 541.394 69.7318 541.692 69.1385C541.994 68.5452 542.418 68.0845 542.965 67.7564C543.512 67.4283 544.158 67.2642 544.904 67.2642C545.65 67.2642 546.296 67.4283 546.843 67.7564C547.39 68.0845 547.813 68.5452 548.111 69.1385C548.412 69.7318 548.563 70.4228 548.563 71.2116C548.563 72.0005 548.412 72.6899 548.111 73.2798C547.813 73.8698 547.39 74.3288 546.843 74.657C546.296 74.9851 545.65 75.1491 544.904 75.1491ZM544.914 73.7074C545.318 73.7074 545.656 73.5964 545.928 73.3743C546.2 73.1489 546.402 72.8473 546.535 72.4695C546.671 72.0916 546.739 71.6707 546.739 71.2067C546.739 70.7393 546.671 70.3168 546.535 69.9389C546.402 69.5578 546.2 69.2545 545.928 69.0291C545.656 68.8037 545.318 68.6911 544.914 68.6911C544.5 68.6911 544.155 68.8037 543.88 69.0291C543.608 69.2545 543.404 69.5578 543.268 69.9389C543.136 70.3168 543.07 70.7393 543.07 71.2067C543.07 71.6707 543.136 72.0916 543.268 72.4695C543.404 72.8473 543.608 73.1489 543.88 73.3743C544.155 73.5964 544.5 73.7074 544.914 73.7074ZM554.958 71.7884V67.3636H556.758V75H555.013V73.6428H554.933C554.761 74.0703 554.477 74.42 554.083 74.6918C553.692 74.9635 553.21 75.0994 552.636 75.0994C552.136 75.0994 551.693 74.9884 551.309 74.7663C550.928 74.541 550.629 74.2145 550.414 73.7869C550.198 73.3561 550.091 72.8357 550.091 72.2259V67.3636H551.89V71.9474C551.89 72.4313 552.023 72.8158 552.288 73.1009C552.553 73.3859 552.901 73.5284 553.332 73.5284C553.597 73.5284 553.854 73.4638 554.103 73.3345C554.351 73.2053 554.555 73.013 554.714 72.7578C554.877 72.4993 554.958 72.1761 554.958 71.7884ZM560.408 70.5256V75H558.608V67.3636H560.328V68.6612H560.418C560.594 68.2337 560.874 67.8939 561.258 67.642C561.646 67.3902 562.125 67.2642 562.695 67.2642C563.222 67.2642 563.681 67.3769 564.072 67.6023C564.467 67.8277 564.771 68.1541 564.987 68.5817C565.206 69.0092 565.313 69.5279 565.31 70.1378V75H563.51V70.4162C563.51 69.9058 563.378 69.5064 563.113 69.218C562.851 68.9297 562.488 68.7855 562.024 68.7855C561.709 68.7855 561.429 68.8551 561.184 68.9943C560.942 69.1302 560.751 69.3274 560.612 69.5859C560.476 69.8445 560.408 70.1577 560.408 70.5256ZM569.973 75.1342C569.373 75.1342 568.837 74.9801 568.363 74.6719C567.889 74.3636 567.514 73.9162 567.239 73.3295C566.964 72.7429 566.826 72.0303 566.826 71.1918C566.826 70.3433 566.966 69.6274 567.244 69.044C567.526 68.4574 567.905 68.0149 568.382 67.7166C568.86 67.415 569.392 67.2642 569.978 67.2642C570.426 67.2642 570.794 67.3404 571.082 67.4929C571.37 67.642 571.599 67.8227 571.768 68.0348C571.937 68.2436 572.068 68.4408 572.161 68.6264H572.235V64.8182H574.04V75H572.27V73.7969H572.161C572.068 73.9825 571.934 74.1797 571.758 74.3885C571.583 74.594 571.35 74.7696 571.062 74.9155C570.774 75.0613 570.411 75.1342 569.973 75.1342ZM570.475 73.6577C570.857 73.6577 571.181 73.5549 571.45 73.3494C571.718 73.1406 571.922 72.8506 572.061 72.4794C572.201 72.1082 572.27 71.6757 572.27 71.1818C572.27 70.688 572.201 70.2588 572.061 69.8942C571.926 69.5296 571.723 69.2462 571.455 69.044C571.19 68.8419 570.863 68.7408 570.475 68.7408C570.074 68.7408 569.74 68.8452 569.471 69.054C569.203 69.2628 569.001 69.5511 568.865 69.919C568.729 70.2869 568.661 70.7079 568.661 71.1818C568.661 71.6591 568.729 72.085 568.865 72.4595C569.004 72.8307 569.208 73.1241 569.476 73.3395C569.748 73.5516 570.081 73.6577 570.475 73.6577ZM581.993 69.3821L580.353 69.5611C580.306 69.3954 580.225 69.2396 580.109 69.0938C579.997 68.9479 579.844 68.8303 579.652 68.7408C579.46 68.6513 579.224 68.6065 578.946 68.6065C578.571 68.6065 578.256 68.6877 578.001 68.8501C577.749 69.0125 577.625 69.223 577.628 69.4815C577.625 69.7036 577.706 69.8842 577.872 70.0234C578.041 70.1626 578.319 70.277 578.707 70.3665L580.01 70.6449C580.732 70.8007 581.269 71.0476 581.621 71.3857C581.975 71.7237 582.154 72.1662 582.157 72.7131C582.154 73.1937 582.013 73.6179 581.735 73.9858C581.46 74.3504 581.077 74.6354 580.586 74.8409C580.096 75.0464 579.532 75.1491 578.896 75.1491C577.961 75.1491 577.209 74.9536 576.639 74.5625C576.069 74.1681 575.729 73.6196 575.62 72.9169L577.375 72.7479C577.454 73.0926 577.623 73.3527 577.882 73.5284C578.14 73.7041 578.477 73.7919 578.891 73.7919C579.319 73.7919 579.662 73.7041 579.92 73.5284C580.182 73.3527 580.313 73.1357 580.313 72.8771C580.313 72.6584 580.229 72.4777 580.059 72.3352C579.894 72.1927 579.635 72.0833 579.284 72.0071L577.981 71.7337C577.249 71.5812 576.707 71.3243 576.356 70.9631C576.004 70.5985 575.83 70.1378 575.834 69.581C575.83 69.1103 575.958 68.7027 576.216 68.358C576.478 68.0099 576.841 67.7415 577.305 67.5526C577.773 67.3603 578.311 67.2642 578.921 67.2642C579.816 67.2642 580.52 67.4548 581.034 67.8359C581.551 68.2171 581.871 68.7325 581.993 69.3821Z" fill="#F8F8FA"/>
<rect width="32" height="32" transform="translate(509 154)" fill="#888888"/>
<path d="M552.004 164.818H554.261L557.284 172.196H557.403L560.426 164.818H562.683V175H560.913V168.005H560.819L558.005 174.97H556.683L553.869 167.99H553.774V175H552.004V164.818ZM569.479 171.788V167.364H571.279V175H569.534V173.643H569.455C569.282 174.07 568.999 174.42 568.604 174.692C568.213 174.964 567.731 175.099 567.158 175.099C566.657 175.099 566.215 174.988 565.83 174.766C565.449 174.541 565.151 174.214 564.935 173.787C564.72 173.356 564.612 172.836 564.612 172.226V167.364H566.412V171.947C566.412 172.431 566.545 172.816 566.81 173.101C567.075 173.386 567.423 173.528 567.854 173.528C568.119 173.528 568.376 173.464 568.624 173.335C568.873 173.205 569.077 173.013 569.236 172.758C569.398 172.499 569.479 172.176 569.479 171.788ZM579.165 169.382L577.525 169.561C577.478 169.395 577.397 169.24 577.281 169.094C577.168 168.948 577.016 168.83 576.824 168.741C576.631 168.651 576.396 168.607 576.118 168.607C575.743 168.607 575.428 168.688 575.173 168.85C574.921 169.013 574.797 169.223 574.8 169.482C574.797 169.704 574.878 169.884 575.044 170.023C575.213 170.163 575.491 170.277 575.879 170.366L577.182 170.645C577.904 170.801 578.441 171.048 578.792 171.386C579.147 171.724 579.326 172.166 579.329 172.713C579.326 173.194 579.185 173.618 578.907 173.986C578.632 174.35 578.249 174.635 577.758 174.841C577.268 175.046 576.704 175.149 576.068 175.149C575.133 175.149 574.381 174.954 573.811 174.562C573.241 174.168 572.901 173.62 572.792 172.917L574.547 172.748C574.626 173.093 574.795 173.353 575.054 173.528C575.312 173.704 575.649 173.792 576.063 173.792C576.491 173.792 576.834 173.704 577.092 173.528C577.354 173.353 577.485 173.136 577.485 172.877C577.485 172.658 577.4 172.478 577.231 172.335C577.066 172.193 576.807 172.083 576.456 172.007L575.153 171.734C574.421 171.581 573.879 171.324 573.528 170.963C573.176 170.598 573.002 170.138 573.006 169.581C573.002 169.11 573.13 168.703 573.388 168.358C573.65 168.01 574.013 167.741 574.477 167.553C574.944 167.36 575.483 167.264 576.093 167.264C576.988 167.264 577.692 167.455 578.206 167.836C578.723 168.217 579.043 168.732 579.165 169.382ZM580.813 175V167.364H582.613V175H580.813ZM581.718 166.28C581.433 166.28 581.188 166.185 580.982 165.996C580.777 165.804 580.674 165.574 580.674 165.305C580.674 165.034 580.777 164.803 580.982 164.614C581.188 164.422 581.433 164.326 581.718 164.326C582.007 164.326 582.252 164.422 582.454 164.614C582.66 164.803 582.762 165.034 582.762 165.305C582.762 165.574 582.66 165.804 582.454 165.996C582.252 166.185 582.007 166.28 581.718 166.28ZM587.795 175.149C587.032 175.149 586.378 174.982 585.831 174.647C585.287 174.312 584.868 173.85 584.573 173.26C584.281 172.667 584.136 171.984 584.136 171.212C584.136 170.436 584.285 169.752 584.583 169.158C584.881 168.562 585.302 168.098 585.846 167.766C586.393 167.432 587.039 167.264 587.785 167.264C588.405 167.264 588.953 167.379 589.43 167.607C589.911 167.833 590.294 168.152 590.579 168.567C590.864 168.978 591.026 169.458 591.066 170.009H589.346C589.276 169.641 589.111 169.334 588.849 169.089C588.59 168.84 588.244 168.716 587.81 168.716C587.442 168.716 587.119 168.815 586.84 169.014C586.562 169.21 586.345 169.491 586.189 169.859C586.036 170.227 585.96 170.668 585.96 171.182C585.96 171.702 586.036 172.15 586.189 172.524C586.341 172.895 586.555 173.182 586.83 173.384C587.109 173.583 587.435 173.683 587.81 173.683C588.075 173.683 588.312 173.633 588.521 173.533C588.733 173.431 588.91 173.283 589.053 173.091C589.195 172.899 589.293 172.665 589.346 172.39H591.066C591.023 172.93 590.864 173.409 590.589 173.827C590.314 174.241 589.939 174.566 589.465 174.801C588.991 175.033 588.434 175.149 587.795 175.149Z" fill="#F8F8FA"/>
<rect width="32" height="32" transform="translate(509 204)" fill="#FFAA00"/>
<path d="M517 222L521 226L533 214" stroke="#1D1D1F" stroke-width="4" stroke-linecap="square"/>
<path d="M560.371 214.818V225H558.731L553.933 218.065H553.849V225H552.004V214.818H553.655L558.447 221.759H558.537V214.818H560.371ZM564.499 225.154C564.015 225.154 563.579 225.068 563.192 224.896C562.807 224.72 562.502 224.461 562.277 224.12C562.055 223.779 561.944 223.358 561.944 222.857C561.944 222.426 562.023 222.07 562.182 221.788C562.341 221.507 562.559 221.281 562.834 221.112C563.109 220.943 563.419 220.816 563.763 220.729C564.111 220.64 564.471 220.575 564.842 220.536C565.29 220.489 565.653 220.448 565.931 220.411C566.209 220.371 566.412 220.312 566.537 220.232C566.667 220.149 566.731 220.022 566.731 219.849V219.82C566.731 219.445 566.62 219.155 566.398 218.95C566.176 218.744 565.856 218.641 565.439 218.641C564.998 218.641 564.648 218.737 564.39 218.93C564.135 219.122 563.962 219.349 563.873 219.611L562.192 219.372C562.325 218.908 562.544 218.52 562.849 218.209C563.153 217.894 563.526 217.659 563.967 217.503C564.408 217.344 564.895 217.264 565.429 217.264C565.797 217.264 566.163 217.307 566.528 217.393C566.892 217.48 567.225 217.622 567.527 217.821C567.828 218.017 568.07 218.283 568.253 218.621C568.438 218.96 568.531 219.382 568.531 219.889V225H566.801V223.951H566.741C566.632 224.163 566.478 224.362 566.279 224.548C566.083 224.73 565.836 224.877 565.538 224.99C565.243 225.099 564.897 225.154 564.499 225.154ZM564.966 223.832C565.328 223.832 565.641 223.76 565.906 223.618C566.171 223.472 566.375 223.28 566.518 223.041C566.663 222.803 566.736 222.542 566.736 222.261V221.361C566.68 221.407 566.584 221.45 566.448 221.49C566.315 221.53 566.166 221.565 566.001 221.594C565.835 221.624 565.671 221.651 565.508 221.674C565.346 221.697 565.205 221.717 565.086 221.734C564.817 221.77 564.577 221.83 564.365 221.913C564.153 221.996 563.985 222.112 563.863 222.261C563.74 222.406 563.679 222.595 563.679 222.827C563.679 223.159 563.8 223.409 564.042 223.578C564.284 223.747 564.592 223.832 564.966 223.832ZM570.341 225V217.364H572.086V218.636H572.165C572.305 218.196 572.543 217.856 572.881 217.617C573.223 217.375 573.612 217.254 574.05 217.254C574.149 217.254 574.26 217.259 574.383 217.269C574.509 217.276 574.613 217.287 574.696 217.304V218.96C574.62 218.933 574.499 218.91 574.333 218.89C574.171 218.867 574.013 218.855 573.861 218.855C573.532 218.855 573.238 218.926 572.976 219.069C572.717 219.208 572.513 219.402 572.364 219.651C572.215 219.899 572.14 220.186 572.14 220.511V225H570.341ZM575.892 225V217.364H577.637V218.636H577.716C577.855 218.196 578.094 217.856 578.432 217.617C578.773 217.375 579.163 217.254 579.6 217.254C579.7 217.254 579.811 217.259 579.933 217.269C580.059 217.276 580.164 217.287 580.247 217.304V218.96C580.17 218.933 580.049 218.91 579.884 218.89C579.721 218.867 579.564 218.855 579.411 218.855C579.083 218.855 578.788 218.926 578.526 219.069C578.268 219.208 578.064 219.402 577.915 219.651C577.766 219.899 577.691 220.186 577.691 220.511V225H575.892ZM583.503 225.154C583.019 225.154 582.583 225.068 582.195 224.896C581.811 224.72 581.506 224.461 581.281 224.12C581.059 223.779 580.948 223.358 580.948 222.857C580.948 222.426 581.027 222.07 581.186 221.788C581.345 221.507 581.562 221.281 581.838 221.112C582.113 220.943 582.423 220.816 582.767 220.729C583.115 220.64 583.475 220.575 583.846 220.536C584.294 220.489 584.656 220.448 584.935 220.411C585.213 220.371 585.415 220.312 585.541 220.232C585.671 220.149 585.735 220.022 585.735 219.849V219.82C585.735 219.445 585.624 219.155 585.402 218.95C585.18 218.744 584.86 218.641 584.443 218.641C584.002 218.641 583.652 218.737 583.394 218.93C583.138 219.122 582.966 219.349 582.877 219.611L581.196 219.372C581.329 218.908 581.548 218.52 581.852 218.209C582.157 217.894 582.53 217.659 582.971 217.503C583.412 217.344 583.899 217.264 584.433 217.264C584.801 217.264 585.167 217.307 585.531 217.393C585.896 217.48 586.229 217.622 586.531 217.821C586.832 218.017 587.074 218.283 587.257 218.621C587.442 218.96 587.535 219.382 587.535 219.889V225H585.805V223.951H585.745C585.636 224.163 585.482 224.362 585.283 224.548C585.087 224.73 584.84 224.877 584.542 224.99C584.247 225.099 583.901 225.154 583.503 225.154ZM583.97 223.832C584.332 223.832 584.645 223.76 584.91 223.618C585.175 223.472 585.379 223.28 585.521 223.041C585.667 222.803 585.74 222.542 585.74 222.261V221.361C585.684 221.407 585.588 221.45 585.452 221.49C585.319 221.53 585.17 221.565 585.004 221.594C584.839 221.624 584.675 221.651 584.512 221.674C584.35 221.697 584.209 221.717 584.09 221.734C583.821 221.77 583.581 221.83 583.369 221.913C583.157 221.996 582.989 222.112 582.867 222.261C582.744 222.406 582.683 222.595 582.683 222.827C582.683 223.159 582.804 223.409 583.046 223.578C583.288 223.747 583.596 223.832 583.97 223.832ZM593.158 217.364V218.756H588.768V217.364H593.158ZM589.852 215.534H591.651V222.703C591.651 222.945 591.688 223.131 591.761 223.26C591.837 223.386 591.936 223.472 592.059 223.518C592.182 223.565 592.318 223.588 592.467 223.588C592.579 223.588 592.682 223.58 592.775 223.563C592.871 223.547 592.944 223.532 592.994 223.518L593.297 224.925C593.201 224.959 593.063 224.995 592.884 225.035C592.709 225.075 592.493 225.098 592.238 225.104C591.787 225.118 591.381 225.05 591.02 224.901C590.659 224.748 590.372 224.513 590.16 224.195C589.951 223.876 589.848 223.479 589.852 223.001V215.534ZM594.663 225V217.364H596.463V225H594.663ZM595.568 216.28C595.283 216.28 595.038 216.185 594.832 215.996C594.627 215.804 594.524 215.574 594.524 215.305C594.524 215.034 594.627 214.803 594.832 214.614C595.038 214.422 595.283 214.326 595.568 214.326C595.856 214.326 596.101 214.422 596.304 214.614C596.509 214.803 596.612 215.034 596.612 215.305C596.612 215.574 596.509 215.804 596.304 215.996C596.101 216.185 595.856 216.28 595.568 216.28ZM601.644 225.149C600.899 225.149 600.252 224.985 599.705 224.657C599.159 224.329 598.734 223.87 598.433 223.28C598.134 222.69 597.985 222 597.985 221.212C597.985 220.423 598.134 219.732 598.433 219.138C598.734 218.545 599.159 218.085 599.705 217.756C600.252 217.428 600.899 217.264 601.644 217.264C602.39 217.264 603.036 217.428 603.583 217.756C604.13 218.085 604.553 218.545 604.851 219.138C605.153 219.732 605.303 220.423 605.303 221.212C605.303 222 605.153 222.69 604.851 223.28C604.553 223.87 604.13 224.329 603.583 224.657C603.036 224.985 602.39 225.149 601.644 225.149ZM601.654 223.707C602.059 223.707 602.397 223.596 602.669 223.374C602.94 223.149 603.142 222.847 603.275 222.469C603.411 222.092 603.479 221.671 603.479 221.207C603.479 220.739 603.411 220.317 603.275 219.939C603.142 219.558 602.94 219.254 602.669 219.029C602.397 218.804 602.059 218.691 601.654 218.691C601.24 218.691 600.895 218.804 600.62 219.029C600.348 219.254 600.145 219.558 600.009 219.939C599.876 220.317 599.81 220.739 599.81 221.207C599.81 221.671 599.876 222.092 600.009 222.469C600.145 222.847 600.348 223.149 600.62 223.374C600.895 223.596 601.24 223.707 601.654 223.707ZM608.631 220.526V225H606.831V217.364H608.551V218.661H608.641C608.816 218.234 609.096 217.894 609.481 217.642C609.869 217.39 610.348 217.264 610.918 217.264C611.445 217.264 611.904 217.377 612.295 217.602C612.689 217.828 612.994 218.154 613.21 218.582C613.428 219.009 613.536 219.528 613.533 220.138V225H611.733V220.416C611.733 219.906 611.6 219.506 611.335 219.218C611.073 218.93 610.71 218.786 610.246 218.786C609.932 218.786 609.652 218.855 609.406 218.994C609.164 219.13 608.974 219.327 608.835 219.586C608.699 219.844 608.631 220.158 608.631 220.526ZM621.669 225.134C621.069 225.134 620.532 224.98 620.058 224.672C619.584 224.364 619.209 223.916 618.934 223.33C618.659 222.743 618.522 222.03 618.522 221.192C618.522 220.343 618.661 219.627 618.939 219.044C619.221 218.457 619.6 218.015 620.078 217.717C620.555 217.415 621.087 217.264 621.674 217.264C622.121 217.264 622.489 217.34 622.777 217.493C623.066 217.642 623.294 217.823 623.463 218.035C623.632 218.244 623.763 218.441 623.856 218.626H623.931V214.818H625.735V225H623.966V223.797H623.856C623.763 223.982 623.629 224.18 623.453 224.388C623.278 224.594 623.046 224.77 622.757 224.915C622.469 225.061 622.106 225.134 621.669 225.134ZM622.171 223.658C622.552 223.658 622.877 223.555 623.145 223.349C623.414 223.141 623.618 222.851 623.757 222.479C623.896 222.108 623.966 221.676 623.966 221.182C623.966 220.688 623.896 220.259 623.757 219.894C623.621 219.53 623.419 219.246 623.15 219.044C622.885 218.842 622.559 218.741 622.171 218.741C621.77 218.741 621.435 218.845 621.167 219.054C620.898 219.263 620.696 219.551 620.56 219.919C620.424 220.287 620.356 220.708 620.356 221.182C620.356 221.659 620.424 222.085 620.56 222.46C620.699 222.831 620.903 223.124 621.172 223.339C621.443 223.552 621.776 223.658 622.171 223.658ZM632.52 221.788V217.364H634.32V225H632.575V223.643H632.496C632.323 224.07 632.04 224.42 631.645 224.692C631.254 224.964 630.772 225.099 630.199 225.099C629.698 225.099 629.256 224.988 628.871 224.766C628.49 224.541 628.192 224.214 627.976 223.787C627.761 223.356 627.653 222.836 627.653 222.226V217.364H629.453V221.947C629.453 222.431 629.586 222.816 629.851 223.101C630.116 223.386 630.464 223.528 630.895 223.528C631.16 223.528 631.417 223.464 631.665 223.335C631.914 223.205 632.118 223.013 632.277 222.758C632.439 222.499 632.52 222.176 632.52 221.788ZM636.171 225V217.364H637.916V218.636H637.995C638.135 218.196 638.373 217.856 638.711 217.617C639.053 217.375 639.442 217.254 639.88 217.254C639.979 217.254 640.09 217.259 640.213 217.269C640.339 217.276 640.443 217.287 640.526 217.304V218.96C640.45 218.933 640.329 218.91 640.163 218.89C640.001 218.867 639.843 218.855 639.691 218.855C639.363 218.855 639.068 218.926 638.806 219.069C638.547 219.208 638.343 219.402 638.194 219.651C638.045 219.899 637.971 220.186 637.971 220.511V225H636.171ZM641.722 225V217.364H643.521V225H641.722ZM642.626 216.28C642.341 216.28 642.096 216.185 641.891 215.996C641.685 215.804 641.582 215.574 641.582 215.305C641.582 215.034 641.685 214.803 641.891 214.614C642.096 214.422 642.341 214.326 642.626 214.326C642.915 214.326 643.16 214.422 643.362 214.614C643.568 214.803 643.67 215.034 643.67 215.305C643.67 215.574 643.568 215.804 643.362 215.996C643.16 216.185 642.915 216.28 642.626 216.28ZM647.172 220.526V225H645.372V217.364H647.092V218.661H647.182C647.357 218.234 647.637 217.894 648.022 217.642C648.41 217.39 648.889 217.264 649.459 217.264C649.986 217.264 650.445 217.377 650.836 217.602C651.23 217.828 651.535 218.154 651.751 218.582C651.969 219.009 652.077 219.528 652.074 220.138V225H650.274V220.416C650.274 219.906 650.141 219.506 649.876 219.218C649.614 218.93 649.251 218.786 648.787 218.786C648.473 218.786 648.193 218.855 647.947 218.994C647.705 219.13 647.515 219.327 647.376 219.586C647.24 219.844 647.172 220.158 647.172 220.526ZM657.224 228.023C656.578 228.023 656.023 227.935 655.559 227.759C655.095 227.587 654.722 227.355 654.44 227.063C654.158 226.772 653.963 226.448 653.854 226.094L655.474 225.701C655.547 225.85 655.653 225.998 655.792 226.143C655.932 226.293 656.119 226.415 656.354 226.511C656.593 226.611 656.893 226.661 657.254 226.661C657.765 226.661 658.187 226.536 658.522 226.288C658.857 226.042 659.024 225.638 659.024 225.075V223.628H658.934C658.842 223.813 658.706 224.004 658.527 224.2C658.351 224.395 658.117 224.559 657.826 224.692C657.537 224.824 657.175 224.891 656.737 224.891C656.15 224.891 655.618 224.753 655.141 224.478C654.667 224.2 654.289 223.785 654.008 223.235C653.729 222.682 653.59 221.989 653.59 221.157C653.59 220.318 653.729 219.611 654.008 219.034C654.289 218.454 654.669 218.015 655.146 217.717C655.623 217.415 656.155 217.264 656.742 217.264C657.189 217.264 657.557 217.34 657.846 217.493C658.137 217.642 658.369 217.823 658.542 218.035C658.714 218.244 658.845 218.441 658.934 218.626H659.034V217.364H660.809V225.124C660.809 225.777 660.653 226.317 660.341 226.745C660.03 227.173 659.604 227.492 659.064 227.705C658.523 227.917 657.91 228.023 657.224 228.023ZM657.239 223.479C657.62 223.479 657.945 223.386 658.214 223.2C658.482 223.015 658.686 222.748 658.825 222.4C658.964 222.052 659.034 221.634 659.034 221.147C659.034 220.666 658.964 220.246 658.825 219.884C658.689 219.523 658.487 219.243 658.219 219.044C657.953 218.842 657.627 218.741 657.239 218.741C656.838 218.741 656.503 218.845 656.235 219.054C655.966 219.263 655.764 219.549 655.628 219.914C655.492 220.275 655.425 220.686 655.425 221.147C655.425 221.614 655.492 222.024 655.628 222.375C655.768 222.723 655.971 222.995 656.24 223.19C656.512 223.383 656.845 223.479 657.239 223.479ZM669.457 225.149C668.695 225.149 668.04 224.982 667.493 224.647C666.95 224.312 666.53 223.85 666.235 223.26C665.944 222.667 665.798 221.984 665.798 221.212C665.798 220.436 665.947 219.752 666.245 219.158C666.544 218.562 666.964 218.098 667.508 217.766C668.055 217.432 668.701 217.264 669.447 217.264C670.067 217.264 670.615 217.379 671.093 217.607C671.573 217.833 671.956 218.152 672.241 218.567C672.526 218.978 672.688 219.458 672.728 220.009H671.008C670.938 219.641 670.773 219.334 670.511 219.089C670.252 218.84 669.906 218.716 669.472 218.716C669.104 218.716 668.781 218.815 668.502 219.014C668.224 219.21 668.007 219.491 667.851 219.859C667.699 220.227 667.622 220.668 667.622 221.182C667.622 221.702 667.699 222.15 667.851 222.524C668.003 222.895 668.217 223.182 668.492 223.384C668.771 223.583 669.097 223.683 669.472 223.683C669.737 223.683 669.974 223.633 670.183 223.533C670.395 223.431 670.572 223.283 670.715 223.091C670.857 222.899 670.955 222.665 671.008 222.39H672.728C672.685 222.93 672.526 223.409 672.251 223.827C671.976 224.241 671.601 224.566 671.127 224.801C670.653 225.033 670.097 225.149 669.457 225.149ZM679.073 221.788V217.364H680.873V225H679.128V223.643H679.048C678.876 224.07 678.593 224.42 678.198 224.692C677.807 224.964 677.325 225.099 676.751 225.099C676.251 225.099 675.808 224.988 675.424 224.766C675.043 224.541 674.745 224.214 674.529 223.787C674.314 223.356 674.206 222.836 674.206 222.226V217.364H676.006V221.947C676.006 222.431 676.138 222.816 676.403 223.101C676.669 223.386 677.017 223.528 677.447 223.528C677.713 223.528 677.969 223.464 678.218 223.335C678.467 223.205 678.67 223.013 678.83 222.758C678.992 222.499 679.073 222.176 679.073 221.788ZM686.537 217.364V218.756H682.147V217.364H686.537ZM683.231 215.534H685.03V222.703C685.03 222.945 685.067 223.131 685.14 223.26C685.216 223.386 685.315 223.472 685.438 223.518C685.561 223.565 685.697 223.588 685.846 223.588C685.958 223.588 686.061 223.58 686.154 223.563C686.25 223.547 686.323 223.532 686.373 223.518L686.676 224.925C686.58 224.959 686.442 224.995 686.263 225.035C686.088 225.075 685.872 225.098 685.617 225.104C685.166 225.118 684.76 225.05 684.399 224.901C684.038 224.748 683.751 224.513 683.539 224.195C683.33 223.876 683.227 223.479 683.231 223.001V215.534ZM693.968 219.382L692.327 219.561C692.281 219.395 692.2 219.24 692.084 219.094C691.971 218.948 691.819 218.83 691.626 218.741C691.434 218.651 691.199 218.607 690.92 218.607C690.546 218.607 690.231 218.688 689.976 218.85C689.724 219.013 689.6 219.223 689.603 219.482C689.6 219.704 689.681 219.884 689.847 220.023C690.016 220.163 690.294 220.277 690.682 220.366L691.984 220.645C692.707 220.801 693.244 221.048 693.595 221.386C693.95 221.724 694.129 222.166 694.132 222.713C694.129 223.194 693.988 223.618 693.71 223.986C693.434 224.35 693.052 224.635 692.561 224.841C692.071 225.046 691.507 225.149 690.871 225.149C689.936 225.149 689.184 224.954 688.614 224.562C688.044 224.168 687.704 223.62 687.594 222.917L689.349 222.748C689.429 223.093 689.598 223.353 689.857 223.528C690.115 223.704 690.451 223.792 690.866 223.792C691.293 223.792 691.636 223.704 691.895 223.528C692.157 223.353 692.288 223.136 692.288 222.877C692.288 222.658 692.203 222.478 692.034 222.335C691.868 222.193 691.61 222.083 691.259 222.007L689.956 221.734C689.223 221.581 688.682 221.324 688.33 220.963C687.979 220.598 687.805 220.138 687.808 219.581C687.805 219.11 687.933 218.703 688.191 218.358C688.453 218.01 688.816 217.741 689.28 217.553C689.747 217.36 690.286 217.264 690.896 217.264C691.79 217.264 692.495 217.455 693.009 217.836C693.526 218.217 693.845 218.732 693.968 219.382ZM698.947 225.149C698.185 225.149 697.53 224.982 696.983 224.647C696.44 224.312 696.02 223.85 695.725 223.26C695.434 222.667 695.288 221.984 695.288 221.212C695.288 220.436 695.437 219.752 695.735 219.158C696.034 218.562 696.455 218.098 696.998 217.766C697.545 217.432 698.191 217.264 698.937 217.264C699.557 217.264 700.105 217.379 700.583 217.607C701.063 217.833 701.446 218.152 701.731 218.567C702.016 218.978 702.179 219.458 702.218 220.009H700.498C700.429 219.641 700.263 219.334 700.001 219.089C699.743 218.84 699.396 218.716 698.962 218.716C698.594 218.716 698.271 218.815 697.993 219.014C697.714 219.21 697.497 219.491 697.341 219.859C697.189 220.227 697.113 220.668 697.113 221.182C697.113 221.702 697.189 222.15 697.341 222.524C697.494 222.895 697.708 223.182 697.983 223.384C698.261 223.583 698.587 223.683 698.962 223.683C699.227 223.683 699.464 223.633 699.673 223.533C699.885 223.431 700.062 223.283 700.205 223.091C700.347 222.899 700.445 222.665 700.498 222.39H702.218C702.175 222.93 702.016 223.409 701.741 223.827C701.466 224.241 701.092 224.566 700.618 224.801C700.144 225.033 699.587 225.149 698.947 225.149ZM707.077 225.149C706.311 225.149 705.65 224.99 705.093 224.672C704.54 224.35 704.114 223.896 703.816 223.31C703.517 222.72 703.368 222.025 703.368 221.227C703.368 220.441 703.517 219.752 703.816 219.158C704.117 218.562 704.538 218.098 705.078 217.766C705.619 217.432 706.253 217.264 706.982 217.264C707.453 217.264 707.897 217.34 708.315 217.493C708.736 217.642 709.107 217.874 709.428 218.189C709.753 218.504 710.008 218.905 710.194 219.392C710.38 219.876 710.472 220.453 710.472 221.122V221.674H704.213V220.461H708.747C708.744 220.116 708.669 219.81 708.524 219.541C708.378 219.269 708.174 219.056 707.912 218.9C707.654 218.744 707.352 218.666 707.007 218.666C706.639 218.666 706.316 218.756 706.038 218.935C705.759 219.11 705.542 219.342 705.387 219.631C705.234 219.916 705.156 220.229 705.153 220.57V221.629C705.153 222.073 705.234 222.455 705.396 222.773C705.559 223.088 705.786 223.33 706.078 223.499C706.369 223.664 706.711 223.747 707.102 223.747C707.364 223.747 707.601 223.711 707.813 223.638C708.025 223.562 708.209 223.451 708.365 223.305C708.52 223.159 708.638 222.978 708.718 222.763L710.398 222.952C710.292 223.396 710.09 223.784 709.791 224.115C709.496 224.443 709.119 224.698 708.658 224.881C708.197 225.06 707.67 225.149 707.077 225.149ZM713.795 220.526V225H711.995V217.364H713.715V218.661H713.805C713.98 218.234 714.26 217.894 714.645 217.642C715.033 217.39 715.512 217.264 716.082 217.264C716.609 217.264 717.068 217.377 717.459 217.602C717.853 217.828 718.158 218.154 718.374 218.582C718.592 219.009 718.7 219.528 718.697 220.138V225H716.897V220.416C716.897 219.906 716.764 219.506 716.499 219.218C716.237 218.93 715.875 218.786 715.411 218.786C715.096 218.786 714.816 218.855 714.57 218.994C714.328 219.13 714.138 219.327 713.999 219.586C713.863 219.844 713.795 220.158 713.795 220.526ZM723.907 225.149C723.141 225.149 722.48 224.99 721.923 224.672C721.37 224.35 720.944 223.896 720.646 223.31C720.347 222.72 720.198 222.025 720.198 221.227C720.198 220.441 720.347 219.752 720.646 219.158C720.947 218.562 721.368 218.098 721.908 217.766C722.449 217.432 723.083 217.264 723.812 217.264C724.283 217.264 724.727 217.34 725.145 217.493C725.566 217.642 725.937 217.874 726.259 218.189C726.583 218.504 726.839 218.905 727.024 219.392C727.21 219.876 727.303 220.453 727.303 221.122V221.674H721.043V220.461H725.577C725.574 220.116 725.5 219.81 725.354 219.541C725.208 219.269 725.004 219.056 724.742 218.9C724.484 218.744 724.182 218.666 723.837 218.666C723.469 218.666 723.146 218.756 722.868 218.935C722.589 219.11 722.372 219.342 722.217 219.631C722.064 219.916 721.986 220.229 721.983 220.57V221.629C721.983 222.073 722.064 222.455 722.227 222.773C722.389 223.088 722.616 223.33 722.908 223.499C723.199 223.664 723.541 223.747 723.932 223.747C724.194 223.747 724.431 223.711 724.643 223.638C724.855 223.562 725.039 223.451 725.195 223.305C725.35 223.159 725.468 222.978 725.548 222.763L727.228 222.952C727.122 223.396 726.92 223.784 726.621 224.115C726.326 224.443 725.949 224.698 725.488 224.881C725.027 225.06 724.5 225.149 723.907 225.149ZM734.861 219.382L733.22 219.561C733.174 219.395 733.092 219.24 732.976 219.094C732.864 218.948 732.711 218.83 732.519 218.741C732.327 218.651 732.091 218.607 731.813 218.607C731.439 218.607 731.124 218.688 730.868 218.85C730.617 219.013 730.492 219.223 730.496 219.482C730.492 219.704 730.573 219.884 730.739 220.023C730.908 220.163 731.187 220.277 731.574 220.366L732.877 220.645C733.599 220.801 734.136 221.048 734.488 221.386C734.842 221.724 735.021 222.166 735.025 222.713C735.021 223.194 734.881 223.618 734.602 223.986C734.327 224.35 733.944 224.635 733.454 224.841C732.963 225.046 732.4 225.149 731.763 225.149C730.829 225.149 730.076 224.954 729.506 224.562C728.936 224.168 728.596 223.62 728.487 222.917L730.242 222.748C730.322 223.093 730.491 223.353 730.749 223.528C731.008 223.704 731.344 223.792 731.758 223.792C732.186 223.792 732.529 223.704 732.787 223.528C733.049 223.353 733.18 223.136 733.18 222.877C733.18 222.658 733.096 222.478 732.927 222.335C732.761 222.193 732.502 222.083 732.151 222.007L730.849 221.734C730.116 221.581 729.574 221.324 729.223 220.963C728.872 220.598 728.698 220.138 728.701 219.581C728.698 219.11 728.825 218.703 729.084 218.358C729.345 218.01 729.708 217.741 730.172 217.553C730.64 217.36 731.178 217.264 731.788 217.264C732.683 217.264 733.387 217.455 733.901 217.836C734.418 218.217 734.738 218.732 734.861 219.382Z" fill="#F8F8FA"/>
<path d="M548.729 19.8182H550.574V26.4702C550.574 27.1993 550.401 27.8407 550.057 28.3942C549.715 28.9477 549.235 29.3802 548.615 29.6918C547.995 30 547.271 30.1541 546.442 30.1541C545.61 30.1541 544.885 30 544.265 29.6918C543.645 29.3802 543.164 28.9477 542.823 28.3942C542.482 27.8407 542.311 27.1993 542.311 26.4702V19.8182H544.155V26.3161C544.155 26.7403 544.248 27.1181 544.434 27.4496C544.623 27.781 544.888 28.0412 545.229 28.2301C545.571 28.4157 545.975 28.5085 546.442 28.5085C546.91 28.5085 547.314 28.4157 547.655 28.2301C548 28.0412 548.265 27.781 548.451 27.4496C548.636 27.1181 548.729 26.7403 548.729 26.3161V19.8182ZM558.534 24.3821L556.894 24.5611C556.847 24.3954 556.766 24.2396 556.65 24.0938C556.538 23.9479 556.385 23.8303 556.193 23.7408C556.001 23.6513 555.765 23.6065 555.487 23.6065C555.112 23.6065 554.797 23.6877 554.542 23.8501C554.29 24.0125 554.166 24.223 554.169 24.4815C554.166 24.7036 554.247 24.8842 554.413 25.0234C554.582 25.1626 554.86 25.277 555.248 25.3665L556.551 25.6449C557.273 25.8007 557.81 26.0476 558.162 26.3857C558.516 26.7237 558.695 27.1662 558.699 27.7131C558.695 28.1937 558.554 28.6179 558.276 28.9858C558.001 29.3504 557.618 29.6354 557.127 29.8409C556.637 30.0464 556.074 30.1491 555.437 30.1491C554.502 30.1491 553.75 29.9536 553.18 29.5625C552.61 29.1681 552.27 28.6196 552.161 27.9169L553.916 27.7479C553.995 28.0926 554.164 28.3527 554.423 28.5284C554.681 28.7041 555.018 28.7919 555.432 28.7919C555.86 28.7919 556.203 28.7041 556.461 28.5284C556.723 28.3527 556.854 28.1357 556.854 27.8771C556.854 27.6584 556.77 27.4777 556.6 27.3352C556.435 27.1927 556.176 27.0833 555.825 27.0071L554.522 26.7337C553.79 26.5812 553.248 26.3243 552.897 25.9631C552.545 25.5985 552.371 25.1378 552.375 24.581C552.371 24.1103 552.499 23.7027 552.757 23.358C553.019 23.0099 553.382 22.7415 553.846 22.5526C554.314 22.3603 554.852 22.2642 555.462 22.2642C556.357 22.2642 557.061 22.4548 557.575 22.8359C558.092 23.2171 558.412 23.7325 558.534 24.3821ZM563.563 30.1491C562.798 30.1491 562.136 29.9901 561.58 29.6719C561.026 29.3504 560.6 28.8963 560.302 28.3097C560.004 27.7197 559.854 27.0253 559.854 26.2266C559.854 25.4411 560.004 24.7517 560.302 24.1584C560.603 23.5618 561.024 23.0978 561.565 22.7663C562.105 22.4316 562.74 22.2642 563.469 22.2642C563.939 22.2642 564.384 22.3404 564.801 22.4929C565.222 22.642 565.593 22.8741 565.915 23.1889C566.24 23.5038 566.495 23.9048 566.68 24.392C566.866 24.8759 566.959 25.4527 566.959 26.1222V26.674H560.7V25.4609H565.234C565.23 25.1162 565.156 24.8097 565.01 24.5412C564.864 24.2694 564.66 24.0556 564.398 23.8999C564.14 23.7441 563.838 23.6662 563.494 23.6662C563.126 23.6662 562.803 23.7557 562.524 23.9347C562.246 24.1103 562.029 24.3423 561.873 24.6307C561.72 24.9157 561.643 25.2289 561.639 25.5703V26.6293C561.639 27.0734 561.72 27.4545 561.883 27.7727C562.045 28.0876 562.272 28.3295 562.564 28.4986C562.856 28.6643 563.197 28.7472 563.588 28.7472C563.85 28.7472 564.087 28.7107 564.299 28.6378C564.511 28.5616 564.695 28.4505 564.851 28.3047C565.007 28.1589 565.124 27.9782 565.204 27.7628L566.884 27.9517C566.778 28.3958 566.576 28.7836 566.278 29.1151C565.983 29.4432 565.605 29.6984 565.144 29.8807C564.683 30.0597 564.156 30.1491 563.563 30.1491ZM568.481 30V22.3636H570.226V23.6364H570.306C570.445 23.1955 570.684 22.8558 571.022 22.6172C571.363 22.3752 571.753 22.2543 572.19 22.2543C572.29 22.2543 572.401 22.2592 572.523 22.2692C572.649 22.2758 572.754 22.2874 572.836 22.304V23.9595C572.76 23.933 572.639 23.9098 572.474 23.8899C572.311 23.8667 572.154 23.8551 572.001 23.8551C571.673 23.8551 571.378 23.9264 571.116 24.0689C570.858 24.2081 570.654 24.402 570.505 24.6506C570.356 24.8991 570.281 25.1858 570.281 25.5107V30H568.481ZM577.505 30V22.3636H579.305V30H577.505ZM578.41 21.2798C578.125 21.2798 577.879 21.1854 577.674 20.9964C577.468 20.8042 577.366 20.5739 577.366 20.3054C577.366 20.0336 577.468 19.8033 577.674 19.6143C577.879 19.4221 578.125 19.326 578.41 19.326C578.698 19.326 578.943 19.4221 579.145 19.6143C579.351 19.8033 579.454 20.0336 579.454 20.3054C579.454 20.5739 579.351 20.8042 579.145 20.9964C578.943 21.1854 578.698 21.2798 578.41 21.2798ZM582.955 25.5256V30H581.155V22.3636H582.875V23.6612H582.965C583.141 23.2337 583.421 22.8939 583.805 22.642C584.193 22.3902 584.672 22.2642 585.242 22.2642C585.769 22.2642 586.228 22.3769 586.619 22.6023C587.013 22.8277 587.318 23.1541 587.534 23.5817C587.752 24.0092 587.86 24.5279 587.857 25.1378V30H586.057V25.4162C586.057 24.9058 585.925 24.5064 585.659 24.218C585.398 23.9297 585.035 23.7855 584.571 23.7855C584.256 23.7855 583.976 23.8551 583.73 23.9943C583.489 24.1302 583.298 24.3274 583.159 24.5859C583.023 24.8445 582.955 25.1577 582.955 25.5256ZM593.5 22.3636V23.7557H589.11V22.3636H593.5ZM590.194 20.5341H591.993V27.7031C591.993 27.9451 592.03 28.1307 592.103 28.2599C592.179 28.3859 592.278 28.4721 592.401 28.5185C592.524 28.5649 592.659 28.5881 592.809 28.5881C592.921 28.5881 593.024 28.5798 593.117 28.5632C593.213 28.5466 593.286 28.5317 593.336 28.5185L593.639 29.9254C593.543 29.9586 593.405 29.995 593.226 30.0348C593.051 30.0746 592.835 30.0978 592.58 30.1044C592.129 30.1177 591.723 30.0497 591.362 29.9006C591.001 29.7481 590.714 29.5128 590.502 29.1946C590.293 28.8764 590.19 28.4787 590.194 28.0014V20.5341ZM598.303 30.1491C597.538 30.1491 596.877 29.9901 596.32 29.6719C595.766 29.3504 595.34 28.8963 595.042 28.3097C594.744 27.7197 594.595 27.0253 594.595 26.2266C594.595 25.4411 594.744 24.7517 595.042 24.1584C595.344 23.5618 595.765 23.0978 596.305 22.7663C596.845 22.4316 597.48 22.2642 598.209 22.2642C598.68 22.2642 599.124 22.3404 599.541 22.4929C599.962 22.642 600.334 22.8741 600.655 23.1889C600.98 23.5038 601.235 23.9048 601.421 24.392C601.606 24.8759 601.699 25.4527 601.699 26.1222V26.674H595.44V25.4609H599.974C599.971 25.1162 599.896 24.8097 599.75 24.5412C599.604 24.2694 599.401 24.0556 599.139 23.8999C598.88 23.7441 598.579 23.6662 598.234 23.6662C597.866 23.6662 597.543 23.7557 597.264 23.9347C596.986 24.1103 596.769 24.3423 596.613 24.6307C596.461 24.9157 596.383 25.2289 596.379 25.5703V26.6293C596.379 27.0734 596.461 27.4545 596.623 27.7727C596.785 28.0876 597.012 28.3295 597.304 28.4986C597.596 28.6643 597.937 28.7472 598.328 28.7472C598.59 28.7472 598.827 28.7107 599.039 28.6378C599.251 28.5616 599.435 28.4505 599.591 28.3047C599.747 28.1589 599.865 27.9782 599.944 27.7628L601.624 27.9517C601.518 28.3958 601.316 28.7836 601.018 29.1151C600.723 29.4432 600.345 29.6984 599.884 29.8807C599.424 30.0597 598.897 30.1491 598.303 30.1491ZM603.222 30V22.3636H604.967V23.6364H605.046C605.185 23.1955 605.424 22.8558 605.762 22.6172C606.103 22.3752 606.493 22.2543 606.93 22.2543C607.03 22.2543 607.141 22.2592 607.263 22.2692C607.389 22.2758 607.494 22.2874 607.577 22.304V23.9595C607.5 23.933 607.379 23.9098 607.214 23.8899C607.051 23.8667 606.894 23.8551 606.741 23.8551C606.413 23.8551 606.118 23.9264 605.857 24.0689C605.598 24.2081 605.394 24.402 605.245 24.6506C605.096 24.8991 605.021 25.1858 605.021 25.5107V30H603.222ZM613.05 22.3636V23.7557H608.536V22.3636H613.05ZM609.665 30V21.6428C609.665 21.129 609.771 20.7015 609.983 20.3601C610.198 20.0187 610.487 19.7635 610.848 19.5945C611.209 19.4254 611.61 19.3409 612.051 19.3409C612.363 19.3409 612.639 19.3658 612.881 19.4155C613.123 19.4652 613.302 19.5099 613.418 19.5497L613.06 20.9418C612.984 20.9186 612.888 20.8954 612.772 20.8722C612.656 20.8456 612.527 20.8324 612.384 20.8324C612.049 20.8324 611.813 20.9136 611.673 21.076C611.537 21.2351 611.469 21.4638 611.469 21.7621V30H609.665ZM616.398 30.1541C615.914 30.1541 615.478 30.0679 615.09 29.8956C614.706 29.7199 614.401 29.4614 614.175 29.12C613.953 28.7786 613.842 28.3577 613.842 27.8572C613.842 27.4264 613.922 27.0701 614.081 26.7884C614.24 26.5066 614.457 26.2812 614.732 26.1122C615.007 25.9432 615.317 25.8156 615.662 25.7294C616.01 25.6399 616.369 25.5753 616.741 25.5355C617.188 25.4891 617.551 25.4477 617.829 25.4112C618.108 25.3714 618.31 25.3118 618.436 25.2322C618.565 25.1494 618.63 25.0218 618.63 24.8494V24.8196C618.63 24.4451 618.519 24.1551 618.297 23.9496C618.075 23.7441 617.755 23.6413 617.337 23.6413C616.896 23.6413 616.547 23.7375 616.288 23.9297C616.033 24.1219 615.861 24.349 615.771 24.6108L614.091 24.3722C614.223 23.9081 614.442 23.5204 614.747 23.2088C615.052 22.8939 615.425 22.6586 615.866 22.5028C616.306 22.3438 616.794 22.2642 617.327 22.2642C617.695 22.2642 618.061 22.3073 618.426 22.3935C618.791 22.4796 619.124 22.6222 619.425 22.821C619.727 23.0166 619.969 23.2834 620.151 23.6214C620.337 23.9595 620.43 24.3821 620.43 24.8892V30H618.699V28.951H618.64C618.53 29.1631 618.376 29.362 618.177 29.5476C617.982 29.7299 617.735 29.8774 617.437 29.9901C617.142 30.0994 616.795 30.1541 616.398 30.1541ZM616.865 28.8317C617.226 28.8317 617.539 28.7604 617.805 28.6179C618.07 28.4721 618.273 28.2798 618.416 28.0412C618.562 27.8026 618.635 27.5424 618.635 27.2607V26.3608C618.578 26.4072 618.482 26.4503 618.346 26.4901C618.214 26.5298 618.065 26.5646 617.899 26.5945C617.733 26.6243 617.569 26.6508 617.407 26.674C617.244 26.6972 617.104 26.7171 616.984 26.7337C616.716 26.7701 616.475 26.8298 616.263 26.9126C616.051 26.9955 615.884 27.1115 615.761 27.2607C615.639 27.4065 615.577 27.5954 615.577 27.8274C615.577 28.1589 615.698 28.4091 615.94 28.5781C616.182 28.7472 616.49 28.8317 616.865 28.8317ZM625.57 30.1491C624.808 30.1491 624.153 29.9818 623.606 29.647C623.063 29.3123 622.644 28.8499 622.349 28.2599C622.057 27.6667 621.911 26.9839 621.911 26.2116C621.911 25.4361 622.06 24.7517 622.358 24.1584C622.657 23.5618 623.078 23.0978 623.621 22.7663C624.168 22.4316 624.814 22.2642 625.56 22.2642C626.18 22.2642 626.729 22.3786 627.206 22.6072C627.686 22.8326 628.069 23.1525 628.354 23.5668C628.639 23.9777 628.802 24.4583 628.841 25.0085H627.121C627.052 24.6406 626.886 24.334 626.624 24.0888C626.366 23.8402 626.019 23.7159 625.585 23.7159C625.217 23.7159 624.894 23.8153 624.616 24.0142C624.337 24.2098 624.12 24.4915 623.964 24.8594C623.812 25.2273 623.736 25.6681 623.736 26.1818C623.736 26.7022 623.812 27.1496 623.964 27.5241C624.117 27.8954 624.331 28.1821 624.606 28.3842C624.884 28.5831 625.211 28.6825 625.585 28.6825C625.85 28.6825 626.087 28.6328 626.296 28.5334C626.508 28.4306 626.685 28.2831 626.828 28.0909C626.97 27.8987 627.068 27.665 627.121 27.3899H628.841C628.798 27.9302 628.639 28.4091 628.364 28.8267C628.089 29.241 627.715 29.5658 627.241 29.8011C626.767 30.0331 626.21 30.1491 625.57 30.1491ZM633.7 30.1491C632.934 30.1491 632.273 29.9901 631.716 29.6719C631.163 29.3504 630.737 28.8963 630.439 28.3097C630.14 27.7197 629.991 27.0253 629.991 26.2266C629.991 25.4411 630.14 24.7517 630.439 24.1584C630.74 23.5618 631.161 23.0978 631.701 22.7663C632.242 22.4316 632.876 22.2642 633.605 22.2642C634.076 22.2642 634.52 22.3404 634.938 22.4929C635.359 22.642 635.73 22.8741 636.051 23.1889C636.376 23.5038 636.632 23.9048 636.817 24.392C637.003 24.8759 637.096 25.4527 637.096 26.1222V26.674H630.836V25.4609H635.37C635.367 25.1162 635.292 24.8097 635.147 24.5412C635.001 24.2694 634.797 24.0556 634.535 23.8999C634.277 23.7441 633.975 23.6662 633.63 23.6662C633.262 23.6662 632.939 23.7557 632.661 23.9347C632.382 24.1103 632.165 24.3423 632.01 24.6307C631.857 24.9157 631.779 25.2289 631.776 25.5703V26.6293C631.776 27.0734 631.857 27.4545 632.02 27.7727C632.182 28.0876 632.409 28.3295 632.701 28.4986C632.992 28.6643 633.334 28.7472 633.725 28.7472C633.987 28.7472 634.224 28.7107 634.436 28.6378C634.648 28.5616 634.832 28.4505 634.988 28.3047C635.143 28.1589 635.261 27.9782 635.341 27.7628L637.021 27.9517C636.915 28.3958 636.713 28.7836 636.414 29.1151C636.119 29.4432 635.742 29.6984 635.281 29.8807C634.82 30.0597 634.293 30.1491 633.7 30.1491Z" fill="#F8F8FA"/>
<path d="M210.68 22.6172C210.634 22.183 210.438 21.8449 210.094 21.603C209.752 21.361 209.308 21.2401 208.761 21.2401C208.377 21.2401 208.047 21.2981 207.772 21.4141C207.497 21.5301 207.286 21.6875 207.14 21.8864C206.995 22.0852 206.92 22.3123 206.917 22.5675C206.917 22.7796 206.965 22.9635 207.061 23.1193C207.16 23.2751 207.295 23.4077 207.464 23.517C207.633 23.6231 207.82 23.7126 208.025 23.7855C208.231 23.8584 208.438 23.9197 208.647 23.9695L209.601 24.2081C209.986 24.2976 210.355 24.4186 210.71 24.571C211.068 24.7235 211.388 24.9157 211.67 25.1477C211.955 25.3797 212.18 25.6598 212.346 25.9879C212.511 26.3161 212.594 26.7005 212.594 27.1413C212.594 27.7379 212.442 28.2633 212.137 28.7173C211.832 29.1681 211.391 29.5211 210.814 29.7763C210.241 30.0282 209.547 30.1541 208.731 30.1541C207.939 30.1541 207.251 30.0315 206.668 29.7862C206.088 29.541 205.634 29.183 205.306 28.7124C204.981 28.2417 204.805 27.6683 204.779 26.9922H206.594C206.62 27.3468 206.729 27.6418 206.922 27.8771C207.114 28.1125 207.364 28.2881 207.672 28.4041C207.984 28.5201 208.332 28.5781 208.716 28.5781C209.117 28.5781 209.469 28.5185 209.77 28.3991C210.075 28.2765 210.314 28.1075 210.486 27.892C210.659 27.6733 210.747 27.4181 210.75 27.1264C210.747 26.8613 210.669 26.6425 210.516 26.4702C210.364 26.2945 210.15 26.1487 209.875 26.0327C209.603 25.9134 209.285 25.8073 208.92 25.7145L207.762 25.4162C206.923 25.2008 206.26 24.8743 205.773 24.4368C205.289 23.996 205.047 23.411 205.047 22.6818C205.047 22.0819 205.21 21.5566 205.535 21.1058C205.863 20.6551 206.309 20.3054 206.872 20.0568C207.435 19.8049 208.073 19.679 208.786 19.679C209.509 19.679 210.142 19.8049 210.685 20.0568C211.232 20.3054 211.661 20.6518 211.973 21.0959C212.284 21.5367 212.445 22.0438 212.455 22.6172H210.68ZM217.972 22.3636V23.7557H213.582V22.3636H217.972ZM214.666 20.5341H216.466V27.7031C216.466 27.9451 216.502 28.1307 216.575 28.2599C216.652 28.3859 216.751 28.4721 216.874 28.5185C216.996 28.5649 217.132 28.5881 217.281 28.5881C217.394 28.5881 217.497 28.5798 217.589 28.5632C217.686 28.5466 217.759 28.5317 217.808 28.5185L218.112 29.9254C218.015 29.9586 217.878 29.995 217.699 30.0348C217.523 30.0746 217.308 30.0978 217.053 30.1044C216.602 30.1177 216.196 30.0497 215.835 29.9006C215.473 29.7481 215.187 29.5128 214.974 29.1946C214.766 28.8764 214.663 28.4787 214.666 28.0014V20.5341ZM221.675 30.1541C221.191 30.1541 220.755 30.0679 220.367 29.8956C219.983 29.7199 219.678 29.4614 219.453 29.12C219.231 28.7786 219.119 28.3577 219.119 27.8572C219.119 27.4264 219.199 27.0701 219.358 26.7884C219.517 26.5066 219.734 26.2812 220.009 26.1122C220.285 25.9432 220.594 25.8156 220.939 25.7294C221.287 25.6399 221.647 25.5753 222.018 25.5355C222.465 25.4891 222.828 25.4477 223.107 25.4112C223.385 25.3714 223.587 25.3118 223.713 25.2322C223.843 25.1494 223.907 25.0218 223.907 24.8494V24.8196C223.907 24.4451 223.796 24.1551 223.574 23.9496C223.352 23.7441 223.032 23.6413 222.615 23.6413C222.174 23.6413 221.824 23.7375 221.566 23.9297C221.31 24.1219 221.138 24.349 221.048 24.6108L219.368 24.3722C219.501 23.9081 219.719 23.5204 220.024 23.2088C220.329 22.8939 220.702 22.6586 221.143 22.5028C221.584 22.3438 222.071 22.2642 222.605 22.2642C222.972 22.2642 223.339 22.3073 223.703 22.3935C224.068 22.4796 224.401 22.6222 224.703 22.821C225.004 23.0166 225.246 23.2834 225.428 23.6214C225.614 23.9595 225.707 24.3821 225.707 24.8892V30H223.977V28.951H223.917C223.808 29.1631 223.654 29.362 223.455 29.5476C223.259 29.7299 223.012 29.8774 222.714 29.9901C222.419 30.0994 222.073 30.1541 221.675 30.1541ZM222.142 28.8317C222.503 28.8317 222.817 28.7604 223.082 28.6179C223.347 28.4721 223.551 28.2798 223.693 28.0412C223.839 27.8026 223.912 27.5424 223.912 27.2607V26.3608C223.856 26.4072 223.76 26.4503 223.624 26.4901C223.491 26.5298 223.342 26.5646 223.176 26.5945C223.011 26.6243 222.847 26.6508 222.684 26.674C222.522 26.6972 222.381 26.7171 222.262 26.7337C221.993 26.7701 221.753 26.8298 221.541 26.9126C221.329 26.9955 221.161 27.1115 221.039 27.2607C220.916 27.4065 220.855 27.5954 220.855 27.8274C220.855 28.1589 220.976 28.4091 221.218 28.5781C221.459 28.7472 221.768 28.8317 222.142 28.8317ZM231.33 22.3636V23.7557H226.94V22.3636H231.33ZM228.024 20.5341H229.823V27.7031C229.823 27.9451 229.86 28.1307 229.933 28.2599C230.009 28.3859 230.108 28.4721 230.231 28.5185C230.354 28.5649 230.49 28.5881 230.639 28.5881C230.751 28.5881 230.854 28.5798 230.947 28.5632C231.043 28.5466 231.116 28.5317 231.166 28.5185L231.469 29.9254C231.373 29.9586 231.235 29.995 231.056 30.0348C230.881 30.0746 230.665 30.0978 230.41 30.1044C229.959 30.1177 229.553 30.0497 229.192 29.9006C228.831 29.7481 228.544 29.5128 228.332 29.1946C228.123 28.8764 228.02 28.4787 228.024 28.0014V20.5341ZM236.134 30.1491C235.368 30.1491 234.707 29.9901 234.15 29.6719C233.596 29.3504 233.17 28.8963 232.872 28.3097C232.574 27.7197 232.425 27.0253 232.425 26.2266C232.425 25.4411 232.574 24.7517 232.872 24.1584C233.174 23.5618 233.595 23.0978 234.135 22.7663C234.675 22.4316 235.31 22.2642 236.039 22.2642C236.51 22.2642 236.954 22.3404 237.371 22.4929C237.792 22.642 238.164 22.8741 238.485 23.1889C238.81 23.5038 239.065 23.9048 239.251 24.392C239.436 24.8759 239.529 25.4527 239.529 26.1222V26.674H233.27V25.4609H237.804C237.801 25.1162 237.726 24.8097 237.58 24.5412C237.434 24.2694 237.231 24.0556 236.969 23.8999C236.71 23.7441 236.409 23.6662 236.064 23.6662C235.696 23.6662 235.373 23.7557 235.094 23.9347C234.816 24.1103 234.599 24.3423 234.443 24.6307C234.291 24.9157 234.213 25.2289 234.21 25.5703V26.6293C234.21 27.0734 234.291 27.4545 234.453 27.7727C234.616 28.0876 234.843 28.3295 235.134 28.4986C235.426 28.6643 235.767 28.7472 236.158 28.7472C236.42 28.7472 236.657 28.7107 236.869 28.6378C237.081 28.5616 237.265 28.4505 237.421 28.3047C237.577 28.1589 237.695 27.9782 237.774 27.7628L239.455 27.9517C239.348 28.3958 239.146 28.7836 238.848 29.1151C238.553 29.4432 238.175 29.6984 237.714 29.8807C237.254 30.0597 236.727 30.1491 236.134 30.1491ZM247.855 30.1491C247.11 30.1491 246.463 29.9851 245.916 29.657C245.369 29.3288 244.945 28.8698 244.644 28.2798C244.345 27.6899 244.196 27.0005 244.196 26.2116C244.196 25.4228 244.345 24.7318 244.644 24.1385C244.945 23.5452 245.369 23.0845 245.916 22.7564C246.463 22.4283 247.11 22.2642 247.855 22.2642C248.601 22.2642 249.247 22.4283 249.794 22.7564C250.341 23.0845 250.764 23.5452 251.062 24.1385C251.364 24.7318 251.514 25.4228 251.514 26.2116C251.514 27.0005 251.364 27.6899 251.062 28.2798C250.764 28.8698 250.341 29.3288 249.794 29.657C249.247 29.9851 248.601 30.1491 247.855 30.1491ZM247.865 28.7074C248.27 28.7074 248.608 28.5964 248.879 28.3743C249.151 28.1489 249.353 27.8473 249.486 27.4695C249.622 27.0916 249.69 26.6707 249.69 26.2067C249.69 25.7393 249.622 25.3168 249.486 24.9389C249.353 24.5578 249.151 24.2545 248.879 24.0291C248.608 23.8037 248.27 23.6911 247.865 23.6911C247.451 23.6911 247.106 23.8037 246.831 24.0291C246.559 24.2545 246.356 24.5578 246.22 24.9389C246.087 25.3168 246.021 25.7393 246.021 26.2067C246.021 26.6707 246.087 27.0916 246.22 27.4695C246.356 27.8473 246.559 28.1489 246.831 28.3743C247.106 28.5964 247.451 28.7074 247.865 28.7074ZM253.121 30V19.8182H254.921V23.6264H254.996C255.089 23.4408 255.219 23.2436 255.388 23.0348C255.558 22.8227 255.786 22.642 256.075 22.4929C256.363 22.3404 256.731 22.2642 257.178 22.2642C257.768 22.2642 258.3 22.415 258.774 22.7166C259.251 23.0149 259.629 23.4574 259.908 24.044C260.189 24.6274 260.33 25.3433 260.33 26.1918C260.33 27.0303 260.193 27.7429 259.918 28.3295C259.643 28.9162 259.268 29.3636 258.794 29.6719C258.32 29.9801 257.783 30.1342 257.183 30.1342C256.746 30.1342 256.383 30.0613 256.094 29.9155C255.806 29.7696 255.574 29.594 255.398 29.3885C255.226 29.1797 255.092 28.9825 254.996 28.7969H254.891V30H253.121ZM254.886 26.1818C254.886 26.6757 254.956 27.1082 255.095 27.4794C255.238 27.8506 255.442 28.1406 255.707 28.3494C255.975 28.5549 256.3 28.6577 256.681 28.6577C257.079 28.6577 257.412 28.5516 257.68 28.3395C257.949 28.1241 258.151 27.8307 258.287 27.4595C258.426 27.085 258.496 26.6591 258.496 26.1818C258.496 25.7079 258.428 25.2869 258.292 24.919C258.156 24.5511 257.954 24.2628 257.685 24.054C257.417 23.8452 257.082 23.7408 256.681 23.7408C256.297 23.7408 255.97 23.8419 255.702 24.044C255.433 24.2462 255.229 24.5296 255.09 24.8942C254.954 25.2588 254.886 25.688 254.886 26.1818ZM261.86 22.3636H263.66V30.4375C263.66 30.9877 263.556 31.4418 263.347 31.7997C263.138 32.1577 262.836 32.4245 262.442 32.6001C262.048 32.7758 261.569 32.8636 261.005 32.8636C260.939 32.8636 260.878 32.862 260.821 32.8587C260.765 32.8587 260.704 32.857 260.637 32.8537V31.3871C260.687 31.3904 260.732 31.392 260.771 31.392C260.811 31.3954 260.853 31.397 260.896 31.397C261.24 31.397 261.487 31.3125 261.637 31.1435C261.786 30.9777 261.86 30.7341 261.86 30.4126V22.3636ZM262.755 21.2798C262.467 21.2798 262.22 21.1854 262.014 20.9964C261.812 20.8042 261.711 20.5739 261.711 20.3054C261.711 20.0336 261.812 19.8033 262.014 19.6143C262.22 19.4221 262.467 19.326 262.755 19.326C263.04 19.326 263.284 19.4221 263.486 19.6143C263.691 19.8033 263.794 20.0336 263.794 20.3054C263.794 20.5739 263.691 20.8042 263.486 20.9964C263.284 21.1854 263.04 21.2798 262.755 21.2798ZM268.891 30.1491C268.126 30.1491 267.464 29.9901 266.908 29.6719C266.354 29.3504 265.928 28.8963 265.63 28.3097C265.332 27.7197 265.183 27.0253 265.183 26.2266C265.183 25.4411 265.332 24.7517 265.63 24.1584C265.932 23.5618 266.353 23.0978 266.893 22.7663C267.433 22.4316 268.068 22.2642 268.797 22.2642C269.268 22.2642 269.712 22.3404 270.129 22.4929C270.55 22.642 270.921 22.8741 271.243 23.1889C271.568 23.5038 271.823 23.9048 272.009 24.392C272.194 24.8759 272.287 25.4527 272.287 26.1222V26.674H266.028V25.4609H270.562C270.558 25.1162 270.484 24.8097 270.338 24.5412C270.192 24.2694 269.988 24.0556 269.727 23.8999C269.468 23.7441 269.166 23.6662 268.822 23.6662C268.454 23.6662 268.131 23.7557 267.852 23.9347C267.574 24.1103 267.357 24.3423 267.201 24.6307C267.049 24.9157 266.971 25.2289 266.967 25.5703V26.6293C266.967 27.0734 267.049 27.4545 267.211 27.7727C267.373 28.0876 267.6 28.3295 267.892 28.4986C268.184 28.6643 268.525 28.7472 268.916 28.7472C269.178 28.7472 269.415 28.7107 269.627 28.6378C269.839 28.5616 270.023 28.4505 270.179 28.3047C270.335 28.1589 270.452 27.9782 270.532 27.7628L272.212 27.9517C272.106 28.3958 271.904 28.7836 271.606 29.1151C271.311 29.4432 270.933 29.6984 270.472 29.8807C270.012 30.0597 269.485 30.1491 268.891 30.1491ZM277.14 30.1491C276.378 30.1491 275.724 29.9818 275.177 29.647C274.633 29.3123 274.214 28.8499 273.919 28.2599C273.627 27.6667 273.481 26.9839 273.481 26.2116C273.481 25.4361 273.631 24.7517 273.929 24.1584C274.227 23.5618 274.648 23.0978 275.192 22.7663C275.738 22.4316 276.385 22.2642 277.131 22.2642C277.75 22.2642 278.299 22.3786 278.776 22.6072C279.257 22.8326 279.64 23.1525 279.925 23.5668C280.21 23.9777 280.372 24.4583 280.412 25.0085H278.692C278.622 24.6406 278.456 24.334 278.194 24.0888C277.936 23.8402 277.59 23.7159 277.155 23.7159C276.787 23.7159 276.464 23.8153 276.186 24.0142C275.907 24.2098 275.69 24.4915 275.535 24.8594C275.382 25.2273 275.306 25.6681 275.306 26.1818C275.306 26.7022 275.382 27.1496 275.535 27.5241C275.687 27.8954 275.901 28.1821 276.176 28.3842C276.454 28.5831 276.781 28.6825 277.155 28.6825C277.421 28.6825 277.657 28.6328 277.866 28.5334C278.078 28.4306 278.256 28.2831 278.398 28.0909C278.541 27.8987 278.639 27.665 278.692 27.3899H280.412C280.369 27.9302 280.21 28.4091 279.934 28.8267C279.659 29.241 279.285 29.5658 278.811 29.8011C278.337 30.0331 277.78 30.1491 277.14 30.1491ZM285.703 22.3636V23.7557H281.313V22.3636H285.703ZM282.397 20.5341H284.196V27.7031C284.196 27.9451 284.233 28.1307 284.306 28.2599C284.382 28.3859 284.481 28.4721 284.604 28.5185C284.727 28.5649 284.863 28.5881 285.012 28.5881C285.124 28.5881 285.227 28.5798 285.32 28.5632C285.416 28.5466 285.489 28.5317 285.539 28.5185L285.842 29.9254C285.746 29.9586 285.608 29.995 285.429 30.0348C285.254 30.0746 285.038 30.0978 284.783 30.1044C284.332 30.1177 283.926 30.0497 283.565 29.9006C283.204 29.7481 282.917 29.5128 282.705 29.1946C282.496 28.8764 282.393 28.4787 282.397 28.0014V20.5341ZM293.134 24.3821L291.493 24.5611C291.447 24.3954 291.366 24.2396 291.25 24.0938C291.137 23.9479 290.985 23.8303 290.792 23.7408C290.6 23.6513 290.365 23.6065 290.086 23.6065C289.712 23.6065 289.397 23.6877 289.142 23.8501C288.89 24.0125 288.766 24.223 288.769 24.4815C288.766 24.7036 288.847 24.8842 289.013 25.0234C289.182 25.1626 289.46 25.277 289.848 25.3665L291.15 25.6449C291.873 25.8007 292.41 26.0476 292.761 26.3857C293.116 26.7237 293.295 27.1662 293.298 27.7131C293.295 28.1937 293.154 28.6179 292.876 28.9858C292.6 29.3504 292.218 29.6354 291.727 29.8409C291.237 30.0464 290.673 30.1491 290.037 30.1491C289.102 30.1491 288.35 29.9536 287.78 29.5625C287.21 29.1681 286.87 28.6196 286.76 27.9169L288.515 27.7479C288.595 28.0926 288.764 28.3527 289.023 28.5284C289.281 28.7041 289.617 28.7919 290.032 28.7919C290.459 28.7919 290.802 28.7041 291.061 28.5284C291.323 28.3527 291.454 28.1357 291.454 27.8771C291.454 27.6584 291.369 27.4777 291.2 27.3352C291.034 27.1927 290.776 27.0833 290.425 27.0071L289.122 26.7337C288.39 26.5812 287.848 26.3243 287.496 25.9631C287.145 25.5985 286.971 25.1378 286.974 24.581C286.971 24.1103 287.099 23.7027 287.357 23.358C287.619 23.0099 287.982 22.7415 288.446 22.5526C288.913 22.3603 289.452 22.2642 290.062 22.2642C290.956 22.2642 291.661 22.4548 292.175 22.8359C292.692 23.2171 293.011 23.7325 293.134 24.3821Z" fill="#F8F8FA"/>
<rect width="136" height="40" transform="translate(181 100)" fill="#FFAA00"/>
<path d="M200.042 126L197.034 114.32H198.506L200.506 122.272C200.645 122.827 200.757 123.339 200.842 123.808C200.938 124.277 201.008 124.635 201.05 124.88C201.093 124.635 201.162 124.277 201.258 123.808C201.365 123.328 201.488 122.811 201.626 122.256L203.546 114.32H205.034L202.01 126H200.042ZM209.86 126.16C208.932 126.16 208.201 125.925 207.668 125.456C207.135 124.976 206.868 124.331 206.868 123.52C206.868 122.699 207.135 122.053 207.668 121.584C208.201 121.115 208.921 120.88 209.828 120.88H212.548V120C212.548 119.467 212.383 119.051 212.052 118.752C211.732 118.453 211.284 118.304 210.708 118.304C210.196 118.304 209.764 118.416 209.412 118.64C209.06 118.864 208.841 119.157 208.756 119.52H207.316C207.369 119.029 207.545 118.597 207.844 118.224C208.153 117.851 208.553 117.563 209.044 117.36C209.545 117.147 210.1 117.04 210.708 117.04C211.721 117.04 212.521 117.301 213.108 117.824C213.695 118.347 213.988 119.056 213.988 119.952V126H212.58V124.32H212.564C212.5 124.885 212.223 125.333 211.732 125.664C211.252 125.995 210.628 126.16 209.86 126.16ZM210.212 125.024C210.895 125.024 211.455 124.853 211.892 124.512C212.329 124.171 212.548 123.733 212.548 123.2V121.952H209.86C209.38 121.952 209.001 122.085 208.724 122.352C208.447 122.619 208.308 122.981 208.308 123.44C208.308 123.931 208.473 124.32 208.804 124.608C209.145 124.885 209.615 125.024 210.212 125.024ZM221.502 126C220.723 126 220.099 125.776 219.63 125.328C219.171 124.869 218.942 124.267 218.942 123.52V115.632H215.902V114.32H220.382V123.52C220.382 123.883 220.483 124.171 220.686 124.384C220.889 124.587 221.161 124.688 221.502 124.688H224.222V126H221.502ZM229.8 126.16C228.786 126.16 227.976 125.861 227.368 125.264C226.76 124.656 226.456 123.835 226.456 122.8V117.2H227.896V122.8C227.896 123.461 228.066 123.979 228.408 124.352C228.749 124.715 229.213 124.896 229.8 124.896C230.397 124.896 230.866 124.715 231.208 124.352C231.56 123.979 231.736 123.461 231.736 122.8V117.2H233.176V122.8C233.176 123.835 232.866 124.656 232.248 125.264C231.629 125.861 230.813 126.16 229.8 126.16ZM239.409 126.16C238.716 126.16 238.108 126.021 237.585 125.744C237.073 125.467 236.673 125.077 236.385 124.576C236.108 124.064 235.969 123.472 235.969 122.8V120.4C235.969 119.717 236.108 119.125 236.385 118.624C236.673 118.123 237.073 117.733 237.585 117.456C238.108 117.179 238.716 117.04 239.409 117.04C240.103 117.04 240.705 117.179 241.217 117.456C241.74 117.733 242.14 118.123 242.417 118.624C242.705 119.125 242.849 119.717 242.849 120.4V121.952H237.377V122.8C237.377 123.493 237.553 124.027 237.905 124.4C238.257 124.763 238.759 124.944 239.409 124.944C239.964 124.944 240.412 124.848 240.753 124.656C241.095 124.453 241.303 124.155 241.377 123.76H242.817C242.721 124.496 242.359 125.083 241.729 125.52C241.111 125.947 240.337 126.16 239.409 126.16ZM237.377 120.864H241.441V120.4C241.441 119.707 241.265 119.173 240.913 118.8C240.572 118.427 240.071 118.24 239.409 118.24C238.759 118.24 238.257 118.427 237.905 118.8C237.553 119.173 237.377 119.707 237.377 120.4V120.864ZM251.963 127.92C250.448 127.547 249.27 126.811 248.427 125.712C247.584 124.613 247.163 123.269 247.163 121.68V118.8C247.163 117.755 247.355 116.811 247.739 115.968C248.134 115.115 248.688 114.395 249.403 113.808C250.128 113.221 250.982 112.805 251.963 112.56V113.92C251.28 114.08 250.688 114.389 250.187 114.848C249.686 115.296 249.296 115.856 249.019 116.528C248.742 117.2 248.603 117.957 248.603 118.8V121.68C248.603 122.501 248.736 123.248 249.003 123.92C249.28 124.592 249.67 125.152 250.171 125.6C250.683 126.037 251.28 126.336 251.963 126.496V127.92ZM259.557 126C258.832 126 258.25 125.792 257.813 125.376C257.376 124.949 257.157 124.384 257.157 123.68V118.512H254.677V117.2H257.157V114.72H258.597V117.2H262.117V118.512H258.597V123.68C258.597 123.979 258.682 124.224 258.853 124.416C259.034 124.597 259.269 124.688 259.557 124.688H261.957V126H259.557ZM265.135 126V117.2H266.575V118.88H266.591C266.665 118.293 266.905 117.84 267.311 117.52C267.716 117.2 268.255 117.04 268.927 117.04C269.844 117.04 270.575 117.333 271.119 117.92C271.663 118.496 271.935 119.28 271.935 120.272V120.88H270.495V120.4C270.495 119.728 270.324 119.211 269.983 118.848C269.641 118.475 269.145 118.288 268.495 118.288C267.215 118.288 266.575 118.992 266.575 120.4V126H265.135ZM277.768 126.16C276.755 126.16 275.944 125.861 275.336 125.264C274.728 124.656 274.424 123.835 274.424 122.8V117.2H275.864V122.8C275.864 123.461 276.035 123.979 276.376 124.352C276.718 124.715 277.182 124.896 277.768 124.896C278.366 124.896 278.835 124.715 279.176 124.352C279.528 123.979 279.704 123.461 279.704 122.8V117.2H281.144V122.8C281.144 123.835 280.835 124.656 280.216 125.264C279.598 125.861 278.782 126.16 277.768 126.16ZM287.378 126.16C286.685 126.16 286.077 126.021 285.554 125.744C285.042 125.467 284.642 125.077 284.354 124.576C284.077 124.064 283.938 123.472 283.938 122.8V120.4C283.938 119.717 284.077 119.125 284.354 118.624C284.642 118.123 285.042 117.733 285.554 117.456C286.077 117.179 286.685 117.04 287.378 117.04C288.071 117.04 288.674 117.179 289.186 117.456C289.709 117.733 290.109 118.123 290.386 118.624C290.674 119.125 290.818 119.717 290.818 120.4V121.952H285.346V122.8C285.346 123.493 285.522 124.027 285.874 124.4C286.226 124.763 286.727 124.944 287.378 124.944C287.933 124.944 288.381 124.848 288.722 124.656C289.063 124.453 289.271 124.155 289.346 123.76H290.786C290.69 124.496 290.327 125.083 289.698 125.52C289.079 125.947 288.306 126.16 287.378 126.16ZM285.346 120.864H289.41V120.4C289.41 119.707 289.234 119.173 288.882 118.8C288.541 118.427 288.039 118.24 287.378 118.24C286.727 118.24 286.226 118.427 285.874 118.8C285.522 119.173 285.346 119.707 285.346 120.4V120.864ZM294.012 127.92V126.496C294.705 126.336 295.303 126.037 295.804 125.6C296.305 125.152 296.689 124.592 296.956 123.92C297.233 123.248 297.372 122.501 297.372 121.68V118.8C297.372 117.957 297.233 117.2 296.956 116.528C296.679 115.856 296.289 115.296 295.788 114.848C295.287 114.389 294.695 114.08 294.012 113.92V112.56C295.004 112.805 295.857 113.221 296.572 113.808C297.287 114.395 297.836 115.115 298.22 115.968C298.615 116.811 298.812 117.755 298.812 118.8V121.68C298.812 123.269 298.391 124.613 297.548 125.712C296.705 126.811 295.527 127.547 294.012 127.92Z" fill="#1D1D1F"/>
<path d="M446.707 70.7071C447.098 70.3166 447.098 69.6834 446.707 69.2929L440.343 62.9289C439.953 62.5384 439.319 62.5384 438.929 62.9289C438.538 63.3195 438.538 63.9526 438.929 64.3431L444.586 70L438.929 75.6569C438.538 76.0474 438.538 76.6805 438.929 77.0711C439.319 77.4616 439.953 77.4616 440.343 77.0711L446.707 70.7071ZM446 69H365V71H446V69ZM348 86V102H350V86H348ZM365 69C355.611 69 348 76.6112 348 86H350C350 77.7157 356.716 71 365 71V69Z" fill="#FFAA00"/>
<path d="M317 120H333C341.837 120 349 112.837 349 104V102" stroke="#FFAA00" stroke-width="2"/>
<path d="M317 170H333C341.837 170 349 162.837 349 154V103.5" stroke="#FFAA00" stroke-width="2"/>
<path d="M317 220H333C341.837 220 349 212.837 349 204V153.5" stroke="#FFAA00" stroke-width="2"/>
<rect width="136" height="40" transform="translate(181 150)" fill="#FFAA00"/>
<path d="M195.246 176L192.238 164.32H193.71L195.71 172.272C195.848 172.827 195.96 173.339 196.046 173.808C196.142 174.277 196.211 174.635 196.254 174.88C196.296 174.635 196.366 174.277 196.462 173.808C196.568 173.328 196.691 172.811 196.83 172.256L198.75 164.32H200.238L197.214 176H195.246ZM205.063 176.16C204.135 176.16 203.405 175.925 202.871 175.456C202.338 174.976 202.071 174.331 202.071 173.52C202.071 172.699 202.338 172.053 202.871 171.584C203.405 171.115 204.125 170.88 205.031 170.88H207.751V170C207.751 169.467 207.586 169.051 207.255 168.752C206.935 168.453 206.487 168.304 205.911 168.304C205.399 168.304 204.967 168.416 204.615 168.64C204.263 168.864 204.045 169.157 203.959 169.52H202.519C202.573 169.029 202.749 168.597 203.047 168.224C203.357 167.851 203.757 167.563 204.247 167.36C204.749 167.147 205.303 167.04 205.911 167.04C206.925 167.04 207.725 167.301 208.311 167.824C208.898 168.347 209.191 169.056 209.191 169.952V176H207.783V174.32H207.767C207.703 174.885 207.426 175.333 206.935 175.664C206.455 175.995 205.831 176.16 205.063 176.16ZM205.415 175.024C206.098 175.024 206.658 174.853 207.095 174.512C207.533 174.171 207.751 173.733 207.751 173.2V171.952H205.063C204.583 171.952 204.205 172.085 203.927 172.352C203.65 172.619 203.511 172.981 203.511 173.44C203.511 173.931 203.677 174.32 204.007 174.608C204.349 174.885 204.818 175.024 205.415 175.024ZM216.705 176C215.926 176 215.302 175.776 214.833 175.328C214.374 174.869 214.145 174.267 214.145 173.52V165.632H211.105V164.32H215.585V173.52C215.585 173.883 215.686 174.171 215.889 174.384C216.092 174.587 216.364 174.688 216.705 174.688H219.425V176H216.705ZM225.003 176.16C223.989 176.16 223.179 175.861 222.571 175.264C221.963 174.656 221.659 173.835 221.659 172.8V167.2H223.099V172.8C223.099 173.461 223.269 173.979 223.611 174.352C223.952 174.715 224.416 174.896 225.003 174.896C225.6 174.896 226.069 174.715 226.411 174.352C226.763 173.979 226.939 173.461 226.939 172.8V167.2H228.379V172.8C228.379 173.835 228.069 174.656 227.451 175.264C226.832 175.861 226.016 176.16 225.003 176.16ZM234.613 176.16C233.919 176.16 233.311 176.021 232.789 175.744C232.277 175.467 231.877 175.077 231.589 174.576C231.311 174.064 231.173 173.472 231.173 172.8V170.4C231.173 169.717 231.311 169.125 231.589 168.624C231.877 168.123 232.277 167.733 232.789 167.456C233.311 167.179 233.919 167.04 234.613 167.04C235.306 167.04 235.909 167.179 236.421 167.456C236.943 167.733 237.343 168.123 237.621 168.624C237.909 169.125 238.053 169.717 238.053 170.4V171.952H232.581V172.8C232.581 173.493 232.757 174.027 233.109 174.4C233.461 174.763 233.962 174.944 234.613 174.944C235.167 174.944 235.615 174.848 235.957 174.656C236.298 174.453 236.506 174.155 236.581 173.76H238.021C237.925 174.496 237.562 175.083 236.933 175.52C236.314 175.947 235.541 176.16 234.613 176.16ZM232.581 170.864H236.645V170.4C236.645 169.707 236.469 169.173 236.117 168.8C235.775 168.427 235.274 168.24 234.613 168.24C233.962 168.24 233.461 168.427 233.109 168.8C232.757 169.173 232.581 169.707 232.581 170.4V170.864ZM247.166 177.92C245.652 177.547 244.473 176.811 243.63 175.712C242.788 174.613 242.366 173.269 242.366 171.68V168.8C242.366 167.755 242.558 166.811 242.942 165.968C243.337 165.115 243.892 164.395 244.606 163.808C245.332 163.221 246.185 162.805 247.166 162.56V163.92C246.484 164.08 245.892 164.389 245.39 164.848C244.889 165.296 244.5 165.856 244.222 166.528C243.945 167.2 243.806 167.957 243.806 168.8V171.68C243.806 172.501 243.94 173.248 244.206 173.92C244.484 174.592 244.873 175.152 245.374 175.6C245.886 176.037 246.484 176.336 247.166 176.496V177.92ZM252.52 176V169.392H249.96V168.08H252.52V166.56C252.52 165.867 252.739 165.323 253.176 164.928C253.613 164.523 254.216 164.32 254.984 164.32H257.56V165.632H254.984C254.301 165.632 253.96 165.941 253.96 166.56V168.08H257.56V169.392H253.96V176H252.52ZM262.626 176.16C261.698 176.16 260.967 175.925 260.434 175.456C259.9 174.976 259.634 174.331 259.634 173.52C259.634 172.699 259.9 172.053 260.434 171.584C260.967 171.115 261.687 170.88 262.594 170.88H265.314V170C265.314 169.467 265.148 169.051 264.818 168.752C264.498 168.453 264.05 168.304 263.474 168.304C262.962 168.304 262.53 168.416 262.178 168.64C261.826 168.864 261.607 169.157 261.522 169.52H260.082C260.135 169.029 260.311 168.597 260.61 168.224C260.919 167.851 261.319 167.563 261.81 167.36C262.311 167.147 262.866 167.04 263.474 167.04C264.487 167.04 265.287 167.301 265.874 167.824C266.46 168.347 266.754 169.056 266.754 169.952V176H265.346V174.32H265.33C265.266 174.885 264.988 175.333 264.498 175.664C264.018 175.995 263.394 176.16 262.626 176.16ZM262.978 175.024C263.66 175.024 264.22 174.853 264.658 174.512C265.095 174.171 265.314 173.733 265.314 173.2V171.952H262.626C262.146 171.952 261.767 172.085 261.49 172.352C261.212 172.619 261.074 172.981 261.074 173.44C261.074 173.931 261.239 174.32 261.57 174.608C261.911 174.885 262.38 175.024 262.978 175.024ZM274.268 176C273.489 176 272.865 175.776 272.396 175.328C271.937 174.869 271.708 174.267 271.708 173.52V165.632H268.668V164.32H273.148V173.52C273.148 173.883 273.249 174.171 273.452 174.384C273.654 174.587 273.926 174.688 274.268 174.688H276.988V176H274.268ZM282.309 176.128C281.403 176.128 280.661 175.92 280.085 175.504C279.509 175.088 279.221 174.517 279.221 173.792H280.693C280.693 174.123 280.848 174.384 281.157 174.576C281.477 174.757 281.872 174.848 282.341 174.848H283.013C283.579 174.848 284 174.736 284.277 174.512C284.555 174.277 284.693 173.968 284.693 173.584C284.693 173.211 284.56 172.917 284.293 172.704C284.037 172.48 283.664 172.331 283.173 172.256L281.989 172.064C281.115 171.915 280.469 171.637 280.053 171.232C279.637 170.827 279.429 170.267 279.429 169.552C279.429 168.752 279.685 168.139 280.197 167.712C280.72 167.285 281.467 167.072 282.437 167.072H283.045C283.941 167.072 284.656 167.275 285.189 167.68C285.733 168.075 286.005 168.603 286.005 169.264H284.533C284.533 168.987 284.395 168.768 284.117 168.608C283.851 168.437 283.483 168.352 283.013 168.352H282.405C281.904 168.352 281.515 168.459 281.237 168.672C280.971 168.875 280.837 169.168 280.837 169.552C280.837 170.192 281.291 170.587 282.197 170.736L283.381 170.928C284.331 171.077 285.019 171.355 285.445 171.76C285.883 172.165 286.101 172.752 286.101 173.52C286.101 174.331 285.84 174.971 285.317 175.44C284.805 175.899 284.027 176.128 282.981 176.128H282.309ZM292.175 176.16C291.482 176.16 290.874 176.021 290.351 175.744C289.839 175.467 289.439 175.077 289.151 174.576C288.874 174.064 288.735 173.472 288.735 172.8V170.4C288.735 169.717 288.874 169.125 289.151 168.624C289.439 168.123 289.839 167.733 290.351 167.456C290.874 167.179 291.482 167.04 292.175 167.04C292.868 167.04 293.471 167.179 293.983 167.456C294.506 167.733 294.906 168.123 295.183 168.624C295.471 169.125 295.615 169.717 295.615 170.4V171.952H290.143V172.8C290.143 173.493 290.319 174.027 290.671 174.4C291.023 174.763 291.524 174.944 292.175 174.944C292.73 174.944 293.178 174.848 293.519 174.656C293.86 174.453 294.068 174.155 294.143 173.76H295.583C295.487 174.496 295.124 175.083 294.495 175.52C293.876 175.947 293.103 176.16 292.175 176.16ZM290.143 170.864H294.207V170.4C294.207 169.707 294.031 169.173 293.679 168.8C293.338 168.427 292.836 168.24 292.175 168.24C291.524 168.24 291.023 168.427 290.671 168.8C290.319 169.173 290.143 169.707 290.143 170.4V170.864ZM298.809 177.92V176.496C299.502 176.336 300.099 176.037 300.601 175.6C301.102 175.152 301.486 174.592 301.753 173.92C302.03 173.248 302.169 172.501 302.169 171.68V168.8C302.169 167.957 302.03 167.2 301.753 166.528C301.475 165.856 301.086 165.296 300.585 164.848C300.083 164.389 299.491 164.08 298.809 163.92V162.56C299.801 162.805 300.654 163.221 301.369 163.808C302.083 164.395 302.633 165.115 303.017 165.968C303.411 166.811 303.609 167.755 303.609 168.8V171.68C303.609 173.269 303.187 174.613 302.345 175.712C301.502 176.811 300.323 177.547 298.809 177.92Z" fill="#1D1D1F"/>
<rect width="136" height="40" transform="translate(181 200)" fill="#FFAA00"/>
<path d="M200.042 226L197.034 214.32H198.506L200.506 222.272C200.645 222.827 200.757 223.339 200.842 223.808C200.938 224.277 201.008 224.635 201.05 224.88C201.093 224.635 201.162 224.277 201.258 223.808C201.365 223.328 201.488 222.811 201.626 222.256L203.546 214.32H205.034L202.01 226H200.042ZM209.86 226.16C208.932 226.16 208.201 225.925 207.668 225.456C207.135 224.976 206.868 224.331 206.868 223.52C206.868 222.699 207.135 222.053 207.668 221.584C208.201 221.115 208.921 220.88 209.828 220.88H212.548V220C212.548 219.467 212.383 219.051 212.052 218.752C211.732 218.453 211.284 218.304 210.708 218.304C210.196 218.304 209.764 218.416 209.412 218.64C209.06 218.864 208.841 219.157 208.756 219.52H207.316C207.369 219.029 207.545 218.597 207.844 218.224C208.153 217.851 208.553 217.563 209.044 217.36C209.545 217.147 210.1 217.04 210.708 217.04C211.721 217.04 212.521 217.301 213.108 217.824C213.695 218.347 213.988 219.056 213.988 219.952V226H212.58V224.32H212.564C212.5 224.885 212.223 225.333 211.732 225.664C211.252 225.995 210.628 226.16 209.86 226.16ZM210.212 225.024C210.895 225.024 211.455 224.853 211.892 224.512C212.329 224.171 212.548 223.733 212.548 223.2V221.952H209.86C209.38 221.952 209.001 222.085 208.724 222.352C208.447 222.619 208.308 222.981 208.308 223.44C208.308 223.931 208.473 224.32 208.804 224.608C209.145 224.885 209.615 225.024 210.212 225.024ZM221.502 226C220.723 226 220.099 225.776 219.63 225.328C219.171 224.869 218.942 224.267 218.942 223.52V215.632H215.902V214.32H220.382V223.52C220.382 223.883 220.483 224.171 220.686 224.384C220.889 224.587 221.161 224.688 221.502 224.688H224.222V226H221.502ZM229.8 226.16C228.786 226.16 227.976 225.861 227.368 225.264C226.76 224.656 226.456 223.835 226.456 222.8V217.2H227.896V222.8C227.896 223.461 228.066 223.979 228.408 224.352C228.749 224.715 229.213 224.896 229.8 224.896C230.397 224.896 230.866 224.715 231.208 224.352C231.56 223.979 231.736 223.461 231.736 222.8V217.2H233.176V222.8C233.176 223.835 232.866 224.656 232.248 225.264C231.629 225.861 230.813 226.16 229.8 226.16ZM239.409 226.16C238.716 226.16 238.108 226.021 237.585 225.744C237.073 225.467 236.673 225.077 236.385 224.576C236.108 224.064 235.969 223.472 235.969 222.8V220.4C235.969 219.717 236.108 219.125 236.385 218.624C236.673 218.123 237.073 217.733 237.585 217.456C238.108 217.179 238.716 217.04 239.409 217.04C240.103 217.04 240.705 217.179 241.217 217.456C241.74 217.733 242.14 218.123 242.417 218.624C242.705 219.125 242.849 219.717 242.849 220.4V221.952H237.377V222.8C237.377 223.493 237.553 224.027 237.905 224.4C238.257 224.763 238.759 224.944 239.409 224.944C239.964 224.944 240.412 224.848 240.753 224.656C241.095 224.453 241.303 224.155 241.377 223.76H242.817C242.721 224.496 242.359 225.083 241.729 225.52C241.111 225.947 240.337 226.16 239.409 226.16ZM237.377 220.864H241.441V220.4C241.441 219.707 241.265 219.173 240.913 218.8C240.572 218.427 240.071 218.24 239.409 218.24C238.759 218.24 238.257 218.427 237.905 218.8C237.553 219.173 237.377 219.707 237.377 220.4V220.864ZM251.963 227.92C250.448 227.547 249.27 226.811 248.427 225.712C247.584 224.613 247.163 223.269 247.163 221.68V218.8C247.163 217.755 247.355 216.811 247.739 215.968C248.134 215.115 248.688 214.395 249.403 213.808C250.128 213.221 250.982 212.805 251.963 212.56V213.92C251.28 214.08 250.688 214.389 250.187 214.848C249.686 215.296 249.296 215.856 249.019 216.528C248.742 217.2 248.603 217.957 248.603 218.8V221.68C248.603 222.501 248.736 223.248 249.003 223.92C249.28 224.592 249.67 225.152 250.171 225.6C250.683 226.037 251.28 226.336 251.963 226.496V227.92ZM259.557 226C258.832 226 258.25 225.792 257.813 225.376C257.376 224.949 257.157 224.384 257.157 223.68V218.512H254.677V217.2H257.157V214.72H258.597V217.2H262.117V218.512H258.597V223.68C258.597 223.979 258.682 224.224 258.853 224.416C259.034 224.597 259.269 224.688 259.557 224.688H261.957V226H259.557ZM265.135 226V217.2H266.575V218.88H266.591C266.665 218.293 266.905 217.84 267.311 217.52C267.716 217.2 268.255 217.04 268.927 217.04C269.844 217.04 270.575 217.333 271.119 217.92C271.663 218.496 271.935 219.28 271.935 220.272V220.88H270.495V220.4C270.495 219.728 270.324 219.211 269.983 218.848C269.641 218.475 269.145 218.288 268.495 218.288C267.215 218.288 266.575 218.992 266.575 220.4V226H265.135ZM277.768 226.16C276.755 226.16 275.944 225.861 275.336 225.264C274.728 224.656 274.424 223.835 274.424 222.8V217.2H275.864V222.8C275.864 223.461 276.035 223.979 276.376 224.352C276.718 224.715 277.182 224.896 277.768 224.896C278.366 224.896 278.835 224.715 279.176 224.352C279.528 223.979 279.704 223.461 279.704 222.8V217.2H281.144V222.8C281.144 223.835 280.835 224.656 280.216 225.264C279.598 225.861 278.782 226.16 277.768 226.16ZM287.378 226.16C286.685 226.16 286.077 226.021 285.554 225.744C285.042 225.467 284.642 225.077 284.354 224.576C284.077 224.064 283.938 223.472 283.938 222.8V220.4C283.938 219.717 284.077 219.125 284.354 218.624C284.642 218.123 285.042 217.733 285.554 217.456C286.077 217.179 286.685 217.04 287.378 217.04C288.071 217.04 288.674 217.179 289.186 217.456C289.709 217.733 290.109 218.123 290.386 218.624C290.674 219.125 290.818 219.717 290.818 220.4V221.952H285.346V222.8C285.346 223.493 285.522 224.027 285.874 224.4C286.226 224.763 286.727 224.944 287.378 224.944C287.933 224.944 288.381 224.848 288.722 224.656C289.063 224.453 289.271 224.155 289.346 223.76H290.786C290.69 224.496 290.327 225.083 289.698 225.52C289.079 225.947 288.306 226.16 287.378 226.16ZM285.346 220.864H289.41V220.4C289.41 219.707 289.234 219.173 288.882 218.8C288.541 218.427 288.039 218.24 287.378 218.24C286.727 218.24 286.226 218.427 285.874 218.8C285.522 219.173 285.346 219.707 285.346 220.4V220.864ZM294.012 227.92V226.496C294.705 226.336 295.303 226.037 295.804 225.6C296.305 225.152 296.689 224.592 296.956 223.92C297.233 223.248 297.372 222.501 297.372 221.68V218.8C297.372 217.957 297.233 217.2 296.956 216.528C296.679 215.856 296.289 215.296 295.788 214.848C295.287 214.389 294.695 214.08 294.012 213.92V212.56C295.004 212.805 295.857 213.221 296.572 213.808C297.287 214.395 297.836 215.115 298.22 215.968C298.615 216.811 298.812 217.755 298.812 218.8V221.68C298.812 223.269 298.391 224.613 297.548 225.712C296.705 226.811 295.527 227.547 294.012 227.92Z" fill="#1D1D1F"/>
<path d="M475 97V120H498" stroke="#888888" stroke-width="2" stroke-linecap="square"/>
<path d="M475 117V170H498" stroke="#888888" stroke-width="2" stroke-linecap="square"/>
<path d="M475 167V220H498" stroke="#888888" stroke-width="2" stroke-linecap="square"/>
</svg>
