<svg width="1920" height="384" viewBox="0 0 1920 384" fill="none" xmlns="http://www.w3.org/2000/svg">
<path fill-rule="evenodd" clip-rule="evenodd" d="M0 320V384H128L256 320V384H384L256 320L128 256V384L0 320ZM1920 256L1792 192L1664 128L1792 64L1664 0V128L1536 64V192L1408 128V256L1280 192L1152 128V256L1280 192V320V384H1408L1536 320L1664 256V384L1792 320V384H1920L1792 320L1920 256ZM1792 320V192L1664 256V128L1536 192L1408 256L1280 320L1408 384V256L1536 320V192L1664 256L1792 320ZM896 384L1024 320L896 256L768 192L640 128V256L512 192L384 128V256L512 192V320V384H640L512 320L640 256L768 192V320V384H896ZM768 320L896 384V256L768 320Z" fill="url(#paint0_linear_2054_812)"/>
<defs>
<linearGradient id="paint0_linear_2054_812" x1="480" y1="-24" x2="526.492" y2="469.977" gradientUnits="userSpaceOnUse">
<stop stop-color="#FF00AA"/>
<stop offset="1" stop-color="#FFAA00"/>
</linearGradient>
</defs>
</svg>
