<svg width="1440" height="480" viewBox="0 0 1440 480" fill="none" xmlns="http://www.w3.org/2000/svg">
<g clip-path="url(#clip0_2402_928)">
<rect width="1440" height="480" fill="#E4E4E7"/>
<path d="M745 -225L745 -219C745 -214.029 740.971 -210 736 -210L735 -210L735 -209C735 -206.791 733.209 -205 731 -205L729 -205C726.791 -205 725 -206.791 725 -209L725 -210L715 -210L715 40L725 40L725 39C725 36.7909 726.791 35 729 35L731 35C733.209 35 735 36.7909 735 39L735 40L736 40C740.971 40 745 44.0294 745 49L745 55L615 55L615 49C615 44.0294 619.029 40 624 40L625 40L625 39C625 36.7909 626.791 35 629 35L631 35C633.209 35 635 36.7909 635 39L635 40L645 40L645 -210L635 -210L635 -209C635 -206.791 633.209 -205 631 -205L629 -205C626.791 -205 625 -206.791 625 -209L625 -210L624 -210C619.029 -210 615 -214.029 615 -219L615 -225L745 -225Z" fill="#E4E4E7"/>
<path d="M715 -210L725 -210L725 -209C725 -206.791 726.791 -205 729 -205L731 -205C733.209 -205 735 -206.791 735 -209L735 -210L736 -210C740.971 -210 745 -214.029 745 -219L745 -225L615 -225L615 -219C615 -214.029 619.029 -210 624 -210L625 -210L625 -209C625 -206.791 626.791 -205 629 -205L631 -205C633.209 -205 635 -206.791 635 -209L635 -210L645 -210M715 -210L715 40M715 -210L645 -210M715 40L725 40L725 39C725 36.7909 726.791 35 729 35L731 35C733.209 35 735 36.7909 735 39L735 40L736 40C740.971 40 745 44.0294 745 49L745 55L615 55L615 49C615 44.0294 619.029 40 624 40L625 40L625 39C625 36.7909 626.791 35 629 35L631 35C633.209 35 635 36.7909 635 39L635 40L645 40M715 40L645 40M645 40L645 -210" stroke="#ADADAF" stroke-width="4"/>
<path d="M745 55L745 61C745 65.9706 740.971 70 736 70L735 70L735 71C735 73.2091 733.209 75 731 75L729 75C726.791 75 725 73.2091 725 71L725 70L715 70L715 320L725 320L725 319C725 316.791 726.791 315 729 315L731 315C733.209 315 735 316.791 735 319L735 320L736 320C740.971 320 745 324.029 745 329L745 335L615 335L615 329C615 324.029 619.029 320 624 320L625 320L625 319C625 316.791 626.791 315 629 315L631 315C633.209 315 635 316.791 635 319L635 320L645 320L645 70L635 70L635 71C635 73.2091 633.209 75 631 75L629 75C626.791 75 625 73.2091 625 71L625 70L624 70C619.029 70 615 65.9706 615 61L615 55L745 55Z" fill="#E4E4E7"/>
<path d="M715 70L725 70L725 71C725 73.2091 726.791 75 729 75L731 75C733.209 75 735 73.2091 735 71L735 70L736 70C740.971 70 745 65.9706 745 61L745 55L615 55L615 61C615 65.9706 619.029 70 624 70L625 70L625 71C625 73.2091 626.791 75 629 75L631 75C633.209 75 635 73.2091 635 71L635 70L645 70M715 70L715 320M715 70L645 70M715 320L725 320L725 319C725 316.791 726.791 315 729 315L731 315C733.209 315 735 316.791 735 319L735 320L736 320C740.971 320 745 324.029 745 329L745 335L615 335L615 329C615 324.029 619.029 320 624 320L625 320L625 319C625 316.791 626.791 315 629 315L631 315C633.209 315 635 316.791 635 319L635 320L645 320M715 320L645 320M645 320L645 70" stroke="#ADADAF" stroke-width="4"/>
<path d="M745 335L745 341C745 345.971 740.971 350 736 350L735 350L735 351C735 353.209 733.209 355 731 355L729 355C726.791 355 725 353.209 725 351L725 350L715 350L715 600L725 600L725 599C725 596.791 726.791 595 729 595L731 595C733.209 595 735 596.791 735 599L735 600L736 600C740.971 600 745 604.029 745 609L745 615L615 615L615 609C615 604.029 619.029 600 624 600L625 600L625 599C625 596.791 626.791 595 629 595L631 595C633.209 595 635 596.791 635 599L635 600L645 600L645 350L635 350L635 351C635 353.209 633.209 355 631 355L629 355C626.791 355 625 353.209 625 351L625 350L624 350C619.029 350 615 345.971 615 341L615 335L745 335Z" fill="#E4E4E7"/>
<path d="M715 350L725 350L725 351C725 353.209 726.791 355 729 355L731 355C733.209 355 735 353.209 735 351L735 350L736 350C740.971 350 745 345.971 745 341L745 335L615 335L615 341C615 345.971 619.029 350 624 350L625 350L625 351C625 353.209 626.791 355 629 355L631 355C633.209 355 635 353.209 635 351L635 350L645 350M715 350L715 600M715 350L645 350M715 600L725 600L725 599C725 596.791 726.791 595 729 595L731 595C733.209 595 735 596.791 735 599L735 600L736 600C740.971 600 745 604.029 745 609L745 615L615 615L615 609C615 604.029 619.029 600 624 600L625 600L625 599C625 596.791 626.791 595 629 595L631 595C633.209 595 635 596.791 635 599L635 600L645 600M715 600L645 600M645 600L645 350" stroke="#ADADAF" stroke-width="4"/>
<path d="M145 41.6667L145 46.7738C145 51.7444 140.971 55.7738 136 55.7738L135 55.7738L135 56.4762C135 58.6853 133.209 60.4762 131 60.4762L129 60.4762C126.791 60.4762 125 58.6853 125 56.4762L125 55.7738L115 55.7738L115 290.893L125 290.893L125 290.191C125 287.981 126.791 286.191 129 286.191L131 286.191C133.209 286.191 135 287.981 135 290.191L135 290.893L136 290.893C140.971 290.893 145 294.922 145 299.893L145 305L15 305L15 299.893C15 294.922 19.0294 290.893 24 290.893L25 290.893L25 290.191C25 287.981 26.7909 286.191 29 286.191L31 286.191C33.2091 286.191 35 287.981 35 290.191L35 290.893L45 290.893L45 55.7738L35 55.7738L35 56.4762C35 58.6853 33.2091 60.4762 31 60.4762L29 60.4762C26.7909 60.4762 25 58.6853 25 56.4762L25 55.7738L24 55.7738C19.0294 55.7738 15 51.7444 15 46.7738L15 41.6667L145 41.6667Z" fill="#E4E4E7"/>
<path d="M115 55.7738L125 55.7738L125 56.4762C125 58.6853 126.791 60.4762 129 60.4762L131 60.4762C133.209 60.4762 135 58.6853 135 56.4762L135 55.7738L136 55.7738C140.971 55.7738 145 51.7444 145 46.7738L145 41.6667L15 41.6667L15 46.7738C15 51.7444 19.0294 55.7738 24 55.7738L25 55.7738L25 56.4762C25 58.6853 26.7909 60.4762 29 60.4762L31 60.4762C33.2091 60.4762 35 58.6853 35 56.4762L35 55.7738L45 55.7738M115 55.7738L115 290.893M115 55.7738L45 55.7738M115 290.893L125 290.893L125 290.191C125 287.981 126.791 286.191 129 286.191L131 286.191C133.209 286.191 135 287.981 135 290.191L135 290.893L136 290.893C140.971 290.893 145 294.922 145 299.893L145 305L15 305L15 299.893C15 294.922 19.0294 290.893 24 290.893L25 290.893L25 290.191C25 287.981 26.7909 286.191 29 286.191L31 286.191C33.2091 286.191 35 287.981 35 290.191L35 290.893L45 290.893M115 290.893L45 290.893M45 290.893L45 55.7738" stroke="#6D6D6F" stroke-width="4"/>
<path d="M145 -221.667L145 -216.56C145 -211.589 140.971 -207.56 136 -207.56L135 -207.56L135 -206.857C135 -204.648 133.209 -202.857 131 -202.857L129 -202.857C126.791 -202.857 125 -204.648 125 -206.857L125 -207.56L115 -207.56L115 27.5595L125 27.5595L125 26.8572C125 24.648 126.791 22.8572 129 22.8572L131 22.8572C133.209 22.8572 135 24.648 135 26.8572L135 27.5595L136 27.5595C140.971 27.5595 145 31.589 145 36.5595L145 41.6667L15 41.6667L15 36.5595C15 31.589 19.0294 27.5595 24 27.5595L25 27.5595L25 26.8572C25 24.648 26.7909 22.8572 29 22.8572L31 22.8572C33.2091 22.8572 35 24.648 35 26.8572L35 27.5595L45 27.5595L45 -207.56L35 -207.56L35 -206.857C35 -204.648 33.2091 -202.857 31 -202.857L29 -202.857C26.7909 -202.857 25 -204.648 25 -206.857L25 -207.56L24 -207.56C19.0294 -207.56 15 -211.589 15 -216.56L15 -221.667L145 -221.667Z" fill="#E4E4E7"/>
<path d="M115 -207.56L125 -207.56L125 -206.857C125 -204.648 126.791 -202.857 129 -202.857L131 -202.857C133.209 -202.857 135 -204.648 135 -206.857L135 -207.56L136 -207.56C140.971 -207.56 145 -211.589 145 -216.56L145 -221.667L15 -221.667L15 -216.56C15 -211.589 19.0294 -207.56 24 -207.56L25 -207.56L25 -206.857C25 -204.648 26.7909 -202.857 29 -202.857L31 -202.857C33.2091 -202.857 35 -204.648 35 -206.857L35 -207.56L45 -207.56M115 -207.56L115 27.5595M115 -207.56L45 -207.56M115 27.5595L125 27.5595L125 26.8572C125 24.648 126.791 22.8572 129 22.8572L131 22.8572C133.209 22.8572 135 24.648 135 26.8572L135 27.5595L136 27.5595C140.971 27.5595 145 31.589 145 36.5595L145 41.6667L15 41.6667L15 36.5595C15 31.589 19.0294 27.5595 24 27.5595L25 27.5595L25 26.8572C25 24.648 26.7909 22.8572 29 22.8572L31 22.8572C33.2091 22.8572 35 24.648 35 26.8572L35 27.5595L45 27.5595M115 27.5595L45 27.5595M45 27.5595L45 -207.56" stroke="#6D6D6F" stroke-width="4"/>
<path d="M145 305L145 310.107C145 315.078 140.971 319.107 136 319.107L135 319.107L135 319.81C135 322.019 133.209 323.81 131 323.81L129 323.81C126.791 323.81 125 322.019 125 319.81L125 319.107L115 319.107L115 554.226L125 554.226L125 553.524C125 551.315 126.791 549.524 129 549.524L131 549.524C133.209 549.524 135 551.315 135 553.524L135 554.226L136 554.226C140.971 554.226 145 558.256 145 563.226L145 568.333L15 568.333L15 563.226C15 558.256 19.0294 554.226 24 554.226L25 554.226L25 553.524C25 551.315 26.7909 549.524 29 549.524L31 549.524C33.2091 549.524 35 551.315 35 553.524L35 554.226L45 554.226L45 319.107L35 319.107L35 319.81C35 322.019 33.2091 323.81 31 323.81L29 323.81C26.7909 323.81 25 322.019 25 319.81L25 319.107L24 319.107C19.0294 319.107 15 315.078 15 310.107L15 305L145 305Z" fill="#E4E4E7"/>
<path d="M115 319.107L125 319.107L125 319.81C125 322.019 126.791 323.81 129 323.81L131 323.81C133.209 323.81 135 322.019 135 319.81L135 319.107L136 319.107C140.971 319.107 145 315.078 145 310.107L145 305L15 305L15 310.107C15 315.078 19.0294 319.107 24 319.107L25 319.107L25 319.81C25 322.019 26.7909 323.81 29 323.81L31 323.81C33.2091 323.81 35 322.019 35 319.81L35 319.107L45 319.107M115 319.107L115 554.226M115 319.107L45 319.107M115 554.226L125 554.226L125 553.524C125 551.315 126.791 549.524 129 549.524L131 549.524C133.209 549.524 135 551.315 135 553.524L135 554.226L136 554.226C140.971 554.226 145 558.256 145 563.226L145 568.333L15 568.333L15 563.226C15 558.256 19.0294 554.226 24 554.226L25 554.226L25 553.524C25 551.315 26.7909 549.524 29 549.524L31 549.524C33.2091 549.524 35 551.315 35 553.524L35 554.226L45 554.226M115 554.226L45 554.226M45 554.226L45 319.107" stroke="#6D6D6F" stroke-width="4"/>
<path d="M1425 241.667L1425 246.774C1425 251.744 1420.97 255.774 1416 255.774L1415 255.774L1415 256.476C1415 258.685 1413.21 260.476 1411 260.476L1409 260.476C1406.79 260.476 1405 258.685 1405 256.476L1405 255.774L1395 255.774L1395 490.893L1405 490.893L1405 490.191C1405 487.981 1406.79 486.191 1409 486.191L1411 486.191C1413.21 486.191 1415 487.981 1415 490.191L1415 490.893L1416 490.893C1420.97 490.893 1425 494.922 1425 499.893L1425 505L1295 505L1295 499.893C1295 494.922 1299.03 490.893 1304 490.893L1305 490.893L1305 490.191C1305 487.981 1306.79 486.191 1309 486.191L1311 486.191C1313.21 486.191 1315 487.981 1315 490.191L1315 490.893L1325 490.893L1325 255.774L1315 255.774L1315 256.476C1315 258.685 1313.21 260.476 1311 260.476L1309 260.476C1306.79 260.476 1305 258.685 1305 256.476L1305 255.774L1304 255.774C1299.03 255.774 1295 251.744 1295 246.774L1295 241.667L1425 241.667Z" fill="#E4E4E7"/>
<path d="M1395 255.774L1405 255.774L1405 256.476C1405 258.685 1406.79 260.476 1409 260.476L1411 260.476C1413.21 260.476 1415 258.685 1415 256.476L1415 255.774L1416 255.774C1420.97 255.774 1425 251.744 1425 246.774L1425 241.667L1295 241.667L1295 246.774C1295 251.744 1299.03 255.774 1304 255.774L1305 255.774L1305 256.476C1305 258.685 1306.79 260.476 1309 260.476L1311 260.476C1313.21 260.476 1315 258.685 1315 256.476L1315 255.774L1325 255.774M1395 255.774L1395 490.893M1395 255.774L1325 255.774M1395 490.893L1405 490.893L1405 490.191C1405 487.981 1406.79 486.191 1409 486.191L1411 486.191C1413.21 486.191 1415 487.981 1415 490.191L1415 490.893L1416 490.893C1420.97 490.893 1425 494.922 1425 499.893L1425 505L1295 505L1295 499.893C1295 494.922 1299.03 490.893 1304 490.893L1305 490.893L1305 490.191C1305 487.981 1306.79 486.191 1309 486.191L1311 486.191C1313.21 486.191 1315 487.981 1315 490.191L1315 490.893L1325 490.893M1395 490.893L1325 490.893M1325 490.893L1325 255.774" stroke="#6D6D6F" stroke-width="4"/>
<path d="M1425 -21.6666L1425 -16.5595C1425 -11.5889 1420.97 -7.55948 1416 -7.55948L1415 -7.55948L1415 -6.8571C1415 -4.64796 1413.21 -2.8571 1411 -2.8571L1409 -2.8571C1406.79 -2.8571 1405 -4.64797 1405 -6.8571L1405 -7.55948L1395 -7.55948L1395 227.56L1405 227.56L1405 226.857C1405 224.648 1406.79 222.857 1409 222.857L1411 222.857C1413.21 222.857 1415 224.648 1415 226.857L1415 227.56L1416 227.56C1420.97 227.56 1425 231.589 1425 236.56L1425 241.667L1295 241.667L1295 236.56C1295 231.589 1299.03 227.56 1304 227.56L1305 227.56L1305 226.857C1305 224.648 1306.79 222.857 1309 222.857L1311 222.857C1313.21 222.857 1315 224.648 1315 226.857L1315 227.56L1325 227.56L1325 -7.55949L1315 -7.55949L1315 -6.85711C1315 -4.64797 1313.21 -2.85711 1311 -2.85711L1309 -2.85711C1306.79 -2.85711 1305 -4.64797 1305 -6.85711L1305 -7.55949L1304 -7.55949C1299.03 -7.55949 1295 -11.5889 1295 -16.5595L1295 -21.6666L1425 -21.6666Z" fill="#E4E4E7"/>
<path d="M1395 -7.55948L1405 -7.55948L1405 -6.8571C1405 -4.64796 1406.79 -2.8571 1409 -2.8571L1411 -2.8571C1413.21 -2.8571 1415 -4.64796 1415 -6.8571L1415 -7.55948L1416 -7.55948C1420.97 -7.55948 1425 -11.5889 1425 -16.5595L1425 -21.6666L1295 -21.6666L1295 -16.5595C1295 -11.5889 1299.03 -7.55949 1304 -7.55949L1305 -7.55949L1305 -6.85711C1305 -4.64797 1306.79 -2.85711 1309 -2.85711L1311 -2.85711C1313.21 -2.85711 1315 -4.64797 1315 -6.85711L1315 -7.55949L1325 -7.55949M1395 -7.55948L1395 227.56M1395 -7.55948L1325 -7.55949M1395 227.56L1405 227.56L1405 226.857C1405 224.648 1406.79 222.857 1409 222.857L1411 222.857C1413.21 222.857 1415 224.648 1415 226.857L1415 227.56L1416 227.56C1420.97 227.56 1425 231.589 1425 236.56L1425 241.667L1295 241.667L1295 236.56C1295 231.589 1299.03 227.56 1304 227.56L1305 227.56L1305 226.857C1305 224.648 1306.79 222.857 1309 222.857L1311 222.857C1313.21 222.857 1315 224.648 1315 226.857L1315 227.56L1325 227.56M1395 227.56L1325 227.56M1325 227.56L1325 -7.55949" stroke="#6D6D6F" stroke-width="4"/>
<path d="M1425 241.667L1425 246.774C1425 251.744 1420.97 255.774 1416 255.774L1415 255.774L1415 256.476C1415 258.685 1413.21 260.476 1411 260.476L1409 260.476C1406.79 260.476 1405 258.685 1405 256.476L1405 255.774L1395 255.774L1395 490.893L1405 490.893L1405 490.191C1405 487.981 1406.79 486.191 1409 486.191L1411 486.191C1413.21 486.191 1415 487.981 1415 490.191L1415 490.893L1416 490.893C1420.97 490.893 1425 494.922 1425 499.893L1425 505L1295 505L1295 499.893C1295 494.922 1299.03 490.893 1304 490.893L1305 490.893L1305 490.191C1305 487.981 1306.79 486.191 1309 486.191L1311 486.191C1313.21 486.191 1315 487.981 1315 490.191L1315 490.893L1325 490.893L1325 255.774L1315 255.774L1315 256.476C1315 258.685 1313.21 260.476 1311 260.476L1309 260.476C1306.79 260.476 1305 258.685 1305 256.476L1305 255.774L1304 255.774C1299.03 255.774 1295 251.744 1295 246.774L1295 241.667L1425 241.667Z" fill="#E4E4E7"/>
<path d="M1395 255.774L1405 255.774L1405 256.476C1405 258.685 1406.79 260.476 1409 260.476L1411 260.476C1413.21 260.476 1415 258.685 1415 256.476L1415 255.774L1416 255.774C1420.97 255.774 1425 251.744 1425 246.774L1425 241.667L1295 241.667L1295 246.774C1295 251.744 1299.03 255.774 1304 255.774L1305 255.774L1305 256.476C1305 258.685 1306.79 260.476 1309 260.476L1311 260.476C1313.21 260.476 1315 258.685 1315 256.476L1315 255.774L1325 255.774M1395 255.774L1395 490.893M1395 255.774L1325 255.774M1395 490.893L1405 490.893L1405 490.191C1405 487.981 1406.79 486.191 1409 486.191L1411 486.191C1413.21 486.191 1415 487.981 1415 490.191L1415 490.893L1416 490.893C1420.97 490.893 1425 494.922 1425 499.893L1425 505L1295 505L1295 499.893C1295 494.922 1299.03 490.893 1304 490.893L1305 490.893L1305 490.191C1305 487.981 1306.79 486.191 1309 486.191L1311 486.191C1313.21 486.191 1315 487.981 1315 490.191L1315 490.893L1325 490.893M1395 490.893L1325 490.893M1325 490.893L1325 255.774" stroke="#6D6D6F" stroke-width="4"/>
<path d="M1425 -21.6666L1425 -16.5595C1425 -11.5889 1420.97 -7.55948 1416 -7.55948L1415 -7.55948L1415 -6.8571C1415 -4.64796 1413.21 -2.8571 1411 -2.8571L1409 -2.8571C1406.79 -2.8571 1405 -4.64797 1405 -6.8571L1405 -7.55948L1395 -7.55948L1395 227.56L1405 227.56L1405 226.857C1405 224.648 1406.79 222.857 1409 222.857L1411 222.857C1413.21 222.857 1415 224.648 1415 226.857L1415 227.56L1416 227.56C1420.97 227.56 1425 231.589 1425 236.56L1425 241.667L1295 241.667L1295 236.56C1295 231.589 1299.03 227.56 1304 227.56L1305 227.56L1305 226.857C1305 224.648 1306.79 222.857 1309 222.857L1311 222.857C1313.21 222.857 1315 224.648 1315 226.857L1315 227.56L1325 227.56L1325 -7.55949L1315 -7.55949L1315 -6.85711C1315 -4.64797 1313.21 -2.85711 1311 -2.85711L1309 -2.85711C1306.79 -2.85711 1305 -4.64797 1305 -6.85711L1305 -7.55949L1304 -7.55949C1299.03 -7.55949 1295 -11.5889 1295 -16.5595L1295 -21.6666L1425 -21.6666Z" fill="#E4E4E7"/>
<path d="M1395 -7.55948L1405 -7.55948L1405 -6.8571C1405 -4.64796 1406.79 -2.8571 1409 -2.8571L1411 -2.8571C1413.21 -2.8571 1415 -4.64796 1415 -6.8571L1415 -7.55948L1416 -7.55948C1420.97 -7.55948 1425 -11.5889 1425 -16.5595L1425 -21.6666L1295 -21.6666L1295 -16.5595C1295 -11.5889 1299.03 -7.55949 1304 -7.55949L1305 -7.55949L1305 -6.85711C1305 -4.64797 1306.79 -2.85711 1309 -2.85711L1311 -2.85711C1313.21 -2.85711 1315 -4.64797 1315 -6.85711L1315 -7.55949L1325 -7.55949M1395 -7.55948L1395 227.56M1395 -7.55948L1325 -7.55949M1395 227.56L1405 227.56L1405 226.857C1405 224.648 1406.79 222.857 1409 222.857L1411 222.857C1413.21 222.857 1415 224.648 1415 226.857L1415 227.56L1416 227.56C1420.97 227.56 1425 231.589 1425 236.56L1425 241.667L1295 241.667L1295 236.56C1295 231.589 1299.03 227.56 1304 227.56L1305 227.56L1305 226.857C1305 224.648 1306.79 222.857 1309 222.857L1311 222.857C1313.21 222.857 1315 224.648 1315 226.857L1315 227.56L1325 227.56M1395 227.56L1325 227.56M1325 227.56L1325 -7.55949" stroke="#6D6D6F" stroke-width="4"/>
<path d="M720 125H726C730.971 125 735 129.029 735 134V135H736C738.209 135 740 136.791 740 139V141C740 143.209 738.209 145 736 145H735V155H985V145H984C981.791 145 980 143.209 980 141V139C980 136.791 981.791 135 984 135H985V134C985 129.029 989.029 125 994 125H1000V255H994C989.029 255 985 250.971 985 246V245H984C981.791 245 980 243.209 980 241V239C980 236.791 981.791 235 984 235H985V225H735V235H736C738.209 235 740 236.791 740 239V241C740 243.209 738.209 245 736 245H735V246C735 250.971 730.971 255 726 255H720V125Z" fill="#E4E4E7"/>
<path d="M735 155V145H736C738.209 145 740 143.209 740 141V139C740 136.791 738.209 135 736 135H735V134C735 129.029 730.971 125 726 125H720V255H726C730.971 255 735 250.971 735 246V245H736C738.209 245 740 243.209 740 241V239C740 236.791 738.209 235 736 235H735V225M735 155H985M735 155V225M985 155V145H984C981.791 145 980 143.209 980 141V139C980 136.791 981.791 135 984 135H985V134C985 129.029 989.029 125 994 125H1000V255H994C989.029 255 985 250.971 985 246V245H984C981.791 245 980 243.209 980 241V239C980 236.791 981.791 235 984 235H985V225M985 155V225M985 225H735" stroke="#2D2D2F" stroke-width="4"/>
<path d="M1250 380H1240H1170H1160V379C1160 376.791 1158.21 375 1156 375H1154C1151.79 375 1150 376.791 1150 379V380H1149C1144.03 380 1140 384.029 1140 389V395H1270V389C1270 384.029 1265.97 380 1261 380H1260V379C1260 376.791 1258.21 375 1256 375H1254C1251.79 375 1250 376.791 1250 379V380Z" fill="#E4E4E7"/>
<path d="M1015 155V225V225C1100.6 225 1170 294.396 1170 380V380H1240V380C1240 255.736 1139.26 155 1015 155V155Z" fill="#E4E4E7"/>
<path d="M1015 155V145H1016C1018.21 145 1020 143.209 1020 141V139C1020 136.791 1018.21 135 1016 135H1015V134C1015 129.029 1010.97 125 1006 125H1000V255H1006C1010.97 255 1015 250.971 1015 246V245H1016C1018.21 245 1020 243.209 1020 241V239C1020 236.791 1018.21 235 1016 235H1015V225M1015 155V225M1015 155V155C1139.26 155 1240 255.736 1240 380V380M1015 225V225C1100.6 225 1170 294.396 1170 380V380M1240 380H1250V379C1250 376.791 1251.79 375 1254 375H1256C1258.21 375 1260 376.791 1260 379V380H1261C1265.97 380 1270 384.029 1270 389V395H1140V389C1140 384.029 1144.03 380 1149 380H1150V379C1150 376.791 1151.79 375 1154 375H1156C1158.21 375 1160 376.791 1160 379V380H1170M1240 380H1170" stroke="#2D2D2F" stroke-width="4"/>
<path d="M190 -2.78218e-06L200 -1.90796e-06L270 4.21164e-06L280 5.08587e-06L280 1.00001C280 3.20915 281.791 5.00001 284 5.00001L286 5.00001C288.209 5.00001 290 3.20915 290 1.00001L290 5.9601e-06L291 6.04752e-06C295.97 6.69933e-06 300 -4.02943 300 -8.99999L300 -15L170 -15L170 -9C170 -4.02944 174.029 -4.39564e-06 179 -3.74383e-06L180 -3.65641e-06L180 1C180 3.20914 181.791 5 184 5L186 5C188.209 5 190 3.20914 190 1L190 -2.78218e-06Z" fill="#E4E4E7"/>
<path d="M425 225L425 235L424 235C421.791 235 420 236.791 420 239L420 241C420 243.209 421.791 245 424 245L425 245L425 246C425 250.971 429.029 255 434 255L440 255L440 125L434 125C429.029 125 425 129.029 425 134L425 135L424 135C421.791 135 420 136.791 420 139L420 141C420 143.209 421.791 145 424 145L425 145L425 155M425 225L425 155M425 225V225C300.736 225 200 124.264 200 -1.90796e-06V-1.90796e-06M425 155V155C339.396 155 270 85.6041 270 4.21164e-06V4.21164e-06M200 -1.90796e-06L190 -2.78218e-06L190 1C190 3.20914 188.209 5 186 5L184 5C181.791 5 180 3.20914 180 1L180 -3.65641e-06L179 -3.74383e-06C174.029 -4.39564e-06 170 -4.02944 170 -9L170 -15L300 -15L300 -8.99999C300 -4.02943 295.97 6.69933e-06 291 6.04752e-06L290 5.9601e-06L290 1.00001C290 3.20915 288.209 5.00001 286 5.00001L284 5.00001C281.791 5.00001 280 3.20915 280 1.00001L280 5.08587e-06L270 4.21164e-06M200 -1.90796e-06L270 4.21164e-06" stroke="#2D2D2F" stroke-width="4"/>
<path d="M1270 395L1270 401C1270 405.971 1265.97 410 1261 410L1260 410L1260 411C1260 413.209 1258.21 415 1256 415L1254 415C1251.79 415 1250 413.209 1250 411L1250 410L1240 410L1240 660L1250 660L1250 659C1250 656.791 1251.79 655 1254 655L1256 655C1258.21 655 1260 656.791 1260 659L1260 660L1261 660C1265.97 660 1270 664.029 1270 669L1270 675L1140 675L1140 669C1140 664.029 1144.03 660 1149 660L1150 660L1150 659C1150 656.791 1151.79 655 1154 655L1156 655C1158.21 655 1160 656.791 1160 659L1160 660L1170 660L1170 410L1160 410L1160 411C1160 413.209 1158.21 415 1156 415L1154 415C1151.79 415 1150 413.209 1150 411L1150 410L1149 410C1144.03 410 1140 405.971 1140 401L1140 395L1270 395Z" fill="#E4E4E7"/>
<path d="M1240 410L1250 410L1250 411C1250 413.209 1251.79 415 1254 415L1256 415C1258.21 415 1260 413.209 1260 411L1260 410L1261 410C1265.97 410 1270 405.971 1270 401L1270 395L1140 395L1140 401C1140 405.971 1144.03 410 1149 410L1150 410L1150 411C1150 413.209 1151.79 415 1154 415L1156 415C1158.21 415 1160 413.209 1160 411L1160 410L1170 410M1240 410L1240 660M1240 410L1170 410M1240 660L1250 660L1250 659C1250 656.791 1251.79 655 1254 655L1256 655C1258.21 655 1260 656.791 1260 659L1260 660L1261 660C1265.97 660 1270 664.029 1270 669L1270 675L1140 675L1140 669C1140 664.029 1144.03 660 1149 660L1150 660L1150 659C1150 656.791 1151.79 655 1154 655L1156 655C1158.21 655 1160 656.791 1160 659L1160 660L1170 660M1240 660L1170 660M1170 660L1170 410" stroke="#2D2D2F" stroke-width="4"/>
<path d="M935 -25L935 -19C935 -14.0294 930.971 -10 926 -10L925 -10L925 -9C925 -6.79086 923.209 -5 921 -5L919 -5C916.791 -5 915 -6.79086 915 -9L915 -10L905 -10L905 240L915 240L915 239C915 236.791 916.791 235 919 235L921 235C923.209 235 925 236.791 925 239L925 240L926 240C930.971 240 935 244.029 935 249L935 255L805 255L805 249C805 244.029 809.029 240 814 240L815 240L815 239C815 236.791 816.791 235 819 235L821 235C823.209 235 825 236.791 825 239L825 240L835 240L835 -10L825 -10L825 -9C825 -6.79087 823.209 -5 821 -5L819 -5.00001C816.791 -5.00001 815 -6.79087 815 -9.00001L815 -10L814 -10C809.029 -10 805 -14.0294 805 -19L805 -25L935 -25Z" fill="#E4E4E7"/>
<path d="M905 -10L915 -10L915 -9C915 -6.79086 916.791 -5 919 -5L921 -5C923.209 -5 925 -6.79086 925 -9L925 -10L926 -10C930.971 -10 935 -14.0294 935 -19L935 -25L805 -25L805 -19C805 -14.0294 809.029 -10 814 -10L815 -10L815 -9.00001C815 -6.79087 816.791 -5.00001 819 -5.00001L821 -5C823.209 -5 825 -6.79087 825 -9L825 -10L835 -10M905 -10L905 240M905 -10L835 -10M905 240L915 240L915 239C915 236.791 916.791 235 919 235L921 235C923.209 235 925 236.791 925 239L925 240L926 240C930.971 240 935 244.029 935 249L935 255L805 255L805 249C805 244.029 809.029 240 814 240L815 240L815 239C815 236.791 816.791 235 819 235L821 235C823.209 235 825 236.791 825 239L825 240L835 240M905 240L835 240M835 240L835 -10" stroke="#ADADAF" stroke-width="4"/>
<path d="M935 255L935 261C935 265.971 930.971 270 926 270L925 270L925 271C925 273.209 923.209 275 921 275L919 275C916.791 275 915 273.209 915 271L915 270L905 270L905 520L915 520L915 519C915 516.791 916.791 515 919 515L921 515C923.209 515 925 516.791 925 519L925 520L926 520C930.971 520 935 524.029 935 529L935 535L805 535L805 529C805 524.029 809.029 520 814 520L815 520L815 519C815 516.791 816.791 515 819 515L821 515C823.209 515 825 516.791 825 519L825 520L835 520L835 270L825 270L825 271C825 273.209 823.209 275 821 275L819 275C816.791 275 815 273.209 815 271L815 270L814 270C809.029 270 805 265.971 805 261L805 255L935 255Z" fill="#E4E4E7"/>
<path d="M905 270L915 270L915 271C915 273.209 916.791 275 919 275L921 275C923.209 275 925 273.209 925 271L925 270L926 270C930.971 270 935 265.971 935 261L935 255L805 255L805 261C805 265.971 809.029 270 814 270L815 270L815 271C815 273.209 816.791 275 819 275L821 275C823.209 275 825 273.209 825 271L825 270L835 270M905 270L905 520M905 270L835 270M905 520L915 520L915 519C915 516.791 916.791 515 919 515L921 515C923.209 515 925 516.791 925 519L925 520L926 520C930.971 520 935 524.029 935 529L935 535L805 535L805 529C805 524.029 809.029 520 814 520L815 520L815 519C815 516.791 816.791 515 819 515L821 515C823.209 515 825 516.791 825 519L825 520L835 520M905 520L835 520M835 520L835 270" stroke="#ADADAF" stroke-width="4"/>
<rect x="290" y="440" width="60" height="60" transform="rotate(-180 290 440)" stroke="#6D6D6F" stroke-width="4"/>
<rect x="220" y="370" width="250" height="80" stroke="#6D6D6F" stroke-width="4"/>
<path d="M275 400L275 425M275 425L250 425M275 425L245 395" stroke="#6D6D6F" stroke-width="4"/>
<path d="M310 390V420C310 425.523 314.477 430 320 430V430C325.523 430 330 425.523 330 420V390M340 390H350M360 390H350M350 390V430M350 430H340M350 430H360" stroke="#6D6D6F" stroke-width="4" stroke-miterlimit="5.75877" stroke-linecap="square"/>
<rect x="440" y="100" width="280" height="180" fill="#E4E4E7" stroke="#CC8800" stroke-width="4"/>
<rect x="460" y="120" width="160" height="140" fill="#E4E4E7" stroke="#CC8800" stroke-width="4"/>
<path d="M550 180V180C550 174.477 554.477 170 560 170V170C565.523 170 570 174.477 570 180V185L550 205V210H570" stroke="#CC8800" stroke-width="4" stroke-miterlimit="5.75877" stroke-linecap="square"/>
<path d="M510 180L530 200M530 180L510 200" stroke="#CC8800" stroke-width="4" stroke-miterlimit="5.75877" stroke-linecap="square"/>
<circle cx="670" cy="140" r="20" stroke="#CC8800" stroke-width="4"/>
<circle cx="670" cy="200" r="20" stroke="#CC8800" stroke-width="4"/>
<path d="M668.586 138.586L667.172 140L670 142.828L671.414 141.414L668.586 138.586ZM671.414 141.414L686.414 126.414L683.586 123.586L668.586 138.586L671.414 141.414Z" fill="#CC8800"/>
<path d="M670 202H672V198H670V202ZM670 198H650V202H670V198Z" fill="#CC8800"/>
</g>
<defs>
<clipPath id="clip0_2402_928">
<rect width="1440" height="480" fill="white"/>
</clipPath>
</defs>
</svg>
