<svg width="800" height="150" viewBox="0 0 800 150" fill="none" xmlns="http://www.w3.org/2000/svg">
<path d="M207.016 37.7305C207.018 31.7921 211.327 29.129 216.64 31.7823L293.365 70.1866C298.678 72.8399 302.986 79.7608 302.989 85.6993V112.27C302.986 118.208 298.678 120.871 293.365 118.218L216.64 79.8135C211.327 77.1602 207.018 70.2393 207.016 64.3008V37.7305Z" fill="url(#paint0_linear_1810_508)"/>
<path fill-rule="evenodd" clip-rule="evenodd" d="M293.368 31.7823C298.681 29.129 302.99 31.7921 302.992 37.7305V64.3008C302.991 67.8963 301.411 71.8518 298.985 75.0023C297.404 72.9472 295.462 71.2342 293.365 70.1866L255.004 50.9853L293.368 31.7823ZM255 50.9872L216.643 70.1866C211.33 72.8399 207.021 79.7608 207.019 85.6993V112.27C207.021 118.208 211.33 120.871 216.643 118.218L255.004 99.0165L255 99.0146V50.9872Z" fill="#F8F8FA"/>
<path d="M353.591 82.125V35.5795H383.409V42.6477H362.023V55.2841H381.364V62.3523H362.023V82.125H353.591ZM408.23 67.4432V47.2159H416.457V82.125H408.48V75.9205H408.116C407.328 77.875 406.033 79.4735 404.23 80.7159C402.442 81.9583 400.237 82.5795 397.616 82.5795C395.328 82.5795 393.306 82.072 391.548 81.0568C389.806 80.0265 388.442 78.5341 387.457 76.5795C386.472 74.6098 385.98 72.2311 385.98 69.4432V47.2159H394.207V68.1705C394.207 70.3826 394.813 72.1402 396.025 73.4432C397.237 74.7462 398.828 75.3977 400.798 75.3977C402.01 75.3977 403.184 75.1023 404.321 74.5114C405.457 73.9205 406.389 73.0417 407.116 71.875C407.859 70.6932 408.23 69.2159 408.23 67.4432ZM449.948 56.4432L442.448 57.2614C442.236 56.5038 441.865 55.7917 441.335 55.125C440.819 54.4583 440.122 53.9205 439.244 53.5114C438.365 53.1023 437.289 52.8977 436.016 52.8977C434.304 52.8977 432.865 53.2689 431.698 54.0114C430.547 54.7538 429.978 55.7159 429.994 56.8977C429.978 57.9129 430.35 58.7386 431.107 59.375C431.88 60.0114 433.153 60.5341 434.925 60.9432L440.88 62.2159C444.183 62.928 446.638 64.0568 448.244 65.6023C449.865 67.1477 450.683 69.1705 450.698 71.6705C450.683 73.8674 450.039 75.8068 448.766 77.4886C447.509 79.1553 445.759 80.4583 443.516 81.3977C441.274 82.3371 438.698 82.8068 435.789 82.8068C431.516 82.8068 428.077 81.9129 425.471 80.125C422.865 78.322 421.312 75.8144 420.812 72.6023L428.835 71.8295C429.198 73.4053 429.971 74.5947 431.153 75.3977C432.335 76.2008 433.872 76.6023 435.766 76.6023C437.721 76.6023 439.289 76.2008 440.471 75.3977C441.668 74.5947 442.266 73.6023 442.266 72.4205C442.266 71.4205 441.88 70.5947 441.107 69.9432C440.35 69.2917 439.168 68.7917 437.562 68.4432L431.607 67.1932C428.259 66.4962 425.782 65.322 424.175 63.6705C422.569 62.0038 421.774 59.8977 421.789 57.3523C421.774 55.2008 422.357 53.3371 423.539 51.7614C424.736 50.1705 426.395 48.9432 428.516 48.0795C430.653 47.2008 433.115 46.7614 435.903 46.7614C439.994 46.7614 443.213 47.6326 445.562 49.375C447.925 51.1174 449.388 53.4735 449.948 56.4432ZM454.922 82.125V47.2159H463.15V82.125H454.922ZM459.059 42.2614C457.756 42.2614 456.634 41.8295 455.695 40.9659C454.756 40.0871 454.286 39.0341 454.286 37.8068C454.286 36.5644 454.756 35.5114 455.695 34.6477C456.634 33.7689 457.756 33.3295 459.059 33.3295C460.377 33.3295 461.498 33.7689 462.422 34.6477C463.362 35.5114 463.831 36.5644 463.831 37.8068C463.831 39.0341 463.362 40.0871 462.422 40.9659C461.498 41.8295 460.377 42.2614 459.059 42.2614ZM484.277 82.8068C480.868 82.8068 477.913 82.0568 475.413 80.5568C472.913 79.0568 470.974 76.9583 469.595 74.2614C468.232 71.5644 467.55 68.4129 467.55 64.8068C467.55 61.2008 468.232 58.0417 469.595 55.3295C470.974 52.6174 472.913 50.5114 475.413 49.0114C477.913 47.5114 480.868 46.7614 484.277 46.7614C487.686 46.7614 490.641 47.5114 493.141 49.0114C495.641 50.5114 497.573 52.6174 498.936 55.3295C500.315 58.0417 501.004 61.2008 501.004 64.8068C501.004 68.4129 500.315 71.5644 498.936 74.2614C497.573 76.9583 495.641 79.0568 493.141 80.5568C490.641 82.0568 487.686 82.8068 484.277 82.8068ZM484.323 76.2159C486.171 76.2159 487.716 75.7083 488.959 74.6932C490.201 73.6629 491.126 72.2841 491.732 70.5568C492.353 68.8295 492.663 66.9053 492.663 64.7841C492.663 62.6477 492.353 60.7159 491.732 58.9886C491.126 57.2462 490.201 55.8598 488.959 54.8295C487.716 53.7992 486.171 53.2841 484.323 53.2841C482.429 53.2841 480.853 53.7992 479.595 54.8295C478.353 55.8598 477.421 57.2462 476.8 58.9886C476.194 60.7159 475.891 62.6477 475.891 64.7841C475.891 66.9053 476.194 68.8295 476.8 70.5568C477.421 72.2841 478.353 73.6629 479.595 74.6932C480.853 75.7083 482.429 76.2159 484.323 76.2159ZM513.655 61.6705V82.125H505.427V47.2159H513.291V53.1477H513.7C514.503 51.1932 515.783 49.6402 517.541 48.4886C519.314 47.3371 521.503 46.7614 524.109 46.7614C526.518 46.7614 528.617 47.2765 530.405 48.3068C532.208 49.3371 533.602 50.8295 534.586 52.7841C535.586 54.7386 536.079 57.1098 536.064 59.8977V82.125H527.836V61.1705C527.836 58.8371 527.23 57.0114 526.018 55.6932C524.821 54.375 523.162 53.7159 521.041 53.7159C519.602 53.7159 518.321 54.0341 517.2 54.6705C516.094 55.2917 515.223 56.1932 514.586 57.375C513.965 58.5568 513.655 59.9886 513.655 61.6705ZM555.091 82.125V76.0341L571.25 60.1932C572.796 58.6326 574.084 57.2462 575.114 56.0341C576.144 54.822 576.917 53.6477 577.432 52.5114C577.947 51.375 578.205 50.1629 578.205 48.875C578.205 47.4053 577.872 46.1477 577.205 45.1023C576.538 44.0417 575.622 43.2235 574.455 42.6477C573.288 42.072 571.963 41.7841 570.478 41.7841C568.947 41.7841 567.607 42.1023 566.455 42.7386C565.303 43.3598 564.41 44.2462 563.773 45.3977C563.152 46.5492 562.841 47.9205 562.841 49.5114H554.819C554.819 46.5568 555.493 43.9886 556.841 41.8068C558.19 39.625 560.046 37.9356 562.41 36.7386C564.788 35.5417 567.516 34.9432 570.591 34.9432C573.713 34.9432 576.455 35.5265 578.819 36.6932C581.182 37.8598 583.016 39.4583 584.319 41.4886C585.637 43.5189 586.296 45.8371 586.296 48.4432C586.296 50.1856 585.963 51.8977 585.296 53.5795C584.629 55.2614 583.455 57.125 581.773 59.1705C580.107 61.2159 577.766 63.6932 574.75 66.6023L566.728 74.7614V75.0795H587V82.125H555.091Z" fill="#F8F8FA"/>
<path d="M353.291 118.875V105.784H358.303C359.249 105.784 360.035 105.933 360.661 106.232C361.292 106.526 361.763 106.928 362.074 107.44C362.389 107.951 362.547 108.531 362.547 109.178C362.547 109.711 362.445 110.167 362.24 110.546C362.036 110.921 361.761 111.226 361.415 111.46C361.07 111.695 360.685 111.863 360.259 111.965V112.093C360.723 112.119 361.168 112.261 361.594 112.521C362.025 112.777 362.376 113.139 362.649 113.608C362.922 114.077 363.058 114.643 363.058 115.308C363.058 115.986 362.894 116.595 362.566 117.136C362.238 117.673 361.744 118.097 361.083 118.408C360.423 118.719 359.592 118.875 358.59 118.875H353.291ZM355.663 116.893H358.213C359.074 116.893 359.694 116.729 360.073 116.401C360.457 116.069 360.648 115.643 360.648 115.123C360.648 114.735 360.553 114.386 360.361 114.075C360.169 113.759 359.896 113.512 359.543 113.333C359.189 113.15 358.767 113.058 358.277 113.058H355.663V116.893ZM355.663 111.352H358.009C358.418 111.352 358.786 111.277 359.114 111.128C359.442 110.974 359.7 110.759 359.888 110.482C360.08 110.201 360.175 109.869 360.175 109.485C360.175 108.978 359.996 108.56 359.638 108.232C359.285 107.904 358.759 107.74 358.06 107.74H355.663V111.352ZM371.277 114.746V109.057H373.591V118.875H371.347V117.13H371.245C371.023 117.68 370.659 118.129 370.152 118.479C369.649 118.828 369.029 119.003 368.292 119.003C367.648 119.003 367.079 118.86 366.585 118.575C366.095 118.285 365.711 117.865 365.434 117.315C365.157 116.761 365.019 116.092 365.019 115.308V109.057H367.333V114.95C367.333 115.572 367.503 116.067 367.844 116.433C368.185 116.8 368.633 116.983 369.187 116.983C369.528 116.983 369.858 116.9 370.177 116.734C370.497 116.567 370.759 116.32 370.964 115.992C371.172 115.66 371.277 115.244 371.277 114.746ZM375.97 118.875V109.057H378.284V118.875H375.97ZM377.134 107.663C376.767 107.663 376.452 107.542 376.188 107.299C375.923 107.052 375.791 106.756 375.791 106.411C375.791 106.061 375.923 105.765 376.188 105.522C376.452 105.275 376.767 105.151 377.134 105.151C377.504 105.151 377.82 105.275 378.08 105.522C378.344 105.765 378.476 106.061 378.476 106.411C378.476 106.756 378.344 107.052 378.08 107.299C377.82 107.542 377.504 107.663 377.134 107.663ZM382.977 105.784V118.875H380.664V105.784H382.977ZM389 119.048C388.229 119.048 387.539 118.849 386.929 118.453C386.32 118.057 385.838 117.482 385.485 116.727C385.131 115.973 384.954 115.057 384.954 113.979C384.954 112.888 385.133 111.967 385.491 111.217C385.853 110.463 386.341 109.894 386.955 109.511C387.569 109.123 388.252 108.929 389.007 108.929C389.582 108.929 390.055 109.027 390.426 109.223C390.797 109.415 391.091 109.647 391.308 109.92C391.525 110.188 391.694 110.442 391.813 110.68H391.909V105.784H394.229V118.875H391.953V117.328H391.813C391.694 117.567 391.521 117.82 391.295 118.089C391.069 118.353 390.771 118.579 390.4 118.766C390.029 118.954 389.563 119.048 389 119.048ZM389.646 117.149C390.136 117.149 390.554 117.017 390.899 116.753C391.244 116.484 391.506 116.112 391.685 115.634C391.864 115.157 391.953 114.601 391.953 113.966C391.953 113.331 391.864 112.779 391.685 112.31C391.51 111.842 391.25 111.477 390.905 111.217C390.564 110.957 390.145 110.827 389.646 110.827C389.13 110.827 388.7 110.962 388.355 111.23C388.01 111.499 387.75 111.869 387.575 112.342C387.4 112.815 387.313 113.357 387.313 113.966C387.313 114.58 387.4 115.127 387.575 115.609C387.754 116.086 388.016 116.463 388.361 116.74C388.711 117.013 389.139 117.149 389.646 117.149ZM402.598 122.557C402.282 122.557 401.991 122.531 401.722 122.48C401.458 122.433 401.247 122.378 401.089 122.314L401.626 120.511C401.963 120.609 402.263 120.656 402.528 120.652C402.792 120.648 403.024 120.565 403.224 120.403C403.429 120.245 403.601 119.981 403.742 119.61L403.94 119.08L400.38 109.057H402.834L405.097 116.472H405.199L407.469 109.057H409.93L405.998 120.064C405.815 120.584 405.572 121.029 405.27 121.4C404.967 121.775 404.596 122.06 404.157 122.256C403.723 122.457 403.203 122.557 402.598 122.557ZM415.479 119.067C414.521 119.067 413.69 118.856 412.987 118.434C412.283 118.012 411.738 117.422 411.35 116.663C410.967 115.905 410.775 115.018 410.775 114.004C410.775 112.99 410.967 112.102 411.35 111.339C411.738 110.576 412.283 109.984 412.987 109.562C413.69 109.14 414.521 108.929 415.479 108.929C416.438 108.929 417.269 109.14 417.972 109.562C418.675 109.984 419.219 110.576 419.602 111.339C419.99 112.102 420.184 112.99 420.184 114.004C420.184 115.018 419.99 115.905 419.602 116.663C419.219 117.422 418.675 118.012 417.972 118.434C417.269 118.856 416.438 119.067 415.479 119.067ZM415.492 117.213C416.012 117.213 416.447 117.07 416.796 116.785C417.146 116.495 417.406 116.107 417.576 115.621C417.751 115.136 417.838 114.594 417.838 113.998C417.838 113.397 417.751 112.854 417.576 112.368C417.406 111.878 417.146 111.488 416.796 111.198C416.447 110.908 416.012 110.763 415.492 110.763C414.96 110.763 414.516 110.908 414.163 111.198C413.813 111.488 413.551 111.878 413.376 112.368C413.206 112.854 413.121 113.397 413.121 113.998C413.121 114.594 413.206 115.136 413.376 115.621C413.551 116.107 413.813 116.495 414.163 116.785C414.516 117.07 414.96 117.213 415.492 117.213ZM428.406 114.746V109.057H430.72V118.875H428.476V117.13H428.374C428.152 117.68 427.788 118.129 427.281 118.479C426.778 118.828 426.158 119.003 425.421 119.003C424.777 119.003 424.208 118.86 423.714 118.575C423.224 118.285 422.84 117.865 422.563 117.315C422.286 116.761 422.148 116.092 422.148 115.308V109.057H424.462V114.95C424.462 115.572 424.632 116.067 424.973 116.433C425.314 116.8 425.762 116.983 426.316 116.983C426.656 116.983 426.987 116.9 427.306 116.734C427.626 116.567 427.888 116.32 428.093 115.992C428.301 115.66 428.406 115.244 428.406 114.746ZM433.099 118.875V109.057H435.343V110.693H435.445C435.624 110.126 435.931 109.69 436.365 109.383C436.804 109.072 437.305 108.916 437.868 108.916C437.995 108.916 438.138 108.923 438.296 108.935C438.458 108.944 438.592 108.959 438.699 108.98V111.109C438.6 111.075 438.445 111.045 438.232 111.019C438.023 110.989 437.821 110.974 437.625 110.974C437.203 110.974 436.824 111.066 436.487 111.249C436.154 111.428 435.892 111.678 435.701 111.997C435.509 112.317 435.413 112.685 435.413 113.103V118.875H433.099ZM444.803 118.875V105.784H447.117V110.68H447.213C447.332 110.442 447.5 110.188 447.718 109.92C447.935 109.647 448.229 109.415 448.6 109.223C448.971 109.027 449.444 108.929 450.019 108.929C450.777 108.929 451.461 109.123 452.071 109.511C452.684 109.894 453.17 110.463 453.528 111.217C453.89 111.967 454.071 112.888 454.071 113.979C454.071 115.057 453.895 115.973 453.541 116.727C453.187 117.482 452.706 118.057 452.096 118.453C451.487 118.849 450.797 119.048 450.025 119.048C449.463 119.048 448.996 118.954 448.625 118.766C448.255 118.579 447.956 118.353 447.73 118.089C447.509 117.82 447.336 117.567 447.213 117.328H447.078V118.875H444.803ZM447.072 113.966C447.072 114.601 447.162 115.157 447.341 115.634C447.524 116.112 447.786 116.484 448.127 116.753C448.472 117.017 448.89 117.149 449.38 117.149C449.891 117.149 450.319 117.013 450.664 116.74C451.01 116.463 451.27 116.086 451.444 115.609C451.623 115.127 451.713 114.58 451.713 113.966C451.713 113.357 451.625 112.815 451.451 112.342C451.276 111.869 451.016 111.499 450.671 111.23C450.326 110.962 449.895 110.827 449.38 110.827C448.885 110.827 448.466 110.957 448.12 111.217C447.775 111.477 447.513 111.842 447.334 112.31C447.159 112.779 447.072 113.331 447.072 113.966ZM460.385 119.067C459.401 119.067 458.551 118.862 457.835 118.453C457.123 118.04 456.575 117.456 456.192 116.702C455.808 115.943 455.617 115.05 455.617 114.023C455.617 113.013 455.808 112.127 456.192 111.364C456.58 110.597 457.121 110.001 457.816 109.575C458.51 109.144 459.326 108.929 460.264 108.929C460.869 108.929 461.44 109.027 461.977 109.223C462.518 109.415 462.995 109.713 463.409 110.118C463.826 110.523 464.154 111.038 464.393 111.665C464.632 112.287 464.751 113.028 464.751 113.889V114.599H456.703V113.039H462.533C462.529 112.596 462.433 112.202 462.245 111.857C462.058 111.507 461.796 111.232 461.459 111.032C461.127 110.832 460.739 110.732 460.296 110.732C459.823 110.732 459.407 110.847 459.049 111.077C458.691 111.303 458.412 111.601 458.212 111.972C458.016 112.338 457.916 112.741 457.911 113.18V114.541C457.911 115.112 458.016 115.602 458.225 116.011C458.433 116.416 458.725 116.727 459.1 116.945C459.475 117.158 459.914 117.264 460.417 117.264C460.754 117.264 461.058 117.217 461.331 117.124C461.604 117.026 461.84 116.883 462.041 116.695C462.241 116.508 462.392 116.276 462.494 115.999L464.655 116.241C464.519 116.812 464.259 117.311 463.875 117.737C463.496 118.159 463.01 118.487 462.418 118.722C461.825 118.952 461.148 119.067 460.385 119.067ZM474.468 111.652L472.359 111.882C472.299 111.669 472.195 111.469 472.046 111.281C471.901 111.094 471.705 110.942 471.458 110.827C471.211 110.712 470.908 110.655 470.55 110.655C470.069 110.655 469.664 110.759 469.336 110.968C469.012 111.177 468.852 111.447 468.856 111.78C468.852 112.065 468.956 112.298 469.169 112.477C469.387 112.656 469.745 112.803 470.243 112.918L471.918 113.276C472.847 113.476 473.537 113.793 473.989 114.228C474.445 114.663 474.675 115.232 474.679 115.935C474.675 116.553 474.494 117.098 474.136 117.571C473.782 118.04 473.29 118.406 472.659 118.67C472.029 118.935 471.304 119.067 470.486 119.067C469.284 119.067 468.317 118.815 467.584 118.312C466.851 117.805 466.414 117.1 466.274 116.197L468.53 115.979C468.632 116.423 468.85 116.757 469.182 116.983C469.515 117.209 469.947 117.322 470.48 117.322C471.029 117.322 471.471 117.209 471.803 116.983C472.14 116.757 472.308 116.478 472.308 116.146C472.308 115.864 472.199 115.632 471.982 115.449C471.769 115.266 471.436 115.125 470.985 115.027L469.31 114.675C468.368 114.479 467.672 114.149 467.22 113.685C466.768 113.216 466.544 112.624 466.549 111.908C466.544 111.303 466.708 110.778 467.041 110.335C467.377 109.888 467.844 109.543 468.441 109.3C469.042 109.053 469.734 108.929 470.518 108.929C471.669 108.929 472.574 109.174 473.235 109.664C473.9 110.154 474.311 110.817 474.468 111.652ZM481.49 109.057V110.847H475.846V109.057H481.49ZM477.239 106.705H479.553V115.922C479.553 116.233 479.6 116.472 479.694 116.638C479.792 116.8 479.92 116.911 480.077 116.97C480.235 117.03 480.41 117.06 480.602 117.06C480.746 117.06 480.879 117.049 480.998 117.028C481.121 117.006 481.215 116.987 481.279 116.97L481.669 118.779C481.545 118.822 481.369 118.869 481.138 118.92C480.913 118.971 480.636 119.001 480.308 119.009C479.728 119.026 479.206 118.939 478.741 118.747C478.277 118.551 477.908 118.249 477.636 117.839C477.367 117.43 477.235 116.919 477.239 116.305V106.705ZM496.244 105.784H498.616V114.337C498.616 115.274 498.394 116.099 497.951 116.81C497.512 117.522 496.894 118.078 496.097 118.479C495.301 118.875 494.369 119.073 493.304 119.073C492.235 119.073 491.301 118.875 490.504 118.479C489.708 118.078 489.09 117.522 488.651 116.81C488.212 116.099 487.992 115.274 487.992 114.337V105.784H490.364V114.138C490.364 114.684 490.483 115.17 490.722 115.596C490.965 116.022 491.306 116.357 491.744 116.599C492.183 116.838 492.703 116.957 493.304 116.957C493.905 116.957 494.425 116.838 494.864 116.599C495.307 116.357 495.648 116.022 495.887 115.596C496.125 115.17 496.244 114.684 496.244 114.138V105.784ZM503.565 105.784V118.875H501.194V105.784H503.565ZM510.598 118.875V105.784H512.912V110.68H513.008C513.127 110.442 513.295 110.188 513.513 109.92C513.73 109.647 514.024 109.415 514.395 109.223C514.765 109.027 515.238 108.929 515.814 108.929C516.572 108.929 517.256 109.123 517.866 109.511C518.479 109.894 518.965 110.463 519.323 111.217C519.685 111.967 519.866 112.888 519.866 113.979C519.866 115.057 519.689 115.973 519.336 116.727C518.982 117.482 518.501 118.057 517.891 118.453C517.282 118.849 516.591 119.048 515.82 119.048C515.258 119.048 514.791 118.954 514.42 118.766C514.05 118.579 513.751 118.353 513.525 118.089C513.304 117.82 513.131 117.567 513.008 117.328H512.873V118.875H510.598ZM512.867 113.966C512.867 114.601 512.956 115.157 513.135 115.634C513.319 116.112 513.581 116.484 513.922 116.753C514.267 117.017 514.684 117.149 515.175 117.149C515.686 117.149 516.114 117.013 516.459 116.74C516.805 116.463 517.064 116.086 517.239 115.609C517.418 115.127 517.508 114.58 517.508 113.966C517.508 113.357 517.42 112.815 517.246 112.342C517.071 111.869 516.811 111.499 516.466 111.23C516.121 110.962 515.69 110.827 515.175 110.827C514.68 110.827 514.26 110.957 513.915 111.217C513.57 111.477 513.308 111.842 513.129 112.31C512.954 112.779 512.867 113.331 512.867 113.966ZM528.091 114.746V109.057H530.405V118.875H528.162V117.13H528.059C527.838 117.68 527.473 118.129 526.966 118.479C526.463 118.828 525.843 119.003 525.106 119.003C524.463 119.003 523.894 118.86 523.4 118.575C522.909 118.285 522.526 117.865 522.249 117.315C521.972 116.761 521.833 116.092 521.833 115.308V109.057H524.147V114.95C524.147 115.572 524.318 116.067 524.659 116.433C525 116.8 525.447 116.983 526.001 116.983C526.342 116.983 526.672 116.9 526.992 116.734C527.311 116.567 527.574 116.32 527.778 115.992C527.987 115.66 528.091 115.244 528.091 114.746ZM537.687 109.057V110.847H532.043V109.057H537.687ZM533.437 106.705H535.751V115.922C535.751 116.233 535.797 116.472 535.891 116.638C535.989 116.8 536.117 116.911 536.275 116.97C536.432 117.03 536.607 117.06 536.799 117.06C536.944 117.06 537.076 117.049 537.195 117.028C537.319 117.006 537.412 116.987 537.476 116.97L537.866 118.779C537.743 118.822 537.566 118.869 537.336 118.92C537.11 118.971 536.833 119.001 536.505 119.009C535.925 119.026 535.403 118.939 534.939 118.747C534.474 118.551 534.106 118.249 533.833 117.839C533.564 117.43 533.432 116.919 533.437 116.305V106.705ZM544.19 118.875V105.784H546.504V110.68H546.599C546.719 110.442 546.887 110.188 547.104 109.92C547.322 109.647 547.616 109.415 547.987 109.223C548.357 109.027 548.83 108.929 549.406 108.929C550.164 108.929 550.848 109.123 551.457 109.511C552.071 109.894 552.557 110.463 552.915 111.217C553.277 111.967 553.458 112.888 553.458 113.979C553.458 115.057 553.281 115.973 552.928 116.727C552.574 117.482 552.092 118.057 551.483 118.453C550.874 118.849 550.183 119.048 549.412 119.048C548.849 119.048 548.383 118.954 548.012 118.766C547.641 118.579 547.343 118.353 547.117 118.089C546.896 117.82 546.723 117.567 546.599 117.328H546.465V118.875H544.19ZM546.459 113.966C546.459 114.601 546.548 115.157 546.727 115.634C546.911 116.112 547.173 116.484 547.513 116.753C547.859 117.017 548.276 117.149 548.766 117.149C549.278 117.149 549.706 117.013 550.051 116.74C550.396 116.463 550.656 116.086 550.831 115.609C551.01 115.127 551.099 114.58 551.099 113.966C551.099 113.357 551.012 112.815 550.837 112.342C550.663 111.869 550.403 111.499 550.058 111.23C549.712 110.962 549.282 110.827 548.766 110.827C548.272 110.827 547.852 110.957 547.507 111.217C547.162 111.477 546.9 111.842 546.721 112.31C546.546 112.779 546.459 113.331 546.459 113.966ZM559.772 119.067C558.787 119.067 557.937 118.862 557.221 118.453C556.51 118.04 555.962 117.456 555.579 116.702C555.195 115.943 555.003 115.05 555.003 114.023C555.003 113.013 555.195 112.127 555.579 111.364C555.966 110.597 556.508 110.001 557.202 109.575C557.897 109.144 558.713 108.929 559.65 108.929C560.256 108.929 560.827 109.027 561.363 109.223C561.905 109.415 562.382 109.713 562.795 110.118C563.213 110.523 563.541 111.038 563.78 111.665C564.018 112.287 564.138 113.028 564.138 113.889V114.599H556.09V113.039H561.92C561.915 112.596 561.819 112.202 561.632 111.857C561.444 111.507 561.182 111.232 560.846 111.032C560.513 110.832 560.126 110.732 559.682 110.732C559.209 110.732 558.794 110.847 558.436 111.077C558.078 111.303 557.799 111.601 557.599 111.972C557.403 112.338 557.302 112.741 557.298 113.18V114.541C557.298 115.112 557.403 115.602 557.611 116.011C557.82 116.416 558.112 116.727 558.487 116.945C558.862 117.158 559.301 117.264 559.804 117.264C560.14 117.264 560.445 117.217 560.718 117.124C560.991 117.026 561.227 116.883 561.427 116.695C561.628 116.508 561.779 116.276 561.881 115.999L564.042 116.241C563.905 116.812 563.645 117.311 563.262 117.737C562.883 118.159 562.397 118.487 561.805 118.722C561.212 118.952 560.535 119.067 559.772 119.067ZM573.855 111.652L571.746 111.882C571.686 111.669 571.582 111.469 571.433 111.281C571.288 111.094 571.092 110.942 570.844 110.827C570.597 110.712 570.295 110.655 569.937 110.655C569.455 110.655 569.05 110.759 568.722 110.968C568.398 111.177 568.239 111.447 568.243 111.78C568.239 112.065 568.343 112.298 568.556 112.477C568.773 112.656 569.131 112.803 569.63 112.918L571.305 113.276C572.234 113.476 572.924 113.793 573.376 114.228C573.832 114.663 574.062 115.232 574.066 115.935C574.062 116.553 573.881 117.098 573.523 117.571C573.169 118.04 572.677 118.406 572.046 118.67C571.415 118.935 570.691 119.067 569.873 119.067C568.671 119.067 567.704 118.815 566.971 118.312C566.238 117.805 565.801 117.1 565.661 116.197L567.917 115.979C568.019 116.423 568.237 116.757 568.569 116.983C568.901 117.209 569.334 117.322 569.866 117.322C570.416 117.322 570.857 117.209 571.19 116.983C571.526 116.757 571.695 116.478 571.695 116.146C571.695 115.864 571.586 115.632 571.369 115.449C571.156 115.266 570.823 115.125 570.371 115.027L568.697 114.675C567.755 114.479 567.058 114.149 566.607 113.685C566.155 113.216 565.931 112.624 565.935 111.908C565.931 111.303 566.095 110.778 566.428 110.335C566.764 109.888 567.231 109.543 567.827 109.3C568.428 109.053 569.121 108.929 569.905 108.929C571.055 108.929 571.961 109.174 572.621 109.664C573.286 110.154 573.697 110.817 573.855 111.652ZM580.877 109.057V110.847H575.233V109.057H580.877ZM576.626 106.705H578.94V115.922C578.94 116.233 578.987 116.472 579.081 116.638C579.179 116.8 579.306 116.911 579.464 116.97C579.622 117.03 579.797 117.06 579.988 117.06C580.133 117.06 580.265 117.049 580.385 117.028C580.508 117.006 580.602 116.987 580.666 116.97L581.056 118.779C580.932 118.822 580.755 118.869 580.525 118.92C580.299 118.971 580.022 119.001 579.694 119.009C579.115 119.026 578.593 118.939 578.128 118.747C577.664 118.551 577.295 118.249 577.022 117.839C576.754 117.43 576.622 116.919 576.626 116.305V106.705ZM582.812 118.875V109.057H585.126V118.875H582.812ZM583.975 107.663C583.609 107.663 583.294 107.542 583.029 107.299C582.765 107.052 582.633 106.756 582.633 106.411C582.633 106.061 582.765 105.765 583.029 105.522C583.294 105.275 583.609 105.151 583.975 105.151C584.346 105.151 584.661 105.275 584.921 105.522C585.186 105.765 585.318 106.061 585.318 106.411C585.318 106.756 585.186 107.052 584.921 107.299C584.661 107.542 584.346 107.663 583.975 107.663ZM591.852 119.067C590.868 119.067 590.017 118.862 589.301 118.453C588.59 118.04 588.042 117.456 587.659 116.702C587.275 115.943 587.083 115.05 587.083 114.023C587.083 113.013 587.275 112.127 587.659 111.364C588.047 110.597 588.588 110.001 589.282 109.575C589.977 109.144 590.793 108.929 591.73 108.929C592.336 108.929 592.907 109.027 593.444 109.223C593.985 109.415 594.462 109.713 594.875 110.118C595.293 110.523 595.621 111.038 595.86 111.665C596.098 112.287 596.218 113.028 596.218 113.889V114.599H588.17V113.039H594C593.995 112.596 593.9 112.202 593.712 111.857C593.525 111.507 593.262 111.232 592.926 111.032C592.593 110.832 592.206 110.732 591.762 110.732C591.289 110.732 590.874 110.847 590.516 111.077C590.158 111.303 589.879 111.601 589.679 111.972C589.483 112.338 589.382 112.741 589.378 113.18V114.541C589.378 115.112 589.483 115.602 589.691 116.011C589.9 116.416 590.192 116.727 590.567 116.945C590.942 117.158 591.381 117.264 591.884 117.264C592.221 117.264 592.525 117.217 592.798 117.124C593.071 117.026 593.307 116.883 593.507 116.695C593.708 116.508 593.859 116.276 593.961 115.999L596.122 116.241C595.985 116.812 595.725 117.311 595.342 117.737C594.963 118.159 594.477 118.487 593.885 118.722C593.292 118.952 592.615 119.067 591.852 119.067ZM598.175 118.875V109.057H600.419V110.693H600.521C600.7 110.126 601.007 109.69 601.442 109.383C601.881 109.072 602.381 108.916 602.944 108.916C603.072 108.916 603.214 108.923 603.372 108.935C603.534 108.944 603.668 108.959 603.775 108.98V111.109C603.677 111.075 603.521 111.045 603.308 111.019C603.099 110.989 602.897 110.974 602.701 110.974C602.279 110.974 601.9 111.066 601.563 111.249C601.231 111.428 600.969 111.678 600.777 111.997C600.585 112.317 600.489 112.685 600.489 113.103V118.875H598.175ZM605.612 119.016C605.225 119.016 604.892 118.879 604.615 118.607C604.338 118.334 604.202 118.001 604.206 117.609C604.202 117.226 604.338 116.898 604.615 116.625C604.892 116.352 605.225 116.216 605.612 116.216C605.987 116.216 606.313 116.352 606.59 116.625C606.872 116.898 607.014 117.226 607.019 117.609C607.014 117.869 606.946 118.106 606.814 118.319C606.686 118.532 606.516 118.702 606.303 118.83C606.094 118.954 605.864 119.016 605.612 119.016Z" fill="white" fill-opacity="0.75"/>
<defs>
<linearGradient id="paint0_linear_1810_508" x1="207.02" y1="119.205" x2="303.02" y2="30.8049" gradientUnits="userSpaceOnUse">
<stop stop-color="#EB3D3D"/>
<stop offset="0.119792" stop-color="#ECB100"/>
<stop offset="0.244792" stop-color="#78DA17"/>
<stop offset="0.364583" stop-color="#15D545"/>
<stop offset="0.5" stop-color="#23BCBC"/>
<stop offset="0.625" stop-color="#648BFF"/>
<stop offset="0.75" stop-color="#B468FF"/>
<stop offset="0.875" stop-color="#EB43C1"/>
<stop offset="1" stop-color="#EB3C3C"/>
</linearGradient>
</defs>
</svg>
