<svg width="800" height="150" viewBox="0 0 800 150" fill="none" xmlns="http://www.w3.org/2000/svg">
<path fill-rule="evenodd" clip-rule="evenodd" d="M199 19H311V75.4628L229.259 34.548C221.457 30.6512 215.128 34.5623 215.125 43.2838V82.3062C215.128 91.0277 221.457 101.192 229.259 105.089L281.025 131H199V19Z" fill="url(#paint0_linear_1810_576)"/>
<path d="M362.023 35.5795V82.125H353.591V35.5795H362.023ZM376.457 61.6705V82.125H368.23V47.2159H376.093V53.1477H376.503C377.306 51.1932 378.586 49.6402 380.343 48.4886C382.116 47.3371 384.306 46.7614 386.912 46.7614C389.321 46.7614 391.419 47.2765 393.207 48.3068C395.01 49.3371 396.404 50.8295 397.389 52.7841C398.389 54.7386 398.881 57.1098 398.866 59.8977V82.125H390.639V61.1705C390.639 58.8371 390.033 57.0114 388.821 55.6932C387.624 54.375 385.965 53.7159 383.843 53.7159C382.404 53.7159 381.124 54.0341 380.003 54.6705C378.896 55.2917 378.025 56.1932 377.389 57.375C376.768 58.5568 376.457 59.9886 376.457 61.6705ZM422.352 47.2159V53.5795H401.715V47.2159H422.352ZM406.874 82.125V43.9205C406.874 41.572 407.359 39.6174 408.329 38.0568C409.314 36.4962 410.632 35.3295 412.283 34.5568C413.935 33.7841 415.768 33.3977 417.783 33.3977C419.208 33.3977 420.473 33.5114 421.579 33.7386C422.685 33.9659 423.503 34.1705 424.033 34.3523L422.397 40.7159C422.049 40.6098 421.609 40.5038 421.079 40.3977C420.549 40.2765 419.958 40.2159 419.306 40.2159C417.776 40.2159 416.693 40.5871 416.056 41.3295C415.435 42.0568 415.124 43.1023 415.124 44.4659V82.125H406.874ZM448.485 67.4432V47.2159H456.712V82.125H448.735V75.9205H448.371C447.583 77.875 446.288 79.4735 444.485 80.7159C442.697 81.9583 440.492 82.5795 437.871 82.5795C435.583 82.5795 433.561 82.072 431.803 81.0568C430.061 80.0265 428.697 78.5341 427.712 76.5795C426.727 74.6098 426.235 72.2311 426.235 69.4432V47.2159H434.462V68.1705C434.462 70.3826 435.068 72.1402 436.28 73.4432C437.492 74.7462 439.083 75.3977 441.053 75.3977C442.265 75.3977 443.439 75.1023 444.576 74.5114C445.712 73.9205 446.644 73.0417 447.371 71.875C448.114 70.6932 448.485 69.2159 448.485 67.4432ZM490.203 56.4432L482.703 57.2614C482.491 56.5038 482.12 55.7917 481.59 55.125C481.074 54.4583 480.377 53.9205 479.499 53.5114C478.62 53.1023 477.544 52.8977 476.271 52.8977C474.559 52.8977 473.12 53.2689 471.953 54.0114C470.802 54.7538 470.233 55.7159 470.249 56.8977C470.233 57.9129 470.605 58.7386 471.362 59.375C472.135 60.0114 473.408 60.5341 475.18 60.9432L481.135 62.2159C484.438 62.928 486.893 64.0568 488.499 65.6023C490.12 67.1477 490.938 69.1705 490.953 71.6705C490.938 73.8674 490.294 75.8068 489.021 77.4886C487.764 79.1553 486.014 80.4583 483.771 81.3977C481.529 82.3371 478.953 82.8068 476.044 82.8068C471.771 82.8068 468.332 81.9129 465.726 80.125C463.12 78.322 461.567 75.8144 461.067 72.6023L469.09 71.8295C469.453 73.4053 470.226 74.5947 471.408 75.3977C472.59 76.2008 474.127 76.6023 476.021 76.6023C477.976 76.6023 479.544 76.2008 480.726 75.3977C481.923 74.5947 482.521 73.6023 482.521 72.4205C482.521 71.4205 482.135 70.5947 481.362 69.9432C480.605 69.2917 479.423 68.7917 477.817 68.4432L471.862 67.1932C468.514 66.4962 466.037 65.322 464.43 63.6705C462.824 62.0038 462.029 59.8977 462.044 57.3523C462.029 55.2008 462.612 53.3371 463.794 51.7614C464.991 50.1705 466.65 48.9432 468.771 48.0795C470.908 47.2008 473.37 46.7614 476.158 46.7614C480.249 46.7614 483.468 47.6326 485.817 49.375C488.18 51.1174 489.643 53.4735 490.203 56.4432ZM510.632 82.8068C507.132 82.8068 504.109 82.0795 501.564 80.625C499.033 79.1553 497.086 77.0795 495.723 74.3977C494.359 71.7008 493.677 68.5265 493.677 64.875C493.677 61.2841 494.359 58.1326 495.723 55.4205C497.102 52.6932 499.026 50.572 501.495 49.0568C503.965 47.5265 506.867 46.7614 510.2 46.7614C512.352 46.7614 514.382 47.1098 516.291 47.8068C518.215 48.4886 519.912 49.5492 521.382 50.9886C522.867 52.428 524.033 54.2614 524.882 56.4886C525.73 58.7008 526.155 61.3371 526.155 64.3977V66.9205H497.541V61.375H518.268C518.253 59.7992 517.912 58.3977 517.245 57.1705C516.579 55.928 515.647 54.9508 514.45 54.2386C513.268 53.5265 511.889 53.1705 510.314 53.1705C508.632 53.1705 507.155 53.5795 505.882 54.3977C504.609 55.2008 503.617 56.2614 502.905 57.5795C502.208 58.8826 501.852 60.3144 501.836 61.875V66.7159C501.836 68.7462 502.208 70.4886 502.95 71.9432C503.692 73.3826 504.73 74.4886 506.064 75.2614C507.397 76.0189 508.958 76.3977 510.745 76.3977C511.942 76.3977 513.026 76.2311 513.995 75.8977C514.965 75.5492 515.806 75.0417 516.518 74.375C517.23 73.7083 517.768 72.8826 518.132 71.8977L525.814 72.7614C525.329 74.7917 524.405 76.5644 523.041 78.0795C521.692 79.5795 519.965 80.7462 517.859 81.5795C515.753 82.3977 513.344 82.8068 510.632 82.8068ZM525.623 42.6477V35.5795H562.759V42.6477H548.373V82.125H540.009V42.6477H525.623ZM592.654 48.375C592.442 46.3902 591.548 44.8447 589.972 43.7386C588.411 42.6326 586.381 42.0795 583.881 42.0795C582.124 42.0795 580.616 42.3447 579.358 42.875C578.101 43.4053 577.139 44.125 576.472 45.0341C575.805 45.9432 575.464 46.9811 575.449 48.1477C575.449 49.1174 575.669 49.9583 576.108 50.6705C576.563 51.3826 577.177 51.9886 577.949 52.4886C578.722 52.9735 579.578 53.3826 580.518 53.7159C581.457 54.0492 582.404 54.3295 583.358 54.5568L587.722 55.6477C589.48 56.0568 591.169 56.6098 592.79 57.3068C594.427 58.0038 595.889 58.8826 597.177 59.9432C598.48 61.0038 599.51 62.2841 600.268 63.7841C601.025 65.2841 601.404 67.0417 601.404 69.0568C601.404 71.7841 600.707 74.1856 599.313 76.2614C597.919 78.322 595.904 79.9356 593.268 81.1023C590.646 82.2538 587.472 82.8295 583.745 82.8295C580.124 82.8295 576.98 82.2689 574.313 81.1477C571.661 80.0265 569.586 78.3902 568.086 76.2386C566.601 74.0871 565.798 71.4659 565.677 68.375H573.972C574.093 69.9962 574.593 71.3447 575.472 72.4205C576.351 73.4962 577.495 74.2992 578.904 74.8295C580.328 75.3598 581.919 75.625 583.677 75.625C585.51 75.625 587.116 75.3523 588.495 74.8068C589.889 74.2462 590.98 73.4735 591.768 72.4886C592.555 71.4886 592.957 70.322 592.972 68.9886C592.957 67.7765 592.601 66.7765 591.904 65.9886C591.207 65.1856 590.23 64.5189 588.972 63.9886C587.73 63.4432 586.275 62.9583 584.608 62.5341L579.313 61.1705C575.48 60.1856 572.449 58.6932 570.222 56.6932C568.01 54.678 566.904 52.0038 566.904 48.6705C566.904 45.928 567.646 43.5265 569.131 41.4659C570.631 39.4053 572.669 37.8068 575.245 36.6705C577.821 35.5189 580.737 34.9432 583.995 34.9432C587.298 34.9432 590.192 35.5189 592.677 36.6705C595.177 37.8068 597.139 39.3902 598.563 41.4205C599.987 43.4356 600.722 45.7538 600.768 48.375H592.654Z" fill="#F8F8FA"/>
<path d="M354.972 118.875H352.441L357.05 105.784H359.977L364.592 118.875H362.061L358.565 108.469H358.462L354.972 118.875ZM355.055 113.742H361.959V115.647H355.055V113.742ZM370.781 118.875V105.784H379.168V107.772H373.153V111.326H378.593V113.314H373.153V118.875H370.781ZM386.869 114.746V109.057H389.183V118.875H386.939V117.13H386.837C386.615 117.68 386.251 118.129 385.744 118.479C385.241 118.828 384.621 119.003 383.884 119.003C383.24 119.003 382.671 118.86 382.177 118.575C381.687 118.285 381.303 117.865 381.026 117.315C380.749 116.761 380.611 116.092 380.611 115.308V109.057H382.925V114.95C382.925 115.572 383.095 116.067 383.436 116.433C383.777 116.8 384.224 116.983 384.778 116.983C385.119 116.983 385.45 116.9 385.769 116.734C386.089 116.567 386.351 116.32 386.555 115.992C386.764 115.66 386.869 115.244 386.869 114.746ZM399.322 111.652L397.213 111.882C397.153 111.669 397.048 111.469 396.899 111.281C396.754 111.094 396.558 110.942 396.311 110.827C396.064 110.712 395.762 110.655 395.404 110.655C394.922 110.655 394.517 110.759 394.189 110.968C393.865 111.177 393.705 111.447 393.71 111.78C393.705 112.065 393.81 112.298 394.023 112.477C394.24 112.656 394.598 112.803 395.097 112.918L396.771 113.276C397.7 113.476 398.391 113.793 398.843 114.228C399.298 114.663 399.529 115.232 399.533 115.935C399.529 116.553 399.347 117.098 398.99 117.571C398.636 118.04 398.144 118.406 397.513 118.67C396.882 118.935 396.158 119.067 395.34 119.067C394.138 119.067 393.171 118.815 392.438 118.312C391.705 117.805 391.268 117.1 391.127 116.197L393.384 115.979C393.486 116.423 393.703 116.757 394.036 116.983C394.368 117.209 394.801 117.322 395.333 117.322C395.883 117.322 396.324 117.209 396.656 116.983C396.993 116.757 397.161 116.478 397.161 116.146C397.161 115.864 397.053 115.632 396.835 115.449C396.622 115.266 396.29 115.125 395.838 115.027L394.164 114.675C393.222 114.479 392.525 114.149 392.073 113.685C391.622 113.216 391.398 112.624 391.402 111.908C391.398 111.303 391.562 110.778 391.894 110.335C392.231 109.888 392.698 109.543 393.294 109.3C393.895 109.053 394.588 108.929 395.372 108.929C396.522 108.929 397.428 109.174 398.088 109.664C398.753 110.154 399.164 110.817 399.322 111.652ZM401.441 118.875V109.057H403.755V118.875H401.441ZM402.604 107.663C402.238 107.663 401.922 107.542 401.658 107.299C401.394 107.052 401.262 106.756 401.262 106.411C401.262 106.061 401.394 105.765 401.658 105.522C401.922 105.275 402.238 105.151 402.604 105.151C402.975 105.151 403.29 105.275 403.55 105.522C403.814 105.765 403.947 106.061 403.947 106.411C403.947 106.756 403.814 107.052 403.55 107.299C403.29 107.542 402.975 107.663 402.604 107.663ZM410.417 119.067C409.458 119.067 408.627 118.856 407.924 118.434C407.221 118.012 406.675 117.422 406.288 116.663C405.904 115.905 405.712 115.018 405.712 114.004C405.712 112.99 405.904 112.102 406.288 111.339C406.675 110.576 407.221 109.984 407.924 109.562C408.627 109.14 409.458 108.929 410.417 108.929C411.376 108.929 412.207 109.14 412.91 109.562C413.613 109.984 414.156 110.576 414.54 111.339C414.928 112.102 415.121 112.99 415.121 114.004C415.121 115.018 414.928 115.905 414.54 116.663C414.156 117.422 413.613 118.012 412.91 118.434C412.207 118.856 411.376 119.067 410.417 119.067ZM410.43 117.213C410.95 117.213 411.384 117.07 411.734 116.785C412.083 116.495 412.343 116.107 412.513 115.621C412.688 115.136 412.776 114.594 412.776 113.998C412.776 113.397 412.688 112.854 412.513 112.368C412.343 111.878 412.083 111.488 411.734 111.198C411.384 110.908 410.95 110.763 410.43 110.763C409.897 110.763 409.454 110.908 409.1 111.198C408.751 111.488 408.489 111.878 408.314 112.368C408.143 112.854 408.058 113.397 408.058 113.998C408.058 114.594 408.143 115.136 408.314 115.621C408.489 116.107 408.751 116.495 409.1 116.785C409.454 117.07 409.897 117.213 410.43 117.213ZM419.399 113.122V118.875H417.085V109.057H419.297V110.725H419.412C419.638 110.175 419.998 109.739 420.492 109.415C420.991 109.091 421.607 108.929 422.34 108.929C423.017 108.929 423.607 109.074 424.11 109.364C424.617 109.653 425.009 110.073 425.286 110.623C425.568 111.173 425.706 111.839 425.702 112.624V118.875H423.388V112.982C423.388 112.325 423.218 111.812 422.877 111.441C422.54 111.07 422.073 110.885 421.477 110.885C421.072 110.885 420.712 110.974 420.396 111.153C420.085 111.328 419.84 111.582 419.661 111.914C419.487 112.246 419.399 112.649 419.399 113.122ZM434.005 112.47V114.375H428.112V112.47H434.005ZM438.753 105.784V118.875H436.439V105.784H438.753ZM441.132 118.875V109.057H443.446V118.875H441.132ZM442.296 107.663C441.929 107.663 441.614 107.542 441.35 107.299C441.085 107.052 440.953 106.756 440.953 106.411C440.953 106.061 441.085 105.765 441.35 105.522C441.614 105.275 441.929 105.151 442.296 105.151C442.666 105.151 442.982 105.275 443.242 105.522C443.506 105.765 443.638 106.061 443.638 106.411C443.638 106.756 443.506 107.052 443.242 107.299C442.982 107.542 442.666 107.663 442.296 107.663ZM447.935 115.794L447.929 113.001H448.299L451.828 109.057H454.532L450.191 113.889H449.712L447.935 115.794ZM445.826 118.875V105.784H448.14V118.875H445.826ZM451.988 118.875L448.792 114.407L450.351 112.777L454.755 118.875H451.988ZM460.016 119.067C459.032 119.067 458.181 118.862 457.466 118.453C456.754 118.04 456.206 117.456 455.823 116.702C455.439 115.943 455.248 115.05 455.248 114.023C455.248 113.013 455.439 112.127 455.823 111.364C456.211 110.597 456.752 110.001 457.446 109.575C458.141 109.144 458.957 108.929 459.895 108.929C460.5 108.929 461.071 109.027 461.608 109.223C462.149 109.415 462.626 109.713 463.039 110.118C463.457 110.523 463.785 111.038 464.024 111.665C464.262 112.287 464.382 113.028 464.382 113.889V114.599H456.334V113.039H462.164C462.159 112.596 462.064 112.202 461.876 111.857C461.689 111.507 461.426 111.232 461.09 111.032C460.757 110.832 460.37 110.732 459.926 110.732C459.453 110.732 459.038 110.847 458.68 111.077C458.322 111.303 458.043 111.601 457.843 111.972C457.647 112.338 457.547 112.741 457.542 113.18V114.541C457.542 115.112 457.647 115.602 457.855 116.011C458.064 116.416 458.356 116.727 458.731 116.945C459.106 117.158 459.545 117.264 460.048 117.264C460.385 117.264 460.689 117.217 460.962 117.124C461.235 117.026 461.471 116.883 461.672 116.695C461.872 116.508 462.023 116.276 462.125 115.999L464.286 116.241C464.15 116.812 463.89 117.311 463.506 117.737C463.127 118.159 462.641 118.487 462.049 118.722C461.456 118.952 460.779 119.067 460.016 119.067ZM473.118 105.784V118.875H470.804V105.784H473.118ZM475.498 118.875V109.057H477.811V118.875H475.498ZM476.661 107.663C476.294 107.663 475.979 107.542 475.715 107.299C475.451 107.052 475.319 106.756 475.319 106.411C475.319 106.061 475.451 105.765 475.715 105.522C475.979 105.275 476.294 105.151 476.661 105.151C477.032 105.151 477.347 105.275 477.607 105.522C477.871 105.765 478.003 106.061 478.003 106.411C478.003 106.756 477.871 107.052 477.607 107.299C477.347 107.542 477.032 107.663 476.661 107.663ZM480.293 118.875V105.784H482.607V110.68H482.703C482.822 110.442 482.991 110.188 483.208 109.92C483.425 109.647 483.719 109.415 484.09 109.223C484.461 109.027 484.934 108.929 485.509 108.929C486.268 108.929 486.952 109.123 487.561 109.511C488.175 109.894 488.66 110.463 489.018 111.217C489.381 111.967 489.562 112.888 489.562 113.979C489.562 115.057 489.385 115.973 489.031 116.727C488.677 117.482 488.196 118.057 487.586 118.453C486.977 118.849 486.287 119.048 485.515 119.048C484.953 119.048 484.486 118.954 484.116 118.766C483.745 118.579 483.447 118.353 483.221 118.089C482.999 117.82 482.827 117.567 482.703 117.328H482.569V118.875H480.293ZM482.562 113.966C482.562 114.601 482.652 115.157 482.831 115.634C483.014 116.112 483.276 116.484 483.617 116.753C483.962 117.017 484.38 117.149 484.87 117.149C485.381 117.149 485.809 117.013 486.155 116.74C486.5 116.463 486.76 116.086 486.934 115.609C487.113 115.127 487.203 114.58 487.203 113.966C487.203 113.357 487.116 112.815 486.941 112.342C486.766 111.869 486.506 111.499 486.161 111.23C485.816 110.962 485.385 110.827 484.87 110.827C484.376 110.827 483.956 110.957 483.611 111.217C483.265 111.477 483.003 111.842 482.824 112.31C482.65 112.779 482.562 113.331 482.562 113.966ZM491.529 118.875V109.057H493.772V110.693H493.875C494.054 110.126 494.36 109.69 494.795 109.383C495.234 109.072 495.735 108.916 496.297 108.916C496.425 108.916 496.568 108.923 496.725 108.935C496.887 108.944 497.022 108.959 497.128 108.98V111.109C497.03 111.075 496.875 111.045 496.662 111.019C496.453 110.989 496.25 110.974 496.054 110.974C495.632 110.974 495.253 111.066 494.917 111.249C494.584 111.428 494.322 111.678 494.13 111.997C493.939 112.317 493.843 112.685 493.843 113.103V118.875H491.529ZM501.315 119.073C500.693 119.073 500.132 118.962 499.634 118.741C499.14 118.515 498.748 118.183 498.458 117.744C498.172 117.305 498.029 116.763 498.029 116.12C498.029 115.566 498.132 115.108 498.336 114.746C498.541 114.384 498.82 114.094 499.174 113.876C499.527 113.659 499.926 113.495 500.369 113.384C500.816 113.269 501.279 113.186 501.756 113.135C502.331 113.075 502.798 113.022 503.156 112.975C503.514 112.924 503.774 112.847 503.936 112.745C504.102 112.638 504.185 112.474 504.185 112.253V112.214C504.185 111.733 504.042 111.36 503.757 111.096C503.471 110.832 503.06 110.7 502.523 110.7C501.956 110.7 501.507 110.823 501.174 111.07C500.846 111.317 500.625 111.609 500.51 111.946L498.349 111.639C498.52 111.043 498.801 110.544 499.193 110.143C499.585 109.739 500.064 109.436 500.631 109.236C501.198 109.031 501.824 108.929 502.51 108.929C502.983 108.929 503.454 108.984 503.923 109.095C504.392 109.206 504.82 109.389 505.208 109.645C505.596 109.896 505.907 110.239 506.141 110.674C506.38 111.109 506.499 111.652 506.499 112.304V118.875H504.275V117.526H504.198C504.057 117.799 503.859 118.055 503.603 118.293C503.352 118.528 503.034 118.717 502.651 118.862C502.272 119.003 501.826 119.073 501.315 119.073ZM501.916 117.373C502.38 117.373 502.783 117.281 503.124 117.098C503.465 116.911 503.727 116.663 503.91 116.357C504.098 116.05 504.191 115.715 504.191 115.353V114.196C504.119 114.256 503.995 114.311 503.821 114.362C503.65 114.413 503.458 114.458 503.245 114.496C503.032 114.535 502.821 114.569 502.613 114.599C502.404 114.629 502.223 114.654 502.069 114.675C501.724 114.722 501.415 114.799 501.142 114.906C500.87 115.012 500.654 115.161 500.497 115.353C500.339 115.54 500.26 115.783 500.26 116.082C500.26 116.508 500.416 116.83 500.727 117.047C501.038 117.264 501.434 117.373 501.916 117.373ZM508.826 118.875V109.057H511.069V110.693H511.172C511.35 110.126 511.657 109.69 512.092 109.383C512.531 109.072 513.032 108.916 513.594 108.916C513.722 108.916 513.865 108.923 514.022 108.935C514.184 108.944 514.319 108.959 514.425 108.98V111.109C514.327 111.075 514.172 111.045 513.958 111.019C513.75 110.989 513.547 110.974 513.351 110.974C512.929 110.974 512.55 111.066 512.213 111.249C511.881 111.428 511.619 111.678 511.427 111.997C511.235 112.317 511.14 112.685 511.14 113.103V118.875H508.826ZM517.699 122.557C517.384 122.557 517.092 122.531 516.824 122.48C516.559 122.433 516.349 122.378 516.191 122.314L516.728 120.511C517.064 120.609 517.365 120.656 517.629 120.652C517.893 120.648 518.126 120.565 518.326 120.403C518.53 120.245 518.703 119.981 518.844 119.61L519.042 119.08L515.481 109.057H517.936L520.199 116.472H520.301L522.57 109.057H525.031L521.1 120.064C520.917 120.584 520.674 121.029 520.371 121.4C520.069 121.775 519.698 122.06 519.259 122.256C518.824 122.457 518.305 122.557 517.699 122.557ZM536.07 109.057V110.847H530.266V109.057H536.07ZM531.717 118.875V108.13C531.717 107.469 531.854 106.92 532.126 106.481C532.403 106.042 532.774 105.714 533.238 105.496C533.703 105.279 534.219 105.17 534.785 105.17C535.186 105.17 535.542 105.202 535.853 105.266C536.164 105.33 536.394 105.388 536.543 105.439L536.083 107.229C535.985 107.199 535.861 107.169 535.712 107.139C535.563 107.105 535.397 107.088 535.214 107.088C534.783 107.088 534.479 107.192 534.3 107.401C534.125 107.606 534.037 107.9 534.037 108.283V118.875H531.717ZM541.796 119.067C540.837 119.067 540.006 118.856 539.303 118.434C538.6 118.012 538.054 117.422 537.667 116.663C537.283 115.905 537.091 115.018 537.091 114.004C537.091 112.99 537.283 112.102 537.667 111.339C538.054 110.576 538.6 109.984 539.303 109.562C540.006 109.14 540.837 108.929 541.796 108.929C542.755 108.929 543.586 109.14 544.289 109.562C544.992 109.984 545.535 110.576 545.919 111.339C546.306 112.102 546.5 112.99 546.5 114.004C546.5 115.018 546.306 115.905 545.919 116.663C545.535 117.422 544.992 118.012 544.289 118.434C543.586 118.856 542.755 119.067 541.796 119.067ZM541.809 117.213C542.328 117.213 542.763 117.07 543.113 116.785C543.462 116.495 543.722 116.107 543.892 115.621C544.067 115.136 544.154 114.594 544.154 113.998C544.154 113.397 544.067 112.854 543.892 112.368C543.722 111.878 543.462 111.488 543.113 111.198C542.763 110.908 542.328 110.763 541.809 110.763C541.276 110.763 540.833 110.908 540.479 111.198C540.13 111.488 539.868 111.878 539.693 112.368C539.522 112.854 539.437 113.397 539.437 113.998C539.437 114.594 539.522 115.136 539.693 115.621C539.868 116.107 540.13 116.495 540.479 116.785C540.833 117.07 541.276 117.213 541.809 117.213ZM548.464 118.875V109.057H550.708V110.693H550.81C550.989 110.126 551.296 109.69 551.731 109.383C552.17 109.072 552.67 108.916 553.233 108.916C553.361 108.916 553.503 108.923 553.661 108.935C553.823 108.944 553.957 108.959 554.064 108.98V111.109C553.966 111.075 553.81 111.045 553.597 111.019C553.388 110.989 553.186 110.974 552.99 110.974C552.568 110.974 552.189 111.066 551.852 111.249C551.52 111.428 551.258 111.678 551.066 111.997C550.874 112.317 550.778 112.685 550.778 113.103V118.875H548.464ZM559.593 107.772V105.784H570.037V107.772H565.991V118.875H563.639V107.772H559.593ZM572.262 122.557C571.947 122.557 571.655 122.531 571.386 122.48C571.122 122.433 570.911 122.378 570.753 122.314L571.29 120.511C571.627 120.609 571.927 120.656 572.192 120.652C572.456 120.648 572.688 120.565 572.888 120.403C573.093 120.245 573.265 119.981 573.406 119.61L573.604 119.08L570.044 109.057H572.498L574.761 116.472H574.863L577.133 109.057H579.594L575.662 120.064C575.479 120.584 575.236 121.029 574.934 121.4C574.631 121.775 574.26 122.06 573.822 122.256C573.387 122.457 572.867 122.557 572.262 122.557ZM581.195 122.557V109.057H583.47V110.68H583.605C583.724 110.442 583.892 110.188 584.11 109.92C584.327 109.647 584.621 109.415 584.992 109.223C585.362 109.027 585.835 108.929 586.411 108.929C587.169 108.929 587.853 109.123 588.463 109.511C589.076 109.894 589.562 110.463 589.92 111.217C590.282 111.967 590.463 112.888 590.463 113.979C590.463 115.057 590.286 115.973 589.933 116.727C589.579 117.482 589.097 118.057 588.488 118.453C587.879 118.849 587.188 119.048 586.417 119.048C585.855 119.048 585.388 118.954 585.017 118.766C584.646 118.579 584.348 118.353 584.122 118.089C583.901 117.82 583.728 117.567 583.605 117.328H583.509V122.557H581.195ZM583.464 113.966C583.464 114.601 583.553 115.157 583.732 115.634C583.916 116.112 584.178 116.484 584.519 116.753C584.864 117.017 585.281 117.149 585.771 117.149C586.283 117.149 586.711 117.013 587.056 116.74C587.401 116.463 587.661 116.086 587.836 115.609C588.015 115.127 588.105 114.58 588.105 113.966C588.105 113.357 588.017 112.815 587.843 112.342C587.668 111.869 587.408 111.499 587.063 111.23C586.718 110.962 586.287 110.827 585.771 110.827C585.277 110.827 584.857 110.957 584.512 111.217C584.167 111.477 583.905 111.842 583.726 112.31C583.551 112.779 583.464 113.331 583.464 113.966ZM596.791 119.067C595.807 119.067 594.957 118.862 594.241 118.453C593.529 118.04 592.982 117.456 592.598 116.702C592.215 115.943 592.023 115.05 592.023 114.023C592.023 113.013 592.215 112.127 592.598 111.364C592.986 110.597 593.527 110.001 594.222 109.575C594.916 109.144 595.732 108.929 596.67 108.929C597.275 108.929 597.846 109.027 598.383 109.223C598.924 109.415 599.401 109.713 599.815 110.118C600.232 110.523 600.561 111.038 600.799 111.665C601.038 112.287 601.157 113.028 601.157 113.889V114.599H593.11V113.039H598.939C598.935 112.596 598.839 112.202 598.651 111.857C598.464 111.507 598.202 111.232 597.865 111.032C597.533 110.832 597.145 110.732 596.702 110.732C596.229 110.732 595.813 110.847 595.455 111.077C595.097 111.303 594.818 111.601 594.618 111.972C594.422 112.338 594.322 112.741 594.318 113.18V114.541C594.318 115.112 594.422 115.602 594.631 116.011C594.84 116.416 595.132 116.727 595.507 116.945C595.882 117.158 596.32 117.264 596.823 117.264C597.16 117.264 597.465 117.217 597.737 117.124C598.01 117.026 598.247 116.883 598.447 116.695C598.647 116.508 598.798 116.276 598.901 115.999L601.061 116.241C600.925 116.812 600.665 117.311 600.281 117.737C599.902 118.159 599.416 118.487 598.824 118.722C598.232 118.952 597.554 119.067 596.791 119.067ZM610.331 109.383C610.272 108.825 610.02 108.39 609.577 108.079C609.138 107.768 608.567 107.612 607.864 107.612C607.37 107.612 606.946 107.687 606.592 107.836C606.238 107.985 605.968 108.187 605.78 108.443C605.593 108.699 605.497 108.991 605.493 109.319C605.493 109.592 605.554 109.828 605.678 110.028C605.806 110.229 605.978 110.399 606.196 110.54C606.413 110.676 606.654 110.791 606.918 110.885C607.182 110.979 607.449 111.058 607.717 111.121L608.944 111.428C609.439 111.543 609.914 111.699 610.37 111.895C610.83 112.091 611.241 112.338 611.603 112.636C611.97 112.935 612.26 113.295 612.473 113.717C612.686 114.138 612.792 114.633 612.792 115.2C612.792 115.967 612.596 116.642 612.204 117.226C611.812 117.805 611.245 118.259 610.504 118.587C609.767 118.911 608.874 119.073 607.826 119.073C606.807 119.073 605.923 118.915 605.173 118.6C604.427 118.285 603.843 117.825 603.422 117.219C603.004 116.614 602.778 115.877 602.744 115.008H605.077C605.111 115.464 605.252 115.843 605.499 116.146C605.746 116.448 606.068 116.674 606.464 116.823C606.865 116.972 607.312 117.047 607.806 117.047C608.322 117.047 608.774 116.97 609.162 116.817C609.554 116.659 609.86 116.442 610.082 116.165C610.304 115.884 610.417 115.555 610.421 115.18C610.417 114.839 610.316 114.558 610.12 114.337C609.924 114.111 609.65 113.923 609.296 113.774C608.946 113.621 608.537 113.484 608.069 113.365L606.579 112.982C605.501 112.705 604.649 112.285 604.022 111.722C603.4 111.156 603.089 110.403 603.089 109.466C603.089 108.695 603.298 108.019 603.716 107.44C604.137 106.86 604.711 106.411 605.435 106.091C606.159 105.767 606.98 105.605 607.896 105.605C608.825 105.605 609.639 105.767 610.338 106.091C611.041 106.411 611.593 106.856 611.993 107.427C612.394 107.994 612.6 108.646 612.613 109.383H610.331ZM619.087 119.067C618.107 119.067 617.265 118.852 616.562 118.421C615.863 117.991 615.324 117.396 614.945 116.638C614.57 115.875 614.382 114.997 614.382 114.004C614.382 113.007 614.574 112.127 614.958 111.364C615.341 110.597 615.882 110.001 616.581 109.575C617.284 109.144 618.115 108.929 619.074 108.929C619.871 108.929 620.576 109.076 621.19 109.37C621.808 109.66 622.3 110.071 622.666 110.604C623.033 111.132 623.242 111.75 623.293 112.457H621.081C620.992 111.984 620.779 111.59 620.442 111.275C620.11 110.955 619.664 110.795 619.106 110.795C618.633 110.795 618.218 110.923 617.86 111.179C617.502 111.43 617.222 111.793 617.022 112.266C616.826 112.739 616.728 113.305 616.728 113.966C616.728 114.635 616.826 115.21 617.022 115.692C617.218 116.169 617.493 116.538 617.847 116.798C618.205 117.053 618.624 117.181 619.106 117.181C619.447 117.181 619.752 117.117 620.02 116.989C620.293 116.857 620.521 116.668 620.704 116.42C620.887 116.173 621.013 115.873 621.081 115.519H623.293C623.237 116.214 623.033 116.83 622.679 117.366C622.325 117.899 621.844 118.317 621.235 118.619C620.625 118.918 619.909 119.067 619.087 119.067ZM625.193 118.875V109.057H627.436V110.693H627.539C627.718 110.126 628.025 109.69 628.459 109.383C628.898 109.072 629.399 108.916 629.961 108.916C630.089 108.916 630.232 108.923 630.39 108.935C630.551 108.944 630.686 108.959 630.792 108.98V111.109C630.694 111.075 630.539 111.045 630.326 111.019C630.117 110.989 629.914 110.974 629.718 110.974C629.297 110.974 628.917 111.066 628.581 111.249C628.248 111.428 627.986 111.678 627.794 111.997C627.603 112.317 627.507 112.685 627.507 113.103V118.875H625.193ZM632.33 118.875V109.057H634.643V118.875H632.33ZM633.493 107.663C633.126 107.663 632.811 107.542 632.547 107.299C632.283 107.052 632.151 106.756 632.151 106.411C632.151 106.061 632.283 105.765 632.547 105.522C632.811 105.275 633.126 105.151 633.493 105.151C633.864 105.151 634.179 105.275 634.439 105.522C634.703 105.765 634.835 106.061 634.835 106.411C634.835 106.756 634.703 107.052 634.439 107.299C634.179 107.542 633.864 107.663 633.493 107.663ZM637.023 122.557V109.057H639.298V110.68H639.433C639.552 110.442 639.72 110.188 639.938 109.92C640.155 109.647 640.449 109.415 640.82 109.223C641.191 109.027 641.664 108.929 642.239 108.929C642.997 108.929 643.681 109.123 644.291 109.511C644.904 109.894 645.39 110.463 645.748 111.217C646.11 111.967 646.291 112.888 646.291 113.979C646.291 115.057 646.115 115.973 645.761 116.727C645.407 117.482 644.926 118.057 644.316 118.453C643.707 118.849 643.017 119.048 642.245 119.048C641.683 119.048 641.216 118.954 640.845 118.766C640.475 118.579 640.176 118.353 639.95 118.089C639.729 117.82 639.556 117.567 639.433 117.328H639.337V122.557H637.023ZM639.292 113.966C639.292 114.601 639.382 115.157 639.561 115.634C639.744 116.112 640.006 116.484 640.347 116.753C640.692 117.017 641.11 117.149 641.6 117.149C642.111 117.149 642.539 117.013 642.884 116.74C643.23 116.463 643.49 116.086 643.664 115.609C643.843 115.127 643.933 114.58 643.933 113.966C643.933 113.357 643.845 112.815 643.671 112.342C643.496 111.869 643.236 111.499 642.891 111.23C642.546 110.962 642.115 110.827 641.6 110.827C641.105 110.827 640.686 110.957 640.34 111.217C639.995 111.477 639.733 111.842 639.554 112.31C639.379 112.779 639.292 113.331 639.292 113.966ZM653.176 109.057V110.847H647.531V109.057H653.176ZM648.925 106.705H651.239V115.922C651.239 116.233 651.286 116.472 651.379 116.638C651.477 116.8 651.605 116.911 651.763 116.97C651.921 117.03 652.095 117.06 652.287 117.06C652.432 117.06 652.564 117.049 652.683 117.028C652.807 117.006 652.901 116.987 652.965 116.97L653.355 118.779C653.231 118.822 653.054 118.869 652.824 118.92C652.598 118.971 652.321 119.001 651.993 119.009C651.414 119.026 650.892 118.939 650.427 118.747C649.963 118.551 649.594 118.249 649.321 117.839C649.053 117.43 648.921 116.919 648.925 116.305V106.705Z" fill="white" fill-opacity="0.75"/>
<defs>
<linearGradient id="paint0_linear_1810_576" x1="135" y1="194.954" x2="375.514" y2="-9.52118" gradientUnits="userSpaceOnUse">
<stop stop-color="#EB3D3D"/>
<stop offset="0.119792" stop-color="#ECB100"/>
<stop offset="0.244792" stop-color="#78DA17"/>
<stop offset="0.364583" stop-color="#15D545"/>
<stop offset="0.5" stop-color="#23BCBC"/>
<stop offset="0.625" stop-color="#648BFF"/>
<stop offset="0.75" stop-color="#B468FF"/>
<stop offset="0.875" stop-color="#EB43C1"/>
<stop offset="1" stop-color="#EB3C3C"/>
</linearGradient>
</defs>
</svg>
