<svg width="900" height="264" viewBox="0 0 900 264" fill="none" xmlns="http://www.w3.org/2000/svg">
<rect x="120.704" y="31" width="251" height="200" rx="8" fill="#2D2D2D"/>
<path d="M446.613 159.773V102.227H454.386V159.773H446.613ZM421.704 134.864V127.136H479.295V134.864H421.704Z" fill="#F8F8FA"/>
<g clip-path="url(#clip0_2083_660)">
<path d="M599.328 45.8182V56H597.687L592.889 49.0646H592.805V56H590.96V45.8182H592.611L597.403 52.7585H597.493V45.8182H599.328ZM604.638 56.1491C603.873 56.1491 603.212 55.9901 602.655 55.6719C602.101 55.3504 601.675 54.8963 601.377 54.3097C601.079 53.7197 600.93 53.0253 600.93 52.2266C600.93 51.4411 601.079 50.7517 601.377 50.1584C601.679 49.5618 602.1 49.0978 602.64 48.7663C603.18 48.4316 603.815 48.2642 604.544 48.2642C605.015 48.2642 605.459 48.3404 605.876 48.4929C606.297 48.642 606.668 48.8741 606.99 49.1889C607.315 49.5038 607.57 49.9048 607.756 50.392C607.941 50.8759 608.034 51.4527 608.034 52.1222V52.674H601.775V51.4609H606.309C606.306 51.1162 606.231 50.8097 606.085 50.5412C605.939 50.2694 605.735 50.0556 605.474 49.8999C605.215 49.7441 604.914 49.6662 604.569 49.6662C604.201 49.6662 603.878 49.7557 603.599 49.9347C603.321 50.1103 603.104 50.3423 602.948 50.6307C602.796 50.9157 602.718 51.2289 602.714 51.5703V52.6293C602.714 53.0734 602.796 53.4545 602.958 53.7727C603.12 54.0876 603.347 54.3295 603.639 54.4986C603.931 54.6643 604.272 54.7472 604.663 54.7472C604.925 54.7472 605.162 54.7107 605.374 54.6378C605.586 54.5616 605.77 54.4505 605.926 54.3047C606.082 54.1589 606.199 53.9782 606.279 53.7628L607.959 53.9517C607.853 54.3958 607.651 54.7836 607.353 55.1151C607.058 55.4432 606.68 55.6984 606.219 55.8807C605.759 56.0597 605.232 56.1491 604.638 56.1491ZM611.092 56L608.934 48.3636H610.768L612.111 53.733H612.18L613.552 48.3636H615.367L616.739 53.7031H616.814L618.136 48.3636H619.976L617.813 56H615.939L614.507 50.8395H614.403L612.971 56H611.092ZM624.705 56V48.3636H626.505V56H624.705ZM625.61 47.2798C625.325 47.2798 625.08 47.1854 624.874 46.9964C624.669 46.8042 624.566 46.5739 624.566 46.3054C624.566 46.0336 624.669 45.8033 624.874 45.6143C625.08 45.4221 625.325 45.326 625.61 45.326C625.898 45.326 626.143 45.4221 626.346 45.6143C626.551 45.8033 626.654 46.0336 626.654 46.3054C626.654 46.5739 626.551 46.8042 626.346 46.9964C626.143 47.1854 625.898 47.2798 625.61 47.2798ZM632.169 48.3636V49.7557H627.779V48.3636H632.169ZM628.862 46.5341H630.662V53.7031C630.662 53.9451 630.699 54.1307 630.772 54.2599C630.848 54.3859 630.947 54.4721 631.07 54.5185C631.193 54.5649 631.328 54.5881 631.478 54.5881C631.59 54.5881 631.693 54.5798 631.786 54.5632C631.882 54.5466 631.955 54.5317 632.005 54.5185L632.308 55.9254C632.212 55.9586 632.074 55.995 631.895 56.0348C631.719 56.0746 631.504 56.0978 631.249 56.1044C630.798 56.1177 630.392 56.0497 630.031 55.9006C629.67 55.7481 629.383 55.5128 629.171 55.1946C628.962 54.8764 628.859 54.4787 628.862 54.0014V46.5341ZM636.972 56.1491C636.207 56.1491 635.546 55.9901 634.989 55.6719C634.435 55.3504 634.009 54.8963 633.711 54.3097C633.413 53.7197 633.264 53.0253 633.264 52.2266C633.264 51.4411 633.413 50.7517 633.711 50.1584C634.013 49.5618 634.434 49.0978 634.974 48.7663C635.514 48.4316 636.149 48.2642 636.878 48.2642C637.349 48.2642 637.793 48.3404 638.21 48.4929C638.631 48.642 639.002 48.8741 639.324 49.1889C639.649 49.5038 639.904 49.9048 640.09 50.392C640.275 50.8759 640.368 51.4527 640.368 52.1222V52.674H634.109V51.4609H638.643C638.64 51.1162 638.565 50.8097 638.419 50.5412C638.273 50.2694 638.069 50.0556 637.808 49.8999C637.549 49.7441 637.247 49.6662 636.903 49.6662C636.535 49.6662 636.212 49.7557 635.933 49.9347C635.655 50.1103 635.438 50.3423 635.282 50.6307C635.13 50.9157 635.052 51.2289 635.048 51.5703V52.6293C635.048 53.0734 635.13 53.4545 635.292 53.7727C635.454 54.0876 635.681 54.3295 635.973 54.4986C636.265 54.6643 636.606 54.7472 636.997 54.7472C637.259 54.7472 637.496 54.7107 637.708 54.6378C637.92 54.5616 638.104 54.4505 638.26 54.3047C638.416 54.1589 638.533 53.9782 638.613 53.7628L640.293 53.9517C640.187 54.3958 639.985 54.7836 639.687 55.1151C639.392 55.4432 639.014 55.6984 638.553 55.8807C638.093 56.0597 637.566 56.1491 636.972 56.1491ZM641.891 56V48.3636H643.611V49.6612H643.7C643.859 49.2237 644.123 48.8823 644.491 48.6371C644.859 48.3885 645.298 48.2642 645.808 48.2642C646.325 48.2642 646.761 48.3902 647.116 48.642C647.474 48.8906 647.726 49.2304 647.871 49.6612H647.951C648.12 49.237 648.405 48.8989 648.806 48.647C649.21 48.3918 649.689 48.2642 650.243 48.2642C650.945 48.2642 651.519 48.4863 651.963 48.9304C652.407 49.3745 652.629 50.0225 652.629 50.8743V56H650.824V51.1527C650.824 50.6787 650.699 50.3324 650.447 50.1136C650.195 49.8916 649.887 49.7805 649.522 49.7805C649.088 49.7805 648.748 49.9164 648.503 50.1882C648.261 50.4567 648.14 50.8063 648.14 51.2372V56H646.375V51.0781C646.375 50.6837 646.256 50.3688 646.017 50.1335C645.782 49.8982 645.473 49.7805 645.092 49.7805C644.834 49.7805 644.598 49.8468 644.386 49.9794C644.174 50.1087 644.005 50.2926 643.879 50.5312C643.753 50.7666 643.69 51.0417 643.69 51.3565V56H641.891ZM661.259 56.1491C660.496 56.1491 659.842 55.9818 659.295 55.647C658.751 55.3123 658.332 54.8499 658.037 54.2599C657.745 53.6667 657.6 52.9839 657.6 52.2116C657.6 51.4361 657.749 50.7517 658.047 50.1584C658.345 49.5618 658.766 49.0978 659.31 48.7663C659.857 48.4316 660.503 48.2642 661.249 48.2642C661.868 48.2642 662.417 48.3786 662.894 48.6072C663.375 48.8326 663.758 49.1525 664.043 49.5668C664.328 49.9777 664.49 50.4583 664.53 51.0085H662.81C662.74 50.6406 662.574 50.334 662.313 50.0888C662.054 49.8402 661.708 49.7159 661.274 49.7159C660.906 49.7159 660.582 49.8153 660.304 50.0142C660.026 50.2098 659.809 50.4915 659.653 50.8594C659.5 51.2273 659.424 51.6681 659.424 52.1818C659.424 52.7022 659.5 53.1496 659.653 53.5241C659.805 53.8954 660.019 54.1821 660.294 54.3842C660.573 54.5831 660.899 54.6825 661.274 54.6825C661.539 54.6825 661.776 54.6328 661.984 54.5334C662.197 54.4306 662.374 54.2831 662.516 54.0909C662.659 53.8987 662.757 53.665 662.81 53.3899H664.53C664.487 53.9302 664.328 54.4091 664.053 54.8267C663.778 55.241 663.403 55.5658 662.929 55.8011C662.455 56.0331 661.898 56.1491 661.259 56.1491ZM669.339 56.1491C668.593 56.1491 667.947 55.9851 667.4 55.657C666.853 55.3288 666.429 54.8698 666.127 54.2798C665.829 53.6899 665.68 53.0005 665.68 52.2116C665.68 51.4228 665.829 50.7318 666.127 50.1385C666.429 49.5452 666.853 49.0845 667.4 48.7564C667.947 48.4283 668.593 48.2642 669.339 48.2642C670.084 48.2642 670.731 48.4283 671.278 48.7564C671.824 49.0845 672.247 49.5452 672.545 50.1385C672.847 50.7318 672.998 51.4228 672.998 52.2116C672.998 53.0005 672.847 53.6899 672.545 54.2798C672.247 54.8698 671.824 55.3288 671.278 55.657C670.731 55.9851 670.084 56.1491 669.339 56.1491ZM669.349 54.7074C669.753 54.7074 670.091 54.5964 670.363 54.3743C670.635 54.1489 670.837 53.8473 670.969 53.4695C671.105 53.0916 671.173 52.6707 671.173 52.2067C671.173 51.7393 671.105 51.3168 670.969 50.9389C670.837 50.5578 670.635 50.2545 670.363 50.0291C670.091 49.8037 669.753 49.6911 669.349 49.6911C668.934 49.6911 668.59 49.8037 668.315 50.0291C668.043 50.2545 667.839 50.5578 667.703 50.9389C667.57 51.3168 667.504 51.7393 667.504 52.2067C667.504 52.6707 667.57 53.0916 667.703 53.4695C667.839 53.8473 668.043 54.1489 668.315 54.3743C668.59 54.5964 668.934 54.7074 669.349 54.7074ZM676.325 45.8182V56H674.525V45.8182H676.325ZM679.975 45.8182V56H678.176V45.8182H679.975ZM685.207 56.1491C684.441 56.1491 683.78 55.9901 683.223 55.6719C682.67 55.3504 682.244 54.8963 681.945 54.3097C681.647 53.7197 681.498 53.0253 681.498 52.2266C681.498 51.4411 681.647 50.7517 681.945 50.1584C682.247 49.5618 682.668 49.0978 683.208 48.7663C683.748 48.4316 684.383 48.2642 685.112 48.2642C685.583 48.2642 686.027 48.3404 686.445 48.4929C686.866 48.642 687.237 48.8741 687.558 49.1889C687.883 49.5038 688.138 49.9048 688.324 50.392C688.51 50.8759 688.602 51.4527 688.602 52.1222V52.674H682.343V51.4609H686.877C686.874 51.1162 686.799 50.8097 686.653 50.5412C686.508 50.2694 686.304 50.0556 686.042 49.8999C685.783 49.7441 685.482 49.6662 685.137 49.6662C684.769 49.6662 684.446 49.7557 684.168 49.9347C683.889 50.1103 683.672 50.3423 683.516 50.6307C683.364 50.9157 683.286 51.2289 683.283 51.5703V52.6293C683.283 53.0734 683.364 53.4545 683.526 53.7727C683.689 54.0876 683.916 54.3295 684.207 54.4986C684.499 54.6643 684.841 54.7472 685.232 54.7472C685.493 54.7472 685.73 54.7107 685.943 54.6378C686.155 54.5616 686.339 54.4505 686.494 54.3047C686.65 54.1589 686.768 53.9782 686.847 53.7628L688.528 53.9517C688.422 54.3958 688.22 54.7836 687.921 55.1151C687.626 55.4432 687.248 55.6984 686.788 55.8807C686.327 56.0597 685.8 56.1491 685.207 56.1491ZM693.456 56.1491C692.694 56.1491 692.039 55.9818 691.492 55.647C690.949 55.3123 690.529 54.8499 690.234 54.2599C689.943 53.6667 689.797 52.9839 689.797 52.2116C689.797 51.4361 689.946 50.7517 690.244 50.1584C690.543 49.5618 690.963 49.0978 691.507 48.7663C692.054 48.4316 692.7 48.2642 693.446 48.2642C694.066 48.2642 694.614 48.3786 695.092 48.6072C695.572 48.8326 695.955 49.1525 696.24 49.5668C696.525 49.9777 696.687 50.4583 696.727 51.0085H695.007C694.937 50.6406 694.772 50.334 694.51 50.0888C694.251 49.8402 693.905 49.7159 693.471 49.7159C693.103 49.7159 692.78 49.8153 692.501 50.0142C692.223 50.2098 692.006 50.4915 691.85 50.8594C691.698 51.2273 691.621 51.6681 691.621 52.1818C691.621 52.7022 691.698 53.1496 691.85 53.5241C692.003 53.8954 692.216 54.1821 692.491 54.3842C692.77 54.5831 693.096 54.6825 693.471 54.6825C693.736 54.6825 693.973 54.6328 694.182 54.5334C694.394 54.4306 694.571 54.2831 694.714 54.0909C694.856 53.8987 694.954 53.665 695.007 53.3899H696.727C696.684 53.9302 696.525 54.4091 696.25 54.8267C695.975 55.241 695.6 55.5658 695.126 55.8011C694.652 56.0331 694.096 56.1491 693.456 56.1491ZM702.018 48.3636V49.7557H697.628V48.3636H702.018ZM698.712 46.5341H700.512V53.7031C700.512 53.9451 700.548 54.1307 700.621 54.2599C700.697 54.3859 700.797 54.4721 700.919 54.5185C701.042 54.5649 701.178 54.5881 701.327 54.5881C701.44 54.5881 701.543 54.5798 701.635 54.5632C701.732 54.5466 701.804 54.5317 701.854 54.5185L702.157 55.9254C702.061 55.9586 701.924 55.995 701.745 56.0348C701.569 56.0746 701.354 56.0978 701.098 56.1044C700.648 56.1177 700.242 56.0497 699.88 55.9006C699.519 55.7481 699.232 55.5128 699.02 55.1946C698.812 54.8764 698.709 54.4787 698.712 54.0014V46.5341ZM706.822 56.1491C706.056 56.1491 705.395 55.9901 704.838 55.6719C704.285 55.3504 703.859 54.8963 703.561 54.3097C703.262 53.7197 703.113 53.0253 703.113 52.2266C703.113 51.4411 703.262 50.7517 703.561 50.1584C703.862 49.5618 704.283 49.0978 704.823 48.7663C705.364 48.4316 705.998 48.2642 706.728 48.2642C707.198 48.2642 707.642 48.3404 708.06 48.4929C708.481 48.642 708.852 48.8741 709.174 49.1889C709.498 49.5038 709.754 49.9048 709.939 50.392C710.125 50.8759 710.218 51.4527 710.218 52.1222V52.674H703.958V51.4609H708.492C708.489 51.1162 708.415 50.8097 708.269 50.5412C708.123 50.2694 707.919 50.0556 707.657 49.8999C707.399 49.7441 707.097 49.6662 706.752 49.6662C706.384 49.6662 706.061 49.7557 705.783 49.9347C705.505 50.1103 705.287 50.3423 705.132 50.6307C704.979 50.9157 704.901 51.2289 704.898 51.5703V52.6293C704.898 53.0734 704.979 53.4545 705.142 53.7727C705.304 54.0876 705.531 54.3295 705.823 54.4986C706.114 54.6643 706.456 54.7472 706.847 54.7472C707.109 54.7472 707.346 54.7107 707.558 54.6378C707.77 54.5616 707.954 54.4505 708.11 54.3047C708.265 54.1589 708.383 53.9782 708.463 53.7628L710.143 53.9517C710.037 54.3958 709.835 54.7836 709.536 55.1151C709.242 55.4432 708.864 55.6984 708.403 55.8807C707.942 56.0597 707.415 56.1491 706.822 56.1491ZM714.574 56.1342C713.974 56.1342 713.437 55.9801 712.963 55.6719C712.489 55.3636 712.115 54.9162 711.84 54.3295C711.564 53.7429 711.427 53.0303 711.427 52.1918C711.427 51.3433 711.566 50.6274 711.845 50.044C712.126 49.4574 712.506 49.0149 712.983 48.7166C713.46 48.415 713.992 48.2642 714.579 48.2642C715.026 48.2642 715.394 48.3404 715.683 48.4929C715.971 48.642 716.2 48.8227 716.369 49.0348C716.538 49.2436 716.669 49.4408 716.761 49.6264H716.836V45.8182H718.641V56H716.871V54.7969H716.761C716.669 54.9825 716.534 55.1797 716.359 55.3885C716.183 55.594 715.951 55.7696 715.663 55.9155C715.374 56.0613 715.011 56.1342 714.574 56.1342ZM715.076 54.6577C715.457 54.6577 715.782 54.5549 716.051 54.3494C716.319 54.1406 716.523 53.8506 716.662 53.4794C716.801 53.1082 716.871 52.6757 716.871 52.1818C716.871 51.688 716.801 51.2588 716.662 50.8942C716.526 50.5296 716.324 50.2462 716.055 50.044C715.79 49.8419 715.464 49.7408 715.076 49.7408C714.675 49.7408 714.34 49.8452 714.072 50.054C713.803 50.2628 713.601 50.5511 713.465 50.919C713.329 51.2869 713.261 51.7079 713.261 52.1818C713.261 52.6591 713.329 53.085 713.465 53.4595C713.604 53.8307 713.808 54.1241 714.077 54.3395C714.349 54.5516 714.682 54.6577 715.076 54.6577Z" fill="#F8F8FA"/>
<rect width="143" height="37" transform="translate(583.295 184)" fill="#444444"/>
<path d="M600.915 208H598.947L602.531 197.818H604.808L608.398 208H606.429L603.709 199.906H603.63L600.915 208ZM600.98 204.008H606.349V205.489H600.98V204.008ZM612.26 208.134C611.661 208.134 611.124 207.98 610.65 207.672C610.176 207.364 609.801 206.916 609.526 206.33C609.251 205.743 609.113 205.03 609.113 204.192C609.113 203.343 609.253 202.627 609.531 202.044C609.813 201.457 610.192 201.015 610.67 200.717C611.147 200.415 611.679 200.264 612.265 200.264C612.713 200.264 613.081 200.34 613.369 200.493C613.657 200.642 613.886 200.823 614.055 201.035C614.224 201.244 614.355 201.441 614.448 201.626H614.523V197.818H616.327V208H614.557V206.797H614.448C614.355 206.982 614.221 207.18 614.045 207.388C613.87 207.594 613.638 207.77 613.349 207.915C613.061 208.061 612.698 208.134 612.26 208.134ZM612.763 206.658C613.144 206.658 613.469 206.555 613.737 206.349C614.006 206.141 614.209 205.851 614.349 205.479C614.488 205.108 614.557 204.676 614.557 204.182C614.557 203.688 614.488 203.259 614.349 202.894C614.213 202.53 614.01 202.246 613.742 202.044C613.477 201.842 613.15 201.741 612.763 201.741C612.362 201.741 612.027 201.845 611.758 202.054C611.49 202.263 611.288 202.551 611.152 202.919C611.016 203.287 610.948 203.708 610.948 204.182C610.948 204.659 611.016 205.085 611.152 205.46C611.291 205.831 611.495 206.124 611.763 206.339C612.035 206.552 612.368 206.658 612.763 206.658ZM621.079 208.134C620.479 208.134 619.942 207.98 619.468 207.672C618.994 207.364 618.62 206.916 618.344 206.33C618.069 205.743 617.932 205.03 617.932 204.192C617.932 203.343 618.071 202.627 618.349 202.044C618.631 201.457 619.011 201.015 619.488 200.717C619.965 200.415 620.497 200.264 621.084 200.264C621.531 200.264 621.899 200.34 622.188 200.493C622.476 200.642 622.705 200.823 622.874 201.035C623.043 201.244 623.174 201.441 623.266 201.626H623.341V197.818H625.146V208H623.376V206.797H623.266C623.174 206.982 623.039 207.18 622.864 207.388C622.688 207.594 622.456 207.77 622.168 207.915C621.879 208.061 621.516 208.134 621.079 208.134ZM621.581 206.658C621.962 206.658 622.287 206.555 622.555 206.349C622.824 206.141 623.028 205.851 623.167 205.479C623.306 205.108 623.376 204.676 623.376 204.182C623.376 203.688 623.306 203.259 623.167 202.894C623.031 202.53 622.829 202.246 622.56 202.044C622.295 201.842 621.969 201.741 621.581 201.741C621.18 201.741 620.845 201.845 620.577 202.054C620.308 202.263 620.106 202.551 619.97 202.919C619.834 203.287 619.766 203.708 619.766 204.182C619.766 204.659 619.834 205.085 619.97 205.46C620.109 205.831 620.313 206.124 620.582 206.339C620.853 206.552 621.187 206.658 621.581 206.658ZM634.349 200.364V201.756H629.959V200.364H634.349ZM631.043 198.534H632.843V205.703C632.843 205.945 632.879 206.131 632.952 206.26C633.028 206.386 633.128 206.472 633.251 206.518C633.373 206.565 633.509 206.588 633.658 206.588C633.771 206.588 633.874 206.58 633.966 206.563C634.063 206.547 634.135 206.532 634.185 206.518L634.488 207.925C634.392 207.959 634.255 207.995 634.076 208.035C633.9 208.075 633.685 208.098 633.43 208.104C632.979 208.118 632.573 208.05 632.211 207.901C631.85 207.748 631.564 207.513 631.351 207.195C631.143 206.876 631.04 206.479 631.043 206.001V198.534ZM639.103 208.149C638.358 208.149 637.711 207.985 637.164 207.657C636.618 207.329 636.193 206.87 635.892 206.28C635.593 205.69 635.444 205 635.444 204.212C635.444 203.423 635.593 202.732 635.892 202.138C636.193 201.545 636.618 201.085 637.164 200.756C637.711 200.428 638.358 200.264 639.103 200.264C639.849 200.264 640.495 200.428 641.042 200.756C641.589 201.085 642.012 201.545 642.31 202.138C642.612 202.732 642.762 203.423 642.762 204.212C642.762 205 642.612 205.69 642.31 206.28C642.012 206.87 641.589 207.329 641.042 207.657C640.495 207.985 639.849 208.149 639.103 208.149ZM639.113 206.707C639.518 206.707 639.856 206.596 640.127 206.374C640.399 206.149 640.601 205.847 640.734 205.469C640.87 205.092 640.938 204.671 640.938 204.207C640.938 203.739 640.87 203.317 640.734 202.939C640.601 202.558 640.399 202.254 640.127 202.029C639.856 201.804 639.518 201.691 639.113 201.691C638.699 201.691 638.354 201.804 638.079 202.029C637.807 202.254 637.604 202.558 637.468 202.939C637.335 203.317 637.269 203.739 637.269 204.207C637.269 204.671 637.335 205.092 637.468 205.469C637.604 205.847 637.807 206.149 638.079 206.374C638.354 206.596 638.699 206.707 639.113 206.707ZM647.763 208V200.364H649.562V208H647.763ZM648.667 199.28C648.382 199.28 648.137 199.185 647.932 198.996C647.726 198.804 647.623 198.574 647.623 198.305C647.623 198.034 647.726 197.803 647.932 197.614C648.137 197.422 648.382 197.326 648.667 197.326C648.956 197.326 649.201 197.422 649.403 197.614C649.609 197.803 649.711 198.034 649.711 198.305C649.711 198.574 649.609 198.804 649.403 198.996C649.201 199.185 648.956 199.28 648.667 199.28ZM653.213 203.526V208H651.413V200.364H653.133V201.661H653.223C653.398 201.234 653.678 200.894 654.063 200.642C654.451 200.39 654.93 200.264 655.5 200.264C656.027 200.264 656.486 200.377 656.877 200.602C657.271 200.828 657.576 201.154 657.792 201.582C658.01 202.009 658.118 202.528 658.115 203.138V208H656.315V203.416C656.315 202.906 656.182 202.506 655.917 202.218C655.655 201.93 655.292 201.786 654.828 201.786C654.514 201.786 654.234 201.855 653.988 201.994C653.746 202.13 653.556 202.327 653.417 202.586C653.281 202.844 653.213 203.158 653.213 203.526ZM666.492 200.364L663.772 208H661.784L659.064 200.364H660.983L662.738 206.036H662.818L664.578 200.364H666.492ZM670.858 208.149C670.093 208.149 669.431 207.99 668.874 207.672C668.321 207.35 667.895 206.896 667.597 206.31C667.298 205.72 667.149 205.025 667.149 204.227C667.149 203.441 667.298 202.752 667.597 202.158C667.898 201.562 668.319 201.098 668.86 200.766C669.4 200.432 670.035 200.264 670.764 200.264C671.234 200.264 671.678 200.34 672.096 200.493C672.517 200.642 672.888 200.874 673.21 201.189C673.535 201.504 673.79 201.905 673.975 202.392C674.161 202.876 674.254 203.453 674.254 204.122V204.674H667.994V203.461H672.529C672.525 203.116 672.451 202.81 672.305 202.541C672.159 202.269 671.955 202.056 671.693 201.9C671.435 201.744 671.133 201.666 670.789 201.666C670.421 201.666 670.097 201.756 669.819 201.935C669.541 202.11 669.324 202.342 669.168 202.631C669.015 202.916 668.937 203.229 668.934 203.57V204.629C668.934 205.073 669.015 205.455 669.178 205.773C669.34 206.088 669.567 206.33 669.859 206.499C670.151 206.664 670.492 206.747 670.883 206.747C671.145 206.747 671.382 206.711 671.594 206.638C671.806 206.562 671.99 206.451 672.146 206.305C672.302 206.159 672.419 205.978 672.499 205.763L674.179 205.952C674.073 206.396 673.871 206.784 673.573 207.115C673.278 207.443 672.9 207.698 672.439 207.881C671.978 208.06 671.451 208.149 670.858 208.149ZM677.576 203.526V208H675.776V200.364H677.496V201.661H677.586C677.762 201.234 678.042 200.894 678.426 200.642C678.814 200.39 679.293 200.264 679.863 200.264C680.39 200.264 680.849 200.377 681.24 200.602C681.634 200.828 681.939 201.154 682.155 201.582C682.374 202.009 682.481 202.528 682.478 203.138V208H680.678V203.416C680.678 202.906 680.546 202.506 680.281 202.218C680.019 201.93 679.656 201.786 679.192 201.786C678.877 201.786 678.597 201.855 678.352 201.994C678.11 202.13 677.919 202.327 677.78 202.586C677.644 202.844 677.576 203.158 677.576 203.526ZM688.121 200.364V201.756H683.731V200.364H688.121ZM684.815 198.534H686.614V205.703C686.614 205.945 686.651 206.131 686.724 206.26C686.8 206.386 686.899 206.472 687.022 206.518C687.145 206.565 687.281 206.588 687.43 206.588C687.542 206.588 687.645 206.58 687.738 206.563C687.834 206.547 687.907 206.532 687.957 206.518L688.26 207.925C688.164 207.959 688.026 207.995 687.847 208.035C687.672 208.075 687.456 208.098 687.201 208.104C686.75 208.118 686.344 208.05 685.983 207.901C685.622 207.748 685.335 207.513 685.123 207.195C684.914 206.876 684.811 206.479 684.815 206.001V198.534ZM692.875 208.149C692.129 208.149 691.483 207.985 690.936 207.657C690.389 207.329 689.965 206.87 689.663 206.28C689.365 205.69 689.216 205 689.216 204.212C689.216 203.423 689.365 202.732 689.663 202.138C689.965 201.545 690.389 201.085 690.936 200.756C691.483 200.428 692.129 200.264 692.875 200.264C693.621 200.264 694.267 200.428 694.814 200.756C695.361 201.085 695.783 201.545 696.081 202.138C696.383 202.732 696.534 203.423 696.534 204.212C696.534 205 696.383 205.69 696.081 206.28C695.783 206.87 695.361 207.329 694.814 207.657C694.267 207.985 693.621 208.149 692.875 208.149ZM692.885 206.707C693.289 206.707 693.627 206.596 693.899 206.374C694.171 206.149 694.373 205.847 694.506 205.469C694.641 205.092 694.709 204.671 694.709 204.207C694.709 203.739 694.641 203.317 694.506 202.939C694.373 202.558 694.171 202.254 693.899 202.029C693.627 201.804 693.289 201.691 692.885 201.691C692.47 201.691 692.126 201.804 691.851 202.029C691.579 202.254 691.375 202.558 691.239 202.939C691.107 203.317 691.04 203.739 691.04 204.207C691.04 204.671 691.107 205.092 691.239 205.469C691.375 205.847 691.579 206.149 691.851 206.374C692.126 206.596 692.47 206.707 692.885 206.707ZM698.061 208V200.364H699.806V201.636H699.886C700.025 201.196 700.264 200.856 700.602 200.617C700.943 200.375 701.333 200.254 701.77 200.254C701.87 200.254 701.981 200.259 702.103 200.269C702.229 200.276 702.334 200.287 702.417 200.304V201.96C702.34 201.933 702.219 201.91 702.054 201.89C701.891 201.867 701.734 201.855 701.581 201.855C701.253 201.855 700.958 201.926 700.696 202.069C700.438 202.208 700.234 202.402 700.085 202.651C699.936 202.899 699.861 203.186 699.861 203.511V208H698.061ZM704.963 210.864C704.718 210.864 704.491 210.844 704.282 210.804C704.077 210.768 703.913 210.724 703.79 210.675L704.208 209.273C704.469 209.349 704.703 209.385 704.909 209.382C705.114 209.379 705.295 209.314 705.45 209.188C705.61 209.066 705.744 208.86 705.853 208.572L706.007 208.159L703.238 200.364H705.147L706.907 206.131H706.987L708.752 200.364H710.666L707.608 208.925C707.466 209.329 707.277 209.675 707.041 209.964C706.806 210.255 706.518 210.478 706.176 210.63C705.838 210.786 705.434 210.864 704.963 210.864Z" fill="#F8F8FA"/>
<g clip-path="url(#clip1_2083_660)">
<path fill-rule="evenodd" clip-rule="evenodd" d="M605.618 119.721L598.848 123.106C598.509 123.275 598.295 123.621 598.295 124V136C598.295 136.379 598.509 136.725 598.848 136.894L614.848 144.894C615.129 145.035 615.461 145.035 615.742 144.894L647.742 128.894C648.081 128.725 648.295 128.379 648.295 128V123.5L647.795 123.75V124C647.795 124.189 647.688 124.363 647.519 124.447L646.295 125.059V127.382L616.295 142.382V132.618L623.854 128.839L621.618 127.721L615.295 130.882L601.531 124L607.854 120.839L605.618 119.721ZM614.295 142.382L600.295 135.382V125.618L614.295 132.618V142.382Z" fill="#8D8D8F"/>
<path d="M648.295 116V117.5L647.874 115.185C648.135 115.37 648.295 115.673 648.295 116Z" fill="#8D8D8F"/>
<path d="M631.295 132L599.295 116V104M631.295 132V120M631.295 132L647.295 124V112M631.295 120L599.295 104M631.295 120L647.295 112M599.295 104L615.295 96L647.295 112" stroke="#FFAA00" stroke-width="2" stroke-linecap="round" stroke-linejoin="round"/>
</g>
<path d="M669.731 125.5V115.318H673.629C674.364 115.318 674.976 115.434 675.463 115.666C675.954 115.895 676.32 116.208 676.562 116.606C676.807 117.004 676.93 117.454 676.93 117.958C676.93 118.372 676.85 118.727 676.691 119.022C676.532 119.314 676.318 119.551 676.05 119.733C675.781 119.915 675.481 120.046 675.15 120.126V120.225C675.511 120.245 675.857 120.356 676.189 120.558C676.524 120.757 676.797 121.039 677.009 121.403C677.221 121.768 677.327 122.209 677.327 122.726C677.327 123.253 677.2 123.727 676.945 124.148C676.689 124.565 676.305 124.895 675.791 125.137C675.277 125.379 674.631 125.5 673.852 125.5H669.731ZM671.575 123.959H673.559C674.228 123.959 674.711 123.831 675.006 123.576C675.304 123.317 675.453 122.986 675.453 122.582C675.453 122.28 675.379 122.008 675.229 121.766C675.08 121.521 674.868 121.329 674.593 121.19C674.318 121.047 673.99 120.976 673.609 120.976H671.575V123.959ZM671.575 119.648H673.4C673.718 119.648 674.005 119.59 674.26 119.474C674.515 119.355 674.716 119.188 674.862 118.972C675.011 118.754 675.085 118.495 675.085 118.197C675.085 117.802 674.946 117.478 674.668 117.222C674.393 116.967 673.983 116.839 673.44 116.839H671.575V119.648ZM678.852 125.5V117.864H680.597V119.136H680.677C680.816 118.696 681.055 118.356 681.393 118.117C681.734 117.875 682.124 117.754 682.561 117.754C682.661 117.754 682.772 117.759 682.894 117.769C683.02 117.776 683.125 117.787 683.208 117.804V119.46C683.131 119.433 683.01 119.41 682.845 119.39C682.682 119.367 682.525 119.355 682.372 119.355C682.044 119.355 681.749 119.426 681.487 119.569C681.229 119.708 681.025 119.902 680.876 120.151C680.727 120.399 680.652 120.686 680.652 121.011V125.5H678.852ZM684.403 125.5V117.864H686.203V125.5H684.403ZM685.308 116.78C685.023 116.78 684.778 116.685 684.572 116.496C684.367 116.304 684.264 116.074 684.264 115.805C684.264 115.534 684.367 115.303 684.572 115.114C684.778 114.922 685.023 114.826 685.308 114.826C685.596 114.826 685.842 114.922 686.044 115.114C686.249 115.303 686.352 115.534 686.352 115.805C686.352 116.074 686.249 116.304 686.044 116.496C685.842 116.685 685.596 116.78 685.308 116.78ZM691.385 125.649C690.622 125.649 689.968 125.482 689.421 125.147C688.877 124.812 688.458 124.35 688.163 123.76C687.871 123.167 687.725 122.484 687.725 121.712C687.725 120.936 687.875 120.252 688.173 119.658C688.471 119.062 688.892 118.598 689.436 118.266C689.983 117.932 690.629 117.764 691.375 117.764C691.994 117.764 692.543 117.879 693.02 118.107C693.501 118.333 693.884 118.652 694.169 119.067C694.454 119.478 694.616 119.958 694.656 120.509H692.936C692.866 120.141 692.7 119.834 692.439 119.589C692.18 119.34 691.834 119.216 691.4 119.216C691.032 119.216 690.708 119.315 690.43 119.514C690.152 119.71 689.935 119.991 689.779 120.359C689.626 120.727 689.55 121.168 689.55 121.682C689.55 122.202 689.626 122.65 689.779 123.024C689.931 123.395 690.145 123.682 690.42 123.884C690.699 124.083 691.025 124.183 691.4 124.183C691.665 124.183 691.902 124.133 692.11 124.033C692.323 123.931 692.5 123.783 692.642 123.591C692.785 123.399 692.883 123.165 692.936 122.89H694.656C694.613 123.43 694.454 123.909 694.179 124.327C693.904 124.741 693.529 125.066 693.055 125.301C692.581 125.533 692.024 125.649 691.385 125.649ZM697.774 123.104L697.769 120.931H698.058L700.802 117.864H702.905L699.529 121.622H699.156L697.774 123.104ZM696.134 125.5V115.318H697.933V125.5H696.134ZM700.926 125.5L698.441 122.025L699.654 120.757L703.079 125.5H700.926ZM710.14 119.882L708.499 120.061C708.453 119.895 708.372 119.74 708.256 119.594C708.143 119.448 707.991 119.33 707.798 119.241C707.606 119.151 707.371 119.107 707.092 119.107C706.718 119.107 706.403 119.188 706.148 119.35C705.896 119.513 705.772 119.723 705.775 119.982C705.772 120.204 705.853 120.384 706.018 120.523C706.188 120.663 706.466 120.777 706.854 120.866L708.156 121.145C708.879 121.301 709.416 121.548 709.767 121.886C710.122 122.224 710.301 122.666 710.304 123.213C710.301 123.694 710.16 124.118 709.881 124.486C709.606 124.85 709.223 125.135 708.733 125.341C708.242 125.546 707.679 125.649 707.043 125.649C706.108 125.649 705.356 125.454 704.786 125.062C704.215 124.668 703.876 124.12 703.766 123.417L705.521 123.248C705.601 123.593 705.77 123.853 706.028 124.028C706.287 124.204 706.623 124.292 707.038 124.292C707.465 124.292 707.808 124.204 708.067 124.028C708.329 123.853 708.46 123.636 708.46 123.377C708.46 123.158 708.375 122.978 708.206 122.835C708.04 122.693 707.782 122.583 707.43 122.507L706.128 122.234C705.395 122.081 704.853 121.824 704.502 121.463C704.151 121.098 703.977 120.638 703.98 120.081C703.977 119.61 704.104 119.203 704.363 118.858C704.625 118.51 704.988 118.241 705.452 118.053C705.919 117.86 706.458 117.764 707.067 117.764C707.962 117.764 708.667 117.955 709.18 118.336C709.697 118.717 710.017 119.232 710.14 119.882Z" fill="#F8F8FA"/>
</g>
<rect x="529.795" y="31.5" width="250" height="199" rx="7.5" stroke="#8D8D8F" stroke-dasharray="10 10"/>
<defs>
<clipPath id="clip0_2083_660">
<rect x="529.295" y="31" width="251" height="200" rx="8" fill="white"/>
</clipPath>
<clipPath id="clip1_2083_660">
<rect width="50" height="64" fill="white" transform="translate(598.295 88)"/>
</clipPath>
</defs>
</svg>
