<svg width="1440" height="480" viewBox="0 0 1440 480" fill="none" xmlns="http://www.w3.org/2000/svg">
<g filter="url(#filter0_i_9_218)">
<g clip-path="url(#clip0_9_218)">
<rect width="1440" height="480" rx="16" fill="#F5F1FF"/>
<path d="M85 290L85 540L95 540L95 539C95 536.791 96.7908 535 99 535L101 535C103.209 535 105 536.791 105 539L105 540L106 540C110.971 540 115 544.029 115 549L115 555L-15 555L-15 549C-15 544.029 -10.9706 540 -6.00001 540L-5.00001 540L-5.00001 539C-5.00001 536.791 -3.20915 535 -1.00001 535L0.999989 535C3.20913 535 4.99999 536.791 4.99999 539L4.99999 540L15 540L15 290L85 290Z" fill="#F5F1FF"/>
<path d="M115 275L115 281C115 285.971 110.971 290 106 290L105 290L105 291C105 293.209 103.209 295 101 295L99 295C96.7909 295 95 293.209 95 291L95 290L85 290M-15 275L-15 281C-15 285.971 -10.9706 290 -6 290L-5 290L-5 291C-5 293.209 -3.20914 295 -1 295L0.999999 295C3.20914 295 5 293.209 5 291L5 290L15 290M85 290L85 540M85 290L15 290M85 540L95 540L95 539C95 536.791 96.7908 535 99 535L101 535C103.209 535 105 536.791 105 539L105 540L106 540C110.971 540 115 544.029 115 549L115 555L-15 555L-15 549C-15 544.029 -10.9706 540 -6.00001 540L-5.00001 540L-5.00001 539C-5.00001 536.791 -3.20915 535 -1.00001 535L0.999989 535C3.20913 535 4.99999 536.791 4.99999 539L4.99999 540L15 540M85 540L15 540M15 540L15 290" stroke="#716A87" stroke-width="4"/>
<path d="M115 -5L115 1C115 5.97056 110.971 10 106 10L105 10L105 11C105 13.2091 103.209 15 101 15L99 15C96.7909 15 95 13.2091 95 11L95 10L85 10L85 260L15 260L15 10L5 10L5 11C5 13.2091 3.20914 15 0.999999 15L-1 15C-3.20914 15 -5 13.2091 -5 11L-5 9.99999L-6 9.99999C-10.9706 9.99999 -15 5.97056 -15 0.999994L-15 -5.00001L115 -5Z" fill="#F5F1FF"/>
<path d="M85 10L95 10L95 11C95 13.2091 96.7909 15 99 15L101 15C103.209 15 105 13.2091 105 11L105 10L106 10C110.971 10 115 5.97056 115 1L115 -5L-15 -5.00001L-15 0.999994C-15 5.97056 -10.9706 9.99999 -6 9.99999L-5 9.99999L-5 11C-5 13.2091 -3.20914 15 -1 15L0.999999 15C3.20914 15 5 13.2091 5 11L5 10L15 10M85 10L85 260M85 10L15 10M85 260L95 260L95 259C95 256.791 96.7908 255 99 255L101 255C103.209 255 105 256.791 105 259L105 260L106 260C110.971 260 115 264.029 115 269L115 275M85 260L15 260M-15 275L-15 269C-15 264.029 -10.9706 260 -6.00001 260L-5.00001 260L-5.00001 259C-5.00001 256.791 -3.20915 255 -1.00001 255L0.999989 255C3.20913 255 4.99999 256.791 4.99999 259L4.99999 260L15 260M15 260L15 10" stroke="#716A87" stroke-width="4"/>
<path d="M805 -250.667L805 -245.559C805 -240.589 800.971 -236.559 796 -236.559L795 -236.559L795 -235.857C795 -233.648 793.209 -231.857 791 -231.857L789 -231.857C786.791 -231.857 785 -233.648 785 -235.857L785 -236.559L775 -236.559L775 -1.44043L705 -1.44043L705 -236.559L695 -236.559L695 -235.857C695 -233.648 693.209 -231.857 691 -231.857L689 -231.857C686.791 -231.857 685 -233.648 685 -235.857L685 -236.559L684 -236.559C679.029 -236.559 675 -240.589 675 -245.559L675 -250.667L805 -250.667Z" fill="#F5F1FF"/>
<path d="M775 -236.559L785 -236.559L785 -235.857C785 -233.648 786.791 -231.857 789 -231.857L791 -231.857C793.209 -231.857 795 -233.648 795 -235.857L795 -236.559L796 -236.559C800.971 -236.559 805 -240.589 805 -245.559L805 -250.667L675 -250.667L675 -245.559C675 -240.589 679.029 -236.559 684 -236.559L685 -236.559L685 -235.857C685 -233.648 686.791 -231.857 689 -231.857L691 -231.857C693.209 -231.857 695 -233.648 695 -235.857L695 -236.559L705 -236.559M775 -236.559L775 -1.44043M775 -236.559L705 -236.559M775 -1.44043L785 -1.44043L785 -2.14281C785 -4.35195 786.791 -6.14281 789 -6.14281L791 -6.14281C793.209 -6.14281 795 -4.35195 795 -2.14281L795 -1.44043L796 -1.44043C800.971 -1.44043 805 2.58901 805 7.55957L805 12.6667M775 -1.44043L705 -1.44043M675 12.6667L675 7.55956C675 2.589 679.029 -1.44044 684 -1.44043L685 -1.44043L685 -2.14281C685 -4.35195 686.791 -6.14281 689 -6.14281L691 -6.14281C693.209 -6.14281 695 -4.35195 695 -2.14281L695 -1.44043L705 -1.44043M705 -1.44043L705 -236.559" stroke="#544C68" stroke-width="4"/>
<path d="M775 261.893L775 26.7739L705 26.7739L705 261.893L695 261.893L685 261.893L684 261.893C679.029 261.893 675 265.922 675 270.893L675 276L805 276L805 270.893C805 265.922 800.971 261.893 796 261.893L795 261.893L785 261.893L775 261.893Z" fill="#F5F1FF"/>
<path d="M805 12.6667L805 17.7739C805 22.7445 800.971 26.7739 796 26.7739L795 26.7739L795 27.4763C795 29.6854 793.209 31.4763 791 31.4763L789 31.4763C786.791 31.4763 785 29.6854 785 27.4763L785 26.7739L775 26.7739M675 12.6667L675 17.7739C675 22.7444 679.029 26.7739 684 26.7739L685 26.7739L685 27.4763C685 29.6854 686.791 31.4763 689 31.4763L691 31.4763C693.209 31.4763 695 29.6854 695 27.4763L695 26.7739L705 26.7739M775 26.7739L775 261.893L785 261.893L795 261.893L796 261.893C800.971 261.893 805 265.922 805 270.893L805 276L675 276L675 270.893C675 265.922 679.029 261.893 684 261.893L685 261.893L695 261.893L705 261.893L705 26.7739M775 26.7739L705 26.7739" stroke="#544C68" stroke-width="4"/>
<path d="M644 435L650 435L650 305L644 305C639.029 305 635 309.029 635 314L635 315L635 325L635 335L385 335L385 405L635 405L635 415L635 425L635 426C635 430.971 639.029 435 644 435Z" fill="#F5F1FF"/>
<path d="M385 405L635 405L635 415L635 425L635 426C635 430.971 639.029 435 644 435L650 435L650 305L644 305C639.029 305 635 309.029 635 314L635 315L635 325L635 335L385 335M385 405L385 415L386 415C388.209 415 390 416.791 390 419L390 421C390 423.209 388.209 425 386 425L385 425L385 426C385 430.97 380.971 435 376 435L370 435M385 405L385 335M370 305L376 305C380.971 305 385 309.029 385 314L385 315L386 315C388.209 315 390 316.791 390 319L390 321C390 323.209 388.209 325 386 325L385 325L385 335" stroke="#36304F" stroke-width="4"/>
<path d="M945 405L1195 405L1195 335L945 335L945 325L945 315L945 314C945 309.029 940.971 305 936 305L930 305L930 435L936 435C940.971 435 945 430.97 945 426L945 425L945 415L945 405Z" fill="#F5F1FF"/>
<path d="M1210 435L1204 435C1199.03 435 1195 430.971 1195 426L1195 425L1194 425C1191.79 425 1190 423.209 1190 421L1190 419C1190 416.791 1191.79 415 1194 415L1195 415L1195 405M1210 305L1204 305C1199.03 305 1195 309.029 1195 314L1195 315L1194 315C1191.79 315 1190 316.791 1190 319L1190 321C1190 323.209 1191.79 325 1194 325L1195 325L1195 335M1195 405L945 405L945 415L945 425L945 426C945 430.97 940.971 435 936 435L930 435L930 305L936 305C940.971 305 945 309.029 945 314L945 315L945 325L945 335L1195 335M1195 405L1195 335" stroke="#36304F" stroke-width="4"/>
<path d="M1490 435L1484 435C1479.03 435 1475 430.971 1475 426L1475 425L1474 425C1471.79 425 1470 423.209 1470 421L1470 419C1470 416.791 1471.79 415 1474 415L1475 415L1475 405L1225 405L1225 335L1475 335L1475 325L1474 325C1471.79 325 1470 323.209 1470 321L1470 319C1470 316.791 1471.79 315 1474 315L1475 315L1475 314C1475 309.029 1479.03 305 1484 305L1490 305L1490 435Z" fill="#F5F1FF"/>
<path d="M1475 405L1475 415L1474 415C1471.79 415 1470 416.791 1470 419L1470 421C1470 423.209 1471.79 425 1474 425L1475 425L1475 426C1475 430.971 1479.03 435 1484 435L1490 435L1490 305L1484 305C1479.03 305 1475 309.029 1475 314L1475 315L1474 315C1471.79 315 1470 316.791 1470 319L1470 321C1470 323.209 1471.79 325 1474 325L1475 325L1475 335M1475 405L1225 405M1475 405L1475 335M1225 405L1225 415L1226 415C1228.21 415 1230 416.791 1230 419L1230 421C1230 423.209 1228.21 425 1226 425L1225 425L1225 426C1225 430.971 1220.97 435 1216 435L1210 435M1225 405L1225 335M1210 305L1216 305C1220.97 305 1225 309.029 1225 314L1225 315L1226 315C1228.21 315 1230 316.791 1230 319L1230 321C1230 323.209 1228.21 325 1226 325L1225 325L1225 335M1225 335L1475 335" stroke="#36304F" stroke-width="4"/>
<path d="M355 405L355 335V335C269.396 335 200 265.604 200 180V180L130 180V180C130 304.264 230.736 405 355 405V405Z" fill="#F5F1FF"/>
<path d="M370 435L364 435C359.029 435 355 430.97 355 426L355 425L354 425C351.791 425 350 423.209 350 421L350 419C350 416.791 351.791 415 354 415L355 415L355 405M370 305L364 305C359.029 305 355 309.029 355 314L355 315L354 315C351.791 315 350 316.791 350 319L350 321C350 323.209 351.791 325 354 325L355 325L355 335M355 405L355 335M355 405V405C230.736 405 130 304.264 130 180V180M355 335V335C269.396 335 200 265.604 200 180V180M130 180L120 180L120 181C120 183.209 118.209 185 116 185L114 185C111.791 185 110 183.209 110 181L110 180L109 180C104.029 180 100 175.97 100 171L100 165M130 180L200 180M230 165L230 171C230 175.97 225.971 180 221 180L220 180L220 181C220 183.209 218.209 185 216 185L214 185C211.791 185 210 183.209 210 181L210 180L200 180" stroke="#36304F" stroke-width="4"/>
<path d="M130 150L130 -100L120 -100L120 -99.0001C120 -96.791 118.209 -95.0001 116 -95.0001L114 -95.0001C111.791 -95.0001 110 -96.791 110 -99.0001L110 -100L109 -100C104.029 -100 100 -104.03 100 -109L100 -115L230 -115L230 -109C230 -104.03 225.971 -100 221 -100L220 -100L220 -99.0001C220 -96.791 218.209 -95.0001 216 -95.0001L214 -95.0001C211.791 -95.0001 210 -96.791 210 -99.0001L210 -100L200 -100L200 150L130 150Z" fill="#F5F1FF"/>
<path d="M100 165L100 159C100 154.029 104.029 150 109 150L110 150L110 149C110 146.791 111.791 145 114 145L116 145C118.209 145 120 146.791 120 149L120 150L130 150M230 165L230 159C230 154.029 225.971 150 221 150L220 150L220 149C220 146.791 218.209 145 216 145L214 145C211.791 145 210 146.791 210 149L210 150L200 150M130 150L130 -100M130 150L200 150M130 -100L120 -100L120 -99.0001C120 -96.791 118.209 -95.0001 116 -95.0001L114 -95.0001C111.791 -95.0001 110 -96.791 110 -99.0001L110 -100L109 -100C104.029 -100 100 -104.03 100 -109L100 -115L230 -115L230 -109C230 -104.03 225.971 -100 221 -100L220 -100L220 -99.0001C220 -96.791 218.209 -95.0001 216 -95.0001L214 -95.0001C211.791 -95.0001 210 -96.791 210 -99.0001L210 -100L200 -100M130 -100L200 -100M200 -100L200 150" stroke="#36304F" stroke-width="4"/>
<rect x="650" y="280" width="280" height="180" rx="16" fill="#F5F1FF" stroke="#F5F1FF" stroke-width="12"/>
<rect x="650" y="280" width="280" height="180" rx="16" fill="#F5F1FF" stroke="#08001B" stroke-width="4"/>
<rect x="670" y="300" width="160" height="140" rx="4" fill="#F5F1FF" stroke="#08001B" stroke-width="4"/>
<circle cx="880" cy="380" r="20" stroke="#08001B" stroke-width="4"/>
<path d="M710 325L735 325M735 325L735 350M735 325L705 355" stroke="#08001B" stroke-width="4" stroke-linecap="round" stroke-linejoin="round"/>
<circle cx="740" cy="400" r="20" fill="#08001B" stroke="#F5F1FF" stroke-width="4"/>
<circle cx="760" cy="380" r="20" fill="#08001B" stroke="#F5F1FF" stroke-width="4"/>
<circle cx="780" cy="360" r="20" fill="#08001B" stroke="#F5F1FF" stroke-width="4"/>
<rect width="250" height="80" rx="28" transform="matrix(1 0 0 -1 1230 120)" stroke="#544C68" stroke-width="4"/>
<path fill-rule="evenodd" clip-rule="evenodd" d="M1281 50C1291.49 50 1300 58.5066 1300 69L1300 91C1300 101.493 1291.49 110 1281 110L1259 110C1248.51 110 1240 101.493 1240 91L1240 69C1240 58.5066 1248.51 50 1259 50L1281 50ZM1285 63C1286.1 63 1287 63.8954 1287 65L1287 90C1287 91.1046 1286.1 92 1285 92C1283.9 92 1283 91.1046 1283 90L1283 69.8284L1256.41 96.4142C1255.63 97.1953 1254.37 97.1953 1253.59 96.4142C1252.8 95.6332 1252.8 94.3668 1253.59 93.5858L1280.17 67L1260 67C1258.9 67 1258 66.1046 1258 65C1258 63.8954 1258.9 63 1260 63L1285 63Z" fill="#544C68"/>
<path d="M462.638 116.084L477.368 171.054C479.868 180.387 478.559 190.331 473.728 198.699C471.294 202.916 475.172 207.971 479.875 206.71L608.457 172.257C610.738 171.646 612.684 170.153 613.865 168.107C621.739 154.469 623.872 138.262 619.797 123.05L607.527 77.2607C604.954 67.6583 595.084 61.9598 585.482 64.5328L475.366 94.0382C465.764 96.6111 460.065 106.481 462.638 116.084Z" stroke="#544C68" stroke-width="4" stroke-miterlimit="5.75877" stroke-linecap="square"/>
<circle cx="592.262" cy="78.2452" r="5" transform="rotate(-15 592.262 78.2452)" fill="#544C68"/>
<path d="M487.651 132.158L498.004 170.795M597.184 154.572L500.592 180.454L498.004 170.795M498.004 170.795L517.322 165.618L517.674 144.307C517.821 135.378 523.869 127.629 532.495 125.318L585.538 111.105" stroke="#544C68" stroke-width="4" stroke-miterlimit="5.75877" stroke-linecap="square"/>
<path d="M991.791 152.437L977.062 207.407C974.561 216.741 968.455 224.698 960.087 229.529C955.871 231.964 956.702 238.281 961.405 239.541L1089.99 273.994C1092.27 274.605 1094.7 274.285 1096.75 273.104C1110.38 265.23 1120.33 252.261 1124.41 237.05L1136.68 191.26C1139.25 181.658 1133.55 171.788 1123.95 169.215L1013.84 139.709C1004.23 137.136 994.364 142.835 991.791 152.437Z" stroke="#544C68" stroke-width="4" stroke-miterlimit="5.75877" stroke-linecap="square"/>
<circle cx="1007.06" cy="153.422" r="5" transform="rotate(15 1007.06 153.422)" fill="#544C68"/>
<circle cx="1122.97" cy="184.48" r="5" transform="rotate(15 1122.97 184.48)" fill="#544C68"/>
<path d="M1005.42 178.864L995.063 217.501M1089.07 253.042L994.406 227.678C993.339 227.392 992.706 226.295 992.992 225.229L995.063 217.501M995.063 217.501L1012.87 222.273C1013.76 222.511 1014.69 222.115 1015.14 221.312L1030.77 193.159C1031.76 191.369 1034.48 192.05 1034.52 194.097L1034.89 216.56C1034.92 218.526 1037.47 219.27 1038.56 217.629L1047.91 203.469C1049.45 201.137 1053.06 201.992 1053.39 204.767L1054.55 214.526C1054.96 217.953 1059.23 219.289 1061.52 216.706L1065.49 212.224C1067.7 209.736 1071.77 210.56 1072.83 213.71L1073.73 216.356C1075.02 220.165 1079.47 221.842 1082.95 219.832L1084.14 219.147C1086.53 217.766 1089.59 218.585 1090.97 220.977V220.977C1091.63 222.125 1092.72 222.963 1094 223.306L1096.83 224.064" stroke="#544C68" stroke-width="4" stroke-miterlimit="5.75877" stroke-linecap="square"/>
<path d="M535 -25L535 -19C535 -14.0294 530.971 -10 526 -10L525 -10L525 -9C525 -6.79086 523.209 -5 521 -5L519 -5C516.791 -5 515 -6.79086 515 -9L515 -10L505 -10L505 240L435 240L435 -10L425 -10L425 -9C425 -6.79087 423.209 -5 421 -5L419 -5.00001C416.791 -5.00001 415 -6.79087 415 -9.00001L415 -10L414 -10C409.029 -10 405 -14.0294 405 -19L405 -25L535 -25Z" fill="#F5F1FF"/>
<path d="M505 -10L515 -10L515 -9C515 -6.79086 516.791 -5 519 -5L521 -5C523.209 -5 525 -6.79086 525 -9L525 -10L526 -10C530.971 -10 535 -14.0294 535 -19L535 -25L405 -25L405 -19C405 -14.0294 409.029 -10 414 -10L415 -10L415 -9.00001C415 -6.79087 416.791 -5.00001 419 -5.00001L421 -5C423.209 -5 425 -6.79087 425 -9L425 -10L435 -10M505 -10L505 240M505 -10L435 -10M505 240L515 240L515 239C515 236.791 516.791 235 519 235L521 235C523.209 235 525 236.791 525 239L525 240L526 240C530.971 240 535 244.029 535 249L535 255M505 240L435 240M405 255L405 249C405 244.029 409.029 240 414 240L415 240L415 239C415 236.791 416.791 235 419 235L421 235C423.209 235 425 236.791 425 239L425 240L435 240M435 240L435 -10" stroke="#F5F1FF" stroke-width="12"/>
<path d="M535 -25L535 -19C535 -14.0294 530.971 -10 526 -10L525 -10L525 -9C525 -6.79086 523.209 -5 521 -5L519 -5C516.791 -5 515 -6.79086 515 -9L515 -10L505 -10L505 240L435 240L435 -10L425 -10L425 -9C425 -6.79087 423.209 -5 421 -5L419 -5.00001C416.791 -5.00001 415 -6.79087 415 -9.00001L415 -10L414 -10C409.029 -10 405 -14.0294 405 -19L405 -25L535 -25Z" fill="#F5F1FF"/>
<path d="M505 -10L515 -10L515 -9C515 -6.79086 516.791 -5 519 -5L521 -5C523.209 -5 525 -6.79086 525 -9L525 -10L526 -10C530.971 -10 535 -14.0294 535 -19L535 -25L405 -25L405 -19C405 -14.0294 409.029 -10 414 -10L415 -10L415 -9.00001C415 -6.79087 416.791 -5.00001 419 -5.00001L421 -5C423.209 -5 425 -6.79087 425 -9L425 -10L435 -10M505 -10L505 240M505 -10L435 -10M505 240L515 240L515 239C515 236.791 516.791 235 519 235L521 235C523.209 235 525 236.791 525 239L525 240L526 240C530.971 240 535 244.029 535 249L535 255M505 240L435 240M405 255L405 249C405 244.029 409.029 240 414 240L415 240L415 239C415 236.791 416.791 235 419 235L421 235C423.209 235 425 236.791 425 239L425 240L435 240M435 240L435 -10" stroke="#716A87" stroke-width="4"/>
<path d="M505 270L505 520L515 520L515 519C515 516.791 516.791 515 519 515L521 515C523.209 515 525 516.791 525 519L525 520L526 520C530.971 520 535 524.029 535 529L535 535L405 535L405 529C405 524.029 409.029 520 414 520L415 520L415 519C415 516.791 416.791 515 419 515L421 515C423.209 515 425 516.791 425 519L425 520L435 520L435 270L505 270Z" fill="#F5F1FF"/>
<path d="M535 255L535 261C535 265.971 530.971 270 526 270L525 270L525 271C525 273.209 523.209 275 521 275L519 275C516.791 275 515 273.209 515 271L515 270L505 270M405 255L405 261C405 265.971 409.029 270 414 270L415 270L415 271C415 273.209 416.791 275 419 275L421 275C423.209 275 425 273.209 425 271L425 270L435 270M505 270L505 520M505 270L435 270M505 520L515 520L515 519C515 516.791 516.791 515 519 515L521 515C523.209 515 525 516.791 525 519L525 520L526 520C530.971 520 535 524.029 535 529L535 535L405 535L405 529C405 524.029 409.029 520 414 520L415 520L415 519C415 516.791 416.791 515 419 515L421 515C423.209 515 425 516.791 425 519L425 520L435 520M505 520L435 520M435 520L435 270" stroke="#F5F1FF" stroke-width="12"/>
<path d="M505 270L505 520L515 520L515 519C515 516.791 516.791 515 519 515L521 515C523.209 515 525 516.791 525 519L525 520L526 520C530.971 520 535 524.029 535 529L535 535L405 535L405 529C405 524.029 409.029 520 414 520L415 520L415 519C415 516.791 416.791 515 419 515L421 515C423.209 515 425 516.791 425 519L425 520L435 520L435 270L505 270Z" fill="#F5F1FF"/>
<path d="M535 255L535 261C535 265.971 530.971 270 526 270L525 270L525 271C525 273.209 523.209 275 521 275L519 275C516.791 275 515 273.209 515 271L515 270L505 270M405 255L405 261C405 265.971 409.029 270 414 270L415 270L415 271C415 273.209 416.791 275 419 275L421 275C423.209 275 425 273.209 425 271L425 270L435 270M505 270L505 520M505 270L435 270M505 520L515 520L515 519C515 516.791 516.791 515 519 515L521 515C523.209 515 525 516.791 525 519L525 520L526 520C530.971 520 535 524.029 535 529L535 535L405 535L405 529C405 524.029 409.029 520 414 520L415 520L415 519C415 516.791 416.791 515 419 515L421 515C423.209 515 425 516.791 425 519L425 520L435 520M505 520L435 520M435 520L435 270" stroke="#716A87" stroke-width="4"/>
<path fill-rule="evenodd" clip-rule="evenodd" d="M879 400C890.046 400 899 391.046 899 380C899 368.954 890.046 360 879 360C867.954 360 859 368.954 859 380C859 391.046 867.954 400 879 400ZM866.5 378C865.395 378 864.5 378.895 864.5 380C864.5 381.105 865.395 382 866.5 382H879C880.105 382 881 381.105 881 380C881 378.895 880.105 378 879 378H866.5Z" fill="#08001B"/>
<path fill-rule="evenodd" clip-rule="evenodd" d="M864.858 315.858C857.047 323.668 857.047 336.332 864.858 344.142C872.668 351.953 885.332 351.953 893.142 344.142C900.953 336.332 900.953 323.668 893.142 315.858C885.332 308.047 872.668 308.047 864.858 315.858ZM889.253 322.575C890.034 321.794 890.034 320.528 889.253 319.747C888.472 318.966 887.206 318.966 886.425 319.747L877.586 328.586C876.805 329.367 876.805 330.633 877.586 331.414C878.367 332.195 879.633 332.195 880.414 331.414L889.253 322.575Z" fill="#08001B"/>
</g>
</g>
<defs>
<filter id="filter0_i_9_218" x="0" y="0" width="1440" height="480" filterUnits="userSpaceOnUse" color-interpolation-filters="sRGB">
<feFlood flood-opacity="0" result="BackgroundImageFix"/>
<feBlend mode="normal" in="SourceGraphic" in2="BackgroundImageFix" result="shape"/>
<feColorMatrix in="SourceAlpha" type="matrix" values="0 0 0 0 0 0 0 0 0 0 0 0 0 0 0 0 0 0 127 0" result="hardAlpha"/>
<feMorphology radius="7" operator="erode" in="SourceAlpha" result="effect1_innerShadow_9_218"/>
<feOffset/>
<feGaussianBlur stdDeviation="4"/>
<feComposite in2="hardAlpha" operator="arithmetic" k2="-1" k3="1"/>
<feColorMatrix type="matrix" values="0 0 0 0 0.960784 0 0 0 0 0.945098 0 0 0 0 1 0 0 0 1 0"/>
<feBlend mode="normal" in2="shape" result="effect1_innerShadow_9_218"/>
</filter>
<clipPath id="clip0_9_218">
<rect width="1440" height="480" rx="16" fill="white"/>
</clipPath>
</defs>
</svg>
