<svg width="260" height="240" viewBox="0 0 260 240" fill="none" xmlns="http://www.w3.org/2000/svg">
<path d="M11.3943 119.934L11.4923 119.713L11.3795 119.499C4.35445 106.156 0.5 91.0985 0.5 75.477V50.5357C0.5 12.9622 40.7177 -10.9122 73.7032 7.07992L129.762 37.6572L130.001 37.7878L130.24 37.6572L186.297 7.08101C219.282 -10.9111 259.5 12.9633 259.5 50.5368V75.4771C259.5 88.8878 256.658 101.887 251.408 113.74L248.606 120.066L248.508 120.287L248.621 120.501C255.646 133.843 259.5 148.901 259.5 164.522V189.463C259.5 227.037 219.282 250.911 186.297 232.919L130.24 202.343L130.001 202.212L129.761 202.343L73.7033 232.92C40.7177 250.912 0.5 227.038 0.5 189.464V164.523C0.5 151.112 3.3419 138.112 8.59241 126.259L11.3943 119.934Z" fill="#D9D9D9" stroke="white"/>
</svg>
