<svg width="1440" height="480" viewBox="0 0 1440 480" fill="none" xmlns="http://www.w3.org/2000/svg">
<g filter="url(#filter0_i_2402_928)">
<g clip-path="url(#clip0_2402_928)">
<rect width="1440" height="480" rx="16" fill="#08001B"/>
<path d="M745 -225L745 -219C745 -214.029 740.971 -210 736 -210L735 -210L735 -209C735 -206.791 733.209 -205 731 -205L729 -205C726.791 -205 725 -206.791 725 -209L725 -210L715 -210L715 40L645 40L645 -210L635 -210L635 -209C635 -206.791 633.209 -205 631 -205L629 -205C626.791 -205 625 -206.791 625 -209L625 -210L624 -210C619.029 -210 615 -214.029 615 -219L615 -225L745 -225Z" fill="#08001B"/>
<path d="M715 -210L725 -210L725 -209C725 -206.791 726.791 -205 729 -205L731 -205C733.209 -205 735 -206.791 735 -209L735 -210L736 -210C740.971 -210 745 -214.029 745 -219L745 -225L615 -225L615 -219C615 -214.029 619.029 -210 624 -210L625 -210L625 -209C625 -206.791 626.791 -205 629 -205L631 -205C633.209 -205 635 -206.791 635 -209L635 -210L645 -210M715 -210L715 40M715 -210L645 -210M715 40L725 40L725 39C725 36.7909 726.791 35 729 35L731 35C733.209 35 735 36.7909 735 39L735 40L736 40C740.971 40 745 44.0294 745 49L745 55M715 40L645 40M615 55L615 49C615 44.0294 619.029 40 624 40L625 40L625 39C625 36.7909 626.791 35 629 35L631 35C633.209 35 635 36.7909 635 39L635 40L645 40M645 40L645 -210" stroke="#36304F" stroke-width="4"/>
<path d="M715 320L715 70L645 70L645 320L715 320Z" fill="#08001B"/>
<path d="M745 55L745 61C745 65.9706 740.971 70 736 70L735 70L735 71C735 73.2091 733.209 75 731 75L729 75C726.791 75 725 73.2091 725 71L725 70L715 70M615 55L615 61C615 65.9706 619.029 70 624 70L625 70L625 71C625 73.2091 626.791 75 629 75L631 75C633.209 75 635 73.2091 635 71L635 70L645 70M715 70L715 320M715 70L645 70M715 320L725 320L725 319C725 316.791 726.791 315 729 315L731 315C733.209 315 735 316.791 735 319L735 320L736 320C740.971 320 745 324.029 745 329L745 335M715 320L645 320M615 335L615 329C615 324.029 619.029 320 624 320L625 320L625 319C625 316.791 626.791 315 629 315L631 315C633.209 315 635 316.791 635 319L635 320L645 320M645 320L645 70" stroke="#36304F" stroke-width="4"/>
<path d="M715 350L715 600L725 600L725 599C725 596.791 726.791 595 729 595L731 595C733.209 595 735 596.791 735 599L735 600L736 600C740.971 600 745 604.029 745 609L745 615L615 615L615 609C615 604.029 619.029 600 624 600L625 600L625 599C625 596.791 626.791 595 629 595L631 595C633.209 595 635 596.791 635 599L635 600L645 600L645 350L715 350Z" fill="#08001B"/>
<path d="M745 335L745 341C745 345.971 740.971 350 736 350L735 350L735 351C735 353.209 733.209 355 731 355L729 355C726.791 355 725 353.209 725 351L725 350L715 350M615 335L615 341C615 345.971 619.029 350 624 350L625 350L625 351C625 353.209 626.791 355 629 355L631 355C633.209 355 635 353.209 635 351L635 350L645 350M715 350L715 600M715 350L645 350M715 600L725 600L725 599C725 596.791 726.791 595 729 595L731 595C733.209 595 735 596.791 735 599L735 600L736 600C740.971 600 745 604.029 745 609L745 615L615 615L615 609C615 604.029 619.029 600 624 600L625 600L625 599C625 596.791 626.791 595 629 595L631 595C633.209 595 635 596.791 635 599L635 600L645 600M715 600L645 600M645 600L645 350" stroke="#36304F" stroke-width="4"/>
<path d="M115 290.893L115 55.7739L45 55.7739L45 290.893L115 290.893Z" fill="#08001B"/>
<path d="M145 41.6667L145 46.7739C145 51.7445 140.971 55.7739 136 55.7739L135 55.7739L135 56.4763C135 58.6854 133.209 60.4763 131 60.4763L129 60.4763C126.791 60.4763 125 58.6854 125 56.4763L125 55.7739L115 55.7739M15 41.6667L15 46.7739C15 51.7444 19.0294 55.7739 24 55.7739L25 55.7739L25 56.4763C25 58.6854 26.7909 60.4763 29 60.4763L31 60.4763C33.2091 60.4763 35 58.6854 35 56.4763L35 55.7739L45 55.7739M115 55.7739L115 290.893M115 55.7739L45 55.7739M115 290.893L125 290.893L125 290.191C125 287.981 126.791 286.191 129 286.191L131 286.191C133.209 286.191 135 287.981 135 290.191L135 290.893L136 290.893C140.971 290.893 145 294.922 145 299.893L145 305M115 290.893L45 290.893M15 305L15 299.893C15 294.922 19.0294 290.893 24 290.893L25 290.893L25 290.191C25 287.981 26.7909 286.191 29 286.191L31 286.191C33.2091 286.191 35 287.981 35 290.191L35 290.893L45 290.893M45 290.893L45 55.7739" stroke="#544C68" stroke-width="4"/>
<path d="M145 -221.667L145 -216.56C145 -211.589 140.971 -207.56 136 -207.56L135 -207.56L135 -206.857C135 -204.648 133.209 -202.857 131 -202.857L129 -202.857C126.791 -202.857 125 -204.648 125 -206.857L125 -207.56L115 -207.56L115 27.5594L45 27.5594L45 -207.56L35 -207.56L35 -206.857C35 -204.648 33.2091 -202.857 31 -202.857L29 -202.857C26.7909 -202.857 25 -204.648 25 -206.857L25 -207.56L24 -207.56C19.0294 -207.56 15 -211.589 15 -216.56L15 -221.667L145 -221.667Z" fill="#08001B"/>
<path d="M115 -207.56L125 -207.56L125 -206.857C125 -204.648 126.791 -202.857 129 -202.857L131 -202.857C133.209 -202.857 135 -204.648 135 -206.857L135 -207.56L136 -207.56C140.971 -207.56 145 -211.589 145 -216.56L145 -221.667L15 -221.667L15 -216.56C15 -211.589 19.0294 -207.56 24 -207.56L25 -207.56L25 -206.857C25 -204.648 26.7909 -202.857 29 -202.857L31 -202.857C33.2091 -202.857 35 -204.648 35 -206.857L35 -207.56L45 -207.56M115 -207.56L115 27.5594M115 -207.56L45 -207.56M115 27.5594L125 27.5594L125 26.8571C125 24.6479 126.791 22.8571 129 22.8571L131 22.8571C133.209 22.8571 135 24.6479 135 26.8571L135 27.5594L136 27.5594C140.971 27.5594 145 31.5889 145 36.5594L145 41.6666M115 27.5594L45 27.5594M15 41.6666L15 36.5594C15 31.5889 19.0294 27.5594 24 27.5594L25 27.5594L25 26.8571C25 24.6479 26.7909 22.8571 29 22.8571L31 22.8571C33.2091 22.8571 35 24.6479 35 26.8571L35 27.5594L45 27.5594M45 27.5594L45 -207.56" stroke="#544C68" stroke-width="4"/>
<path d="M115 319.107L115 554.226L125 554.226L125 553.524C125 551.315 126.791 549.524 129 549.524L131 549.524C133.209 549.524 135 551.315 135 553.524L135 554.226L136 554.226C140.971 554.226 145 558.256 145 563.226L145 568.333L15 568.333L15 563.226C15 558.256 19.0294 554.226 24 554.226L25 554.226L25 553.524C25 551.315 26.7909 549.524 29 549.524L31 549.524C33.2091 549.524 35 551.315 35 553.524L35 554.226L45 554.226L45 319.107L115 319.107Z" fill="#08001B"/>
<path d="M145 305L145 310.107C145 315.078 140.971 319.107 136 319.107L135 319.107L135 319.81C135 322.019 133.209 323.81 131 323.81L129 323.81C126.791 323.81 125 322.019 125 319.81L125 319.107L115 319.107M15 305L15 310.107C15 315.078 19.0294 319.107 24 319.107L25 319.107L25 319.81C25 322.019 26.7909 323.81 29 323.81L31 323.81C33.2091 323.81 35 322.019 35 319.81L35 319.107L45 319.107M115 319.107L115 554.226M115 319.107L45 319.107M115 554.226L125 554.226L125 553.524C125 551.315 126.791 549.524 129 549.524L131 549.524C133.209 549.524 135 551.315 135 553.524L135 554.226L136 554.226C140.971 554.226 145 558.256 145 563.226L145 568.333L15 568.333L15 563.226C15 558.256 19.0294 554.226 24 554.226L25 554.226L25 553.524C25 551.315 26.7909 549.524 29 549.524L31 549.524C33.2091 549.524 35 551.315 35 553.524L35 554.226L45 554.226M115 554.226L45 554.226M45 554.226L45 319.107" stroke="#544C68" stroke-width="4"/>
<path d="M1395 255.774L1395 490.893L1405 490.893L1405 490.191C1405 487.981 1406.79 486.191 1409 486.191L1411 486.191C1413.21 486.191 1415 487.981 1415 490.191L1415 490.893L1416 490.893C1420.97 490.893 1425 494.922 1425 499.893L1425 505L1295 505L1295 499.893C1295 494.922 1299.03 490.893 1304 490.893L1305 490.893L1305 490.191C1305 487.981 1306.79 486.191 1309 486.191L1311 486.191C1313.21 486.191 1315 487.981 1315 490.191L1315 490.893L1325 490.893L1325 255.774L1395 255.774Z" fill="#08001B"/>
<path d="M1425 241.667L1425 246.774C1425 251.744 1420.97 255.774 1416 255.774L1415 255.774L1415 256.476C1415 258.685 1413.21 260.476 1411 260.476L1409 260.476C1406.79 260.476 1405 258.685 1405 256.476L1405 255.774L1395 255.774M1295 241.667L1295 246.774C1295 251.744 1299.03 255.774 1304 255.774L1305 255.774L1305 256.476C1305 258.685 1306.79 260.476 1309 260.476L1311 260.476C1313.21 260.476 1315 258.685 1315 256.476L1315 255.774L1325 255.774M1395 255.774L1395 490.893M1395 255.774L1325 255.774M1395 490.893L1405 490.893L1405 490.191C1405 487.981 1406.79 486.191 1409 486.191L1411 486.191C1413.21 486.191 1415 487.981 1415 490.191L1415 490.893L1416 490.893C1420.97 490.893 1425 494.922 1425 499.893L1425 505L1295 505L1295 499.893C1295 494.922 1299.03 490.893 1304 490.893L1305 490.893L1305 490.191C1305 487.981 1306.79 486.191 1309 486.191L1311 486.191C1313.21 486.191 1315 487.981 1315 490.191L1315 490.893L1325 490.893M1395 490.893L1325 490.893M1325 490.893L1325 255.774" stroke="#544C68" stroke-width="4"/>
<path d="M1425 -21.6667L1425 -16.5596C1425 -11.589 1420.97 -7.5596 1416 -7.55961L1415 -7.55961L1415 -6.85723C1415 -4.64809 1413.21 -2.85722 1411 -2.85722L1409 -2.85722C1406.79 -2.85722 1405 -4.64809 1405 -6.85723L1405 -7.55961L1395 -7.55961L1395 227.559L1325 227.559L1325 -7.55961L1315 -7.55961L1315 -6.85723C1315 -4.64809 1313.21 -2.85723 1311 -2.85723L1309 -2.85723C1306.79 -2.85723 1305 -4.64809 1305 -6.85723L1305 -7.55961L1304 -7.55961C1299.03 -7.55961 1295 -11.589 1295 -16.5596L1295 -21.6668L1425 -21.6667Z" fill="#08001B"/>
<path d="M1395 -7.55961L1405 -7.55961L1405 -6.85723C1405 -4.64809 1406.79 -2.85722 1409 -2.85722L1411 -2.85722C1413.21 -2.85722 1415 -4.64809 1415 -6.85723L1415 -7.55961L1416 -7.55961C1420.97 -7.5596 1425 -11.589 1425 -16.5596L1425 -21.6667L1295 -21.6668L1295 -16.5596C1295 -11.589 1299.03 -7.55961 1304 -7.55961L1305 -7.55961L1305 -6.85723C1305 -4.64809 1306.79 -2.85723 1309 -2.85723L1311 -2.85723C1313.21 -2.85723 1315 -4.64809 1315 -6.85723L1315 -7.55961L1325 -7.55961M1395 -7.55961L1395 227.559M1395 -7.55961L1325 -7.55961M1395 227.559L1405 227.559L1405 226.857C1405 224.648 1406.79 222.857 1409 222.857L1411 222.857C1413.21 222.857 1415 224.648 1415 226.857L1415 227.559L1416 227.559C1420.97 227.559 1425 231.589 1425 236.559L1425 241.667M1395 227.559L1325 227.559M1295 241.667L1295 236.559C1295 231.589 1299.03 227.559 1304 227.559L1305 227.559L1305 226.857C1305 224.648 1306.79 222.857 1309 222.857L1311 222.857C1313.21 222.857 1315 224.648 1315 226.857L1315 227.559L1325 227.559M1325 227.559L1325 -7.55961" stroke="#544C68" stroke-width="4"/>
<path d="M724 125H726C730.971 125 735 129.029 735 134V135V145V155H985M724 255H726C730.971 255 735 250.971 735 246V245V235V225H985M985 155V145H984C981.791 145 980 143.209 980 141V139C980 136.791 981.791 135 984 135H985V134C985 129.029 989.029 125 994 125H1000M985 155V225M1000 255H994C989.029 255 985 250.971 985 246V245H984C981.791 245 980 243.209 980 241V239C980 236.791 981.791 235 984 235H985V225" stroke="#716A87" stroke-width="4"/>
<path d="M1015 155V225V225C1100.6 225 1170 294.396 1170 380V380H1240V380C1240 255.736 1139.26 155 1015 155V155Z" fill="#08001B"/>
<path d="M1000 125H1006C1010.97 125 1015 129.029 1015 134V135H1016C1018.21 135 1020 136.791 1020 139V141C1020 143.209 1018.21 145 1016 145H1015V155M1000 255H1006C1010.97 255 1015 250.971 1015 246V245H1016C1018.21 245 1020 243.209 1020 241V239C1020 236.791 1018.21 235 1016 235H1015V225M1015 155V225M1015 155V155C1139.26 155 1240 255.736 1240 380V380M1015 225V225C1100.6 225 1170 294.396 1170 380V380M1240 380H1250V379C1250 376.791 1251.79 375 1254 375H1256C1258.21 375 1260 376.791 1260 379V380H1261C1265.97 380 1270 384.029 1270 389V395M1240 380H1170M1140 395V389C1140 384.029 1144.03 380 1149 380H1150V379C1150 376.791 1151.79 375 1154 375H1156C1158.21 375 1160 376.791 1160 379V380H1170" stroke="#716A87" stroke-width="4"/>
<path d="M436 255L434 255C429.029 255 425 250.971 425 246L425 245L425 235L425 225L423 225V225C299.84 225 200 125.159 200 1.99996L200 -30L190 -30L179 -30C174.029 -30 170 -34.0295 170 -39L170 -45L300 -45L300 -39C300 -34.0294 295.971 -30 291 -30L280 -30L270 -30L270 1.99998C270 86.4995 338.5 155 423 155V155L425 155L425 145L425 135L425 134C425 129.029 429.029 125 434 125L436 125" stroke="#716A87" stroke-width="4"/>
<path d="M1240 410L1240 660L1250 660L1250 659C1250 656.791 1251.79 655 1254 655L1256 655C1258.21 655 1260 656.791 1260 659L1260 660L1261 660C1265.97 660 1270 664.029 1270 669L1270 675L1140 675L1140 669C1140 664.029 1144.03 660 1149 660L1150 660L1150 659C1150 656.791 1151.79 655 1154 655L1156 655C1158.21 655 1160 656.791 1160 659L1160 660L1170 660L1170 410L1240 410Z" fill="#08001B"/>
<path d="M1270 395L1270 401C1270 405.971 1265.97 410 1261 410L1260 410L1260 411C1260 413.209 1258.21 415 1256 415L1254 415C1251.79 415 1250 413.209 1250 411L1250 410L1240 410M1140 395L1140 401C1140 405.971 1144.03 410 1149 410L1150 410L1150 411C1150 413.209 1151.79 415 1154 415L1156 415C1158.21 415 1160 413.209 1160 411L1160 410L1170 410M1240 410L1240 660M1240 410L1170 410M1240 660L1250 660L1250 659C1250 656.791 1251.79 655 1254 655L1256 655C1258.21 655 1260 656.791 1260 659L1260 660L1261 660C1265.97 660 1270 664.029 1270 669L1270 675L1140 675L1140 669C1140 664.029 1144.03 660 1149 660L1150 660L1150 659C1150 656.791 1151.79 655 1154 655L1156 655C1158.21 655 1160 656.791 1160 659L1160 660L1170 660M1240 660L1170 660M1170 660L1170 410" stroke="#716A87" stroke-width="4"/>
<path d="M905 -10L915 -10L915 -9C915 -6.79086 916.791 -5 919 -5L921 -5C923.209 -5 925 -6.79086 925 -9L925 -10L926 -10C930.971 -10 935 -14.0294 935 -19L935 -25L805 -25L805 -19C805 -14.0294 809.029 -10 814 -10L815 -10L815 -9.00001C815 -6.79087 816.791 -5.00001 819 -5.00001L821 -5C823.209 -5 825 -6.79087 825 -9L825 -10L835 -10M905 -10L905 240M905 -10L835 -10M905 240L915 240L915 239C915 236.791 916.791 235 919 235L921 235C923.209 235 925 236.791 925 239L925 240L926 240C930.971 240 935 244.029 935 249L935 255M905 240L835 240M805 255L805 249C805 244.029 809.029 240 814 240L815 240L815 239C815 236.791 816.791 235 819 235L821 235C823.209 235 825 236.791 825 239L825 240L835 240M835 240L835 -10" stroke="#08001B" stroke-width="12"/>
<path d="M935 -25L935 -19C935 -14.0294 930.971 -10 926 -10L925 -10L925 -9C925 -6.79086 923.209 -5 921 -5L919 -5C916.791 -5 915 -6.79086 915 -9L915 -10L905 -10L905 240L835 240L835 -10L825 -10L825 -9C825 -6.79087 823.209 -5 821 -5L819 -5.00001C816.791 -5.00001 815 -6.79087 815 -9.00001L815 -10L814 -10C809.029 -10 805 -14.0294 805 -19L805 -25L935 -25Z" fill="#08001B"/>
<path d="M905 -10L915 -10L915 -9C915 -6.79086 916.791 -5 919 -5L921 -5C923.209 -5 925 -6.79086 925 -9L925 -10L926 -10C930.971 -10 935 -14.0294 935 -19L935 -25L805 -25L805 -19C805 -14.0294 809.029 -10 814 -10L815 -10L815 -9.00001C815 -6.79087 816.791 -5.00001 819 -5.00001L821 -5C823.209 -5 825 -6.79087 825 -9L825 -10L835 -10M905 -10L905 240M905 -10L835 -10M905 240L915 240L915 239C915 236.791 916.791 235 919 235L921 235C923.209 235 925 236.791 925 239L925 240L926 240C930.971 240 935 244.029 935 249L935 255M905 240L835 240M805 255L805 249C805 244.029 809.029 240 814 240L815 240L815 239C815 236.791 816.791 235 819 235L821 235C823.209 235 825 236.791 825 239L825 240L835 240M835 240L835 -10" stroke="#36304F" stroke-width="4"/>
<path d="M905 270L905 520L915 520L915 519C915 516.791 916.791 515 919 515L921 515C923.209 515 925 516.791 925 519L925 520L926 520C930.971 520 935 524.029 935 529L935 535L805 535L805 529C805 524.029 809.029 520 814 520L815 520L815 519C815 516.791 816.791 515 819 515L821 515C823.209 515 825 516.791 825 519L825 520L835 520L835 270L905 270Z" fill="#08001B"/>
<path d="M935 255L935 261C935 265.971 930.971 270 926 270L925 270L925 271C925 273.209 923.209 275 921 275L919 275C916.791 275 915 273.209 915 271L915 270L905 270M805 255L805 261C805 265.971 809.029 270 814 270L815 270L815 271C815 273.209 816.791 275 819 275L821 275C823.209 275 825 273.209 825 271L825 270L835 270M905 270L905 520M905 270L835 270M905 520L915 520L915 519C915 516.791 916.791 515 919 515L921 515C923.209 515 925 516.791 925 519L925 520L926 520C930.971 520 935 524.029 935 529L935 535L805 535L805 529C805 524.029 809.029 520 814 520L815 520L815 519C815 516.791 816.791 515 819 515L821 515C823.209 515 825 516.791 825 519L825 520L835 520M905 520L835 520M835 520L835 270" stroke="#36304F" stroke-width="4"/>
<rect x="220" y="370" width="250" height="80" rx="28" stroke="#544C68" stroke-width="4"/>
<path fill-rule="evenodd" clip-rule="evenodd" d="M271 440C281.493 440 290 431.493 290 421L290 399C290 388.507 281.493 380 271 380L249 380C238.507 380 230 388.507 230 399L230 421C230 431.493 238.507 440 249 440L271 440ZM275 427C276.105 427 277 426.105 277 425L277 400C277 398.895 276.105 398 275 398C273.895 398 273 398.895 273 400L273 420.172L246.414 393.586C245.633 392.805 244.367 392.805 243.586 393.586C242.805 394.367 242.805 395.633 243.586 396.414L270.172 423L250 423C248.895 423 248 423.895 248 425C248 426.105 248.895 427 250 427L275 427Z" fill="#544C68"/>
<rect x="440" y="100" width="280" height="180" rx="16" stroke="#08001B" stroke-width="12"/>
<rect x="440" y="100" width="280" height="180" rx="16" fill="#08001B" stroke="#F5F1FF" stroke-width="4"/>
<rect x="460" y="120" width="160" height="140" rx="4" fill="#08001B" stroke="#F5F1FF" stroke-width="4"/>
<path d="M550 180V180C550 174.477 554.477 170 560 170H563C568.523 170 573 174.477 573 180V180.444C573 183.338 571.746 186.091 569.562 187.99L553.438 202.01C551.254 203.909 550 206.662 550 209.556V210H573" stroke="#F5F1FF" stroke-width="4" stroke-miterlimit="5.75877" stroke-linecap="round" stroke-linejoin="round"/>
<path d="M510 180L530 200M530 180L510 200" stroke="#F5F1FF" stroke-width="4" stroke-miterlimit="5.75877" stroke-linecap="round" stroke-linejoin="round"/>
<path fill-rule="evenodd" clip-rule="evenodd" d="M670 220C681.046 220 690 211.046 690 200C690 188.954 681.046 180 670 180C658.954 180 650 188.954 650 200C650 211.046 658.954 220 670 220ZM657.5 198C656.395 198 655.5 198.895 655.5 200C655.5 201.105 656.395 202 657.5 202H670C671.105 202 672 201.105 672 200C672 198.895 671.105 198 670 198H657.5Z" fill="#F5F1FF"/>
<path fill-rule="evenodd" clip-rule="evenodd" d="M655.858 135.858C648.047 143.668 648.047 156.332 655.858 164.142C663.668 171.953 676.332 171.953 684.142 164.142C691.953 156.332 691.953 143.668 684.142 135.858C676.332 128.047 663.668 128.047 655.858 135.858ZM680.253 142.575C681.034 141.794 681.034 140.528 680.253 139.747C679.472 138.966 678.206 138.966 677.425 139.747L668.586 148.586C667.805 149.367 667.805 150.633 668.586 151.414C669.367 152.195 670.633 152.195 671.414 151.414L680.253 142.575Z" fill="#F5F1FF"/>
</g>
</g>
<defs>
<filter id="filter0_i_2402_928" x="0" y="0" width="1440" height="480" filterUnits="userSpaceOnUse" color-interpolation-filters="sRGB">
<feFlood flood-opacity="0" result="BackgroundImageFix"/>
<feBlend mode="normal" in="SourceGraphic" in2="BackgroundImageFix" result="shape"/>
<feColorMatrix in="SourceAlpha" type="matrix" values="0 0 0 0 0 0 0 0 0 0 0 0 0 0 0 0 0 0 127 0" result="hardAlpha"/>
<feMorphology radius="7" operator="erode" in="SourceAlpha" result="effect1_innerShadow_2402_928"/>
<feOffset/>
<feGaussianBlur stdDeviation="4"/>
<feComposite in2="hardAlpha" operator="arithmetic" k2="-1" k3="1"/>
<feColorMatrix type="matrix" values="0 0 0 0 0.0313726 0 0 0 0 0 0 0 0 0 0.105882 0 0 0 1 0"/>
<feBlend mode="normal" in2="shape" result="effect1_innerShadow_2402_928"/>
</filter>
<clipPath id="clip0_2402_928">
<rect width="1440" height="480" rx="16" fill="white"/>
</clipPath>
</defs>
</svg>
