<svg width="21" height="21" viewBox="0 0 21 21" fill="none" xmlns="http://www.w3.org/2000/svg">
<path d="M14 2.5C14 2.5 15 1.5 16.5 1.5C18 1.5 19 2.5 19 2.5" stroke="#F5F1FF" stroke-width="0.5" stroke-linecap="square"/>
<path fill-rule="evenodd" clip-rule="evenodd" d="M10.5 1.25C11.6085 1.25 12.6715 1.445 13.6565 1.80257C13.6736 1.7884 13.6919 1.77355 13.7112 1.7581C13.8197 1.67129 13.9644 1.56434 14.1418 1.45289C13.0166 0.999538 11.7875 0.75 10.5 0.75C5.11522 0.75 0.75 5.11522 0.75 10.5C0.75 15.8848 5.11522 20.25 10.5 20.25C15.8848 20.25 20.25 15.8848 20.25 10.5C20.25 7.08286 18.4921 4.0763 15.8313 2.33533C15.6131 2.39108 15.4147 2.46932 15.2402 2.55523C17.9414 4.17034 19.75 7.12396 19.75 10.5C19.75 15.6086 15.6086 19.75 10.5 19.75C5.39137 19.75 1.25 15.6086 1.25 10.5C1.25 5.39137 5.39137 1.25 10.5 1.25Z" fill="url(#paint0_linear_2921_120)"/>
<path d="M6 3.5C6 3.5 7 2.5 8.5 2.5C10 2.5 11 3.5 11 3.5" stroke="#F5F1FF" stroke-width="0.5" stroke-linecap="square"/>
<path d="M10.5 10V7C10.5 6.17157 9.82843 5.5 9 5.5C8.17157 5.5 7.5 6.17157 7.5 7V10C7.5 10.8284 8.17157 11.5 9 11.5C9.82843 11.5 10.5 10.8284 10.5 10Z" stroke="#F5F1FF" stroke-width="0.5"/>
<path d="M17.5 9V6C17.5 5.17157 16.8284 4.5 16 4.5C15.1716 4.5 14.5 5.17157 14.5 6V9C14.5 9.82843 15.1716 10.5 16 10.5C16.8284 10.5 17.5 9.82843 17.5 9Z" stroke="#F5F1FF" stroke-width="0.5"/>
<path d="M14.3805 17.0865C13.5948 18.4473 12.122 18.958 11.1237 18.3816C10.1253 17.8052 9.83124 16.2744 10.6169 14.9136C11.4026 13.5528 12.8753 13.042 13.8737 13.6184C14.872 14.1949 15.1661 15.7257 14.3805 17.0865Z" stroke="#F5F1FF" stroke-width="0.5"/>
<path fill-rule="evenodd" clip-rule="evenodd" d="M10 11.1181V10.2071C10 9.75435 9.82014 9.32014 9.5 9C9.17986 8.67986 8.74565 8.5 8.29289 8.5H7.5V10C7.5 10.8284 8.17157 11.5 9 11.5C9.38418 11.5 9.73462 11.3556 10 11.1181Z" fill="#F5F1FF"/>
<path fill-rule="evenodd" clip-rule="evenodd" d="M17 10.1181V9.20711C17 8.75435 16.8201 8.32014 16.5 8C16.1799 7.67986 15.7456 7.5 15.2929 7.5H14.5V9C14.5 9.82843 15.1716 10.5 16 10.5C16.3842 10.5 16.7346 10.3556 17 10.1181Z" fill="#F5F1FF"/>
<defs>
<linearGradient id="paint0_linear_2921_120" x1="4.1625" y1="3.1875" x2="17.8125" y2="17.325" gradientUnits="userSpaceOnUse">
<stop stop-color="#FF00AA"/>
<stop offset="1" stop-color="#FFAA00"/>
</linearGradient>
</defs>
</svg>
