<svg width="24" height="24" viewBox="0 0 24 24" fill="none" xmlns="http://www.w3.org/2000/svg">
<path fill-rule="evenodd" clip-rule="evenodd" d="M0.727839 13.0107C0.255593 14.0768 0 15.2459 0 16.4523V18.9464C0 21.9827 3.24992 23.9119 5.91542 22.458L19.5703 15.0098C19.9269 14.8153 20.266 14.5973 20.5859 14.3584C20.3296 13.7361 19.9607 13.1645 19.4969 12.6738C19.221 12.8889 18.9256 13.0832 18.6126 13.254L4.95771 20.7022C3.62496 21.4292 2 20.4645 2 18.9464V16.4523C2 15.8498 2.08336 15.2595 2.24177 14.6954C1.66858 14.1936 1.16113 13.6272 0.727839 13.0107ZM4.50318 11.3262C4.03938 10.8354 3.6704 10.2639 3.41408 9.64155C3.73405 9.40269 4.0731 9.18473 4.42976 8.9902L18.0846 1.5421C20.7501 0.0881946 24 2.01745 24 5.05369V7.54771C24 8.75413 23.7444 9.92317 23.2722 10.9893C22.8389 10.3727 22.3314 9.80639 21.7583 9.30453C21.9167 8.74042 22 8.15016 22 7.54771V5.05369C22 3.53557 20.375 2.57094 19.0423 3.29789L5.38746 10.746C5.07439 10.9168 4.77906 11.1111 4.50318 11.3262Z" fill="#08001B"/>
<path fill-rule="evenodd" clip-rule="evenodd" d="M2 5.05356C2 3.53545 3.62495 2.57082 4.9577 3.29777L8.86741 5.43034L10.9557 4.29126L5.91541 1.54198C3.24991 0.0880726 0 2.01733 0 5.05356V7.54769C0 10.6582 1.69904 13.5203 4.42976 15.0098L8.86752 17.4304L10.9559 16.2913L5.38746 13.254C3.29927 12.115 2 9.92633 2 7.54769V5.05356ZM15.1325 18.5695L13.0442 19.7086L18.0846 22.4579C20.7501 23.9118 24 21.9825 24 18.9463V16.4522C24 13.3417 22.301 10.4796 19.5702 8.99007L15.1324 6.56944L13.0441 7.70852L18.6125 10.7459C20.7007 11.8849 22 14.0735 22 16.4522V18.9463C22 20.4644 20.375 21.4291 19.0423 20.7021L15.1325 18.5695Z" fill="url(#paint0_linear_2779_161)"/>
<defs>
<linearGradient id="paint0_linear_2779_161" x1="6" y1="-0.321091" x2="16.3077" y2="23.6788" gradientUnits="userSpaceOnUse">
<stop stop-color="#FF00AA"/>
<stop offset="1" stop-color="#FFAA00"/>
</linearGradient>
</defs>
</svg>
