<svg width="24" height="24" viewBox="0 0 24 24" fill="none" xmlns="http://www.w3.org/2000/svg">
<path fill-rule="evenodd" clip-rule="evenodd" d="M0.777577 12.9906C0.273766 14.0856 0 15.2936 0 16.5424V18.5467C0 21.5518 3.18983 23.4837 5.85303 22.0916L19.4377 14.9905C19.8322 14.7842 20.206 14.5496 20.5571 14.2898C20.2929 13.6721 19.917 13.1062 19.4473 12.622C19.1557 12.8447 18.843 13.0445 18.5112 13.218L4.92651 20.3192C3.59492 21.0152 2 20.0493 2 18.5467V16.5424C2 15.8884 2.09821 15.249 2.28387 14.6419C1.71549 14.1501 1.21064 13.5952 0.777577 12.9906ZM4.60361 11.3395C4.12786 10.8619 3.74487 10.3016 3.47264 9.68831C3.81509 9.43721 4.17892 9.20995 4.56231 9.00954L18.147 1.90839C20.8102 0.516254 24 2.44819 24 5.45329V7.45756C24 8.68547 23.7353 9.87393 23.2475 10.9543C22.8144 10.3439 22.3084 9.78333 21.7376 9.28649C21.9093 8.70084 22 8.08595 22 7.45756V5.45329C22 3.95074 20.4051 2.98477 19.0735 3.68084L5.48882 10.782C5.17618 10.9454 4.88055 11.1322 4.60361 11.3395Z" fill="#F5F1FF"/>
<path fill-rule="evenodd" clip-rule="evenodd" d="M2 5.05356C2 3.53545 3.62495 2.57082 4.9577 3.29777L9.05489 5.5326L11.1877 4.41776L5.91541 1.54198C3.24991 0.0880726 0 2.01733 0 5.05356V7.45753C0 10.622 1.75791 13.5245 4.56234 14.9905L8.76198 17.1857L10.9206 16.0573L5.48885 13.218C3.34428 12.097 2 9.87742 2 7.45753V5.05356ZM15.238 18.3141L13.0793 19.4425L18.147 22.0915C20.8102 23.4836 24 21.5517 24 18.5466V16.4522C24 13.3417 22.301 10.4796 19.5702 8.99007L15.4131 6.72256L13.2803 7.8374L18.6125 10.7459C20.7007 11.8849 22 14.0735 22 16.4522V18.5466C22 20.0492 20.4051 21.0151 19.0735 20.3191L15.238 18.3141Z" fill="url(#paint0_linear_2719_62)"/>
<defs>
<linearGradient id="paint0_linear_2719_62" x1="6" y1="-0.296095" x2="15.9911" y2="23.3991" gradientUnits="userSpaceOnUse">
<stop stop-color="#FF00AA"/>
<stop offset="1" stop-color="#FFAA00"/>
</linearGradient>
</defs>
</svg>
