<svg width="48" height="16" viewBox="0 0 48 16" fill="none" xmlns="http://www.w3.org/2000/svg">
<rect x="28.5586" y="6.19995" width="7.00001" height="8" rx="3.50001" stroke="#08001B" stroke-width="2"/>
<path d="M4.78028 6.4C2.84728 6.4 1.28027 7.967 1.28027 9.9L1.28028 15" stroke="#08001B" stroke-width="2"/>
<path fill-rule="evenodd" clip-rule="evenodd" d="M2.28028 15.0199L2.28028 5.49988C2.28027 4.11917 3.39956 2.99988 4.78028 2.99988L4.78028 0.999878C2.295 0.999878 0.280273 3.0146 0.280273 5.49988L0.280274 15.0199L2.28028 15.0199Z" fill="#08001B"/>
<path d="M6.78027 5.3999V10.7999C6.78027 12.6777 8.30251 14.1999 10.1803 14.1999V14.1999C12.0581 14.1999 13.5803 12.6777 13.5803 10.7999V5.3999" stroke="#08001B" stroke-width="2"/>
<path d="M45.3586 15V9.59996C45.3586 7.72219 43.8364 6.19995 41.9586 6.19995V6.19995C40.0808 6.19995 38.5586 7.72219 38.5586 9.59996V15" stroke="#08001B" stroke-width="2"/>
<path d="M25.5584 3.17979C26.2211 3.17979 26.7584 2.64253 26.7584 1.97979C26.7584 1.31704 26.2211 0.779785 25.5584 0.779785C24.8957 0.779785 24.3584 1.31704 24.3584 1.97979C24.3584 2.64253 24.8957 3.17979 25.5584 3.17979Z" fill="#08001B"/>
<path d="M26.5584 5.39979H24.5584V14.9998H26.5584V5.39979Z" fill="#08001B"/>
<path d="M19.4784 5.19995C21.4736 5.19995 23.3678 6.50528 23.5584 8.29995H21.3503C21.3004 7.63568 20.3684 7.19995 19.3784 7.19995C18.3034 7.19995 17.6784 7.72995 17.6784 8.29995C17.6784 10.05 23.6785 8.29995 23.6785 12.1C23.6785 14.1527 21.6672 15.2025 19.6784 15.2025C17.6833 15.2025 15.5891 13.8971 15.3984 12.1025H17.6066C17.6565 12.7667 18.7834 13.2025 19.7784 13.2025C20.8784 13.2025 21.5784 12.6725 21.5784 12.1025C21.5784 10.42 15.5784 12.1025 15.5784 8.29995C15.5784 6.24717 17.7897 5.19995 19.4784 5.19995Z" fill="#08001B"/>
</svg>
